<?xml version="1.0" encoding="UTF-8" standalone="no"?>
<svg
   version="1.2"
   width="672.35107"
   height="599.99994"
   viewBox="0 0 672.35107 599.99994"
   stroke-linecap="round"
   stroke-linejoin="round"
   id="svg1831"
   sodipodi:docname="ai.svg"
   inkscape:version="1.2 (dc2aedaf03, 2022-05-15)"
   xmlns:inkscape="http://www.inkscape.org/namespaces/inkscape"
   xmlns:sodipodi="http://sodipodi.sourceforge.net/DTD/sodipodi-0.dtd"
   xmlns="http://www.w3.org/2000/svg"
   xmlns:svg="http://www.w3.org/2000/svg">
  <defs
     id="defs1835" />
  <sodipodi:namedview
     id="namedview1833"
     pagecolor="#505050"
     bordercolor="#eeeeee"
     borderopacity="1"
     inkscape:showpageshadow="0"
     inkscape:pageopacity="0"
     inkscape:pagecheckerboard="0"
     inkscape:deskcolor="#505050"
     showgrid="false"
     inkscape:zoom="1.1610644"
     inkscape:cx="335.0374"
     inkscape:cy="231.68396"
     inkscape:window-width="1920"
     inkscape:window-height="1009"
     inkscape:window-x="-8"
     inkscape:window-y="-8"
     inkscape:window-maximized="1"
     inkscape:current-layer="svg1831" />
  <g
     id="ai"
     transform="matrix(0.84129213,0,0,0.84129213,-0.34129233,-0.34130443)"
     style="fill:#ffff80;fill-opacity:1;stroke:#000000;stroke-width:1.18865;stroke-dasharray:none;stroke-opacity:1">
    <path
       d="m 123.39,312.01 4.31,0.59 -2.02,9.65 -5.47,1.87 -4.21,-8.6 1.8,-3.53 z m 20.16,-13.21 2.76,1.98 -4.76,14.61 -6.75,1.67 3.48,-10.95 -0.59,-4.25 z m 4.14,3.73 3.88,-2.59 0.52,-16.5 -10.35,-0.4 -4.68,1.85 0.52,5.14 -9.52,21.49 -8.88,-2.26 4.87,-15.79 -1.66,-4.23 -15.43,2.48 -10.2,-11.19 -8.35,-2.99 0.1,-4.15 -4.22,-8.76 1.53,-8.2 4.09,-8.84 0.54,-13.12 5.55,0.37 0.31,-5.03 -4.68,-0.52 -0.59,-6 4.16,-5.8 7.28,2.98 -0.81,4.77 8.96,1.44 3.68,-10.24 3.85,-3.9 4.73,-5.49 5.74,-6.42 8.1,-3.64 7.52,-12.42 -0.29,-1.79 -12.54,-4.97 -2.75,-4.95 1.04,-7.99 9.02,-0.33 2.64,4.97 18.05,-8.89 1.42,-4.05 5.36,3.35 6.61,-1.6 4.41,-3.58 1.57,8 -2.46,1.69 7.45,11.87 7.13,0.77 18.59,-1.96 5.38,-5.74 5.22,-1.26 0.5,-9.44 2.36,-2.49 8.37,0.38 3.76,-3.65 1.98,-5.81 4.48,-0.63 6.21,-5.61 14.6,-1.03 3.19,8.28 3.38,3.49 -11.09,4.03 -3.2,2.86 -13.57,5.78 -5.92,8.52 -2.84,1.64 -3.58,8.38 8.09,6.97 13.08,7.78 -8.44,0.93 3.99,4.72 -1.23,9.53 2.38,4.29 -3.16,4.66 2.85,5.92 -5.92,7.7 3.34,6.09 -4.35,2.86 -6.86,0.49 -2.56,6.27 12.28,15.68 1.6,5.95 -2.36,5.59 1.01,4.11 -2.75,-0.74 -5.47,14.14 -3.32,2.79 -4.56,-1.81 -7.21,1.35 -2.34,9.49 -5.67,-0.89 -2.5,4.97 1.01,6.26 -1.12,5 -7.14,2.95 -5.99,-4.39 -4.73,0.49 -3.6,-6.71 -6.78,1.19 -4.72,-11.51 -4.58,1.26 -3.26,-4.68 -8.34,-0.38 z"
       fill-rule="evenodd"
       id="M23100"
       style="fill:#ffff80;fill-opacity:1;stroke:#000000;stroke-width:1.18865;stroke-dasharray:none;stroke-opacity:1" />
    <path
       d="m 177.22,154.74 -4.41,3.58 -6.61,1.6 -5.36,-3.35 1.21,-6.89 -1.7,-5.85 4.33,-5.19 5.91,-3.05 4.48,1.6 4.91,5.1 0.48,9.06 z"
       id="M23342"
       style="fill:#ffff80;fill-opacity:1;stroke:#000000;stroke-width:1.18865;stroke-dasharray:none;stroke-opacity:1" />
    <path
       d="m 153.73,40.26 10.89,0.45 8.91,-1.24 -3.15,6.39 2.87,3.04 9.78,-1.98 3.18,7.5 -2.97,9.57 -11.35,-1.45 -6.47,2.26 -6.92,6.52 -5.37,-10.52 3.15,-4.98 1.7,-10.22 z"
       id="M23362"
       style="fill:#ffff80;fill-opacity:1;stroke:#000000;stroke-width:1.18865;stroke-dasharray:none;stroke-opacity:1" />
    <path
       d="m 158.5,71.32 6.92,-6.52 6.47,-2.26 11.35,1.45 2.97,-9.57 1.19,7.62 -7.18,20.01 -6.48,7.91 -10.04,-0.78 -7.79,11.46 -5.76,1.75 -3.16,-3.94 0.44,-7.77 3.78,-2.44 3.77,-11.91 z"
       id="M23361"
       style="fill:#ffff80;fill-opacity:1;stroke:#000000;stroke-width:1.18865;stroke-dasharray:none;stroke-opacity:1" />
    <path
       d="m 242.47,282.35 -1.01,-4.11 2.36,-5.59 -1.6,-5.95 8.12,-2.43 4.51,3.36 4.66,-4.38 9.9,-1.04 4.95,-5.05 5.28,1.51 6.23,-5.07 3.33,1.87 -2.72,15.47 -2.3,6.18 -11.05,0.69 -7.09,4.69 -3.96,12.83 -3.37,5.57 -1.47,1.12 -1.53,-9.84 -3.57,-3.65 -5.58,-1.15 z"
       id="M23302"
       style="fill:#ffff80;fill-opacity:1;stroke:#000000;stroke-width:1.18865;stroke-dasharray:none;stroke-opacity:1" />
    <path
       d="m 764.06,275.27 -2.83,-0.71 -8.65,-9.76 -9.49,-2.39 -1.6,-6.8 -3.93,0.3 -16.64,-7.06 -2.75,4.56 -12.06,1.26 -3.53,-7.46 -12.74,3.28 -7.47,-0.32 -3.03,-8.43 10.49,-1.79 4.72,-2.93 -0.31,-11.24 -6.87,-14.7 -2.47,-9.57 -5.84,-10.02 1.41,-13.69 -2.4,-1.95 0.28,-7.73 9.63,-0.5 9.22,-6.57 4.11,3.68 4.71,-2.52 8.07,-0.11 4.14,4.19 7.16,-1.39 0.18,7.11 9.03,-0.5 5.37,3.22 11.76,-1.59 5.27,1.94 -0.21,9.76 7.84,3.49 3.03,-2.72 11.67,0.28 4.38,-3.51 10.16,-4.93 3.6,-0.25 1.5,9.8 -5,0.96 -5.41,14.27 -4.42,-1.31 -2.9,3.97 4.99,7.01 5.31,0.11 5.05,5.46 -2.88,8.23 5.29,5.51 -4.9,3.29 -5.71,-2.54 0.89,8.89 -6.2,7.88 -4.91,-3.65 -0.99,7.04 2.77,17.28 -4.23,2.96 -1.53,6.34 -7.73,-0.91 z"
       id="M23563"
       style="fill:#ffff80;fill-opacity:1;stroke:#000000;stroke-width:1.18865;stroke-dasharray:none;stroke-opacity:1" />
    <path
       d="m 679.34,241.74 3.03,8.43 7.47,0.32 12.74,-3.28 3.53,7.46 12.06,-1.26 2.75,-4.56 16.64,7.06 3.93,-0.3 1.6,6.8 9.49,2.39 8.65,9.76 2.83,0.71 -2.56,5.84 0.77,12.39 -4.96,4.76 -19.43,13.32 -7.95,13.62 -7.86,4.37 -0.57,6.47 -7.99,10.7 0.6,-6.48 -3.07,-6.57 -6.81,-2.36 0.05,-4.13 -7.44,-3.79 -4.25,1.83 -5.52,-1.54 -2.9,-6.46 -5.31,-0.11 -1.78,-3.81 -9.82,-8.29 -2.5,-6.9 -0.62,-9.65 -5.48,-4.56 -2.95,-7.33 -7.9,0.16 -2.38,-11.19 2.81,-6.91 0.08,-17.41 7.64,1.68 6.55,-3.9 4.5,0.26 8.92,-3.38 z"
       id="M23562"
       style="fill:#ffff80;fill-opacity:1;stroke:#000000;stroke-width:1.18865;stroke-dasharray:none;stroke-opacity:1" />
    <path
       d="m 678.07,175.85 2.4,1.95 -1.41,13.69 5.84,10.02 2.47,9.57 6.87,14.7 0.31,11.24 -4.72,2.93 -10.49,1.79 -3.41,-5.84 -8.92,3.38 -4.5,-0.26 -6.55,3.9 -7.64,-1.68 -0.08,17.41 -2.81,6.91 2.38,11.19 7.9,-0.16 2.95,7.33 5.48,4.56 0.62,9.65 2.5,6.9 -6.5,8.43 -3.77,11.79 1.12,5.69 -3.14,12 -11.09,2.45 -3.23,-7.61 -6.54,-7.39 0.38,-2.97 -7.3,-18.46 -6.63,-0.67 -7.45,4.49 -11.25,-1.87 -5.77,4.78 -2.33,7.68 -9.52,-4.06 -3.99,6.44 -4.42,-1.64 3.28,-6.53 -5.27,-13.49 -7.45,-2.88 -2.09,3.91 -8.67,2.15 -3.35,6.55 -13.1,-0.36 -2.13,-3.61 1.68,-6.85 -3.44,-4.4 -2.46,-7.78 -6.3,-4.92 -2.48,-7.44 -0.44,-7.18 2.81,-3.23 6.22,-1.6 3.61,-8.05 0.47,-5.1 -2.64,-4.01 8.78,-2.52 7.48,-6.39 4.55,-7.64 -8.68,-8.48 8.47,-8.23 6,-8.11 -0.56,-5.1 3.16,-6.86 5.84,-3.02 4.91,1.48 -1.78,9.11 8.65,-0.44 4.4,6.06 12.97,-10.34 5.9,2.52 3.1,-1.44 10.93,0.82 5.9,2.13 4.06,-3.93 -1.68,-6.96 8.85,-0.74 7.99,-5.68 16.35,-4.9 12.28,2.43 0.53,-4.24 z"
       id="M23561"
       style="fill:#ffff80;fill-opacity:1;stroke:#000000;stroke-width:1.18865;stroke-dasharray:none;stroke-opacity:1" />
    <path
       d="m 373.88,470.45 -5.34,5.49 0.76,3.93 -5.8,2.78 -2.85,4.14 3.48,5.61 -4.31,7.36 5.41,6.35 -20.1,3.07 -4.64,5.51 -5.72,-8.42 -14.03,-7.85 -7.62,-8.45 -4.66,4.77 -10.69,-3.34 2.04,-7.64 5.83,-1.54 5.7,6.45 3.86,-6.33 -3.22,-4.64 -4.93,-0.76 -2.19,-4.16 2.19,-4.23 12.06,0.24 4.83,-10.76 -1.29,-6.81 10.87,3.11 3.15,-1.97 2.51,-9.42 3.67,-4.44 6.8,-3.41 10.98,3.62 1.98,3.82 5.06,1.53 3.53,5.59 -4.07,1.44 -1.16,5.07 6.99,5.69 z"
       id="M23501"
       style="fill:#ffff80;fill-opacity:1;stroke:#000000;stroke-width:1.18865;stroke-dasharray:none;stroke-opacity:1" />
    <path
       d="m 104.77,352.39 -6.68,10.11 -8.11,-6.38 6.07,-7.73 8.71,-4.08 z"
       id="M23999"
       style="fill:#33ff33;fill-opacity:1;stroke:#000000;stroke-width:1.18865;stroke-dasharray:none;stroke-opacity:1" />
    <path
       d="m 69.08,259.53 2.69,3.14 7.84,2.91 7.58,11.43 -7.85,4.63 -4.57,-4.36 -4.9,3.94 -8.74,1.57 3.52,4.82 8.05,2.75 13.96,13.52 7.8,4.54 -0.04,7.35 -6.71,0.04 2.56,5.71 -0.28,13.39 -9.72,-5.78 -3.7,1.79 10.92,9.5 -1.88,6.56 -5.56,-4.28 -3.07,1.18 -5.97,-5.25 -8.16,-11.22 -5.14,-12.88 -0.94,-15.74 -1.7,-7.6 -5.32,-4.4 -7.29,-9.54 -11.86,-6.65 -8.72,-11.33 3.74,-2.21 -1.61,-5.71 8.77,-3.62 5.39,4 8.45,0.36 6.24,-2.9 11.19,12.15 z"
       id="M23235"
       style="fill:#ffff80;fill-opacity:1;stroke:#000000;stroke-width:1.18865;stroke-dasharray:none;stroke-opacity:1" />
    <path
       d="m 160.84,156.57 -1.42,4.05 -18.05,8.89 -2.64,-4.97 -9.02,0.33 -4.84,-6.18 -4.97,0.49 -3.07,-7.43 2.76,-4.78 -0.02,-6.75 5.19,-4.15 6.46,-0.15 9.87,5.47 4.34,-6.92 0.98,1.97 9.72,1.17 4.22,6.22 1.7,5.85 z"
       id="M23234"
       style="fill:#ffff80;fill-opacity:1;stroke:#000000;stroke-width:1.18865;stroke-dasharray:none;stroke-opacity:1" />
    <path
       d="m 129.71,164.87 -1.04,7.99 2.75,4.95 12.54,4.97 0.29,1.79 -7.52,12.42 -8.1,3.64 -5.74,6.42 -2.88,-11.24 -4.18,-3.02 -0.75,-6.06 -9.42,0.44 -0.16,-9.46 2.35,-5.58 6.07,-0.34 2.4,-6 -5.96,-6.03 -0.53,-5.56 5.34,-6.28 4.42,-0.95 -2.76,4.78 3.07,7.43 4.97,-0.49 z"
       id="M23233"
       style="fill:#ffff80;fill-opacity:1;stroke:#000000;stroke-width:1.18865;stroke-dasharray:none;stroke-opacity:1" />
    <path
       d="m 69.08,259.53 -5.03,1.81 -11.19,-12.15 -6.24,2.9 -8.45,-0.36 -5.39,-4 -8.77,3.62 1.61,5.71 -3.74,2.21 -4.29,-5.05 L 4.63,250.63 1.07,241.38 3.22,230.71 1,213.08 1.82,200.12 9.28,190.8 7.03,166.86 l 4.99,-5.04 5.15,-1.43 10.6,4.71 7.71,0.05 -2.44,6.03 7.41,2.75 1.45,9.88 -4.66,7.28 9.05,4.82 4.01,-0.85 7.01,-8 6.55,-0.86 0.85,4.69 -6.55,17.49 -11.2,-1.95 -19.84,-6.89 -1.36,8.72 2.01,12.96 11.61,-3.9 3.82,1.44 14.71,15.13 4.18,12.76 7.7,-2.75 1.73,7.84 z"
       id="M23232"
       style="fill:#ffff80;fill-opacity:1;stroke:#000000;stroke-width:1.18865;stroke-dasharray:none;stroke-opacity:1" />
    <path
       d="m 439.32,627.94 2.48,4.96 -2.85,7.9 11.94,3.39 10.48,-0.31 1.57,11.24 -22.4,6.53 -23.79,7.95 -23.27,8.47 -12.83,5.76 -10.45,2.26 -9.7,4.44 -9.06,2.03 -10.71,5.15 -14.55,5.46 -17.69,2.52 -15.56,-3.04 -18.13,4.09 -20.38,5.9 -5.25,-1.71 -9.05,2.07 6.33,-10.12 2.06,-8.84 8.13,-16.12 12.12,-27.58 5.99,-6.71 9.14,-0.48 5.96,4.81 -0.56,5.31 8.62,3.43 0.06,6.24 12,2.97 11.81,-5.5 2.54,-4.55 -6,-8.14 8.14,1.96 18.26,-2.1 11.21,-10.51 8.09,0.15 5.86,-7.56 3.8,-1.05 8.08,2.95 4.07,-2.91 2.44,-8.04 4.5,-1.62 -4.74,-7.14 8.82,-5.92 4.62,0.84 4.01,7.05 2.56,-1.7 3.58,-8.21 -3.57,-6.11 15.92,-12.61 11.1,2.41 -0.03,28.75 -6.72,2.18 -3.17,5.2 z"
       id="M23231"
       style="fill:#ffff80;fill-opacity:1;stroke:#000000;stroke-width:1.18865;stroke-dasharray:none;stroke-opacity:1" />
    <path
       d="m 242.22,266.7 -12.28,-15.68 2.56,-6.27 6.86,-0.49 4.35,-2.86 -3.34,-6.09 5.92,-7.7 11.39,-5.58 3.11,-4.21 8.03,0.01 -0.34,4.54 11.61,3.58 13.83,0.82 0.94,10.56 -6.45,4.57 1.74,5.82 -4.28,5.88 -6.23,5.07 -5.28,-1.51 -4.95,5.05 -9.9,1.04 -4.66,4.38 -4.51,-3.36 z"
       id="M23230"
       style="fill:#ffff80;fill-opacity:1;stroke:#000000;stroke-width:1.18865;stroke-dasharray:none;stroke-opacity:1" />
    <path
       d="m 209.66,317.91 -1.01,-6.26 2.5,-4.97 5.67,0.89 2.34,-9.49 7.21,-1.35 4.56,1.81 3.32,-2.79 5.47,-14.14 2.75,0.74 4.09,5.03 5.58,1.15 3.57,3.65 1.53,9.84 -0.16,4.49 -6.07,7.88 -5.88,3.12 -5.6,8.19 -8.18,5.24 -2.55,5.46 -3.17,-10.03 -6.66,0.8 -1.99,-4.02 z"
       id="M23229"
       style="fill:#ffff80;fill-opacity:1;stroke:#000000;stroke-width:1.18865;stroke-dasharray:none;stroke-opacity:1" />
    <path
       d="m 145.43,134.47 -4.34,6.92 -9.87,-5.47 -6.46,0.15 -4.73,-5.49 3.56,-7.26 5.1,-0.05 5.5,-9.07 0.47,-5.12 5.28,-0.88 3.13,-3.87 4.65,2.45 -0.62,8.34 1.87,5.26 -0.59,6.85 z"
       id="M23228"
       style="fill:#ffff80;fill-opacity:1;stroke:#000000;stroke-width:1.18865;stroke-dasharray:none;stroke-opacity:1" />
    <path
       d="m 234.92,403.41 1.08,9.87 3.28,3.82 5.07,-0.53 -15.59,14.36 -3.45,0.05 -9.27,5.94 -3.8,0.17 0.13,-6.48 2.99,-12.06 -1.87,-3.33 1.47,-9.13 3.32,-6.54 -2.16,-3.22 0.01,-0.15 5.71,-1.34 z"
       id="M23227"
       style="fill:#ffff80;fill-opacity:1;stroke:#000000;stroke-width:1.18865;stroke-dasharray:none;stroke-opacity:1" />
    <path
       d="m 249.9,197.56 -13.08,-7.78 -8.09,-6.97 3.58,-8.38 2.84,-1.64 5.92,-8.52 13.57,-5.78 3.2,-2.86 11.09,-4.03 4.06,6.26 -5.84,14.37 1.86,4.97 5.66,1.48 -4.13,4.88 -9.04,4.8 0.51,6.73 -4.34,3.01 z"
       id="M23226"
       style="fill:#ffff80;fill-opacity:1;stroke:#000000;stroke-width:1.18865;stroke-dasharray:none;stroke-opacity:1" />
    <path
       d="m 286.29,350.88 -4.26,7.82 -6.07,2.73 1.6,9.5 -5.78,1.12 -2.48,4.04 -10.05,-0.63 -5.22,-3.95 -6.02,-0.34 -7.51,-10.01 3.15,-6.55 4.86,-1.55 6.53,-12.26 5.66,6.32 9.66,3.96 7.49,-6.93 3.36,8.19 z"
       id="M23225"
       style="fill:#ffff80;fill-opacity:1;stroke:#000000;stroke-width:1.18865;stroke-dasharray:none;stroke-opacity:1" />
    <path
       d="m 106.56,393.05 -2.76,8.36 -6.38,-4.21 5.29,-8.05 z m 31.36,-40.93 6.93,3.55 3.75,4.95 5.38,1.2 3.32,13.19 6.27,0.64 5.07,9.1 2.49,5.75 -7.9,8.73 -8.38,-5.41 -6.35,1.9 -4.4,4.8 1.32,7.08 -11.33,0.66 -6.37,7.84 -5.47,0.14 -8.4,-4.48 -6.8,-1.6 0.88,-11.39 1.81,-7.12 -5.72,-4.22 9.19,-13.36 8.53,-14.07 -1.7,-4.83 4.01,-4.95 z"
       fill-rule="evenodd"
       id="M23224"
       style="fill:#ffff80;fill-opacity:1;stroke:#000000;stroke-width:1.18865;stroke-dasharray:none;stroke-opacity:1" />
    <path
       d="m 180.3,316.44 6.78,-1.19 3.6,6.71 4.73,-0.49 5.99,4.39 7.14,-2.95 1.12,-5 7.32,5.24 1.99,4.02 6.66,-0.8 3.17,10.03 -7.59,3.96 -1.68,11.21 -4.93,6.33 -5.84,1.7 -7.42,-3.38 -10.76,9.77 -6.71,1.87 -9.09,11.61 -2.88,-4.96 -1.36,-10.32 1.2,-10.81 5.32,-6.19 4.92,2.51 4.57,-3.5 -5.44,-3.85 0.61,-3.77 -4.64,-4.95 4,-10.3 z"
       id="M23223"
       style="fill:#ffff80;fill-opacity:1;stroke:#000000;stroke-width:1.18865;stroke-dasharray:none;stroke-opacity:1" />
    <path
       d="m 147.69,302.53 11.71,-1.4 8.34,0.38 3.26,4.68 4.58,-1.26 4.72,11.51 0.78,6.89 -4,10.3 4.64,4.95 -0.61,3.77 5.44,3.85 -4.57,3.5 -4.92,-2.51 -5.32,6.19 -1.2,10.81 1.36,10.32 2.88,4.96 -6.14,5.28 -5.07,-9.1 -6.27,-0.64 -3.32,-13.19 -5.38,-1.2 -3.75,-4.95 -6.93,-3.55 0.55,-3.59 -12.34,-2.17 1.07,-4.46 11.05,-18.29 6.17,-4.35 4.94,-15.51 z"
       id="M23222"
       style="fill:#ffff80;fill-opacity:1;stroke:#000000;stroke-width:1.18865;stroke-dasharray:none;stroke-opacity:1" />
    <path
       d="m 667.26,305.03 9.82,8.29 1.78,3.81 5.31,0.11 2.9,6.46 5.52,1.54 4.25,-1.83 7.44,3.79 -0.05,4.13 6.81,2.36 3.07,6.57 -0.6,6.48 -2.67,9.44 0.66,4.26 4.22,3.38 -5.67,8.09 5.06,10.56 -7.66,0.72 -4.25,6.55 -0.3,5.75 -4.57,1.56 -5.1,8.08 -3.36,-2.46 -7.66,3.11 -5.87,9.43 1.27,6.62 -4.05,5.63 0.62,5.59 -5.11,6.3 0.56,9.71 -5.28,6.39 -11.95,8.52 -12.91,2.39 -1.59,11.28 -5.65,7.59 -15.04,-1.76 -9.79,2.27 -8.38,6.41 -3.07,-2 -7.24,2.69 -4.19,4.31 -6.79,0.72 -5.5,3.11 -0.75,3.76 -6.92,-4.92 -1.1,-8.78 -5.55,-4.6 1.67,-5.97 -6.62,-4.71 -7.36,2.17 -5.98,-4.4 5.02,-5.93 -2.79,-7.04 -8.68,-10.71 -0.25,-3.5 -9.81,-2.89 -3.9,-3.18 -1.72,-5.22 0.36,-5.01 -2.72,-6.55 -4.1,-3.5 -1.07,-8.4 2.08,-3.83 -7.27,-7.8 0.26,-6.51 -7.36,-5.65 5.83,-8.28 0.07,-5.25 -6.71,-0.73 -3.76,-6.61 5.76,-3.46 2.57,-9.04 7.05,-5.73 6.15,2.43 6.2,-1.61 0.3,-10.24 6.65,-5.62 -3.62,-6.07 1.02,-12.27 5.62,-8.55 3.76,-1.14 0.71,-7.04 3.44,4.4 -1.68,6.85 2.13,3.61 13.1,0.36 3.35,-6.55 8.67,-2.15 2.09,-3.91 7.45,2.88 5.27,13.49 -3.28,6.53 4.42,1.64 3.99,-6.44 9.52,4.06 2.33,-7.68 5.77,-4.78 11.25,1.87 7.45,-4.49 6.63,0.67 7.3,18.46 -0.38,2.97 6.54,7.39 3.23,7.61 11.09,-2.45 3.14,-12 -1.12,-5.69 3.77,-11.79 z"
       id="M23221"
       style="fill:#ffff80;fill-opacity:1;stroke:#000000;stroke-width:1.18865;stroke-dasharray:none;stroke-opacity:1" />
    <path
       d="m 115.17,147.92 -5.34,6.28 0.53,5.56 5.96,6.03 -2.4,6 -6.07,0.34 -2.35,5.58 -9.81,-1.83 -1.39,3.57 -8.4,0.13 -9.77,4.52 -12.27,2.1 -6.55,0.86 -7.01,8 -4.01,0.85 -9.05,-4.82 4.66,-7.28 -1.45,-9.88 -7.41,-2.75 2.44,-6.03 -7.71,-0.05 -10.6,-4.71 -5.15,1.43 -4.99,5.04 -1.34,-11.23 1.15,-2.97 7.61,-6.91 5.14,-7.35 4.47,-11.53 8.41,3.39 13.47,2.86 2.71,8.48 13.62,-8.2 0.76,3.5 10.15,2.85 7.15,-2.57 3.37,-4.27 8.6,-2.14 2.65,-4.55 10.63,0.45 4.13,5.49 z"
       id="M23220"
       style="fill:#ffff80;fill-opacity:1;stroke:#000000;stroke-width:1.18865;stroke-dasharray:none;stroke-opacity:1" />
    <path
       d="m 179.98,142.29 -4.91,-5.1 -4.48,-1.6 -5.91,3.05 -4.33,5.19 -4.22,-6.22 -9.72,-1.17 -0.98,-1.97 2.95,-7.24 0.59,-6.85 -1.87,-5.26 0.62,-8.34 2.43,-4.39 5.76,-1.75 7.79,-11.46 10.04,0.78 3.6,-1.76 16.09,-1.3 -2.07,8.05 12.03,-2.76 3.16,-4.76 6.57,-2.06 4.39,2.9 2.68,-7.88 15.86,-0.91 0.49,-2.66 13.49,0.9 9.5,-4.79 -4.24,7.91 -10.52,4.31 -4.34,6.67 -0.59,9.11 -2.79,10.99 -4.11,5.91 -12.58,4.79 -11.42,-3.92 -10.92,3.62 -9.61,-5.32 1.99,8.24 -10.17,3.49 z"
       id="M23219"
       style="fill:#ffff80;fill-opacity:1;stroke:#000000;stroke-width:1.18865;stroke-dasharray:none;stroke-opacity:1" />
    <path
       d="m 153.73,40.26 4.25,5.34 -1.7,10.22 -3.15,4.98 5.37,10.52 -3.52,5.01 -3.77,11.91 -3.78,2.44 -0.44,7.77 3.16,3.94 -2.43,4.39 -4.65,-2.45 -7.17,-8.14 -8.28,-4.21 1.4,-4.32 -7.78,-6.41 -2.81,-6.67 0.21,-6.8 -5.36,-8.8 18.77,-10.51 2.53,-3.57 z"
       id="M23217"
       style="fill:#ffff80;fill-opacity:1;stroke:#000000;stroke-width:1.18865;stroke-dasharray:none;stroke-opacity:1" />
    <path
       d="m 94.02,462.13 6.4,4.6 5.52,10.81 0.75,8.78 -8.15,1.69 1.07,5.48 -4.99,0.01 -0.33,-4.76 -5.53,-24.97 z m 13.03,-51.97 6.8,1.6 8.4,4.48 5.47,-0.14 6.37,-7.84 11.33,-0.66 7.83,4.28 -5.8,14.17 -2.64,1.98 -7.1,6.96 -2.57,8.11 7.68,3.23 -0.83,15.12 3.95,8.52 4.62,2.55 2.28,8.05 -6.57,4.07 1.79,8.74 0.09,10.69 -1.46,3.37 3.04,7.21 -5.7,1.87 -11.58,-1.07 3.28,-20.12 -3.62,-10.56 -3.06,-4.64 0.21,-5.02 -11.12,-13.23 -9.37,2.12 -3.99,-7.5 2.97,-7.04 -2.61,-7.91 -0.02,-10.99 z"
       fill-rule="evenodd"
       id="M23216"
       style="fill:#ffff80;fill-opacity:1;stroke:#000000;stroke-width:1.18865;stroke-dasharray:none;stroke-opacity:1" />
    <path
       d="m 186.21,54.42 -3.18,-7.5 -9.78,1.98 -2.87,-3.04 3.15,-6.39 9.42,-7.79 18.33,-9.75 0.95,-5.73 -1.36,-7.06 2.24,-5.11 14.72,-3.03 -0.78,10.68 -4.15,4.63 6.02,3.75 2.88,7.54 5.35,2.55 1.98,7.25 8.3,-0.25 1.35,3.47 8.38,1.98 3.93,6.15 7.65,0.54 3.28,6.6 -2.21,9.37 -0.23,7.58 -0.05,0.09 -9.5,4.79 -13.49,-0.9 -0.49,2.66 -15.86,0.91 -2.68,7.88 -4.39,-2.9 -6.57,2.06 -3.16,4.76 -12.03,2.76 2.07,-8.05 -16.09,1.3 -3.6,1.76 6.48,-7.91 7.18,-20.01 z"
       id="M23215"
       style="fill:#ffff80;fill-opacity:1;stroke:#000000;stroke-width:1.18865;stroke-dasharray:none;stroke-opacity:1" />
    <path
       d="m 340.49,514.69 4.64,-5.51 20.1,-3.07 -5.41,-6.35 4.31,-7.36 -3.48,-5.61 2.85,-4.14 5.8,-2.78 -0.76,-3.93 5.34,-5.49 9.29,-2.08 4.63,4.62 4.43,-1.81 12.12,4.86 2.81,12.55 3.42,6.1 8.35,2.87 12.45,1.71 4.19,5.73 -8.5,2.18 5.99,11.1 -3.56,5.19 -9.24,-2.59 -6.81,2.36 -11.28,-0.95 -2.36,-4.15 -18.54,-5.01 -9.1,11.81 -7.65,-6.99 -3.77,5.21 -4.29,20.38 1.72,4.09 -7.87,8.43 -3.09,-3.91 3.02,-7.49 -6.51,-7.03 1.05,-4.45 0.28,-16.69 z"
       id="M23214"
       style="fill:#ffff80;fill-opacity:1;stroke:#000000;stroke-width:1.18865;stroke-dasharray:none;stroke-opacity:1" />
    <path
       d="m 246.29,227.61 -2.85,-5.92 3.16,-4.66 -2.38,-4.29 1.23,-9.53 -3.99,-4.72 8.44,-0.93 7.77,0.54 4.34,-3.01 6.44,3.07 5.43,-4.04 3.53,3.81 6.47,2.22 9.72,7.89 1.18,4.88 -1.83,11.25 0.97,2.6 -13.83,-0.82 -11.61,-3.58 0.34,-4.54 -8.03,-0.01 -3.11,4.21 z"
       id="M23238"
       style="fill:#ffff80;fill-opacity:1;stroke:#000000;stroke-width:1.18865;stroke-dasharray:none;stroke-opacity:1" />
    <path
       d="m 95.2,217.49 -4.16,5.8 0.59,6 4.68,0.52 -0.31,5.03 -5.55,-0.37 -9.82,-1.59 -1.46,-6.28 -1.16,-2.76 2.59,-9.75 -4.57,-0.07 -0.39,-10.21 -5.16,-11.55 -5.77,-1.37 -0.85,-4.69 12.27,-2.1 9.77,-4.52 8.4,-0.13 1.39,-3.57 9.81,1.83 0.16,9.46 9.42,-0.44 0.75,6.06 4.18,3.02 2.88,11.24 -4.73,5.49 -5.97,-3.9 -5.99,-1.33 -0.15,-5.93 -6.58,-0.03 -3.39,-2.34 z"
       id="M23237"
       style="fill:#ffff80;fill-opacity:1;stroke:#000000;stroke-width:1.18865;stroke-dasharray:none;stroke-opacity:1" />
    <path
       d="m 258.71,300.9 3.37,-5.57 3.96,-12.83 7.09,-4.69 11.05,-0.69 2.3,-6.18 2.72,-15.47 -3.33,-1.87 4.28,-5.88 -1.74,-5.82 6.45,-4.57 5.06,10.91 6.89,0.21 3.94,5.38 6.57,4.6 -7.01,5.05 -5.74,13.86 1.04,2.26 -5.59,9.11 -1.99,9.43 0.08,6.96 -4.39,3.99 -4.26,-1.77 -4.25,2.59 -10.41,1.02 0.27,-3.6 -8.82,-4.48 -3.69,2.22 z"
       id="M23236"
       style="fill:#ffff80;fill-opacity:1;stroke:#000000;stroke-width:1.18865;stroke-dasharray:none;stroke-opacity:1" />
    <path
       d="m 112.68,322.12 4,11.62 -14.51,3.53 -4.87,-0.55 -0.56,-19.07 14.38,-0.05 z m -24.27,-44.58 8.35,2.99 10.2,11.19 -0.87,9.98 6.9,3.64 -2.43,11.52 -16.14,-1.09 0.04,-7.35 -7.8,-4.54 -13.96,-13.52 -8.05,-2.75 -3.52,-4.82 8.74,-1.57 4.9,-3.94 4.57,4.36 7.85,-4.63 z"
       fill-rule="evenodd"
       id="M23427"
       style="fill:#ffff80;fill-opacity:1;stroke:#000000;stroke-width:1.18865;stroke-dasharray:none;stroke-opacity:1" />
    <path
       d="m 90.45,234.47 -0.54,13.12 -4.09,8.84 -1.53,8.2 4.22,8.76 -0.1,4.15 -1.22,-0.53 -7.58,-11.43 -7.84,-2.91 -2.69,-3.14 2.44,-7.79 -1.73,-7.84 -0.03,-9.05 7.78,-1.81 1.63,-6.44 1.46,6.28 z"
       id="M23425"
       style="fill:#ffff80;fill-opacity:1;stroke:#000000;stroke-width:1.18865;stroke-dasharray:none;stroke-opacity:1" />
    <path
       d="m 118.16,212.54 -3.85,3.9 -3.68,10.24 -8.96,-1.44 0.81,-4.77 -7.28,-2.98 0.88,-18.48 3.39,2.34 6.58,0.03 0.15,5.93 5.99,1.33 z"
       id="M23424"
       style="fill:#ffff80;fill-opacity:1;stroke:#000000;stroke-width:1.18865;stroke-dasharray:none;stroke-opacity:1" />
    <path
       d="m 256.2,583.9 9.14,4.8 -3.07,6.45 z m 66.45,-132.68 1.29,6.81 -4.83,10.76 -12.06,-0.24 -2.19,4.23 2.19,4.16 4.93,0.76 3.22,4.64 -3.86,6.33 -5.7,-6.45 -5.83,1.54 -2.04,7.64 10.69,3.34 4.66,-4.77 7.62,8.45 14.03,7.85 5.72,8.42 4.57,1.8 -0.28,16.69 -1.05,4.45 -10.9,5.29 -4.58,-5.71 -7.99,-0.42 -1.33,5.53 -5.03,-0.71 -5.14,-6 -8.34,-0.52 -8.9,10.65 -3.09,1.46 -4.01,-6.2 -4.19,-2.89 -18.96,6.54 -5.5,3.07 -10.8,-1.96 -5.7,-6.71 0.58,-3.65 -12.03,-12.08 -2.24,-9.9 -4.44,0.47 -13.64,-4.01 19.88,-37.92 5.19,-5.28 9.43,-4.87 10.86,-10.29 2.67,-5.02 18.67,-13.92 -3.18,10.55 1.26,9.45 17.07,-1.22 5.73,-3.14 7.01,-8.42 4.69,3.48 0.29,7.73 -6.12,3.01 -2.23,7 9.78,-0.87 7.77,-8.08 z"
       fill-rule="evenodd"
       id="M23213"
       style="fill:#ffff80;fill-opacity:1;stroke:#000000;stroke-width:1.18865;stroke-dasharray:none;stroke-opacity:1" />
    <path
       d="m 244.35,416.57 -5.07,0.53 -3.28,-3.82 -1.08,-9.87 12.92,-10.89 4.52,-2.1 7.59,1.95 -2.96,-6.58 3.9,-4.56 -1.64,-5.77 10.05,0.63 2.48,-4.04 5.78,-1.12 -1.6,-9.5 6.07,-2.73 4.26,-7.82 6.42,2.02 4.38,-1.13 7.84,5.65 2.94,9.02 1.88,8.09 4.08,3.71 -6.64,6.36 3.15,4.41 -2.41,6.86 -7.37,10.51 1.95,7.09 7.33,7.01 -5.75,6.15 -3.72,6.77 1.72,6.4 -7.01,8.42 -5.73,3.14 -17.07,1.22 -1.26,-9.45 3.18,-10.55 -18.67,13.92 -2.67,5.02 -13.93,-3.5 -2.08,-8.91 3.79,-5.3 11.05,-8.38 -2.1,-13.44 z"
       id="M23212"
       style="fill:#ffff80;fill-opacity:1;stroke:#000000;stroke-width:1.18865;stroke-dasharray:none;stroke-opacity:1" />
    <path
       d="m 626.48,191.95 1.68,6.96 -4.06,3.93 -5.9,-2.13 -10.93,-0.82 -3.1,1.44 -5.9,-2.52 -12.97,10.34 -4.4,-6.06 -8.65,0.44 1.78,-9.11 -4.91,-1.48 -5.84,3.02 -3.16,6.86 0.56,5.1 -6,8.11 -8.47,8.23 8.68,8.48 -4.55,7.64 -7.48,6.39 -8.78,2.52 2.64,4.01 -0.47,5.1 -3.61,8.05 -6.22,1.6 -2.81,3.23 0.44,7.18 2.48,7.44 6.3,4.92 2.46,7.78 -0.71,7.04 -3.76,1.14 -5.62,8.55 -1.02,12.27 3.62,6.07 -6.65,5.62 -0.3,10.24 -6.2,1.61 -6.15,-2.43 -7.05,5.73 -2.57,9.04 -5.76,3.46 -6.92,-6.02 1,-2.98 -4,-11.8 -10.95,0.97 -5.02,-0.84 -1.26,5.06 -11.86,-6.84 -6.2,1.6 -2.9,-4.11 -4.51,3.54 -8.8,-2.2 -4.77,0.72 -4.65,-2.46 -6.24,-6.35 -4.7,7.51 -3.43,2.28 -4.08,-9.57 -8.97,-0.65 -3.83,-8.7 -7.99,-0.72 -5.38,2.07 -3.56,-3.21 -3.24,7.12 -5.96,-1.07 -4.38,-3.34 -4.83,5.84 -10.51,-2.97 -7.41,7.27 0.44,7.98 3.94,11.6 -4.07,5.4 -8.49,3.4 -4.84,-4.54 -7.64,-0.92 -4.7,7.05 -4.54,-0.62 -2.94,-9.02 -7.84,-5.65 -4.38,1.13 -6.42,-2.02 -5.08,1.46 -3.36,-8.19 -7.49,6.93 -9.66,-3.96 -5.66,-6.32 6.41,-5.56 0.39,-6.05 5.12,-11.07 4.4,-1.7 3.44,-5.49 10.41,-1.02 4.25,-2.59 4.26,1.77 4.39,-3.99 -0.08,-6.96 1.99,-9.43 5.59,-9.11 -1.04,-2.26 5.74,-13.86 7.01,-5.05 -6.57,-4.6 -3.94,-5.38 -6.89,-0.21 -5.06,-10.91 -0.94,-10.56 -0.97,-2.6 1.83,-11.25 -1.18,-4.88 7.21,0.03 2.11,-5.37 8.28,0.36 5.64,-2.68 21.65,-15.33 5.22,1.03 2.96,-4.79 0.5,-5.72 5.22,-8.98 -2.36,-6.55 4.56,-11.57 3.67,-2.17 7.22,0.93 7.8,-6.95 6.95,-0.21 2.22,2.91 13.1,-10.16 4.38,-0.01 6.55,-8.59 2.22,-5.47 7.99,-3.07 5.97,0.95 14.39,-2.43 12.06,5.34 3,3.21 13.08,5.69 -3.23,7.75 2.86,5.64 4.42,0.58 7.9,-3.21 15.96,1.92 1.14,5.81 -2.48,4.3 3.45,5.57 8.83,-1.24 5.47,5.64 5.43,-4.63 5.58,11.41 6.76,2.31 5.05,-8.07 5.79,-1.17 2.01,-4.57 6.05,-0.52 5.05,-3.68 4.9,-6.69 5.32,-3.4 8.45,-1.34 12.11,-9.24 4.99,-12.07 15.21,3.13 10.05,-2.92 6.07,-5.06 2.7,5.83 -10.23,9.01 1.09,6.65 -6.24,4.07 -1.67,6.71 3.04,7.49 8.42,6.37 4.06,6.35 7.03,7.09 -1.35,14.28 z"
       id="M23211"
       style="fill:#ffff80;fill-opacity:1;stroke:#000000;stroke-width:1.18865;stroke-dasharray:none;stroke-opacity:1" />
    <path
       d="m 257.24,302.02 1.47,-1.12 3.85,4.17 3.69,-2.22 8.82,4.48 -0.27,3.6 -3.44,5.49 -4.4,1.7 -5.12,11.07 -0.39,6.05 -6.41,5.56 -6.53,12.26 -4.86,1.55 -3.15,6.55 7.51,10.01 6.02,0.34 5.22,3.95 1.64,5.77 -3.9,4.56 2.96,6.58 -7.59,-1.95 -4.52,2.1 -12.92,10.89 -13.08,-8.57 -5.71,1.34 -0.55,-13.62 -2.46,-10.09 1.83,-7.2 -0.35,-7.37 4.93,-6.33 1.68,-11.21 7.59,-3.96 2.55,-5.46 8.18,-5.24 5.6,-8.19 5.88,-3.12 6.07,-7.88 z"
       id="M23210"
       style="fill:#ffff80;fill-opacity:1;stroke:#000000;stroke-width:1.18865;stroke-dasharray:none;stroke-opacity:1" />
    <path
       d="m 212.24,437.09 3.8,-0.17 9.27,-5.94 3.45,-0.05 15.59,-14.36 5.24,-4.58 2.1,13.44 -11.05,8.38 -3.79,5.3 2.08,8.91 13.93,3.5 -10.86,10.29 -9.43,4.87 -5.19,5.28 -19.88,37.92 -4.36,-1.74 -5.29,-8.85 -1.74,-12.63 0.74,-5.47 9.18,-14.18 6.03,-19.23 z"
       id="M23209"
       style="fill:#ffff80;fill-opacity:1;stroke:#000000;stroke-width:1.18865;stroke-dasharray:none;stroke-opacity:1" />
    <path
       d="m 69.79,243.9 -7.7,2.75 -4.18,-12.76 -14.71,-15.13 -3.82,-1.44 -11.61,3.9 -2.01,-12.96 1.36,-8.72 19.84,6.89 11.2,1.95 6.55,-17.49 5.77,1.37 5.16,11.55 0.39,10.21 4.57,0.07 -2.59,9.75 1.16,2.76 -1.63,6.44 -7.78,1.81 z"
       id="M23208"
       style="fill:#ffff80;fill-opacity:1;stroke:#000000;stroke-width:1.18865;stroke-dasharray:none;stroke-opacity:1" />
    <path
       d="m 434.07,519.02 5.9,3.96 2.3,5.05 -6.89,0.71 z m 83.44,-83.96 1.72,5.22 3.9,3.18 9.81,2.89 0.25,3.5 8.68,10.71 2.79,7.04 -5.02,5.93 5.98,4.4 -3.8,9.34 -6.72,2.82 -13.91,1.12 -1.91,3.73 5.17,11.43 4.59,-2.35 1.13,9.75 -4.02,0.36 -1.11,4.91 -7.39,-0.84 -10.92,5.35 -4.69,6.72 -7.94,-3.66 -6.89,7.2 -9.17,1.1 -9.87,5.61 0.27,-7.18 -7.02,5.32 -5.88,-2.71 -0.97,-5.85 -6.26,6.76 -9.43,3.41 -2.16,-7.1 8.43,-2.93 -3.37,-6.93 -8.72,-5.03 -5.99,-11.1 8.5,-2.18 -4.19,-5.73 -12.45,-1.71 -8.35,-2.87 -3.42,-6.1 -2.81,-12.55 -0.14,-7.01 4.54,-5.24 0.22,-5.22 3.59,-2.92 7.07,3.28 8.91,-0.85 3.71,-3.31 4.57,7.19 6.45,-5.11 15.68,-6.12 9.96,-6.03 1.42,5.61 4.42,0.36 1.69,4.54 11.22,-6.45 3.48,4.67 8.09,3.82 7.23,-8.99 -0.58,-6.77 5.5,-4.38 z"
       fill-rule="evenodd"
       id="M23207"
       style="fill:#ffff80;fill-opacity:1;stroke:#000000;stroke-width:1.18865;stroke-dasharray:none;stroke-opacity:1" />
    <path
       d="m 262.36,139.83 -14.6,1.03 -6.21,5.61 -4.48,0.63 -1.98,5.81 -3.76,3.65 -8.37,-0.38 -2.36,2.49 -0.5,9.44 -5.22,1.26 -5.38,5.74 -18.59,1.96 -7.13,-0.77 -7.45,-11.87 2.46,-1.69 -1.57,-8 3.24,-3.39 -0.48,-9.06 0.25,-13.56 10.17,-3.49 -1.99,-8.24 9.61,5.32 10.92,-3.62 11.42,3.92 12.58,-4.79 4.11,-5.91 2.79,-10.99 0.59,-9.11 4.34,-6.67 10.52,-4.31 4.24,-7.91 0.05,-0.09 2.48,4.37 8.17,-3.94 4.45,2.84 3.28,7.79 -6.13,4.89 2.13,7.74 3.44,4.1 5.25,-0.11 1.06,12.32 10.31,1.26 -9.98,9.94 -0.78,3.76 -8.45,9.66 -8.75,-1.93 z"
       id="M23206"
       style="fill:#ffff80;fill-opacity:1;stroke:#000000;stroke-width:1.18865;stroke-dasharray:none;stroke-opacity:1" />
    <path
       d="m 141.99,461.45 0.83,-15.12 -7.68,-3.23 2.57,-8.11 7.1,-6.96 4.91,6.01 8.56,-2.75 9.95,2.9 3.94,-2.03 9.06,-0.1 0.76,-8.35 3.26,-10.93 4.01,-4.63 6.59,3.09 4.57,-1.69 10.18,6.65 -1.85,17.12 -2.24,8.91 -8.36,16.9 -8.97,0.18 1.12,9.69 -3.48,5.53 -11.77,-6.09 -5.83,1.24 -14.21,-5.45 -7.15,1.29 z"
       id="M23205"
       style="fill:#ffff80;fill-opacity:1;stroke:#000000;stroke-width:1.18865;stroke-dasharray:none;stroke-opacity:1" />
    <path
       d="m 268.93,151.6 -3.38,-3.49 -3.19,-8.28 3.7,-4.3 8.75,1.93 8.45,-9.66 0.78,-3.76 9.98,-9.94 3.28,-9.22 12.35,3.14 8.71,3.61 9.81,11.68 4.64,0.41 8.89,-2.49 7.71,10.25 -0.19,8.21 9.04,6.61 -3.67,2.17 -4.56,11.57 2.36,6.55 -5.22,8.98 -0.5,5.72 -2.96,4.79 -5.22,-1.03 -21.65,15.33 -5.64,2.68 -8.28,-0.36 -2.11,5.37 -7.21,-0.03 -9.72,-7.89 -6.47,-2.22 -3.53,-3.81 -5.43,4.04 -6.44,-3.07 -0.51,-6.73 9.04,-4.8 4.13,-4.88 -5.66,-1.48 -1.86,-4.97 5.84,-14.37 z"
       id="M23204"
       style="fill:#ffff80;fill-opacity:1;stroke:#000000;stroke-width:1.18865;stroke-dasharray:none;stroke-opacity:1" />
    <path
       d="m 124.76,136.07 -5.19,4.15 0.02,6.75 -4.42,0.95 -5.46,-15.76 -4.13,-5.49 -10.63,-0.45 -2.65,4.55 -8.6,2.14 -3.37,4.27 -7.15,2.57 -10.15,-2.85 -0.76,-3.5 -13.62,8.2 -2.71,-8.48 -13.47,-2.86 -8.41,-3.39 4,-6.01 6.2,-5.11 6.14,-9.24 5.67,-13.74 9.36,-17.39 6.21,-17.45 6.21,-8.21 5.21,-2.28 12.94,1.07 -1.08,4.12 7.82,2.8 8.89,0.7 11.65,2.85 5.36,8.8 -0.21,6.8 2.81,6.67 7.78,6.41 -1.4,4.32 8.28,4.21 7.17,8.14 -3.13,3.87 -5.28,0.88 -0.47,5.12 -5.5,9.07 -5.1,0.05 -3.56,7.26 z"
       id="M23203"
       style="fill:#ffff80;fill-opacity:1;stroke:#000000;stroke-width:1.18865;stroke-dasharray:none;stroke-opacity:1" />
    <path
       d="m 373.88,470.45 -0.92,-8.6 -6.99,-5.69 1.16,-5.07 4.07,-1.44 -3.53,-5.59 -5.06,-1.53 -1.98,-3.82 -10.98,-3.62 -6.8,3.41 -3.67,4.44 -2.51,9.42 -3.15,1.97 -10.87,-3.11 -6.38,0.85 -7.77,8.08 -9.78,0.87 2.23,-7 6.12,-3.01 -0.29,-7.73 -4.69,-3.48 -1.72,-6.4 3.72,-6.77 5.75,-6.15 -7.33,-7.01 -1.95,-7.09 7.37,-10.51 2.41,-6.86 -3.15,-4.41 6.64,-6.36 -4.08,-3.71 -1.88,-8.09 4.54,0.62 4.7,-7.05 7.64,0.92 4.84,4.54 8.49,-3.4 4.07,-5.4 -3.94,-11.6 -0.44,-7.98 7.41,-7.27 10.51,2.97 4.83,-5.84 4.38,3.34 5.96,1.07 3.24,-7.12 3.56,3.21 5.38,-2.07 7.99,0.72 3.83,8.7 8.97,0.65 4.08,9.57 3.43,-2.28 4.7,-7.51 6.24,6.35 4.65,2.46 4.77,-0.72 8.8,2.2 4.51,-3.54 2.9,4.11 6.2,-1.6 11.86,6.84 1.26,-5.06 5.02,0.84 10.95,-0.97 4,11.8 -1,2.98 6.92,6.02 3.76,6.61 6.71,0.73 -0.07,5.25 -5.83,8.28 7.36,5.65 -0.26,6.51 7.27,7.8 -2.08,3.83 1.07,8.4 4.1,3.5 2.72,6.55 -0.36,5.01 -6.13,2.05 -5.5,4.38 0.58,6.77 -7.23,8.99 -8.09,-3.82 -3.48,-4.67 -11.22,6.45 -1.69,-4.54 -4.42,-0.36 -1.42,-5.61 -9.96,6.03 -15.68,6.12 -6.45,5.11 -4.57,-7.19 -3.71,3.31 -8.91,0.85 -7.07,-3.28 -3.59,2.92 -0.22,5.22 -4.54,5.24 0.14,7.01 -12.12,-4.86 -4.43,1.81 -4.63,-4.62 z"
       id="M23202"
       style="fill:#ffff80;fill-opacity:1;stroke:#000000;stroke-width:1.18865;stroke-dasharray:none;stroke-opacity:1" />
    <path
       d="m 447.64,570.47 -0.33,12.89 -7.33,-1.62 4.31,-11.34 z m 15.3,84.65 -1.57,-11.24 -10.48,0.31 -11.94,-3.39 2.85,-7.9 -2.48,-4.96 6.02,-7.17 -5.23,-2.98 2.22,-3.52 -2.05,-4.9 0.05,-18.88 20.53,-0.22 0.33,-3.07 -12.76,-3.6 0.57,-32.23 3.13,0.25 3.69,-8.02 -3.74,-4.21 -4.36,4.21 -7.4,1.43 -1.44,-4.76 9.43,-3.41 6.26,-6.76 0.97,5.85 5.88,2.71 7.02,-5.32 -0.27,7.18 9.87,-5.61 9.17,-1.1 6.89,-7.2 7.94,3.66 4.69,-6.72 10.92,-5.35 7.39,0.84 1.11,-4.91 4.02,-0.36 -1.13,-9.75 -4.59,2.35 -5.17,-11.43 1.91,-3.73 13.91,-1.12 6.72,-2.82 3.8,-9.34 7.36,-2.17 6.62,4.71 -1.67,5.97 5.55,4.6 1.1,8.78 6.92,4.92 1.92,2.9 -10.1,9.74 5.07,8.38 -1.87,4.97 0.89,7.54 -7.52,3.84 -3.66,6.3 0.5,15.2 -2.3,5.64 4.45,7.87 1.42,17.31 3.23,2.37 3.09,12.27 -2.57,12.69 -2.36,2.95 0.22,8.13 -34.18,6.23 -34.22,8.13 z"
       fill-rule="evenodd"
       id="M23201"
       style="fill:#ffff80;fill-opacity:1;stroke:#000000;stroke-width:1.18865;stroke-dasharray:none;stroke-opacity:1" />
    <path
       d="m 149.73,514.65 -3.04,-7.21 1.46,-3.37 -0.09,-10.69 -1.79,-8.74 6.57,-4.07 -2.28,-8.05 -4.62,-2.55 -3.95,-8.52 5.87,4.07 7.15,-1.29 14.21,5.45 5.83,-1.24 11.77,6.09 -8.63,-2.32 -0.1,5.82 5.08,1.25 -3.45,7.23 -0.73,7.93 4.57,2.72 -0.42,4.86 -5.87,2.06 -1.04,11.42 -2.79,0.62 -4.85,1.82 -7.03,-3.15 z"
       id="M23447"
       style="fill:#ffff80;fill-opacity:1;stroke:#000000;stroke-width:1.18865;stroke-dasharray:none;stroke-opacity:1" />
    <path
       d="m 132.45,515.45 11.58,1.07 5.7,-1.87 11.83,0.14 7.03,3.15 4.85,-1.82 -0.15,16.86 -3.5,8.57 -0.85,10.83 8.42,5.01 0.29,5.86 10.14,8.11 -13.37,15.79 -8.57,-8.59 -7.75,-13.23 -0.84,-7.58 -6.9,-2.32 -4.4,4.4 -8.27,5.04 -3,-0.45 -4.5,7.24 -4.64,-1.25 -6.75,-11.57 9.7,-26.24 0.93,-8.69 z"
       id="M23446"
       style="fill:#ffff80;fill-opacity:1;stroke:#000000;stroke-width:1.18865;stroke-dasharray:none;stroke-opacity:1" />
    <path
       d="m 125.55,570.41 4.64,1.25 4.5,-7.24 3,0.45 8.27,-5.04 4.4,-4.4 6.9,2.32 0.84,7.58 7.75,13.23 8.57,8.59 13.37,-15.79 6.79,7.85 8.55,3.2 3.57,8.33 -4.41,4.65 6.6,1.86 -2,5.27 2.7,9.11 -9.14,-1.71 -3.55,1.5 -8.83,-1 -4.8,-6.16 -3.56,2.87 -13.96,-8.09 -14.97,-5.49 -5.39,-5.37 -6.14,-2.44 -4.27,-6.2 -4.66,-2.59 z m 108.44,33.79 1.54,3.15 -8.62,3.39 -0.63,-3.78 z"
       fill-rule="evenodd"
       id="M23445"
       style="fill:#ffff80;fill-opacity:1;stroke:#000000;stroke-width:1.18865;stroke-dasharray:none;stroke-opacity:1" />
    <path
       d="m 216.13,396.18 -0.01,0.15 -2.21,4.07 -3.31,15.8 -10.18,-6.65 -4.57,1.69 -6.59,-3.09 -3.4,-6.89 -8.13,-3.89 -6.6,-6.87 -2.49,-5.75 6.14,-5.28 9.09,-11.61 6.71,-1.87 10.76,-9.77 7.42,3.38 5.84,-1.7 0.35,7.37 -1.83,7.2 2.46,10.09 z"
       id="M23442"
       style="fill:#ffff80;fill-opacity:1;stroke:#000000;stroke-width:1.18865;stroke-dasharray:none;stroke-opacity:1" />
    <path
       d="m 145.42,407.6 -1.32,-7.08 4.4,-4.8 6.35,-1.9 8.38,5.41 7.9,-8.73 6.6,6.87 8.13,3.89 3.4,6.89 -4.01,4.63 -3.26,10.93 -0.76,8.35 -9.06,0.1 -3.94,2.03 -9.95,-2.9 -8.56,2.75 -4.91,-6.01 2.64,-1.98 5.8,-14.17 z"
       id="M23441"
       style="fill:#ffff80;fill-opacity:1;stroke:#000000;stroke-width:1.18865;stroke-dasharray:none;stroke-opacity:1" />
  </g>
</svg>
