<?xml version="1.0" encoding="UTF-8" standalone="no"?>
<svg
   version="1.2"
   width="620.17358"
   height="599.99994"
   viewBox="0 0 620.17358 599.99994"
   stroke-linecap="round"
   stroke-linejoin="round"
   id="svg2785"
   sodipodi:docname="ao.svg"
   inkscape:version="1.2 (dc2aedaf03, 2022-05-15)"
   xmlns:inkscape="http://www.inkscape.org/namespaces/inkscape"
   xmlns:sodipodi="http://sodipodi.sourceforge.net/DTD/sodipodi-0.dtd"
   xmlns="http://www.w3.org/2000/svg"
   xmlns:svg="http://www.w3.org/2000/svg">
  <defs
     id="defs2789" />
  <sodipodi:namedview
     id="namedview2787"
     pagecolor="#505050"
     bordercolor="#eeeeee"
     borderopacity="1"
     inkscape:showpageshadow="0"
     inkscape:pageopacity="0"
     inkscape:pagecheckerboard="0"
     inkscape:deskcolor="#505050"
     showgrid="false"
     inkscape:zoom="1.0413437"
     inkscape:cx="310.17618"
     inkscape:cy="299.6129"
     inkscape:window-width="1920"
     inkscape:window-height="1009"
     inkscape:window-x="-8"
     inkscape:window-y="-8"
     inkscape:window-maximized="1"
     inkscape:current-layer="svg2785" />
  <g
     id="ao"
     transform="matrix(0.77590674,0,0,0.77590674,-0.27590777,-0.27593967)"
     style="fill:#ffff80;fill-opacity:1;stroke:#000000;stroke-width:1.28881;stroke-dasharray:none;stroke-opacity:1">
    <path
       d="m 433.42,548.89 8.2,-2.15 -2.01,3.37 2.06,3.64 -1.81,5.31 3.26,1.85 0.16,6.45 -2.02,11.47 -4.68,5.36 4.08,3.05 8.5,17.03 -12.21,2.89 -3.2,-1.22 -8.19,6.62 -2.8,0.34 -4.13,4.74 0.38,4.96 -1.66,11.99 -1.9,5.33 -4.34,-0.43 -2.94,-4.56 -6.35,3.47 -4.26,-0.01 -4.41,6.97 -8.18,-0.29 0.78,6.83 -1.01,6.96 -4.64,-0.46 -3.05,-6.33 -7.41,-1.07 -5.15,1.38 -0.12,4.97 -10.1,6.67 -8.38,2.19 -3.93,-3.7 -1.47,-4.75 -4.1,-3.93 -5.09,0.48 -9.81,-7.18 4.14,-3.78 0.93,-5.9 -1.67,-9.6 0.51,-3.54 -6.69,-5.54 4.87,-5.05 5.07,2.88 3.54,4.75 3.13,-9.95 4.06,2.08 7.91,0.28 13.42,-9.94 -0.7,-5.66 -6.15,-5.57 -6.54,-0.71 -9.21,-5.12 -5.24,2.9 -7.68,-4.24 0.24,-3.07 -8.45,-8.9 -8.73,-0.26 -5.02,5.23 -3.53,-1.61 -6.11,-11.67 0.84,-5.92 -0.81,-11.84 -5.51,-3.89 2,-5 7.91,-3.5 3.37,3.07 5.72,0.69 5.97,-3.86 5.04,-0.5 3.11,0.65 7.77,10.15 5.07,0.69 3.54,4.58 5.12,0.82 5.37,4.67 4.05,8.83 -3.63,7.39 2.18,4.44 5.9,-1.46 5.31,-5.7 1.78,5.96 3.02,2.04 0.17,4.67 7.46,6.39 10.09,1.59 6.02,-1.46 4.36,-9.71 -1.73,-3.27 6.6,-6.05 3.6,2.1 5.87,0.15 9.87,-3.61 6.08,-14.79 z"
       id="M02210"
       style="fill:#ffff80;fill-opacity:1;stroke:#000000;stroke-width:1.28881;stroke-dasharray:none;stroke-opacity:1" />
    <path
       d="m 583.24,612.6 -4.18,4.06 3.71,3.46 4.65,7.25 0.84,8.59 8.76,-2.8 6.5,3.65 0.99,5.39 -1.61,6.07 -3.25,2.14 5.19,6.54 -10.14,2.92 -9.45,-1.91 -5.96,0.77 -1.2,-2.31 -7.99,-0.96 -5.16,0.84 -5.17,3.11 -4.67,-1.1 -8.59,5.57 -3.5,0.74 -3.91,-3.8 -15.17,2.85 -5.16,3.37 -6.51,-3.83 -7.56,-0.98 -6.84,4.31 -3.63,-5.5 -1.25,-3.28 2.4,-5.41 4,-3.73 2.92,-6.55 0.12,-5.68 13.16,-11.45 10.67,-1.51 13.59,-7.87 7.86,-1.09 3.41,-3.5 3.22,1.66 16.69,0.19 6.89,1.41 z"
       id="M02450"
       style="fill:#ffff80;fill-opacity:1;stroke:#000000;stroke-width:1.28881;stroke-dasharray:none;stroke-opacity:1" />
    <path
       d="m 246.41,365.44 -1.06,5.25 4.83,1.29 -2.1,6.54 1.12,3.34 -5.13,6.32 -4.1,0.78 1.02,5.81 -3.07,3 0.31,9.73 3.09,1.85 1.46,6.04 6.3,8.7 -2.8,3.36 1.84,5.08 6.31,-1.79 0.11,11.58 -5.94,1.25 -4.11,6.4 2.95,6.19 -3.13,1.87 -3.02,-5.69 -5.8,-3.4 -7.15,-6.72 -3.04,2.5 1.82,4.88 -15.62,10.39 -4.47,1.23 -8.2,-7.43 -8.37,-1.67 -3.23,-7.43 -6.21,-8.5 -8.96,-0.16 8.42,-16.91 6.89,-19.94 6.19,-24.4 2.76,-13.19 3.57,-21.27 2.52,-20.27 4.76,-5 3.75,0.18 4.02,5.05 5.28,3.29 2.89,-2.91 -2.76,-3.71 3.19,-4.04 6.57,5.97 3.74,8.25 0.1,6.73 -4.61,7.25 -1.99,7.21 4.46,7.49 6.27,-1.76 5,3.05 z"
       id="M02209"
       style="fill:#ffff80;fill-opacity:1;stroke:#000000;stroke-width:1.28881;stroke-dasharray:none;stroke-opacity:1" />
    <path
       d="m 610.34,108.91 1.5,5.3 -5.73,10.74 -4.8,12.53 3.9,2.11 4.68,-1.09 3.26,5.25 0.54,5.61 -2.93,5.98 1.59,8.7 -2.04,10.41 8.59,3.4 7.34,-3.8 3.15,1.53 5.97,-1.19 10.21,2.96 -0.59,2.84 5.99,14.11 -1.87,5.7 1.06,3.21 -3.09,5.36 0.05,5.11 -4.79,8.54 1.6,7.81 -5.45,1.42 -10.96,-3.02 -4.1,3.59 1.2,-4.46 -2.29,-9.69 -6.23,-17.96 -5.28,-10.83 -6.08,-10.05 -6.35,-8.17 -9.29,-9.77 -4.57,-2.9 -7.38,-1.53 -4.87,0.83 -1.92,5.17 -7.57,13.12 2.49,7.43 -3.37,2.18 -10.16,10.02 -5.21,-0.09 -11.88,7.55 -7.18,10.03 -10.32,-0.91 -11.42,-7.43 -5.19,1.5 -6.31,-2.39 -8.18,4.65 -8.26,10.18 -6.78,0.32 -5.8,-1.63 -5.89,4.78 -5.82,2.64 -5.82,-2.07 -12.36,4.86 -6.97,5.19 -9.35,12.89 -12.46,-2.12 -5.98,-5.44 -2.33,-4.23 1.99,-9.92 -2.02,-17.76 6.19,-8.71 4.51,-2.02 9.62,-10.09 3.34,-1.12 2.46,-8.67 -3.37,-5.03 4.32,-7.43 2.61,-1.35 6.71,2.98 2.83,-2.79 -0.62,-9.55 -7.59,-6.7 6.49,-9.32 4.32,-0.41 4.14,-3.38 2.37,-8.43 4.41,-7.1 8.07,-9.97 5.29,-0.59 -1.27,-5.25 1.47,-3.53 4.27,-0.66 3.76,-6.68 -1.95,-4.23 3.71,-4.35 1.38,-7.84 2.11,-3.41 5.08,1.71 4.78,-6.56 3.48,-2.28 4.87,1.21 3.81,-1.72 3.36,2.93 2.04,6.6 8.93,1.7 10.06,-7.81 0.19,-7.21 4.06,1.35 9.95,-4.25 9.67,-0.03 4.71,-2.52 9.16,12.58 4.33,2.09 2.11,4.63 5.93,4.99 6.64,9.49 5.92,6.67 7.45,6.05 z m -70.55,20.7 -4.6,3.55 5.95,5.82 3.95,-2.73 -0.89,-6.62 z"
       fill-rule="evenodd"
       id="M02208"
       style="fill:#ffff80;fill-opacity:1;stroke:#000000;stroke-width:1.28881;stroke-dasharray:none;stroke-opacity:1" />
    <path
       d="m 694.86,511.46 -9.02,0.73 -13.38,2.27 -8.63,-0.92 -5.44,1.8 -4.91,1.64 -5.33,-8.05 3.57,-7.82 -8,-4.58 0.97,-2.55 1.07,-2.06 1.98,-6.15 -5.82,0.99 -3.65,-2 5.17,-4.62 6.95,0.19 6.34,0.08 3.22,-10.82 -0.07,-0.24 0.04,-0.14 v -0.13 l -0.01,-0.02 v -0.19 l -0.5,-13.78 -4.07,-5.99 -0.46,-15.14 1.57,-4.82 3.37,-2.15 3.11,-6.66 0.74,-6.49 4.81,-3.66 -2.06,-10.81 2.49,-11.2 5.79,-2.22 2.04,22.55 3.94,30.08 4.6,31.12 4.89,27.41 z"
       id="M02207"
       style="fill:#ffff80;fill-opacity:1;stroke:#000000;stroke-width:1.28881;stroke-dasharray:none;stroke-opacity:1" />
    <path
       d="m 449.16,604.27 -8.5,-17.03 -4.08,-3.05 4.68,-5.36 2.02,-11.47 -0.16,-6.45 -3.26,-1.85 1.81,-5.31 -2.06,-3.64 2.01,-3.37 6.06,-2.46 -0.21,-5.76 3.29,-6.8 -3.26,-6.36 4.68,-3.85 7.87,-0.62 7.12,5.11 7.89,1.46 7.05,-2.37 2.09,-10.58 3.74,-5.17 1.23,-11.11 3.49,-2.49 5.11,2.39 5.78,13.23 10.45,3.65 8.11,-0.15 7.32,12.44 10.04,4.92 10.08,-0.5 7.99,-4.18 7.81,2.07 1.92,-3.74 -1.37,-6.47 5.05,-3.71 1.92,-5.38 4.28,0.06 0.76,-6.23 25.52,-4.96 3.98,-3.95 5.07,-1.84 6.18,2.25 -0.83,7.33 2.78,11.98 -2.98,7.64 6.46,6.33 -8.21,5.79 -0.35,8.15 7.03,0.43 1.93,8.6 3.84,1 -0.88,6.22 8,11.71 -2.2,5.61 -3.31,0.19 -6.93,11.83 -5.35,-1.43 -16.55,5.17 -2.62,2.04 -0.21,5.11 -7.68,5.81 -3.03,5.14 -4.33,2.31 -5.33,1.63 -6.89,-1.41 -16.69,-0.19 -3.22,-1.66 -3.41,3.5 -7.86,1.09 -13.59,7.87 -10.67,1.51 -13.16,11.45 -0.12,5.68 -2.92,6.55 -4,3.73 -5.7,-2.18 -9.21,2.63 -4.09,-2.25 -3.96,5.15 -6.04,-3.49 -3.64,2.33 -6.23,-1.1 -2.93,-3.93 -4.86,-1.99 2.77,-3.49 6.06,5.53 6.32,-2.89 0.7,-4.32 -1.9,-5.43 -3.41,-1.77 1.16,-4.9 6.18,0.13 1.22,3.17 -2.49,4.05 8.62,3.16 3.05,-5.66 -1.24,-12.44 -3.18,-2.3 -7.48,-12.25 -15.97,2.32 z"
       id="M02206"
       style="fill:#ffff80;fill-opacity:1;stroke:#000000;stroke-width:1.28881;stroke-dasharray:none;stroke-opacity:1" />
    <path
       d="m 254.54,442.32 -0.11,-11.58 -6.31,1.79 -1.84,-5.08 2.8,-3.36 -6.3,-8.7 -1.46,-6.04 -3.09,-1.85 -0.31,-9.73 3.07,-3 -1.02,-5.81 4.1,-0.78 5.13,-6.32 -1.12,-3.34 2.1,-6.54 -4.83,-1.29 1.06,-5.25 7.05,-0.42 -1.34,-4.28 6.67,-3.58 7.15,0.59 6.88,-4.81 10.15,-2.91 5.1,-9.51 -0.69,-6.43 4.17,-11.64 12.92,10.44 1.13,4.96 0.92,8.08 2.86,1.25 1.99,5.06 5.81,2.46 3.43,3.56 -0.74,6.75 -4.86,10.65 0.11,4.22 3.82,1.56 3.59,14.99 -0.91,8.96 -4.45,7.11 -1.19,6.97 0.13,8.13 -1.73,2.98 -0.31,9.43 1.65,3.72 -1.99,4.17 2.6,7.52 -2.01,3.79 -6.69,1.78 -1.12,5.28 -5.3,1.39 -2.17,3.93 -8.11,5.54 -3.44,-4.25 0.57,-11.66 -6.48,0.09 -5.77,-4.62 -4.56,4.78 -5.82,-2.67 -3.19,-6.22 -4.58,0.3 -0.2,-5.12 z m -31,-129.41 -3.19,4.04 2.76,3.71 -2.89,2.91 -5.28,-3.29 -4.02,-5.05 -3.75,-0.18 -4.76,5 1.58,-18.53 4.05,4.82 2.9,8.79 7.66,7.04 1.27,-5.01 5.65,-12.75 9.21,-1.05 6.08,2.85 3.12,-2.75 -4.51,-6.22 -12.46,0.21 -5.11,-1.83 -6.05,1.56 -4.21,-7.39 -4.63,2.28 -2.28,-4.61 -0.39,-13.93 -1.66,-7.65 -3.45,-2.69 -2.52,-5.43 8.25,-1.6 2.21,1.88 5.95,-2.49 3.64,0.39 3.39,-6.69 6.53,-3.74 7.57,0.32 6.87,3.56 8.76,-0.26 7.28,3.22 7.97,-0.83 1.35,3.24 -3.43,4.45 -3.58,4.14 1.7,10.64 -6.52,3.66 -2.1,4.24 -5.21,4.6 -2.47,7.38 -5.42,3.2 5.43,7.21 -0.89,3.84 -9.43,-1.53 -6.33,2.09 z"
       fill-rule="evenodd"
       id="M02205"
       style="fill:#ffff80;fill-opacity:1;stroke:#000000;stroke-width:1.28881;stroke-dasharray:none;stroke-opacity:1" />
    <path
       d="m 433.42,548.89 -8.32,4.57 -6.08,14.79 -9.87,3.61 -5.87,-0.15 -3.6,-2.1 -6.6,6.05 1.73,3.27 -4.36,9.71 -6.02,1.46 -10.09,-1.59 -7.46,-6.39 -0.17,-4.67 -3.02,-2.04 -1.78,-5.96 -5.31,5.7 -5.9,1.46 -2.18,-4.44 3.63,-7.39 -4.05,-8.83 -5.37,-4.67 -5.12,-0.82 -3.54,-4.58 -5.07,-0.69 -7.77,-10.15 -3.11,-0.65 -3.75,-3.86 0.53,-6.8 -3.51,-2.84 3.35,-5.08 -1.35,-5.55 3.05,-8.55 8.91,-2.77 7.42,2.71 8.36,-1.4 2.83,7.41 5.01,4.01 7.03,7.81 16.42,-2.95 10.61,-2.62 4.76,3.04 8.99,0.07 2.4,-2.91 7.89,8.94 9.47,3.06 z"
       id="M02204"
       style="fill:#ffff80;fill-opacity:1;stroke:#000000;stroke-width:1.28881;stroke-dasharray:none;stroke-opacity:1" />
    <path
       d="m 786.22,624.83 12.78,12.07 -2.48,9.58 -7.74,5.54 -2.31,-0.37 -6.93,4.64 -5.27,-0.31 -2.99,3.09 -7.67,1.91 -6.1,7.92 0.66,7.67 1.77,2.56 -6.55,8.58 -7.99,4.15 -5.1,-11.51 -9.7,-14.92 -0.36,-6.95 1.28,-5.28 -1.48,-18.05 6.46,-1.77 2.1,4.24 5.96,-2.21 2.24,-10.32 5.94,-3.08 6.36,2.05 4.34,-0.75 -0.62,5.47 5.42,2.75 7.81,-2.49 3.91,-4.16 z"
       id="M02446"
       style="fill:#ffff80;fill-opacity:1;stroke:#000000;stroke-width:1.28881;stroke-dasharray:none;stroke-opacity:1" />
    <path
       d="m 538.9,386.2 -3.24,0.12 -13.08,5.18 -2.37,7.09 2.01,7.52 -2.99,6.73 -9.38,1.87 0.91,6.51 -1.5,3.55 -4.41,1.89 -4.65,0.93 -6.82,5.12 -11.45,-8.58 0.69,-5.49 -2.65,-3.84 -8.83,-4.92 0.55,-6.24 -8.05,-5 -1.2,-3.88 -5.9,-4.49 -3.76,-5.95 0.38,-3.93 -3.4,-3.58 -3.94,0.87 -5.96,-1.81 2.73,0.02 2.08,-6.62 -1.29,-14.91 -12.07,-6.68 8.58,-2.13 0.43,-9.1 4.13,-3.36 2.94,-8.69 1.79,-9.19 4.21,-1.56 5.93,1.68 8.96,8.8 6.87,-1.36 4.2,1.62 0.66,3.86 4.83,7.18 9.2,7.01 -0.83,10.06 -4.17,4.69 3.43,1.7 8.35,-2.23 4.08,2.81 6.06,1.33 1.18,3.01 8.82,5.73 5.03,-1.3 4.17,2.17 6.43,9.87 z"
       id="M02301"
       style="fill:#ffff80;fill-opacity:1;stroke:#000000;stroke-width:1.28881;stroke-dasharray:none;stroke-opacity:1" />
    <path
       d="m 125.64,464.21 7.2,2.3 -0.53,5.49 3,5.78 -7.03,9.44 -0.29,3.37 -5.69,2.17 -3.21,5.04 -1.42,8.24 -8.76,6.75 -2.32,11.76 0.73,5.27 -2.94,1.73 1.63,18.25 0.73,16.3 -1.25,3.19 2.35,7.08 -0.74,4.54 -4.42,5.68 1.13,2.95 -3.75,7.86 -0.86,9.33 -4.91,7.93 1.49,5.95 -3.57,7.6 -9.24,4.7 -3.95,-0.03 -5.94,4.44 -2.04,3.78 2.25,4.03 -1.63,5.84 -4.56,2.02 -4.5,-4 -12.09,3.64 -6.05,-4.75 -7.76,2.78 -1.42,-9.27 2.7,-10.58 2.14,-17.01 -1.05,-17.51 -3.23,-16.58 -4.45,-3.68 1.51,-3.61 -2.77,-6.62 -3.85,-5.25 -4.89,-0.34 -3.54,2.27 -13.5,-1.15 -2.87,-6.09 -0.48,-12.17 10.74,-7.68 7.21,-9.39 4.3,1.85 4.87,-1.23 5.97,-5.9 1.25,-7.93 5.19,-1.3 6.73,-9.46 0.74,-7.02 4.97,-2.26 3.76,-7.64 4.28,-15.64 13.06,-4.67 3.04,-5.53 7.15,-3.26 6.61,-0.44 4.79,4.2 3.8,0.71 4.74,6.48 8.94,3.46 z"
       id="M02323"
       style="fill:#ffff80;fill-opacity:1;stroke:#000000;stroke-width:1.28881;stroke-dasharray:none;stroke-opacity:1" />
    <path
       d="m 172.06,436.03 8.96,0.16 6.21,8.5 3.23,7.43 8.37,1.67 8.2,7.43 -9.84,8.56 -2.48,5.29 -5.82,3.66 0.05,10.64 2.83,8.41 6.24,-5.66 12.4,2.56 -2.19,3.8 -7.67,7.1 -5.07,1.69 -11,8.92 0.6,4.51 -10.28,3.3 -4.31,-0.02 -11.55,4.67 -1.54,5.58 1.03,3.9 -4.65,2.84 -1.55,6.01 -5.19,4.56 -12.38,8.09 -3.42,-0.08 -0.9,9.31 3.08,3.59 0.5,4.8 -1.32,7.43 -6.17,0.01 -3.74,2.62 -0.52,11.95 -7.45,3.89 6.26,15.31 6.94,6.62 1.53,6.86 -2.55,14.03 -17.43,1.29 -3.71,-4.67 0.15,-5.19 -2.61,-3.45 -6.65,-4.61 -4.44,-1.13 3.57,-7.6 -1.49,-5.95 4.91,-7.93 0.86,-9.33 3.75,-7.86 -1.13,-2.95 4.42,-5.68 0.74,-4.54 -2.35,-7.08 1.25,-3.19 -0.73,-16.3 -1.63,-18.25 2.94,-1.73 -0.73,-5.27 2.32,-11.76 8.76,-6.75 1.42,-8.24 3.21,-5.04 5.69,-2.17 0.29,-3.37 7.03,-9.44 -3,-5.78 0.53,-5.49 -7.2,-2.3 10.75,-10.24 6.18,-3.01 3.81,-4.57 5.23,-1.66 4.56,3.77 6.05,-1.47 5.21,-4.53 z"
       id="M02321"
       style="fill:#ffff80;fill-opacity:1;stroke:#000000;stroke-width:1.28881;stroke-dasharray:none;stroke-opacity:1" />
    <path
       d="m 241.07,249.39 -6.87,-3.56 -9.21,-13.42 -3.12,-1.61 3.24,-12.02 -0.9,-3.72 1.73,-17.77 -4.64,-5.68 0.05,-8.86 -5.7,-8.12 -3.02,-0.06 1.86,-5.78 6.73,5.18 5.87,1.51 9.5,7.56 4.37,9.09 8.7,6.62 2.69,6.88 7.17,4.18 0.17,3.69 -4.74,7.58 1.51,10.43 -5.86,11.81 -3.94,-0.01 z m 21.93,9.82 3.43,-4.45 6.66,3.35 5.19,-1.29 2.78,2.9 12.17,-3.2 4.88,3.11 3.32,-0.44 4.39,-4.28 -1.56,-4.21 6.72,-8.13 3.34,-10.91 2.5,-3.02 -0.17,-7.66 1.45,-3.44 9.39,-9.14 -4.2,-9.68 0.08,-5.08 5.56,2.41 4.92,8.94 6.36,3.14 5.03,11.22 -2.32,11.36 0.45,2.87 -2.47,8.65 -0.98,18.56 1.29,13.43 1.83,9.61 2.99,7.6 0.53,11.42 -5.46,-1.22 -2.83,-3.07 -7.09,3.02 -5.9,-0.84 -9.08,2.75 -3.21,-1.59 -9.36,2.75 -1.57,2.35 -11.73,-0.42 -3.61,-8.45 -3.94,-3.42 -3.24,-5.72 0.45,-9.01 -4.47,-4.8 -9.92,-6.53 -3.28,-6.65 z"
       fill-rule="evenodd"
       id="M02307"
       style="fill:#ffff80;fill-opacity:1;stroke:#000000;stroke-width:1.28881;stroke-dasharray:none;stroke-opacity:1" />
    <path
       d="m 305.6,337.85 -1.13,-4.96 -12.92,-10.44 0.16,-6.67 -2.59,-1.17 1.21,-8.03 11.73,0.42 1.57,-2.35 9.36,-2.75 3.21,1.59 9.08,-2.75 5.9,0.84 7.09,-3.02 2.83,3.07 5.46,1.22 2.3,17.25 1.6,7.42 2.28,22.45 -3.91,-1.06 -15.77,-0.89 -3.16,0.79 -1.59,-5.49 -7.82,-3.27 -2.62,1.59 -8.1,-4.35 z"
       id="M02304"
       style="fill:#ffff80;fill-opacity:1;stroke:#000000;stroke-width:1.28881;stroke-dasharray:none;stroke-opacity:1" />
    <path
       d="m 266.43,254.76 -1.35,-3.24 -7.97,0.83 -7.28,-3.22 -8.76,0.26 5.59,-6.08 3.94,0.01 5.86,-11.81 -1.51,-10.43 4.74,-7.58 -0.17,-3.69 4.6,0.57 3.85,3.49 10.09,-2.52 7.29,-5.66 5.23,-5.6 0.87,-6.34 2.42,-2.92 5.15,1.95 4.88,-5.69 2.32,1.89 10.56,1.14 6.59,3.52 -0.08,5.08 4.2,9.68 -9.39,9.14 -1.45,3.44 0.17,7.66 -2.5,3.02 -3.34,10.91 -6.72,8.13 1.56,4.21 -4.39,4.28 -3.32,0.44 -4.88,-3.11 -12.17,3.2 -2.78,-2.9 -5.19,1.29 z"
       id="M02303"
       style="fill:#ffff80;fill-opacity:1;stroke:#000000;stroke-width:1.28881;stroke-dasharray:none;stroke-opacity:1" />
    <path
       d="m 234.2,245.83 -7.57,-0.32 -6.53,3.74 -3.39,6.69 -3.64,-0.39 -5.95,2.49 -2.21,-1.88 -8.25,1.6 -7.69,-7.49 -3.6,-1.06 -10.27,0.09 -2.81,-5.81 2.88,-5.61 3.37,2.96 5.66,-2.13 11.36,4.64 4.01,-3.92 -0.17,-4.5 4.17,-1.23 2.83,-7.12 2.52,-11.66 0.34,-14.61 -2.44,-8.28 1.38,-9.89 3.5,-1.75 0.93,-5.82 3.02,0.06 5.7,8.12 -0.05,8.86 4.64,5.68 -1.73,17.77 0.9,3.72 -3.24,12.02 3.12,1.61 z m 12.21,119.61 -3.33,-8.34 -5,-3.05 -6.27,1.76 -4.46,-7.49 1.99,-7.21 4.61,-7.25 -0.1,-6.73 -3.74,-8.25 -6.57,-5.97 4.64,-4.23 6.33,-2.09 9.43,1.53 0.89,-3.84 -5.43,-7.21 5.42,-3.2 2.47,-7.38 5.21,-4.6 2.1,-4.24 6.52,-3.66 -1.7,-10.64 3.58,-4.14 -0.68,2.79 3.28,6.65 9.92,6.53 4.47,4.8 -0.45,9.01 3.24,5.72 3.94,3.42 3.61,8.45 -1.21,8.03 2.59,1.17 -0.16,6.67 -4.17,11.64 0.69,6.43 -5.1,9.51 -10.15,2.91 -6.88,4.81 -7.15,-0.59 -6.67,3.58 1.34,4.28 z"
       fill-rule="evenodd"
       id="M02387"
       style="fill:#ffff80;fill-opacity:1;stroke:#000000;stroke-width:1.28881;stroke-dasharray:none;stroke-opacity:1" />
    <path
       d="m 211.5,459.99 15.62,-10.39 -1.82,-4.88 3.04,-2.5 7.15,6.72 5.8,3.4 3.02,5.69 3.13,-1.87 -2.95,-6.19 4.11,-6.4 5.94,-1.25 2.92,5.44 0.2,5.12 4.58,-0.3 3.19,6.22 5.82,2.67 4.56,-4.78 5.77,4.62 -0.03,7.47 -4.41,-2.78 -7.17,-1.9 -0.21,4.51 -5.39,7.71 -5.71,1.7 -4.17,-0.74 -4.76,4.31 -2.98,-1.23 0.29,-7.27 -8.24,-1.07 -2.88,-5.51 0.63,-4.32 -5.85,-0.91 -1.98,6.52 -9.65,-1.72 -0.58,-3.67 z"
       id="M02384"
       style="fill:#ffff80;fill-opacity:1;stroke:#000000;stroke-width:1.28881;stroke-dasharray:none;stroke-opacity:1" />
    <path
       d="m 281.58,461.31 6.48,-0.09 -0.57,11.66 3.44,4.25 0.39,4.49 3.13,11.64 -3.45,4.38 -6.22,-6.08 -5.82,3.09 -0.12,8.07 -6.91,3.12 0.92,5.27 -6.01,0.35 -1.87,-8.62 -3.33,-5.37 -7.86,-7.79 -4.05,-8.09 4.76,-4.31 4.17,0.74 5.71,-1.7 5.39,-7.71 0.21,-4.51 7.17,1.9 4.41,2.78 z"
       id="M02381"
       style="fill:#ffff80;fill-opacity:1;stroke:#000000;stroke-width:1.28881;stroke-dasharray:none;stroke-opacity:1" />
    <path
       d="m 126.9,645.97 2.55,-14.03 -1.53,-6.86 -6.94,-6.62 -6.26,-15.31 7.45,-3.89 0.52,-11.95 3.74,-2.62 6.17,-0.01 1.32,-7.43 6.56,-5.69 5.28,6.37 3.48,-0.47 1.95,-5.66 3.83,-3.24 -0.11,-5.63 4.86,-4.41 3.88,-0.69 2.81,-8 13.94,-6.78 12.63,5.83 -0.61,3.19 5.12,3.77 0.41,8.74 -2.15,2.98 2.79,3.54 -0.06,8.73 -3.29,3.27 -0.27,11.15 1.72,3.59 7.63,6.88 -1.39,5.63 4.48,5.08 -0.89,4.66 8.58,8.87 -1.95,3.41 0.18,5.47 -3.77,7.4 -11.29,1.63 -4.69,-5.6 -8.59,0.12 -5.48,3.07 -6.76,-0.68 -3.96,2.68 -9.82,3.54 -4.43,-4.21 -5.78,2.2 -7.29,-3.77 z"
       id="M02343"
       style="fill:#ffff80;fill-opacity:1;stroke:#000000;stroke-width:1.28881;stroke-dasharray:none;stroke-opacity:1" />
    <path
       d="m 318.12,534.39 -5.04,0.5 -5.97,3.86 -5.72,-0.69 -3.37,-3.07 -7.91,3.5 -2,5 -4.13,-5.36 -3.25,-10.5 5.42,-0.28 9.31,-9.36 7.54,0.05 4.49,-2.22 5.9,-5.56 1.35,5.55 -3.35,5.08 3.51,2.84 -0.53,6.8 z"
       id="M02367"
       style="fill:#ffff80;fill-opacity:1;stroke:#000000;stroke-width:1.28881;stroke-dasharray:none;stroke-opacity:1" />
    <path
       d="m 325.19,585.42 7.68,4.24 5.24,-2.9 9.21,5.12 6.54,0.71 6.15,5.57 0.7,5.66 -13.42,9.94 -7.91,-0.28 -4.06,-2.08 -3.13,9.95 -3.54,-4.75 -5.07,-2.88 -4.87,5.05 6.69,5.54 -0.51,3.54 1.67,9.6 -0.93,5.9 -4.14,3.78 -0.45,3.42 -6.43,2.34 -7.24,0.26 -1.94,3.3 5.61,7.8 0.48,4.53 -3.48,0.91 -5.19,-3.96 -2.89,0.72 -3.78,-4.97 -1.89,-11.58 -8.54,1.62 -4.6,-4.58 -5.65,-2.55 -3.3,-7.06 -8.02,-1.95 -6.86,3.36 -2.75,-2.68 -1.8,-7.18 1.64,-6.11 9.7,-1.14 2.37,-3.84 -2.6,-3.44 1.84,-6.01 6.26,-0.62 2.97,-2.35 0.17,-5.87 11.49,-3.32 4.25,0.79 6.72,-4.13 2.66,-8.89 5.7,3.54 -0.37,-5.77 6.91,2.91 2.97,3.76 z"
       id="M02362"
       style="fill:#ffff80;fill-opacity:1;stroke:#000000;stroke-width:1.28881;stroke-dasharray:none;stroke-opacity:1" />
    <path
       d="m 316.44,501.71 -3.05,8.55 -5.9,5.56 -4.49,2.22 -7.54,-0.05 -9.31,9.36 -5.42,0.28 -1.55,-4.72 -4.68,-0.43 -1.07,3.32 -8.65,-9.05 2.06,-5.29 6.01,-0.35 -0.92,-5.27 6.91,-3.12 0.12,-8.07 5.82,-3.09 6.22,6.08 3.45,-4.38 -3.13,-11.64 12.15,15.36 -3.53,4.54 1.56,6.11 5.25,-0.86 1.3,-5.49 z"
       id="M02361"
       style="fill:#ffff80;fill-opacity:1;stroke:#000000;stroke-width:1.28881;stroke-dasharray:none;stroke-opacity:1" />
    <path
       d="m 487.65,65.53 -4.78,6.56 -5.08,-1.71 -2.11,3.41 -10.42,-6.42 -3.77,-0.82 -5.11,-10.85 0.71,-3.17 -4.41,-6.67 -2.59,0.28 7.14,-4.95 4.89,-15.9 -2.6,-8.62 -2.71,-4.45 4.67,-2.27 0.03,-5.18 3.86,-3.77 3.18,6.14 5.69,3.32 -1.41,4.46 5.98,8.65 4.34,3.03 0.76,3.78 -2.95,4.17 3.71,8.95 -3.88,16.03 z"
       id="M02423"
       style="fill:#ffff80;fill-opacity:1;stroke:#000000;stroke-width:1.28881;stroke-dasharray:none;stroke-opacity:1" />
    <path
       d="m 658.39,515.34 5.44,-1.8 8.63,0.92 13.38,-2.27 9.02,-0.73 4.01,18.37 6.38,18.01 0.26,2.47 -6.97,3.91 -5.02,1.19 -10.75,7.89 -2.15,-2.16 -7.3,-1.49 -4.14,1.04 -11.37,-2.24 3.75,-6 -6.95,-0.85 -1.51,-5.63 0.84,-8.3 3.77,-7.58 3.86,-2.4 z"
       id="M02412"
       style="fill:#ffff80;fill-opacity:1;stroke:#000000;stroke-width:1.28881;stroke-dasharray:none;stroke-opacity:1" />
    <path
       d="m 674.7,385.95 -5.79,2.22 -2.49,11.2 2.06,10.81 -4.81,3.66 -4.96,-3.51 -7.58,1.3 -6.11,-4.97 -4.43,2.08 -3.31,9.2 -11.46,-4.77 -5.27,-3.43 -1.44,-14.05 1.23,-8.8 -2.93,-3.72 -2.89,-9.87 2.46,-6.82 -12.85,-6.71 0.14,-5.19 5.39,-7.07 0.62,-4.41 3.91,-5.31 4.11,-2.66 -0.46,-4.66 4.17,-7.21 4.68,-0.22 1.98,-5.23 4.2,-0.72 1.62,-6.64 4.72,-2.62 3.91,-4.53 -1.45,-7.76 2.82,-1.76 2.04,-8.23 4.02,1.09 2.74,-4.61 -0.4,-10.54 3.8,-10.94 -1.94,-2.68 6.15,-0.95 3.03,-2.34 4,-7.44 8.04,-4.41 -1.32,10.61 2.46,8.03 -3.32,18.03 -2.25,31.25 -0.66,20.56 0.83,7.95 -8.57,4.62 -8.27,-2.66 2.24,8.19 3.85,1.46 2.82,-5.16 8.09,-4.75 0.53,13.99 -5.19,1.97 -8.34,0.62 -16.55,-3.83 -10.16,-1.7 0.18,3.98 4,1.53 6.85,-0.85 4.26,4.28 6.35,0.73 4.62,-2.37 10.7,1.91 4.64,5.97 z m -11.32,-14.96 -8.16,2.41 -1.12,3.52 5.45,1.58 4.82,-4.45 z"
       fill-rule="evenodd"
       id="M02411"
       style="fill:#ffff80;fill-opacity:1;stroke:#000000;stroke-width:1.28881;stroke-dasharray:none;stroke-opacity:1" />
    <path
       d="m 650.39,480.33 -6.95,-0.19 -5.17,4.62 3.65,2 5.82,-0.99 -1.98,6.15 -1.07,2.06 -2.98,0.92 -1.06,4.95 -12.32,8.3 -7.72,6.8 -2.78,-11.98 0.83,-7.33 -6.18,-2.25 -5.07,1.84 -3.98,3.95 -25.52,4.96 1.37,-3.74 -1.48,-4.84 5.7,-7.68 8.59,-4.21 4.1,-4.27 4.23,-0.21 6.31,-3.3 6.74,-13.39 0.74,-10.4 -3.21,-1.82 -5.05,0.83 -4.35,7.68 -3.52,2.7 -4.28,-3.85 -7.44,-0.88 -2.91,-2.05 1.57,-5.87 -3.9,-4.43 -7.7,-0.45 -0.4,-4.32 -6.16,-1.45 -5.41,-4.22 -7.16,1.08 -8.54,-1.96 -5.03,2.84 -8.02,-1.11 -7.35,2.24 -5.53,-2.94 -4.57,2.64 -6.23,-1.94 -4.17,-8.16 4.41,-1.89 1.5,-3.55 -0.91,-6.51 9.38,-1.87 1.71,3.4 7.09,-0.45 7.62,2.92 3.09,-0.36 13.81,-5.65 8.86,0.75 -1.32,-5.6 6.3,1.07 11.92,-9.83 9.47,-3.27 3.57,-9.8 9.48,-9.63 0.91,-6.78 3.24,-5.94 -0.85,-3.9 12.85,6.71 -2.46,6.82 2.89,9.87 2.93,3.72 -1.23,8.8 1.44,14.05 5.27,3.43 11.46,4.77 -4.33,6.01 -0.28,6.12 5.29,18.18 3.18,3.27 0.62,5.93 3.73,5.96 -4.43,2.53 -11.92,-1.27 -5.48,5.6 2.61,7.26 6.11,6.59 3.79,0.56 6.91,-5.11 z"
       id="M02408"
       style="fill:#ffff80;fill-opacity:1;stroke:#000000;stroke-width:1.28881;stroke-dasharray:none;stroke-opacity:1" />
    <path
       d="m 786.22,624.83 -6.26,0.05 -3.91,4.16 -7.81,2.49 -5.42,-2.75 0.62,-5.47 -4.34,0.75 -6.36,-2.05 -5.94,3.08 -2.24,10.32 -5.96,2.21 -2.1,-4.24 -6.46,1.77 1.48,18.05 -1.28,5.28 0.36,6.95 9.7,14.92 5.1,11.51 -6.45,6.17 -10.5,-3.2 -3.5,-5.44 -11.76,-7.62 -6.32,-0.71 -5.18,2.52 -5.59,-1.75 -6.24,6.37 -8.98,4.52 -2.54,-5.48 -3.57,3.45 -4.34,-4.97 1.67,-10.42 -1.35,-1.93 1.47,-8.66 6.13,-5.35 0.11,-4.5 16.99,-3.85 1.69,-5.45 4.19,-5.5 -11.24,-6.16 -2.33,-7.8 -9.41,-0.48 -3.56,-3.95 -0.68,-4.32 -4.53,-3.37 -0.1,-5.49 -7.67,4.74 -3.02,-6.44 -0.88,-6.46 9.8,-4.12 3.34,0.18 3.58,-5 4.35,-2.7 6.97,-1.31 -3.55,-4.19 4.13,-4.29 1.62,-4.75 -1.42,-6.19 -5.53,-0.9 1.57,-3.76 10.75,-7.89 5.02,-1.19 6.97,-3.91 3.13,8.17 2.49,2.25 2.89,9.62 4.24,2.39 -1.98,4.6 5.56,0.01 1.2,8.01 5.38,2.34 4.06,5.39 4.5,1.39 8.3,-2 5.57,-7.16 4.35,0.05 5.18,12 9.17,4.76 1.11,4.43 8.98,7.25 0.88,5.51 z"
       id="M02203"
       style="fill:#ffff80;fill-opacity:1;stroke:#000000;stroke-width:1.28881;stroke-dasharray:none;stroke-opacity:1" />
    <path
       d="m 623.42,232.02 4.1,-3.59 10.96,3.02 5.45,-1.42 1.98,10.84 2.84,7.08 -3.82,3.9 4.31,4.68 5.51,1.34 1.94,2.68 -3.8,10.94 0.4,10.54 -2.74,4.61 -4.02,-1.09 -2.04,8.23 -2.82,1.76 1.45,7.76 -3.91,4.53 -4.72,2.62 -1.62,6.64 -4.2,0.72 -1.98,5.23 -4.68,0.22 -4.17,7.21 0.46,4.66 -4.11,2.66 -6.81,-1.54 -8.29,0.35 3.52,-11.72 3.7,-17.71 2.36,-23.2 -0.31,-12.58 2.27,-3.54 -0.34,-8.94 3.71,-9.35 7.64,-8.25 z"
       id="M02406"
       style="fill:#ffff80;fill-opacity:1;stroke:#000000;stroke-width:1.28881;stroke-dasharray:none;stroke-opacity:1" />
    <path
       d="m 288.11,543.49 5.51,3.89 0.81,11.84 -0.84,5.92 6.11,11.67 3.53,1.61 5.02,-5.23 8.73,0.26 8.45,8.9 -0.24,3.07 -9.74,2.97 -2.97,-3.76 -6.91,-2.91 0.37,5.77 -5.7,-3.54 -2.66,8.89 -6.72,4.13 -4.25,-0.79 -11.49,3.32 -0.17,5.87 -2.97,2.35 -6.26,0.62 -1.84,6.01 2.6,3.44 -2.37,3.84 -9.7,1.14 -4.45,-2.5 -9.22,4.6 -4.13,-2.08 -4.29,-5.1 -3.97,6.08 -7.32,-1.07 -5.93,6.26 -8.58,-8.87 0.89,-4.66 -4.48,-5.08 1.39,-5.63 -7.63,-6.88 -1.72,-3.59 0.27,-11.15 3.29,-3.27 0.06,-8.73 -2.79,-3.54 2.15,-2.98 -0.41,-8.74 -5.12,-3.77 0.61,-3.19 -12.63,-5.83 -13.94,6.78 -2.81,8 -3.88,0.69 -4.86,4.41 0.11,5.63 -3.83,3.24 -1.95,5.66 -3.48,0.47 -5.28,-6.37 -6.56,5.69 -0.5,-4.8 -3.08,-3.59 0.9,-9.31 3.42,0.08 12.38,-8.09 5.19,-4.56 1.55,-6.01 4.65,-2.84 -1.03,-3.9 1.54,-5.58 11.55,-4.67 4.31,0.02 10.28,-3.3 -0.6,-4.51 11,-8.92 5.07,-1.69 7.67,-7.1 2.19,-3.8 -12.4,-2.56 -6.24,5.66 -2.83,-8.41 -0.05,-10.64 5.82,-3.66 2.48,-5.29 9.84,-8.56 4.47,-1.23 6.99,2.42 0.58,3.67 9.65,1.72 0.05,-0.06 0.01,-0.1 0.03,-0.11 0.1,-0.11 0.07,-0.07 0.01,-0.01 0.06,-0.13 0.05,-0.05 1.52,0.19 0.07,0.29 0.82,0.26 0.12,0.15 0.02,0.03 v 0.01 l 0.06,0.01 0.01,0.01 0.18,0.03 0.04,2.11 0.97,-0.35 0.33,-0.06 0.14,-0.31 1.32,-0.87 0.1,-0.21 0.39,-0.13 0.58,-0.95 0.09,-0.28 0.06,-0.58 2.88,5.51 8.24,1.07 -0.29,7.27 2.98,1.23 4.05,8.09 7.86,7.79 3.33,5.37 1.87,8.62 -2.06,5.29 8.65,9.05 1.07,-3.32 4.68,0.43 1.55,4.72 3.25,10.5 z"
       id="M02202"
       style="fill:#ffff80;fill-opacity:1;stroke:#000000;stroke-width:1.28881;stroke-dasharray:none;stroke-opacity:1" />
    <path
       d="m 644.69,493.98 -0.97,2.55 8,4.58 -3.57,7.82 5.33,8.05 4.91,-1.64 3.18,12.35 -3.86,2.4 -3.77,7.58 -0.84,8.3 1.51,5.63 6.95,0.85 -3.75,6 11.37,2.24 -1.73,7.75 -4.92,3.45 -5.62,-11.35 -8.23,4 1.4,6.31 -6.32,3.06 -8.31,-3.09 -8,-11.71 0.88,-6.22 -3.84,-1 -1.93,-8.6 -7.03,-0.43 0.35,-8.15 8.21,-5.79 -6.46,-6.33 2.98,-7.64 7.72,-6.8 12.32,-8.3 1.06,-4.95 z"
       id="M02405"
       style="fill:#ffff80;fill-opacity:1;stroke:#000000;stroke-width:1.28881;stroke-dasharray:none;stroke-opacity:1" />
    <path
       d="m 441.62,546.74 -8.2,2.15 -16.88,-22.78 -9.47,-3.06 -7.89,-8.94 -2.4,2.91 -8.99,-0.07 -4.76,-3.04 -10.61,2.62 -16.42,2.95 -7.03,-7.81 -5.01,-4.01 -2.83,-7.41 -8.36,1.4 -7.42,-2.71 -8.91,2.77 -8.39,-0.43 -1.3,5.49 -5.25,0.86 -1.56,-6.11 3.53,-4.54 -12.15,-15.36 -0.39,-4.49 8.11,-5.54 2.17,-3.93 5.3,-1.39 1.12,-5.28 6.69,-1.78 2.01,-3.79 -2.6,-7.52 1.99,-4.17 -1.65,-3.72 0.31,-9.43 1.73,-2.98 -0.13,-8.13 1.19,-6.97 4.45,-7.11 0.91,-8.96 -3.59,-14.99 -3.82,-1.56 -0.11,-4.22 4.86,-10.65 0.74,-6.75 -3.43,-3.56 -5.81,-2.46 -1.99,-5.06 -2.86,-1.25 -0.92,-8.08 4.17,-0.56 8.1,4.35 2.62,-1.59 7.82,3.27 1.59,5.49 3.16,-0.79 15.77,0.89 3.91,1.06 6.01,24.77 1.08,9.56 3.5,10.62 3.09,6.28 4.49,5.29 8.06,4.62 7.76,7.77 9.44,-2.72 9.16,1.62 9.38,-4.34 8.27,-8.61 0.79,-3.91 9.89,-6.9 2.26,-6.14 4.59,-3.36 -0.65,-8.65 5.96,1.81 3.94,-0.87 3.4,3.58 -0.38,3.93 3.76,5.95 5.9,4.49 1.2,3.88 8.05,5 -0.55,6.24 8.83,4.92 2.65,3.84 -0.69,5.49 11.45,8.58 -2.2,8.45 -7.7,6.75 1.32,4.23 -3.38,4.16 -6.1,3.53 -8.48,-1.28 -4.28,2.69 -4.09,10.86 3.79,5.33 7.24,1.46 1.26,2.93 10.55,1.69 11.35,12.23 -3.49,2.49 -1.23,11.11 -3.74,5.17 -2.09,10.58 -7.05,2.37 -7.89,-1.46 -7.12,-5.11 -7.87,0.62 -4.68,3.85 3.26,6.36 -3.29,6.8 0.21,5.76 z"
       id="M02201"
       style="fill:#ffff80;fill-opacity:1;stroke:#000000;stroke-width:1.28881;stroke-dasharray:none;stroke-opacity:1" />
    <path
       d="m 577.91,504.14 -0.76,6.23 -4.28,-0.06 -1.92,5.38 -5.05,3.71 1.37,6.47 -1.92,3.74 -7.81,-2.07 -7.99,4.18 -10.08,0.5 -10.04,-4.92 -7.32,-12.44 -8.11,0.15 -10.45,-3.65 -5.78,-13.23 -5.11,-2.39 -11.35,-12.23 -10.55,-1.69 -1.26,-2.93 -7.24,-1.46 -3.79,-5.33 4.09,-10.86 4.28,-2.69 8.48,1.28 6.1,-3.53 3.38,-4.16 -1.32,-4.23 7.7,-6.75 2.2,-8.45 6.82,-5.12 4.65,-0.93 4.17,8.16 6.23,1.94 4.57,-2.64 5.53,2.94 7.35,-2.24 8.02,1.11 5.03,-2.84 8.54,1.96 7.16,-1.08 5.41,4.22 6.16,1.45 0.4,4.32 7.7,0.45 3.9,4.43 -1.57,5.87 2.91,2.05 7.44,0.88 4.28,3.85 3.52,-2.7 4.35,-7.68 5.05,-0.83 3.21,1.82 -0.74,10.4 -6.74,13.39 -6.31,3.3 -4.23,0.21 -4.1,4.27 -8.59,4.21 -5.7,7.68 1.48,4.84 z"
       id="M02402"
       style="fill:#ffff80;fill-opacity:1;stroke:#000000;stroke-width:1.28881;stroke-dasharray:none;stroke-opacity:1" />
    <path
       d="m 594.7,659.87 10.14,-2.92 3.67,-0.72 4.12,-3.95 5.44,-0.53 3.68,-4.56 4.86,5.34 4.33,0.51 0.12,-5.23 -3.52,-4.74 4.06,-2.58 3.45,-6.27 3.71,-1.23 3.52,-4.37 0.28,-4.54 10.2,-4.74 9.05,-6.11 7.67,-4.74 0.1,5.49 4.53,3.37 0.68,4.32 3.56,3.95 9.41,0.48 2.33,7.8 11.24,6.16 -4.19,5.5 -1.69,5.45 -16.99,3.85 -0.11,4.5 -6.13,5.35 -1.47,8.66 1.35,1.93 -1.67,10.42 4.34,4.97 -4.8,8.93 -12.77,8.19 -2.1,-4.44 -6.31,-3.98 1.43,-5.38 -5.66,-8.61 -3.21,-1.62 -2.79,-8.5 -5.57,0.09 -4.98,-5.5 -7.42,2.06 -2.52,-5.02 -7.09,-1.1 -10.29,2.26 z"
       id="M02445"
       style="fill:#ffff80;fill-opacity:1;stroke:#000000;stroke-width:1.28881;stroke-dasharray:none;stroke-opacity:1" />
    <path
       d="m 571.91,722.94 -2.2,1.94 -6.95,0.53 -1.76,3.32 -6.35,2.74 -8.86,5.66 4.51,11.02 -2.63,3.06 -6.1,2.06 -6.07,-0.27 -7.23,8.25 -5.89,0.67 -8.67,6.1 -1.97,3.63 -7.18,1.35 -6.44,-2.78 -4.98,1.79 -4.68,-4.96 -1.78,-6.61 -4.59,-3.1 -4.06,-7.47 3.11,-7.6 -0.17,-9.32 -3.43,-0.41 -0.27,-4.69 5.98,-5.91 0.59,-8.71 4.24,-9.16 -2.47,-5.3 8.04,1.91 6.16,-6.85 -1.79,-6.98 1.69,-1.64 -4.66,-10.54 1.26,-3.81 4.43,-0.77 2.36,5.34 4.05,2.17 9.64,-2.13 8.24,6.43 12.25,0.18 5.02,1.13 8.07,-1.61 3.26,2.66 9.37,1.72 1.77,2.35 9.98,-1.04 -0.45,3.47 6.31,2.74 -0.87,5.74 2.4,7.44 -4.33,2.6 -0.05,5.25 -4.12,2.47 z"
       id="M02443"
       style="fill:#ffff80;fill-opacity:1;stroke:#000000;stroke-width:1.28881;stroke-dasharray:none;stroke-opacity:1" />
    <path
       d="m 604.84,656.95 -5.19,-6.54 3.25,-2.14 1.61,-6.07 -0.99,-5.39 -6.5,-3.65 -8.76,2.8 -0.84,-8.59 -4.65,-7.25 -3.71,-3.46 4.18,-4.06 4.33,-2.31 3.03,-5.14 7.68,-5.81 0.21,-5.11 2.62,-2.04 16.55,-5.17 5.35,1.43 6.93,-11.83 3.31,-0.19 2.2,-5.61 8.31,3.09 6.32,-3.06 -1.4,-6.31 8.23,-4 5.62,11.35 4.92,-3.45 1.73,-7.75 4.14,-1.04 7.3,1.49 2.15,2.16 -1.57,3.76 5.53,0.9 1.42,6.19 -1.62,4.75 -4.13,4.29 3.55,4.19 -6.97,1.31 -4.35,2.7 -3.58,5 -3.34,-0.18 -9.8,4.12 0.88,6.46 3.02,6.44 -9.05,6.11 -10.2,4.74 -0.28,4.54 -3.52,4.37 -3.71,1.23 -3.45,6.27 -4.06,2.58 3.52,4.74 -0.12,5.23 -4.33,-0.51 -4.86,-5.34 -3.68,4.56 -5.44,0.53 -4.12,3.95 z"
       id="M02442"
       style="fill:#ffff80;fill-opacity:1;stroke:#000000;stroke-width:1.28881;stroke-dasharray:none;stroke-opacity:1" />
    <path
       d="m 494.23,661.04 3.63,5.5 6.84,-4.31 7.56,0.98 6.51,3.83 5.16,-3.37 15.17,-2.85 3.91,3.8 3.5,-0.74 8.59,-5.57 4.67,1.1 5.17,-3.11 5.16,-0.84 7.99,0.96 1.2,2.31 5.96,-0.77 9.45,1.91 5.99,8.2 10.29,-2.26 7.09,1.1 2.52,5.02 7.42,-2.06 4.98,5.5 5.57,-0.09 2.79,8.5 -2.96,3.36 -5.03,0.57 -3.07,4.6 0.16,3.58 -7.57,4.04 -5.57,-2.77 -1.01,4.39 -5.17,0.5 -7.29,7.43 -2.41,0.1 -3.39,5.71 -9.21,5.97 -11.31,-1.19 -5.61,2.87 1.73,-5.94 4.12,-2.47 0.05,-5.25 4.33,-2.6 -2.4,-7.44 0.87,-5.74 -6.31,-2.74 0.45,-3.47 -9.98,1.04 -1.77,-2.35 -9.37,-1.72 -3.26,-2.66 -8.07,1.61 -5.02,-1.13 -12.25,-0.18 -8.24,-6.43 -9.64,2.13 -4.05,-2.17 -2.36,-5.34 -4.43,0.77 z"
       id="M02441"
       style="fill:#ffff80;fill-opacity:1;stroke:#000000;stroke-width:1.28881;stroke-dasharray:none;stroke-opacity:1" />
    <path
       d="m 475.68,73.79 -1.38,7.84 -3.71,4.35 1.95,4.23 -3.76,6.68 -4.27,0.66 -1.47,3.53 1.27,5.25 -5.29,0.59 -8.07,9.97 -4.41,7.1 -2.37,8.43 -4.14,3.38 -4.32,0.41 -6.49,9.32 7.59,6.7 0.62,9.55 -2.83,2.79 -6.71,-2.98 -2.61,1.35 -4.32,7.43 3.37,5.03 -2.46,8.67 -3.34,1.12 -9.62,10.09 -4.51,2.02 2.96,-11.68 -2.25,-13.6 6.97,-14.93 1.37,-13.15 3.25,-7.5 -3.25,-3.89 3.64,-3.73 -0.5,-3.34 4.6,-3.2 4.91,-19.07 0.09,-11.28 4.8,-13.33 4.46,-5.29 2.16,-5.65 5.6,-2.84 -0.19,-5.91 5.17,-3.44 1.9,-9.33 2.59,-0.28 4.41,6.67 -0.71,3.17 5.11,10.85 3.77,0.82 z"
       id="M02426"
       style="fill:#ffff80;fill-opacity:1;stroke:#000000;stroke-width:1.28881;stroke-dasharray:none;stroke-opacity:1" />
    <path
       d="m 552.78,53.5 -4.71,2.52 -9.67,0.03 -9.95,4.25 -4.06,-1.35 -0.19,7.21 -10.06,7.81 -8.93,-1.7 -2.04,-6.6 -3.36,-2.93 -3.81,1.72 -4.87,-1.21 -3.48,2.28 -6.86,-6 3.88,-16.03 -3.71,-8.95 2.95,-4.17 -0.76,-3.78 -4.34,-3.03 -5.98,-8.65 1.41,-4.46 6.81,4.1 4.85,5.26 4.31,8.32 9.02,4.64 3.88,3.19 11.34,1.47 13.13,-0.07 15.93,9.27 7.94,2.58 z"
       id="M02425"
       style="fill:#ffff80;fill-opacity:1;stroke:#000000;stroke-width:1.28881;stroke-dasharray:none;stroke-opacity:1" />
    <path
       d="m 643.93,230.03 -1.6,-7.81 4.79,-8.54 -0.05,-5.11 3.09,-5.36 -1.06,-3.21 1.87,-5.7 -5.99,-14.11 0.59,-2.84 -10.21,-2.96 -5.97,1.19 -3.15,-1.53 -7.34,3.8 -8.59,-3.4 2.04,-10.41 -1.59,-8.7 2.93,-5.98 -0.54,-5.61 -3.26,-5.25 -4.68,1.09 -3.9,-2.11 4.8,-12.53 5.73,-10.74 -1.5,-5.3 12.32,4.38 9.79,1.89 6.06,-0.47 10.4,-2.92 10.19,-4.48 13.36,-6.95 7.15,-4.93 13.28,-13.31 2.02,-3.59 7.76,-7.04 5.28,3.39 -3.74,4.39 1.45,4.94 -3.58,1.13 -0.87,4.08 3.26,2.95 -0.62,5.98 -4.03,3.48 -3.37,9.31 -8.68,38.24 -7.79,31.31 -0.62,9.24 -5.55,25.88 -1.08,14.33 1.43,12 1.81,0.59 -8.04,4.41 -4,7.44 -3.03,2.34 -6.15,0.95 -5.51,-1.34 -4.31,-4.68 3.82,-3.9 -2.84,-7.08 z"
       id="M02424"
       style="fill:#ffff80;fill-opacity:1;stroke:#000000;stroke-width:1.28881;stroke-dasharray:none;stroke-opacity:1" />
    <path
       d="m 519.23,412.84 2.99,-6.73 -2.01,-7.52 2.37,-7.09 13.08,-5.18 3.24,-0.12 8.45,7.99 12.64,-0.09 7.37,-3.87 5.35,-5.18 6.96,-8.73 5.6,-8.55 9.58,-19.67 4.24,-11.5 8.29,-0.35 6.81,1.54 -3.91,5.31 -0.62,4.41 -5.39,7.07 -0.14,5.19 0.85,3.9 -3.24,5.94 -0.91,6.78 -9.48,9.63 -3.57,9.8 -9.47,3.27 -11.92,9.83 -6.3,-1.07 1.32,5.6 -8.86,-0.75 -13.81,5.65 -3.09,0.36 -7.62,-2.92 -7.09,0.45 z"
       id="M02401"
       style="fill:#ffff80;fill-opacity:1;stroke:#000000;stroke-width:1.28881;stroke-dasharray:none;stroke-opacity:1" />
  </g>
</svg>
