<?xml version="1.0" encoding="UTF-8" standalone="no"?>
<svg
   version="1.2"
   width="593.52527"
   height="600"
   viewBox="0 0 593.52527 600"
   stroke-linecap="round"
   stroke-linejoin="round"
   id="svg7951"
   sodipodi:docname="fo.svg"
   inkscape:version="1.2 (dc2aedaf03, 2022-05-15)"
   xmlns:inkscape="http://www.inkscape.org/namespaces/inkscape"
   xmlns:sodipodi="http://sodipodi.sourceforge.net/DTD/sodipodi-0.dtd"
   xmlns="http://www.w3.org/2000/svg"
   xmlns:svg="http://www.w3.org/2000/svg">
  <defs
     id="defs7955" />
  <sodipodi:namedview
     id="namedview7953"
     pagecolor="#505050"
     bordercolor="#eeeeee"
     borderopacity="1"
     inkscape:showpageshadow="0"
     inkscape:pageopacity="0"
     inkscape:pagecheckerboard="0"
     inkscape:deskcolor="#505050"
     showgrid="false"
     inkscape:zoom="0.77277085"
     inkscape:cx="296.33623"
     inkscape:cy="182.4603"
     inkscape:window-width="1920"
     inkscape:window-height="1009"
     inkscape:window-x="-8"
     inkscape:window-y="-8"
     inkscape:window-maximized="1"
     inkscape:current-layer="svg7951" />
  <g
     id="fo"
     transform="matrix(0.74251289,0,0,0.74251289,-0.24251652,-174.19844)"
     style="fill:#ffff80;fill-opacity:1;stroke:#000000;stroke-width:1.34678;stroke-dasharray:none;stroke-opacity:1">
    <path
       d="m 458.61,544.43 3.5,7.31 -0.73,7.3 -3.75,10.27 -4.47,2.94 0.93,7.19 -4.91,5.64 -1.22,7.47 -5.35,8.84 -3.35,1.67 -2,-4.63 5.39,-8.81 0.41,-4.65 -3.27,-2.91 -4.8,1.81 -3.78,-12.18 3.55,-10.48 -6.46,-2 2.3,-4.32 -7.34,-1.47 3.26,-5.66 9.43,-1.32 1.76,-2.65 8.5,-1.78 2.07,4.73 4.01,0.83 z"
       id="M40421"
       style="fill:#ffff80;fill-opacity:1;stroke:#000000;stroke-width:1.34678;stroke-dasharray:none;stroke-opacity:1" />
    <path
       d="m 273.96,608.2 3.24,7.15 6.66,4.78 -2,4.5 3.41,3.62 3.81,23.5 7.24,3.49 -6.09,7.46 2.56,10.31 -3,2.51 0.66,9.4 2.5,2.01 -2.18,6.87 -8.04,1.16 -3.1,2.45 -3.59,8.96 0.91,3.75 -6.66,2.87 -6.77,-3.52 -5.59,4.71 -2.27,-2.62 5.15,-8.88 -7.17,-5.78 -5.97,-9.28 -0.12,-10.68 2.33,-7.1 -7.9,-4.99 -1.49,-6.07 1.53,-3.63 -4.69,-11.58 -2,-14.23 -4.96,-6.06 4.14,-2.85 13.16,0.92 5.39,-9.49 8.78,-4.15 7.09,-5.74 1.08,6.42 z"
       id="M40231"
       style="fill:#ffff80;fill-opacity:1;stroke:#000000;stroke-width:1.34678;stroke-dasharray:none;stroke-opacity:1" />
    <path
       d="m 161.58,644.43 -10.14,2.73 -3.56,4.25 -9.82,-2.55 -3.33,-4.03 -7,0.49 -12.32,-2.6 -11.74,5.58 -4.08,6.7 -4.76,0.6 -7.69,-2.71 -5.61,-6.27 -5.74,-0.47 -6.73,5.7 -6.29,-4.26 -18.47,-0.28 -3.27,5.03 -17.26,0.57 -3.8,-2.78 -16.06,4.21 -2.91,-2.76 1.08,-6.62 4.56,-7.25 -0.3,-6.48 10.02,-2.29 5.41,-3.83 16.7,-3.75 5.48,-4.86 2.47,2.7 9.15,1.59 5.16,-1.89 4.35,-6.11 1.12,-9.38 5.9,-5.18 7.43,-1.81 7.89,-14.95 -0.8,-5.01 -5.87,0.84 -6.08,7.24 -3.87,1.19 -6.36,-7.3 1.98,-6.36 -10.64,-6.91 -7.9,3.82 -5.3,5.34 -2.34,-8.87 -6.28,-2.93 2.7,-6.19 11.51,-2.25 -0.49,-7.01 6.68,3.95 7.21,1.45 6.66,-1.41 7.73,-4.27 8.39,-9.8 0.78,-3.5 -5.4,-7.07 1.87,-5.85 7.34,-3.68 5.43,2.23 6.33,-2.26 9.33,-5.96 4.26,3.76 1.91,5.58 -1.22,4.86 0.68,10.97 2.89,2.9 1.16,14.22 5.14,7.02 12.85,0.09 2.33,6.14 -3.06,5.53 1.89,6.27 12.58,3.06 5.61,-1.12 0.59,5.46 12.05,8.72 3.36,0.74 -0.92,10.31 3.4,5.98 -0.28,5 -4.31,4.99 -4.23,0.34 -5.29,9.6 z"
       id="M40230"
       style="fill:#ffff80;fill-opacity:1;stroke:#000000;stroke-width:1.34678;stroke-dasharray:none;stroke-opacity:1" />
    <path
       d="m 597.54,669.49 -3.72,2.55 1.84,6.32 -4.08,7.15 0.57,8.28 -2.07,3.99 1.71,7.26 -3.05,1.65 -2.1,12.49 0.87,8.47 -16.25,2.14 -1.88,3.07 -1.92,-16.6 1.82,-5.56 -6.03,-8.14 -1.48,-7.13 -4.39,1.28 -3.92,-3.71 -1.87,-10.2 -4.15,-5.62 0.48,-6.14 -7.33,-8.22 -5.1,-0.71 -5.45,2.71 -3.52,-1.99 -14.35,5.56 -5.24,-1.77 6.89,-12.09 8.03,-3.15 10.32,-0.73 2.08,-2.71 -0.55,-6.89 6.47,-4.52 8.19,0.54 5.61,3.28 3.7,-1.04 3.44,5.13 -7.98,5.96 -0.16,3.16 5.76,5.19 6.1,12.02 5.57,0.71 2.15,-3.5 5.27,1.09 11.2,-0.77 z"
       id="M40448"
       style="fill:#ffff80;fill-opacity:1;stroke:#000000;stroke-width:1.34678;stroke-dasharray:none;stroke-opacity:1" />
    <path
       d="m 432.43,624.08 4.37,4.76 -2.86,4.47 0.95,5.95 -4.49,10.41 -3.3,2.4 -3.98,7.57 0.29,7.55 6.8,9.04 -0.51,4.08 -5.15,3.66 -10.44,16.54 -8.45,-0.31 -5.2,6.13 -4.86,-6.16 -2.96,-5.8 -13.2,-9.01 -4.35,-5.69 3.37,-3.37 -6.28,-3.4 -9.41,-14.67 0.15,-8.98 2.84,-2.77 9.56,3.46 5.68,-7.23 0.52,-3.59 14.67,-5.88 -0.11,-2.59 7.94,-8.47 4.5,1.32 5.12,-2.28 4.74,1.46 7.63,-4.54 z"
       id="M40447"
       style="fill:#ffff80;fill-opacity:1;stroke:#000000;stroke-width:1.34678;stroke-dasharray:none;stroke-opacity:1" />
    <path
       d="m 362.62,955.79 -0.41,6.85 3.06,7.29 -6.7,0.84 -6.47,4.58 -2.9,-0.97 -2.49,-6.56 -5.4,4.79 -5.95,0.72 -3.72,-11.07 -6.47,-1.36 -0.72,5 -7.73,1.7 -8.82,4.02 -7.43,-3.26 -15.66,0.91 -3.42,7.54 -3.89,2.37 -14.9,3.35 -3.81,-7.69 -0.32,-4.56 4.82,-4.15 8.48,-13.22 4.26,-9.87 3.81,-2.74 3.65,-9.52 4.54,-4.04 -0.38,-6.62 4.82,-0.6 0.99,-5.79 -2.13,-10.67 11.31,0.5 0.46,-3.1 0.57,-10.11 7.47,0.35 5.65,8.34 6.69,-8.14 13.98,0.82 7.2,-2.45 4.39,4.32 -2.46,16.05 9.68,3.94 -1.97,8.96 2.8,4.6 -1.09,11.23 3.31,4.25 -0.76,10.54 z"
       id="M40229"
       style="fill:#ffff80;fill-opacity:1;stroke:#000000;stroke-width:1.34678;stroke-dasharray:none;stroke-opacity:1" />
    <path
       d="m 521.85,651.38 -8.03,3.15 -6.89,12.09 5.24,1.77 14.35,-5.56 3.52,1.99 5.45,-2.71 5.1,0.71 7.33,8.22 -0.48,6.14 4.15,5.62 1.87,10.2 3.92,3.71 4.39,-1.28 1.48,7.13 6.03,8.14 -1.82,5.56 1.92,16.6 1.45,8.61 -8.05,7.33 -5.51,2.92 -4.8,5.57 -4.53,-5.68 -13.85,-8.33 -9.45,4.74 -4.21,4.39 -4.67,0.51 -6.6,-10.01 h -6.15 l -3.35,-3.14 -7.62,-0.2 -6.06,1.7 -5.33,-8.59 -6.29,4.92 -0.07,5.29 -2.1,1.39 -13.53,-2.38 -23.17,-0.09 -9.17,-4.66 -0.76,-4.98 -8.45,0.34 3.22,-4.94 0.68,-5.47 -14.16,-3.99 -5.41,-4.47 -0.98,-7.31 5.2,-6.13 8.45,0.31 10.44,-16.54 5.15,-3.66 0.51,-4.08 -6.8,-9.04 -0.29,-7.55 3.98,-7.57 3.3,-2.4 4.49,-10.41 -0.95,-5.95 2.86,-4.47 2.82,-1.11 10,6.84 1.36,-2.41 15.59,2.68 3.69,4.1 7.08,1.97 10.2,-3.73 5.76,1.29 10.81,-1.2 15,6.98 z"
       id="M40228"
       style="fill:#ffff80;fill-opacity:1;stroke:#000000;stroke-width:1.34678;stroke-dasharray:none;stroke-opacity:1" />
    <path
       d="m 439.26,603.06 3.35,-1.67 5.35,-8.84 1.22,-7.47 4.91,-5.64 -0.93,-7.19 4.47,-2.94 3.75,-10.27 0.73,-7.3 -3.5,-7.31 -1.38,-2.36 1.72,-10.62 3.98,-7.03 5.9,6.15 5.19,-2 7.12,4.51 4.14,5.16 4.5,10.09 4.41,5.14 7.44,1.97 1.58,3.45 7.6,6.17 1.16,5.07 5.66,0.27 4.96,6.77 0.43,3.52 6.77,7.26 2.78,8.65 -2.1,16.19 0.27,5.1 4.37,1.32 0.27,6.16 4.79,11.16 -6.47,4.52 0.55,6.89 -2.08,2.71 -10.32,0.73 -2.74,-7.13 -15,-6.98 -10.81,1.2 -5.76,-1.29 -10.2,3.73 -7.08,-1.97 -3.69,-4.1 -15.59,-2.68 -1.36,2.41 -10,-6.84 -2.82,1.11 -4.37,-4.76 2.44,-11.04 -1.69,-4.61 2.75,-5.39 z"
       id="M40227"
       style="fill:#ffff80;fill-opacity:1;stroke:#000000;stroke-width:1.34678;stroke-dasharray:none;stroke-opacity:1" />
    <path
       d="m 416.77,385.08 7.69,15.47 1.1,7.78 -0.36,10.04 4.98,9.16 5.98,-0.63 11.45,-6.63 1.56,4.07 5.21,-2.93 9.12,3.36 4.97,8.77 -13.14,10.76 0.34,17.34 -10.63,-0.27 -5.09,2.27 -1.46,4.48 -8.33,0.4 -6.48,2.99 -4.38,-0.76 -3.08,3.75 -1.39,9.79 -6.68,4.77 -12.78,12.81 -3.62,-2.39 -14.96,5.41 -4.96,7.42 -6,-7.07 6.14,-9.21 -3.29,-4.72 -5.88,-2.07 -7.46,-1.95 -1.09,-4.26 -5.77,-2.66 -1.15,-4.14 3.56,-10.4 -2.73,-3.77 2.61,-9.86 2.48,-6.22 7.22,-2.02 -3.45,-6.61 -4.16,-2.2 3.56,-5.87 1.56,-10.73 3.17,-3.67 12.72,-0.73 4.58,-3.34 9.66,-1.79 3.89,-2.21 -2.26,-5.03 3.16,-5.34 5.49,-0.35 1.45,-3.49 11.8,1.19 0.79,-8.71 z"
       id="M40226"
       style="fill:#ffff80;fill-opacity:1;stroke:#000000;stroke-width:1.34678;stroke-dasharray:none;stroke-opacity:1" />
    <path
       d="m 474.29,742.89 0.07,-5.29 6.29,-4.92 5.33,8.59 6.06,-1.7 7.62,0.2 3.35,3.14 h 6.15 l 6.6,10.01 4.67,-0.51 4.21,-4.39 9.45,-4.74 13.85,8.33 4.53,5.68 4.68,5.72 h 5.91 l 2.89,6.24 1.07,8.81 4.67,11.21 2.3,10.72 -6.4,5.93 -3.51,6.22 3.06,1.76 5.15,11.77 -5.93,-1.16 -7.01,4.2 -11.49,0.04 -2.67,3.35 -7.22,-2.75 -7.15,-4.84 -7.8,-0.86 -0.85,-5.22 -7.22,1.05 -8.95,-10.97 -11.45,-0.73 -3.22,2.25 -11.98,-6.44 -4.13,-11.92 3.26,-0.43 -3.66,-18.31 0.24,-10.84 5.08,-1.96 -0.12,-5.66 -8.75,-5.1 z"
       id="M40225"
       style="fill:#ffff80;fill-opacity:1;stroke:#000000;stroke-width:1.34678;stroke-dasharray:none;stroke-opacity:1" />
    <path
       d="m 357.98,418.55 -1.56,10.73 -3.56,5.87 -4.66,-6.1 -19.24,-2.38 -16.69,-5.48 -5.87,-3.85 -9.28,-1.5 2.36,-17.06 -3.53,-9.58 -3.22,-2.23 -7.47,2.93 -3.23,-8.36 3.84,-5.64 0.55,-7.68 9.57,-0.77 5.34,-5.94 3.24,-7.56 2.67,-12.8 -1.56,-6.24 1.93,4.82 4.92,-0.3 2.86,6.95 4.48,5.03 -0.83,10.52 4.28,7.4 -4.67,4.58 0.67,4.3 -3.09,3.76 8.77,5.61 6.34,5.71 2.84,4.87 3.76,-4.27 6.23,0.01 2.79,5.25 4.06,1.4 -2.08,6.81 z"
       id="M40224"
       style="fill:#ffff80;fill-opacity:1;stroke:#000000;stroke-width:1.34678;stroke-dasharray:none;stroke-opacity:1" />
    <path
       d="m 352.86,435.15 4.16,2.2 3.45,6.61 -7.22,2.02 -2.48,6.22 -8.23,0.31 -7.83,6.76 -1.56,7.47 -7.61,4.79 -5.76,-8.71 -5.94,4.24 -16.81,-2.75 -1.09,-4.44 1.99,-5.75 -6.57,-9.42 -8.34,-4.92 7.71,-9.26 6.39,-14.68 9.28,1.5 5.87,3.85 16.69,5.48 19.24,2.38 z"
       id="M40223"
       style="fill:#ffff80;fill-opacity:1;stroke:#000000;stroke-width:1.34678;stroke-dasharray:none;stroke-opacity:1" />
    <path
       d="m 369.81,591.91 -4.71,9.68 -4.96,6.08 -11.14,1.54 -1.22,7.6 6.24,5.18 -1.98,7.28 -3.96,5.57 -6.86,-6.19 -1.19,-6.34 -5.89,-1.07 -4.85,6 -4.08,-0.12 -3.23,-4.96 -5.04,8.06 0.27,5.08 -2.62,5.18 1.07,7.85 -2.87,3.49 -4.77,-16.53 0.9,-7.73 3.33,-3.87 -2.1,-7.53 5.98,-5.28 -3.79,-8.96 7.07,-0.44 10.26,-4.99 4.06,5.96 6.44,-5.13 -0.37,-5.64 8.86,-5.43 -0.7,-4.69 5.92,-1.27 11.32,9.43 z"
       id="M40221"
       style="fill:#ffff80;fill-opacity:1;stroke:#000000;stroke-width:1.34678;stroke-dasharray:none;stroke-opacity:1" />
    <path
       d="m 277.24,280.81 6.25,2.5 -10.61,13.87 -1.24,6.45 -2.91,1.03 -11.34,-4.9 -2.12,-3.11 1.81,-11.75 6.55,-1.69 6.29,2.72 1.62,-3.47 z m 139.53,104.27 h -4.34 l -0.79,8.71 -11.8,-1.19 -1.45,3.49 -5.49,0.35 -3.16,5.34 2.26,5.03 -3.89,2.21 -9.66,1.79 -4.58,3.34 -12.72,0.73 -3.17,3.67 -9.04,-11.19 2.08,-6.81 -4.06,-1.4 -2.79,-5.25 -6.23,-0.01 -3.76,4.27 -2.84,-4.87 -6.34,-5.71 -8.77,-5.61 3.09,-3.76 -0.67,-4.3 4.67,-4.58 -4.28,-7.4 0.83,-10.52 -4.48,-5.03 -2.86,-6.95 -4.92,0.3 -1.93,-4.82 11.06,-1.13 10.92,-4.03 6.96,-5.2 4.71,-8.58 0.73,-12.12 9.48,-1.01 -0.98,3.93 10.85,16.91 4.76,0.29 3.9,5.27 -1.58,2.54 3.43,7.57 6.98,3.97 2.64,13.69 3.79,5.27 7.75,-4.47 14.88,2.13 8.14,6.67 -1.32,10.52 z m -104.46,-102.39 5.14,0.9 1.59,4.69 5.21,4.63 -3.67,4.74 -3.82,-3.28 -5.19,-9.4 z"
       fill-rule="evenodd"
       id="M40220"
       sodipodi:nodetypes="ccccccccccccccccccccccccccccccccccccccccccccccccccccccccccccccccccccccc"
       style="fill:#ffff80;fill-opacity:1;stroke:#000000;stroke-width:1.34678;stroke-dasharray:none;stroke-opacity:1" />
    <path
       d="m 593.41,432.2 3.06,10.4 3.6,1.42 1.42,5.07 4.28,1.87 1.2,-7.79 4.69,2.13 7.37,-0.94 5.11,7.01 -6.83,9.75 1.02,4.03 -2.82,18.69 5.54,0.07 4.77,-4.16 9.73,-0.88 10.93,-10.86 9.2,-0.55 3.91,2.4 3.84,-4.65 5.61,4.18 0.73,7.03 4.41,4.07 -14.66,12.63 -1.12,7.83 1.77,8.64 -6.93,9.41 -5.22,16.03 -2.89,11.78 -5.14,9.53 0.22,16.29 8.21,4.43 -5.91,14.56 0.48,13.66 3.86,8.73 7.07,6.79 -6.39,2.17 -7.45,9.62 -8.12,4.92 -1.89,-6.54 -6.39,-3.07 1.57,-8.24 -3.54,-3.4 -0.05,-5.46 -2.66,-4.74 1.36,-5.81 -9.09,-16.15 1.36,-4.65 0.11,-14.57 -2.74,-9.57 -4.78,-2.54 -0.03,-5.19 -5.76,-7.05 -0.03,-5.11 -3.44,-3.77 5.41,-10.07 1.68,-8.14 -3.91,-2.54 -6.27,3.2 -2.27,-4.64 0.17,-7.02 -5.72,-6.53 5.17,-9.43 -5.02,-10.67 -4.85,-5.8 2.03,-8.99 -4.18,-4.6 -2.27,-8.31 -0.91,-16.03 7.18,-6.19 7.82,-0.62 z"
       id="M40625"
       style="fill:#ffff80;fill-opacity:1;stroke:#000000;stroke-width:1.34678;stroke-dasharray:none;stroke-opacity:1" />
    <path
       d="m 669.63,419.04 -12.67,7.27 -7.2,-1.01 -16.77,5.64 -5.68,-3.36 -7.77,-0.7 -2.28,-3.52 -12.95,-3.45 2.34,-6.52 -2.31,-8.46 4.39,-6.75 7.19,-4.1 4.84,3.33 13.55,-4.18 4.9,-8.3 14.55,-16.56 2.75,0.31 18.4,-7.79 2.56,6.83 -7.64,4.31 -2.62,3.73 -8.9,4.4 7.25,4.15 3.74,6.85 -6.4,7.04 3.34,4.61 8.61,-6.78 4.19,7.94 -11.74,8.93 z m 17.43,-70.36 6.74,-1.16 1.99,11.98 -6.65,1.11 z"
       fill-rule="evenodd"
       id="M40621"
       style="fill:#ffff80;fill-opacity:1;stroke:#000000;stroke-width:1.34678;stroke-dasharray:none;stroke-opacity:1" />
    <path
       d="m 447.61,420.27 -11.45,6.63 -5.98,0.63 -4.98,-9.16 0.36,-10.04 -1.1,-7.78 -7.69,-15.47 -3.99,-7.95 1.32,-10.52 3.78,3.07 5.27,-0.48 6.23,-7.94 8.17,-0.4 3.28,-1.58 4.28,8.71 5.03,-1.27 3.08,4.78 5.71,0.35 2.08,4.34 2.5,4.35 -8.31,9.56 3.14,6.68 -0.88,7.32 -12.73,3.89 z"
       id="M40402"
       style="fill:#ffff80;fill-opacity:1;stroke:#000000;stroke-width:1.34678;stroke-dasharray:none;stroke-opacity:1" />
    <path
       d="m 438.49,468.12 1.46,-4.48 5.09,-2.27 10.63,0.27 -0.34,-17.34 13.14,-10.76 3.66,2.8 5.34,-0.02 -1.73,10.24 1.77,8.62 -4.15,5.69 -6.44,-0.81 1.91,6.49 -4.93,8.04 -15.44,-2.43 -5.41,2.5 z"
       id="M40401"
       style="fill:#ffff80;fill-opacity:1;stroke:#000000;stroke-width:1.34678;stroke-dasharray:none;stroke-opacity:1" />
    <path
       d="m 653.92,620.8 -7.07,-6.79 -3.86,-8.73 -0.48,-13.66 5.91,-14.56 -8.21,-4.43 -0.22,-16.29 5.14,-9.53 2.89,-11.78 5.22,-16.03 6.93,-9.41 -1.77,-8.64 1.12,-7.83 14.66,-12.63 8.43,-6.03 4.83,3.38 4.82,-0.32 6.32,-4.31 -0.05,-3.44 3.98,2.47 5.41,10.88 1.79,0.65 3.77,11.24 3.74,1.91 5.29,7.07 4.37,11.33 -3.05,6.87 -3.74,1.89 -7.44,12.03 -7.36,5.63 -4.75,5.82 -2.17,7.14 -11.33,18.46 -3.65,0.73 -8.24,8.78 -0.99,11.21 -11.25,10.84 -3,8.04 -0.14,6.89 z"
       id="M40647"
       style="fill:#ffff80;fill-opacity:1;stroke:#000000;stroke-width:1.34678;stroke-dasharray:none;stroke-opacity:1" />
    <path
       d="m 779.82,547.54 2.41,5.68 3.88,0.44 0.81,8.48 9.02,8.64 3.06,8.19 -2.55,11.64 -7.04,8.03 -6.97,4.73 2.08,6.28 -1.14,4.17 4.22,2.93 1.26,5.05 -6.11,0.8 -2.77,-2.38 -14.98,3.18 -5.52,-0.95 -2.38,2.79 -7.79,0.28 -9.34,-4.72 -3.46,2.5 -4.74,-2.17 -9.75,1.68 -8.33,-3.09 6.08,-7.19 3.98,-0.89 6.04,-4.99 1.79,-9.06 11.27,-6.2 6.22,-11.62 2.2,-8.79 6.39,-9.78 14.51,-9.24 3.29,-6.49 z"
       id="M40646"
       style="fill:#ffff80;fill-opacity:1;stroke:#000000;stroke-width:1.34678;stroke-dasharray:none;stroke-opacity:1" />
    <path
       d="m 786.11,553.66 -3.88,-0.44 -2.41,-5.68 -4.36,-2.07 -2.6,-3.31 4.97,-4.43 4.24,-7.77 8.69,-3.65 4.44,4.57 -4.98,9.12 0.32,6.67 z"
       id="M40642"
       style="fill:#ffff80;fill-opacity:1;stroke:#000000;stroke-width:1.34678;stroke-dasharray:none;stroke-opacity:1" />
    <path
       d="m 296.32,655.24 -7.24,-3.49 -3.81,-23.5 13.74,-9.52 3.7,-0.94 2.32,-13.81 -1.23,-6.39 -5.63,-1.87 1.51,-5.16 -1.24,-7.43 -4.96,-6.39 3.15,-1.74 4.85,8.01 2.87,0.54 5.44,-6.38 9.09,-0.4 7.37,11.19 -0.76,3.79 4.18,4.74 -10.26,4.99 -7.07,0.44 3.79,8.96 -5.98,5.28 2.1,7.53 -3.33,3.87 -0.9,7.73 4.77,16.53 -5.42,4.86 -6.05,0.67 z"
       id="M40219"
       style="fill:#ffff80;fill-opacity:1;stroke:#000000;stroke-width:1.34678;stroke-dasharray:none;stroke-opacity:1" />
    <path
       d="m 285.27,628.25 -3.41,-3.62 2,-4.5 -6.66,-4.78 -3.24,-7.15 1.23,-5.01 5,-3.58 -2.34,-8.06 8.69,-4.92 7.79,10.8 3.84,-1.71 5.63,1.87 1.23,6.39 -2.32,13.81 -3.7,0.94 z"
       id="M40218"
       style="fill:#ffff80;fill-opacity:1;stroke:#000000;stroke-width:1.34678;stroke-dasharray:none;stroke-opacity:1" />
    <path
       d="m 292.95,686.93 -2.5,-2.01 -0.66,-9.4 3,-2.51 -2.56,-10.31 6.09,-7.46 5,2.11 6.05,-0.67 5.42,-4.86 2.87,-3.49 -1.07,-7.85 2.62,-5.18 -0.27,-5.08 5.04,-8.06 3.23,4.96 4.08,0.12 4.85,-6 5.89,1.07 1.19,6.34 6.86,6.19 3.96,-5.57 1.98,-7.28 -6.24,-5.18 1.22,-7.6 11.14,-1.54 4.96,-6.08 4.71,-9.68 5.04,-8.9 3.24,-1.26 7.99,7.5 1.56,5.97 9.89,11.07 -1.52,4.72 5.75,2.96 2.26,8.21 -7.94,8.47 0.11,2.59 -14.67,5.88 -0.52,3.59 -5.68,7.23 -9.56,-3.46 -2.84,2.77 -0.15,8.98 9.41,14.67 6.28,3.4 -3.37,3.37 -5.8,-4.89 -12.36,-5.88 -2.75,7.62 -6.34,-0.67 -2.79,2.15 -1.94,-2.06 -15.65,-6.36 -10.56,3.61 -3.33,4.21 -11.62,3.52 z"
       id="M40217"
       style="fill:#ffff80;fill-opacity:1;stroke:#000000;stroke-width:1.34678;stroke-dasharray:none;stroke-opacity:1" />
    <path
       d="m 375.09,679.67 4.35,5.69 13.2,9.01 2.96,5.8 -6.6,1.9 -0.9,5.68 -3.78,0.55 -5.24,15.41 -5.14,9.23 0.23,4.81 -0.87,6.17 -4.54,3.68 -5.77,0.01 -8.32,8.13 -6.63,-0.21 -3.34,2.25 2.97,-18.48 1.18,-0.94 -0.62,-45.6 -4.1,-10.94 0.92,-3.82 2.79,-2.15 6.34,0.67 2.75,-7.62 12.36,5.88 z"
       id="M40216"
       style="fill:#ffff80;fill-opacity:1;stroke:#000000;stroke-width:1.34678;stroke-dasharray:none;stroke-opacity:1" />
    <path
       d="m 461.01,376.19 -2.08,-4.34 -5.71,-0.35 -3.08,-4.78 -5.03,1.27 -4.28,-8.71 -3.28,1.58 -0.86,-3.04 6.03,-6.03 5.67,-0.11 4.09,-2.91 3.06,3.34 4.94,-4.04 -0.79,-5.83 10.36,3.82 1.3,2.42 7.18,3.14 0.63,4.46 9.11,4.46 0.16,3.28 -8.3,2.93 -4.06,7.77 -6.05,-3.36 z"
       id="M40215"
       style="fill:#ffff80;fill-opacity:1;stroke:#000000;stroke-width:1.34678;stroke-dasharray:none;stroke-opacity:1" />
    <path
       d="m 659.77,619.65 0.14,-6.89 3,-8.04 11.25,-10.84 0.99,-11.21 8.24,-8.78 3.65,-0.73 11.33,-18.46 2.17,-7.14 4.75,-5.82 7.36,-5.63 7.44,-12.03 3.74,-1.89 3.05,-6.87 5.28,5.55 4.04,8.08 6.23,-0.07 4.12,-10.29 6.22,3.5 14.4,0.74 11.85,7.48 3.05,-0.35 -4.24,7.77 -4.97,4.43 2.6,3.31 -3.29,6.49 -14.51,9.24 -6.39,9.78 -2.2,8.79 -6.22,11.62 -11.27,6.2 -1.79,9.06 -6.04,4.99 -3.98,0.89 -6.08,7.19 -9.95,0.97 -12.19,-9.3 -14.29,8.32 -9.52,-2.58 z"
       id="M40214"
       style="fill:#ffff80;fill-opacity:1;stroke:#000000;stroke-width:1.34678;stroke-dasharray:none;stroke-opacity:1" />
    <path
       d="m 674.18,480.49 -4.41,-4.07 -0.73,-7.03 -5.61,-4.18 -3.84,4.65 -3.91,-2.4 -9.2,0.55 -10.93,10.86 -9.73,0.88 -4.77,4.16 -5.54,-0.07 2.82,-18.69 -1.02,-4.03 6.83,-9.75 -5.11,-7.01 -7.37,0.94 -4.69,-2.13 -1.2,7.79 -4.28,-1.87 -1.42,-5.07 -3.6,-1.42 -3.06,-10.4 5.5,-15.9 5.4,3.61 12.95,3.45 2.28,3.52 7.77,0.7 5.68,3.36 16.77,-5.64 7.2,1.01 12.67,-7.27 2.88,5.01 5.45,-5.74 2.19,4.54 -3.1,8.9 4.32,3.17 2.87,11.54 3.76,9.66 2.79,2.62 3.26,8.51 4.48,2.52 0.05,3.44 -6.32,4.31 -4.82,0.32 -4.83,-3.38 z"
       id="M40213"
       style="fill:#ffff80;fill-opacity:1;stroke:#000000;stroke-width:1.34678;stroke-dasharray:none;stroke-opacity:1" />
    <path
       d="m 240.06,842.85 4.46,1.58 2.61,5.21 4.06,2.1 7.34,-2.27 0.4,6.43 7.66,3.47 -2.9,7.54 0.76,14.04 -13.01,1.37 -6.55,11.37 -8.15,-5.44 -5.74,-0.47 -4.34,7.18 1.15,2.98 -10.69,2.67 0.68,-8.02 -4.21,-1.23 -4.51,-5.38 -0.59,-13.74 2.07,-2.71 8.56,-0.78 4.88,-4.96 9.8,-3.91 1.99,-7.68 -5.83,-5.72 1.84,-6.79 z"
       id="M40212"
       style="fill:#ffff80;fill-opacity:1;stroke:#000000;stroke-width:1.34678;stroke-dasharray:none;stroke-opacity:1" />
    <path
       d="m 344.66,889.27 -7.2,2.45 -13.98,-0.82 -6.69,8.14 -5.65,-8.34 -7.47,-0.35 -0.57,10.11 -7.56,-0.55 -6.12,-3.23 2.78,-3.82 -2.22,-4.67 -3.84,-15.8 4.5,-1.67 1.91,-11.72 1.99,-2.59 7.74,-7.01 2.53,-7.66 18.47,-2.39 4.82,-7.36 0.93,4.91 -3.33,7.44 3.59,0.52 3.5,5.65 0.4,0.73 4.34,0.04 -3.26,3.44 -0.89,8.49 2.32,13.84 1.91,5.41 z"
       id="M40211"
       style="fill:#ffff80;fill-opacity:1;stroke:#000000;stroke-width:1.34678;stroke-dasharray:none;stroke-opacity:1" />
    <path
       d="m 362.62,955.79 -4.06,-2.63 0.76,-10.54 -3.31,-4.25 1.09,-11.23 -2.8,-4.6 1.97,-8.96 -9.68,-3.94 2.46,-16.05 -4.39,-4.32 -7.05,-6.81 -1.91,-5.41 -2.32,-13.84 0.89,-8.49 3.26,-3.44 -4.34,-0.04 -0.4,-0.73 11.35,-2.25 6.81,3.08 23.2,-4.16 14.15,-7.94 4.94,5.29 12.04,1.87 4.69,-1.48 0.04,-6.53 -7.52,-11.4 -1.73,-22.07 -0.11,-3.9 7.82,-0.77 6.65,-5.86 6.52,0.85 11.46,-3.65 18.13,-3.11 10.99,-0.34 13,3.53 4.13,11.92 11.98,6.44 3.22,-2.25 11.45,0.73 8.95,10.97 7.22,-1.05 0.85,5.22 7.8,0.86 7.15,4.84 7.22,2.75 1.82,7.06 -0.85,6.75 4.63,2.15 13.62,1.59 4.88,2.6 -14.41,10.11 -1.62,5.25 7.43,6.2 8.11,4.2 3.33,4.14 4.11,-0.67 3.66,3.81 8.74,2.49 -1.21,8.27 -5.46,1.74 -3,5.25 2.14,2.66 2.1,9.66 -5.77,4.53 -3.54,17.13 -3.18,7.72 -5.77,6.95 -11.61,3.21 -11.26,-1.09 0.41,-3.96 -6.35,-4.38 -3.15,0.65 -12.56,-6.77 -12.69,-0.25 -8.57,-5.98 -3.25,-4.88 -11.37,-7.39 -2.05,-5.85 -7.99,1.26 -7.4,-2.84 -5.58,3.04 -9.21,-2.72 1.42,-4.15 -5.46,-7.56 -12.27,10.05 -0.86,11.24 1.8,3.67 -4.06,3.64 -1.93,13.63 -3.87,2.25 1.03,5.69 -11.13,-4.03 -13.04,1.74 -4.02,2.23 -5.93,-1.49 -4.16,-3.64 -7.81,0.7 -6.64,-1.72 -4.88,3.54 -1.64,4.15 z"
       id="M40210"
       style="fill:#ffff80;fill-opacity:1;stroke:#000000;stroke-width:1.34678;stroke-dasharray:none;stroke-opacity:1" />
    <path
       d="m 303.1,900.46 -0.46,3.1 -11.31,-0.5 2.13,10.67 -0.99,5.79 -4.82,0.6 0.38,6.62 -4.54,4.04 -3.65,9.52 -3.81,2.74 -4.26,9.87 -8.48,13.22 -4.82,4.15 -15.38,-5.82 -1.38,-2.39 7,-9.32 -6.61,-2.98 -10.3,-6.79 2.57,-7.11 -2.56,-10.81 -4.61,1.87 -7.55,-1.1 0.09,-11.15 -2.62,-14.07 10.69,-2.67 -1.15,-2.98 4.34,-7.18 5.74,0.47 8.15,5.44 6.55,-11.37 13.01,-1.37 5.56,0.1 4.3,6.44 0.43,4.48 7.58,-3.06 7.66,-0.72 2.22,4.67 -2.78,3.82 6.12,3.23 z"
       id="M40207"
       style="fill:#ffff80;fill-opacity:1;stroke:#000000;stroke-width:1.34678;stroke-dasharray:none;stroke-opacity:1" />
    <path
       d="m 517.63,570.4 -5.66,-0.27 -1.16,-5.07 -7.6,-6.17 -1.58,-3.45 2.09,-4.67 5.18,-2.43 1.98,-11.94 -7.69,-2.24 -11.35,-23.69 2.52,-2.94 4.42,3.76 24.04,-10 0.07,-4.04 -3.41,-8.43 3.17,-3.42 10.5,-0.73 -2.57,-7.31 1.77,-8.77 3.47,-3.39 11.23,-1.79 -1.26,7.3 1.29,5.77 -2.1,9.76 3.42,6.66 4.97,0.7 -1.94,8.86 6.53,4.23 -5.03,10.32 3.6,4.31 3.3,8.17 -9.53,9.95 -5.74,-3.54 -4.84,-6.19 -15.39,-4.91 -0.81,4.79 5.42,4.06 -3.79,10.85 2.61,4.39 -1.24,9.82 z"
       id="M40206"
       style="fill:#ffff80;fill-opacity:1;stroke:#000000;stroke-width:1.34678;stroke-dasharray:none;stroke-opacity:1" />
    <path
       d="m 458.61,544.43 -6.32,3.14 -4.01,-0.83 -2.07,-4.73 -8.5,1.78 -1.76,2.65 -9.43,1.32 -3.26,5.66 7.34,1.47 -2.3,4.32 6.46,2 -3.55,10.48 3.78,12.18 4.8,-1.81 3.27,2.91 -0.41,4.65 -5.39,8.81 2,4.63 -3.33,-0.02 -2.75,5.39 1.69,4.61 -2.44,11.04 -6.42,-5.94 -7.63,4.54 -4.74,-1.46 -5.12,2.28 -4.5,-1.32 -2.26,-8.21 -5.75,-2.96 1.52,-4.72 -9.89,-11.07 -1.56,-5.97 -7.99,-7.5 -3.21,-8.84 -3.05,-2.24 -1.64,-7.45 -3.13,-2.2 -1.23,-9.34 -2.44,-2.1 -3.31,-5.14 6.91,-6.21 8.14,3.54 3.97,-0.33 5.55,-4.74 2.47,-5.66 -3.77,-2.84 -4.09,-11.15 -7.43,-4.74 4.96,-7.42 14.96,-5.41 3.62,2.39 12.78,-12.81 6.68,-4.77 1.39,-9.79 3.08,-3.75 4.38,0.76 6.48,-2.99 8.33,-0.4 4.56,6.54 5.41,-2.5 15.44,2.43 4.93,-8.04 -1.91,-6.49 6.44,0.81 4.15,-5.69 11.44,4.03 2.8,1.81 5.03,12.37 -2.67,9.06 3.65,8.2 2.76,8.11 -4.61,3.55 -1.55,5.22 -2.52,2.94 11.35,23.69 7.69,2.24 -1.98,11.94 -5.18,2.43 -2.09,4.67 -7.44,-1.97 -4.41,-5.14 -4.5,-10.09 -4.14,-5.16 -7.12,-4.51 -5.19,2 -5.9,-6.15 -3.98,7.03 -1.72,10.62 z"
       id="M40205"
       style="fill:#ffff80;fill-opacity:1;stroke:#000000;stroke-width:1.34678;stroke-dasharray:none;stroke-opacity:1" />
    <path
       d="m 468.47,433.54 -4.97,-8.77 -9.12,-3.36 -5.21,2.93 -1.56,-4.07 -2.88,-12.28 12.73,-3.89 0.88,-7.32 -3.14,-6.68 8.31,-9.56 4.74,7.03 4.64,11.23 6.27,-0.21 5.85,3.23 5.45,-1.29 7.9,2.2 7.46,-6.52 -1.04,-4.26 4.38,-3.41 8.06,1.08 2.81,4.45 4.33,-0.37 5.27,8.13 -2.11,4.47 3.8,12.83 -0.59,6.49 -4.6,2.5 -6.12,-0.22 -4.54,9.92 -6.06,4.04 -17.43,5.56 0.78,4 -3.81,7.79 -11.44,-4.03 -1.77,-8.62 1.73,-10.24 -5.34,0.02 z"
       id="M40204"
       style="fill:#ffff80;fill-opacity:1;stroke:#000000;stroke-width:1.34678;stroke-dasharray:none;stroke-opacity:1" />
    <path
       d="m 435.49,741.81 23.17,0.09 13.53,2.38 2.1,-1.39 -3.02,6.48 8.75,5.1 0.12,5.66 -5.08,1.96 -0.24,10.84 3.66,18.31 -3.26,0.43 -13,-3.53 -10.99,0.34 -18.13,3.11 -11.46,3.65 -6.52,-0.85 -6.65,5.86 -7.82,0.77 0.11,3.9 -10.16,9.7 -10.38,4.86 -8,-6.64 -5.12,2.36 -1.48,6.14 -6.37,1.35 -7.64,3.82 -7.9,-2.07 -2.36,3.84 -9.83,-0.25 -3.42,3.96 -4.82,7.36 -18.47,2.39 -2.53,7.66 -7.74,7.01 -3.6,-4.78 -0.37,-5.84 -11.38,-6.08 0.46,5.86 -4.79,0.24 1.51,6.61 -8.34,-0.99 -1.64,5.09 -7.46,-0.62 -0.4,-6.43 -7.34,2.27 -4.06,-2.1 -2.61,-5.21 -4.46,-1.58 3.55,-4.02 -0.94,-9.8 7.68,-1.64 1.44,8.66 8.88,-3.31 3.2,-7.43 -1.7,-4.69 6.43,-2.79 3.21,-8.23 -2.83,-7.97 4.8,-1.92 3.27,2.55 -2.37,11.2 0.8,5.05 4.32,4.79 5.06,-0.89 -0.71,-11.04 2.93,-3.77 8.27,-1.59 0.94,-4.54 -6.93,-2.87 -0.43,-5.83 7.7,-3.27 8.01,0.34 4.62,-1.55 3.11,-8.07 -8.6,-8.36 4.93,-5.74 10.66,6.1 4.3,-4.56 0.75,-8.38 3.72,-2.41 5.17,2.96 11.4,-2.05 3.34,-2.25 6.63,0.21 8.32,-8.13 5.77,-0.01 4.54,-3.68 0.87,-6.17 18.82,-0.34 16.55,0.51 -1.37,3.88 2.71,7.78 13.37,-8.32 z"
       id="M40203"
       style="fill:#ffff80;fill-opacity:1;stroke:#000000;stroke-width:1.34678;stroke-dasharray:none;stroke-opacity:1" />
    <path
       d="m 262.6,982.53 14.9,-3.35 3.89,-2.37 3.42,-7.54 15.66,-0.91 7.43,3.26 8.82,-4.02 7.73,-1.7 0.72,-5 6.47,1.36 3.72,11.07 5.95,-0.72 5.4,-4.79 2.49,6.56 -4.92,3.05 -2.16,10.39 -10.68,-0.05 -8.89,6.24 -6.26,7.74 6.55,9.83 0.77,8.87 3.73,2.43 3.35,7.54 -6.05,8.38 -5.53,-2.21 -10.5,4.09 -23.12,-1.88 -4.02,1.18 -5.98,-2.15 -15.88,0.86 -11.55,3.31 -0.06,-3.92 8.8,-3.87 6.94,1.27 -3.47,-7.36 -4.56,-0.44 10.66,-10.1 -2.65,-5.39 2.14,-12.53 2,-1.47 z"
       id="M40202"
       style="fill:#ffff80;fill-opacity:1;stroke:#000000;stroke-width:1.34678;stroke-dasharray:none;stroke-opacity:1" />
    <path
       d="m 547.05,463.41 -11.23,1.79 -3.47,3.39 -1.77,8.77 2.57,7.31 -10.5,0.73 -3.17,3.42 -2.7,-4.35 -12.33,5.44 -6.69,0.74 -3.65,-8.2 2.67,-9.06 -5.03,-12.37 -2.8,-1.81 3.81,-7.79 -0.78,-4 17.43,-5.56 6.06,-4.04 4.54,-9.92 6.12,0.22 4.6,-2.5 1.12,6.16 11.37,11.17 6.26,14.23 z"
       id="M40610"
       style="fill:#ffff80;fill-opacity:1;stroke:#000000;stroke-width:1.34678;stroke-dasharray:none;stroke-opacity:1" />
    <path
       d="m 590.77,502.44 -0.17,7.02 2.27,4.64 6.27,-3.2 3.91,2.54 -1.68,8.14 -5.41,10.07 3.44,3.77 0.03,5.11 5.76,7.05 0.03,5.19 4.78,2.54 2.74,9.57 -0.11,14.57 -5.29,-6.06 -6,-2.64 -2.83,-4.94 -8.57,-5.61 -10.43,7.5 -4.34,-10.78 2.01,-5.64 -5.04,-10.33 0.99,-3.48 -3.63,-10.68 0.45,-14.91 -3.25,-6.04 13.95,4 z"
       id="M40609"
       style="fill:#ffff80;fill-opacity:1;stroke:#000000;stroke-width:1.34678;stroke-dasharray:none;stroke-opacity:1" />
    <path
       d="m 550.3,539.44 9.53,-9.95 -3.3,-8.17 -3.6,-4.31 5.03,-10.32 8.74,-0.85 3.25,6.04 -0.45,14.91 3.63,10.68 -0.99,3.48 5.04,10.33 -2.01,5.64 -4.42,2.58 -3.86,-6.86 -7.51,3 -6.22,-4.02 3.61,-6.39 z"
       id="M40608"
       style="fill:#ffff80;fill-opacity:1;stroke:#000000;stroke-width:1.34678;stroke-dasharray:none;stroke-opacity:1" />
    <path
       d="m 535.11,619.21 -4.37,-1.32 -0.27,-5.1 2.1,-16.19 -2.78,-8.65 -6.77,-7.26 -0.43,-3.52 -4.96,-6.77 8.89,-11.69 1.24,-9.82 -2.61,-4.39 3.79,-10.85 -5.42,-4.06 0.81,-4.79 15.39,4.91 4.84,6.19 5.74,3.54 6.47,5.79 -3.61,6.39 -2.67,7.13 3.49,3.13 0.82,7 -4.51,2.3 0.14,10.91 -1.54,5.43 1.72,4.34 -0.51,6.94 -3.4,11.08 -10.6,4.55 z"
       id="M40605"
       style="fill:#ffff80;fill-opacity:1;stroke:#000000;stroke-width:1.34678;stroke-dasharray:none;stroke-opacity:1" />
    <path
       d="m 519.48,488.82 3.41,8.43 -0.07,4.04 -24.04,10 -4.42,-3.76 1.55,-5.22 4.61,-3.55 -2.76,-8.11 6.69,-0.74 12.33,-5.44 z"
       id="M40604"
       style="fill:#ffff80;fill-opacity:1;stroke:#000000;stroke-width:1.34678;stroke-dasharray:none;stroke-opacity:1" />
    <path
       d="m 597.54,669.49 -8.52,-1.19 -11.2,0.77 -5.27,-1.09 -2.15,3.5 -5.57,-0.71 -6.1,-12.02 -5.76,-5.19 0.16,-3.16 7.98,-5.96 -3.44,-5.13 -3.7,1.04 -5.61,-3.28 -8.19,-0.54 -4.79,-11.16 -0.27,-6.16 0.99,-4.78 10.6,-4.55 3.4,-11.08 0.51,-6.94 -1.72,-4.34 1.54,-5.43 -0.14,-10.91 4.51,-2.3 -0.82,-7 -3.49,-3.13 2.67,-7.13 6.22,4.02 7.51,-3 3.86,6.86 4.42,-2.58 4.34,10.78 10.43,-7.5 8.57,5.61 2.83,4.94 6,2.64 5.29,6.06 -1.36,4.65 9.09,16.15 -1.36,5.81 2.66,4.74 0.05,5.46 3.54,3.4 -1.57,8.24 6.39,3.07 1.89,6.54 -5.18,1.69 -8.74,15.75 -2.46,7.55 -7.33,2.34 -3.6,4.17 z"
       id="M40602"
       style="fill:#ffff80;fill-opacity:1;stroke:#000000;stroke-width:1.34678;stroke-dasharray:none;stroke-opacity:1" />
    <path
       d="m 575.02,432.08 0.91,16.03 2.27,8.31 4.18,4.6 -2.03,8.99 4.85,5.8 5.02,10.67 -5.17,9.43 5.72,6.53 -10.12,7.4 -13.95,-4 -8.74,0.85 -6.53,-4.23 1.94,-8.86 -4.97,-0.7 -3.42,-6.66 2.1,-9.76 -1.29,-5.77 1.26,-7.3 2.43,-6.23 -6.26,-14.23 3.41,-2.13 14.25,-1.75 1.88,-6.1 8.86,-2.63 z"
       id="M40601"
       style="fill:#ffff80;fill-opacity:1;stroke:#000000;stroke-width:1.34678;stroke-dasharray:none;stroke-opacity:1" />
    <path
       d="m 332.79,850.51 -3.5,-5.65 -3.59,-0.52 3.33,-7.44 -0.93,-4.91 3.42,-3.96 9.83,0.25 2.36,-3.84 7.9,2.07 7.64,-3.82 6.37,-1.35 1.48,-6.14 5.12,-2.36 8,6.64 10.38,-4.86 10.16,-9.7 1.73,22.07 7.52,11.4 -0.04,6.53 -4.69,1.48 -12.04,-1.87 -4.94,-5.29 -14.15,7.94 -23.2,4.16 -6.81,-3.08 z"
       id="M40544"
       style="fill:#ffff80;fill-opacity:1;stroke:#000000;stroke-width:1.34678;stroke-dasharray:none;stroke-opacity:1" />
    <path
       d="m 315.77,515.11 2.55,-0.16 1.08,16.63 -7.08,4.49 -0.4,13.4 -6.43,0.54 -3.59,-4.57 -6.87,-4.29 -4.42,-5.19 -10.84,2.49 -0.92,-5 7.3,-5.15 1.73,-5.05 8.57,-4.9 3.96,-5.32 9.47,8.67 z"
       id="M40349"
       style="fill:#ffff80;fill-opacity:1;stroke:#000000;stroke-width:1.34678;stroke-dasharray:none;stroke-opacity:1" />
    <path
       d="m 350.77,452.2 -2.61,9.86 2.73,3.77 -3.56,10.4 1.15,4.14 5.77,2.66 1.09,4.26 7.46,1.95 -8.99,7.82 -0.89,7.63 -7.98,3.58 -5.4,5.52 -8.84,-2.89 -12.38,4.05 -2.55,0.16 -2.66,-12.24 -7.91,0.54 0.37,-4.2 -7.37,-11.13 -0.14,-10.34 3.69,2.98 10.05,1.41 2.6,-3.3 11.14,-7.3 7.61,-4.79 1.56,-7.47 7.83,-6.76 z"
       id="M40348"
       style="fill:#ffff80;fill-opacity:1;stroke:#000000;stroke-width:1.34678;stroke-dasharray:none;stroke-opacity:1" />
    <path
       d="m 593.41,432.2 -3.39,-6.93 -7.82,0.62 -7.18,6.19 -3.4,-1.74 -8.86,2.63 -1.88,6.1 -14.25,1.75 -3.41,2.13 -11.37,-11.17 -1.12,-6.16 0.59,-6.49 -3.8,-12.83 2.11,-4.47 -5.27,-8.13 -4.33,0.37 -2.81,-4.45 -8.06,-1.08 -4.38,3.41 1.04,4.26 -7.46,6.52 -7.9,-2.2 -5.45,1.29 -5.85,-3.23 -6.27,0.21 -4.64,-11.23 -4.74,-7.03 -2.5,-4.35 9.01,-5.03 6.05,3.36 4.06,-7.77 8.3,-2.93 -0.16,-3.28 -9.11,-4.46 -0.63,-4.46 -7.18,-3.14 v -8.1 l -8.55,-7.16 -1.38,-4.08 -7.53,-8.49 -0.67,-8.8 -3.17,-1.78 -4.23,-7 2.66,-7.16 -6.97,-7.86 1.73,-4.57 -3.3,-5.38 6.38,-4.67 3.48,-8.49 9.47,-3.54 11.31,0.9 8.14,2.69 2.35,4.55 4.93,-2.51 9.06,-0.03 -0.02,-11.11 11.17,-1.73 0.07,5.59 -6.05,0.85 0.02,4.75 6.03,-0.01 0.01,4.03 -11.95,4.92 3.8,2.35 12.67,-5.65 1.52,-5.92 20.77,2.27 7.72,7.18 -2.93,17.38 -4.77,2.04 -8.1,7.82 -7.16,-0.4 -1.17,4.12 -20.88,6.47 -2.67,3.54 32.96,-9.75 12.98,-9.81 4.62,-5.24 -0.8,-6.02 2.22,-8.1 14.05,-6.18 6.96,-1.32 1.75,4.23 -6.43,4.27 1.53,3.67 11.17,-4.66 23.99,24.86 3.01,-2.88 8.05,-1.58 10.28,-9.82 9.95,-25.53 11.24,-7.76 0.4,-12.16 7.96,2.62 12.33,-2.24 6.88,-6.81 12.45,6.35 2.67,3.86 -3.87,5.48 1.89,7.75 -7.16,-0.02 -1.95,6.38 1.83,3.29 -1.23,6.1 3.05,6.02 -5.55,0.45 -1.01,8.11 -10.51,4.39 1.56,3.81 9.12,5.22 -2.96,13.26 -3.98,-1.24 0.82,-8.29 -5.96,3.01 1.47,10.65 6.59,0.33 -3.31,14.44 -3.83,0.17 -7.54,7.76 -0.59,5.99 -11,-3.9 -2.55,7.87 6.84,16.8 10.23,-0.95 -14.55,16.56 -4.9,8.3 -13.55,4.18 -4.84,-3.33 -7.19,4.1 -4.39,6.75 2.31,8.46 -2.34,6.52 -5.4,-3.61 z m -55.53,-174.8 12.47,-5.35 8.85,8.86 -15.82,7.41 -5.36,-3.21 -3.24,1.3 -17.79,-1.95 -4.71,-4.58 -0.01,-4.68 15.46,-0.03 6.21,-2.58 z m 155.92,90.12 -6.74,1.16 -3.17,-18.66 6.68,-1.23 z"
       fill-rule="evenodd"
       id="M40100"
       style="fill:#ffff80;fill-opacity:1;stroke:#000000;stroke-width:1.34678;stroke-dasharray:none;stroke-opacity:1" />
    <path
       d="m 225.24,404.92 6.08,1.75 -6.81,8.11 -2.39,-5.89 z m 57.78,34.86 8.34,4.92 6.57,9.42 -1.99,5.75 1.09,4.44 16.81,2.75 5.94,-4.24 5.76,8.71 -11.14,7.3 -2.6,3.3 -10.05,-1.41 -3.69,-2.98 -3.27,-2.76 -6.18,2.77 -5.07,-15.25 -4.59,-0.88 -7.4,-7.81 -8.72,-3.59 2.27,-4.9 7.56,1.92 z"
       fill-rule="evenodd"
       id="M40345"
       style="fill:#ffff80;fill-opacity:1;stroke:#000000;stroke-width:1.34678;stroke-dasharray:none;stroke-opacity:1" />
    <path
       d="m 360.08,544.44 3.31,5.14 -10.12,5.31 -1.76,6.68 -14.41,2.76 -10.14,-1.39 -7.84,-2.66 -5.1,-4.46 -2.1,-6.35 0.4,-13.4 7.08,-4.49 11.83,9.82 10.17,2.3 4.72,4.15 z"
       id="M40344"
       style="fill:#ffff80;fill-opacity:1;stroke:#000000;stroke-width:1.34678;stroke-dasharray:none;stroke-opacity:1" />
    <path
       d="m 279.77,538.45 10.84,-2.49 4.42,5.19 6.87,4.29 3.59,4.57 6.43,-0.54 2.1,6.35 5.1,4.46 -7.58,8.69 -1.77,8.12 -5.8,-5.77 0.17,-8.75 -12.69,-15.96 z"
       id="M40343"
       style="fill:#ffff80;fill-opacity:1;stroke:#000000;stroke-width:1.34678;stroke-dasharray:none;stroke-opacity:1" />
    <path
       d="m 362.8,489.24 5.88,2.07 3.29,4.72 -6.14,9.21 6,7.07 7.43,4.74 4.09,11.15 3.77,2.84 -2.47,5.66 -5.55,4.74 -3.97,0.33 -8.14,-3.54 -6.91,6.21 -13.96,3.41 -4.72,-4.15 -10.17,-2.3 -11.83,-9.82 -1.08,-16.63 12.38,-4.05 8.84,2.89 5.4,-5.52 7.98,-3.58 0.89,-7.63 z"
       id="M40342"
       style="fill:#ffff80;fill-opacity:1;stroke:#000000;stroke-width:1.34678;stroke-dasharray:none;stroke-opacity:1" />
    <path
       d="m 369.81,591.91 -4.61,-2.19 -11.32,-9.43 -5.92,1.27 0.7,4.69 -8.86,5.43 0.37,5.64 -6.44,5.13 -4.06,-5.96 -4.18,-4.74 0.76,-3.79 -7.37,-11.19 -9.09,0.4 -0.02,-0.08 1.77,-8.12 7.58,-8.69 7.84,2.66 10.14,1.39 14.41,-2.76 1.76,-6.68 10.12,-5.31 2.44,2.1 1.23,9.34 3.13,2.2 1.64,7.45 3.05,2.24 3.21,8.84 -3.24,1.26 z"
       id="M40341"
       style="fill:#ffff80;fill-opacity:1;stroke:#000000;stroke-width:1.34678;stroke-dasharray:none;stroke-opacity:1" />
    <path
       d="m 437.55,360.86 -8.17,0.4 -6.23,7.94 -5.27,0.48 -3.78,-3.07 3.45,-0.39 2.22,-5.63 -1.76,-6.9 4.8,-13.54 -1.14,-4.03 -6.14,-0.52 2.56,-5.81 1.12,-9.35 4.25,-2.56 6.06,0.57 5.77,-2.07 5.92,-10.23 1.07,-4.49 2.52,26.92 3.03,10.82 4.65,9.37 -4.09,2.91 -5.67,0.11 -6.03,6.03 z"
       id="M40384"
       style="fill:#ffff80;fill-opacity:1;stroke:#000000;stroke-width:1.34678;stroke-dasharray:none;stroke-opacity:1" />
    <path
       d="m 414.1,366.61 -8.14,-6.67 -14.88,-2.13 -7.75,4.47 -3.79,-5.27 -2.64,-13.69 -6.98,-3.97 -3.43,-7.57 1.58,-2.54 -3.9,-5.27 -4.76,-0.29 -10.85,-16.91 0.98,-3.93 13.69,-0.9 4.87,8.21 14.78,2.08 10.5,-0.78 16.34,-3.74 4.15,-1.81 4.82,3.45 0.52,11.09 -1.12,9.35 -2.56,5.81 6.14,0.52 1.14,4.03 -4.8,13.54 1.76,6.9 -2.22,5.63 z"
       id="M40383"
       style="fill:#ffff80;fill-opacity:1;stroke:#000000;stroke-width:1.34678;stroke-dasharray:none;stroke-opacity:1" />
    <path
       d="m 471.35,348.48 -1.3,-2.42 -10.36,-3.82 0.79,5.83 -4.94,4.04 -3.06,-3.34 -4.65,-9.37 -3.03,-10.82 -2.52,-26.92 3.54,1.41 4.23,7 3.17,1.78 0.67,8.8 7.53,8.49 1.38,4.08 8.55,7.16 z"
       id="M40382"
       style="fill:#ffff80;fill-opacity:1;stroke:#000000;stroke-width:1.34678;stroke-dasharray:none;stroke-opacity:1" />
    <path
       d="m 439.94,278.1 3.3,5.38 -1.73,4.57 6.97,7.86 -2.66,7.16 -3.54,-1.41 -1.07,4.49 -5.92,10.23 -5.77,2.07 -6.06,-0.57 -4.25,2.56 -0.52,-11.09 -4.82,-3.45 10.98,-5.78 8.18,-7.36 -0.77,-10.2 z"
       id="M40381"
       style="fill:#ffff80;fill-opacity:1;stroke:#000000;stroke-width:1.34678;stroke-dasharray:none;stroke-opacity:1" />
    <path
       d="m 131.72,465.31 5.95,3.89 -3.38,5.9 -5.99,-7.19 z m 142.24,142.89 -3.95,0.19 -1.08,-6.42 -7.09,5.74 -8.78,4.15 -5.39,9.49 -13.16,-0.92 -4.14,2.85 4.96,6.06 2,14.23 4.69,11.58 -1.53,3.63 1.49,6.07 7.9,4.99 -2.33,7.1 0.12,10.68 -6.09,-0.59 -6.21,2.55 -2.18,-4.28 -8.19,-3.9 -5.35,1.37 -7.19,-9.79 -6.29,-0.17 -0.95,-4.28 -16.57,-9.65 -10.58,-1.31 -13.3,-12.75 -3.19,-0.39 -0.16,-13.11 5.29,-9.6 4.23,-0.34 4.31,-4.99 0.28,-5 -3.4,-5.98 0.92,-10.31 -3.36,-0.74 -12.05,-8.72 -0.59,-5.46 -5.61,1.12 -12.58,-3.06 -1.89,-6.27 3.06,-5.53 -2.33,-6.14 -12.85,-0.09 -5.14,-7.02 -1.16,-14.22 -2.89,-2.9 -0.68,-10.97 1.22,-4.86 -1.91,-5.58 -4.26,-3.76 1.63,-4.45 4.44,-1.23 1.83,-5.79 -1.98,-8.43 2.6,-3.18 7.92,6.78 6.53,3.18 4.29,5.59 -5.61,5.61 -2.88,8.32 3.42,4.97 1.39,7.7 10.27,4.31 10.73,0.74 2.79,-1.61 6.23,2.48 -2.99,11.33 -5.71,-5.52 -8.2,2.37 0.8,2.73 14.62,11.69 4.87,1.42 4.53,-1.86 4.25,2.52 7.78,-2.75 5.61,-3.75 1.19,-8.44 11.14,-0.48 11.92,3.07 8.71,-1.53 9.88,-6.92 5.29,1.99 3.07,7.11 5.23,-2.61 -5.9,-8.5 3.65,-1.89 3.16,6.2 5.21,-2.25 -4.22,-4.3 6.59,-15.58 -0.93,-4.61 2.26,-6.69 9.14,1.04 0.87,-4.58 -5.79,-1.05 -5.85,-3.5 14.23,-7.02 6.22,-1.37 -6.16,-10.6 4.34,-3.01 -0.94,-6.85 -8.31,0.32 -10.42,4.43 1.09,5.34 -4.59,3.08 -20.87,4.89 -5.61,5.7 -0.91,8.12 -6.19,0.08 -7.45,-2.92 -3.82,2.17 -6.17,-9 14.79,-1.45 4.8,-3.25 9.79,-2.86 13.63,-7.99 8.84,-7.04 11.53,-13 1.2,-8.1 8.72,3.59 7.4,7.81 4.59,0.88 5.07,15.25 6.18,-2.77 3.27,2.76 0.14,10.34 7.37,11.13 -0.37,4.2 7.91,-0.54 2.66,12.24 -5.89,6.59 -9.47,-8.67 -3.96,5.32 -8.57,4.9 -1.73,5.05 -7.3,5.15 0.92,5 11.68,8.16 12.69,15.96 -0.17,8.75 5.8,5.77 0.02,0.08 -5.44,6.38 -2.87,-0.54 -4.85,-8.01 -3.15,1.74 4.96,6.39 1.24,7.43 -1.51,5.16 -3.84,1.71 -7.79,-10.8 -8.69,4.92 2.34,8.06 -5,3.58 z m -91.73,-96.12 4.11,2.77 -0.14,4.27 4.19,5.78 0.2,5.82 -4.33,6.23 -6.83,-0.14 -1.92,-7.68 3.05,-7.54 -0.71,-7.41 z m -1.64,-42.54 7.27,9.04 4.12,10.43 0.1,3.66 -5.72,2.01 -6.43,-0.92 -6.13,-9.03 0.24,-11.4 z m 84.69,11.84 4.61,8.31 -7.41,5.76 -2.37,-2.59 -11.05,4.9 -2.71,-5.53 14.93,-10.89 z"
       fill-rule="evenodd"
       id="M40130"
       style="fill:#ffff80;fill-opacity:1;stroke:#000000;stroke-width:1.34678;stroke-dasharray:none;stroke-opacity:1" />
    <path
       d="m 395.6,700.17 4.86,6.16 0.98,7.31 5.41,4.47 14.16,3.99 -0.68,5.47 -3.22,4.94 8.45,-0.34 0.76,4.98 9.17,4.66 -11.24,-0.55 -13.37,8.32 -2.71,-7.78 1.37,-3.88 -16.55,-0.51 -18.82,0.34 -0.23,-4.81 5.14,-9.23 5.24,-15.41 3.78,-0.55 0.9,-5.68 z"
       id="M40503"
       style="fill:#ffff80;fill-opacity:1;stroke:#000000;stroke-width:1.34678;stroke-dasharray:none;stroke-opacity:1" />
    <path
       d="m 264.45,880.95 -0.76,-14.04 2.9,-7.54 -7.66,-3.47 7.46,0.62 1.64,-5.09 8.34,0.99 -1.51,-6.61 4.79,-0.24 -0.46,-5.86 11.38,6.08 0.37,5.84 3.6,4.78 -1.99,2.59 -1.91,11.72 -4.5,1.67 3.84,15.8 -7.66,0.72 -7.58,3.06 -0.43,-4.48 -4.3,-6.44 z"
       id="M40522"
       style="fill:#ffff80;fill-opacity:1;stroke:#000000;stroke-width:1.34678;stroke-dasharray:none;stroke-opacity:1" />
  </g>
</svg>
