<?xml version="1.0" encoding="UTF-8" standalone="no"?>
<svg
   version="1.2"
   width="662.1369"
   height="600"
   viewBox="0 0 662.1369 600"
   stroke-linecap="round"
   stroke-linejoin="round"
   id="svg7418"
   sodipodi:docname="hi.svg"
   inkscape:version="1.2 (dc2aedaf03, 2022-05-15)"
   xmlns:inkscape="http://www.inkscape.org/namespaces/inkscape"
   xmlns:sodipodi="http://sodipodi.sourceforge.net/DTD/sodipodi-0.dtd"
   xmlns="http://www.w3.org/2000/svg"
   xmlns:svg="http://www.w3.org/2000/svg">
  <defs
     id="defs7422" />
  <sodipodi:namedview
     id="namedview7420"
     pagecolor="#505050"
     bordercolor="#eeeeee"
     borderopacity="1"
     inkscape:showpageshadow="0"
     inkscape:pageopacity="0"
     inkscape:pagecheckerboard="0"
     inkscape:deskcolor="#505050"
     showgrid="false"
     inkscape:zoom="1.1117241"
     inkscape:cx="331.01737"
     inkscape:cy="300.43424"
     inkscape:window-width="1920"
     inkscape:window-height="1009"
     inkscape:window-x="-8"
     inkscape:window-y="-8"
     inkscape:window-maximized="1"
     inkscape:current-layer="svg7418" />
  <g
     id="hi"
     transform="matrix(0.82849239,0,0,0.82849239,-0.32853294,-0.32849479)"
     style="fill:#ffff80;fill-opacity:1;stroke:#000000;stroke-width:1.20701;stroke-dasharray:none;stroke-opacity:1">
    <path
       d="m 281.84,620.23 -0.16,8.21 6.69,-1.36 4.75,7.55 -8.25,3.48 -0.67,6.07 -4.94,-0.7 -5.36,5.4 5.16,6.8 10.46,-1.29 -1.39,13.97 -5.3,5.26 1.27,7.26 5.31,-4.74 6.34,0.19 7.56,-6.79 5.1,3.05 -7.46,4.98 -1.13,12.37 -6.52,9.87 -3.74,1.88 -2.18,-12.35 -6.27,-3.56 -5.6,5.36 -12.64,-5.49 -2.01,8.4 h -7.95 l -12.42,5.84 -3.04,-1.78 -5.27,-13.15 2.42,-5.17 11.43,-4.28 9.36,-8.45 8.65,-1.82 2.2,-7.32 -6.1,-2.03 -2.27,-10.43 5.48,-15.51 8.66,-4.81 4.87,-5.31 z m -1.29,85.27 2.8,4.13 -2.62,14.37 -8.05,-3.22 4.02,-4.43 z m 102.89,-85.97 2.58,2.49 9.86,0.33 3.47,2.42 8.22,0.63 -2.65,6.35 5.99,3.91 -3.25,6.17 -5.99,3.56 -5.54,-7.09 -12.62,-0.17 -2.13,-5.28 -4.86,1.24 -10.33,-2.28 2.07,-9.41 5.2,-5.08 6.47,-0.35 z m -22.52,-1.65 -0.83,5.05 5.33,5.4 -4.62,8.6 -4.58,2.89 -6.41,-3.66 -6.76,2.21 2.22,-9.15 4.5,-6.71 z m 61.16,-50.26 -16.37,-3.09 -1.36,3.95 10.54,15.4 -7.9,4.42 1.11,3.87 -15.33,-1.19 -7.2,1.05 -11.36,3.79 -6.06,8.06 -1.63,6.42 -3.46,2.29 -7.18,-5.6 -5.61,3.38 2.21,3.51 -13.1,3.92 -6.75,-5.39 -13.16,-6.13 1.69,-4.33 -5.38,-1.85 -4.79,10.6 -10.43,8.83 -8.79,4.23 -8.57,-0.94 3.19,-9.39 -6.95,-8.52 3.68,-4.4 5.78,0.07 5.7,-6.6 -16.52,-4.14 0.67,-5.14 -4.19,-4.4 -4.68,0.96 -0.11,-7.34 2.63,-9.71 -6.34,-10.03 6.42,-0.25 6.17,-5.12 3.53,-6.88 10.14,1.29 1.23,-6.81 4.52,-1.77 8.94,6.64 3.59,0.15 5.87,7.18 5.29,-8.02 12.81,3.63 5.57,-2.5 5.71,2.54 8.09,15.6 7.76,-6.79 7.22,-3.01 7.4,-7.09 5.98,3.52 6.94,-9.57 14.22,-7.56 2.29,8.99 -0.21,8.33 1.98,7.95 6.36,6.3 5.84,0.5 z m -5.67,82.79 -8.54,4.78 -0.99,-2.92 z m 41.86,-27.89 -1.37,2.12 12.1,11.11 -12.71,11.54 -15.8,5.97 -8.61,-2.69 1.92,-4.56 -1.52,-7.4 11.37,-9.92 z m -30.61,19.3 -7.32,4.75 -5.57,-0.16 -0.47,-10.39 5.61,-7.56 2.92,-0.88 7.22,8.64 z"
       fill-rule="evenodd"
       id="M34202"
       style="fill:#ffff80;fill-opacity:1;stroke:#000000;stroke-width:1.20701;stroke-dasharray:none;stroke-opacity:1" />
    <path
       d="m 504.31,562.54 4.1,2.82 -0.15,5.13 -5.17,17.34 -7.05,9.07 0.74,11.59 -13.96,3.06 -7.44,4.33 -13.51,-1.45 -7.87,-10.28 2.99,-14.27 5.64,2.83 4.27,-5.58 4.12,0.29 8.15,-9.34 6.75,9.26 2.78,-1.39 2.43,-9.95 10.15,-11.8 z m -8.88,-10.52 1.24,6.39 4.09,3.45 -5.6,3.59 -4.42,-5.04 0.08,-4.85 z"
       fill-rule="evenodd"
       id="M34431"
       style="fill:#ffff80;fill-opacity:1;stroke:#000000;stroke-width:1.20701;stroke-dasharray:none;stroke-opacity:1" />
    <path
       d="m 591.16,304.62 10.58,3.89 10.82,12.55 9.27,1.14 10.26,5.65 -0.14,16.03 -6.61,11.37 -6.49,2.65 3.88,7.91 -1.26,5.06 -7.84,12.64 -8.69,1.62 -4.9,3.74 -8.73,0.05 -3.48,-7.31 -10.41,-2.9 -2.61,-3.43 -8.62,-3.48 -10.18,8.46 -6.77,-1.36 -6.44,2.27 -11.67,-7.3 -4.53,-6.07 -5.54,1.65 -1.61,-6.04 -7.76,-1.35 -11.28,-8.07 -6.21,-0.51 -9.81,5.5 -1.33,-8.23 -3.68,-1.95 -6.07,-10.96 -2.98,-4.29 3.53,-9.25 -2.92,-2.21 0.24,-6.46 3.72,-2.25 -0.49,-9.73 10.16,-13.79 15.32,4.47 8.34,-3.2 1.21,12.49 7.3,6.26 7.51,-1.58 1.45,-5.22 7.32,-2.86 1.53,-5.48 18.68,-1.03 1.29,3.67 6.13,2.4 9.48,8.35 6.6,-0.99 1.1,4.68 z"
       id="M34462"
       style="fill:#ffff80;fill-opacity:1;stroke:#000000;stroke-width:1.20701;stroke-dasharray:none;stroke-opacity:1" />
    <path
       d="m 197.6,635.65 11.69,6.13 5.77,6.31 -1.9,5.42 -4.86,1.94 -9.99,-1.45 -2.36,-4.69 -0.84,-9.79 z m 52.7,-80.98 1.45,5.53 6.39,7.16 2.72,6.05 -3.37,14.13 1.78,10.7 -3.32,8.21 -0.08,12.02 -8.77,4.65 -1.21,8.58 4.46,5.54 5.82,13.55 -4.16,6.86 -11.48,6.47 -11.58,-0.61 -2.82,-4.83 4.55,-5.86 -0.72,-12.19 2.23,-9.98 -2.78,-7.48 -3.4,0.05 -1.68,10.73 -6.34,-0.81 -0.89,-11.31 -7.46,-4.88 -11.04,-13.36 0.39,-11.82 -2.63,-10.61 3.3,-2.57 16.93,1.96 14.17,23.96 7.68,-3.99 4.08,9.02 4.78,4.57 2.7,-16.22 -5.85,-9.56 -9.59,-5.79 -0.29,4.65 -8.85,0.53 -1.6,-4.28 5.83,-5.1 1.25,-5.33 -4.73,-3.62 -0.86,-7.1 14.03,-2 11.71,0.64 z"
       fill-rule="evenodd"
       id="M34215"
       style="fill:#ffff80;fill-opacity:1;stroke:#000000;stroke-width:1.20701;stroke-dasharray:none;stroke-opacity:1" />
    <path
       d="m 380.12,176.53 6.05,5.13 1.06,5.94 -5.92,3.98 -7.31,0.34 -2.48,6.09 4.76,2.51 5.06,-2.03 27.63,6.85 11.02,1.25 -1.96,8.73 -0.06,13.46 -3.72,2.61 -3.59,9.83 1.85,4.35 5.77,-1.02 3.57,7.23 -1.1,7.58 -5.33,5.12 -2.03,13.52 9.97,2.33 11,4.21 -0.81,6.03 -3.56,3.44 -1.03,5.68 -4.78,8.83 -4.02,2.9 0.48,8.19 8.14,7.52 0.55,5.55 -3.19,10.08 -4.59,6.58 0.46,9.49 -7.36,5.11 -9.86,0.85 -10.45,11.66 -6.57,2.01 -7.45,-0.11 -8.35,12.9 -5.18,-3.78 2.92,-3.35 -4.95,-13.14 6.08,-12.55 -0.66,-4.06 -7.76,-9.65 -8.04,-2.01 -6.11,5.05 -4.63,-1.71 -7.45,3.33 -10.62,-2.76 -2.79,3.35 -0.24,7 -6.76,0.48 -3.02,6.9 -7.13,7.66 -5.03,-5.84 -10.39,-3.91 -3.77,-3.66 9.33,-5.67 2.68,0.31 4.97,-7.31 -2.57,-7.1 4.4,-14.88 3.04,-2.43 4.98,-11.34 -4.64,-7.27 11.47,-13.64 -16.26,-8.29 2.91,-6.85 -1.66,-7.45 5.44,-10.62 -4.32,-5.81 -5.95,-1.86 0.5,-13.32 -11.01,-10.64 0.29,-3.46 -6.95,-6.87 9.01,-9.1 8.08,-1.68 6.6,-3.52 3.19,-4.88 19,-14.04 6.49,0.26 6.67,3.75 2.51,-1.66 6.89,5.3 4.32,0.04 4.35,-10.49 8.12,-1.85 2.45,4.62 z"
       id="M34214"
       style="fill:#ffff80;fill-opacity:1;stroke:#000000;stroke-width:1.20701;stroke-dasharray:none;stroke-opacity:1" />
    <path
       d="m 86.73,416.88 6.25,5 1.84,4.23 -3.71,4.85 -1.79,6.6 1.49,10.08 -9.89,7.17 7.21,5.1 -0.24,7.39 2.62,5.76 12.7,-0.32 6.06,-10.09 h 3.76 l 10.74,11.65 14.94,3.06 1.72,13.51 8.83,3.72 1.9,-5.68 -2.19,-10.02 6.65,-8.15 0.88,6.26 6.37,2.89 -1.99,5.83 1.6,12.04 10.54,9.04 2.63,6.67 1.74,2.11 2.76,3.14 -4.09,5.04 -6.17,2.55 -5.62,-4.38 -4.02,4.35 0.8,4.12 -13.48,19.15 -5.47,4.15 -2.97,7.82 -9.98,9.12 -2.66,-0.88 -5.66,6.21 -5.99,2.28 -5.56,-12.69 -5.39,-2.81 -1.34,-4.69 -11.32,1.85 -1.94,5.24 -14.45,-4.42 -2.69,-4.46 2.53,-7.21 1.49,-13.43 -2.84,-4.05 -9.39,0.44 -0.27,8.4 -5.92,-0.29 -5.58,3.07 -1.17,4.83 -0.83,-8.84 3.15,-5.61 -5.71,-2.43 -7.77,0.66 -2.38,-10.69 -8.62,-5.95 -8.22,-0.92 -0.51,-10.6 3.91,-12.45 -4.17,-1.88 2.59,-6.79 -3.19,-9.74 2.6,-2.23 1.95,-12.38 2.25,-3.98 -5.36,-10.04 -2.41,-9.37 -5.47,-9.97 1.29,-3.85 -4.24,-4.54 -8.86,-1.6 6,-7.65 3.15,-12.14 17.56,-4.95 9.14,-12 7.62,-5.13 6.63,-14.02 6.72,7.18 2.83,6.24 3.75,-0.96 3.92,10.72 6.28,5.5 9.66,1.81 -9.97,9.48 2.05,4.77 z m 81.42,127.44 3.44,8.98 4.96,4.21 -0.29,6.37 -3.97,5.06 -15.13,11.79 -5.65,8.82 -10.88,6.56 -6.77,0.91 -3.15,-11.27 9.2,-14.9 3.79,-10.36 6.54,-4.36 7.6,-1.24 z"
       fill-rule="evenodd"
       id="M34213"
       style="fill:#ffff80;fill-opacity:1;stroke:#000000;stroke-width:1.20701;stroke-dasharray:none;stroke-opacity:1" />
    <path
       d="m 433.76,564.69 2.95,3.76 -4.48,4.91 -6.56,-2.12 0.51,-3.34 z m -11.68,2.93 -2.36,-6.19 -5.84,-0.5 -6.36,-6.3 -1.98,-7.95 0.21,-8.33 -2.29,-8.99 -14.22,7.56 -6.94,9.57 -5.98,-3.52 -7.4,7.09 -7.22,3.01 -7.76,6.79 -8.09,-15.6 -5.71,-2.54 -5.57,2.5 -12.81,-3.63 -0.68,-3.62 4.26,-4.68 -2.78,-9.01 8.85,-8.21 1.98,0.71 8.59,-0.09 0.8,-5.75 5.3,-4.78 -2.41,-10.11 -5.04,-10.54 2.23,-9.57 4.4,-6.3 7.82,-3.59 -1.44,-6.72 -5,-4.09 -4,4.01 -6.62,-3.93 -1.4,-4.55 -10.01,2.4 -4.23,-6.84 -4.21,-0.68 4.91,-22.33 5.34,-0.34 5.42,-5.13 2.88,-5.96 6.17,1.2 6.5,-12.34 5.3,-5.58 10.6,3.23 5.01,-1.75 1.67,-4.4 8.35,-12.9 7.45,0.11 6.57,-2.01 10.45,-11.66 9.86,-0.85 7.36,-5.11 -0.46,-9.49 4.59,-6.58 3.19,-10.08 6.24,-0.67 14.51,11.12 h 5.88 l 7.52,-5 2.73,2.08 7.1,-2.37 6.07,10.96 3.68,1.95 1.33,8.23 -5.38,5.5 -4.13,0.28 2.93,10.64 -6.67,5.64 -11.96,4.06 2.94,13.99 6.36,2.91 10.34,1.12 4.69,7.78 -0.23,3.22 10.16,18.66 4.93,5.15 -2.78,6.55 -6.3,-1.34 -3.35,-3.81 -5.1,1.84 7,9.95 0.41,3.41 -5.12,5.73 1.84,4.38 -3.45,8.41 -4.93,6.52 -17.07,-5.6 -1.02,-3.09 -15.61,0.39 -5.24,-4.08 -3.98,2.74 -13.14,-0.05 3.28,7.53 12.97,4.25 2.65,7.58 -7.25,-0.26 -8.31,7.42 -1.93,4.06 5.5,3.97 8.17,-2.95 4.21,3.38 21.21,9.26 1.24,15.7 -1.93,3.55 -1.09,13.2 1.85,7.74 -4.38,-0.38 -6.77,-5.19 0.96,-4.84 -9.49,-3.55 -9.93,5.55 -8.26,15.48 z"
       fill-rule="evenodd"
       id="M34212"
       style="fill:#ffff80;fill-opacity:1;stroke:#000000;stroke-width:1.20701;stroke-dasharray:none;stroke-opacity:1" />
    <path
       d="m 51,548.03 1.17,-4.83 5.58,-3.07 5.92,0.29 0.27,-8.4 9.39,-0.44 2.84,4.05 -1.49,13.43 -2.53,7.21 2.69,4.46 14.45,4.42 1.94,-5.24 11.32,-1.85 1.34,4.69 5.39,2.81 5.56,12.69 -5.47,8.62 -1,9.02 6.48,5.64 4.83,8.24 -1.06,2.95 -13.12,1.55 -4.47,3.29 -7.31,-2.86 -4.49,0.51 4.98,-10.89 -18.05,-7.29 -7.63,2.99 -3.69,-5.36 -1.47,-8.95 -7.75,-14.94 3.45,-6.52 -0.86,-4.04 -5.48,-5.31 z m 96.31,72.47 8.52,0.55 4.38,5.81 -10.07,2.34 -5.18,-1.78 z"
       fill-rule="evenodd"
       id="M34211"
       style="fill:#ffff80;fill-opacity:1;stroke:#000000;stroke-width:1.20701;stroke-dasharray:none;stroke-opacity:1" />
    <path
       d="m 727.82,174.34 -8.26,3.69 -8.18,-0.11 -5.92,-4.07 -6.36,-0.1 -0.27,4.57 -4.04,11.24 -9.2,3.97 -5.79,7.66 -7.32,-7.21 2.77,-2.23 -5.87,-13.44 -8.26,-9.5 -6.43,6.02 -12.79,2.37 -7.53,-3.31 -3.23,5.77 -8.22,4.27 -0.04,6.64 -4.11,3.7 5.65,9.63 -2.06,4.04 -1.86,12.02 5.78,2.49 11.08,11.43 -1.26,7.76 -3.31,-1.84 -5.91,2.31 -7.71,-1.09 -8.94,10.43 -1.03,3.72 -7.19,0.13 -0.77,-4.69 3.05,-4.74 -1.12,-11 -7.18,-2.52 -15,-0.03 -6.17,8.51 -11.19,3.66 -2.55,-5.86 -8.77,-1.77 -0.15,-3.93 6.59,-5.57 -1.33,-7.91 -10.35,-4.91 -6.79,-8.73 -5.91,-1.53 -4.35,-8.88 -4.75,9.44 -5.6,6.26 -9.26,-7.55 -4.57,-1.62 -1.62,-4.46 -6.8,-4.78 -3.3,-4.78 -16.52,-15.46 1.14,-4.16 -2.32,-6.82 4.64,-4.34 0.89,-8.15 -8.41,-1.07 -1.77,-14 -5.33,-5.97 -7.75,-0.36 -3.25,-4.86 3.34,-2.56 -10.16,-20.22 -1.1,-11.08 4.1,-1.7 2.79,-10.09 -1.14,-6.21 -4.4,-0.44 -9.4,7.81 -2.23,3.93 -9.68,-0.63 -6.25,-4.73 -9.47,2.82 1.57,-4.38 10.16,-5.02 -0.47,-5.77 3.43,-4.42 8.84,-6.06 2.75,-8.23 13.62,-7.13 -5.68,-7.06 6.42,-6.41 3.74,-7.03 7,-5.61 1.65,-4.68 15.33,-6.82 4.95,1.11 6.82,12.27 9.63,3.51 3.93,-1.94 7.87,5.61 15.39,-5.1 4.19,-9.88 9.96,0.26 8.16,6.55 1.01,6.35 4.21,0.45 5.17,6.53 10.83,-1.36 4.29,-7.47 6.47,-0.78 7.81,2.78 6.09,-4.95 5.94,2.08 8.66,-1.11 2.47,4.88 4.27,0.44 4.42,7.89 10.82,-6.45 4.05,4.61 6.23,0.09 11.16,-3.6 8.73,-0.91 6.93,3.9 7.15,-7.45 7.79,2.62 3.95,8.09 3.66,2.31 -0.22,5.25 4.24,5.12 6.05,2.97 9.99,13.73 1.13,3.75 6.02,1.9 3.09,6.04 0.29,10.77 -6.12,9.12 -4.36,1.78 1.02,4.86 -4.29,6.14 6.85,13.01 -4.26,5.57 0.62,10.86 -4.04,6.22 1.25,10.05 6.41,10.49 8.22,6.64 z"
       id="M34210"
       style="fill:#ffff80;fill-opacity:1;stroke:#000000;stroke-width:1.20701;stroke-dasharray:none;stroke-opacity:1" />
    <path
       d="m 591.16,304.62 -13.33,7.2 -1.1,-4.68 -6.6,0.99 -9.48,-8.35 -6.13,-2.4 -1.29,-3.67 -18.68,1.03 -1.53,5.48 -7.32,2.86 -1.45,5.22 -7.51,1.58 -7.3,-6.26 -1.21,-12.49 -8.34,3.2 -15.32,-4.47 -10.16,13.79 0.49,9.73 -3.72,2.25 -0.24,6.46 2.92,2.21 -3.53,9.25 2.98,4.29 -7.1,2.37 -2.73,-2.08 -7.52,5 h -5.88 l -14.51,-11.12 -6.24,0.67 -0.55,-5.55 -8.14,-7.52 -0.48,-8.19 4.02,-2.9 4.78,-8.83 1.03,-5.68 3.56,-3.44 0.81,-6.03 -11,-4.21 -9.97,-2.33 2.03,-13.52 5.33,-5.12 1.1,-7.58 -3.57,-7.23 -5.77,1.02 -1.85,-4.35 3.59,-9.83 3.72,-2.61 0.06,-13.46 1.96,-8.73 -11.02,-1.25 -27.63,-6.85 -5.06,2.03 -4.76,-2.51 2.48,-6.09 7.31,-0.34 5.92,-3.98 -1.06,-5.94 -6.05,-5.13 -4.78,-20.56 -11.57,-3.08 -3.92,-6.9 -5.92,3.2 -7.18,-7.51 -7.8,1.46 7.75,-14.59 5.42,-2.33 3.51,-5.17 5,-1.35 5.15,-12.2 12.02,-2.96 7.83,4.72 4.1,-5.8 7.23,-3.15 5.16,0.54 3.5,-11.68 7.18,-4.58 -0.96,-4.97 9.47,-2.82 6.25,4.73 9.68,0.63 2.23,-3.93 9.4,-7.81 4.4,0.44 1.14,6.21 -2.79,10.09 -4.1,1.7 1.1,11.08 10.16,20.22 -3.34,2.56 3.25,4.86 7.75,0.36 5.33,5.97 1.77,14 8.41,1.07 -0.89,8.15 -4.64,4.34 2.32,6.82 -1.14,4.16 16.52,15.46 3.3,4.78 6.8,4.78 1.62,4.46 4.57,1.62 9.26,7.55 5.6,-6.26 4.75,-9.44 4.35,8.88 5.91,1.53 6.79,8.73 10.35,4.91 1.33,7.91 -6.59,5.57 0.15,3.93 8.77,1.77 2.55,5.86 11.19,-3.66 6.17,-8.51 15,0.03 7.18,2.52 1.12,11 -3.05,4.74 0.77,4.69 -3.94,10.52 2.17,5.73 -2.95,5.12 2.73,7.05 -8.79,11.69 z"
       id="M34209"
       style="fill:#ffff80;fill-opacity:1;stroke:#000000;stroke-width:1.20701;stroke-dasharray:none;stroke-opacity:1" />
    <path
       d="m 622.73,365.81 -3.88,-7.91 6.49,-2.65 6.61,-11.37 0.14,-16.03 -10.26,-5.65 -9.27,-1.14 -10.82,-12.55 -10.58,-3.89 0.07,-9.21 8.79,-11.69 -2.73,-7.05 2.95,-5.12 -2.17,-5.73 3.94,-10.52 7.19,-0.13 1.03,-3.72 8.94,-10.43 7.71,1.09 5.91,-2.31 3.31,1.84 0.21,9.71 -3.37,8.08 2.32,5.65 16,9.8 4.64,7.97 -7.64,6.56 -2.5,8.15 5.08,0.84 -2.27,6.58 10.17,5.06 3.93,4.49 9.65,0.04 3.21,4.5 -3.48,6.9 3.51,4.92 -2,6.77 3.78,10.19 4.47,3.09 10.8,12.88 -1.97,6.01 4.03,7.64 -3.78,5.42 -6.9,1.56 -2.57,5.02 -6.43,6.39 -7.65,-1.78 -1.22,-3.14 -10.85,-2.43 -12.8,-0.55 -0.66,-4.42 -5.8,-2.92 -2.51,-6.96 z"
       id="M34208"
       style="fill:#ffff80;fill-opacity:1;stroke:#000000;stroke-width:1.20701;stroke-dasharray:none;stroke-opacity:1" />
    <path
       d="m 704.68,512.76 -1.47,13.42 -9.18,2.78 -2.88,-9.37 10.65,-6.56 z m 17.52,-10.26 2.73,7.66 5.52,-4.85 5.04,-0.78 -4.27,9.94 -7.7,0.96 -10.85,7.67 -3.29,-1.59 -4.08,-7.66 7.19,-8.13 z m -54.86,-108.42 7.65,1.78 6.43,-6.39 2.57,-5.02 6.9,-1.56 3.78,-5.42 -4.03,-7.64 1.97,-6.01 -10.8,-12.88 -4.47,-3.09 -3.78,-10.19 2,-6.77 -3.51,-4.92 3.48,-6.9 6.01,-3.9 7.19,-1.08 3.18,-9.88 6.19,-1.89 5.41,1.74 3.49,4.47 -1.29,6.13 8.46,2.52 2.56,4.35 5.24,-1.52 0.6,-8.5 7.94,-6.23 3.43,-5.24 -0.75,-7.01 7.89,-3.06 2.41,-3.83 6.28,-0.42 -0.67,-6.8 -3.61,-5.45 5.79,-2.46 2.02,11.26 6.88,6.82 -0.52,5.36 8.96,2.39 0.77,4.77 -8.04,16.15 1.93,8.41 -3.91,3.94 -0.11,5.88 6.24,7.79 0.64,7.15 4.93,3.82 9.78,2.56 2.01,11.2 4.69,2.3 6.16,6.37 2.04,12.17 2.4,5.76 -3.74,7.35 3.43,8.64 1.16,8.07 -7.09,10.49 1.7,5.14 -0.4,17.36 -1.37,0.94 -15.87,-9.63 -3.54,1.38 15.16,9.73 3.01,4.58 -5.17,8.29 -10.28,-8.3 -3.01,5.29 -6.34,1.04 -6.17,4.45 -2.78,19.61 2.29,5.08 -9.98,10.38 -8.57,2.02 -2.54,-6.69 -6.85,-3.53 -11.36,0.04 -5.04,-4.48 -7.45,3.27 -4.02,-3.55 6.33,-7.17 -4.17,-9.15 -9.12,-1.12 -1.45,-13.06 -7.27,-2.22 -8.61,0.05 1.38,8.51 -4.16,-16.15 1.61,-5.39 -6.03,-0.3 -7.26,-5.29 -3.22,-4.92 3.91,-3.6 5.95,-0.67 -0.46,-4.61 4.45,-6.07 -1.34,-3.34 3.65,-9.26 -6.44,-2.43 -7.87,3.75 -1.42,-6.59 z m 121.1,123.06 6.79,7.82 -1.33,2.61 -8.99,-2.26 -1.5,-3.66 z"
       fill-rule="evenodd"
       id="M34207"
       style="fill:#ffff80;fill-opacity:1;stroke:#000000;stroke-width:1.20701;stroke-dasharray:none;stroke-opacity:1" />
    <path
       d="m 618.06,540.52 4.05,1.47 4.6,9.23 -1.5,9.3 -11.96,5.94 -6.35,4.47 -0.81,3.84 -5.94,3.96 -10.91,3.17 -8.48,-6.97 3.53,-13.73 8.68,-18.04 3.89,4.01 12.33,-2.31 z m -30.64,-11.17 4.46,13.59 -3.01,6.65 -7.06,0.6 -4.12,-8.2 2.43,-7.63 z m 3.89,-140.43 8.73,-0.05 4.9,-3.74 8.69,-1.62 7.84,-12.64 1.26,-5.06 10.77,7.85 2.51,6.96 5.8,2.92 0.66,4.42 12.8,0.55 10.85,2.43 1.22,3.14 -5.55,8.97 1.42,6.59 7.87,-3.75 6.44,2.43 -3.65,9.26 1.34,3.34 -4.45,6.07 0.46,4.61 -5.95,0.67 -3.91,3.6 3.22,4.92 7.26,5.29 6.03,0.3 -1.61,5.39 4.16,16.15 -3.56,1.43 -3.19,6.61 -6.82,1.75 -6.15,-1.08 -12.15,6.54 -10.79,3.3 -8.36,1.02 4.85,-5.51 -13.87,-7.15 2.79,-5.66 5.8,-4.36 1.73,-6.3 -3.23,-5.41 -9.1,-1.67 -0.35,-5.5 -4.42,-1.98 -2.71,-8.23 -3.65,-0.15 1.25,-10.2 -5.26,-6.49 -4.73,-1.22 -1.79,4.87 -7.43,3.4 -4.4,-0.87 -2.16,-5.55 -5.9,2.42 -5.14,-6.12 0.82,-4.94 8.97,-11.01 6.41,-3.97 z m 37.71,123.25 11.37,0.54 1.8,9.46 12.11,9.17 6.96,7.93 0.2,3.23 -6.86,4.2 -2.98,5.34 6.47,5.7 -4.85,3.76 1.76,4.44 -4.44,3.08 -6.12,-3.89 -3.7,-7.95 -10.16,-4.61 -8.25,-18.47 -3.81,-1.79 1.9,-10.06 5.83,-3.82 z m 5.19,-22.5 5.53,7.35 0.23,4.61 -9.34,-0.28 -1.58,-7.9 z m 30.17,-11.7 10.8,1.41 0.95,10.38 -8.79,6.03 -4.91,13.13 -13.06,4.22 -7.23,-9.46 -3.67,-11.09 4.28,-5.8 6.95,-0.7 5.82,-5.39 z m 25.31,16.84 6.74,3.77 2.13,5.73 -7.22,3.1 -3.68,-9.08 z m 13.35,-2.16 -0.18,0.35 -4.62,-5.54 -7.6,0.09 -4.15,3.9 -6.11,-1.51 0.41,-4.82 15.08,-5.76 0.5,-4.72 9.12,1.12 4.17,9.15 -6.33,7.17 z"
       fill-rule="evenodd"
       id="M34205"
       style="fill:#ffff80;fill-opacity:1;stroke:#000000;stroke-width:1.20701;stroke-dasharray:none;stroke-opacity:1" />
    <path
       d="m 606,511 5.75,4.72 2.29,10.62 -6.03,12.46 -3.23,1.46 -6.11,-7.39 -0.15,-7.22 3.12,-5.83 0.04,-6.82 z m -121.61,-152.02 9.81,-5.5 6.21,0.51 11.28,8.07 7.76,1.35 1.61,6.04 5.54,-1.65 4.53,6.07 11.67,7.3 6.44,-2.27 6.77,1.36 10.18,-8.46 8.62,3.48 2.61,3.43 10.41,2.9 3.48,7.31 -3.43,6.97 -6.41,3.97 -8.97,11.01 -0.82,4.94 5.14,6.12 5.9,-2.42 2.16,5.55 4.4,0.87 7.43,-3.4 1.79,-4.87 4.73,1.22 5.26,6.49 -1.25,10.2 3.65,0.15 2.71,8.23 4.42,1.98 0.35,5.5 9.1,1.67 3.23,5.41 -1.73,6.3 -5.8,4.36 -2.79,5.66 13.87,7.15 -4.85,5.51 -14.81,8.26 -5.73,-0.38 -5.85,-4.16 -7.81,0.18 -5.24,15.95 -1.41,11.03 -4.35,4.22 -7.68,-1.36 -4.58,1.95 -6.44,7.23 -5.52,-0.74 -11.12,2.46 -0.46,-10.2 -4.15,-3.64 -9.6,1.84 -13.83,-6.8 -5.91,3.23 -5.65,-3.69 0.15,-11 -4.79,-5.71 -10.64,-6.71 -4.63,-4.75 1.93,-4.56 -2.37,-16.26 -3.94,0.76 -1.84,-4.38 5.12,-5.73 -0.41,-3.41 -7,-9.95 5.1,-1.84 3.35,3.81 6.3,1.34 2.78,-6.55 -4.93,-5.15 -10.16,-18.66 0.23,-3.22 -4.69,-7.78 -10.34,-1.12 -6.36,-2.91 -2.94,-13.99 11.96,-4.06 6.67,-5.64 -2.93,-10.64 4.13,-0.28 z"
       fill-rule="evenodd"
       id="M34204"
       style="fill:#ffff80;fill-opacity:1;stroke:#000000;stroke-width:1.20701;stroke-dasharray:none;stroke-opacity:1" />
    <path
       d="m 461.1,554.31 -1.85,-7.74 1.09,-13.2 1.93,-3.55 -1.24,-15.7 -21.21,-9.26 -4.21,-3.38 -8.17,2.95 -5.5,-3.97 1.93,-4.06 8.31,-7.42 7.25,0.26 -2.65,-7.58 -12.97,-4.25 -3.28,-7.53 13.14,0.05 3.98,-2.74 5.24,4.08 15.61,-0.39 1.02,3.09 17.07,5.6 4.93,-6.52 3.45,-8.41 3.94,-0.76 2.37,16.26 -1.93,4.56 4.63,4.75 10.64,6.71 4.79,5.71 -0.15,11 5.65,3.69 5.91,-3.23 13.83,6.8 9.6,-1.84 4.15,3.64 0.46,10.2 -9.09,-5.69 -6.39,4.28 -10.39,-3.92 -11.16,0.54 -7.89,6.69 -10.99,-1.01 -9.91,0.9 -5.43,7.4 -8.47,2.63 -3.77,9.57 z"
       id="M34203"
       style="fill:#ffff80;fill-opacity:1;stroke:#000000;stroke-width:1.20701;stroke-dasharray:none;stroke-opacity:1" />
    <path
       d="m 283.09,214.1 6.95,6.87 -0.29,3.46 11.01,10.64 -0.5,13.32 5.95,1.86 4.32,5.81 -5.44,10.62 1.66,7.45 -2.91,6.85 16.26,8.29 -11.47,13.64 4.64,7.27 -4.98,11.34 -3.04,2.43 -4.4,14.88 2.57,7.1 -4.97,7.31 -2.68,-0.31 -9.33,5.67 -3.09,0.29 -7.69,-15.81 -3.07,-0.41 -4.26,7.2 -7.67,-1.72 -10.02,-8.74 -8.96,-1.43 -4.37,7.24 -9.96,7.68 -7.36,-7.63 -5.94,2.76 -5.97,-2.2 -1.79,-6.09 -5.62,1.47 -13.49,-3.32 -6.09,-3.4 1.73,-10.3 -5.25,-5.73 1.99,-2.98 -5.07,-6.47 5.62,-5.39 2.19,-7.1 -3.88,-10.44 2.44,-2.75 -6.35,-5.23 -2.53,-5.05 -7.32,-4.27 -4.94,4.36 -8.29,20.58 -7.56,-3.9 -14.83,14.3 -8.17,-5.73 -1.6,-4.86 -11.94,-0.93 -5.64,11.14 -5.46,0.86 -4.36,-7.11 -5.2,-0.44 -1.85,7.95 -4.28,4.54 -1.34,6.58 -7.64,3 -7.02,0.58 -5.14,-9.31 8.51,-15.56 3.18,-7.61 -2.01,-3.15 -8.6,0.77 -7.1,-5.77 0.49,-4.2 6.21,-2.65 0.89,-4.1 15.84,-9.35 3.71,-4.73 3.84,1.94 6.66,-3.27 3.85,-7.02 3.67,2.71 7.09,-3.31 2.41,-10.18 9.04,-13.1 -0.04,-15.72 9.47,-0.09 10.65,6.37 0.56,9 10.74,5.04 4.06,-11.18 5.59,-5.53 5.1,6.07 5.01,1.72 7.31,-2.33 3.12,-3.16 11.66,-2.17 5.61,4.41 -0.93,6.13 9.69,1.71 8.92,-9.47 5.75,-1.31 -2,-8.69 4.93,-1.67 3.77,-4.61 4.81,5.23 11.59,7.98 9.98,3.08 6.46,-2.93 5.69,3.71 8.64,-5.22 z"
       id="M34369"
       style="fill:#ffff80;fill-opacity:1;stroke:#000000;stroke-width:1.20701;stroke-dasharray:none;stroke-opacity:1" />
    <path
       d="m 86.73,416.88 -10.39,-13.2 -2.05,-4.77 9.97,-9.48 -9.66,-1.81 -6.28,-5.5 -3.92,-10.72 -3.75,0.96 -2.83,-6.24 -6.72,-7.18 2.33,-8.42 -5.08,-3.52 -2.01,-7.44 7.76,-15.11 -2.31,-3.83 7.61,-10.23 5.14,9.31 7.02,-0.58 7.64,-3 1.34,-6.58 4.28,-4.54 1.85,-7.95 5.2,0.44 4.36,7.11 5.46,-0.86 5.64,-11.14 11.94,0.93 1.6,4.86 8.17,5.73 14.83,-14.3 7.56,3.9 8.29,-20.58 4.94,-4.36 7.32,4.27 2.53,5.05 6.35,5.23 -2.44,2.75 3.88,10.44 -2.19,7.1 -5.62,5.39 5.07,6.47 -1.99,2.98 5.25,5.73 -1.73,10.3 6.09,3.4 13.49,3.32 5.62,-1.47 1.79,6.09 -2.6,-1.05 -5.57,8.37 -1.61,5.82 1.91,8.22 -0.51,6.06 -8.44,9.67 -3.99,2.08 -8.49,-6.52 -5.51,1.82 -6.6,-2.3 -14.66,3.09 -14.64,5.76 -16.72,8.61 -5.43,8.67 -0.32,6.46 -13.47,-4.59 -5.25,3.03 -0.99,7.07 z"
       id="M34368"
       style="fill:#ffff80;fill-opacity:1;stroke:#000000;stroke-width:1.20701;stroke-dasharray:none;stroke-opacity:1" />
    <path
       d="m 636.1,241.64 1.26,-7.76 -11.08,-11.43 -5.78,-2.49 1.86,-12.02 2.06,-4.04 -5.65,-9.63 4.11,-3.7 0.04,-6.64 8.22,-4.27 3.23,-5.77 7.53,3.31 12.79,-2.37 6.43,-6.02 8.26,9.5 5.87,13.44 -2.77,2.23 7.32,7.21 5.79,-7.66 9.2,-3.97 4.04,-11.24 0.27,-4.57 6.36,0.1 5.92,4.07 8.18,0.11 8.26,-3.69 2.09,8.43 5.42,7.17 6.05,-0.25 3.32,7.53 5.07,0.44 5.73,7.29 -0.28,7.72 -4.38,5 1.45,6.68 -4.34,8.83 2.64,15.77 -4.77,6.53 0.33,5.06 4.31,2.45 0.82,8.02 -5.79,2.46 3.61,5.45 0.67,6.8 -6.28,0.42 -2.41,3.83 -7.89,3.06 0.75,7.01 -3.43,5.24 -7.94,6.23 -0.6,8.5 -5.24,1.52 -2.56,-4.35 -8.46,-2.52 1.29,-6.13 -3.49,-4.47 -5.41,-1.74 -6.19,1.89 -3.18,9.88 -7.19,1.08 -6.01,3.9 -3.21,-4.5 -9.65,-0.04 -3.93,-4.49 -10.17,-5.06 2.27,-6.58 -5.08,-0.84 2.5,-8.15 7.64,-6.56 -4.64,-7.97 -16,-9.8 -2.32,-5.65 3.37,-8.08 z"
       id="M34545"
       style="fill:#ffff80;fill-opacity:1;stroke:#000000;stroke-width:1.20701;stroke-dasharray:none;stroke-opacity:1" />
    <path
       d="m 282.18,541.93 -3.53,6.88 -6.17,5.12 -6.42,0.25 -7.57,-13.27 6,-12.13 -3.38,-2.56 -1.47,-7.03 6.36,-0.49 1.49,-3.18 4.98,-2.06 2.11,10.01 4.03,5.57 z"
       id="M34309"
       style="fill:#ffff80;fill-opacity:1;stroke:#000000;stroke-width:1.20701;stroke-dasharray:none;stroke-opacity:1" />
    <path
       d="m 321.76,540.59 -5.29,8.02 -5.87,-7.18 -3.59,-0.15 -8.94,-6.64 -4.52,1.77 -2.77,-5.93 1.48,-8.55 3.96,0.36 8.03,-9.73 1.72,-11.31 1.38,-4.27 11.31,0.34 12.14,4.85 4.78,7.87 -2.19,5.74 -1.98,-0.71 -8.85,8.21 2.78,9.01 -4.26,4.68 z"
       id="M34307"
       style="fill:#ffff80;fill-opacity:1;stroke:#000000;stroke-width:1.20701;stroke-dasharray:none;stroke-opacity:1" />
    <path
       d="m 305.97,501.25 -1.72,11.31 -8.03,9.73 -3.96,-0.36 -3.06,-8.64 -11.69,-2.26 -5.04,2.43 -0.12,-0.86 -0.4,-2.67 5.15,-4.59 2.05,-5.15 8.5,-6.82 11.67,3 -0.48,3.8 z"
       id="M34304"
       style="fill:#ffff80;fill-opacity:1;stroke:#000000;stroke-width:1.20701;stroke-dasharray:none;stroke-opacity:1" />
    <path
       d="m 286.44,358.6 3.77,3.66 10.39,3.91 5.03,5.84 7.13,-7.66 3.02,-6.9 6.76,-0.48 0.24,-7 2.79,-3.35 10.62,2.76 7.45,-3.33 4.63,1.71 6.11,-5.05 8.04,2.01 7.76,9.65 0.66,4.06 -6.08,12.55 4.95,13.14 -2.92,3.35 5.18,3.78 -1.67,4.4 -5.01,1.75 -10.6,-3.23 -5.3,5.58 -6.5,12.34 -6.17,-1.2 -2.88,5.96 -5.42,5.13 -5.34,0.34 -4.91,22.33 4.21,0.68 4.23,6.84 10.01,-2.4 1.4,4.55 6.62,3.93 4,-4.01 5,4.09 1.44,6.72 -7.82,3.59 -4.4,6.3 -2.23,9.57 5.04,10.54 2.41,10.11 -5.3,4.78 -0.8,5.75 -8.59,0.09 2.19,-5.74 -4.78,-7.87 -12.14,-4.85 -11.31,-0.34 -1.38,4.27 -7.13,-1.08 0.48,-3.8 -11.67,-3 -8.5,6.82 -2.05,5.15 -5.15,4.59 -6.8,4.1 -7.98,1.53 -7.57,-2.21 -5.27,2.59 -9.36,0.08 -1.5,8.15 -6.67,-3.26 -2.69,-5.35 -8.11,-4.46 -3.12,1.92 -8.84,-3.96 -12.35,1.81 0.74,5.45 -6.82,3.33 -2.48,-5.62 -7.48,-0.56 -2.63,-6.67 -10.54,-9.04 -1.6,-12.04 1.99,-5.83 -6.37,-2.89 -0.88,-6.26 -6.65,8.15 2.19,10.02 -1.9,5.68 -8.83,-3.72 -1.72,-13.51 -14.94,-3.06 -10.74,-11.65 h -3.76 l -6.06,10.09 -12.7,0.32 -2.62,-5.76 0.24,-7.39 -7.21,-5.1 9.89,-7.17 -1.49,-10.08 1.79,-6.6 3.71,-4.85 -1.84,-4.23 -6.25,-5 8.46,-0.78 0.99,-7.07 5.25,-3.03 13.47,4.59 0.32,-6.46 5.43,-8.67 16.72,-8.61 14.64,-5.76 14.66,-3.09 6.6,2.3 5.51,-1.82 8.49,6.52 3.99,-2.08 8.44,-9.67 0.51,-6.06 -1.91,-8.22 1.61,-5.82 5.57,-8.37 2.6,1.05 5.97,2.2 5.94,-2.76 7.36,7.63 9.96,-7.68 4.37,-7.24 8.96,1.43 10.02,8.74 7.67,1.72 4.26,-7.2 3.07,0.41 7.69,15.81 z m -25.19,133.02 1.23,8.58 7.59,-1.36 7.56,-10.54 6.38,-15.46 -4.78,-3.62 -7.85,5.43 -1.63,4.67 -5.73,1.58 -3.23,5.26 z m -32.75,42.76 2.56,5.47 -1.86,10.51 -5.84,2.92 -4.4,-3.23 5.43,-8.1 -0.64,-3.67 z m 65.05,2.03 -1.23,6.81 -10.14,-1.29 -3.57,-12.89 -4.03,-5.57 -2.11,-10.01 5.04,-2.43 11.69,2.26 3.06,8.64 -1.48,8.55 z m -21.08,-22.95 -4.98,2.06 4.86,-2.92 z"
       fill-rule="evenodd"
       id="M34100"
       style="fill:#ffff80;fill-opacity:1;stroke:#000000;stroke-width:1.20701;stroke-dasharray:none;stroke-opacity:1" />
    <path
       d="m 261.25,491.62 -0.46,-5.46 3.23,-5.26 5.73,-1.58 1.63,-4.67 7.85,-5.43 4.78,3.62 -6.38,15.46 -7.56,10.54 -7.59,1.36 z"
       id="M34302"
       style="fill:#ffff80;fill-opacity:1;stroke:#000000;stroke-width:1.20701;stroke-dasharray:none;stroke-opacity:1" />
  </g>
</svg>
