<?xml version="1.0" encoding="UTF-8" standalone="no"?>
<svg
   version="1.2"
   width="392.8049"
   height="600"
   viewBox="0 0 392.8049 600"
   stroke-linecap="round"
   stroke-linejoin="round"
   id="svg6525"
   sodipodi:docname="hy.svg"
   inkscape:version="1.2 (dc2aedaf03, 2022-05-15)"
   xmlns:inkscape="http://www.inkscape.org/namespaces/inkscape"
   xmlns:sodipodi="http://sodipodi.sourceforge.net/DTD/sodipodi-0.dtd"
   xmlns="http://www.w3.org/2000/svg"
   xmlns:svg="http://www.w3.org/2000/svg">
  <defs
     id="defs6529" />
  <sodipodi:namedview
     id="namedview6527"
     pagecolor="#505050"
     bordercolor="#eeeeee"
     borderopacity="1"
     inkscape:showpageshadow="0"
     inkscape:pageopacity="0"
     inkscape:pagecheckerboard="0"
     inkscape:deskcolor="#505050"
     showgrid="false"
     inkscape:zoom="0.65957447"
     inkscape:cx="197.09677"
     inkscape:cy="300.19355"
     inkscape:window-width="1920"
     inkscape:window-height="1009"
     inkscape:window-x="-8"
     inkscape:window-y="-8"
     inkscape:window-maximized="1"
     inkscape:current-layer="svg6525" />
  <g
     id="hy"
     transform="matrix(0.49098361,0,0,0.49098361,0.00899805,0.00900161)"
     style="fill:#ffff80;fill-opacity:1;stroke:#000000;stroke-width:2.03673;stroke-dasharray:none;stroke-opacity:1">
    <path
       d="m 506.65,831.41 2.37,-11.43 -17.19,-1.34 -12.97,0.32 -4.38,-10.33 0.88,-4.84 -4.1,-6.5 -0.15,-20.95 -14.59,-0.79 -8.09,10.84 -7.71,-7.76 -4.31,-10.06 3.86,-3.85 19.98,-5.22 11.83,-16.02 -3.34,-8.46 7.38,0.16 11.64,-8.99 23.45,7.92 14.48,-5.96 8.87,6.26 10.11,-5.82 4.25,-5.94 7.91,-0.19 -0.37,-8.93 -5.55,-3.11 -7.09,-9.77 6.63,-14.93 4.91,-6.49 5.67,-1.79 3.31,-7.26 6.17,-1.64 4.86,6.47 11.55,2.47 10.07,-7.25 1.95,-6.18 -2.18,-24.93 8.24,-5.67 9.86,0.45 12.42,10.15 5.74,-1.91 12.41,4.68 8.77,-4.67 4.1,0.42 9.84,-5.62 11.47,-0.76 4.23,12.06 4.66,7.62 -9.03,11.06 -9.66,-0.64 -3.25,5.11 -10.98,-4.92 -7.15,2.26 -2.33,16.64 2.34,9.62 8.88,7.08 2.62,-3.41 12.67,5.1 0.76,8.06 -2.26,8.72 3.24,9.14 5.43,8.85 -0.32,5.38 15.4,26.43 -6.07,-0.29 -5.79,4.34 1.63,8.1 -35.05,4.38 2.22,4.23 -13.31,2.62 -7.06,4.61 -11.34,2.31 -0.63,7.3 -6.33,7.97 2.26,10.39 -23.58,3.03 -7.04,3.52 -9.29,-0.83 -31.95,11.28 -19.12,2.87 z m 146.57,7.87 -20.61,2.57 2.8,-7.92 14.66,-1.39 z m -9.92,-35.78 4.25,3.56 8.74,18.18 -18.48,0.59 -9.78,-7.36 -0.6,-11.57 12.26,-7.35 z m 38.11,-15.65 3.34,0.53 1.55,12.03 -23.83,3.17 -1.49,-12.49 7.92,-3.6 z m 14,-6.91 -7.04,1.12 0.15,-10.52 6.23,0.59 z"
       fill-rule="evenodd"
       id="M28100"
       style="fill:#ffff80;fill-opacity:1;stroke:#000000;stroke-width:2.03673;stroke-dasharray:none;stroke-opacity:1" />
    <path
       d="m 148.81,196.95 -9.66,-6.31 -6.92,0.28 -8.36,-6.1 -3.57,-20.84 2.44,-3.76 -6.92,-18.09 2.27,-4.79 -11.74,-12.29 5,-8.91 2.9,-19.06 -2.36,-8.84 -7.63,0.01 -3.22,-6.35 2.1,-13.5 -4.37,-6.26 -9.49,-7.07 -3.73,0.31 -7.37,-5.9 11.2,-2.55 5.2,-4.86 4.83,2.51 14.76,-4 5.96,0.45 0.57,-10.02 12.05,3.51 6.42,-8.93 6.02,0.99 11.93,-11.62 10.33,-6.77 4.55,2.64 3.22,-6.59 7.06,11.13 -3.5,12.02 8.01,10.55 8.97,-0.86 6.01,4.23 9.29,1.44 5.18,18.03 4.73,3.21 -1.74,12.54 -9.71,7.43 -12.33,3.33 -4.98,6.2 -0.04,17.43 4.26,9.9 -0.14,9.87 -13.38,4.61 -7.66,-2.29 -16.45,17.31 -4.89,15.45 3.03,4.26 0.75,11.03 -3.76,12.92 z"
       id="M28586"
       style="fill:#ffff80;fill-opacity:1;stroke:#000000;stroke-width:2.03673;stroke-dasharray:none;stroke-opacity:1" />
    <path
       d="m 148.81,196.95 5.12,-2.97 3.76,-12.92 -0.75,-11.03 -3.03,-4.26 4.89,-15.45 16.45,-17.31 7.66,2.29 13.38,-4.61 0.14,-9.87 -4.26,-9.9 0.04,-17.43 4.98,-6.2 12.33,-3.33 9.71,-7.43 1.74,-12.54 -4.73,-3.21 -5.18,-18.03 -9.29,-1.44 -6.01,-4.23 -8.97,0.86 -8.01,-10.55 3.5,-12.02 -7.06,-11.13 8.05,0.37 6.26,-3.61 7.75,9.71 8.4,2.37 14.43,-2.93 5.06,3.08 5.19,-2.33 9.07,14.3 9.96,-1.3 0.16,-6.31 7.67,-0.08 3.8,-8.23 11.18,-5.51 1.86,3.41 19.69,7.03 8.35,-3.05 1.45,-6.32 8.94,-1.23 5.44,6.95 -1.57,4.92 -6.36,6.05 -5.25,8.29 2.14,12.42 -4.5,7.36 0.27,7.95 -8.62,10.67 -6,10.1 -17.25,2.57 -5.35,5.82 -1.85,11.89 -7.17,6.71 -2.02,12.09 -8.6,3.7 -4.42,-1.16 0.68,17.82 12.01,6.29 4.92,13.11 -5.69,9.85 -3.02,15.48 3.4,11.84 5.68,3.44 3.09,6.46 -6.61,10.35 -6.61,-2.46 -7.36,2.89 -11.38,15.01 -9.54,-1.2 -6.68,-4.43 -7.04,2.64 -6.87,-1.03 -9.15,3.1 -8.09,-4.08 -14.18,12.51 -3.26,10.55 -10.78,-2.61 -7.81,-4.48 -2.22,-4.31 6.64,-24.71 -3.13,-3.3 z"
       id="M28585"
       style="fill:#ffff80;fill-opacity:1;stroke:#000000;stroke-width:2.03673;stroke-dasharray:none;stroke-opacity:1" />
    <path
       d="m 770.89,597.38 -7.53,4.67 2.32,5.55 -9.14,12.42 -10.55,11.89 1.89,10.92 -9,4 -6.11,7.03 -6.81,-0.32 -7.41,-9.23 -1.22,-9.48 -5.06,-8.59 5.89,-4 2.23,-6.69 -5.4,-4.26 -4.88,-19.85 -3.73,-2.22 -4.25,-12.59 -6.05,-2.22 -4.86,-9.64 2.47,-6.45 5.73,-1.83 -7.92,-10.02 -7.97,-0.32 0.95,-11.4 4.43,-1.65 8.69,3.05 9.15,-3.48 0.9,-8.56 11.23,-0.94 9.86,1.03 0.69,6.53 -2.11,21.09 4.6,6.35 -4.81,2.41 -4.75,10.23 12.47,8.56 h 11.87 l 3.49,7.76 18.9,4.69 z"
       id="M28301"
       style="fill:#ffff80;fill-opacity:1;stroke:#000000;stroke-width:2.03673;stroke-dasharray:none;stroke-opacity:1" />
    <path
       d="m 103.43,424.63 4.85,7.47 -3.18,5.65 1.01,6.52 5.05,3.19 5.37,-1.63 11.33,14.67 -5.27,6.35 2.55,4.59 -4.45,14.5 3.21,18.58 -2.7,7.8 9.29,4.55 10.48,-2.16 7.31,6.1 6.66,12.65 -1.24,4.73 -7.39,15.61 1.51,7.29 -5.76,1.32 -3.08,6.94 -8.73,-1.07 -11.23,7.83 -3.71,8.05 1.89,3.96 -9.84,5.95 -18.24,0.72 -6.46,-4.07 -11.35,-0.23 -5.26,6.89 -11.22,6.78 -4.72,-5.77 -5.5,0.15 -14.38,9.44 1.35,5.51 -3.29,5.2 -13.36,-13.56 0.86,-4.35 -8.74,-6.43 -6.05,-1.15 4.14,-10.66 11.21,-8.9 0.08,-10.05 -3.95,-6.54 4.46,-2.59 2.99,-7.65 -2.24,-3.57 -8.73,-3.19 -0.88,-9.46 7.12,-5.34 4.22,-8.32 10.7,-7.66 6.58,-1.94 5.68,1.86 -1.18,-14.3 4.37,-5.32 -1.37,-12.88 11.54,-4.29 8.6,-1.19 3.62,-7.43 -1.82,-9.43 5.59,-7.48 -2.84,-3.61 7.24,-17.9 10.37,-4.47 9.51,0.28 z"
       id="M28501"
       style="fill:#ffff80;fill-opacity:1;stroke:#000000;stroke-width:2.03673;stroke-dasharray:none;stroke-opacity:1" />
    <path
       d="m 28.29,618.69 3.29,-5.2 -1.35,-5.51 14.38,-9.44 5.5,-0.15 4.72,5.77 11.22,-6.78 5.26,-6.89 11.35,0.23 6.46,4.07 18.24,-0.72 9.84,-5.95 9.94,5.08 1.43,9.36 3.25,5.88 -2.03,9.04 -18.95,17.65 2.98,6.39 -5.66,12.09 -2.43,10.15 -19.39,8.58 -6.31,-11.84 -4.98,-0.61 -0.2,11.36 -8.69,-4.15 -5.42,1.54 -4.29,-5.79 -9.49,5.39 -1.66,5.82 0.95,9.53 -15.55,3.09 -2.02,4.04 -5.07,-2.82 -3.03,-6.6 -11.27,3.31 -3.53,-17.18 -4.6,-8.04 8.64,-14.92 1.47,-10.97 5.62,-4.88 7.5,-2.05 z"
       id="M28481"
       style="fill:#ffff80;fill-opacity:1;stroke:#000000;stroke-width:2.03673;stroke-dasharray:none;stroke-opacity:1" />
    <path
       d="m 759.1,698.54 2.29,6.32 12.97,-1.26 3.55,0.43 8.32,10.19 2.97,10.92 -0.98,5.44 -0.98,-3.29 -14.21,3.92 -3.63,4.26 -11.71,1.22 -9.59,-6.27 -3.38,-8.13 -3.6,-1.93 -0.72,-2.59 7.3,-9.39 -5.3,-11.79 9.12,-3.28 3.71,7.32 z"
       id="M28207"
       style="fill:#ffff80;fill-opacity:1;stroke:#000000;stroke-width:2.03673;stroke-dasharray:none;stroke-opacity:1" />
    <path
       d="m 707.19,776.7 -6.8,4.47 -3.7,-6.16 10.39,-2.5 z m -12.33,-6.35 -15.4,-26.43 0.32,-5.38 -5.43,-8.85 -3.24,-9.14 11.24,0.23 6.77,4.28 3.28,7.63 8.07,9.58 8.19,22.65 -0.26,6.23 -11.85,2.91 -1.62,-3.52 -0.04,-0.09 z"
       fill-rule="evenodd"
       id="M28206"
       style="fill:#ffff80;fill-opacity:1;stroke:#000000;stroke-width:2.03673;stroke-dasharray:none;stroke-opacity:1" />
    <path
       d="m 424.68,1027.29 2.18,23.9 -2.84,12.76 6.53,9.63 7.48,3.71 2.15,15.37 6.86,9.69 10.19,6.49 3.39,8.25 1.69,16.23 -18.22,6.83 -16.94,4.66 -17.81,9.79 -13.98,-14.73 -2.49,-6.15 -7.9,-2.9 5.04,-13.81 -0.5,-10.63 -4.03,-6.95 5.7,-8.8 -2.29,-6 4.91,-4.33 -14.6,-4.8 -6.77,-13.43 -9.87,5.58 -13.93,-0.27 -14.51,-3.49 -11.29,0.66 9.47,-25.88 5.83,-1.74 7.82,-19.6 5.02,-4.44 3.14,-8.24 21.44,5.44 8.61,-1.43 6.48,1.54 -1.02,6.31 4.29,7.04 6.61,-0.17 3.84,-7.83 6.89,1.33 4.5,6.71 -0.47,7.37 z"
       id="M28205"
       style="fill:#ffff80;fill-opacity:1;stroke:#000000;stroke-width:2.03673;stroke-dasharray:none;stroke-opacity:1" />
    <path
       d="m 712.56,768.24 7.22,4.77 -1.55,3.92 -9.24,0.43 z m -41.45,-47.69 2.26,-8.72 -0.76,-8.06 -12.67,-5.1 -2.62,3.41 -8.88,-7.08 -2.34,-9.62 2.33,-16.64 7.15,-2.26 10.98,4.92 3.25,-5.11 9.66,0.64 9.03,-11.06 11.9,2.79 8.88,22.93 8.18,11.11 -10.66,6.52 -3.92,-0.19 -8.98,5.42 3.28,7.15 12.78,9.06 9.52,0.35 1.16,4.09 7.02,1.75 10.91,-2.44 1.83,-6.64 0.72,2.59 -0.06,19.26 4.44,14.07 -0.3,7.19 3.01,7.81 -7.76,22.15 -6.08,4.14 -6.17,-6.72 4.08,-7.51 -13.96,-12.98 -9.66,-2.85 -8.19,-22.65 -8.07,-9.58 -3.28,-7.63 -6.77,-4.28 z"
       fill-rule="evenodd"
       id="M28204"
       style="fill:#ffff80;fill-opacity:1;stroke:#000000;stroke-width:2.03673;stroke-dasharray:none;stroke-opacity:1" />
    <path
       d="m 436.41,768.57 4.31,10.06 7.71,7.76 8.09,-10.84 14.59,0.79 0.15,20.95 4.1,6.5 -0.88,4.84 4.38,10.33 12.97,-0.32 17.19,1.34 -2.37,11.43 -20.41,1.18 -10.06,-1.73 -10.18,-6.64 -8.29,-7.76 -9.92,-7.47 -14.57,-4.38 -7.96,-10.07 -16.55,-11.12 13.33,-14.78 6.13,-3.52 z m -32.76,25.24 2.46,-5.18 1.14,-2.27 0.9,-1.79 9.45,7.67 -4.23,5.99 z"
       fill-rule="evenodd"
       id="M28203"
       style="fill:#ffff80;fill-opacity:1;stroke:#000000;stroke-width:2.03673;stroke-dasharray:none;stroke-opacity:1" />
    <path
       d="m 741.12,720.36 3.6,1.93 3.38,8.13 9.59,6.27 11.71,-1.22 3.63,-4.26 14.21,-3.92 0.98,3.29 9.68,13.28 -0.01,14.91 -9.05,2.78 0.11,9.61 -10.73,5.42 -3.31,4.38 -12.04,6.67 -9.05,7.56 -2.22,-2.99 -11.15,-1.36 7.76,-22.15 -3.01,-7.81 0.3,-7.19 -4.44,-14.07 z"
       id="M28202"
       style="fill:#ffff80;fill-opacity:1;stroke:#000000;stroke-width:2.03673;stroke-dasharray:none;stroke-opacity:1" />
    <path
       d="m 155.39,808.83 3.48,2.55 5.51,18.12 -5.54,0.34 -7.72,-3.87 -8.72,7.67 -4.86,-8.44 4.48,-8.63 8.82,2.17 3.8,-1.97 z m 18.85,9.5 2.07,3.96 -2.91,14.43 -8.19,-5.48 0.2,-4.86 7.56,-4.12 z m 13.25,-21.63 1.46,6.1 4.83,3.71 -2.3,12.8 -18.73,-10.07 -2.01,-4.81 z m 24.99,7.88 11.06,6.79 -3.28,8.24 -9.55,4.38 -5.67,-9.16 -0.21,-4.49 z m 21.02,-74.23 -6.05,7.31 -2.15,-7.88 z m 75.91,-229.19 0.22,14.23 -6.85,3.18 -2.84,9.47 -5.11,1.83 1.69,13.12 7.59,6.07 -3.85,16.05 4.22,0.79 3.58,8.55 -2.12,4.03 6.7,7.73 2.5,7.74 11.79,0.43 12.25,2.27 3.1,8.52 5.94,0.9 3.79,4.44 5.94,-0.2 1.96,9.89 -1.77,8.11 -5.25,6.56 2.07,5.03 9.92,5.16 6.21,6.16 -8.11,9.61 -1.61,12.28 -9.22,2.62 -5.34,-2.13 -1.34,12.47 2.41,6.46 -10.31,14.65 -6.22,1.99 -5.57,5.94 14.64,4.67 -3.92,15.93 -9.91,-5.35 -13.79,-1.9 -9.21,-4.34 -7.98,0.36 -4.36,4.78 -12.66,-5.09 -8.54,-5.89 -5.42,10.65 -12.67,2.63 -0.96,-8.21 -13.49,7.82 -1.83,-5.79 -15.82,5.04 1.06,5.53 -10.95,3.08 0.42,-11.79 2.19,-5.34 -2.71,-13.74 -8.09,-10.41 5.18,2.04 8.07,-1.8 3.92,-11.38 7.96,-3.62 5.03,6.09 10.84,1.82 5.15,-2.43 0.72,-13.42 -3.43,-4.43 -15.64,-7.59 -1.94,-4.87 -7.85,-1.37 -0.13,-3.08 8.01,-15.4 0.9,-9.5 -3.05,-2.77 -10.53,2.5 -9.3,-6.44 5.61,-6.58 -2.63,-12.97 3.47,-6.03 -1.79,-15.61 1.93,-11.06 -5.9,-3.27 1.47,-7.95 5.78,-5.1 6.09,-9.5 6.44,-18.17 -1.97,-16.87 9.22,-14.88 0.56,-6.03 7.92,-12.69 4.56,2.36 7.88,-4.79 8.76,0.43 6.49,5.07 2.51,-6.97 5.27,-2.7 7.58,0.46 1.52,8.58 9.88,5.23 -1.35,5.7 1.99,8.11 5.64,3.81 z"
       fill-rule="evenodd"
       id="M28201"
       style="fill:#ffff80;fill-opacity:1;stroke:#000000;stroke-width:2.03673;stroke-dasharray:none;stroke-opacity:1" />
    <path
       d="m 309.41,501.16 -6.79,-0.48 -5.64,-3.81 -1.99,-8.11 1.35,-5.7 -9.88,-5.23 -1.52,-8.58 -7.58,-0.46 -5.19,-4.38 1,-5.02 -6.16,-4.33 4.58,-10.19 -4.22,-7.96 4.71,-5.38 4.99,-11.14 -1.06,-12.29 7.8,-0.11 7.42,-4.14 3.28,-8.04 15.26,-2.4 -2.18,5.63 7.1,10.9 -3.17,4.92 7.78,15.26 13.18,3.61 5.77,-6.53 6.47,15.27 10.61,-13.36 10.16,1.84 5.55,-1.64 7.72,6.11 6.73,-4.44 6.04,-7.51 -0.15,-10.41 14.73,-4.89 8.32,-5.47 2.54,-8.44 5.64,-7.05 6.55,-0.3 4,4.64 -6.55,13.98 3.92,8.62 -11.4,11.91 -7.18,5.32 -5.43,15.2 -8.79,6.01 -2.53,7.93 4.05,11.56 -7.42,4.19 -1.68,11.12 -4.09,8.22 -15.24,3.29 -6.67,10.6 -6.1,3.68 -7.1,0.58 -14.42,-5.06 -8.69,3.7 -5.17,-1.28 -1.61,-6.95 -5.4,-3.68 z"
       id="M28446"
       style="fill:#ffff80;fill-opacity:1;stroke:#000000;stroke-width:2.03673;stroke-dasharray:none;stroke-opacity:1" />
    <path
       d="m 357.95,610.31 -5.94,0.2 -3.79,-4.44 -5.94,-0.9 -3.1,-8.52 -12.25,-2.27 -11.79,-0.43 -2.5,-7.74 -6.7,-7.73 2.12,-4.03 -3.58,-8.55 -4.22,-0.79 3.85,-16.05 -7.59,-6.07 -1.69,-13.12 5.11,-1.83 9.38,4.96 0.5,3.85 7.64,12.44 -0.14,5.35 7.11,1.25 2.7,4.18 10.45,1.82 4.43,8.15 12.41,-3.66 11.23,2.22 -0.92,6.52 -5.28,6.51 2.9,13.89 -4.08,5.72 z"
       id="M28443"
       style="fill:#ffff80;fill-opacity:1;stroke:#000000;stroke-width:2.03673;stroke-dasharray:none;stroke-opacity:1" />
    <path
       d="m 299.94,528.04 2.84,-9.47 6.85,-3.18 -0.22,-14.23 6.25,-0.67 5.4,3.68 1.61,6.95 5.17,1.28 8.69,-3.7 14.42,5.06 7.1,-0.58 6.1,-3.68 6.67,-10.6 15.24,-3.29 7.77,10.23 -6.67,7.9 6.77,10.72 -0.97,4.7 -9.25,10.46 1,6.28 -3.94,5.43 -9.82,5.2 -5.3,12.07 -11.23,-2.22 -12.41,3.66 -4.43,-8.15 -10.45,-1.82 -2.7,-4.18 -7.11,-1.25 0.14,-5.35 -7.64,-12.44 -0.5,-3.85 z"
       id="M28442"
       style="fill:#ffff80;fill-opacity:1;stroke:#000000;stroke-width:2.03673;stroke-dasharray:none;stroke-opacity:1" />
    <path
       d="m 117.2,588.12 -1.89,-3.96 3.71,-8.05 11.23,-7.83 8.73,1.07 3.08,-6.94 5.76,-1.32 -1.51,-7.29 7.39,-15.61 5.17,5.4 12.31,-0.41 -1.95,9.43 7.12,12.36 10.95,4.91 8.47,-0.21 0.26,10.07 14.32,1.17 1.79,15.61 -3.47,6.03 2.63,12.97 -5.61,6.58 9.3,6.44 10.53,-2.5 3.05,2.77 -0.9,9.5 -8.01,15.4 0.13,3.08 -5.39,12.25 -10.71,5.27 -2.96,15.38 1.05,8.06 8.09,10.41 2.71,13.74 -2.19,5.34 -0.42,11.79 -7.65,-5.08 0.79,-4.12 -7.69,-3.03 -5.39,1.79 -11.08,-6.63 -2.56,5.23 -6.94,5.66 -9.36,-4.84 -8.74,4.69 -4.58,8.6 1.6,-13.13 3.85,-3.46 10.46,-3.83 3.06,-3.83 -3.46,-9.88 2.82,-3.33 1.09,-9.32 -2.78,-4.6 -0.75,-9.03 -7.09,3.63 -5.44,-7.73 1.15,-3.02 -6.51,-8.17 -4.88,-9.83 11.37,-6.5 2.34,-8.25 4.73,-3.71 -1.55,-12.37 1.35,-4.04 -7.28,-5.18 -21.06,1.76 2.03,-9.04 -3.25,-5.88 -1.43,-9.36 z"
       id="M28229"
       style="fill:#ffff80;fill-opacity:1;stroke:#000000;stroke-width:2.03673;stroke-dasharray:none;stroke-opacity:1" />
    <path
       d="m 555.53,572.64 -0.11,6.29 6.28,9.7 3.65,12.04 7.22,0.7 -4.6,4 -5.11,12.42 -11.83,17.82 -11.48,-0.52 -4.17,2.18 0.34,10.27 -6.31,6.77 -7.84,1.19 -3.56,4.53 -7.37,2.55 1.42,-10.08 -2.27,-11 -13.74,-10.95 -3.49,-6.47 -16.11,2.96 -5.9,10.59 -14.47,-1.12 -3.92,-4.73 0.65,-9.53 -10.35,-8.5 -9.76,3.81 1.66,-8.57 -4.75,-8.06 2.05,-3.59 8.69,4.47 10.06,-4.13 0.29,-13.11 -2.73,-6.58 10.24,-2.05 9.05,1.22 9.25,4.95 7.2,-5.53 7.63,0.69 5.58,-4.7 18.28,-0.56 6.25,-2.62 6.79,-6.69 -4.09,-8.17 -0.12,-7.74 9.53,-9.91 12.8,10.79 2.04,5.6 7.78,-1.94 z"
       id="M28228"
       style="fill:#ffff80;fill-opacity:1;stroke:#000000;stroke-width:2.03673;stroke-dasharray:none;stroke-opacity:1" />
    <path
       d="m 153.7,538.19 1.24,-4.73 -6.66,-12.65 -7.31,-6.1 -10.48,2.16 -9.29,-4.55 2.7,-7.8 -3.21,-18.58 4.45,-14.5 -2.55,-4.59 5.27,-6.35 -11.33,-14.67 -5.37,1.63 -5.05,-3.19 -1.01,-6.52 3.18,-5.65 -4.85,-7.47 2.95,-8.69 -4.61,-5.79 4.26,-9.6 -1.02,-7.54 -7.54,-0.53 -10.57,-5.1 -1.57,-10.04 0.8,-12.44 9.57,-4.77 3.84,-10.85 8.26,1.55 13.23,8.04 8.4,-7.09 10.44,0.43 -1.36,-4.61 9.76,-4.85 4.67,-9.06 20.92,-13.72 -3.94,-13.4 3.65,-11.26 -6.45,-6.99 -2.07,-8.29 3.25,-9.71 14.52,12.82 10.83,5.59 3.22,5.15 7.42,1.69 7.4,7.67 4.39,1.31 1.39,11.79 12.82,12.22 8.49,-2.33 4.16,-6.86 9.46,-0.56 11.35,13.62 1.6,6.76 11.12,2.77 7.7,6.79 8.13,-5.8 1.73,5.83 -4.39,5.44 4.63,4.81 0.22,11.72 8.28,1.91 6.56,7.97 0.44,12.78 -15.26,2.4 -3.28,8.04 -7.42,4.14 -7.8,0.11 1.06,12.29 -4.99,11.14 -4.71,5.38 4.22,7.96 -4.58,10.19 6.16,4.33 -1,5.02 5.19,4.38 -5.27,2.7 -2.51,6.97 -6.49,-5.07 -8.76,-0.43 -7.88,4.79 -4.56,-2.36 -7.92,12.69 -0.56,6.03 -9.22,14.88 1.97,16.87 -6.44,18.17 -6.09,9.5 -5.78,5.1 -1.47,7.95 5.9,3.27 -1.93,11.06 -14.32,-1.17 -0.26,-10.07 -8.47,0.21 -10.95,-4.91 -7.12,-12.36 1.95,-9.43 -12.31,0.41 z"
       id="M28227"
       style="fill:#ffff80;fill-opacity:1;stroke:#000000;stroke-width:2.03673;stroke-dasharray:none;stroke-opacity:1" />
    <path
       d="m 424.68,1027.29 -9.4,3.67 0.47,-7.37 -4.5,-6.71 -6.89,-1.33 -3.84,7.83 -6.61,0.17 -4.29,-7.04 1.02,-6.31 -6.48,-1.54 -8.61,1.43 -21.44,-5.44 5.46,-14.66 5.12,-3.87 9.66,-14.4 11.5,1.27 7.32,-8.17 14.73,-29.06 12.18,-13.76 6,1.13 10.99,-5.72 8.33,-10.05 5.96,-0.7 16.65,-21.11 3.83,-8.49 11.91,-13.87 11.98,-4.5 6.58,10.38 5.88,5.21 3.07,10.58 -5.34,9.73 -14.64,15.16 -1.86,18.47 -8.64,15.18 -13.97,11.86 -15.95,27.31 -21.95,28.99 z"
       id="M28226"
       style="fill:#ffff80;fill-opacity:1;stroke:#000000;stroke-width:2.03673;stroke-dasharray:none;stroke-opacity:1" />
    <path
       d="m 429.16,386.91 -6.55,0.3 -5.64,7.05 -2.54,8.44 -8.32,5.47 -14.73,4.89 0.15,10.41 -6.04,7.51 -6.73,4.44 -7.72,-6.11 -5.55,1.64 -10.16,-1.84 -10.61,13.36 -6.47,-15.27 -5.77,6.53 -13.18,-3.61 -7.78,-15.26 3.17,-4.92 -7.1,-10.9 2.18,-5.63 -0.44,-12.78 -6.56,-7.97 -8.28,-1.91 -0.22,-11.72 -4.63,-4.81 4.39,-5.44 -1.73,-5.83 3.58,-3.86 -1.18,-6.77 -5,-10.2 6.53,-9.6 4.82,5.95 8.15,2.65 4.78,-4.22 15.83,3.34 5.41,8.89 20.05,-7.84 3.5,-6.04 0.27,-11.87 -13.23,-10.04 -1.68,-7.02 6.32,-4.42 8.67,-1.51 6.04,-8.44 -4.72,-4.37 -1.81,-7 2.09,-5.53 8.22,-3.67 2.83,-6.44 12.61,-4.89 10.86,0.48 8.3,-9.72 0.14,-5.38 -3.95,-11.08 3.67,-1.93 10.87,5.15 15.2,-0.53 0.73,-7.65 11.16,-6.04 9.53,11.13 -7.52,13.25 2.54,11.03 -5.21,10.56 2.99,8.26 -4.14,11.41 5.54,2.82 1.64,5.22 -4.46,10.4 2.23,4.65 8.54,3.28 0.37,5.81 -8.65,9.31 -1.38,9.36 -5.14,8.78 -5.35,4.88 -3.75,10.24 5.06,10.75 -2.74,9.28 9.03,8.9 -2.02,5.29 z"
       id="M28225"
       style="fill:#ffff80;fill-opacity:1;stroke:#000000;stroke-width:2.03673;stroke-dasharray:none;stroke-opacity:1" />
    <path
       d="m 322.83,1064.55 11.29,-0.66 14.51,3.49 13.93,0.27 9.87,-5.58 6.77,13.43 14.6,4.8 -4.91,4.33 2.29,6 -5.7,8.8 4.03,6.95 0.5,10.63 -5.04,13.81 7.9,2.9 2.49,6.15 13.98,14.73 -16.62,7.11 -11.29,7.52 -9.39,10.77 -9.67,6.51 -16.66,-0.38 -27.2,9.39 -2.25,-14.31 -7.81,-6.58 -10.19,-1.5 -2.43,-4.37 6.88,-13.36 7.04,-4.8 -1.82,-9.46 -11.83,9.86 -3.37,-2.74 -15.32,-1.62 2.66,-5.05 -2.74,-9.91 -6.78,-6.77 0.43,-15.91 7.79,-16.51 12.91,-5.54 13.2,1.74 11.5,-9.81 z m 53.76,138.38 5.75,5.91 -0.06,5.97 -6.09,6.19 -6.71,-0.22 0.25,-6.43 5,-2.02 z"
       fill-rule="evenodd"
       id="M28224"
       style="fill:#ffff80;fill-opacity:1;stroke:#000000;stroke-width:2.03673;stroke-dasharray:none;stroke-opacity:1" />
    <path
       d="m 440.49,372.67 -9.03,-8.9 2.74,-9.28 -5.06,-10.75 3.75,-10.24 5.35,-4.88 5.14,-8.78 1.38,-9.36 8.65,-9.31 -0.37,-5.81 14.83,7.86 17.45,4.31 13.8,5.67 3.03,4.12 -0.95,8.71 16.72,5.81 9.07,0.49 5.64,5.69 6.51,14.23 9.93,-7.31 1.67,-5.51 6.1,-5.53 9.69,-5.08 12.97,4.52 3.87,-3.46 14.85,3.04 6.46,14.96 -3.44,9.32 -4.71,3.67 5.53,5.35 12.56,3.32 4.47,7.41 5.44,3.08 2.03,6.07 -8.87,4.28 4.4,14.65 8.77,9.29 12.1,-2.54 2.45,10.78 -13.15,17.44 -14.67,-0.08 -9.3,2.46 -14.3,-3.86 -6.19,6.66 -10.48,-2.05 -6.62,8.72 -4.2,1.36 4.16,13.21 -0.98,4.65 7.23,8.81 -2.23,5.09 4.67,4.97 -1.17,13.58 -9.72,-7.87 -10.74,4.03 -21.6,6.53 -7.2,-3.79 -9.5,-0.81 -7.73,-4.23 -0.76,-11.27 -8.97,-0.03 -13.34,2.46 -8.49,-1.11 -19.56,0.64 -3.72,-14.58 1.72,-4.96 -10.32,-11.79 1.55,-6.35 6.92,-6.45 -0.57,-6.88 12.52,-11.77 -2.17,-5.44 -5.97,-0.02 1.12,-10.4 -2.72,-7.23 7.17,-11.98 -5.87,-4.77 2.22,-5.55 -3.1,-9.28 -7.57,-1.2 z"
       id="M28223"
       style="fill:#ffff80;fill-opacity:1;stroke:#000000;stroke-width:2.03673;stroke-dasharray:none;stroke-opacity:1" />
    <path
       d="m 165.68,248.08 3.26,-10.55 14.18,-12.51 8.09,4.08 9.15,-3.1 6.87,1.03 7.04,-2.64 6.68,4.43 9.54,1.2 11.38,-15.01 7.36,-2.89 6.61,2.46 6.61,-10.35 -3.09,-6.46 10.3,-3.84 12.63,5.28 11.34,-2.53 5.48,2.93 22.38,3.84 8.45,-7.71 -4.08,-4.78 2.4,-5.59 9.51,-0.19 5.84,-3.28 8.29,4.33 3.89,-4.39 12.02,-3.41 5.79,4.34 1.63,6.78 9.28,5.36 5.11,11.75 5.07,6.61 5.04,1.08 3.95,11.08 -0.14,5.38 -8.3,9.72 -10.86,-0.48 -12.61,4.89 -2.83,6.44 -8.22,3.67 -2.09,5.53 1.81,7 4.72,4.37 -6.04,8.44 -8.67,1.51 -6.32,4.42 1.68,7.02 13.23,10.04 -0.27,11.87 -3.5,6.04 -20.05,7.84 -5.41,-8.89 -15.83,-3.34 -4.78,4.22 -8.15,-2.65 -4.82,-5.95 -6.53,9.6 5,10.2 1.18,6.77 -3.58,3.86 -8.13,5.8 -7.7,-6.79 -11.12,-2.77 -1.6,-6.76 -11.35,-13.62 -9.46,0.56 -4.16,6.86 -8.49,2.33 -12.82,-12.22 -1.39,-11.79 -4.39,-1.31 -7.4,-7.67 -7.42,-1.69 -3.22,-5.15 -10.83,-5.59 -14.52,-12.82 2.28,-9.99 z"
       id="M28222"
       style="fill:#ffff80;fill-opacity:1;stroke:#000000;stroke-width:2.03673;stroke-dasharray:none;stroke-opacity:1" />
    <path
       d="m 718.88,523.17 -11.23,0.94 -0.9,8.56 -9.15,3.48 -8.69,-3.05 -4.43,1.65 -1.81,-3.48 -10.98,0.84 -8.92,2.66 -0.99,-8.21 -5.44,-8.42 -12.08,2.99 -4.36,-5.56 -4.06,6.18 -11.48,0.29 -2.88,7.7 -11.17,6.92 -0.44,10.29 -9.23,5.94 -14.13,-0.7 -0.69,17.58 -10.1,10.6 -4.78,-7.76 -10.35,5.17 -5.06,-5.14 0.65,-21.31 -7.78,1.94 -2.04,-5.6 -12.8,-10.79 4.57,-10.18 12.34,-12.35 6.43,-3.01 3.98,-6.51 -3.16,-5.15 10.74,-4.03 9.72,7.87 1.17,-13.58 -4.67,-4.97 2.23,-5.09 -7.23,-8.81 0.98,-4.65 -4.16,-13.21 4.2,-1.36 6.62,-8.72 10.48,2.05 6.19,-6.66 14.3,3.86 9.3,-2.46 14.67,0.08 13.15,-17.44 -2.45,-10.78 4.69,-11.07 11.92,-0.47 11.48,1.88 4.4,-1.23 7.03,4.89 4.94,7.99 -8.11,11.59 9.13,4.36 21.88,-6.18 7,4.15 3.82,6.82 7.6,-0.82 3.41,3.64 8.5,2.59 6.27,-0.68 7.33,15.58 -3.72,9.18 8.59,4.31 -0.76,14.31 -8.23,2.87 -6.92,5.27 0.36,4.16 -11.68,8.69 -14.27,6.02 -2.85,6.05 z"
       id="M28221"
       style="fill:#ffff80;fill-opacity:1;stroke:#000000;stroke-width:2.03673;stroke-dasharray:none;stroke-opacity:1" />
    <path
       d="m 371.09,651.22 -6.21,-6.16 -9.92,-5.16 -2.07,-5.03 5.25,-6.56 1.77,-8.11 -1.96,-9.89 0.32,-9.07 4.08,-5.72 -2.9,-13.89 5.28,-6.51 0.92,-6.52 5.3,-12.07 9.82,-5.2 3.94,-5.43 -1,-6.28 9.25,-10.46 3.09,6.52 6.03,3.71 1.06,16.99 19.73,2.88 1.7,13.37 23.4,5.36 2.73,6.58 -0.29,13.11 -10.06,4.13 -8.69,-4.47 -2.05,3.59 4.75,8.06 -1.66,8.57 -2.05,11.04 -3.67,3.57 4.64,5.82 -2.17,7.16 -7.98,8.39 -1.57,6.24 0.13,13.07 -3.34,0.39 -6.48,-0.27 -10.02,-11.28 -3.67,1.47 -15.47,-4.17 -8.36,3.49 z"
       id="M28220"
       style="fill:#ffff80;fill-opacity:1;stroke:#000000;stroke-width:2.03673;stroke-dasharray:none;stroke-opacity:1" />
    <path
       d="m 219.79,656.79 7.85,1.37 1.94,4.87 15.64,7.59 3.43,4.43 -0.72,13.42 -5.15,2.43 -10.84,-1.82 -5.03,-6.09 -7.96,3.62 -3.92,11.38 -8.07,1.8 -5.18,-2.04 -1.05,-8.06 2.96,-15.38 10.71,-5.27 z"
       id="M28464"
       style="fill:#ffff80;fill-opacity:1;stroke:#000000;stroke-width:2.03673;stroke-dasharray:none;stroke-opacity:1" />
    <path
       d="m 679.61,636.19 -11.47,0.76 -9.84,5.62 -4.1,-0.42 -8.77,4.67 -12.41,-4.68 -5.74,1.91 -12.42,-10.15 -9.86,-0.45 -5.27,-3.64 -1.91,-12.53 -2.97,-2.77 0.45,-9.31 -3.26,-11.43 -4.85,-0.59 -14.62,8.19 -7.22,-0.7 -3.65,-12.04 -6.28,-9.7 0.11,-6.29 5.06,5.14 10.35,-5.17 4.78,7.76 10.1,-10.6 0.69,-17.58 14.13,0.7 9.23,-5.94 0.44,-10.29 11.17,-6.92 2.88,-7.7 11.48,-0.29 4.06,-6.18 4.36,5.56 12.08,-2.99 5.44,8.42 0.99,8.21 8.92,-2.66 10.98,-0.84 1.81,3.48 -0.95,11.4 7.97,0.32 7.92,10.02 -5.73,1.83 -2.47,6.45 4.86,9.64 -1.75,8.52 3.72,4.36 0.36,11.66 -3.52,8.52 -5.98,-5.49 -12.71,8.8 1.65,9.31 -2.16,8.89 z"
       id="M28219"
       style="fill:#ffff80;fill-opacity:1;stroke:#000000;stroke-width:2.03673;stroke-dasharray:none;stroke-opacity:1" />
    <path
       d="m 432.7,617.56 9.76,-3.81 10.35,8.5 -0.65,9.53 3.92,4.73 14.47,1.12 5.9,-10.59 16.11,-2.96 3.49,6.47 13.74,10.95 2.27,11 -1.42,10.08 -9.95,-1.1 -8.5,9.9 3.19,8.34 -9.25,6.41 -8.4,0.62 -4.35,5.68 -10.69,1.32 -7.38,6.88 -9.01,-3.71 -7.64,-12.78 -9.99,1.1 -7.03,-3.09 -4.95,-8.91 3.34,-0.39 -0.13,-13.07 1.57,-6.24 7.98,-8.39 2.17,-7.16 -4.64,-5.82 3.67,-3.57 z"
       id="M28218"
       style="fill:#ffff80;fill-opacity:1;stroke:#000000;stroke-width:2.03673;stroke-dasharray:none;stroke-opacity:1" />
    <path
       d="m 732.77,653.86 6.11,-7.03 9,-4 -1.89,-10.92 10.55,-11.89 9.14,-12.42 -2.32,-5.55 7.53,-4.67 15.27,-4.42 7.42,7.79 5.42,2.78 -2.84,6.74 -11.51,-2.09 -13.35,8.66 4.35,2.43 3.18,10.66 6.9,2.47 -2.26,10.99 -4.93,12.7 0.86,3.73 -8.41,5.6 3.7,9.06 -0.29,6.66 -5.16,9.87 5.12,12.59 -12.97,1.26 -2.29,-6.32 -0.4,-12.74 7.43,-10.97 -7.84,-6.43 -7.83,1.66 -9.24,-11.03 z"
       id="M28217"
       style="fill:#ffff80;fill-opacity:1;stroke:#000000;stroke-width:2.03673;stroke-dasharray:none;stroke-opacity:1" />
    <path
       d="m 336.5,735.71 3.92,-15.93 -14.64,-4.67 5.57,-5.94 6.22,-1.99 10.31,-14.65 8.01,1.07 4.6,4.08 0.14,6.59 9.52,16.11 5.72,5.63 -7.52,6.82 0.7,15.87 -1.24,11.2 -7.62,-0.32 -6.26,-6.13 -12.4,-8.19 -7.72,-1.25 z"
       id="M28216"
       style="fill:#ffff80;fill-opacity:1;stroke:#000000;stroke-width:2.03673;stroke-dasharray:none;stroke-opacity:1" />
    <path
       d="m 605,633.45 -8.24,5.67 2.18,24.93 -1.95,6.18 -10.07,7.25 -11.55,-2.47 -4.86,-6.47 -6.17,1.64 -3.31,7.26 -5.67,1.79 -4.91,6.49 -6.63,14.93 7.09,9.77 5.55,3.11 0.37,8.93 -7.91,0.19 -4.25,5.94 -10.11,5.82 -8.87,-6.26 -14.48,5.96 -23.45,-7.92 -11.64,8.99 -7.38,-0.16 1.04,-11.41 -18.42,-1.52 -6.17,-13.37 1.11,-11.8 9.01,3.71 7.38,-6.88 10.69,-1.32 4.35,-5.68 8.4,-0.62 9.25,-6.41 -3.19,-8.34 8.5,-9.9 9.95,1.1 7.37,-2.55 3.56,-4.53 7.84,-1.19 6.31,-6.77 -0.34,-10.27 4.17,-2.18 11.48,0.52 11.83,-17.82 5.11,-12.42 4.6,-4 14.62,-8.19 4.85,0.59 3.26,11.43 -0.45,9.31 2.97,2.77 1.91,12.53 z"
       id="M28215"
       style="fill:#ffff80;fill-opacity:1;stroke:#000000;stroke-width:2.03673;stroke-dasharray:none;stroke-opacity:1" />
    <path
       d="m 688.5,655.87 -4.66,-7.62 -4.23,-12.06 -3.92,-7.21 2.16,-8.89 -1.65,-9.31 12.71,-8.8 5.98,5.49 3.52,-8.52 -0.36,-11.66 -3.72,-4.36 1.75,-8.52 6.05,2.22 4.25,12.59 3.73,2.22 4.88,19.85 5.4,4.26 -2.23,6.69 -5.89,4 5.06,8.59 1.22,9.48 7.41,9.23 6.81,0.32 8.45,5.17 9.24,11.03 7.83,-1.66 7.84,6.43 -7.43,10.97 0.4,12.74 -3.87,2.09 -3.71,-7.32 -9.12,3.28 5.3,11.79 -7.3,9.39 -1.83,6.64 -10.91,2.44 -7.02,-1.75 -1.16,-4.09 -9.52,-0.35 -12.78,-9.06 -3.28,-7.15 8.98,-5.42 3.92,0.19 10.66,-6.52 -8.18,-11.11 -8.88,-22.93 z"
       id="M28214"
       style="fill:#ffff80;fill-opacity:1;stroke:#000000;stroke-width:2.03673;stroke-dasharray:none;stroke-opacity:1" />
    <path
       d="m 533.56,536.88 -9.53,9.91 0.12,7.74 4.09,8.17 -6.79,6.69 -6.25,2.62 -18.28,0.56 -5.58,4.7 -7.63,-0.69 -7.2,5.53 -9.25,-4.95 -9.05,-1.22 -10.24,2.05 -23.4,-5.36 -1.7,-13.37 15.23,-1.97 3.56,1.47 4.83,-8.62 0.16,-12.17 4.02,-7.44 8.99,-5.78 -1.29,-3.98 6.13,-6.65 11.14,-0.96 -0.22,-6.27 -4.9,-7.46 8.27,-5.31 1.34,-6.69 8.49,1.11 13.34,-2.46 8.97,0.03 0.76,11.27 7.73,4.23 9.5,0.81 7.2,3.79 21.6,-6.53 3.16,5.15 -3.98,6.51 -6.43,3.01 -12.34,12.35 z"
       id="M28213"
       style="fill:#ffff80;fill-opacity:1;stroke:#000000;stroke-width:2.03673;stroke-dasharray:none;stroke-opacity:1" />
    <path
       d="m 28.68,690.72 2.02,-4.04 15.55,-3.09 -0.95,-9.53 1.66,-5.82 9.49,-5.39 4.29,5.79 5.42,-1.54 8.69,4.15 0.2,-11.36 4.98,0.61 6.31,11.84 19.39,-8.58 -2.41,10.64 3.27,6.4 -2.85,4.79 10.76,12.54 -2.05,8.93 2.32,6.68 10.85,-0.96 -1.07,12.43 5.95,0.63 6.44,4.63 -5.68,12.03 3.04,-10.79 -3.76,-1.43 -10.99,2.2 -4.63,8.84 1.24,7.91 -7.73,11.35 -15.44,1.79 -5.04,2.33 -6.37,-4.36 -4.71,-10.65 -3.1,3.16 -12.45,4.33 -3.51,-2.75 -7.19,6.59 -10.42,-6.2 5.62,-18.75 7.62,-3.24 -2.29,-6.84 -9.1,-5.48 2.23,-5.75 -1.88,-11.58 z"
       id="M28212"
       style="fill:#ffff80;fill-opacity:1;stroke:#000000;stroke-width:2.03673;stroke-dasharray:none;stroke-opacity:1" />
    <path
       d="m 428.17,765.12 -6.13,3.52 -7.17,-7.3 -9.93,1.72 -10.29,5.61 -1.33,4.71 -7.06,6.4 -6.61,0.82 -11.75,-9.75 -0.09,-10.95 1.24,-11.2 -0.7,-15.87 7.52,-6.82 -5.72,-5.63 -9.52,-16.11 -0.14,-6.59 -4.6,-4.08 -8.01,-1.07 -2.41,-6.46 1.34,-12.47 5.34,2.13 9.22,-2.62 1.61,-12.28 8.11,-9.61 1.6,11.26 8.36,-3.49 15.47,4.17 3.67,-1.47 10.02,11.28 6.48,0.27 4.95,8.91 7.03,3.09 9.99,-1.1 7.64,12.78 -1.11,11.8 6.17,13.37 -1.96,8.55 -8.78,-6.12 -7.49,3.03 -7.05,-4.14 -2.85,9.8 -5.6,1.18 -2.58,6.42 5.41,8.78 0.83,9.88 z"
       id="M28210"
       style="fill:#ffff80;fill-opacity:1;stroke:#000000;stroke-width:2.03673;stroke-dasharray:none;stroke-opacity:1" />
    <path
       d="m 259.36,197.77 -5.68,-3.44 -3.4,-11.84 3.02,-15.48 5.69,-9.85 -4.92,-13.11 -12.01,-6.29 -0.68,-17.82 4.42,1.16 8.6,-3.7 2.02,-12.09 7.17,-6.71 1.85,-11.89 5.35,-5.82 17.25,-2.57 6,-10.1 8.62,-10.67 -0.27,-7.95 4.5,-7.36 -2.14,-12.42 5.25,-8.29 6.36,-6.05 1.57,-4.92 7.79,-2.82 19.11,2.44 6.92,-6.27 7.4,-2.52 6.81,4.68 5.66,0.29 18.48,17.02 4.76,-9.72 5.21,-4.33 6.52,3.16 -0.09,16.1 4.42,12.3 -5.53,17.72 -7.59,8.2 5.74,1.92 8.62,10.54 3.49,8.06 13.11,6.47 1.48,5.42 7.73,3.62 2.96,5.54 -2.75,8.46 9.87,13.02 7.96,-2.05 14.1,-0.26 1.21,-4.3 18.6,-11.77 9.65,0.55 12.68,-5.2 6.45,1.19 -0.5,6.46 4.47,8.61 -1.87,31.14 3.46,21.58 2.93,3.25 -1.83,22.04 1.14,13.42 -12.37,-2.23 -0.21,3.67 -6.93,9.29 -18.96,6.82 -1.28,-5.77 -5.19,-4.49 -6.49,-0.47 -7.94,-8.24 -8.45,-3.41 -7.79,4.79 -9.53,-11.13 -11.16,6.04 -0.73,7.65 -15.2,0.53 -10.87,-5.15 -3.67,1.93 -5.04,-1.08 -5.07,-6.61 -5.11,-11.75 -9.28,-5.36 -1.63,-6.78 -5.79,-4.34 -12.02,3.41 -3.89,4.39 -8.29,-4.33 -5.84,3.28 -9.51,0.19 -2.4,5.59 4.08,4.78 -8.45,7.71 -22.38,-3.84 -5.48,-2.93 -11.34,2.53 -12.63,-5.28 z"
       id="M28209"
       style="fill:#ffff80;fill-opacity:1;stroke:#000000;stroke-width:2.03673;stroke-dasharray:none;stroke-opacity:1" />
    <path
       d="m 105.73,663.76 2.43,-10.15 5.66,-12.09 -2.98,-6.39 18.95,-17.65 21.06,-1.76 7.28,5.18 -1.35,4.04 1.55,12.37 -4.73,3.71 -2.34,8.25 -11.37,6.5 4.88,9.83 6.51,8.17 -1.15,3.02 5.44,7.73 7.09,-3.63 0.75,9.03 2.78,4.6 -1.09,9.32 -2.82,3.33 3.46,9.88 -3.06,3.83 -10.46,3.83 -3.85,3.46 -1.6,13.13 -2.44,-8.5 -0.59,-14.91 -8.2,-1.2 -0.3,5.55 4.96,11.77 -8.94,8.49 5.68,-12.03 -6.44,-4.63 -5.95,-0.63 1.07,-12.43 -10.85,0.96 -2.32,-6.68 2.05,-8.93 -10.76,-12.54 2.85,-4.79 -3.27,-6.4 z"
       id="M28208"
       style="fill:#ffff80;fill-opacity:1;stroke:#000000;stroke-width:2.03673;stroke-dasharray:none;stroke-opacity:1" />
    <path
       d="m 386.06,495.61 4.09,-8.22 1.68,-11.12 7.42,-4.19 -4.05,-11.56 2.53,-7.93 8.79,-6.01 5.43,-15.2 7.18,-5.32 11.4,-11.91 -3.92,-8.62 6.55,-13.98 -4,-4.64 9.31,-8.95 2.02,-5.29 11.29,-3.25 7.57,1.2 3.1,9.28 -2.22,5.55 5.87,4.77 -7.17,11.98 2.72,7.23 -1.12,10.4 5.97,0.02 2.17,5.44 -12.52,11.77 0.57,6.88 -6.92,6.45 -1.55,6.35 10.32,11.79 -1.72,4.96 3.72,14.58 19.56,-0.64 -1.34,6.69 -8.27,5.31 4.9,7.46 0.22,6.27 -11.14,0.96 -6.13,6.65 1.29,3.98 -8.99,5.78 -4.02,7.44 -0.16,12.17 -4.83,8.62 -3.56,-1.47 -15.23,1.97 -19.73,-2.88 -1.06,-16.99 -6.03,-3.71 -3.09,-6.52 0.97,-4.7 -6.77,-10.72 6.67,-7.9 z"
       id="M28365"
       style="fill:#ffff80;fill-opacity:1;stroke:#000000;stroke-width:2.03673;stroke-dasharray:none;stroke-opacity:1" />
    <path
       d="m 400.51,777.3 2.63,2.42 -5.87,10.69 -8.74,-2.06 3.9,-9.28 z m 21.53,-8.66 -13.33,14.78 -2.75,-3.76 -12.64,-6.28 1.33,-4.71 10.29,-5.61 9.93,-1.72 z"
       fill-rule="evenodd"
       id="M28382"
       style="fill:#ffff80;fill-opacity:1;stroke:#000000;stroke-width:2.03673;stroke-dasharray:none;stroke-opacity:1" />
    <path
       d="m 468.74,735.02 3.34,8.46 -11.83,16.02 -19.98,5.22 -3.86,3.85 -8.24,-3.45 -6.88,-5.65 -0.83,-9.88 -5.41,-8.78 2.58,-6.42 5.6,-1.18 2.85,-9.8 7.05,4.14 7.49,-3.03 8.78,6.12 1.96,-8.55 18.42,1.52 z"
       id="M28381"
       style="fill:#ffff80;fill-opacity:1;stroke:#000000;stroke-width:2.03673;stroke-dasharray:none;stroke-opacity:1" />
  </g>
</svg>
