<?xml version="1.0" encoding="UTF-8" standalone="no"?>
<svg
   version="1.2"
   width="366.16574"
   height="600"
   viewBox="0 0 366.16574 600"
   stroke-linecap="round"
   stroke-linejoin="round"
   id="svg949"
   sodipodi:docname="is.svg"
   inkscape:version="1.2 (dc2aedaf03, 2022-05-15)"
   xmlns:inkscape="http://www.inkscape.org/namespaces/inkscape"
   xmlns:sodipodi="http://sodipodi.sourceforge.net/DTD/sodipodi-0.dtd"
   xmlns="http://www.w3.org/2000/svg"
   xmlns:svg="http://www.w3.org/2000/svg">
  <defs
     id="defs953" />
  <sodipodi:namedview
     id="namedview951"
     pagecolor="#505050"
     bordercolor="#eeeeee"
     borderopacity="1"
     inkscape:showpageshadow="0"
     inkscape:pageopacity="0"
     inkscape:pagecheckerboard="0"
     inkscape:deskcolor="#505050"
     showgrid="false"
     inkscape:zoom="0.61479786"
     inkscape:cx="183.80025"
     inkscape:cy="299.28536"
     inkscape:window-width="1920"
     inkscape:window-height="1009"
     inkscape:window-x="-8"
     inkscape:window-y="-8"
     inkscape:window-maximized="1"
     inkscape:current-layer="svg949" />
  <g
     id="is"
     transform="matrix(0.45760122,0,0,0.45760122,0.04236904,0.04238255)"
     style="fill:#ffff80;fill-opacity:1;stroke:#000000;stroke-width:2.18531;stroke-dasharray:none;stroke-opacity:1">
    <path
       d="m 450.9,598.5 -1.54,4.45 -6.32,2.1 -0.91,4.92 1.55,10.7 -4.89,2.72 2.55,9.57 -8.05,14.46 1.2,9.89 2.55,5.92 -2.55,7.63 -5.13,4.74 3.92,4.51 1.66,6.95 -1.45,8.45 -2.79,2.97 -7.93,-6.25 -0.44,-9.6 -3.78,-5.17 -2.61,5.83 -5.62,4.65 -4.94,-4.74 -13.84,-1.66 -0.5,-4.29 -6.08,-0.15 -3.1,-6.4 -10.49,0.3 -8.76,1.44 -0.78,-6.03 -4.89,-0.47 -5.7,2.5 -6.9,-0.46 13.8,-33.23 6.41,-19.49 3.84,-15.38 13.94,-0.43 4.99,1.61 -0.59,-7.34 5.16,-0.72 0.88,-7.4 6.35,-4.9 12.87,-1.08 5.18,1.03 1.88,5.49 3.93,4.15 1.27,5.13 8.27,-1.84 7.16,0.09 7.55,1.88 z"
       id="M17386"
       style="fill:#ffff80;fill-opacity:1;stroke:#000000;stroke-width:2.18531;stroke-dasharray:none;stroke-opacity:1" />
    <path
       d="m 413.94,302.41 -4.89,4.13 -3.91,-0.17 -5.74,9.87 -0.64,8.15 -7.87,13.66 -3.11,1.89 0.6,5.24 -3.23,5.51 0.59,6.35 2.74,2.73 -1.01,6.44 -3.8,1.7 -2.13,5.24 4.14,8.49 2.8,1.37 2.4,9.33 10.22,5.26 4.63,6.29 0.48,5.23 5.65,0.58 13.6,6.79 -2.65,10.54 5.94,-2.59 1.16,6.32 4.47,1.91 5.69,5.4 1.28,6.06 -2.61,2.86 -2.34,7.57 -1.62,4.23 -1.05,17.83 -4.31,8.3 -0.78,6.11 1.49,8.63 4.64,13.04 -5.99,4.2 -6.7,7.2 -5.38,1.61 -5.28,5.57 -7.06,-0.14 -8.36,-7.74 -1.2,-5.53 5.32,-4.42 -6.41,-2.76 -3.05,3.07 3.71,4.12 1.35,5.3 -3.68,5.12 -5.96,-7.89 0.66,-3.58 -4.72,-5.05 -6.12,0.87 1.4,-15.8 -2.46,-4.6 2.3,-5.91 -0.62,-5.38 -4.89,-5.18 -6.65,-1.59 -1.59,-3.7 -5.38,-1.12 -0.77,-4.74 3.05,-10.68 -5.5,-2.93 -0.11,-5.98 -3.69,-2.73 0.14,-6.51 -5.15,-0.92 -3.4,-6.5 -0.08,-9.13 -2.12,-3.21 -0.27,-7.13 2.11,-6.08 5.76,-9.8 -2.76,-16.46 1.37,-17.5 -6.25,-8.31 -5.46,-3.56 -6.54,-0.21 -4.67,8.28 -6.03,1.37 -9.11,-1.19 -3.37,-7.2 5.06,-17.21 -2.57,-3.02 2.72,-5.49 -1,-7.65 4.98,-10.19 -3.23,-3.54 1.73,-6.73 11.43,-11.16 11.35,-2.49 2.88,4 -3.96,8.22 15.03,4.13 2.88,5.39 7.74,5.94 5.59,-5.15 6.66,-0.2 6.32,-5.59 5.65,-8.48 8.52,-6.27 6.32,0.78 9.65,-7.24 4.85,1.51 -0.21,6.43 2.45,5.58 -4.08,3.79 3.04,6.05 z"
       id="M17384"
       style="fill:#ffff80;fill-opacity:1;stroke:#000000;stroke-width:2.18531;stroke-dasharray:none;stroke-opacity:1" />
    <path
       d="m 635.49,118.89 1.94,4.7 -1.06,6.89 6.34,3.9 4.02,6.96 -0.28,4.07 4.64,8.85 -2.02,3.61 2.31,4 18.93,-6.54 4.57,0.45 9.6,-4.39 5.31,0.15 6.41,-2.76 8.75,0.1 7.25,-3.63 2.79,9.45 4.24,7.79 3.38,1.28 5.41,-2.03 -1.55,15.15 6.22,1.11 -4.06,4.88 1.41,5.4 -9.17,7.01 -2.99,9.07 -8.81,3.81 -3.96,3.45 -11.09,3.36 -5.21,-0.47 1.75,-4.8 -9.72,3.27 -7.84,-0.89 -10.78,-3.17 -4.27,1.13 -7.39,-1.81 -1.91,6.23 -4.02,-2.43 -12.73,7.57 -7.3,1.79 -6.49,6.92 -6.03,1.66 -3.41,13.63 -7.77,14.06 -5.89,-4.75 -8.62,-2.67 -1.25,-3.39 -7.51,-0.85 -2.06,6.87 -4.05,3.79 -7.14,-2.37 -11.02,1.98 -3.14,-7.32 -0.28,-6.49 -4.95,0.69 -8.14,-7.95 1.17,-3.07 -1.85,-6.99 4.16,-3.76 -2.99,-3.9 -5.48,-1.63 5.89,-5.23 -1.97,-4.25 -5.25,0.03 -3.44,3.63 -9.4,6.22 2.77,-7.97 -5.6,-4.33 4.89,-6.82 1.13,-6.06 4.58,-1.04 1,-6.24 -5.53,-8.79 5.66,-8.62 -6.6,-10.19 1.11,-6.25 -2.79,-2.22 1.72,-6.38 3.67,-0.34 3.35,-4.7 6.77,-1.9 1.84,-3.56 6.73,-5.65 3.08,2.11 9.49,-1.13 5.03,3.84 5.09,-1.58 2.77,4.11 13.6,7.46 5.64,-7.33 -0.9,-4.96 6.84,-2.01 7.13,1.93 2.12,5.14 6.23,-2.42 3.22,2.94 4.48,-1.5 -0.34,-5.82 z"
       id="M17463"
       style="fill:#ffff80;fill-opacity:1;stroke:#000000;stroke-width:2.18531;stroke-dasharray:none;stroke-opacity:1" />
    <path
       d="m 413.94,302.41 1.02,-2.75 -3.04,-6.05 4.08,-3.79 -2.45,-5.58 0.21,-6.43 -4.85,-1.51 -9.65,7.24 -6.32,-0.78 3.39,-10.63 3.32,-1.34 0.68,-7.24 2.58,-4.56 4.31,-2.2 -3.12,-5.51 9.49,-3.94 6.48,5.9 4.31,8.85 5.61,-6.44 4.07,-1.19 2.25,-5.84 5.28,-2.13 11.63,-14.55 11.61,4.28 6.9,-6.98 10.73,-2.28 15.21,-0.48 2.93,-4.73 8.51,-2.03 1.46,-3.92 7.12,0.46 9.4,-6.22 3.44,-3.63 5.25,-0.03 1.97,4.25 -5.89,5.23 5.48,1.63 2.99,3.9 -4.16,3.76 1.85,6.99 -1.17,3.07 8.14,7.95 4.95,-0.69 0.28,6.49 3.14,7.32 11.02,-1.98 7.14,2.37 4.05,-3.79 2.06,-6.87 7.51,0.85 1.25,3.39 8.62,2.67 5.89,4.75 -6.9,6.62 -4.05,8.3 -0.88,7.65 1.93,4.4 -6.57,4.66 -12.12,5.22 -6.07,0.49 -3.8,4.19 -2.29,12.45 -5.5,-0.68 -9.05,4.58 -1.81,-4.56 -8.68,-9.84 -7.43,-3.55 -6.96,2.41 -5.59,-3.24 -3.12,-7.48 -5.65,-7.87 5.45,-7.62 -3.19,-4.39 -6.32,6.94 -5.61,-2.26 -7.34,0.05 4.96,6.2 -7.68,2.98 -4.57,-2.86 -6.35,2.04 8.75,4.92 2.12,4.66 4.86,3.25 -3.05,3.95 -3.82,-2.86 -7.52,5.37 1.7,4.76 -4.65,2.24 -1.09,5.44 -10.88,14.54 -12.23,-9.3 -6.09,3.09 -5.66,0.71 -3.25,-7.87 -0.04,-10.7 -2.56,-2.35 -11.44,-2.36 z"
       id="M17461"
       style="fill:#ffff80;fill-opacity:1;stroke:#000000;stroke-width:2.18531;stroke-dasharray:none;stroke-opacity:1" />
    <path
       d="m 265.16,929.16 -4.05,-1.73 -6.86,0.83 -4.65,-4.15 -1.7,-6.82 2.94,-3.35 1.38,-9.88 -3.5,-6.66 2.77,-7.76 -1.5,-3.58 1.63,-6.85 4.42,-1.8 3.15,13.07 4.39,-0.76 0.45,-4.46 7.24,1.33 2,6.31 -2,3.24 6.28,2.18 -1.75,5.98 -6.04,-0.91 -3.28,2.15 z"
       id="M17212"
       style="fill:#ffff80;fill-opacity:1;stroke:#000000;stroke-width:2.18531;stroke-dasharray:none;stroke-opacity:1" />
    <path
       d="m 170.28,954.48 8.86,6.46 12.64,-5.77 5.92,-0.39 3.2,5.01 18.39,1.18 22.55,0.68 14.57,1.74 7.76,2.3 5.53,5.3 1.78,6.07 6.87,4.67 -1.39,6.23 -5.13,4.02 -1.42,8.41 -6.61,9.79 -4.3,0.11 -3.11,9.4 -5.75,2.17 -1.78,3.37 -5.76,-5.32 -3,0.62 -8.73,-4.24 -4.8,3.93 -5.28,-6.03 0.05,-4.94 -8.06,-2.47 -0.11,-4.86 -5.17,-4.43 -5.09,-7.95 -12.22,3.27 -0.58,2.08 -10.65,1.52 -8.04,4.55 1.13,-7.13 -3.66,-0.74 3.81,-8.15 -2.58,-8.39 -4.76,1.16 -0.91,5.77 -20.63,0.47 -8.96,6.95 -3.53,-2.73 7.28,-8.75 20.5,-28.13 7.4,5.36 z"
       id="M17211"
       style="fill:#ffff80;fill-opacity:1;stroke:#000000;stroke-width:2.18531;stroke-dasharray:none;stroke-opacity:1" />
    <path
       d="m 249.99,886.06 1.5,3.58 -2.77,7.76 3.5,6.66 -1.38,9.88 -2.94,3.35 1.7,6.82 4.65,4.15 6.86,-0.83 4.05,1.73 4.59,0.52 7.17,5.74 2.47,3.99 7.22,0.65 -5.25,8.11 3.15,4.74 4.28,1.63 -0.88,4.61 6.49,10.06 -4.15,5.65 1.04,4.93 5.01,-0.56 -0.31,12.34 2.86,7.31 3.47,1.32 -2.41,9.65 8.03,2.73 6.76,5.31 5.13,6.44 11.12,-2.31 3.4,0.75 -0.21,9.36 4.23,3.53 -0.04,4.71 8.44,2.53 10.18,5.57 9.74,12.09 2.52,-1.05 7.84,3.41 0.53,5.79 4.87,1.23 4.9,-3.61 1.71,8 -2.23,3.57 3.85,3.88 1.07,7.93 -1.62,3.19 2.82,12.27 2.26,5.33 3.85,1.91 3.76,5.94 -0.08,6.95 6,4.87 0.13,3.47 13.55,1.37 12.05,11.47 -4.68,13.4 -8.26,11.69 -0.44,5.26 -7.64,6.14 -1.66,8.55 -5.71,4.34 -8.03,13.18 -0.74,7.74 -8.55,5.65 -6.53,-0.2 -6.35,1.98 -1.73,2.92 4.17,5.19 2.86,9.83 3.5,2.25 -1.51,10.43 -4.38,3.03 -1.39,9.22 -3.65,8.63 -6.62,6.09 -1,10.76 -6.77,1.59 -4.64,4.21 -10.04,-1.73 -6.74,0.25 -5.88,2.22 -5.76,5.02 -2.46,-0.5 -12.21,3.45 -3.06,2.93 -10.87,-1.49 -2.9,-7.82 1.32,-6.03 -3.91,-6.78 -6.62,-5.16 -7.01,-1.19 -7.22,-6.24 -5.31,-1.63 -1.76,-7.53 -5.61,-4.74 -0.73,-5.11 -5.74,-3.65 -3.49,0.76 -6.27,-4.53 -3.85,-5.22 -9.63,-3.66 -1.97,-5.89 -5.91,-1.67 -1.34,-6.77 5.33,-11.65 0.04,-7.49 5.86,-10.85 1.25,-6.76 11.05,-9.74 7.73,-0.97 3.95,-12.34 -0.87,-5.79 4.01,-8.29 -0.92,-2.61 4.69,-12.35 -6.78,-1.13 -3.55,-8.85 -4.81,-4.5 -10.93,-4.63 -6.42,0.53 -4.39,3.11 -5.14,-2.79 -0.53,-3.6 3.82,-7.85 -3.76,-4.04 2,-7.43 -2.34,-10.47 7.51,-5.52 0.45,-6.33 6.7,0.38 7.07,-6.89 0.96,-13.82 -2.86,-3.12 2.92,-8.52 4.89,-4.76 -6.58,-16.05 3,-0.62 5.76,5.32 1.78,-3.37 5.75,-2.17 3.11,-9.4 4.3,-0.11 6.61,-9.79 1.42,-8.41 5.13,-4.02 1.39,-6.23 -6.87,-4.67 -1.78,-6.07 -5.53,-5.3 -7.76,-2.3 -8.1,-9.82 -7.12,1.15 -18.41,-10.2 -8.01,-2.15 -1.29,5.38 -6.47,3.32 -9.46,-5 -8.66,0.03 -9.72,-3.88 -2.82,2.17 -6.07,10.09 -3.77,2.17 -7.4,-5.36 10.26,-16.28 9.36,-9.68 13.2,-16.79 1.89,-1.44 27.37,-37.22 3.64,-3.93 8.97,5.15 5.09,-0.8 2.37,9.25 7.74,3.66 z"
       id="M17210"
       style="fill:#ffff80;fill-opacity:1;stroke:#000000;stroke-width:2.18531;stroke-dasharray:none;stroke-opacity:1" />
    <path
       d="m 344.34,667.98 6.9,0.46 5.7,-2.5 4.89,0.47 0.78,6.03 8.76,-1.44 10.49,-0.3 3.1,6.4 6.08,0.15 0.5,4.29 13.84,1.66 4.94,4.74 0.01,2.23 -16.34,3.89 -7.87,5.69 -8.82,-3.78 -4.81,4.29 -1.31,9.32 3.12,3.47 -9.96,14.82 -6.92,3.84 1.17,5.76 -4.23,1.88 -2.35,7.4 -3.73,2.1 -5.89,-1.51 -14.69,1.31 -3.79,4.23 -1.95,11.06 -7.84,-5.51 3.61,-5.38 -12.6,-5.83 21.42,-40.74 z"
       id="M17209"
       style="fill:#ffff80;fill-opacity:1;stroke:#000000;stroke-width:2.18531;stroke-dasharray:none;stroke-opacity:1" />
    <path
       d="m 450.9,598.5 -3.67,-2.95 -7.55,-1.88 -7.16,-0.09 -8.27,1.84 -1.27,-5.13 -3.93,-4.15 -1.88,-5.49 -5.18,-1.03 -12.87,1.08 -6.35,4.9 -0.88,7.4 -5.16,0.72 0.59,7.34 -4.99,-1.61 -13.94,0.43 3.57,-14.87 3.24,-17.73 -0.08,-9.87 -2.5,-6.52 -9.93,-5.63 1.09,-6.71 7.56,-9.07 -2.28,-4.97 5.26,-5.77 1.58,-6.09 6.12,-0.87 4.72,5.05 -0.66,3.58 5.96,7.89 3.68,-5.12 -1.35,-5.3 -3.71,-4.12 3.05,-3.07 6.41,2.76 -5.32,4.42 1.2,5.53 8.36,7.74 7.06,0.14 5.28,-5.57 2.52,5.49 9,0.95 9.11,-3.99 -0.7,7.3 8.55,1.64 5.8,7.53 4.05,13.18 4.64,-0.54 -4.78,6.72 -0.79,6.05 2.5,9.98 3.03,2.81 -1.84,7.48 -4.95,8.13 z"
       id="M17207"
       style="fill:#ffff80;fill-opacity:1;stroke:#000000;stroke-width:2.18531;stroke-dasharray:none;stroke-opacity:1" />
    <path
       d="m 178.12,1229.42 -5.97,1.27 -6.59,9.06 -2.91,1.06 -4,6.63 -5.68,1.46 -5.5,-3.9 -5.86,3.04 -1.98,-4.48 -4.34,-1.02 -5.41,-9.83 -7.08,-1.81 -1.9,-3.06 1.17,-6.09 -2.83,-4.67 -8.3,1.51 -4.99,2.65 -15.59,-2.04 -2.13,3.25 -5.68,0.91 -2.05,-3.27 -7.85,-3.67 -4.65,-9.52 -0.46,-6.26 -5.24,-9.63 -1.26,-7.3 2.36,-7.51 -1.55,-5.24 2.43,-4.69 -11.24,-4.87 -0.99,-9.57 -4.91,-0.83 -4.51,-9.48 -9.02,-2.57 -15.17,-7.85 -4.81,-3.63 -3.81,-5.81 1.71,-8.34 -6.68,-2.17 -3.85,-3.14 9.78,-7.76 7.47,-7.18 7.88,-9.96 1.78,-7.63 5.1,-4.77 2.22,-7.26 5.63,-5.48 10.05,-0.81 5.68,-1.67 17,-9.1 19.22,-16.57 5.84,5.68 3.01,7.34 6.93,4.11 -5.04,9.38 9.47,11.85 5.82,0.05 4.81,6.04 1.2,9.5 -6.15,3.73 -2.93,6.47 7.48,5.43 -1.55,4.68 2.2,8.56 -2.97,4.29 3.54,6.7 3.25,1.41 -0.64,7.47 6.84,3.32 12.92,-1.33 9.2,0.5 4.26,7.93 6.53,2.9 -1.39,8.92 2.9,5.51 4.88,0.64 -0.96,5.81 0.97,11.43 4.28,8.34 0.17,16.21 4.9,2.96 -0.75,13.27 z"
       id="M17206"
       style="fill:#ffff80;fill-opacity:1;stroke:#000000;stroke-width:2.18531;stroke-dasharray:none;stroke-opacity:1" />
    <path
       d="m 712.2,145.25 -7.25,3.63 -8.75,-0.1 -6.41,2.76 -5.31,-0.15 -9.6,4.39 -4.57,-0.45 -18.93,6.54 -2.31,-4 2.02,-3.61 -4.64,-8.85 0.28,-4.07 -4.02,-6.96 -6.34,-3.9 1.06,-6.89 -1.94,-4.7 5.75,-4.89 9.18,-0.81 6.64,-9.09 6.11,-2.68 -2.53,-4.55 -17.52,-4.71 -9.89,-7.19 -0.89,-7.77 3.9,-4.87 -4.11,-4.56 -5.6,0.11 -8.77,5.09 -7.25,-0.14 -4.21,-8 -3.53,-3.04 6.43,-11.44 7.56,-1.21 4.32,-6.22 4.22,-0.12 3.97,-4.2 6.04,-1.68 9.31,-4.89 13.81,-2.96 6.37,-0.46 5.42,2.9 15.75,-6.18 5.69,0.26 4.24,-2.37 7.36,-7.57 4.97,0.6 2.04,-3.29 6.5,0.09 3.91,-4.4 9.02,-5.65 1.6,2.68 6.83,-4.68 5.08,5.76 4.24,-2.55 7.5,3.33 4.02,-1.9 6.14,0.82 9.53,-1.92 1.69,9.12 9.44,2.4 1.02,5.4 5.49,7.88 -7.78,13.65 0.08,3.37 4.92,8.91 7.36,7.53 2.14,12.66 -8.21,6.7 -12.35,3.65 -14.45,1.41 -9.06,-4.67 -8.26,0.5 -9.39,2.6 -12.37,7.29 -3.76,5.18 -5.41,16.31 0.65,9.22 -5.2,6.55 z"
       id="M17205"
       style="fill:#ffff80;fill-opacity:1;stroke:#000000;stroke-width:2.18531;stroke-dasharray:none;stroke-opacity:1" />
    <path
       d="m 392.94,282.76 -8.52,6.27 -5.65,8.48 -6.32,5.59 -6.66,0.2 -5.59,5.15 -7.74,-5.94 -2.88,-5.39 -15.03,-4.13 3.96,-8.22 -2.88,-4 -11.35,2.49 3.66,-3.26 2.66,-7.01 -3.34,-6.12 1.93,-6.98 6.35,-2.25 6.36,-6.93 9.3,-21.2 0.81,-7.96 -2.31,-4.02 -4.95,-1.74 1.98,-9.2 -2.53,-4.25 0.33,-6.77 -2.04,-2.85 2.64,-6.94 10.32,-11.4 9.69,-4.64 2.13,-3.95 -2.66,-3.41 2.72,-9.55 11.87,-0.99 14.92,-9.94 6.43,0.01 6.13,-8.69 13.53,-2.99 12.3,-10.58 13.59,-3.14 9.25,-0.99 7.21,4.36 6.74,0.4 10.62,5.4 7.34,-0.01 12.27,-5.61 9.86,-6.5 8.41,-3.92 5.28,-0.27 8,-7.19 22.33,-10.57 8.94,0.09 11.47,-10.46 2.04,-4.41 7.01,-0.32 10.74,-5.46 6.08,-7.65 3.08,-1.61 3.53,3.04 4.21,8 7.25,0.14 8.77,-5.09 5.6,-0.11 4.11,4.56 -3.9,4.87 0.89,7.77 9.89,7.19 17.52,4.71 2.53,4.55 -6.11,2.68 -6.64,9.09 -9.18,0.81 -5.75,4.89 -19.62,7.09 0.34,5.82 -4.48,1.5 -3.22,-2.94 -6.23,2.42 -2.12,-5.14 -7.13,-1.93 -6.84,2.01 0.9,4.96 -5.64,7.33 -13.6,-7.46 -2.77,-4.11 -5.09,1.58 -5.03,-3.84 -9.49,1.13 -3.08,-2.11 -6.73,5.65 -1.84,3.56 -6.77,1.9 -3.35,4.7 -3.67,0.34 -1.72,6.38 2.79,2.22 -1.11,6.25 6.6,10.19 -5.66,8.62 5.53,8.79 -1,6.24 -4.58,1.04 -1.13,6.06 -4.89,6.82 5.6,4.33 -2.77,7.97 -7.12,-0.46 -1.46,3.92 -8.51,2.03 -2.93,4.73 -15.21,0.48 -10.73,2.28 -6.9,6.98 -11.61,-4.28 -11.63,14.55 -5.28,2.13 -2.25,5.84 -4.07,1.19 -5.61,6.44 -4.31,-8.85 -6.48,-5.9 -9.49,3.94 3.12,5.51 -4.31,2.2 -2.58,4.56 -0.68,7.24 -3.32,1.34 z"
       id="M17204"
       style="fill:#ffff80;fill-opacity:1;stroke:#000000;stroke-width:2.18531;stroke-dasharray:none;stroke-opacity:1" />
    <path
       d="m 131.33,988.17 3.53,2.73 8.96,-6.95 20.63,-0.47 0.91,-5.77 4.76,-1.16 2.58,8.39 -3.81,8.15 3.66,0.74 -1.13,7.13 8.04,-4.55 10.65,-1.52 0.58,-2.08 12.22,-3.27 5.09,7.95 5.17,4.43 0.11,4.86 8.06,2.47 -0.05,4.94 5.28,6.03 4.8,-3.93 8.73,4.24 6.58,16.05 -4.89,4.76 -2.92,8.52 2.86,3.12 -0.96,13.82 -7.07,6.89 -6.7,-0.38 -0.45,6.33 -7.51,5.52 2.34,10.47 -2,7.43 3.76,4.04 -3.82,7.85 0.53,3.6 5.14,2.79 4.39,-3.11 6.42,-0.53 10.93,4.63 4.81,4.5 3.55,8.85 6.78,1.13 -4.69,12.35 0.92,2.61 -4.01,8.29 0.87,5.79 -3.95,12.34 -7.73,0.97 -11.05,9.74 -1.25,6.76 -5.86,10.85 -0.04,7.49 -5.33,11.65 1.34,6.77 -17.97,6 -3.68,-2.88 -6.85,4.52 -10.63,-3 -3.84,-7.64 3.71,-10.5 0.75,-13.27 -4.9,-2.96 -0.17,-16.21 -4.28,-8.34 -0.97,-11.43 0.96,-5.81 -4.88,-0.64 -2.9,-5.51 1.39,-8.92 -6.53,-2.9 -4.26,-7.93 -9.2,-0.5 -12.92,1.33 -6.84,-3.32 0.64,-7.47 -3.25,-1.41 -3.54,-6.7 2.97,-4.29 -2.2,-8.56 1.55,-4.68 -7.48,-5.43 2.93,-6.47 6.15,-3.73 -1.2,-9.5 -4.81,-6.04 -5.82,-0.05 -9.47,-11.85 5.04,-9.38 -6.93,-4.11 -3.01,-7.34 -5.84,-5.68 12.01,-11.51 17.73,-18.49 z"
       id="M17203"
       style="fill:#ffff80;fill-opacity:1;stroke:#000000;stroke-width:2.18531;stroke-dasharray:none;stroke-opacity:1" />
    <path
       d="m 436.4,454.56 2.34,-7.57 2.61,-2.86 -1.28,-6.06 -5.69,-5.4 -4.47,-1.91 -1.16,-6.32 -5.94,2.59 2.65,-10.54 -13.6,-6.79 -5.65,-0.58 -0.48,-5.23 -4.63,-6.29 -10.22,-5.26 -2.4,-9.33 -2.8,-1.37 -4.14,-8.49 2.13,-5.24 3.8,-1.7 1.01,-6.44 -2.74,-2.73 -0.59,-6.35 3.23,-5.51 -0.6,-5.24 3.11,-1.89 7.87,-13.66 0.64,-8.15 5.74,-9.87 3.91,0.17 4.89,-4.13 6.92,-2.42 11.44,2.36 2.56,2.35 0.04,10.7 3.25,7.87 5.66,-0.71 6.09,-3.09 12.23,9.3 -3.1,3.71 -4.75,12.78 -2.33,8.92 13.11,1.53 5.13,1.59 -3.15,7.73 -2.5,14.39 -6.38,-1.67 -2.51,4.22 -4.41,-3.94 -4.46,2.66 -1.41,12.56 2.37,6.57 -6.76,8.67 0.68,4.06 9.48,4.65 10.09,1.76 1.55,-5.4 5.28,2.49 6.21,-6.95 -1.8,-3.67 2.09,-4.87 7.28,-1.63 8.27,4.3 6.8,-0.14 2.11,4.79 -3.9,1.64 0.72,6.26 2.95,3.51 15.79,0.62 -4.88,9 12.15,9.21 2.52,-5.57 5.7,4.43 4.45,-2.98 -1.37,-4.33 5.62,-3.08 2.7,4.18 3.59,-1.75 1.64,-5.17 -3.6,-2.97 5.69,-13.4 1.86,-7.87 5.19,-6.24 0.86,-3.72 9.23,-2.16 5.43,-3.37 8.65,0.66 -3.26,4.76 2.4,8.57 -1.74,8.43 2.88,6.44 -1.37,10.39 -2.41,3.08 0.66,5.96 -1.85,4.84 1.01,4.77 -2.37,4.37 3.95,15.74 -3.46,8.19 0.7,6.89 4.31,7.56 -3.25,6.92 1.12,9.73 4.51,7.59 -3.31,4.91 -10.23,-4.35 -7.45,4.2 -4.12,-1.28 -12.3,2.16 -5.2,-4.58 -7.94,1.25 -6.58,-10.21 -5.41,4.04 -5.81,0.29 -8.44,-4.68 4.73,-5.23 -1.83,-3.97 -7.23,-5.97 -3.64,0.99 -7.4,-3.14 -6.85,-18.72 -3.26,1.55 -12.56,1.18 -5.47,-2.75 -4.16,0.87 -14.68,-2.83 z m 134.76,-123.36 8.35,13.72 -7.3,5.83 -1.78,5.9 3.16,6.14 3.72,1.56 -0.17,5.54 -6.4,5.33 -10.67,0.83 -2.13,4.19 -6.32,-0.35 -6.43,-4.9 -8.14,-0.35 -11.06,12.06 -1.53,6.12 -5.56,-1 -2.06,-5.33 -10.45,6.67 -3.25,-1.62 -1.93,-6.73 -6.32,-11.95 -2.64,-2.57 -6.06,-0.85 -5.58,-8.94 h -6.25 l 0.28,-4.42 -3.33,-2.64 3.45,-8.31 6.99,-2 0.44,3.66 5.51,3.72 -1.35,2.76 0.25,10.11 5.94,-2.91 -0.51,-3.85 6.22,-2.6 11.15,-2.16 5.04,0.31 3.66,-4.27 1.02,-6.23 7.87,6.76 4.6,-3.62 1.88,7.83 3.63,3.05 10.05,1.53 11.56,-7.02 0.94,-12.03 7.27,-8.4 z"
       fill-rule="evenodd"
       id="M17202"
       style="fill:#ffff80;fill-opacity:1;stroke:#000000;stroke-width:2.18531;stroke-dasharray:none;stroke-opacity:1" />
    <path
       d="m 265.16,929.16 1.32,-23.62 3.28,-2.15 6.04,0.91 1.75,-5.98 -6.28,-2.18 2,-3.24 -2,-6.31 -7.24,-1.33 -0.45,4.46 -4.39,0.76 -3.15,-13.07 -4.42,1.8 -1.63,6.85 -0.99,-2.85 -7.74,-3.66 -2.37,-9.25 -5.09,0.8 -8.97,-5.15 5.35,-8.42 14.66,-18.73 2.19,-7.13 -1.18,-2.71 5.61,-4.28 4.41,-5.74 4.52,-1.01 -2.33,-5.68 7,-9.78 3.49,-0.01 9.56,9.69 0.88,2.31 14.81,-16.44 3.22,-2.47 9.23,4.19 10.32,-5.27 4,-5.03 -14.31,-3.17 10.71,-15.1 7.61,5.4 -4.94,7.18 9.73,6.92 5.06,4.96 3.53,-0.47 14.06,4.25 12.68,6.24 1.75,-3.22 9.07,5.21 7.47,-0.3 5.55,3.53 -1.36,2.28 -0.55,10.61 3.57,11.71 -0.1,7.98 4.18,2.79 0.8,5.79 -3.11,12.09 8.23,0.92 6.66,7.27 3.82,6.95 -3.04,13.07 -6.36,13.88 -6.33,10.4 1.42,7.84 -1.54,5.03 5.5,10.32 -5.06,8.75 1.95,11.62 -6.53,6.48 -0.11,4.54 4.44,5.35 -6.35,4.42 -5.82,6.7 -6.23,0.15 -0.66,6.56 1.94,8.26 5.44,-0.3 11.64,11.64 2.18,15.17 1.64,3.14 0.07,9.99 4.34,5.42 -0.49,7 -13.43,6.33 -1.94,5.31 -4.9,3.61 -4.87,-1.23 -0.53,-5.79 -7.84,-3.41 -2.52,1.05 -9.74,-12.09 -10.18,-5.57 -8.44,-2.53 0.04,-4.71 -4.23,-3.53 0.21,-9.36 -3.4,-0.75 -11.12,2.31 -5.13,-6.44 -6.76,-5.31 -8.03,-2.73 2.41,-9.65 -3.47,-1.32 -2.86,-7.31 0.31,-12.34 -5.01,0.56 -1.04,-4.93 4.15,-5.65 -6.49,-10.06 0.88,-4.61 -4.28,-1.63 -3.15,-4.74 5.25,-8.11 -7.22,-0.65 -2.47,-3.99 -7.17,-5.74 z"
       id="M17201"
       style="fill:#ffff80;fill-opacity:1;stroke:#000000;stroke-width:2.18531;stroke-dasharray:none;stroke-opacity:1" />
    <path
       d="m 416.7,525.71 5.38,-1.61 6.7,-7.2 5.99,-4.2 -4.64,-13.04 -1.49,-8.63 0.78,-6.11 4.31,-8.3 1.05,-17.83 1.62,-4.23 6.3,8.18 14.68,2.83 4.16,-0.87 5.47,2.75 12.56,-1.18 3.26,-1.55 6.85,18.72 7.4,3.14 3.64,-0.99 7.23,5.97 1.83,3.97 -4.73,5.23 8.44,4.68 5.81,-0.29 5.41,-4.04 6.58,10.21 -3.14,12.29 -5.53,6.36 -7.45,-3.94 -6.67,-6.48 -3.74,0.4 -15.1,7.06 -3.72,9.06 -5.31,6.27 -6.54,3.58 -7.33,1.57 -2.87,5.99 -4.22,3.79 -4.64,0.54 -4.05,-13.18 -5.8,-7.53 -8.55,-1.64 0.7,-7.3 -9.11,3.99 -9,-0.95 z"
       id="M17407"
       style="fill:#ffff80;fill-opacity:1;stroke:#000000;stroke-width:2.18531;stroke-dasharray:none;stroke-opacity:1" />
    <path
       d="m 305.13,747.22 12.6,5.83 -3.61,5.38 7.84,5.51 -4.99,7.23 -10.71,15.1 -11.31,-2.33 -8.51,-6.01 14.59,-22.98 z m -8.11,48.33 -3.22,2.47 -14.81,16.44 -0.88,-2.31 -9.56,-9.69 5.56,-5.48 12,-17.83 9.4,7.74 -2.22,6.47 z"
       fill-rule="evenodd"
       id="M17365"
       style="fill:#ffff80;fill-opacity:1;stroke:#000000;stroke-width:2.18531;stroke-dasharray:none;stroke-opacity:1" />
    <path
       d="m 410.32,687.94 5.62,-4.65 2.61,-5.83 3.78,5.17 0.44,9.6 7.93,6.25 -4.31,9.44 -4.29,2.58 -8.13,1.98 -1.33,8.33 -14.52,0.54 -4.12,2.74 -2.8,8.48 6.45,6.84 10.21,6.05 -1.48,16.08 4.64,-0.41 3.54,4.29 -1.42,5.04 2.31,4.68 -3.69,1.88 -3.28,7.45 -4.86,5.46 0.23,4.55 -5.57,3.06 0.1,7.28 -4.31,4.76 -5.53,1.29 -5.55,-3.53 -7.47,0.3 -9.07,-5.21 -1.75,3.22 -12.68,-6.24 -14.06,-4.25 -3.53,0.47 -5.06,-4.96 -9.73,-6.92 4.94,-7.18 -7.61,-5.4 4.99,-7.23 1.95,-11.06 3.79,-4.23 14.69,-1.31 5.89,1.51 3.73,-2.1 2.35,-7.4 4.23,-1.88 -1.17,-5.76 6.92,-3.84 9.96,-14.82 -3.12,-3.47 1.31,-9.32 4.81,-4.29 8.82,3.78 7.87,-5.69 16.34,-3.89 z"
       id="M17361"
       style="fill:#ffff80;fill-opacity:1;stroke:#000000;stroke-width:2.18531;stroke-dasharray:none;stroke-opacity:1" />
    <path
       d="m 256.41,963.39 -14.57,-1.74 -22.55,-0.68 -18.39,-1.18 -3.2,-5.01 -5.92,0.39 -12.64,5.77 -8.86,-6.46 6.07,-10.09 2.82,-2.17 9.72,3.88 8.66,-0.03 9.46,5 6.47,-3.32 1.29,-5.38 8.01,2.15 18.41,10.2 7.12,-1.15 z"
       id="M17324"
       style="fill:#ffff80;fill-opacity:1;stroke:#000000;stroke-width:2.18531;stroke-dasharray:none;stroke-opacity:1" />
  </g>
</svg>
