<?xml version="1.0" encoding="UTF-8" standalone="no"?>
<svg
   version="1.2"
   width="385.55508"
   height="599.99994"
   viewBox="0 0 385.55508 599.99994"
   stroke-linecap="round"
   stroke-linejoin="round"
   id="svg3964"
   sodipodi:docname="iw.svg"
   inkscape:version="1.2 (dc2aedaf03, 2022-05-15)"
   xmlns:inkscape="http://www.inkscape.org/namespaces/inkscape"
   xmlns:sodipodi="http://sodipodi.sourceforge.net/DTD/sodipodi-0.dtd"
   xmlns="http://www.w3.org/2000/svg"
   xmlns:svg="http://www.w3.org/2000/svg">
  <defs
     id="defs3968" />
  <sodipodi:namedview
     id="namedview3966"
     pagecolor="#505050"
     bordercolor="#eeeeee"
     borderopacity="1"
     inkscape:showpageshadow="0"
     inkscape:pageopacity="0"
     inkscape:pagecheckerboard="0"
     inkscape:deskcolor="#505050"
     showgrid="false"
     inkscape:zoom="0.66586345"
     inkscape:cx="114.13752"
     inkscape:cy="300.36188"
     inkscape:window-width="1920"
     inkscape:window-height="1009"
     inkscape:window-x="-8"
     inkscape:window-y="-8"
     inkscape:window-maximized="1"
     inkscape:current-layer="svg3964" />
  <g
     id="iw"
     transform="matrix(0.48189863,0,0,0.48189863,0.01808359,0.01806198)"
     style="fill:#ffff80;fill-opacity:1;stroke:#000000;stroke-width:2.07513;stroke-dasharray:none;stroke-opacity:1">
    <path
       d="m 80.93,623.37 6.4,8.97 6.19,0.81 11.04,-3.34 12.54,13 -2.75,3.73 6.27,9.59 6.19,16.04 -3.23,2.56 6.71,10.86 3.27,5.78 -5.69,6.41 3.14,15.19 -4.11,2.37 -4.41,18.37 -11,14.18 -6.8,-3.94 -7.7,12.8 1.09,11.95 6.29,0.75 6.03,5.94 -1.28,9.21 7.66,4.41 -0.51,6.98 7.99,6.43 1.17,14.52 4.76,3.58 6.54,12.37 -3.29,9.72 4.79,11.25 -11.4,18.56 0.05,6.1 7.32,7.97 -4.43,8.3 -15.49,14.44 1.65,23.95 -13.68,8.92 -3.43,-6.93 -10.84,-2.76 -5.88,-8.4 -5,0.98 -13.31,-6.64 -1.01,-11.23 4.17,-7.43 9.65,-2.41 0.58,-8.46 -6.46,-2.28 -4.64,-7.91 -28.74,-14.64 -0.28,-17.37 -13.36,-2.24 -0.4,-10.07 3.22,-10.89 5.95,-1.06 -3.34,-9.97 -8.31,-2.86 -0.03,-8.59 -7.18,-6.55 1.87,-10.8 -7.58,-0.81 -6.9,-4.74 5.89,-9.42 -3.07,-7.57 12.86,-3.09 2.53,-13.74 -4.84,-8.12 7.05,-11.95 15.15,-10.01 -1.56,-15.05 5.13,-3.55 1.04,-10.5 6.7,-2.17 2.7,-10.75 -1.04,-7.78 -5.83,-4.47 0.68,-9.39 13.46,-3.55 5.61,-12.51 6.23,-2.3 4.02,-9.55 z"
       id="M03366"
       style="fill:#ffff80;fill-opacity:1;stroke:#000000;stroke-width:2.07513;stroke-dasharray:none;stroke-opacity:1" />
    <path
       d="m 357.65,309.81 10.26,15.06 0.55,15.92 16.86,8.75 0.59,2.9 21.96,1.82 2.25,6.43 -4.25,11.25 8.77,15.38 8.23,7.91 -1.91,12.81 6.03,5.84 13.34,5.81 -3.77,22.91 -8.45,-2.5 -13.24,4.63 -9.72,-3.49 -7.65,2.85 -12.74,-0.65 -6.02,10.21 -8.71,-1.41 -3.27,-6.79 -8.63,3.67 -0.64,-8.55 4.66,-4.41 -9.77,-6.43 -1.41,-18.56 -7.63,-8.43 -16.04,2.39 -4.74,-3.72 -14.62,-1.04 -5.95,-13.06 -13.27,-3.36 -4.99,2.46 -8.24,-12.21 -7.19,-4.78 2.23,-6.15 9.16,-6.15 -11.18,-20.84 -0.51,-15.17 -2.96,-6.76 2.17,-10.16 12.9,-9.39 -0.89,-7.86 6.21,-13.52 6.91,3.87 10.17,10.94 19.3,1.91 11.26,2.9 4.72,8.9 14.21,0.1 z"
       id="M03303"
       style="fill:#ffff80;fill-opacity:1;stroke:#000000;stroke-width:2.07513;stroke-dasharray:none;stroke-opacity:1" />
    <path
       d="m 440.33,419.69 -13.34,-5.81 -6.03,-5.84 1.91,-12.81 -8.23,-7.91 -8.77,-15.38 4.25,-11.25 -2.25,-6.43 -21.96,-1.82 -0.59,-2.9 -16.86,-8.75 -0.55,-15.92 -10.26,-15.06 6.47,-7.12 -5.39,-6.45 4.3,-7.5 8.88,5.67 9.56,-4.93 6.07,2.38 13.52,-9.07 -6.78,-6.74 -9.14,-25.34 -0.47,-11.76 -3.61,-5.43 9.34,-8.08 5.7,1.85 5.76,-6.23 10.91,-1.27 6.78,1.81 -7,11.27 12.67,9.69 4.31,11.82 14.24,2.56 12.25,-10.13 1.82,6.01 10.33,4.51 1.54,11.27 8.85,7.09 7.49,-2.72 5.43,5.18 -0.02,13.22 4.17,7.14 -0.01,11.03 7.43,4.39 1.82,8.17 10.44,12.92 8.99,18.6 0.59,12.89 -1.94,9.86 -12.23,8.75 2.63,9.38 -7.93,9.44 -20.29,-5.2 -6.06,4.98 -7.36,-0.61 -4.54,8.76 1.25,6.83 -8.08,6.21 -15.38,-7.14 z"
       id="M03302"
       style="fill:#ffff80;fill-opacity:1;stroke:#000000;stroke-width:2.07513;stroke-dasharray:none;stroke-opacity:1" />
    <path
       d="m 295.92,1048.34 8.2,13.21 -4.81,9.92 -11.81,1.88 -4.47,5.78 -8.48,-1.32 -6.85,7.09 1.84,6.21 -10.34,0.51 -0.06,-6.42 -9.46,-0.6 -12.71,5.53 -2.78,-2.8 -21.67,-2.33 -7.48,-3.83 -5.34,-8.84 21.71,-11.72 7.1,1.46 23.58,-5.07 6.31,0.41 -0.27,-9.26 9.83,4 5.79,-5.88 12.8,6.26 z"
       id="M03402"
       style="fill:#ffff80;fill-opacity:1;stroke:#000000;stroke-width:2.07513;stroke-dasharray:none;stroke-opacity:1" />
    <path
       d="m 130.29,685.59 -6.71,-10.86 3.23,-2.56 -6.19,-16.04 -6.27,-9.59 2.75,-3.73 -12.54,-13 -11.04,3.34 -6.19,-0.81 -6.4,-8.97 5.45,-7.17 1.12,-13.53 7.43,-15.65 1.56,-9.27 -2.57,-10.7 2.35,-5.69 -7.14,-7.72 v -7 l -8.68,-1.15 -6.19,-11.6 -1.49,-9.17 9.4,-2.33 4.8,-4.7 -0.41,-6.62 5.87,-4.3 2.12,-6.82 16.16,-15.67 -3.72,-8.54 -9.59,-3.77 -6.48,-5.69 -5.45,1.88 -9.35,-5.92 1.02,-21.23 -3.57,-11.36 9.72,-10.14 8.13,1.89 8.18,-4.18 8.2,9.77 8.01,1.37 11.56,-3.44 12.07,20.31 10.44,-0.25 12.17,5.13 8.97,-7.46 6.43,-1.2 9.63,6.86 9.21,-0.74 5.14,12.52 -2.91,10.15 -0.55,26.83 10.21,7.9 -0.46,11.62 -3.86,9.1 1.13,13.55 7.86,11.94 -9.1,6.98 -4.81,15.53 4.83,14.27 9.92,0.46 5.19,-3.99 8.1,10.39 -6.04,4.16 6.96,10.54 -5.06,4.76 8.17,12.43 -1.31,8.13 -10.23,-2.99 -4.03,10.78 -11.69,3.65 -7.5,-3.6 -16.7,-2.36 -3.37,8.4 -0.62,12 4.93,3.99 -9.35,10.61 -15.99,-4.96 -3.97,-3.46 -15.58,7.31 z"
       id="M03301"
       style="fill:#ffff80;fill-opacity:1;stroke:#000000;stroke-width:2.07513;stroke-dasharray:none;stroke-opacity:1" />
    <path
       d="m 231.01,626.71 -8.17,-12.43 5.06,-4.76 -6.96,-10.54 6.04,-4.16 5.33,4.7 20.68,1.11 12.76,-11.16 12.62,6.17 2.9,5.04 14.36,1.73 2.17,8.6 6.61,7.5 2.56,9.08 -0.81,4.83 -12.34,8.7 -10.73,-4.16 -5.31,0.69 -2.68,7.78 -7.28,-3.73 -15.2,-1.23 -4.74,-7.84 -11.1,-9.18 z"
       id="M03322"
       style="fill:#ffff80;fill-opacity:1;stroke:#000000;stroke-width:2.07513;stroke-dasharray:none;stroke-opacity:1" />
    <path
       d="m 180.49,664.71 -4.93,-3.99 0.62,-12 3.37,-8.4 16.7,2.36 7.5,3.6 11.69,-3.65 4.03,-10.78 10.23,2.99 1.31,-8.13 5.77,-3.26 11.1,9.18 4.74,7.84 15.2,1.23 7.28,3.73 2.68,-7.78 5.31,-0.69 10.73,4.16 12.34,-8.7 0.81,-4.83 15.63,-6.52 8.37,2.33 6.66,8.59 10.33,7.11 5.57,-7.53 -1.01,-8.65 6.21,-0.81 5.06,11.72 6.25,6.66 -2.38,5.37 -5.73,3.6 -5.21,13.99 2.57,11.23 -2.95,10.01 6.06,7.08 -4.6,4.12 -0.18,7.29 -5.32,7.45 -7.34,-0.03 -2.72,-5.11 -16.06,3.47 -10.64,-3.3 -18.27,-10.61 -24.7,-4.63 -14.53,3.5 -15.94,-12.65 -7.61,0.86 -7.37,-3.96 -16.17,2.45 -8.54,-3.55 -2.9,-5.69 z"
       id="M03321"
       style="fill:#ffff80;fill-opacity:1;stroke:#000000;stroke-width:2.07513;stroke-dasharray:none;stroke-opacity:1" />
    <path
       d="m 732.1,771.82 -8.41,10.58 4.07,9.55 10.94,-4.95 0.11,7.68 -4.18,8.69 -11.4,4.23 -9.96,-3.78 -2.34,7.09 -8.95,-2.8 -8.89,4.1 -23.77,-17.02 -6.91,0.59 -8.17,-4.68 -13.68,1.65 0.21,-6.5 -8.52,-7.37 -5.88,1.76 -11.22,-4.69 -1.95,-12.74 0.19,-8.5 -12.34,-4.59 0.49,-12.47 -3.37,-11.83 -7.13,-11.74 2.49,-14.68 7.42,-6.67 9.4,-2.15 1.13,-8.66 5.52,-4.81 9.61,8.43 9.34,2.54 2.35,7.12 6.81,4.05 9.05,14.99 3.28,10.76 11.32,2.99 1.61,6.18 10.11,11.49 2.59,10.98 7.29,2.99 2.96,7.1 7.42,5.07 4.76,-1.92 21.36,-0.55 z"
       id="M03461"
       style="fill:#ffff80;fill-opacity:1;stroke:#000000;stroke-width:2.07513;stroke-dasharray:none;stroke-opacity:1" />
    <path
       d="m 729.59,340.52 -6.44,1.82 -8.49,9.68 -9.77,-1.8 -15.77,10.68 -3.2,-11.59 -16.31,1.37 -7.37,2.55 -16.65,-3.67 1.22,-7.77 -3.14,-11.13 9.39,-7.31 12.9,-5.92 2.45,-14.75 8.56,-10.81 13.26,6.24 4.78,11.55 5.27,4.39 1.76,7.52 9.23,5.27 10.91,-1.25 z"
       id="M03485"
       style="fill:#ffff80;fill-opacity:1;stroke:#000000;stroke-width:2.07513;stroke-dasharray:none;stroke-opacity:1" />
    <path
       d="m 645.59,349.56 16.65,3.67 7.37,-2.55 16.31,-1.37 3.2,11.59 15.77,-10.68 9.77,1.8 8.49,-9.68 6.44,-1.82 4.17,4.25 -1.01,8.93 3.37,17.76 -8.35,0.9 -3.1,19.34 5.7,8.22 5.51,15.34 -8.56,3.95 -15.69,15.42 -11.36,2.99 -1.45,-3.81 -29,-7.69 -6.05,-9.01 -3.67,-12.62 -25.29,6.97 -2.16,-7.17 1.04,-11.1 4.8,-15.61 -2.37,-2.94 6.14,-11.43 z"
       id="M03484"
       style="fill:#ffff80;fill-opacity:1;stroke:#000000;stroke-width:2.07513;stroke-dasharray:none;stroke-opacity:1" />
    <path
       d="m 468.42,418.7 -1.25,-6.83 4.54,-8.76 7.36,0.61 6.06,-4.98 20.29,5.2 7.93,-9.44 -2.63,-9.38 12.23,-8.75 1.94,-9.86 -0.59,-12.89 -8.99,-18.6 -10.44,-12.92 -1.82,-8.17 -7.43,-4.39 0.01,-11.03 21.08,1.3 7.39,3.92 8.41,10.88 13.94,-2.11 14.68,12.06 6.66,1.86 17.22,-7.05 7.77,6.84 9.94,-0.81 13.39,-13.85 5.83,-2.18 3.77,5.44 27.35,8.54 -9.39,7.31 3.14,11.13 -1.22,7.77 -3.33,13.65 -6.14,11.43 2.37,2.94 -4.8,15.61 -1.04,11.1 2.16,7.17 25.29,-6.97 3.67,12.62 6.05,9.01 29,7.69 1.45,3.81 11.36,-2.99 15.69,-15.42 8.56,-3.95 6.3,1.89 4.47,15.21 -2.43,13.06 3.02,11.24 -0.23,0.07 -0.53,0.14 -2.46,4.28 -19.46,3.71 -2.77,7.54 -10.78,1.41 -4.12,6.71 -9.71,2.52 8.57,9.14 -0.71,7.63 -9.92,13.33 -4.32,2.64 -16.8,2.46 -13.24,12.07 -4.75,-0.82 -8.36,5.95 -9.38,-3.3 -8.28,-6 -8.18,3.19 -8.76,-6.72 -2.31,-7.08 -9.39,3.8 -7.71,-5.79 -5.06,0.7 -9.19,7.41 -14.32,-9.58 -16.49,0.16 -1.63,12.45 -9.72,6.41 -2.93,14.9 -11.58,-0.64 -9.87,-5.82 -7.53,10.03 -12.48,0.91 -17.32,-2.85 -5.34,2.69 -9.96,12.12 -6.13,3.76 -18.22,3.28 -9.93,-10.91 0.04,-6.92 -6.95,-4.53 1.83,-9.05 -2.69,-7.01 3.47,-5.26 -2.03,-7.96 7.35,-9.06 6.59,2.66 21.04,-7.9 8.3,1.5 5.95,-8.84 2.74,-10.31 5.28,-2.22 -0.49,-10.03 10.22,-0.89 2.15,-7.43 -2.1,-12.08 -7.15,-14.66 1.26,-17.23 z"
       id="M03483"
       style="fill:#ffff80;fill-opacity:1;stroke:#000000;stroke-width:2.07513;stroke-dasharray:none;stroke-opacity:1" />
    <path
       d="m 732.1,771.82 -5.24,-2.49 -21.36,0.55 -4.76,1.92 -7.42,-5.07 -2.96,-7.1 -7.29,-2.99 -2.59,-10.98 -10.11,-11.49 -1.61,-6.18 -11.32,-2.99 -3.28,-10.76 -9.05,-14.99 -6.81,-4.05 -2.35,-7.12 -9.34,-2.54 -9.61,-8.43 2.96,-7.98 9.27,-1.25 9.13,-4.53 17.32,-4.47 9.93,3.38 11.24,-6.4 13.26,-3.5 12.3,11.34 21.23,-3.1 10.13,5.31 8.31,0.2 6.02,17.47 16.41,15.01 0.68,14.85 -10.57,-2.82 -12.04,1.41 -8.78,4.53 -1.24,6.27 5.27,12.09 9.26,8.05 6.17,-8.06 6.62,-3.63 3.69,-7.17 9.81,-6.11 5.44,-6.64 7.04,0.13 6.16,8.99 -11.76,16.83 3.08,14.12 -7.22,8.18 -7.35,-6.05 -5.72,-0.28 -1.6,10.12 -12.76,1.71 1.57,-6.66 -6.1,-3.37 z"
       id="M03482"
       style="fill:#ffff80;fill-opacity:1;stroke:#000000;stroke-width:2.07513;stroke-dasharray:none;stroke-opacity:1" />
    <path
       d="m 588.38,868.28 5.07,1.64 -0.45,14.99 3.22,7.57 -5.77,9.97 7.56,0.99 7.71,10.92 -10.42,9.37 -17.67,10.12 -11.32,-0.64 -10.34,4.45 2.72,6.29 -7.1,7.61 -0.51,9.12 -6.68,7.76 -1.03,10.11 4.58,1.71 -16,8.19 -10.47,-7.54 -10.96,-0.24 -3.17,9.35 -5.17,1.23 -7.23,-5.74 -6.91,4.25 -2.21,-8.67 -10.48,1.12 -16.8,-11.2 0.58,12.67 -2.78,4.43 -13.16,-6.43 -14.18,2.28 -4.73,-8.78 0.58,-11.85 -7.63,-3.6 -0.59,-12.84 -4.09,-2.68 2.02,-7.42 -1.37,-9.11 8.82,-11.8 22.08,6.51 1.77,-6.43 6.92,0.74 9.32,-7.61 4.33,-7.39 -1.61,-9.88 10.52,-3.95 7.81,1.93 3.37,-6.13 13.85,1.62 11.9,-12.01 8.52,1.27 9.54,10.62 6.64,-6.3 12.21,3.66 4.18,-3.68 13.14,6.56 18.3,-16.8 z"
       id="M03441"
       style="fill:#ffff80;fill-opacity:1;stroke:#000000;stroke-width:2.07513;stroke-dasharray:none;stroke-opacity:1" />
    <path
       d="m 212.85,551.18 -7.86,-11.94 -1.13,-13.55 3.86,-9.1 0.46,-11.62 -10.21,-7.9 0.55,-26.83 2.91,-10.15 -5.14,-12.52 0.43,-6.71 18.01,-7.39 13.45,-3.97 11.07,4.52 5.33,-9.82 6.96,-2.9 6.15,13.82 1.14,13 8.81,-0.08 3.6,9.3 11.81,5.67 -0.24,7.82 3.54,6.06 4.27,17.41 -2.52,9.07 -9.47,-3.28 -10.12,2.73 -16.36,27.03 -10.66,6.77 -1.28,13.25 -17.09,9.97 z"
       id="M03216"
       style="fill:#ffff80;fill-opacity:1;stroke:#000000;stroke-width:2.07513;stroke-dasharray:none;stroke-opacity:1" />
    <path
       d="m 642.88,115.02 -7.78,4.25 -0.36,5.52 -10.55,7.09 -10.66,-1.65 -5.51,3.57 -3.17,9.89 0.57,9.13 -7.11,1.91 -21.55,1.59 3.15,15.37 -17.44,3.69 -19.26,-3.49 -18.5,-10.52 -0.53,-5.46 15.55,-3.12 0.28,-18.31 -14.6,-6.17 1.55,-13.05 -5.98,-3.34 -1.44,-17.78 7.7,-14.57 6.13,-0.36 3.18,-8.99 -12.06,-8.7 -1.41,-4.07 -0.07,-18.15 7.81,-10.13 20.37,-6 11.83,-5.47 9.89,-7.08 7.11,-9.62 12.39,20.24 4.91,2.16 4.47,15.98 19.02,22.46 -0.37,9.13 9.55,7.52 2.08,18.42 5.55,6.39 z"
       id="M03507"
       style="fill:#ffff80;fill-opacity:1;stroke:#000000;stroke-width:2.07513;stroke-dasharray:none;stroke-opacity:1" />
    <path
       d="m 456.02,246.81 -12.25,10.13 -14.24,-2.56 -4.31,-11.82 -12.67,-9.69 7,-11.27 2.16,-8.42 -6.18,-8.97 -3.94,-16.21 4.26,-8.68 0.57,-8.03 -3.42,-11.25 -1.85,-16.5 -4.91,-10.07 17.02,-7.22 9.08,3.74 9.68,-0.54 3.87,9.89 7.88,6.06 1.23,9.46 13.21,5.56 13.09,9.58 -2.74,7.5 -5.92,3.57 1.95,7 -7.21,5.52 2.95,7.49 -4.81,8.02 -1.79,13.03 -10.92,11.88 z"
       id="M03506"
       style="fill:#ffff80;fill-opacity:1;stroke:#000000;stroke-width:2.07513;stroke-dasharray:none;stroke-opacity:1" />
    <path
       d="m 676.97,291.87 -8.56,10.81 -2.45,14.75 -12.9,5.92 -27.35,-8.54 -3.77,-5.44 1.46,-10.04 -6.76,-4.89 -5.07,-8.03 -2.82,-12.74 6.29,-11.15 7.67,-4.98 7.05,-8.55 7.27,1.88 3.31,-5.44 11.24,1.66 7.69,-14.55 10.8,4.13 -7.75,12.75 -1.82,8.82 3.06,7.2 1.16,12.32 z"
       id="M03503"
       style="fill:#ffff80;fill-opacity:1;stroke:#000000;stroke-width:2.07513;stroke-dasharray:none;stroke-opacity:1" />
    <path
       d="m 523.08,57.45 1.41,4.07 12.06,8.7 -3.18,8.99 -6.13,0.36 -7.7,14.57 1.44,17.78 5.98,3.34 -1.55,13.05 14.6,6.17 -0.28,18.31 -15.55,3.12 0.53,5.46 -5,3.25 -10.51,-3.59 -13.01,4.37 -7.05,-4.51 -2.6,9.4 -5.24,-0.29 -13.09,-9.58 -13.21,-5.56 -1.23,-9.46 -7.88,-6.06 -3.87,-9.89 -9.68,0.54 -9.08,-3.74 -17.02,7.22 -6.17,-22 -5.18,-4.51 1.59,-7.51 -2.98,-10.43 17.54,-10.43 8.61,-16.32 5.34,7.49 11.5,-5.79 7.98,-8.14 7.14,2.24 6.63,-3.23 8.09,0.92 15.04,9.75 4.47,6.96 13.43,4.08 9.56,-9.79 4.46,-0.25 z"
       id="M03501"
       style="fill:#ffff80;fill-opacity:1;stroke:#000000;stroke-width:2.07513;stroke-dasharray:none;stroke-opacity:1" />
    <path
       d="m 357.65,309.81 -5.65,-7.77 -14.21,-0.1 -4.72,-8.9 -11.26,-2.9 -19.3,-1.91 -10.17,-10.94 -6.91,-3.87 -0.57,-5.96 2.27,-9.1 11.18,-10.69 4.86,-10.13 -4.19,-24.17 5.91,-12.13 -1.04,-8.72 10.5,-6.09 3.99,-5.16 10.98,-0.88 3.82,-7.35 9.09,-3.9 1.07,-10.91 18.98,-10.51 4.28,7.1 11.95,2.51 5.33,6.15 12.82,4.23 9.48,-6.17 6.86,-1.5 3.42,11.25 -0.57,8.03 -4.26,8.68 3.94,16.21 6.18,8.97 -2.16,8.42 -6.78,-1.81 -10.91,1.27 -5.76,6.23 -5.7,-1.85 -9.34,8.08 3.61,5.43 0.47,11.76 9.14,25.34 6.78,6.74 -13.52,9.07 -6.07,-2.38 -9.56,4.93 -8.88,-5.67 -4.3,7.5 5.39,6.45 z"
       id="M03524"
       style="fill:#ffff80;fill-opacity:1;stroke:#000000;stroke-width:2.07513;stroke-dasharray:none;stroke-opacity:1" />
    <path
       d="m 87.98,932.41 10.84,2.76 3.43,6.93 13.68,-8.92 9,2.11 9.64,-5.28 5.71,7.4 4.29,-0.73 30.47,16.46 18.4,11.48 13.75,3 6.2,-1.76 6.85,-10.46 9.35,-2.94 15.98,-9.2 11.28,-13.77 17.52,-5.83 -7.65,-6.36 2.68,-13.51 -4.34,-5.23 -10.69,-3.52 4.41,-4.21 17.98,-4.5 -0.94,-6.14 5.08,-3.98 8.63,0.66 1.85,-8.8 13.57,-6.25 10.47,8.18 6.43,1.92 17.08,-7.38 -2.12,-6.97 -7.12,-8.79 -0.1,-9.4 6.62,-6.02 7.44,1.22 17.51,-3.75 8.77,21.14 13.98,8.96 3.96,9.11 9.14,2.85 14.26,9.96 1.68,9.08 11.14,21.6 -2.07,2.35 -8.82,11.8 1.37,9.11 -2.02,7.42 -7.51,9.83 -8.5,0.79 -3.31,11.96 -5.65,-5.66 -7.59,4.88 -13.8,-0.01 2.06,12.82 -1.7,8.86 6.19,13.73 -9.85,-0.57 -5.25,-4.33 -10.04,-0.67 -16.6,19.78 -6.35,0.94 -11.67,7.43 -5.28,9.36 -0.36,6.85 -7.66,1.92 -3.76,6.22 -9.37,4.19 -12.8,-6.26 -5.79,5.88 -9.83,-4 0.27,9.26 -6.31,-0.41 -23.58,5.07 -7.1,-1.46 -21.71,11.72 -12.82,-8.4 -11.52,-0.23 -17.51,4.65 -6.51,-3.33 -1.52,-14.2 -5.24,-6.54 -1.47,-10.2 -7.27,-8.09 -23.62,9.81 -4.75,10.57 -6.36,-1.63 -10.21,5.94 -11.62,0.03 -4.2,-3.3 6.28,-11.8 -1.44,-4.13 6.55,-7.47 -3.22,-7.83 0.3,-9.93 -11.88,-4 -3.88,2.45 -10.72,-5.31 5.82,-16.56 -4.15,-6.66 7.94,-4.44 -11.4,-11.78 8.9,-8.63 4.69,-11.08 z"
       id="M03215"
       style="fill:#ffff80;fill-opacity:1;stroke:#000000;stroke-width:2.07513;stroke-dasharray:none;stroke-opacity:1" />
    <path
       d="m 285.43,273.42 -6.21,13.52 0.89,7.86 -12.9,9.39 -2.17,10.16 2.96,6.76 0.51,15.17 11.18,20.84 -9.16,6.15 -2.23,6.15 7.19,4.78 8.24,12.21 7.41,13.6 -11.48,7.81 -8.53,11.11 -9.79,-0.68 -9.8,3.05 -6.96,2.9 -5.33,9.82 -11.07,-4.52 -13.45,3.97 -18.01,7.39 -0.43,6.71 -9.21,0.74 -9.63,-6.86 -6.43,1.2 -8.97,7.46 -12.17,-5.13 -10.44,0.25 -12.07,-20.31 0.99,-6.62 -6.74,-11.96 0.22,-8.81 -7.51,-8.53 -1.37,-9.62 2.78,-12.2 -4.73,-6.54 -1.08,-10.44 2.21,-12.91 -1.02,-10.51 3.64,-4.3 -2.84,-13.06 2.79,-11.02 -6.13,-20.49 10.6,-7.62 7.88,-9.66 0.75,-12.46 -6.45,-11.47 8.97,-16.89 -7.89,-4.34 -5.54,-8.91 18.62,-15.24 -1.6,-6.08 3.52,-9.65 5.46,-6.26 20.65,-4.82 -1.19,-8.52 8.43,-5.44 5.79,5.83 2.28,8.45 5.99,6.35 6.38,-2.3 8.23,3.56 11.22,-2.77 3.21,10.56 -3.26,23.77 6.67,14.97 8.61,3.49 5.06,7.07 8.39,2.04 16.45,0.7 1.45,10.07 5.59,3.83 7.74,17.01 5.93,-1.03 8.34,5.31 z"
       id="M03214"
       style="fill:#ffff80;fill-opacity:1;stroke:#000000;stroke-width:2.07513;stroke-dasharray:none;stroke-opacity:1" />
    <path
       d="m 406.24,133.47 4.91,10.07 1.85,16.5 -6.86,1.5 -9.48,6.17 -12.82,-4.23 -5.33,-6.15 -11.95,-2.51 -4.28,-7.1 -18.98,10.51 -1.07,10.91 -9.09,3.9 -3.82,7.35 -10.98,0.88 -3.99,5.16 -10.5,6.09 1.04,8.72 -5.91,12.13 4.19,24.17 -4.86,10.13 -11.18,10.69 -2.27,9.1 -8.34,-5.31 -5.93,1.03 -7.74,-17.01 -5.59,-3.83 -1.45,-10.07 -16.45,-0.7 -8.39,-2.04 -5.06,-7.07 -8.61,-3.49 -6.67,-14.97 3.26,-23.77 -3.21,-10.56 0.48,-3.6 11.09,-7.8 7.54,-0.85 9.25,-10.56 7.76,0.35 11.17,-6.55 -5.77,-14.1 19.46,-10.75 2.24,-4.24 8.89,-0.68 10,-6.15 14.46,1.52 11.78,-7.63 16.75,-16.94 15.02,-2.71 9.69,-5.16 3.73,-10.46 14.31,-2.97 7.25,11.02 -1.84,6.89 8.08,5.08 1.48,5.64 2.98,10.43 -1.59,7.51 5.18,4.51 z"
       id="M03213"
       style="fill:#ffff80;fill-opacity:1;stroke:#000000;stroke-width:2.07513;stroke-dasharray:none;stroke-opacity:1" />
    <path
       d="m 613.2,763.21 1.95,12.74 11.22,4.69 5.88,-1.76 8.52,7.37 -0.21,6.5 13.68,-1.65 8.17,4.68 6.91,-0.59 23.77,17.02 8.89,-4.1 8.95,2.8 -9.88,5.31 4.1,9.01 6.37,1.2 3.91,-6.17 11.91,2.3 6.36,-7.82 3.77,2.35 11.28,-1.36 -6.92,18.91 -13.99,-2.13 -2.77,4.91 -20.79,0.26 0.89,12.98 11.66,4.01 1.08,13.4 -12.07,-3.3 -4.12,9.72 8.09,12.63 6.23,1.49 7.79,-6.88 6.37,8.98 2.72,9.78 -6.64,2.96 -7.24,-2.89 -20.4,16.29 -12.83,-5.23 -0.84,7.54 11.6,10.76 14.29,-3.39 3.21,3.1 -15.22,9.29 -5.32,1.26 -28.24,-7.05 -8.08,1.17 -19.55,-4.1 -22.77,4.74 -7.83,-9.55 -1.34,-11.03 -7.71,-10.92 -7.56,-0.99 5.77,-9.97 -3.22,-7.57 0.45,-14.99 -5.07,-1.64 -0.25,-7.77 -7.58,-15.35 6.57,-11.68 -16.19,-2.29 -0.59,-10.65 -6.12,-16.24 0.74,-13.83 3.79,-2.71 -0.61,-9.88 6.24,-9.56 10.99,-6.06 15.61,4.51 z"
       id="M03211"
       style="fill:#ffff80;fill-opacity:1;stroke:#000000;stroke-width:2.07513;stroke-dasharray:none;stroke-opacity:1" />
    <path
       d="m 456.35,988.11 2.78,-4.43 -0.58,-12.67 16.8,11.2 10.48,-1.12 2.21,8.67 6.91,-4.25 7.23,5.74 5.17,-1.23 3.17,-9.35 10.96,0.24 10.47,7.54 16,-8.19 -1.58,8.65 4.56,5.02 -1.1,6.97 7.53,8.91 2.52,7.52 6.08,3.81 8.7,-8.99 3.91,5.96 0.54,13.04 3.9,7.56 0.7,9.22 13.86,23.45 -8.73,7.68 2.13,8.29 5.65,-2.44 8.03,9.09 -11.47,9.45 -7.98,-2.94 -1.85,-13.47 -11.51,-8.65 -1.08,-3.5 6.63,-13.59 -4.42,-3.33 -16.76,-1.34 -7.33,3.37 -2.88,6.09 4,17.12 -15.65,-11.6 -15.11,-0.73 -4.24,-6.29 -10.59,-0.24 -14.08,3.59 -3.66,-4.98 -13.64,-0.53 -4.98,15.05 -10.84,-10.14 5.37,-14.11 -6.89,-13.79 -0.55,-9.03 10.77,-9.4 0.55,-18.18 -10.07,-10.09 z"
       id="M03210"
       style="fill:#ffff80;fill-opacity:1;stroke:#000000;stroke-width:2.07513;stroke-dasharray:none;stroke-opacity:1" />
    <path
       d="m 199.7,1072.33 5.34,8.84 7.48,3.83 21.67,2.33 2.78,2.8 12.71,-5.53 9.46,0.6 0.06,6.42 10.34,-0.51 -1.84,-6.21 6.85,-7.09 8.48,1.32 4.47,-5.78 11.81,-1.88 4.81,-9.92 -8.2,-13.21 3.76,-6.22 7.66,-1.92 0.36,-6.85 5.28,-9.36 11.67,-7.43 6.35,-0.94 16.6,-19.78 10.04,0.67 5.25,4.33 9.85,0.57 -6.19,-13.73 1.7,-8.86 -2.06,-12.82 13.8,0.01 7.59,-4.88 5.65,5.66 3.31,-11.96 8.5,-0.79 7.51,-9.83 4.09,2.68 0.59,12.84 7.63,3.6 -0.58,11.85 4.73,8.78 14.18,-2.28 13.16,6.43 0.04,4.63 10.07,10.09 -0.55,18.18 -10.77,9.4 0.55,9.03 6.89,13.79 -5.37,14.11 10.84,10.14 3.01,7.14 0.89,18.18 -2.76,7.87 3.69,7.71 -1.7,10.54 -12.88,9.67 -0.09,5.94 -8.63,7.44 2.82,10.72 4.6,5.27 -7.9,11.28 2.54,19.13 -9.57,-1.41 -3.29,21.33 -18.78,-4.48 -2.41,-7.46 -8.92,1.96 -3.7,-7.44 -10.3,-3.59 -10.36,3.97 -10.02,-11.82 -5.77,3.12 -1.15,18.4 -10.89,-3 -9.07,3.01 -7.38,16.47 0.79,5.94 -12.44,4.51 -1.51,6.12 -9.4,-0.59 -4.81,-6.01 -0.69,-9.15 -14.11,-10.85 -9.78,1.85 -13.18,-4.82 -0.13,-18.52 -5.63,1.07 -15.26,-12.86 15.4,-6.77 9.35,-11.74 -4.11,-15.34 -8.82,-2.15 -8.9,2.03 -9.16,-7.06 -9.52,5.76 -7.47,-3.19 -16.29,4.3 -9.1,-4.67 -6.59,4.11 -11.44,1.81 -12.81,-21.34 -8.06,-3.14 -20.71,-12.56 -19.49,-2.56 -6.37,-7.54 -13.34,-6.63 -9.36,-9.8 -16.88,0.09 -6.68,4.19 -10.28,-22.56 0.29,-7.94 8.12,-5.82 3.42,-8.19 4.2,3.3 11.62,-0.03 10.21,-5.94 6.36,1.63 4.75,-10.57 23.62,-9.81 7.27,8.09 1.47,10.2 5.24,6.54 1.52,14.2 6.51,3.33 17.51,-4.65 11.52,0.23 z"
       id="M03209"
       style="fill:#ffff80;fill-opacity:1;stroke:#000000;stroke-width:2.07513;stroke-dasharray:none;stroke-opacity:1" />
    <path
       d="m 601.54,737.65 -0.49,12.47 12.34,4.59 -0.19,8.5 -12.22,3.56 -15.61,-4.51 -10.99,6.06 -6.24,9.56 0.61,9.88 -3.79,2.71 -0.74,13.83 6.12,16.24 0.59,10.65 16.19,2.29 -6.57,11.68 7.58,15.35 0.25,7.77 -3.57,0.33 -18.3,16.8 -13.14,-6.56 -4.18,3.68 -12.21,-3.66 -6.64,6.3 -9.54,-10.62 -8.52,-1.27 -11.9,12.01 -13.85,-1.62 -3.37,6.13 -7.81,-1.93 -10.52,3.95 1.61,9.88 -4.33,7.39 -9.32,7.61 -6.92,-0.74 -1.77,6.43 -22.08,-6.51 2.07,-2.35 -11.14,-21.6 -1.68,-9.08 -14.26,-9.96 7.73,-12.76 -3.56,-6.27 -10.12,-8.2 2.45,-10.34 -15.26,-17.87 2.08,-14 -11.11,1.06 -4.6,-5.43 1.24,-15.67 6.92,-8.15 4.62,-15.3 13.61,-1.87 11.75,-8.94 9.98,-1.33 1.8,-8.18 14.79,-7 12.82,-14.44 -0.27,-17.97 8.93,-17.8 11.28,-6.97 12.84,0.94 -3.83,-20.45 6.52,16.16 15.77,9.24 11.34,-0.84 25.09,19.32 13.5,18.21 6.47,4.55 4.35,8.66 18.22,6.47 9.25,5.24 3.27,-3.15 z"
       id="M03208"
       style="fill:#ffff80;fill-opacity:1;stroke:#000000;stroke-width:2.07513;stroke-dasharray:none;stroke-opacity:1" />
    <path
       d="m 495.63,298.51 -4.17,-7.14 0.02,-13.22 -5.43,-5.18 -7.49,2.72 -8.85,-7.09 -1.54,-11.27 -10.33,-4.51 -1.82,-6.01 -3.21,-12.8 10.92,-11.88 1.79,-13.03 4.81,-8.02 -2.95,-7.49 7.21,-5.52 -1.95,-7 5.92,-3.57 2.74,-7.5 5.24,0.29 2.6,-9.4 7.05,4.51 13.01,-4.37 10.51,3.59 5,-3.25 18.5,10.52 19.26,3.49 17.44,-3.69 -3.15,-15.37 21.55,-1.59 7.11,-1.91 -0.57,-9.13 3.17,-9.89 5.51,-3.57 10.66,1.65 10.55,-7.09 0.36,-5.52 7.78,-4.25 12.26,17.72 1.46,9.01 7.53,19 -0.73,9.51 -6.32,-0.4 -6.82,4.46 -4.95,10.06 1.68,12.88 16.68,3.82 16.1,11.01 8.96,15.16 -7.34,8.42 -11.32,1 -10.8,-4.13 -7.69,14.55 -11.24,-1.66 -3.31,5.44 -7.27,-1.88 -7.05,8.55 -7.67,4.98 -6.29,11.15 2.82,12.74 5.07,8.03 6.76,4.89 -1.46,10.04 -5.83,2.18 -13.39,13.85 -9.94,0.81 -7.77,-6.84 -17.22,7.05 -6.66,-1.86 -14.68,-12.06 -13.94,2.11 -8.41,-10.88 -7.39,-3.92 z"
       id="M03207"
       style="fill:#ffff80;fill-opacity:1;stroke:#000000;stroke-width:2.07513;stroke-dasharray:none;stroke-opacity:1" />
    <path
       d="m 115.93,933.18 -1.65,-23.95 15.49,-14.44 4.43,-8.3 -7.32,-7.97 -0.05,-6.1 11.4,-18.56 -4.79,-11.25 3.29,-9.72 -6.54,-12.37 -4.76,-3.58 -1.17,-14.52 -7.99,-6.43 0.51,-6.98 -7.66,-4.41 1.28,-9.21 -6.03,-5.94 -6.29,-0.75 -1.09,-11.95 7.7,-12.8 6.8,3.94 11,-14.18 4.41,-18.37 4.11,-2.37 1.62,4.1 9.33,4.31 -3.4,11.6 6.95,15.28 0.39,8.58 -4.69,10.38 4.15,8.12 -1.9,4.1 3.4,13.65 9.46,7.35 10.99,-1.28 25.84,11.2 19.08,6.26 7.35,0.13 8.24,7.27 0.71,-10.97 6.86,-2.93 10.45,-11.19 15.27,7.92 14.69,0.94 14.42,-4.02 5.03,-5.66 8.34,14.15 -3.18,7.24 1.99,5.6 14.8,13.95 5.18,-3.95 7.21,4.28 0.1,9.4 7.12,8.79 2.12,6.97 -17.08,7.38 -6.43,-1.92 -10.47,-8.18 -13.57,6.25 -1.85,8.8 -8.63,-0.66 -5.08,3.98 0.94,6.14 -17.98,4.5 -4.41,4.21 -6.1,0.87 -10.57,-9.75 -1.76,-5.39 -10.65,-0.75 -0.91,-5.49 -10.37,2.29 -19.29,12.37 -29.88,4.33 -9.34,13.02 -5.04,13.72 -9.48,1.47 -6.41,8.28 -9.64,5.28 z"
       id="M03206"
       style="fill:#ffff80;fill-opacity:1;stroke:#000000;stroke-width:2.07513;stroke-dasharray:none;stroke-opacity:1" />
    <path
       d="m 131.01,712.97 -3.14,-15.19 5.69,-6.41 -3.27,-5.78 5.31,-11.38 15.58,-7.31 3.97,3.46 15.99,4.96 9.35,-10.61 19.02,6.67 2.9,5.69 8.54,3.55 16.17,-2.45 7.37,3.96 7.61,-0.86 15.94,12.65 14.53,-3.5 24.7,4.63 18.27,10.61 10.64,3.3 16.06,-3.47 2.72,5.11 7.34,0.03 5.32,-7.45 0.18,-7.29 4.6,-4.12 -6.06,-7.08 2.95,-10.01 -2.57,-11.23 5.21,-13.99 5.73,-3.6 7.63,-2.05 10.29,6.03 8.72,-0.54 10.51,-6.08 6.55,1.43 11.63,-2.28 9.26,9.65 5.03,6.65 24.98,-3.4 8.84,0.68 3.83,20.45 -12.84,-0.94 -11.28,6.97 -8.93,17.8 0.27,17.97 -12.82,14.44 -14.79,7 -1.8,8.18 -9.98,1.33 -11.75,8.94 -13.61,1.87 -4.62,15.3 -6.92,8.15 -1.24,15.67 4.6,5.43 11.11,-1.06 -2.08,14 15.26,17.87 -2.45,10.34 10.12,8.2 3.56,6.27 -7.73,12.76 -9.14,-2.85 -3.96,-9.11 -13.98,-8.96 -8.77,-21.14 -17.51,3.75 -7.44,-1.22 -6.62,6.02 -7.21,-4.28 -5.18,3.95 -14.8,-13.95 -1.99,-5.6 3.18,-7.24 -8.34,-14.15 -5.03,5.66 -14.42,4.02 -14.69,-0.94 -15.27,-7.92 -10.45,11.19 -6.86,2.93 -0.71,10.97 -8.24,-7.27 -7.35,-0.13 -19.08,-6.26 -25.84,-11.2 -10.99,1.28 -9.46,-7.35 -3.4,-13.65 1.9,-4.1 -4.15,-8.12 4.69,-10.38 -0.39,-8.58 -6.95,-15.28 3.4,-11.6 -9.33,-4.31 z"
       id="M03205"
       style="fill:#ffff80;fill-opacity:1;stroke:#000000;stroke-width:2.07513;stroke-dasharray:none;stroke-opacity:1" />
    <path
       d="m 547.95,980.26 -4.58,-1.71 1.03,-10.11 6.68,-7.76 0.51,-9.12 7.1,-7.61 -2.72,-6.29 10.34,-4.45 11.32,0.64 17.67,-10.12 10.42,-9.37 1.34,11.03 7.83,9.55 22.77,-4.74 19.55,4.1 8.08,-1.17 28.24,7.05 5.32,-1.26 15.22,-9.29 -3.3,7.25 -15.56,11.94 -13.49,1.37 -4.52,-2.65 -7.76,3.6 -2.56,5.82 20.45,12.12 0.52,9.09 12.81,-2.21 11.93,9.34 -22.12,10.99 -10.65,-9.94 -11.96,0.22 -10.11,-7.29 -5.18,4.56 1.88,8.68 -3.39,3.96 7,9.13 13.12,0.77 12.03,4.24 0.16,7.75 -15.49,-0.75 -13.13,1.19 1.35,7.19 17.59,8.65 0.38,6.75 -29.74,1.83 -3.61,-6.18 -6.06,4.3 -5.57,-4.95 -6.05,11.61 -7.85,-4.35 -7.02,1.39 4.58,-20.25 -1.3,-8.63 -4.93,-5.85 -4.24,13.92 1.54,7.95 -8.35,12.53 7.02,3.08 12.15,16.57 -1.24,7.62 -11.56,-7.42 -4.27,6.81 -13.86,-23.45 -0.7,-9.22 -3.9,-7.56 -0.54,-13.04 -3.91,-5.96 -8.7,8.99 -6.08,-3.81 -2.52,-7.52 -7.53,-8.91 1.1,-6.97 -4.56,-5.02 z"
       id="M03203"
       style="fill:#ffff80;fill-opacity:1;stroke:#000000;stroke-width:2.07513;stroke-dasharray:none;stroke-opacity:1" />
    <path
       d="m 617,677.11 -5.52,4.81 -1.13,8.66 -9.4,2.15 -7.42,6.67 -2.49,14.68 7.13,11.74 3.37,11.83 -16.66,2.16 -3.27,3.15 -9.25,-5.24 -18.22,-6.47 -4.35,-8.66 -6.47,-4.55 -13.5,-18.21 -25.09,-19.32 -11.34,0.84 -15.77,-9.24 -6.52,-16.16 -8.84,-0.68 -24.98,3.4 -5.03,-6.65 8.83,-4.46 -2.26,-9.63 -8.54,-5.89 -5.81,-8.38 -7.09,-5.23 -20.37,-8.79 -7.78,-6.03 -3.66,-8.85 8.69,-12.59 7.25,-6.36 10.72,-2.78 13.71,-14.47 9.93,10.91 18.22,-3.28 6.13,-3.76 9.96,-12.12 5.34,-2.69 17.32,2.85 12.48,-0.91 7.53,-10.03 9.87,5.82 11.58,0.64 2.93,-14.9 9.72,-6.41 1.63,-12.45 16.49,-0.16 14.32,9.58 9.19,-7.41 5.06,-0.7 7.71,5.79 9.39,-3.8 2.31,7.08 8.76,6.72 8.18,-3.19 8.28,6 9.38,3.3 8.36,-5.95 4.75,0.82 13.24,-12.07 16.8,-2.46 4.32,-2.64 9.92,-13.33 0.71,-7.63 -8.57,-9.14 9.71,-2.52 4.12,-6.71 10.78,-1.41 2.77,-7.54 19.46,-3.71 2.46,-4.28 6.78,7.81 -4.13,12.21 7.97,22.22 -4.3,4.32 -0.35,15.38 -6.68,14.57 5.05,9.31 -8.03,9.26 1.85,10.35 5.64,-0.21 -7.77,18.43 5.29,12.22 -7.62,4.01 2.38,9.88 -4.57,1.91 0.11,8.88 -10.31,9.14 1.57,8 5.49,1.4 11.5,-18.52 21.41,-31.39 6.45,5.13 -2.55,8.61 0.1,15.87 5.75,28.95 13.44,-0.31 -0.71,6.16 6.27,2.3 2.49,12.77 -10.99,11.09 -8.25,-1.15 -4.8,6.93 -3.24,14.09 -7.21,2.1 -16.41,-15.01 -6.02,-17.47 -8.31,-0.2 -10.13,-5.31 -21.23,3.1 -12.3,-11.34 -13.26,3.5 -11.24,6.4 -9.93,-3.38 -17.32,4.47 -9.13,4.53 -9.27,1.25 z"
       id="M03202"
       style="fill:#ffff80;fill-opacity:1;stroke:#000000;stroke-width:2.07513;stroke-dasharray:none;stroke-opacity:1" />
    <path
       d="m 283.73,386.41 4.99,-2.46 13.27,3.36 5.95,13.06 14.62,1.04 4.74,3.72 16.04,-2.39 7.63,8.43 1.41,18.56 9.77,6.43 -4.66,4.41 0.64,8.55 8.63,-3.67 3.27,6.79 8.71,1.41 6.02,-10.21 12.74,0.65 7.65,-2.85 9.72,3.49 13.24,-4.63 8.45,2.5 3.77,-22.91 4.63,-1.92 15.38,7.14 8.08,-6.21 12.33,2.64 -1.26,17.23 7.15,14.66 2.1,12.08 -2.15,7.43 -10.22,0.89 0.49,10.03 -5.28,2.22 -2.74,10.31 -5.95,8.84 -8.3,-1.5 -21.04,7.9 -6.59,-2.66 -7.35,9.06 2.03,7.96 -3.47,5.26 2.69,7.01 -1.83,9.05 6.95,4.53 -0.04,6.92 -13.71,14.47 -10.72,2.78 -7.25,6.36 -8.69,12.59 3.66,8.85 7.78,6.03 20.37,8.79 7.09,5.23 5.81,8.38 8.54,5.89 2.26,9.63 -8.83,4.46 -9.26,-9.65 -11.63,2.28 -6.55,-1.43 -10.51,6.08 -8.72,0.54 -10.29,-6.03 -7.63,2.05 2.38,-5.37 -6.25,-6.66 -5.06,-11.72 -6.21,0.81 1.01,8.65 -5.57,7.53 -10.33,-7.11 -6.66,-8.59 -8.37,-2.33 -15.63,6.52 -2.56,-9.08 -6.61,-7.5 -2.17,-8.6 -14.36,-1.73 -2.9,-5.04 -12.62,-6.17 -12.76,11.16 -20.68,-1.11 -5.33,-4.7 -8.1,-10.39 -5.19,3.99 -9.92,-0.46 -4.83,-14.27 4.81,-15.53 9.1,-6.98 10.27,8.66 17.09,-9.97 1.28,-13.25 10.66,-6.77 16.36,-27.03 10.12,-2.73 9.47,3.28 2.52,-9.07 -4.27,-17.41 -3.54,-6.06 0.24,-7.82 -11.81,-5.67 -3.6,-9.3 -8.81,0.08 -1.14,-13 -6.15,-13.82 9.8,-3.05 9.79,0.68 8.53,-11.11 11.48,-7.81 z"
       id="M03201"
       style="fill:#ffff80;fill-opacity:1;stroke:#000000;stroke-width:2.07513;stroke-dasharray:none;stroke-opacity:1" />
    <path
       d="m 254.37,895.04 10.69,3.52 4.34,5.23 -2.68,13.51 7.65,6.36 -17.52,5.83 -11.28,13.77 -15.98,9.2 -9.35,2.94 -6.85,10.46 -6.2,1.76 -13.75,-3 -18.4,-11.48 -30.47,-16.46 -4.29,0.73 -5.71,-7.4 6.41,-8.28 9.48,-1.47 5.04,-13.72 9.34,-13.02 29.88,-4.33 19.29,-12.37 10.37,-2.29 0.91,5.49 10.65,0.75 1.76,5.39 10.57,9.75 z"
       id="M03381"
       style="fill:#ffff80;fill-opacity:1;stroke:#000000;stroke-width:2.07513;stroke-dasharray:none;stroke-opacity:1" />
  </g>
</svg>
