<?xml version="1.0" encoding="UTF-8" standalone="no"?>
<svg
   version="1.2"
   width="689.99994"
   height="600"
   viewBox="0 0 689.99994 600"
   stroke-linecap="round"
   stroke-linejoin="round"
   id="svg5028"
   sodipodi:docname="kn.svg"
   inkscape:version="1.2 (dc2aedaf03, 2022-05-15)"
   xmlns:inkscape="http://www.inkscape.org/namespaces/inkscape"
   xmlns:sodipodi="http://sodipodi.sourceforge.net/DTD/sodipodi-0.dtd"
   xmlns="http://www.w3.org/2000/svg"
   xmlns:svg="http://www.w3.org/2000/svg">
  <defs
     id="defs5032" />
  <sodipodi:namedview
     id="namedview5030"
     pagecolor="#505050"
     bordercolor="#eeeeee"
     borderopacity="1"
     inkscape:showpageshadow="0"
     inkscape:pageopacity="0"
     inkscape:pagecheckerboard="0"
     inkscape:deskcolor="#505050"
     showgrid="false"
     inkscape:zoom="1.3366501"
     inkscape:cx="344.51799"
     inkscape:cy="379.30645"
     inkscape:window-width="1920"
     inkscape:window-height="1009"
     inkscape:window-x="-8"
     inkscape:window-y="-8"
     inkscape:window-maximized="1"
     inkscape:current-layer="svg5028" />
  <g
     id="kn"
     transform="matrix(0.86340852,0,0,0.86340852,-0.36340946,39.682332)"
     style="fill:#ffff80;fill-opacity:1;stroke:#000000;stroke-width:1.1582;stroke-dasharray:none;stroke-opacity:1">
    <path
       d="m 629.78,401.96 2.34,6.47 5.48,4.32 5.23,15.94 -2.53,4.4 1.88,5.81 -0.22,3.59 -8.3,-1.92 -7.22,1.77 -5.64,-1.83 -1.53,-3.85 5.98,-0.7 6.44,-5.34 -1.73,-3.82 -7.08,-1.92 -8.64,1.73 -2.61,-1.13 -5.11,5.41 -4.25,-0.78 -3.96,5.15 -4.56,-2.76 3.39,-2.42 -2.15,-6.69 -9.06,0.4 -6.69,-1.61 -1.6,-5.66 7.41,-8.74 22.89,-11.28 1.81,-3.14 5.28,-0.19 2.78,4.44 5.39,-0.64 z"
       id="M14208"
       style="fill:#ffff80;fill-opacity:1;stroke:#000000;stroke-width:1.1582;stroke-dasharray:none;stroke-opacity:1" />
    <path
       d="m 474.43,394.58 -13.21,0.87 -7.92,2.49 -10.35,-2.32 -5.63,2.34 -11.6,-0.11 -9.02,0.97 -0.78,-4.45 -3.68,-4.37 -0.08,-7.25 1.73,-6.06 -2.26,-10.09 1.51,-7.62 3.95,1.06 18.17,-2.07 1.71,-4.64 -2.5,-7.7 6.13,-5.72 3.88,-10 1.24,-2.67 8.66,-5.55 11.14,0.79 3.86,4.96 -0.64,7.59 6.76,3.41 0.66,4.96 -3.86,6.61 3.75,7.38 3.74,12.21 -0.42,10.78 z"
       id="M14207"
       style="fill:#ffff80;fill-opacity:1;stroke:#000000;stroke-width:1.1582;stroke-dasharray:none;stroke-opacity:1" />
    <path
       d="m 247.09,390.17 4.68,6.04 4.35,0.96 5.19,5.86 8.4,-3.33 1.49,-3.07 8.9,1.54 8.4,-4.34 4.68,5.65 -1.61,3.8 1.81,7.63 -2.61,7.02 1.83,2.86 -3.06,10.14 -11.45,5.77 -12.31,4.4 -19.43,18 -13.89,7.88 -12.24,11.5 -8.54,5.54 -3.61,5.25 -2.24,9.42 0.61,18.47 -1.3,6.69 -2.42,3.53 -0.51,7.76 2.1,5.23 -3.72,6.02 1.13,4.05 -5.4,0.9 -5.11,-4.42 -13.54,-4.92 -6.93,-0.75 -8.48,-2.82 -2.29,-4.09 -11.62,-3.11 -1.45,-4.5 4.5,-2.98 3.02,-13.14 6.54,-6.61 7.68,-4.91 8.84,-1.14 4.69,-1.9 -1.35,-4.84 5.62,-5.01 -2.26,-3.75 -7.88,1.46 -15.65,-5.23 -0.6,3.8 -6.97,6.79 -9.99,-9.05 -4.95,0.88 -7.38,-7.15 5.43,-3.5 -1.59,-15.79 -2.81,-7.49 10.51,-0.29 18.3,-6.35 14.51,-2.18 9.31,-0.29 1.91,-5.78 9.58,-3.32 1.51,-14.04 -0.72,-8.05 1.86,-2.4 -2.77,-8.26 4.43,-1.33 0.61,-4.1 6.21,-1.03 5.05,10.97 6.09,0.32 4.9,-4.19 4.28,-1.01 3.26,-4.1 1.1,-5.63 9.98,-3.03 z"
       id="M14206"
       style="fill:#ffff80;fill-opacity:1;stroke:#000000;stroke-width:1.1582;stroke-dasharray:none;stroke-opacity:1" />
    <path
       d="m 474.43,394.58 4.94,-14.2 0.42,-10.78 -3.74,-12.21 -3.75,-7.38 3.86,-6.61 -0.66,-4.96 -6.76,-3.41 0.64,-7.59 -3.86,-4.96 -11.14,-0.79 -8.66,5.55 -1.24,2.67 -4.87,-8.03 3.18,-6.2 -6.94,-0.77 -1.37,-7.64 1.37,-4.05 5.24,0.67 5.15,-7.79 5.88,-9.2 -0.42,-3.46 10.08,3.11 0.76,-3.85 4.6,0.16 11.34,7.17 0.18,6.42 5.47,-0.15 7.04,-8.05 0.1,-2.7 -11.77,-11.63 3.77,-0.4 12.04,5.81 4.13,-1.83 6.47,0.28 4.77,4.68 -2.15,10.76 2.81,20.58 4.44,3.72 2.13,6.85 4.98,2.98 1.93,5.01 -3.37,3.62 -3.66,13.81 8.62,1.91 4.87,0.98 6.86,6.75 1.1,5.26 6.6,5.18 -6.39,8.6 -6.24,0.94 -5.29,9.3 0.03,5.37 -5.09,6.74 -2.54,6.61 -5.25,3.16 -5.68,-7.4 -7.15,-4 -12.93,-3.12 z"
       id="M14205"
       style="fill:#ffff80;fill-opacity:1;stroke:#000000;stroke-width:1.1582;stroke-dasharray:none;stroke-opacity:1" />
    <path
       d="m 593.75,432.5 4.56,2.76 3.96,-5.15 4.25,0.78 5.11,-5.41 2.61,1.13 8.64,-1.73 7.08,1.92 1.73,3.82 -6.44,5.34 -5.98,0.7 1.53,3.85 5.64,1.83 7.22,-1.77 8.3,1.92 0.22,-3.59 4.41,0.59 3.19,4.16 7.11,1.5 -2.98,13.27 -7.7,6.34 -5.43,-1.64 -2.93,-4.48 -4.61,4.19 -8.87,-0.41 -5.96,2.28 -13.46,1.3 -3.61,1.67 -0.41,0.07 -0.92,0.25 2.95,-3.07 -2.61,-7.64 -4.17,-3.8 z"
       id="M14301"
       style="fill:#ffff80;fill-opacity:1;stroke:#000000;stroke-width:1.1582;stroke-dasharray:none;stroke-opacity:1" />
    <path
       d="m 490.49,170.5 -7.78,4.05 -3.99,5.01 -12.28,5.53 -1.42,-4.5 -6.5,-4.47 -8.66,9.77 -3.71,8.18 -6.55,2.96 -3.98,-0.94 -6.87,7.29 -12.41,-0.97 2.12,-12.5 0.24,-10.86 -1.15,-5 -10.35,-4.01 -8.5,-7.35 -9.94,-6.29 -13.32,-10.14 -6.35,1.11 -4.16,3.38 -8.96,-7.22 -3.81,-7.64 -7.91,-5.57 -7.13,0.31 -8.91,11.57 -8.63,-4.61 -4.46,-0.18 -11.3,3.59 -1.55,4.92 -6.53,4.53 -2.35,4.78 -5.93,2.41 -1.87,-4.94 -8.71,2.05 -2.31,2.14 4.72,4.51 -4.9,4.09 -1.75,4.23 -4.17,0.6 -1.33,5.73 -4.43,1.7 -4.48,7.83 -6.66,0.72 -9.88,10.11 -5.16,8.07 -8.07,7.67 -3.5,9.5 -4.82,-4.37 -8.28,0.83 -1.56,-6.11 -5.92,-3.34 -9.03,1.63 -3.25,7.38 -10.92,1.3 -5.59,-2.23 h -5.44 l -5.17,-8.47 -5.09,-1.73 -4,-5.47 -11.15,-3.47 -0.87,-4.08 -5.25,-4.84 -1.41,-5.86 7.64,-0.59 5.71,-3.12 4.56,0.73 7.72,-10.91 8.89,-5.59 2.28,-5.89 6.61,-7.04 -2,-6.74 0.22,-5.86 2.96,-4.37 5.49,-2.75 6.46,-7.21 1.12,-4.9 -2.38,-5.21 0.68,-10.36 -3.4,-1.29 -2.34,-5.31 2.87,-6.39 4.29,-2.18 3.34,-13.25 -4.74,-6.88 5.37,-3.53 -9.29,-9.21 0.14,-11.18 3.04,-8.73 -8.8,-14.5 2.31,-6.16 3.7,-2.8 6.75,-10.13 4.89,-0.47 9.45,6.25 5.83,0.89 7.26,-2.11 5.05,6.78 1.96,11.57 5.36,1.94 3.55,4.65 4.43,0.53 6.78,-2.57 0.93,-3.33 4.96,-2.87 12.18,4.28 3.87,3.97 -0.25,9.62 5.42,8.34 -1.09,4.35 4.73,2.03 3.1,3.93 0.91,6.31 7.34,5.83 0.6,2.64 7.46,1.96 4.86,3.97 4.96,-2.86 6.41,1.97 0.97,-5.45 7.64,-4.13 7.8,-2.47 8.82,1.62 5.98,6.23 5.05,1.72 8.39,0.37 5.92,-2.41 8.09,3.16 7.62,-0.74 19.36,6.41 3.47,-0.49 6.71,5.18 18.68,10.19 7.31,0.68 1.9,7.94 7.01,2.45 4.03,10.13 8.17,7.6 5.69,10.1 14.85,10.3 3.22,6.56 8.7,8.03 -3.11,5.91 z"
       id="M14150"
       style="fill:#ffff80;fill-opacity:1;stroke:#000000;stroke-width:1.1582;stroke-dasharray:none;stroke-opacity:1" />
    <path
       d="m 207.04,389.75 -6.21,1.03 -0.61,4.1 -4.43,1.33 -4.3,-0.48 -4.8,-3.82 0.17,-3.23 -3.49,-7.29 -2.16,-8.52 -4.1,-1.11 -3.14,-5.65 5.34,-8.29 1.82,0.26 13.21,5.75 4.64,6.47 1.28,4.74 2.18,7.09 z"
       id="M14366"
       style="fill:#ffff80;fill-opacity:1;stroke:#000000;stroke-width:1.1582;stroke-dasharray:none;stroke-opacity:1" />
    <path
       d="m 137.21,182.82 1.41,5.86 5.25,4.84 0.87,4.08 11.15,3.47 4,5.47 5.09,1.73 5.17,8.47 h 5.44 l 5.59,2.23 10.92,-1.3 3.25,-7.38 9.03,-1.63 5.92,3.34 1.56,6.11 8.28,-0.83 4.82,4.37 3.09,10.25 -0.86,9.53 -1.73,3.08 -2.28,4.73 -5.55,5.14 -12.1,1.13 -10.57,-2.15 -1.52,4.46 -4.38,4.71 -4.83,2.51 -1.98,4.95 -7.37,4.86 -6.08,9.38 4.75,10.06 -5.3,3.26 1,5.75 -1.81,4.18 0.54,8.09 15.31,8.66 4.32,1.47 2.68,7.41 -1.79,13.04 -6.45,6.09 -0.92,5.84 -1.82,-0.26 -9.4,1.37 -4.4,4.92 -5.26,-4.27 -5.1,2.04 -4.37,-1.75 -8.9,3.26 -6.99,-1.34 -3.77,-3.42 -8.2,2.48 -0.86,4.74 -5.2,2.68 -6.39,0.76 -5.99,6.14 1.48,4.52 -7.98,0.73 -3.83,2 -6.99,-9.25 0.09,-6.36 -2.54,-7.14 3.79,-8.66 -4.95,-3.66 -0.83,-15.57 -6.62,-9.63 2.88,-16.58 -3.28,-4.04 -4.15,-1 -8.64,1.89 -3.63,-3.2 -9.61,-0.29 -2.77,3.34 -16.65,0.71 -9.34,2.36 -5.81,-2.18 -13.52,0.55 -0.58,-4.12 2.08,-7.82 6.89,-4.42 0.96,-5.25 3.12,-0.94 0.44,-6.07 -3.56,-4.63 0.62,-7.97 4.26,-5.79 20.28,-18.92 4.33,-2.66 9.04,-1.44 3.84,-3.37 4.81,3.12 5.68,-5.35 3.43,-5.67 8.14,-1.49 9.37,0.46 6.09,-5.96 5.52,1.25 5.99,-2.42 2.78,-8.62 5.72,-2.5 6.35,-9.46 1.89,-11.39 4.88,-1.02 7.86,3.43 z"
       id="M14364"
       style="fill:#ffff80;fill-opacity:1;stroke:#000000;stroke-width:1.1582;stroke-dasharray:none;stroke-opacity:1" />
    <path
       d="m 200.26,375.04 -1.28,-4.74 -4.64,-6.47 -13.21,-5.75 0.92,-5.84 6.45,-6.09 1.79,-13.04 -2.68,-7.41 -4.32,-1.47 -15.31,-8.66 -0.54,-8.09 1.81,-4.18 -1,-5.75 5.3,-3.26 -4.75,-10.06 6.08,-9.38 7.37,-4.86 1.98,-4.95 4.83,-2.51 4.38,-4.71 1.52,-4.46 10.57,2.15 0.04,10.03 3.72,6.2 2.64,10.43 -2,14.43 3.44,3.52 0.2,13.52 -5.2,4.3 -0.37,7.12 4.53,9.84 7.52,8.36 2.63,9.81 1.83,7.43 -2.63,4.08 -8.91,1.81 -6.97,7.45 z"
       id="M14363"
       style="fill:#ffff80;fill-opacity:1;stroke:#000000;stroke-width:1.1582;stroke-dasharray:none;stroke-opacity:1" />
    <path
       d="m 247.09,390.17 -5.39,-7.09 -9.98,3.03 -1.1,5.63 -3.26,4.1 -4.28,1.01 -4.9,4.19 -6.09,-0.32 -5.05,-10.97 -4.6,-7.62 -2.18,-7.09 5.74,-1.2 6.97,-7.45 8.91,-1.81 2.63,-4.08 -1.83,-7.43 9.59,-2.38 2.77,8.24 5.89,5.79 1.53,-3.33 5.58,-3.09 -0.73,5.01 8.31,5.61 -6.26,4.29 2.11,2.78 1.5,7.61 z"
       id="M14362"
       style="fill:#ffff80;fill-opacity:1;stroke:#000000;stroke-width:1.1582;stroke-dasharray:none;stroke-opacity:1" />
    <path
       d="m 288.5,393.83 -8.4,4.34 -8.9,-1.54 -1.49,3.07 -8.4,3.33 -5.19,-5.86 -4.35,-0.96 -4.68,-6.04 5.88,-6.57 -1.5,-7.61 -2.11,-2.78 6.26,-4.29 -8.31,-5.61 0.73,-5.01 15.55,-10.57 10.99,10.64 4.33,-2.17 10.22,2.64 6.46,-1.77 3.24,-2.73 6.22,1.39 -11.29,8.5 1.59,12.66 3.39,-0.35 4.57,6.14 -3.44,1.04 z"
       id="M14361"
       style="fill:#ffff80;fill-opacity:1;stroke:#000000;stroke-width:1.1582;stroke-dasharray:none;stroke-opacity:1" />
    <path
       d="m 146.9,526.73 1.45,4.5 11.62,3.11 2.29,4.09 8.48,2.82 1.35,3.1 10.16,7.28 4.28,6.96 7.89,6.53 -2.21,6.96 5.9,5.71 3.75,6.21 -5.01,-2.52 -10.67,1.86 -7.19,8.64 -19.97,1.32 -5.9,-1.02 -9.75,-4.52 -6.07,1.17 -5.25,-2.21 -8.09,-1.16 -2.55,-2.73 -8.15,-1.16 -8.32,1.02 -1.83,-5.68 1.91,-4.3 -3.76,-2 2.79,-4.69 -0.3,-6.13 -2.34,-5.69 8.04,-0.71 9.76,-5.79 2.91,-4.45 13.36,-8.38 z"
       id="M14384"
       style="fill:#ffff80;fill-opacity:1;stroke:#000000;stroke-width:1.1582;stroke-dasharray:none;stroke-opacity:1" />
    <path
       d="m 170.74,541.25 6.93,0.75 13.54,4.92 5.11,4.42 5.4,-0.9 5.61,6.64 1.65,6.1 -4.28,4.53 3.39,3.89 -0.56,8.73 5.1,4.72 7.56,0.33 3.84,6.35 -10.05,1.06 -2.79,-4.31 -4.61,-0.54 -4.72,-3.94 -3.75,-6.21 -5.9,-5.71 2.21,-6.96 -7.89,-6.53 -4.28,-6.96 -10.16,-7.28 z"
       id="M14383"
       style="fill:#ffff80;fill-opacity:1;stroke:#000000;stroke-width:1.1582;stroke-dasharray:none;stroke-opacity:1" />
    <path
       d="m 131.79,447.17 2.81,7.49 1.59,15.79 -5.43,3.5 7.38,7.15 4.95,-0.88 9.99,9.05 6.97,-6.79 0.6,-3.8 15.65,5.23 7.88,-1.46 2.26,3.75 -5.62,5.01 1.35,4.84 -4.69,1.9 -8.84,1.14 -7.68,4.91 -6.54,6.61 -3.02,13.14 -4.5,2.98 -11.42,8.14 -13.36,8.38 -2.91,4.45 -9.76,5.79 -8.04,0.71 -4.45,-7.19 -9.93,-0.81 -6.94,-5.68 -9.03,-12.27 -4.82,-2.23 -1.18,-5.26 1.24,-7.89 -5.01,-5.46 1.24,-4.54 -3.75,-12.82 -3.14,-2.75 2.44,-4.11 -2.47,-2.76 -1.41,-6.61 0.92,-17.68 5.49,-6.52 4.01,-9.62 10.2,-11.58 6.71,-1.33 5.53,8.25 6.14,3.67 7.79,1.91 4.14,3.74 5.32,-4.55 11.69,-3.9 6.01,8.29 z m -66.08,35.65 -3.09,4.65 1.31,6.52 4.96,0.93 -0.67,6.9 4.63,1.99 2.54,6.39 -2.3,2.31 0.84,7.97 6.67,4.52 3.46,5.07 1.05,7.19 5.01,-2.31 10.8,1.35 -2.61,-4.54 5.45,-2.67 -3.06,-5.22 -13,-6.66 -4.57,-7.42 -4.51,-3.71 -4.1,-12.23 -0.19,-7.68 z"
       fill-rule="evenodd"
       id="M14382"
       style="fill:#ffff80;fill-opacity:1;stroke:#000000;stroke-width:1.1582;stroke-dasharray:none;stroke-opacity:1" />
    <path
       d="m 734.84,226.95 -9.82,-18.26 18.07,-9.66 4.1,6.46 -3.53,1.9 6.15,11.51 z m -12.58,-23.4 -7.3,-15.2 -4.1,1.88 -2.05,-3.47 -4.51,-15.16 -3.08,-3.55 -1.5,-6.7 -2.68,-3.04 1.16,-9.57 -6.64,0.32 -10.09,7.47 -11.12,-8.2 3.69,-16.04 -8.99,-5.63 -4.9,1.6 -6.68,-3.15 -8.3,-1.47 -11.68,1.73 -1.83,-3.84 -9.78,-1.28 -29.65,-6.27 -2.59,-8.56 -8.4,-9.49 -22.67,-5.92 -4.33,0.27 2.72,11.34 -3.82,3.67 -0.54,6.01 -2.28,2.75 -8.03,1.7 -5.35,-6.97 -7.06,-5.74 -4.8,-2.02 0.48,-3.93 -15.93,-14.77 -5.16,-1.69 -6.7,-9.03 -9.9,1.91 -3.26,-4.83 2.84,-4.47 7.54,-7.12 4.18,-2.12 2.28,3.95 7.59,1.82 0.44,3.98 4.13,5.88 4.78,1.81 2.29,4.2 7.71,-0.22 2.22,-2.7 -3.85,-5.66 -0.81,-5.62 7.73,-6.1 9.93,-2.01 2.8,-6.69 5.26,-1.69 -1.88,-5.13 3.81,-6.56 20.24,6.64 1.55,2.59 11.86,2.22 7.8,8.9 5.65,2.89 8.19,1.53 4.99,3.06 7.41,-0.77 4.24,2.87 6.75,-0.03 5.21,2.2 11.99,7.41 7.91,7.93 15.36,11.65 5.89,-0.2 5.42,5.74 6.43,20.84 2.16,3.4 9.82,6.35 7.4,1.29 4.8,3.13 0.41,4.36 -4.61,4.47 1.35,7.85 5.26,2.36 10.48,-1.96 7.99,-6.09 7.73,2.77 4.32,-4.62 6.68,1.45 8.8,-0.81 10.51,5.81 7.63,5.43 -1.84,2.5 11.91,8.65 2.33,4.96 5.38,1.6 -4.13,5.8 -0.73,6.12 -9.57,-6.05 -3.59,4.19 -5.55,-4.81 -8.3,-18.28 -4.6,2.77 -8.91,9.81 2.47,13.53 -15.78,8.67 z m -207.2,-89.82 -11.74,1.67 3.02,-4.42 2.5,-7.67 5.61,-1.1 2.52,-3.23 4.43,1.15 z m 264.81,73.57 3.33,6.5 -29.98,16.2 -4.68,-3.51 -3.77,-7.01 22.57,-12.56 z m -15.22,-23.64 7.08,14.53 -0.97,2.18 -10.09,3.38 -1.86,-1 -2.54,-11.68 z"
       fill-rule="evenodd"
       id="M14130"
       style="fill:#ffff80;fill-opacity:1;stroke:#000000;stroke-width:1.1582;stroke-dasharray:none;stroke-opacity:1" />
    <path
       d="m 444.48,329.91 -3.88,10 -6.13,5.72 2.5,7.7 -1.71,4.64 -18.17,2.07 -3.95,-1.06 1.37,-10.54 -3,-2.88 2.05,-5.14 3.4,-23.01 -1.07,-6.64 -1.51,-6.87 11.26,-0.48 3.97,1.33 6.24,-1.53 -1.37,4.05 1.37,7.64 6.94,0.77 -3.18,6.2 z"
       id="M14321"
       style="fill:#ffff80;fill-opacity:1;stroke:#000000;stroke-width:1.1582;stroke-dasharray:none;stroke-opacity:1" />
    <path
       d="m 653.27,383.42 2.5,2.4 -4.1,4.37 -3.66,-6.35 3.78,-2.39 z m -23.49,18.54 -6.58,-4.99 -5.39,0.64 -2.78,-4.44 -0.18,-4.02 -3.85,-6.69 0.05,-7.13 -13.73,-0.51 -0.62,-6.05 -3.03,-5.76 -7.64,1.51 -3.21,-1.04 -3.14,-5.18 -5.15,-4.07 0.48,-4.69 -4.34,-3.72 -1.92,6.65 -5.24,2.32 -9.7,-2.15 -3.69,-5.15 -6.83,-1.02 -10.36,-5.71 -6.52,10.94 -8.62,-1.91 3.66,-13.81 3.37,-3.62 -1.93,-5.01 -4.98,-2.98 -2.13,-6.85 -4.44,-3.72 -2.81,-20.58 2.15,-10.76 -4.77,-4.68 1.08,-7.42 -0.74,-5.53 6.81,-14.3 -5.86,-9.25 -1.85,-5.94 2.13,-8.36 -2.39,-2.61 -2.15,-14.72 0.97,-8.13 -5.06,-6.13 2.48,-4.73 7.85,1.13 4.3,-4.41 -3.76,-6.57 5.71,-8.85 2.89,-1.28 1.2,-8.45 -0.98,-8.61 -5.78,-8.4 1.87,-4.76 -0.37,-9.16 -2.05,-4.19 -8.45,-1.13 -1.92,-3.23 1.48,-7.35 11.74,-1.67 3.21,2.72 4.19,8.39 4.74,-3.59 3.93,-6.47 5.42,-1.42 0.39,-4.58 5.35,6.97 8.03,-1.7 2.28,-2.75 0.54,-6.01 3.82,-3.67 -2.72,-11.34 4.33,-0.27 22.67,5.92 8.4,9.49 2.59,8.56 29.65,6.27 9.78,1.28 1.83,3.84 11.68,-1.73 8.3,1.47 6.68,3.15 4.9,-1.6 8.99,5.63 -3.69,16.04 11.12,8.2 10.09,-7.47 6.64,-0.32 -1.16,9.57 2.68,3.04 1.5,6.7 3.08,3.55 4.51,15.16 2.05,3.47 4.1,-1.88 7.3,15.2 -13.73,7.53 -2.8,-9.32 -4.43,2.95 4.05,9.31 -3,2.77 -6.99,0.62 v 6.09 l -12.11,5.64 0.66,-10.76 -22.2,1.68 -6.12,9.58 0.54,11.78 5.11,3.29 2.31,6.38 4.69,3.33 4.79,-6.91 5.88,5.09 -6.03,2.7 2.99,3.43 3.44,-1.77 5.7,-9.42 3.59,1.77 -5.23,10.57 2.36,1.54 3.74,-7.65 5.64,4.6 -5.58,11.12 2.68,1.35 6.39,-12.94 4.77,3.09 -4.73,13.99 -3.79,0.26 -2.91,11.39 1.31,5.94 -8.97,8.88 -0.62,-3.98 -5.14,-0.19 -9.63,-7.12 -8.76,1.36 -1.04,5.43 3.26,4.55 -12.02,2.71 -5.51,-1.38 -3.48,6.18 2.21,4.91 6.06,-3.22 4.73,4.75 -8.24,4.55 5.78,3.74 5.32,-2.82 5.44,-5.74 6.82,3.5 -1.94,5.14 -4.69,5.2 4.16,5.41 5.46,0.61 0.01,6.84 -5.06,0.13 0.04,7.32 5.39,7.06 0.03,12.85 -10.12,2.51 -6.14,-1.07 -4.73,5.2 1.04,3.66 -4.67,3.42 -5.73,-0.57 7.37,5.45 -6.34,7.19 -9.56,2.39 z m 34.34,-180.39 7.84,4.9 -3.34,3.62 -9.28,-5.25 z m 38.67,73.81 -4.11,4.06 3.42,6.51 -6.2,6.31 -2.81,-2.22 5.53,-7.51 -2.83,-2.89 -5.32,5.27 -4.74,-3.5 8.19,-8.1 z m 1.7,-60.09 5.64,1.55 3.79,6.45 -6.13,5.9 -20.29,-12.02 -0.47,-5.13 17.96,-7.56 2.24,9.18 z m 20.53,-26.6 9.82,18.26 -11.44,6.17 -6.13,-11.45 -5.15,-4.62 1.74,-2.07 z"
       fill-rule="evenodd"
       id="M14100"
       style="fill:#ffff80;fill-opacity:1;stroke:#000000;stroke-width:1.1582;stroke-dasharray:none;stroke-opacity:1" />
    <path
       d="m 289.54,430.93 3.06,-10.14 -1.83,-2.86 2.61,-7.02 -1.81,-7.63 1.61,-3.8 -4.68,-5.65 11.37,-10.11 3.44,-1.04 1.43,1.16 5.39,10.37 1.2,4.98 4.69,-1.01 2.86,7.43 -0.18,4.53 2.74,8.73 -17.66,4.99 z"
       id="M14342"
       style="fill:#ffff80;fill-opacity:1;stroke:#000000;stroke-width:1.1582;stroke-dasharray:none;stroke-opacity:1" />
    <path
       d="m 321.44,418.87 -2.74,-8.73 0.18,-4.53 -2.86,-7.43 -4.69,1.01 -1.2,-4.98 -5.39,-10.37 7.94,-2.52 2.25,-3.49 9.26,0.24 6.72,1.59 4.21,2.71 10.69,-0.56 -0.54,6.49 10.4,6.15 10.55,-6.49 8.24,0.26 2.07,14.17 -16.12,6.86 z"
       id="M14341"
       style="fill:#ffff80;fill-opacity:1;stroke:#000000;stroke-width:1.1582;stroke-dasharray:none;stroke-opacity:1" />
    <path
       d="m 224.96,221.65 3.5,-9.5 8.07,-7.67 5.16,-8.07 9.88,-10.11 6.66,-0.72 4.48,-7.83 4.43,-1.7 1.33,-5.73 4.17,-0.6 1.75,-4.23 4.9,-4.09 -4.72,-4.51 2.31,-2.14 8.71,-2.05 1.87,4.94 5.93,-2.41 2.35,-4.78 6.53,-4.53 -2.37,9.38 4.89,10.74 9.63,6.88 2.35,8.1 5.81,4.42 4.94,-0.33 2.59,7.72 4.03,3.42 -1.35,2.88 4.9,6.03 3.09,8.4 7.36,4.34 -0.23,6.83 -2.04,7.73 -9.77,4.2 -3.98,-1.51 -28.97,2.6 -3.1,-3.09 -7.92,4.17 -5.75,7.49 -2.08,0.19 0.39,-5.36 -11.45,-4.66 -7.8,2.24 -3.48,-0.77 -1.31,5.61 -4.74,5.77 -2.83,-1.5 -13.49,4.01 -2.09,-4.51 -12.04,-2.83 1.73,-3.08 0.86,-9.53 z"
       id="M14402"
       style="fill:#ffff80;fill-opacity:1;stroke:#000000;stroke-width:1.1582;stroke-dasharray:none;stroke-opacity:1" />
    <path
       d="m 302.27,145.92 1.55,-4.92 11.3,-3.59 4.46,0.18 8.63,4.61 8.91,-11.57 7.13,-0.31 7.91,5.57 3.81,7.64 8.96,7.22 4.16,-3.38 6.35,-1.11 13.32,10.14 9.94,6.29 -3.15,4.21 3.14,5.06 -6.49,2.47 2.65,8.7 -3.25,2.88 0.92,8.5 -3.45,0.75 -8.48,-6.97 -10.81,-1.66 -5.81,-5.04 -0.57,-3.62 -7.39,-9.96 -10.87,2.46 -5.27,6 -4.91,3.04 -5.45,-0.68 -1.99,6.28 -4.94,0.33 -5.81,-4.42 -2.35,-8.1 -9.63,-6.88 -4.89,-10.74 z"
       id="M14401"
       style="fill:#ffff80;fill-opacity:1;stroke:#000000;stroke-width:1.1582;stroke-dasharray:none;stroke-opacity:1" />
    <path
       d="m 615.03,393.17 -5.28,0.19 -1.81,3.14 -22.89,11.28 -7.41,8.74 0.18,-3.87 -4.7,-4.36 -6.72,-2.86 -4.62,0.86 -2.49,5.4 -5.29,2.15 -14.67,-3.55 -19.01,-2.86 2.54,-6.61 5.09,-6.74 -0.03,-5.37 5.29,-9.3 6.24,-0.94 6.39,-8.6 -6.6,-5.18 -1.1,-5.26 -6.86,-6.75 -4.87,-0.98 6.52,-10.94 10.36,5.71 6.83,1.02 3.69,5.15 9.7,2.15 5.24,-2.32 1.92,-6.65 4.34,3.72 -0.48,4.69 5.15,4.07 3.14,5.18 3.21,1.04 7.64,-1.51 3.03,5.76 0.62,6.05 13.73,0.51 -0.05,7.13 3.85,6.69 z"
       id="M14204"
       style="fill:#ffff80;fill-opacity:1;stroke:#000000;stroke-width:1.1582;stroke-dasharray:none;stroke-opacity:1" />
    <path
       d="m 413.14,358.98 -1.51,7.62 2.26,10.09 -1.73,6.06 0.08,7.25 3.68,4.37 0.78,4.45 -5.89,1.29 -8.43,-1.02 -18.33,1.66 -7.52,1.64 -2.07,-14.17 -8.24,-0.26 -10.55,6.49 -10.4,-6.15 0.54,-6.49 -10.69,0.56 -4.21,-2.71 -6.72,-1.59 -9.26,-0.24 -2.25,3.49 -7.94,2.52 -1.43,-1.16 -4.57,-6.14 -3.39,0.35 -1.59,-12.66 11.29,-8.5 10.74,-3.26 3.67,0.88 6.22,-13.08 1.08,-5.36 7.31,-1.42 7.64,0.83 -1.13,-8.97 9.27,0.32 3.15,-2.21 8.43,5.71 2,6.25 5.44,3.26 -2.43,-9.04 3.08,-3.41 8.48,-0.1 2.81,-4.36 11.04,6.28 7.77,-5.56 1.75,-7.45 -2.23,-2.95 3.65,-1.66 13.1,0.34 1.07,6.64 -3.4,23.01 -2.05,5.14 3,2.88 z"
       id="M14203"
       style="fill:#ffff80;fill-opacity:1;stroke:#000000;stroke-width:1.1582;stroke-dasharray:none;stroke-opacity:1" />
    <path
       d="m 642.18,438.9 -1.88,-5.81 2.53,-4.4 -5.23,-15.94 -5.48,-4.32 -2.34,-6.47 4.2,-4.54 9.56,-2.39 6.34,-7.19 0.49,3.35 3.31,-1.38 0.94,-1.32 0.05,-0.09 0.33,-0.47 0.17,-0.2 0.27,-0.38 2.71,-5.25 7.49,3.28 10.59,-0.84 0.5,6.58 -5.02,0.76 -15.17,23.23 -5.9,-0.85 2.65,5.87 3.24,1.32 3.18,-4.69 3.98,4.06 2.55,8.32 10.13,5.72 -0.08,-4.77 -2.92,-4.18 7.16,-1.84 -3.29,-8.95 6.28,-1.3 4.98,1.53 5.07,5.15 -2.15,4.02 2.34,3.18 -5.33,2.71 2.89,7.62 7.66,4.96 3.98,4.99 0.76,5.12 11.06,2.81 16.21,0.87 5.69,-1.08 5.26,2.88 5.79,0.16 6.04,5.66 0.18,3.31 -7.8,4.23 -3.29,3.96 -0.87,5.69 -5.47,1.32 -6.37,-0.74 6.85,7.93 1.41,4.48 -2.29,5.11 -3.75,0.39 -4.48,-4.62 -3.86,4.9 2.33,6.22 5.8,-0.16 2.36,7.29 -9.26,0.11 -20,2.66 -6.56,2.58 -16.63,12.8 -2.12,2.77 -8.72,-12.64 0.06,-5.88 -7.23,3.81 -13.04,1.22 -3.29,6.68 -7.88,2.85 -4.37,7.43 -4.93,-0.22 -4.73,-5.28 -0.01,-9.81 3.59,-5.74 4.61,-1.15 8.12,2.58 3.58,-6.19 -0.28,-3.95 -4.74,-3.66 -7.74,-3.42 -3.96,1.1 -5.35,-3.64 1.28,-6.87 -3.98,-3.79 0.14,-4.31 -12.62,-14 -7.12,-2.08 3.61,-1.67 13.46,-1.3 5.96,-2.28 8.87,0.41 4.61,-4.19 2.93,4.48 5.43,1.64 7.7,-6.34 2.98,-13.27 -7.11,-1.5 -3.19,-4.16 z m 28.11,-29.48 2.1,4.36 -7.16,7.96 -4.38,-6.24 7.38,-7.89 z"
       fill-rule="evenodd"
       id="M14201"
       style="fill:#ffff80;fill-opacity:1;stroke:#000000;stroke-width:1.1582;stroke-dasharray:none;stroke-opacity:1" />
    <path
       d="m 483.27,273.52 -3.77,0.4 11.77,11.63 -0.1,2.7 -7.04,8.05 -5.47,0.15 -0.18,-6.42 -11.34,-7.17 -4.6,-0.16 -0.76,3.85 -10.08,-3.11 0.42,3.46 -5.88,9.2 -0.46,-3.63 3.46,-20.75 -3,-14.95 -3.66,-6.14 3.72,-0.72 1.57,-7.92 6.52,-1.44 -1.36,-3.48 7.04,-5.78 12.95,-1.59 13.2,-0.42 1,9.26 2.17,7.88 -4.45,7.35 -0.27,15.33 z"
       id="M14218"
       style="fill:#ffff80;fill-opacity:1;stroke:#000000;stroke-width:1.1582;stroke-dasharray:none;stroke-opacity:1" />
    <path
       d="m 195.79,396.21 2.77,8.26 -1.86,2.4 0.72,8.05 -1.51,14.04 -9.58,3.32 -1.91,5.78 -9.31,0.29 -14.51,2.18 -18.3,6.35 -10.51,0.29 -3.64,-2.67 -6.01,-8.29 -11.69,3.9 -5.32,4.55 -4.14,-3.74 -7.79,-1.91 -6.14,-3.67 -5.53,-8.25 1.3,-9 4.22,-14.01 -0.96,-3.39 6.49,-10.59 1.57,-7.42 3.83,-2 7.98,-0.73 -1.48,-4.52 5.99,-6.14 6.39,-0.76 5.2,-2.68 0.86,-4.74 8.2,-2.48 3.77,3.42 6.99,1.34 8.9,-3.26 4.37,1.75 5.1,-2.04 5.26,4.27 4.4,-4.92 9.4,-1.37 -5.34,8.29 3.14,5.65 4.1,1.11 2.16,8.52 3.49,7.29 -0.17,3.23 4.8,3.82 z"
       id="M14217"
       style="fill:#ffff80;fill-opacity:1;stroke:#000000;stroke-width:1.1582;stroke-dasharray:none;stroke-opacity:1" />
    <path
       d="m 416.34,202.41 12.41,0.97 6.87,-7.29 3.98,0.94 6.55,-2.96 3.71,-8.18 8.66,-9.77 6.5,4.47 1.42,4.5 4,12.63 4.7,17.95 -3.57,2.92 -12.96,9.62 -5.88,-3.03 -4.89,-0.1 -4.99,-2.51 -6.7,2.3 -14.75,1.62 -4.5,-15.09 z"
       id="M14216"
       style="fill:#ffff80;fill-opacity:1;stroke:#000000;stroke-width:1.1582;stroke-dasharray:none;stroke-opacity:1" />
    <path
       d="m 446.24,296.1 -5.15,7.79 -5.24,-0.67 -6.24,1.53 -3.97,-1.33 -11.26,0.48 -2.33,-6.93 0.93,-10.49 3.5,-13.85 -0.69,-5.47 1.7,-3.92 -4.13,-9.05 0.48,-4.92 6.58,-9.49 0.98,-13.29 14.75,-1.62 6.7,-2.3 4.99,2.51 4.89,0.1 5.88,3.03 12.96,-9.62 1.45,11.11 -12.95,1.59 -7.04,5.78 1.36,3.48 -6.52,1.44 -1.57,7.92 -3.72,0.72 3.66,6.14 3,14.95 -3.46,20.75 z"
       id="M14215"
       style="fill:#ffff80;fill-opacity:1;stroke:#000000;stroke-width:1.1582;stroke-dasharray:none;stroke-opacity:1" />
    <path
       d="m 399.14,312.09 2.23,2.95 -1.75,7.45 -7.77,5.56 -11.04,-6.28 -2.81,4.36 -8.48,0.1 -3.08,3.41 2.43,9.04 -5.44,-3.26 -2,-6.25 -8.43,-5.71 -3.15,2.21 -9.27,-0.32 -6.05,-1.84 -2.95,-3.32 -12.51,1.83 -1.32,-1.44 -8.69,4.34 -2.66,-3.58 -1.69,-6.75 6.77,-7.3 -3.2,-8.4 -5.03,-3.74 -1.62,-4.64 -7.87,-5.7 0.13,-4.91 -3.52,-3.15 -4.43,-14.21 1.01,-3.51 8.52,-1.09 2.1,-5.58 11,-1.04 8.25,3.06 11.72,2.54 1.98,1.93 8.22,1.13 10.2,5.46 3.13,7.69 12.11,7.77 9.1,-7.4 6.3,5.42 12.14,8.02 1.52,4.31 -0.62,6.55 4.02,6.68 z"
       id="M14214"
       style="fill:#ffff80;fill-opacity:1;stroke:#000000;stroke-width:1.1582;stroke-dasharray:none;stroke-opacity:1" />
    <path
       d="m 505.91,277.78 -6.47,-0.28 -4.13,1.83 -12.04,-5.81 1.4,-4.42 0.27,-15.33 4.45,-7.35 -2.17,-7.88 -1,-9.26 -13.2,0.42 -1.45,-11.11 3.57,-2.92 -4.7,-17.95 -4,-12.63 12.28,-5.53 3.99,-5.01 7.78,-4.05 6.81,2.93 1.42,7.73 3.1,5.23 -0.49,4.27 -2.48,4.73 5.06,6.13 -0.97,8.13 2.15,14.72 2.39,2.61 -2.13,8.36 1.85,5.94 5.86,9.25 -6.81,14.3 0.74,5.53 z"
       id="M14213"
       style="fill:#ffff80;fill-opacity:1;stroke:#000000;stroke-width:1.1582;stroke-dasharray:none;stroke-opacity:1" />
    <path
       d="m 398.7,162.69 8.5,7.35 10.35,4.01 1.15,5 -0.24,10.86 -2.12,12.5 0.56,8.99 4.5,15.09 -0.98,13.29 -6.58,9.49 -0.48,4.92 4.13,9.05 -1.7,3.92 0.69,5.47 -3.5,13.85 -0.93,10.49 2.33,6.93 1.51,6.87 -13.1,-0.34 -3.65,1.66 -2.5,-7.61 -4.02,-6.68 0.62,-6.55 -1.52,-4.31 -12.14,-8.02 -6.3,-5.42 -9.1,7.4 -12.11,-7.77 -3.13,-7.69 -10.2,-5.46 -8.22,-1.13 -1.98,-1.93 -11.72,-2.54 -8.25,-3.06 -11,1.04 -2.1,5.58 -8.52,1.09 0.27,-5.55 -2.92,-6.97 2.08,-0.19 5.75,-7.49 7.92,-4.17 3.1,3.09 28.97,-2.6 3.98,1.51 9.77,-4.2 2.04,-7.73 0.23,-6.83 -7.36,-4.34 -3.09,-8.4 -4.9,-6.03 1.35,-2.88 -4.03,-3.42 -2.59,-7.72 1.99,-6.28 5.45,0.68 4.91,-3.04 5.27,-6 10.87,-2.46 7.39,9.96 0.57,3.62 5.81,5.04 10.81,1.66 8.48,6.97 3.45,-0.75 -0.92,-8.5 3.25,-2.88 -2.65,-8.7 6.49,-2.47 -3.14,-5.06 z"
       id="M14212"
       style="fill:#ffff80;fill-opacity:1;stroke:#000000;stroke-width:1.1582;stroke-dasharray:none;stroke-opacity:1" />
    <path
       d="m 205.53,255.51 12.1,-1.13 5.55,-5.14 2.28,-4.73 12.04,2.83 2.09,4.51 13.49,-4.01 2.83,1.5 4.74,-5.77 1.31,-5.61 3.48,0.77 7.8,-2.24 11.45,4.66 -0.39,5.36 2.92,6.97 -0.27,5.55 -1.01,3.51 4.43,14.21 3.52,3.15 -0.13,4.91 7.87,5.7 1.62,4.64 5.03,3.74 3.2,8.4 -6.77,7.3 1.69,6.75 2.66,3.58 8.69,-4.34 1.32,1.44 12.51,-1.83 2.95,3.32 6.05,1.84 1.13,8.97 -7.64,-0.83 -7.31,1.42 -1.08,5.36 -6.22,13.08 -3.67,-0.88 -10.74,3.26 -6.22,-1.39 -3.24,2.73 -6.46,1.77 -10.22,-2.64 -4.33,2.17 -10.99,-10.64 -15.55,10.57 -5.58,3.09 -1.53,3.33 -5.89,-5.79 -2.77,-8.24 -9.59,2.38 -2.63,-9.81 -7.52,-8.36 -4.53,-9.84 0.37,-7.12 5.2,-4.3 -0.2,-13.52 -3.44,-3.52 2,-14.43 -2.64,-10.43 -3.72,-6.2 z"
       id="M14211"
       style="fill:#ffff80;fill-opacity:1;stroke:#000000;stroke-width:1.1582;stroke-dasharray:none;stroke-opacity:1" />
    <path
       d="m 630.26,596.03 10.15,1.43 0.67,4.54 -10.64,-0.53 z m 5.22,-57.93 4.37,-7.43 7.88,-2.85 3.29,-6.68 13.04,-1.22 7.23,-3.81 -0.06,5.88 8.72,12.64 -4.83,4.88 -4.04,8.74 0.73,8.17 3.8,2.47 0.4,7.64 2.66,5.45 4.56,1.99 9.95,0.98 1.47,6.31 -3.6,12.94 -7.18,-2.88 -10.97,3.23 -9.92,1.46 -5.55,-3.69 -8.88,1.31 -2.39,2.94 -4.04,-1.98 -7.32,-0.08 -6.66,-4.03 3.36,-4.1 4.31,-1.01 -5.46,-6.04 3.47,-3.26 2.31,-6.54 0.3,-11.07 3.08,-2.09 -2.07,-12.35 z"
       fill-rule="evenodd"
       id="M14210"
       style="fill:#ffff80;fill-opacity:1;stroke:#000000;stroke-width:1.1582;stroke-dasharray:none;stroke-opacity:1" />
  </g>
</svg>
