<?xml version="1.0" encoding="UTF-8" standalone="no"?>
<svg
   version="1.2"
   width="648.14203"
   height="600"
   viewBox="0 0 648.14203 600"
   stroke-linecap="round"
   stroke-linejoin="round"
   id="svg1462"
   sodipodi:docname="ks.svg"
   inkscape:version="1.2 (dc2aedaf03, 2022-05-15)"
   xmlns:inkscape="http://www.inkscape.org/namespaces/inkscape"
   xmlns:sodipodi="http://sodipodi.sourceforge.net/DTD/sodipodi-0.dtd"
   xmlns="http://www.w3.org/2000/svg"
   xmlns:svg="http://www.w3.org/2000/svg">
  <defs
     id="defs1466" />
  <sodipodi:namedview
     id="namedview1464"
     pagecolor="#505050"
     bordercolor="#eeeeee"
     borderopacity="1"
     inkscape:showpageshadow="0"
     inkscape:pageopacity="0"
     inkscape:pagecheckerboard="0"
     inkscape:deskcolor="#505050"
     showgrid="false"
     inkscape:zoom="1.3169915"
     inkscape:cx="332.57618"
     inkscape:cy="293.09225"
     inkscape:window-width="1920"
     inkscape:window-height="1009"
     inkscape:window-x="-8"
     inkscape:window-y="-8"
     inkscape:window-maximized="1"
     inkscape:current-layer="svg1462" />
  <g
     id="g1612"
     inkscape:label="ks">
    <path
       d="m 490.48585,70.465274 3.03173,4.03471 2.67461,2.36308 2.74299,0.0912 2.55304,-1.52726 1.43608,1.97556 0.038,3.38125 3.07732,2.12753 0.59267,2.02875 2.28709,1.28411 2.06674,3.87514 3.76877,0.4787 2.81137,1.55765 2.24911,-1.75521 1.26891,1.11695 1.49687,3.58641 -0.8814,3.40405 -1.87679,4.596976 -1.23092,0.889 2.2491,2.17312 -3.41924,0.92699 -2.78859,1.99076 -2.72019,-0.8814 -1.71722,-2.6974 -4.71856,-0.44831 -1.74001,0.56228 -7.2184,-2.2643 0.55467,2.46945 -2.2491,1.25373 -4.80213,-1.16255 -0.22036,1.91478 -2.92535,7.84906 0.97259,2.06674 -0.076,4.64258 -1.86158,1.98316 -0.927,-4.05751 -4.90851,-2.2187 -3.07732,0.15196 -3.26728,-4.34623 0.0152,-4.27786 0.82822,-1.46647 -0.50149,-5.12887 -5.12127,-5.736716 -3.75356,-0.80543 -2.7202,-1.51966 -1.28412,-2.84177 0.94219,-1.39809 -1.31451,-2.66701 0.57748,-2.01355 2.09713,-1.09416 0.26594,-2.02115 2.97095,0.47109 -0.008,-1.86918 8.76086,-1.29172 1.25372,-1.20053 0.25834,-2.46945 5.25044,-1.07137 1.62604,1.58805 2.15032,-0.98778 1.8008,-5.54677 z"
       id="M46392"
       style="fill:#ffff80;fill-opacity:1;stroke:#000000;stroke-width:1;stroke-dasharray:none;stroke-opacity:1" />
    <path
       d="m 532.50454,147.64138 -2.58342,-0.13677 -5.77472,4.42981 -1.26892,-0.64585 -2.91016,4.33864 -1.04857,4.23226 0.42551,1.77801 -2.67461,-1.25373 0.56988,-1.89958 -7.82627,-5.8583 -0.50149,-2.63661 2.00596,-2.04395 2.08194,-0.75983 0.19755,-3.13811 -4.14868,-1.778 -7.07403,-0.74464 -2.2719,1.56525 -4.0651,0.44831 0.99538,3.74597 -1.69442,1.63363 -1.99836,-0.12917 -3.28247,-1.67923 1.84639,-4.28545 4.22466,-3.02413 0.54708,-4.53619 -0.64586,-3.68519 3.66239,-2.19591 0.78263,-4.84013 -0.36472,-1.38289 3.19889,-2.58343 0.36472,-2.11233 5.30362,-4.12589 2.87217,0.19756 3.18369,-5.47079 3.1761,0.34193 2.11233,3.03173 2.53024,0.11397 1.61844,3.1457 0.70665,6.3522 2.15792,2.72779 2.2339,3.96632 5.78232,0.95739 3.04693,2.03635 -1.3829,4.16388 1.01818,3.80675 2.2567,-1.01817 1.48927,0.82822 -2.86457,2.705 -3.00133,-0.59267 -1.01818,3.1381 z"
       id="M46225"
       style="fill:#ffff80;fill-opacity:1;stroke:#000000;stroke-width:1;stroke-dasharray:none;stroke-opacity:1" />
    <path
       d="m 522.58114,95.083824 -1.49687,-3.58641 -1.26891,-1.11695 -2.24911,1.75521 -2.81137,-1.55765 -3.76877,-0.4787 -2.06674,-3.87514 -2.28709,-1.28411 -0.59267,-2.02875 -3.07732,-2.12753 -0.038,-3.38125 -1.43608,-1.97556 -2.55304,1.52726 -2.74299,-0.0912 -2.67461,-2.36308 -3.03173,-4.03471 2.7278,-2.6974 2.20351,-3.1533 1.99836,-4.19427 -0.63826,-3.6092 -2.97094,-2.89496 0.20515,-2.06674 -1.99076,-3.05452 -1.92997,-1.46648 0.23555,-4.23226 3.34326,1.3525 3.63199,-1.74002 1.74002,1.17774 4.9617,-0.38751 1.26892,-3.04693 2.46185,-1.22333 5.4328,-0.18995 1.3677,-3.29767 1.67162,-2.06674 -0.34192,-1.92998 3.30527,-0.80542 1.52726,6.02547 1.10935,1.778 6.25342,1.22333 0.72944,3.97392 3.32806,1.71722 6.18503,5.59236 4.65017,1.58045 -1.00298,3.85235 -2.6822,2.16552 -0.038,4.74895 0.35712,3.01653 -0.69904,4.36143 0.15197,3.68519 1.3373,2.18831 -0.75223,1.96037 -3.01654,1.18533 -2.667,4.37663 -1.99076,1.8312 -1.12455,4.62737 -3.43444,2.94815 z"
       id="M46224"
       style="fill:#ffff80;fill-opacity:1;stroke:#000000;stroke-width:1;stroke-dasharray:none;stroke-opacity:1" />
    <path
       d="m 503.72972,257.35347 -0.66105,2.02875 1.01057,1.58045 0.76743,3.78396 -1.06376,1.64124 -1.76281,5.31122 0.18236,2.62902 -2.31749,2.19591 -2.7202,1.39049 -4.81733,-5.99507 -2.54544,-2.05154 -3.22168,-1.51967 -3.31287,-0.34192 -2.83417,1.52726 -3.82195,-0.49389 -2.24151,-1.26892 -3.33566,0.67625 -4.09549,-0.25074 -0.15956,-4.55139 -1.05617,-4.0651 0.076,-3.49523 2.76579,-2.13513 -1.92997,-2.56823 -4.23986,2.43906 -3.76117,-0.29633 -0.79023,-2.53784 -3.20648,-3.82195 2.02875,-2.49985 1.3145,-0.0836 0.25835,-2.85697 2.00595,-2.04394 0.56228,-3.93593 -0.8966,-1.64884 1.07896,-1.74001 3.29007,-2.59863 0.85861,-2.04394 4.4982,-0.0456 0.51669,-2.46186 1.3221,-0.84341 1.51207,-3.23688 2.42386,-1.23853 3.632,-5.8583 4.59698,-2.43906 2.57583,3.39645 2.52264,0.038 2.83417,1.53486 0.77503,2.62902 -0.55468,1.90717 0.927,3.77637 4.43741,5.25803 0.42551,2.50745 -1.02577,3.62439 -0.0912,3.39645 -1.88438,1.05617 -1.46648,3.34326 0.99538,2.07434 3.02413,2.31748 1.67923,-0.40271 2.54543,2.31749 0.0152,2.87216 z"
       id="M46223"
       style="fill:#ffff80;fill-opacity:1;stroke:#000000;stroke-width:1;stroke-dasharray:none;stroke-opacity:1" />
    <path
       d="m 253.88866,276.68549 -1.8236,3.07732 -5.53917,0.56988 -0.86621,1.58045 2.62142,2.89495 -1.55006,1.42089 -4.0651,1.40569 -4.08029,0.59267 -2.95575,2.15032 -5.28083,-1.91478 -1.58045,4.92371 1.17774,2.24911 -2.39347,1.66403 -1.23093,2.55303 -2.05154,0.61547 -5.59996,-0.50909 2.13513,1.94517 1.89198,0.24314 3.80675,2.91776 1.88439,-0.67625 4.08029,2.72019 -0.47109,2.21111 -2.94055,0.96499 -0.50149,2.15032 -5.06048,1.48927 -3.10771,-4.90851 -2.78858,-1.12455 -2.90256,1.48927 -1.816,-0.25074 -2.11993,2.19591 -2.08953,-1.96796 -0.39512,-2.7506 -2.46945,-1.14734 -0.93459,-2.52264 1.37529,-3.44964 1.96037,-2.2415 3.85234,-2.19591 -3.5712,-3.36606 -0.0304,-2.2415 2.7126,-0.56228 2.94055,-1.83119 3.55601,-0.69905 0.9118,-2.20351 -0.63826,-2.10473 3.1685,-1.31451 3.38885,0.38751 -2.21871,-6.02546 0.41791,-2.42387 -0.88901,-2.53023 -2.30229,-0.82822 -3.62439,-2.36308 2.18831,0.61547 5.13647,-1.42089 1.61084,1.67923 2.97094,-0.18996 1.39049,-7.12722 2.53024,-0.0836 -0.0456,2.34788 2.2795,0.47109 1.61084,-1.56525 2.34788,0.86621 -0.31153,3.80676 2.65941,-2.84937 2.21111,-1.13215 -1.50447,-1.77801 1.73242,-3.73077 -0.55468,-2.21871 1.07896,-2.37068 3.07732,-1.26132 1.21573,-2.34028 1.89958,4.18667 -1.04097,4.48301 2.55304,6.07106 -1.31451,2.30988 0.29633,1.90718 -2.28709,1.3677 -1.01818,2.63662 -1.3525,-0.28114 -1.91477,3.24448 1.70202,1.54246 3.72318,0.48629 4.30064,-0.54708 z m 13.59339,-14.92309 2.93295,-0.54708 0.19755,-3.42684 -1.05616,-2.46945 2.65941,1.92237 0.68385,-1.83119 -2.2871,-4.0803 2.10474,-2.65181 0.56227,3.22169 2.76579,-2.81898 -0.37992,-2.48465 -3.26727,-3.31287 -0.21276,-1.8008 -2.03634,-2.07434 2.40866,-0.69144 4.23226,-6.51936 2.81898,-1.03337 0.79782,5.06808 -0.73703,1.8084 1.73241,4.59698 1.23853,1.67163 2.85696,1.59564 0.72184,4.0727 -1.48927,1.8008 1.13975,1.89958 -2.15792,4.39943 -3.19889,1.89958 -4.5286,0.68384 -1.58045,2.86457 z"
       fill-rule="evenodd"
       id="M46222"
       style="fill:#ffff80;fill-opacity:1;stroke:#000000;stroke-width:1;stroke-dasharray:none;stroke-opacity:1" />
    <path
       d="m 616.32917,219.08075 -1.71722,-0.75983 -0.0684,-2.05155 -1.66403,-1.19293 -2.48465,0.31153 -2.743,-3.01653 -2.01355,1.3373 -0.64586,2.11233 -3.34326,1.15495 -2.18831,-2.34788 -4.20187,-2.91016 1.43608,-6.92207 -1.56525,-0.91939 2.10473,-2.46946 0.49389,-5.97987 2.84937,0.27354 3.13811,2.29469 3.36605,-1.3677 0.28114,-4.80213 1.92237,-0.40271 2.46186,-2.41627 -2.09714,-4.62737 -1.89198,-1.69443 0.0988,-1.51966 1.86919,-3.29007 5.58476,2.29469 1.54246,-0.18996 4.28545,1.7932 3.75357,-0.28113 2.56063,0.83581 2.18831,-1.3449 0.50909,-2.47705 3.10771,0.34192 3.70798,-1.86159 0.18236,-1.74001 2.2491,-1.3753 0.56988,-2.2491 3.98151,2.2491 -0.66865,3.67759 0.42551,1.66403 2.20351,2.10474 1.73242,3.88274 -0.79023,3.22928 -2.6898,2.53784 1.31451,1.23852 1.3145,5.36441 -0.15956,3.38885 -0.84341,1.55766 -5.34922,2.41626 -0.22795,2.02116 -1.69442,2.53023 -0.0684,4.77935 -5.61515,-0.50909 -2.7278,-1.55766 -2.93295,-0.72184 -3.41164,4.86293 -1.61845,-1.12455 -1.98316,0.81302 z"
       id="M46221"
       style="fill:#ffff80;fill-opacity:1;stroke:#000000;stroke-width:1;stroke-dasharray:none;stroke-opacity:1" />
    <path
       d="m 268.06033,281.40974 -0.0304,5.4252 -1.28412,-0.58507 z m 215.57944,-69.82093 -4.59698,2.43906 -3.632,5.8583 -2.42386,1.23853 -1.51207,3.23688 -1.3221,0.84341 -0.51669,2.46186 -4.4982,0.0456 -0.85861,2.04394 -3.29007,2.59863 -1.07896,1.74001 0.8966,1.64884 -0.56228,3.93593 -2.00595,2.04394 -0.25835,2.85697 -1.3145,0.0836 -2.02875,2.49985 -1.85399,-1.08656 -3.51802,1.96036 -3.89034,4.35384 -1.816,0.82062 -3.06212,-0.28114 2.76579,4.19427 1.70202,0.70664 -3.31287,4.00432 2.22631,3.11531 0.0836,2.16552 -3.92833,0.75983 -0.99538,-1.57285 -3.49522,1.3601 -0.58507,-4.91612 1.24612,-2.44665 -4.23226,0.17476 -1.67923,-2.30229 0.8966,-1.13975 4.0575,-1.18534 0.97259,-1.23852 -2.49225,-3.85995 -5.4328,1.09416 -2.52264,-3.28247 3.87514,0.0152 2.2719,-1.86918 0.60786,-2.84177 -3.06212,-2.45426 -0.98018,-2.21871 -3.41164,0.0684 -5.37961,-5.8583 -1.3601,-3.22169 -4.19427,-3.49523 -3.76877,0.79783 0.66106,-2.19592 2.73539,-0.4483 2.65181,1.69443 2.34788,-2.705 1.8388,-0.8966 0.8738,-2.11994 1.93757,1.10936 0.82822,3.64719 2.73539,0.60027 0.68385,1.97556 8.32016,2.00596 1.87678,-1.86919 8.09981,-4.29305 4.41462,-6.67132 3.32046,-6.39018 1.23853,-3.15331 1.96796,1.27652 5.22005,0.42551 1.19293,1.57285 1.94517,-0.4711 5.53158,1.18534 2.97854,-0.82822 2.33268,-2.12753 5.15166,-1.48167 2.22631,2.40107 z"
       fill-rule="evenodd"
       id="M46220"
       style="fill:#ffff80;fill-opacity:1;stroke:#000000;stroke-width:1;stroke-dasharray:none;stroke-opacity:1" />
    <path
       d="m 468.97502,146.97272 0.0456,5.24284 -1.42848,1.16255 -8.98881,2.11233 0.25074,2.59862 -1.8084,2.00596 0.30393,2.6746 -1.85398,2.49225 -3.46484,-0.78262 -0.076,-2.08954 -2.34028,-4.88572 -2.75819,-4.03471 -2.88736,-0.45589 -0.4559,-3.77637 -1.67163,-0.10637 -0.84341,-2.30989 -1.93757,-0.56228 -2.87977,-3.25968 -3.23688,-2.49224 -2.67461,0.4255 -1.52726,2.01356 -1.3449,-6.07866 -1.13975,-2.11993 2.36308,-0.85101 0.94979,-1.92237 2.13513,-0.23555 1.98316,1.26132 4.30064,-0.54708 1.17014,2.65181 2.43147,0.0912 1.89198,2.51505 1.7932,0.50149 3.37365,2.49224 4.27785,-2.02875 1.8084,-0.076 1.30691,3.09251 3.51802,0.4711 2.99374,-1.41329 2.18072,0.85101 1.03337,2.40107 2.29469,0.0912 z"
       id="M46219"
       style="fill:#ffff80;fill-opacity:1;stroke:#000000;stroke-width:1;stroke-dasharray:none;stroke-opacity:1" />
    <path
       d="m 514.6333,109.06472 2.78859,-1.99076 3.41924,-0.92699 -2.2491,-2.17312 1.23092,-0.889 1.87679,-4.596976 8.41893,0.47869 3.22169,-1.99076 4.77934,1.68683 0.66105,1.21573 4.90092,1.466466 6.13184,-0.27354 3.31287,-1.762806 3.00133,-2.88736 2.08954,-0.22035 5.4252,-2.74299 5.19724,-0.37232 5.4252,2.23391 2.7126,2.99373 2.6898,4.726156 1.53486,3.82955 -2.15792,7.03604 0.31153,2.31749 -2.80377,1.91477 1.19293,2.7126 -1.04857,4.521 1.64884,2.61382 -1.71722,3.78396 0.65345,3.65479 -1.06376,1.8388 5.38721,4.08789 -1.51967,1.49687 -1.12455,2.88736 2.45426,1.27652 -0.0532,8.03901 1.20813,1.44368 -0.12917,3.73838 1.52726,3.85994 -1.76281,0.75223 -7.24879,-1.36009 -0.24315,4.18667 3.28248,2.7202 -0.43311,4.39182 -4.19427,-0.82062 -1.42848,1.98317 -1.63364,1.89957 -5.15166,1.06377 -2.04395,-1.66403 0.13677,-3.632 -2.92535,-1.58805 1.87679,-2.37827 1.86918,-0.94979 1.02577,-3.72317 -2.56063,-6.05586 -1.82359,-1.28412 -2.24911,-3.63959 -2.30988,0.15956 -3.34326,-1.20813 -7.73509,-0.70664 -0.48629,-2.02875 -2.52264,-1.87679 h -2.2871 l -4.29305,-2.45425 -2.97854,1.76281 1.99076,-2.87217 1.01818,-3.1381 3.00133,0.59267 2.86457,-2.705 -1.48927,-0.82822 -2.2567,1.01817 -1.01818,-3.80675 1.3829,-4.16388 -3.04693,-2.03635 -5.78232,-0.95739 -2.2339,-3.96632 -2.15792,-2.72779 -0.70665,-6.3522 -1.61844,-3.1457 -2.53024,-0.11397 -2.11233,-3.03173 z"
       id="M46218"
       style="fill:#ffff80;fill-opacity:1;stroke:#000000;stroke-width:1;stroke-dasharray:none;stroke-opacity:1" />
    <path
       d="m 594.78035,197.67629 -1.45128,-1.39049 -3.28247,-1.00298 -2.7506,-3.37365 -0.46349,-3.38885 -2.21871,-0.88141 -4.11829,-6.24581 -2.2339,-1.99076 -3.38125,-1.25372 -2.94055,-2.20351 1.42848,-1.98317 4.19427,0.82062 0.43311,-4.39182 -3.28248,-2.7202 0.24315,-4.18667 7.24879,1.36009 1.76281,-0.75223 -1.52726,-3.85994 0.12917,-3.73838 -1.20813,-1.44368 0.0532,-8.03901 -2.45426,-1.27652 1.12455,-2.88736 1.51967,-1.49687 -5.38721,-4.08789 1.06376,-1.8388 -0.65345,-3.65479 1.71722,-3.78396 3.54841,1.11695 3.66239,-0.61546 2.50744,4.34624 8.02383,1.21573 4.38423,0.36472 1.01057,2.27189 -2.93295,3.13051 0.0912,1.85399 2.63662,0.0988 1.54246,1.3297 3.74597,-0.72944 0.52428,6.18503 -0.98778,2.87217 3.35845,3.97392 -1.07136,1.44368 0.12157,4.483 1.43609,2.84177 3.28247,2.65182 0.31153,2.62901 1.45888,2.18072 3.94352,-6.24581 1.45128,-0.53189 4.70336,3.92833 3.00893,3.54842 2.77339,1.07896 4.36903,-1.06377 2.34028,-1.64123 2.37828,0.91939 -0.56988,2.2491 -2.2491,1.3753 -0.18236,1.74001 -3.70798,1.86159 -3.10771,-0.34192 -0.50909,2.47705 -2.18831,1.3449 -2.56063,-0.83581 -3.75357,0.28113 -4.28545,-1.7932 -1.54246,0.18996 -5.58476,-2.29469 -1.86919,3.29007 -0.0988,1.51966 1.89198,1.69443 2.09714,4.62737 -2.46186,2.41627 -1.92237,0.40271 -0.28114,4.80213 -3.36605,1.3677 -3.13811,-2.29469 -2.84937,-0.27354 z"
       id="M46217"
       style="fill:#ffff80;fill-opacity:1;stroke:#000000;stroke-width:1;stroke-dasharray:none;stroke-opacity:1" />
    <path
       d="m 481.2539,207.32615 -5.15166,1.48167 -2.33268,2.12753 -2.97854,0.82822 -5.53158,-1.18534 -1.94517,0.4711 -1.19293,-1.57285 -5.22005,-0.42551 -1.96796,-1.27652 2.91015,-8.82924 1.56526,-9.39912 0.12917,-9.29274 -0.47869,-4.01191 -1.74002,-7.26399 -1.82359,-3.71558 1.85398,-2.49225 -0.30393,-2.6746 1.8084,-2.00596 -0.25074,-2.59862 8.98881,-2.11233 1.42848,-1.16255 -0.0456,-5.24284 2.97094,-0.82061 4.21707,0.47869 0.4255,3.81435 1.47408,1.62604 0.60786,2.65182 2.59862,0.82821 0.4787,4.0803 1.11695,2.6974 -0.60786,1.60325 1.8084,1.67922 2.29469,0.61547 1.55005,3.85994 0.38752,3.12291 -6.46617,-0.8814 -0.20515,1.20813 -3.00894,1.10935 1.07896,2.92536 -0.60026,1.94516 -4.9921,1.3753 -3.00133,3.71558 0.54708,1.61084 2.86456,2.86456 1.66403,-0.0152 1.87679,2.46185 1.7932,4.04991 1.41329,0.0152 2.58342,2.23391 0.32673,5.13646 -3.36605,3.37365 z"
       id="M46216"
       style="fill:#ffff80;fill-opacity:1;stroke:#000000;stroke-width:1;stroke-dasharray:none;stroke-opacity:1" />
    <path
       d="m 340.99657,131.60133 2.45426,2.2415 -0.75983,1.41329 0.71424,2.33268 -1.55766,2.50745 0.0228,1.72482 -2.44666,1.86158 0.40271,1.91478 -2.43146,5.91149 -2.29469,0.65345 -2.11993,-1.7932 -1.87679,2.87217 0.75224,4.17907 -3.78396,4.65777 0.28873,2.62902 2.37827,1.51966 -2.49224,1.67163 -1.27652,2.02115 -2.11993,1.3677 -2.01355,-0.4787 -1.00298,3.53322 -2.51505,-0.038 -0.0608,-1.67923 -3.98912,-2.91775 -1.60324,-4.79454 5.06048,-0.67625 0.36472,-4.55139 2.05154,-3.01653 -0.53188,-2.37828 2.35548,-1.16254 0.84341,-4.09549 3.22928,-1.44368 4.0803,-1.02577 2.07434,-1.3981 5.33402,-0.63825 1.27652,-3.55602 2.01355,-3.66998 -1.56525,-1.29172 z m 11.7546,-7.07403 0.68385,1.56525 -1.48168,1.89958 -0.0912,1.99836 -2.05914,3.09251 -2.16552,1.26892 -0.54708,-4.36143 1.10176,-1.04097 0.41031,-2.79618 z m 2.74299,-16.2604 4.56659,3.80676 1.70962,2.72779 3.24448,1.27652 0.41031,1.27652 2.65181,1.10175 1.67163,-1.66403 -1.99076,-1.64124 0.12158,-2.38587 3.02413,0.95739 1.57285,2.82657 -1.89198,0.71425 1.48927,2.28709 0.15956,3.6244 -2.37067,1.89198 -2.44666,-1.30691 -1.83879,2.11233 -5.4328,1.10935 -0.10638,-2.77338 -1.85399,0.22795 -0.93459,-1.69443 0.38752,-2.47705 -3.1685,0.79782 1.08656,-4.91611 -2.22631,-1.99835 -1.8236,1.58045 -0.49389,3.83715 -2.18831,-2.47706 -0.95739,-3.38884 2.30989,-1.61085 1.51966,-3.46483 z m 105.90534,-22.240266 -0.57748,2.01355 1.31451,2.66701 -0.94219,1.39809 1.28412,2.84177 2.7202,1.51966 3.75356,0.80543 5.12127,5.736716 0.50149,5.12887 -0.82822,1.46647 -0.0152,4.27786 3.26728,4.34623 3.07732,-0.15196 4.90851,2.2187 0.927,4.05751 1.86158,-1.98316 0.076,-4.64258 -0.97259,-2.06674 2.92535,-7.84906 0.22036,-1.91478 4.80213,1.16255 2.2491,-1.25373 -0.55467,-2.46945 7.2184,2.2643 1.74001,-0.56228 4.71856,0.44831 1.71722,2.6974 2.72019,0.8814 -3.18369,5.47079 -2.87217,-0.19756 -5.30362,4.12589 -0.36472,2.11233 -3.19889,2.58343 0.36472,1.38289 -0.78263,4.84013 -3.66239,2.19591 0.64586,3.68519 -0.54708,4.53619 -4.22466,3.02413 -1.84639,4.28545 -4.0955,-1.60324 -2.09713,1.11695 -2.64422,-0.0836 -2.65181,3.41164 -1.58045,0.49389 -0.4255,-3.81435 -4.21707,-0.47869 -2.97094,0.82061 -0.9118,-2.87976 -2.29469,-0.0912 -1.03337,-2.40107 -2.18072,-0.85101 -2.99374,1.41329 -3.51802,-0.4711 -1.30691,-3.09251 -1.8084,0.076 -4.27785,2.02875 -3.37365,-2.49224 -1.7932,-0.50149 -1.89198,-2.51505 -2.43147,-0.0912 -1.17014,-2.65181 -4.30064,0.54708 -1.98316,-1.26132 -2.13513,0.23555 -0.94979,1.92237 -2.36308,0.85101 -1.76281,-1.51966 -1.15494,-2.56823 1.40569,-1.53486 0.008,-3.54082 1.48927,-0.84341 1.60324,-4.62738 1.66403,-1.89957 0.16717,-3.43444 1.51206,-2.90256 1.40569,-0.69145 2.53024,-6.12424 0.64586,-3.83715 -1.05617,-1.603236 0.14437,-2.93296 4.67296,-1.24612 4.15628,1.3525 1.3525,-2.11233 0.38752,-3.78396 -0.4635,-3.95873 2.93295,1.87679 1.42088,2.00595 1.97557,-0.18995 1.40568,-3.72318 2.08194,-2.61382 4.71096,1.77801 z"
       fill-rule="evenodd"
       id="M46215"
       style="fill:#ffff80;fill-opacity:1;stroke:#000000;stroke-width:1;stroke-dasharray:none;stroke-opacity:1" />
    <path
       d="m 560.32198,172.02437 2.92535,1.58805 -0.13677,3.632 2.04395,1.66403 0.87381,2.39347 -2.02875,2.82657 0.22035,4.85533 -1.49687,2.37067 0.94219,2.40867 -2.68221,1.54246 0.70665,2.94814 -2.86457,4.39183 2.12753,2.62902 1.8236,0.35712 1.04856,1.74761 0.25075,3.83715 -1.96796,2.87216 -0.4787,4.1031 -2.56063,2.65181 0.0152,1.3449 -4.80214,0.8814 -2.78858,2.13513 0.0228,1.99836 -1.05616,-3.00134 -3.97392,-4.21706 -1.62604,-2.38587 -6.50416,-2.46186 -1.76281,-6.95246 1.48167,-2.93295 -0.61546,-2.31748 0.82061,-3.93593 1.64884,-1.67163 0.0836,-2.30989 -1.87678,-3.66999 1.85399,-0.40271 9.77903,-0.26594 3.19129,-1.32211 4.42982,-5.68354 -0.038,-4.63497 1.88438,-2.2339 z"
       id="M46214"
       style="fill:#ffff80;fill-opacity:1;stroke:#000000;stroke-width:1;stroke-dasharray:none;stroke-opacity:1" />
    <path
       d="m 572.60846,390.72672 0.69904,3.632 1.46648,2.49984 -0.77503,2.56823 -1.66403,1.3601 -3.96632,-0.40271 0.86621,-5.50878 z m 37.77883,44.66291 -5.47839,-4.45262 -4.82493,-2.43906 0.58507,-1.89958 -1.85399,-1.83119 0.19756,-3.11531 -6.70172,1.66403 -1.59564,-3.10771 1.26892,-4.36903 -1.32211,-1.77801 2.97854,-2.95574 4.16388,-6.51176 0.83581,-3.80676 3.28247,-0.4635 -0.98018,-2.42386 3.00893,-3.56361 1.23093,-3.78396 -1.27652,-4.0803 6.23822,-8.16059 1.89958,-1.7932 3.1685,-4.26266 1.45888,1.02578 0.37231,4.76414 1.95277,1.70202 -0.26594,2.95575 1.73242,0.62306 0.82061,3.06212 -2.40106,3.57121 0.14436,12.84875 1.04097,5.47079 -1.98316,0.58507 -1.44368,2.52264 0.34193,1.94517 -1.57285,1.14735 -1.3829,6.03306 1.93757,1.61844 -1.26892,2.81898 0.4863,6.08625 -1.59565,2.49225 z"
       fill-rule="evenodd"
       id="M46213"
       style="fill:#ffff80;fill-opacity:1;stroke:#000000;stroke-width:1;stroke-dasharray:none;stroke-opacity:1" />
    <path
       d="m 497.16477,277.91451 2.7202,-1.39049 2.31749,-2.19591 -0.18236,-2.62902 1.76281,-5.31122 1.06376,-1.64124 -0.76743,-3.78396 -1.01057,-1.58045 0.66105,-2.02875 1.42088,0.37992 5.92669,-1.48168 2.41627,-1.31451 3.25208,2.99374 1.69442,-0.22795 3.03933,4.23986 3.06972,1.23093 5.06807,0.18236 1.66403,1.05617 -3.5788,5.60755 0.0608,2.79618 1.62604,3.32807 -3.63959,0.8738 -2.44666,1.57285 3.49523,2.06675 -1.17014,3.05452 -3.08492,2.38587 -5.34162,-0.34192 -2.59102,2.16552 -0.77503,3.29767 -4.74895,-3.89034 -2.16552,-0.56988 -2.94055,2.83418 -2.14272,0.92699 -2.61382,-0.61546 -2.05155,-2.33269 -0.076,-4.67296 1.58805,-1.20813 z"
       id="M46210"
       style="fill:#ffff80;fill-opacity:1;stroke:#000000;stroke-width:1;stroke-dasharray:none;stroke-opacity:1" />
    <path
       d="m 521.69974,98.487874 0.8814,-3.40405 4.80974,-1.30691 3.43444,-2.94815 1.12455,-4.62737 1.99076,-1.8312 2.667,-4.37663 3.01654,-1.18533 0.75223,-1.96037 -1.3373,-2.18831 -0.15197,-3.68519 0.69904,-4.36143 -0.35712,-3.01653 6.95246,2.63661 2.56823,3.03933 2.37828,0.75223 0.64585,2.05915 3.32807,2.2263 0.38751,4.71856 1.19294,4.80213 2.2263,1.47408 2.32509,5.97227 2.40867,2.18072 -5.4252,2.74299 -2.08954,0.22035 -3.00133,2.88736 -3.31287,1.762806 -6.13184,0.27354 -4.90092,-1.466466 -0.66105,-1.21573 -4.77934,-1.68683 -3.22169,1.99076 z"
       id="M46452"
       style="fill:#ffff80;fill-opacity:1;stroke:#000000;stroke-width:1;stroke-dasharray:none;stroke-opacity:1" />
    <path
       d="m 490.48585,70.465274 -2.65941,0.0684 -1.8008,5.54677 -2.15032,0.98778 -1.62604,-1.58805 -5.25044,1.07137 -0.25834,2.46945 -1.25372,1.20053 -8.76086,1.29172 0.008,1.86918 -2.97095,-0.47109 -0.26594,2.02115 -2.09713,1.09416 -1.90718,0.0456 -4.71096,-1.77801 -1.3525,-2.67461 -1.73241,-0.64585 -0.60787,-3.01654 -6.67892,-4.77174 -1.44368,-0.008 -2.56063,-4.52859 1.17774,-4.85533 -3.90554,-2.88736 0.17476,-5.69874 -1.23852,-3.1533 0.82062,-1.67922 -0.36472,-3.30527 0.66105,-1.22333 h 3.78396 l 2.75819,2.31749 4.9921,2.50744 4.89331,0.28114 1.3601,-2.23391 4.59698,-2.03635 3.32806,-2.79618 0.42551,-2.31748 1.84639,-1.67163 -0.95739,-2.7126 2.91776,0.69144 3.16849,3.07732 1.15495,3.37366 2.43906,2.49984 -0.13677,1.05617 8.30496,1.58805 5.59236,-0.42551 1.89198,-1.71722 1.92997,1.46648 1.99076,3.05452 -0.20515,2.06674 2.97094,2.89496 0.63826,3.6092 -1.99836,4.19427 -2.20351,3.1533 z"
       id="M46208"
       style="fill:#ffff80;fill-opacity:1;stroke:#000000;stroke-width:1;stroke-dasharray:none;stroke-opacity:1" />
    <path
       d="m 454.78136,84.294214 -2.08194,2.61382 -1.40568,3.72318 -1.97557,0.18995 -1.42088,-2.00595 -2.93295,-1.87679 0.4635,3.95873 -0.38752,3.78396 -1.3525,2.11233 -4.15628,-1.3525 -4.67296,1.24612 -0.75224,-5.15925 -1.69442,-6.01027 -1.83879,-1.3525 0.31913,-1.69443 -2.80378,-1.29171 -2.09714,-2.93295 0.0912,-3.70038 2.66701,-0.58507 -0.15956,-2.99374 2.63661,-2.21111 0.11398,-3.83715 0.82821,-1.24612 -1.8084,-4.78694 -5.96467,-0.28874 0.94219,-7.06643 1.13974,-1.18534 6.50416,-3.72317 4.74895,-0.77503 -0.66105,1.22333 0.36472,3.30527 -0.82062,1.67922 1.23852,3.1533 -0.17476,5.69874 3.90554,2.88736 -1.17774,4.85533 2.56063,4.52859 1.44368,0.008 6.67892,4.77174 0.60787,3.01654 1.73241,0.64585 z"
       id="M46206"
       style="fill:#ffff80;fill-opacity:1;stroke:#000000;stroke-width:1;stroke-dasharray:none;stroke-opacity:1" />
    <path
       d="m 454.637,247.16413 3.20648,3.82195 0.79023,2.53784 3.76117,0.29633 4.23986,-2.43906 1.92997,2.56823 -2.76579,2.13513 -0.076,3.49523 1.05617,4.0651 0.15956,4.55139 -3.85995,0.23555 -2.08193,-1.21574 -5.40241,-0.38751 -1.96796,-2.37827 -1.8312,0.77503 -3.08491,-0.95739 -0.38752,3.31286 -1.55005,1.32971 -2.81138,-1.7932 -0.0836,-2.16552 -2.22631,-3.11531 3.31287,-4.00432 -1.70202,-0.70664 -2.76579,-4.19427 3.06212,0.28114 1.816,-0.82062 3.89034,-4.35384 3.51802,-1.96036 z"
       id="M46204"
       style="fill:#ffff80;fill-opacity:1;stroke:#000000;stroke-width:1;stroke-dasharray:none;stroke-opacity:1" />
    <path
       d="m 610.91917,238.88196 -2.16552,1.17014 -0.63066,-3.48003 2.15792,-0.19755 z m -3.06972,-6.80809 -1.17014,4.81733 v 4.27786 l -1.09416,-0.62307 -2.6746,1.20814 -2.51505,-0.21276 -1.14734,1.8084 -2.34028,-1.30691 -0.31913,-3.20649 -1.58805,-3.28247 -0.37232,-6.61054 -1.17014,-1.3221 0.4331,-6.43578 0.66106,0.52429 1.21573,6.53455 4.0423,3.32806 4.27785,-0.63826 z"
       fill-rule="evenodd"
       id="M46482"
       style="fill:#ffff80;fill-opacity:1;stroke:#000000;stroke-width:1;stroke-dasharray:none;stroke-opacity:1" />
    <path
       d="m 587.296,191.90917 2.7506,3.37365 3.28247,1.00298 1.45128,1.39049 2.94814,-2.2491 -0.49389,5.97987 -2.10473,2.46946 1.56525,0.91939 -1.43608,6.92207 4.20187,2.91016 2.18831,2.34788 3.34326,-1.15495 0.64586,-2.11233 2.01355,-1.3373 2.743,3.01653 2.48465,-0.31153 1.66403,1.19293 0.0684,2.05155 1.71722,0.75983 -4.20187,4.9769 -2.49984,4.0651 -1.77801,3.95112 -3.76117,-1.13975 -4.27785,0.63826 -4.0423,-3.32806 -1.21573,-6.53455 -0.66106,-0.52429 -2.42386,-6.70171 -4.68056,-1.20054 -1.60325,0.29634 -3.1685,-4.72616 0.22036,-3.99671 2.6898,0.038 1.25372,-6.92206 -0.85861,-2.11994 0.65346,-3.16849 z"
       id="M46468"
       style="fill:#ffff80;fill-opacity:1;stroke:#000000;stroke-width:1;stroke-dasharray:none;stroke-opacity:1" />
    <path
       d="m 565.15451,178.90845 5.15166,-1.06377 1.63364,-1.89957 2.94055,2.20351 3.38125,1.25372 2.2339,1.99076 4.11829,6.24581 2.21871,0.88141 0.46349,3.38885 -1.3221,0.77503 -0.65346,3.16849 0.85861,2.11994 -1.25372,6.92206 -2.6898,-0.038 -0.22036,3.99671 3.1685,4.72616 1.60325,-0.29634 4.68056,1.20054 2.42386,6.70171 -0.4331,6.43578 1.17014,1.3221 0.37232,6.61054 1.58805,3.28247 -1.01818,1.18534 -5.05288,0.65345 -2.56063,-0.18236 -3.19129,-1.48927 -1.86159,-2.705 0.4331,-3.1533 -2.60622,-1.43608 0.38751,5.78992 1.90718,3.00893 1.8008,0.81302 0.62306,10.8276 1.67923,2.58343 -0.0684,1.97556 1.27651,2.65182 -1.25372,1.59564 1.70962,4.84773 -0.34952,1.45887 1.58805,2.84177 -0.67625,2.68221 -2.01356,1.48927 -1.99835,-0.72184 -2.88736,-2.99374 -0.88901,-2.39347 -2.07434,0.72184 -3.1381,-4.98449 -2.84937,-0.55468 1.24612,-4.62737 -1.15494,-2.2719 -3.69278,-0.59267 -2.30229,-1.92997 -3.03933,0.34952 -2.40866,-0.68385 -1.08656,2.56064 -2.47706,0.97258 -0.57747,-2.46185 2.08194,-4.22467 0.63066,-3.73077 -1.99076,-3.10771 -0.82821,-2.88736 -2.31749,-3.1761 -0.54708,-2.97094 -2.35548,-5.74433 -1.17014,-1.61844 -0.0228,-1.99836 2.78858,-2.13513 4.80214,-0.8814 -0.0152,-1.3449 2.56063,-2.65181 0.4787,-4.1031 1.96796,-2.87216 -0.25075,-3.83715 -1.04856,-1.74761 -1.8236,-0.35712 -2.12753,-2.62902 2.86457,-4.39183 -0.70665,-2.94814 2.68221,-1.54246 -0.94219,-2.40867 1.49687,-2.37067 -0.22035,-4.85533 2.02875,-2.82657 z"
       id="M46203"
       style="fill:#ffff80;fill-opacity:1;stroke:#000000;stroke-width:1;stroke-dasharray:none;stroke-opacity:1" />
    <path
       d="m 489.65764,147.10949 3.28247,1.67923 1.99836,0.12917 1.69442,-1.63363 -0.99538,-3.74597 4.0651,-0.44831 2.2719,-1.56525 7.07403,0.74464 4.14868,1.778 -0.19755,3.13811 -2.08194,0.75983 -2.00596,2.04395 0.50149,2.63661 7.82627,5.8583 -0.56988,1.89958 2.67461,1.25373 1.47407,4.25505 -1.45887,0.18996 -1.73242,2.59103 -0.22035,3.33566 -5.69114,4.21706 -0.73704,3.03933 -2.10473,1.57285 1.45128,4.5362 -0.15197,2.27949 -2.15032,6.02547 -2.15033,0.68384 -1.7856,2.18832 -1.61844,7.08163 -0.36472,5.80511 -2.30989,-2.05154 -1.52726,0.39511 1.20053,4.88572 2.93295,0.37992 -0.12917,1.93757 -3.6092,-0.4635 0.62306,6.63333 1.3905,3.32806 0.59266,4.42222 2.47706,4.17908 2.38587,-1.42849 1.75521,2.62142 -2.61382,2.91776 4.00431,13.16028 2.31749,3.25208 1.89958,1.3297 -2.41627,1.31451 -5.92669,1.48168 -1.42088,-0.37992 -2.35548,-4.11829 -0.0152,-2.87216 -2.54543,-2.31749 -1.67923,0.40271 -3.02413,-2.31748 -0.99538,-2.07434 1.46648,-3.34326 1.88438,-1.05617 0.0912,-3.39645 1.02577,-3.62439 -0.42551,-2.50745 -4.43741,-5.25803 -0.927,-3.77637 0.55468,-1.90717 -0.77503,-2.62902 -2.83417,-1.53486 -2.52264,-0.038 -2.57583,-3.39645 -0.15956,-1.86159 -2.22631,-2.40107 -0.4483,-0.98778 3.36605,-3.37365 -0.32673,-5.13646 -2.58342,-2.23391 -1.41329,-0.0152 -1.7932,-4.04991 -1.87679,-2.46185 -1.66403,0.0152 -2.86456,-2.86456 -0.54708,-1.61084 3.00133,-3.71558 4.9921,-1.3753 0.60026,-1.94516 -1.07896,-2.92536 3.00894,-1.10935 0.20515,-1.20813 6.46617,0.8814 -0.38752,-3.12291 -1.55005,-3.85994 -2.29469,-0.61547 -1.8084,-1.67922 0.60786,-1.60325 -1.11695,-2.6974 -0.4787,-4.0803 -2.59862,-0.82821 -0.60786,-2.65182 -1.47408,-1.62604 1.58045,-0.49389 2.65181,-3.41164 2.64422,0.0836 2.09713,-1.11695 z m 50.33125,43.83469 -1.85399,0.40271 -3.54842,2.81898 -3.56361,-2.2491 -5.66074,2.10473 -2.47706,-3.03933 -7.69709,-6.04066 -0.20515,-2.01355 3.28247,-2.15033 1.06376,-2.81137 3.21409,-3.01653 3.54082,-0.0836 5.75952,-1.70202 3.26728,1.47407 1.69442,-0.75223 4.61218,6.10145 0.96499,3.28247 -1.67923,1.87679 1.26892,1.36769 z"
       fill-rule="evenodd"
       id="M46201"
       style="fill:#ffff80;fill-opacity:1;stroke:#000000;stroke-width:1;stroke-dasharray:none;stroke-opacity:1" />
    <path
       d="m 425.08714,20.065644 2.2567,5.06808 3.10012,3.594 -2.37068,2.16552 -0.9194,1.92238 0.63066,3.29007 2.11234,-0.41031 2.03635,1.38289 0.64585,2.2719 -0.9118,1.24612 -2.63661,0.33433 -2.94815,2.65181 -0.63826,5.50878 -2.06674,4.63497 -2.08954,1.98316 -1.86158,-1.11695 -0.58507,-3.1761 -1.67923,0.30394 -2.05915,-2.53784 -2.01355,-0.73704 -1.32971,-1.89958 0.83582,-6.34459 -1.49687,-2.67461 -0.26594,-2.47705 -1.98316,-1.04097 -0.67625,-2.65941 1.08656,-1.97556 3.66239,-2.06674 -2.81898,-0.74464 0.076,-2.47705 3.22169,0.30393 2.33268,-1.04097 3.84475,2.15033 -0.20515,-2.22631 1.70962,-2.37827 1.7856,1.01817 z m 2.62142,-10.12856 0.60027,1.95277 -3.05453,3.51042 0.22795,2.33269 -1.21573,2.18071 -1.89958,-0.75223 1.23093,-4.31584 1.94517,-1.08656 2.44666,-2.66701 z m 1.8236,6.31421 1.3449,1.17773 -0.0988,2.43147 2.19591,2.57583 -0.23554,2.51504 -3.67759,-1.99076 0.9042,-3.21409 z m 13.31985,-15.751315 2.62142,5.972275 -7.29439,5.37961 -1.94517,-0.13677 -2.79618,2.43906 0.0532,-7.05124 2.02115,-3.267274 2.22631,-1.778006 3.10771,-0.410309 z"
       fill-rule="evenodd"
       id="M46404"
       style="fill:#ffff80;fill-opacity:1;stroke:#000000;stroke-width:1;stroke-dasharray:none;stroke-opacity:1" />
    <path
       d="m 596.58875,238.83637 0.31913,3.20649 2.34028,1.30691 1.14734,-1.8084 2.51505,0.21276 2.6746,-1.20814 1.09416,0.62307 1.62604,1.13214 5.31122,1.44368 3.09252,1.8312 2.84937,0.21275 5.15166,2.10474 1.48167,-0.25075 -0.69905,3.82955 -1.29171,2.77339 -2.2567,2.49225 -2.79618,1.45127 0.57747,2.94815 1.60324,1.28412 1.8084,-1.09416 3.29008,0.86621 4.9617,-2.30229 0.31913,1.18533 -2.07435,2.2795 -2.38587,1.3373 -6.68652,5.31882 -2.93295,4.23227 -6.61053,0.47109 -3.95113,-0.53188 -2.38587,3.37365 0.73704,2.47705 -1.42848,3.82956 -3.93593,2.82657 0.51668,1.38289 -3.21408,1.67163 1.3145,2.35548 -0.8814,2.66701 -2.56063,2.07434 -7.33998,3.76877 -1.52726,-0.44071 -1.23852,2.95575 -3.1913,0.076 -1.17774,-2.03635 -2.19591,-0.56227 -0.70664,-1.61085 2.34788,-2.76578 3.56361,-2.06674 -0.40271,-1.74002 6.13184,-5.15166 1.26892,-1.89958 -0.77503,-2.06674 -4.30065,-1.11695 -1.72482,-1.816 3.6396,-4.34624 -0.25835,-1.74761 2.01356,-1.48927 0.67625,-2.68221 -1.58805,-2.84177 0.34952,-1.45887 -1.70962,-4.84773 1.25372,-1.59564 -1.27651,-2.65182 0.0684,-1.97556 -1.67923,-2.58343 -0.62306,-10.8276 -1.8008,-0.81302 -1.90718,-3.00893 -0.38751,-5.78992 2.60622,1.43608 -0.4331,3.1533 1.86159,2.705 3.19129,1.48927 2.56063,0.18236 5.05288,-0.65345 z"
       id="M46492"
       style="fill:#ffff80;fill-opacity:1;stroke:#000000;stroke-width:1;stroke-dasharray:none;stroke-opacity:1" />
    <path
       d="m 577.8513,298.99224 0.70664,1.61085 2.19591,0.56227 1.17774,2.03635 -5.15166,3.6168 -7.01324,2.28709 -3.09252,-1.01817 -1.87678,1.61844 -1.92237,-0.4635 -1.32211,2.08954 -1.89198,-0.72184 -1.23093,2.40867 -3.10011,2.05914 -2.29469,0.0304 -1.89199,2.22631 -1.46647,-1.09416 -1.84639,2.2491 -5.91149,2.57583 0.63066,2.21871 -2.48465,0.53948 -2.16552,2.04395 -2.88736,-0.4711 1.01057,2.64422 -1.22332,2.705 -3.12291,-1.15494 -2.53024,0.37991 4.36143,-6.83089 -0.4635,-2.63661 0.73704,-4.30065 -1.89958,-1.73241 -2.43906,-0.72944 2.11993,-3.50283 3.22169,-0.92699 4.13348,-3.31287 2.62142,-3.22928 3.65479,-0.48629 2.83417,-3.69279 2.60623,-6.46616 0.53948,-2.64422 1.74001,-3.29767 -0.98018,-3.18369 -1.94517,-2.51504 0.0988,-2.21111 3.02413,-3.36606 3.01653,-1.19293 2.11233,0.038 2.19592,-1.32971 3.65479,2.94815 0.68384,-3.66999 1.3829,-1.50447 2.11233,0.85861 2.53024,6.36739 -2.33268,1.19294 -1.58805,-0.50909 -1.62604,2.2719 -3.54082,1.53486 2.87217,2.62902 3.25208,6.41298 2.2567,1.96036 -3.08492,4.19427 2.49985,2.705 2.77338,0.12158 1.47407,1.10175 z"
       id="M46491"
       style="fill:#ffff80;fill-opacity:1;stroke:#000000;stroke-width:1;stroke-dasharray:none;stroke-opacity:1" />
    <path
       d="m 558.58956,257.12552 2.47706,-0.97258 1.08656,-2.56064 2.40866,0.68385 3.03933,-0.34952 2.30229,1.92997 3.69278,0.59267 1.15494,2.2719 -1.24612,4.62737 2.84937,0.55468 3.1381,4.98449 2.07434,-0.72184 0.88901,2.39347 2.88736,2.99374 1.99835,0.72184 0.25835,1.74761 -3.6396,4.34624 1.72482,1.816 4.30065,1.11695 0.77503,2.06674 -1.26892,1.89958 -6.13184,5.15166 0.40271,1.74002 -3.56361,2.06674 -2.34788,2.76578 -4.0955,2.04395 -1.47407,-1.10175 -2.77338,-0.12158 -2.49985,-2.705 3.08492,-4.19427 -2.2567,-1.96036 -3.25208,-6.41298 -2.87217,-2.62902 3.54082,-1.53486 1.62604,-2.2719 1.58805,0.50909 2.33268,-1.19294 -2.53024,-6.36739 -2.11233,-0.85861 -1.3829,1.50447 -0.68384,3.66999 -3.65479,-2.94815 -2.19592,1.32971 -2.11233,-0.038 -3.01653,1.19293 1.12455,-3.38125 3.29007,-2.52264 -0.15956,-2.7126 1.63363,-6.48896 z"
       id="M46490"
       style="fill:#ffff80;fill-opacity:1;stroke:#000000;stroke-width:1;stroke-dasharray:none;stroke-opacity:1" />
    <path
       d="m 8.007131,588.15569 1.800801,0.56227 3.160899,4.39183 -0.357121,1.76281 0.851012,4.0727 -3.305268,0.55467 -4.125886,-0.47109 -2.271896,-1.22333 -1.481672,-2.41626 -1.77800598,-0.18236 0.372317,-2.96335 2.67460798,0.9042 0.805421,-2.99373 1.306911,-1.45888 z"
       id="M46535"
       style="fill:#ffff80;fill-opacity:1;stroke:#000000;stroke-width:1;stroke-dasharray:none;stroke-opacity:1" />
    <path
       d="m 39.42617,507.2944 0.524284,2.52264 -1.17774,2.2719 3.745971,1.57285 1.618441,-1.22333 1.983161,0.22035 3.312866,4.1031 -3.685184,4.26265 -3.11531,1.90718 -5.258035,1.69442 -3.875141,-0.62306 -4.042305,-3.93593 -2.469453,-5.97227 0.76743,-4.32345 1.284116,-2.6822 6.329398,1.51966 z"
       id="M46534"
       style="fill:#ffff80;fill-opacity:1;stroke:#000000;stroke-width:1;stroke-dasharray:none;stroke-opacity:1" />
    <path
       d="m 49.433153,516.76191 -3.312866,-4.1031 -1.983161,-0.22035 -1.618441,1.22333 -3.745971,-1.57285 1.17774,-2.2719 -0.524284,-2.52264 2.894958,0.40271 4.764145,-2.33268 1.747613,1.01818 2.96334,-1.07137 4.32345,-3.45723 5.12886,-1.60325 2.75059,-2.59862 4.27025,0.4635 0.54708,0.99538 -2.705,2.65941 -3.04692,1.92237 -2.13513,0.4483 -3.10011,4.49821 -5.78232,7.38556 z"
       id="M46533"
       style="fill:#ffff80;fill-opacity:1;stroke:#000000;stroke-width:1;stroke-dasharray:none;stroke-opacity:1" />
    <path
       d="m 109.7106,421.555 4.33864,3.02413 3.89034,-0.24315 2.56063,0.63826 -0.26594,4.12589 4.23986,0.0152 5.75952,6.43578 -0.12917,2.75059 -2.09713,3.25208 -1.23853,0.66105 -3.54081,-0.61546 -2.83418,1.8084 -3.54081,0.62306 -2.2491,-1.20813 -1.13975,-2.02116 -0.85861,-5.36441 -3.94353,-2.95574 -1.03337,0.0912 -2.6974,-3.48003 4.04231,-3.35086 z"
       id="M46532"
       style="fill:#ffff80;fill-opacity:1;stroke:#000000;stroke-width:1;stroke-dasharray:none;stroke-opacity:1" />
    <path
       d="m 120.50021,424.97424 -2.56063,-0.63826 -3.89034,0.24315 -4.33864,-3.02413 0.65346,-3.00893 -1.99836,-1.56526 -0.31913,-2.81138 -1.20053,-0.81302 -0.50909,-8.03142 -1.816,-1.67163 2.76579,-6.35979 -0.78263,-3.06212 0.10638,-2.89496 1.76281,-3.38885 2.40107,-0.4255 -0.0988,5.02249 4.10309,0.50148 1.38289,3.85995 -3.48762,2.65181 3.27487,7.38557 2.37827,3.16849 3.88274,1.01818 -0.0152,1.10175 5.16686,2.57583 -1.74002,2.16552 0.25075,1.62604 -2.00596,3.66239 -3.02413,0.9118 z"
       id="M46531"
       style="fill:#ffff80;fill-opacity:1;stroke:#000000;stroke-width:1;stroke-dasharray:none;stroke-opacity:1" />
    <path
       d="m 130.23365,435.5511 -5.75952,-6.43578 -4.23986,-0.0152 0.26594,-4.12589 0.34192,-1.8008 3.02413,-0.9118 2.00596,-3.66239 -0.25075,-1.62604 1.74002,-2.16552 -5.16686,-2.57583 0.0152,-1.10175 -3.88274,-1.01818 -2.37827,-3.16849 -3.27487,-7.38557 3.48762,-2.65181 -1.38289,-3.85995 -4.10309,-0.50148 0.0988,-5.02249 4.21706,0.96498 1.92997,-0.76743 2.75819,0.4787 4.36903,-0.75223 -0.15956,1.60324 1.53486,3.35086 -2.30989,0.36472 -1.99076,2.02875 3.38125,1.86918 -1.13215,7.6743 0.94979,1.88439 2.23391,0.92699 1.04857,1.92237 2.56063,0.52429 2.52264,2.21871 1.14735,2.97094 3.85994,1.39049 1.07136,1.70202 -1.17774,5.28843 -1.3525,1.23093 -1.47407,4.17147 0.53948,1.48927 -2.97094,1.77801 -0.56988,2.55304 z"
       id="M46530"
       style="fill:#ffff80;fill-opacity:1;stroke:#000000;stroke-width:1;stroke-dasharray:none;stroke-opacity:1" />
    <path
       d="m 350.7216,268.56289 3.13051,2.52264 -0.79782,3.98152 -1.54246,0.82062 -1.13215,2.64422 -3.19889,1.48927 -0.72184,3.08491 -1.48167,1.46648 -3.21409,6.17743 -5.13646,3.00133 -3.51043,-0.56227 -1.64883,-3.47243 -2.2415,0.4179 -0.97259,-1.45887 -0.4483,-3.76877 2.15033,-2.94055 5.67594,-1.08656 3.92073,-3.10011 1.45888,-0.4331 4.27025,-5.18205 3.1457,-2.92536 z"
       id="M46529"
       style="fill:#ffff80;fill-opacity:1;stroke:#000000;stroke-width:1;stroke-dasharray:none;stroke-opacity:1" />
    <path
       d="m 253.88866,276.68549 -0.83582,-0.61546 -4.30064,0.54708 -3.72318,-0.48629 -1.70202,-1.54246 1.91477,-3.24448 1.3525,0.28114 1.01818,-2.63662 2.28709,-1.3677 -0.29633,-1.90718 1.31451,-2.30988 -2.55304,-6.07106 1.04097,-4.48301 -1.89958,-4.18667 4.30065,1.50447 2.52264,-2.50745 3.34326,-0.81302 1.46647,-1.96036 4.40703,-0.63826 -0.11398,2.92535 -2.17312,3.50283 0.31913,3.85234 -2.04394,1.67923 -1.59565,3.70798 2.66701,-0.37992 0.23555,-4.0499 3.5788,-1.83119 0.13677,5.14406 1.89958,0.91939 2.29469,-0.54708 0.80543,-3.85234 1.05616,2.46945 -0.19755,3.42684 -2.93295,0.54708 -4.34624,1.28412 -1.21573,3.06972 -2.91016,3.18369 -0.31153,2.15032 -1.66403,0.30394 z"
       id="M46527"
       style="fill:#ffff80;fill-opacity:1;stroke:#000000;stroke-width:1;stroke-dasharray:none;stroke-opacity:1" />
    <path
       d="m 167.89091,344.50807 -0.60787,1.54246 0.4939,3.31286 -1.55766,4.45262 0.14437,2.21111 -3.84475,1.83119 -0.81302,-2.29469 1.42089,-5.89629 3.37365,-5.0073 z m 9.0116,3.32046 2.51505,2.54544 2.11993,3.30527 2.59102,-2.05915 1.41329,2.21111 2.45426,-1.48167 0.79782,4.68816 -2.61382,2.97854 -0.85861,-2.19591 -5.94948,-2.7202 -3.06972,0.58507 -1.29172,-2.80378 z m -1.00297,-35.62091 0.55467,1.95277 -1.52726,2.21871 1.74761,2.56823 -0.68384,1.40569 3.64719,2.90256 3.97392,0.889 2.18071,-1.7856 -0.40271,-3.25968 3.82955,2.05154 0.75984,3.13811 -5.23524,-0.49389 -0.038,2.64421 -1.7932,1.16254 0.81302,2.35548 4.58939,-1.86918 0.81302,1.30691 0.0608,3.70797 1.61084,-0.0304 2.58343,1.65643 3.51042,-1.66403 2.30229,2.23391 5.09088,-1.87679 2.31748,3.25968 -2.21871,3.82955 -0.29633,2.07434 -5.31882,1.33731 1.13975,-3.98912 -0.0608,-2.33268 -3.6168,2.46185 -2.65941,-0.94219 -1.45888,1.72482 0.72184,1.92997 -0.98778,3.13811 -3.18369,-1.77041 -1.61085,-2.01356 -0.53948,-6.99045 -3.92073,1.64884 -2.53024,2.66701 -1.69442,-5.25044 -1.17014,-0.47109 -0.038,-5.38721 -1.22333,-2.91775 -2.32509,0.32672 -0.79022,-2.36307 -1.54246,-0.4863 -0.68385,-4.14868 -1.49687,-1.09415 -0.54708,-2.31749 3.09252,0.0152 1.28411,-2.22631 z m 28.97238,-9.26994 0.93459,2.52264 2.46945,1.14734 0.39512,2.7506 2.08953,1.96796 2.11993,-2.19591 1.816,0.25074 2.90256,-1.48927 2.78858,1.12455 3.10771,4.90851 -1.96036,0.86621 -3.1837,-0.9118 0.23555,5.59996 -1.21573,3.58641 -3.94353,-2.13513 -3.30527,-0.14437 -3.75356,-2.11233 -2.97095,1.70962 3.81436,2.60623 3.1533,3.89793 0.53188,2.64422 1.42089,0.95738 -0.31913,3.55602 -3.21409,-2.16552 -0.34952,-3.6168 -2.59103,0.92699 -4.80213,-1.06376 -2.20352,-1.86919 -5.28083,-2.53024 1.14735,-1.88438 -1.58045,-6.97525 -1.61844,-0.23555 -1.74002,2.17312 -2.32508,-0.33433 0.28873,-2.49985 3.38126,-3.66238 3.26727,-2.77339 -3.22928,-0.42551 -1.44368,1.29172 -1.57285,-3.93593 -2.85697,-0.0456 0.23555,3.1609 -1.8388,3.66999 -0.82061,-3.03933 -4.32345,-1.32211 -3.57121,0.88141 -2.30988,-2.2491 -1.91478,1.45887 -1.77801,-0.53948 -0.9042,-3.74597 -2.2187,-0.91939 -2.33269,1.52726 -0.4179,-2.22631 -3.32807,-2.27949 3.58641,1.17773 6.80809,0.038 1.32971,2.11993 2.78098,-0.18236 0.9118,1.07896 4.30824,-0.99538 1.27652,1.816 2.98614,-0.63066 2.92535,-2.00596 5.53917,-1.03337 1.47408,2.16552 2.78098,0.0608 1.98316,1.67163 2.76579,0.0608 2.14272,-1.56525 z"
       fill-rule="evenodd"
       id="M46525"
       style="fill:#ffff80;fill-opacity:1;stroke:#000000;stroke-width:1;stroke-dasharray:none;stroke-opacity:1" />
    <path
       d="m 170.51233,286.44173 5.99507,1.77041 1.77801,3.24448 -2.86457,0.70665 -6.26101,-3.71558 z m 37.97639,5.24284 3.5712,3.36606 -3.85234,2.19591 -1.96037,2.2415 -1.37529,3.44964 -1.51967,-0.36472 -2.14272,1.56525 -2.76579,-0.0608 -1.98316,-1.67163 -2.78098,-0.0608 -1.47408,-2.16552 -5.53917,1.03337 -2.92535,2.00596 -2.98614,0.63066 -1.27652,-1.816 -4.30824,0.99538 -0.9118,-1.07896 -2.78098,0.18236 -1.32971,-2.11993 -6.80809,-0.038 -3.58641,-1.17773 1.47408,-0.54708 5.23524,0.32672 0.4179,-1.62604 2.30989,-1.59564 1.57285,1.61084 2.91016,0.12157 2.72779,2.31749 0.63067,-3.29767 2.667,-1.816 3.48763,1.58805 4.58938,-0.0684 1.96797,1.48927 0.99538,-3.66999 3.93593,-0.4407 -0.67625,-1.61085 -6.54215,0.61547 -0.66106,2.31748 -1.94517,-0.55467 -2.49224,-2.45426 -0.85861,0.66865 -4.9693,-4.99969 3.39644,-1.84639 1.43609,0.4559 5.27323,-2.99374 -0.076,-0.71424 1.3601,4.0499 4.90852,0.68385 4.46021,-0.78262 1.88438,2.74299 2.93295,-0.0608 z"
       fill-rule="evenodd"
       id="M46524"
       style="fill:#ffff80;fill-opacity:1;stroke:#000000;stroke-width:1;stroke-dasharray:none;stroke-opacity:1" />
    <path
       d="m 215.88188,266.94445 3.62439,2.36308 2.30229,0.82822 0.88901,2.53023 -0.41791,2.42387 2.21871,6.02546 -3.38885,-0.38751 -3.1685,1.31451 0.63826,2.10473 -0.9118,2.20351 -3.55601,0.69905 -2.94055,1.83119 -2.7126,0.56228 0.0304,2.2415 -6.38259,-2.97854 -2.93295,0.0608 -1.88438,-2.74299 -4.46021,0.78262 -4.90852,-0.68385 -1.3601,-4.0499 1.85399,-0.75223 5.59236,-0.21276 4.32345,-2.08193 0.66105,-2.95575 2.12753,-0.53188 0.58507,-1.92997 2.15032,-2.59863 1.3753,-0.19755 1.51966,2.11233 3.02413,1.48927 4.57419,-4.68816 3.85994,3.41164 0.18996,-3.32046 z"
       id="M46523"
       style="fill:#ffff80;fill-opacity:1;stroke:#000000;stroke-width:1;stroke-dasharray:none;stroke-opacity:1" />
    <path
       d="m 51.259146,305.19051 1.8008,1.86159 -1.86159,1.76281 -1.747612,-2.33269 z m 44.79967,-86.74238 3.43444,-0.0532 0.33433,7.87186 -4.27026,-2.96335 -2.94814,-3.63199 z m 71.735714,-133.464426 0.92699,0.56987 -0.38751,4.0651 -2.39347,-1.32211 0.34952,-2.46185 z m 13.12229,54.586296 2.98614,1.17774 2.30229,5.46319 -1.59565,1.22333 -3.56361,-0.0228 -0.10638,-2.53024 -1.93757,-1.05617 0.4635,-2.56823 z m 31.44183,-48.173316 0.25075,1.75521 -0.9346,3.6016 0.25075,2.27949 -1.23853,3.145706 -4.71855,3.71557 -1.10936,2.57583 -1.84639,-0.25074 -0.22035,-1.96796 -1.55765,-2.65942 0.12157,-2.78098 -1.3525,-2.226306 -0.0912,-2.46185 2.05155,-2.02875 6.11664,-2.49225 z m -44.07783,-61.02968 2.78858,2.17311 0.94979,2.43906 -1.42848,1.19294 -3.38125,-0.70664 -0.42551,-3.94353 z m 67.98214,8.18338 7.40836,2.743 2.33268,3.00893 -0.79782,1.67163 0.4103,2.40107 3.81436,3.47243 0.55468,2.27949 -5.8735,-0.35712 -1.99076,1.3677 -3.99672,-1.28412 -1.83879,-4.14868 -2.65941,-1.70202 -1.22333,-3.6244 1.39809,-4.0651 z m 14.02649,-30.79597 1.22333,4.4982 2.31748,3.72317 1.8084,1.07897 1.17774,2.45425 -0.63066,1.816 -2.11233,0.9118 -4.48301,-2.14273 -2.78098,-4.12588 1.41329,-2.96335 1.57285,-1.3601 -1.13215,-2.40866 z"
       fill-rule="evenodd"
       id="M46304"
       style="fill:#ffff80;fill-opacity:1;stroke:#000000;stroke-width:1;stroke-dasharray:none;stroke-opacity:1" />
    <path
       d="m 374.262,369.07912 0.69145,1.67163 1.99836,0.67625 2.74299,3.05452 -2.48465,2.94055 -3.38885,1.56525 -4.33864,-1.3297 -2.66701,-3.48003 0.076,-1.95277 2.2187,-0.0608 2.02875,-2.49984 z m 78.67297,10.94157 3.22169,2.43906 0.63066,1.73242 -1.72482,2.64421 -1.74761,-0.31153 -5.22764,0.98018 -3.43444,-0.19755 -0.0608,-3.1533 2.37827,-0.0304 1.29172,-1.41328 z m 26.79926,-2.87976 2.18832,2.12753 0.82062,2.7202 -6.50416,-2.52264 z"
       fill-rule="evenodd"
       id="M46303"
       style="fill:#ffff80;fill-opacity:1;stroke:#000000;stroke-width:1;stroke-dasharray:none;stroke-opacity:1" />
    <path
       d="m 419.25923,459.97778 1.70962,1.09416 5.55437,0.30393 2.07434,3.00133 1.99836,-2.35547 2.81898,2.06674 4.75654,0.75983 5.94189,5.55437 0.64585,1.99076 -6.7701,1.20813 -1.8084,2.75819 -3.48762,-0.33433 -3.75357,-3.43444 -0.60027,-3.63199 -2.61382,-0.50149 -2.48465,-3.71558 -3.50282,-2.13512 z m 75.74762,5.03008 1.13975,4.0879 1.48927,-0.73704 2.37827,2.23391 4.67297,-0.0228 3.00893,2.31749 2.91775,1.40569 0.51669,1.55765 5.30362,2.16552 0.33433,1.90718 6.56495,2.15032 h 1.92997 l 5.28083,3.81436 1.816,3.54081 -1.17014,3.6396 -0.86621,8.63168 -1.44368,2.38588 -0.38752,3.44963 -5.44799,4.71856 -1.23093,2.01355 -2.40107,1.75521 -1.48927,3.06972 -2.84177,1.08656 -1.29171,2.11993 -7.58312,1.59565 -2.6898,1.03337 -1.21573,-1.05617 -2.31749,1.86919 -2.07434,-1.30691 -5.00729,1.08656 -2.61382,-1.69443 -1.28412,0.26594 -6.03306,-0.91179 -1.60325,-1.88439 -3.10011,-5.69873 -1.48167,-0.98019 -0.0912,-4.24746 -1.8312,-6.13944 -2.86456,-2.26429 -0.93459,-4.59699 -1.46648,-2.78858 0.40271,-1.86918 -1.32211,-4.25506 1.01818,-4.47541 1.99076,-0.77503 6.17743,0.13677 3.45723,-3.42684 1.09416,-2.81138 2.62142,-2.91775 1.64883,0.12157 1.3905,-3.57121 -0.72944,-1.91477 1.816,-1.83879 5.41,1.38289 z"
       fill-rule="evenodd"
       id="M46505"
       style="fill:#ffff80;fill-opacity:1;stroke:#000000;stroke-width:1;stroke-dasharray:none;stroke-opacity:1" />
    <path
       d="m 595.35022,469.19454 2.49985,1.7932 0.62306,3.12291 -1.89198,2.03635 0.12157,3.08491 1.92237,2.41627 -2.87976,2.7126 -0.20515,4.66536 -5.97228,-0.47869 -6.96006,2.87976 -2.48465,1.74761 -2.10473,3.27488 -2.81898,-0.85101 -2.6746,-5.77472 1.77041,-5.82031 -0.0304,-5.9039 -3.09251,-7.84146 -0.0684,-4.9617 3.98912,1.10176 2.57583,-4.46781 1.3601,1.96036 3.18369,1.8084 0.94979,3.90554 3.54082,1.81599 5.29602,-1.88438 1.09416,0.9194 z"
       id="M46502"
       style="fill:#ffff80;fill-opacity:1;stroke:#000000;stroke-width:1;stroke-dasharray:none;stroke-opacity:1" />
    <path
       d="m 592.31089,423.3159 6.70172,-1.66403 -0.19756,3.11531 1.85399,1.83119 -0.58507,1.89958 4.82493,2.43906 5.47839,4.45262 0.48629,3.10771 -2.49984,4.70336 -1.80081,1.39809 -3.43444,0.66865 -0.90419,4.30824 -2.18832,1.61085 -1.29931,2.36307 -0.0228,3.32047 -3.51802,5.82031 1.39809,2.11233 -2.27949,2.60622 1.02577,1.78561 -2.2567,1.26132 -1.09416,-0.9194 -5.29602,1.88438 -3.54082,-1.81599 -0.94979,-3.90554 -3.18369,-1.8084 -1.3601,-1.96036 0.20515,-1.24613 2.90256,-1.8008 4.24746,-6.53455 4.13348,-7.87946 2.2719,-4.98449 1.7856,-5.56197 -0.8738,-3.1761 z"
       id="M46501"
       style="fill:#ffff80;fill-opacity:1;stroke:#000000;stroke-width:1;stroke-dasharray:none;stroke-opacity:1" />
  </g>
  <path
     style="fill:none;stroke:#000000;stroke-width:1px;stroke-linecap:butt;stroke-linejoin:miter;stroke-opacity:1"
     d="M 343.20647,1.5186127 1.5186127,458.62104"
     id="path1677" />
  <path
     style="fill:none;stroke:#000000;stroke-width:1px;stroke-linecap:butt;stroke-linejoin:miter;stroke-opacity:1"
     d="m 194.57982,200.45688 h 194.18503 v 79.72716 L 165.52879,599.09271"
     id="path1679"
     sodipodi:nodetypes="cccc" />
</svg>
