<?xml version="1.0" encoding="UTF-8" standalone="no"?>
<svg
   version="1.2"
   width="623.39844"
   height="600"
   viewBox="0 0 623.39844 600"
   stroke-linecap="round"
   stroke-linejoin="round"
   id="svg1214"
   sodipodi:docname="ku.svg"
   inkscape:version="1.2 (dc2aedaf03, 2022-05-15)"
   xmlns:inkscape="http://www.inkscape.org/namespaces/inkscape"
   xmlns:sodipodi="http://sodipodi.sourceforge.net/DTD/sodipodi-0.dtd"
   xmlns="http://www.w3.org/2000/svg"
   xmlns:svg="http://www.w3.org/2000/svg">
  <defs
     id="defs1218" />
  <sodipodi:namedview
     id="namedview1216"
     pagecolor="#505050"
     bordercolor="#eeeeee"
     borderopacity="1"
     inkscape:showpageshadow="0"
     inkscape:pageopacity="0"
     inkscape:pagecheckerboard="0"
     inkscape:deskcolor="#505050"
     showgrid="false"
     inkscape:zoom="1.0467532"
     inkscape:cx="312.39454"
     inkscape:cy="299.97519"
     inkscape:window-width="1920"
     inkscape:window-height="1009"
     inkscape:window-x="-8"
     inkscape:window-y="-8"
     inkscape:window-maximized="1"
     inkscape:current-layer="svg1214" />
  <g
     id="ku"
     transform="matrix(0.77994792,0,0,0.77994792,-0.27995332,-0.27994869)"
     style="fill:#ffff80;fill-opacity:1;stroke:#000000;stroke-width:1.28214;stroke-dasharray:none;stroke-opacity:1">
    <path
       d="m 577.34,431.93 -16.03,3.41 -5.73,-7.12 -2.7,6.17 -9.85,3.62 -4.98,-2.35 -7.77,1.36 -5.35,-1.44 -11.31,2.37 -8.43,6.27 -4.04,0.74 -3.49,-4.28 -6.6,-0.94 -6.37,-7.2 -2.51,-11.02 -3.55,-0.68 -2.44,-4.17 0.7,-18.4 -3.27,-16.62 1.26,-8.25 5.05,0.69 9.07,6.81 4.1,9.5 7.6,8.87 10.2,-1.32 2.48,-6.9 11.68,-6.12 3.16,0.16 3.96,-5.85 1.38,-6.43 9.27,1.57 6.68,-2.06 10.33,5.62 10.81,-0.44 5.01,6.64 6.63,-0.71 8.08,1.69 -3.24,5.77 -8.15,-0.2 6.33,17.18 1.24,10.25 -4.97,3 -5.51,6.95 z"
       id="M43348"
       style="fill:#ffff80;fill-opacity:1;stroke:#000000;stroke-width:1.28214;stroke-dasharray:none;stroke-opacity:1" />
    <path
       d="m 367.19,300.01 -1.32,3.8 -10.45,0.05 0.5,-3.91 z m 96.34,27.99 1.57,5.59 1.25,6.07 -4.96,2.07 0.21,6.26 6.47,4.94 3.39,6.66 3.72,11.85 -7.78,-1.29 -12.69,2.76 -4.88,-2.16 -9.99,-9.78 -3.97,-5.08 -11.8,-1.86 -11.02,-3.19 -1.41,-4.85 -5.54,-2.58 -9.06,-7.71 -4.13,4.26 -5.66,1.31 -11.63,-4.5 -2.28,-10.78 2.15,-7.93 -4.66,-16.99 -0.57,-7.89 5.31,-8.28 4.06,-1.86 -10.94,-12.53 -2.02,-9.35 -6.17,-1.84 -1.74,-10.42 -4.32,-5.11 0.96,-2.76 23.52,6.74 5.22,-1.14 2.46,-12.07 4.95,0.85 8.66,-22.23 -1.66,-10.85 -5.5,-5.75 5.31,-10.73 3.17,-0.46 9.08,-3.31 2.18,-8.95 12.22,-6.89 5.66,-0.03 4.81,-9.58 9.03,-2.6 5.24,3.51 -3.13,4.28 0.86,26.85 -2.77,6.88 -2.98,14.53 2.51,6.34 3.45,-0.19 0.97,25.56 9.88,-4.33 22.84,-0.34 1.16,3.39 9.08,0.87 1.68,10.35 7.64,-0.75 4.38,5.13 -0.19,4.06 0.75,6.98 -7.86,-0.03 -5.6,6.7 -11.12,4.34 -1.54,10.56 6.39,10.23 -10.09,4.55 -8.05,2.17 -6.01,-1.34 -4.65,5.89 -11.43,3.32 -8.57,7.51 20.41,2.34 z"
       fill-rule="evenodd"
       id="M43100"
       style="fill:#ffff80;fill-opacity:1;stroke:#000000;stroke-width:1.28214;stroke-dasharray:none;stroke-opacity:1" />
    <path
       d="m 403.92,61.73 -2.62,3.78 2.77,4.64 -3.08,9.15 -6.6,2.48 -4.1,4.59 2.32,8.84 -0.65,5.03 8.33,1.02 2.12,2.84 -2.76,15.29 -7.28,2.41 0.78,9.49 5.5,2.3 -3.02,8.22 3.73,4.97 -2.86,7.79 6.81,3.02 -2.26,6.46 -8.68,-2.42 -2.39,3.79 -1.51,11.22 -1.77,2.42 -6.32,-5.77 -5.32,-7.3 -8.18,1.83 2.44,-11.36 3.74,-2.6 -2.02,-5.16 -4.58,-3.22 -6.92,-1.3 5.11,-4.41 -2.12,-13.1 5.4,-0.11 2.54,-8.19 -1.38,-9.21 -3.19,-8 -10.3,-10.68 1.63,-3.88 -2.42,-7.51 -3.8,-2.37 -2.65,-6.08 0.35,-5.8 5.29,-1.79 5.53,-6.51 12.24,0.86 8.55,4.35 3.4,-1.9 11.05,-1.47 z"
       id="M43369"
       style="fill:#ffff80;fill-opacity:1;stroke:#000000;stroke-width:1.28214;stroke-dasharray:none;stroke-opacity:1" />
    <path
       d="m 310.61,182.26 -0.27,4.64 -11.81,17.55 -3.33,3.18 -8.11,-3.49 -10.17,-10.8 2.02,-4.92 -3.17,-9.82 9.68,-2.58 6.8,4.25 5.74,-8.18 6.87,1.65 z"
       id="M43368"
       style="fill:#ffff80;fill-opacity:1;stroke:#000000;stroke-width:1.28214;stroke-dasharray:none;stroke-opacity:1" />
    <path
       d="m 351.01,76.72 3.8,2.37 2.42,7.51 -1.63,3.88 10.3,10.68 3.19,8 1.38,9.21 -2.54,8.19 -5.4,0.11 2.12,13.1 -5.11,4.41 -12.79,-2.87 -18.07,4.75 -4.31,-5.8 -2.67,-10.79 -2.89,-7.79 -3.17,-2.06 -0.64,-7.51 -5.56,-8.33 5.31,-6.56 7.54,-5.29 9.04,0.05 1.83,-8.81 6.63,-1.76 5.48,-3.88 z"
       id="M43367"
       style="fill:#ffff80;fill-opacity:1;stroke:#000000;stroke-width:1.28214;stroke-dasharray:none;stroke-opacity:1" />
    <path
       d="m 401.53,185.39 -3.17,0.46 -5.31,10.73 5.5,5.75 1.66,10.85 -8.66,22.23 -4.95,-0.85 -8.15,-9.34 -2.97,-11.1 5.95,-3.99 -1.28,-12.69 -5.34,-1.77 1.49,-4.67 7.41,-6.68 2.99,-5.26 1.77,-2.42 3.38,0.78 z"
       id="M43364"
       style="fill:#ffff80;fill-opacity:1;stroke:#000000;stroke-width:1.28214;stroke-dasharray:none;stroke-opacity:1" />
    <path
       d="m 28.94,529.67 5.92,-11.42 5.78,-7.57 -1.61,-7.08 3.11,-9.17 4.03,-0.85 -7.03,-18.39 -13.48,-8.34 7.74,-5.84 7.14,1.27 -2.96,6.69 6.35,7.91 13.22,-0.62 9.53,-5.45 8.73,-7.12 12.28,-6.75 5.01,7.9 -5.77,13.52 0.8,12.99 -6.99,8.74 -5.11,-0.18 -5.34,7.57 -3.42,7.92 6.66,6.15 0.57,14.93 -2.39,0.19 -7.82,-7.07 -12.81,0.04 -8.45,3.88 -12.25,-1.88 z"
       id="M43531"
       style="fill:#ffff80;fill-opacity:1;stroke:#000000;stroke-width:1.28214;stroke-dasharray:none;stroke-opacity:1" />
    <path
       d="m 505.13,260.17 0.19,-4.06 -4.38,-5.13 -7.64,0.75 -1.68,-10.35 -9.08,-0.87 -1.16,-3.39 -22.84,0.34 4.54,-4.43 5.74,-0.98 1.44,3.48 15.11,-9.8 18.08,-6.31 6.44,-5.87 6.61,-0.93 4.04,6.03 -1.02,9.47 0.59,9.24 6.61,2.84 -0.44,6.43 6.27,3.25 -5.89,3.37 -10.57,2.34 -7.48,6.92 z"
       id="M43404"
       style="fill:#ffff80;fill-opacity:1;stroke:#000000;stroke-width:1.28214;stroke-dasharray:none;stroke-opacity:1" />
    <path
       d="m 532.55,249.88 -6.27,-3.25 0.44,-6.43 -6.61,-2.84 -0.59,-9.24 1.02,-9.47 -4.04,-6.03 -4.13,-0.92 -4.96,-4.85 3.65,-4.79 -0.57,-7.74 2.06,-3.45 14.7,3.49 -1.49,-8.15 14.84,0.82 12.34,-4.02 9.08,0.75 7.25,-7.31 0.76,-3.28 7.85,0.18 2.77,-2.99 4.91,4.78 -3.75,3.6 4.81,12.19 -5.33,7.37 5.57,7.35 -10.55,18.02 5.07,3.15 8.85,-1.74 7.24,5.43 -3.95,3.66 -9.52,-3.45 -9.57,0.41 -11.43,4 -13.98,2.55 -12.15,13.84 -3.98,0.64 z"
       id="M43403"
       style="fill:#ffff80;fill-opacity:1;stroke:#000000;stroke-width:1.28214;stroke-dasharray:none;stroke-opacity:1" />
    <path
       d="m 389.09,401.77 6.41,5.95 22.16,11.52 -0.49,3.62 11.84,8.36 4.21,-2.9 4.97,4.43 -4.16,4.34 9.93,9.4 -5.35,0.92 -2.04,5.89 -6.24,9.2 -8.2,5.58 -6.24,-8.43 -7.08,-3.62 3.66,-5.5 0.16,-5.76 3.64,-1.24 -5.62,-8.49 -20.2,-18.92 -7.89,-9.01 -0.77,-2.97 z"
       id="M43468"
       style="fill:#ffff80;fill-opacity:1;stroke:#000000;stroke-width:1.28214;stroke-dasharray:none;stroke-opacity:1" />
    <path
       d="m 458.54,237.46 -9.88,4.33 -0.97,-25.56 -3.45,0.19 -2.51,-6.34 2.98,-14.53 2.77,-6.88 3.36,1.33 9.84,-0.97 12.77,4.89 9.76,6.16 2.86,-2.1 7.68,0.87 10.62,3.82 3.04,4.18 4.96,4.85 4.13,0.92 -6.61,0.93 -6.44,5.87 -18.08,6.31 -15.11,9.8 -1.44,-3.48 -5.74,0.98 z"
       id="M43216"
       style="fill:#ffff80;fill-opacity:1;stroke:#000000;stroke-width:1.28214;stroke-dasharray:none;stroke-opacity:1" />
    <path
       d="m 37.28,702.62 4.52,6.86 -2.13,3.09 7.24,6.17 -2.25,5.83 -7.39,-11.27 -4.83,3.53 -5.14,-1.1 2.56,-10.09 z m 64.64,-60.61 5.01,6.11 -9.32,4.36 -0.69,-6.54 z m -72.98,-112.34 1.44,1.97 12.25,1.88 8.45,-3.88 12.81,-0.04 7.82,7.07 2.39,-0.19 -0.57,-14.93 -6.66,-6.15 3.42,-7.92 5.34,-7.57 5.11,0.18 6.99,-8.74 -0.8,-12.99 5.77,-13.52 -5.01,-7.9 1.88,-2.15 10.1,0.2 5.29,-2.23 13.72,-0.76 10.18,1.49 4.16,11.41 -1.15,4.85 2.88,14.26 -3.25,6.02 9.47,16.59 -2.03,5.65 -4.79,3.97 3.6,3.3 -0.61,3.21 1.69,5.43 1.86,2.6 0.74,4.96 4,6.21 -4.85,-0.27 1.15,5.53 -7.07,5.96 2.11,9.35 4.52,-2.71 6.05,2.36 2.21,4.6 -3.78,4 5.19,7.9 -4.15,2.81 -6.64,12.7 0.58,8.13 -2.83,1.43 -10.44,13.17 -7.6,2.36 -2.69,-4.4 0.08,-6.45 5.18,-6.5 -1.3,-2.74 -9.49,10.64 -4.03,1.33 2.96,5.9 -5.35,1.13 0.14,7.04 9.06,0.26 1.78,3.94 -10.09,8.98 -9.2,-3.64 -6.43,6.84 -9.32,17.16 -8.27,-0.38 0.67,5.11 5.24,-1.47 -1.37,12.01 -6.44,2.4 -4.37,-1.31 -5.74,3.7 4.9,4.46 -4.31,4.93 -8.96,0.04 -7.98,6.59 -2.53,-5.03 -6.36,-0.2 1.82,6.44 -5.67,7.84 -5.84,-0.57 -0.23,-6.69 -6.28,4.13 -5.78,-5.38 2.92,-2.37 1.65,-9.45 8.72,-3.08 -1.28,-8.93 -13.36,-3.04 -3.82,-4.58 -4.83,4.28 -2.68,-5.29 6.59,-14.61 7.08,-9.87 6.33,-4.13 3.75,-6.64 14.15,-2.75 5.31,2.94 4.38,7.7 0.15,5.77 6.5,0.16 2.57,-7 -0.85,-11.95 -4.49,1.74 -2.28,-4.29 -9.41,-2.43 -5.75,2.76 -13.62,-0.18 -6.74,1.28 -0.77,-11.01 -6.85,-1.31 0.12,-11.64 -3.67,-9.74 2.84,-7.08 4.83,-6.57 3.56,-0.91 2.51,-18.63 4.98,-17.02 z m 199.12,60.87 10.25,6.12 -5.96,5.47 -2.24,6.28 -8.96,9.57 -8.31,4.28 -8.39,-3.57 3.07,-4.21 7.11,-0.08 -2.37,-11.06 4.43,-2.91 4.3,-7.83 z m -24.72,-10.97 15.33,10.95 -6.49,2.74 -4.87,5.19 -3.09,-5.59 -8.34,-1.55 -1.37,-5.93 6.73,1 z m 44.77,-93.36 -5.64,3.73 0.39,8.13 -9.16,4.96 -13.29,-3.23 -0.53,7.7 -3.14,6.78 6,11.05 10.12,3.77 9.92,-3.77 0.52,5.57 -4.35,13.48 -5.09,5.01 -2.71,6.49 -4.56,-2.48 -1.91,-8.81 -5.35,7.99 -7.3,4.93 -12.22,2.26 -17.74,-4.75 -2.11,-6.45 -7.6,1.08 -0.77,4.7 -4.85,7.35 0.04,3.98 -5.36,2.1 -5.39,-2.03 6.94,-6.59 -1.23,-10.82 -7.12,-1.89 -3.92,2.13 -3.41,-7.62 -5.23,-5.78 -0.27,-3.86 -2.61,-3.58 -0.54,-6.57 7.03,-4 20.24,-9.13 4.74,-6.08 13.38,-3.53 7.51,-5.83 -0.36,-3.83 10.1,-8.8 2.71,-4.9 11.03,-2.97 5.19,0.13 9.54,-3.94 5.91,1.92 -0.53,4.54 12.22,2.8 z"
       fill-rule="evenodd"
       id="M43215"
       style="fill:#ffff80;fill-opacity:1;stroke:#000000;stroke-width:1.28214;stroke-dasharray:none;stroke-opacity:1" />
    <path
       d="m 586.86,205.65 -5.57,-7.35 5.33,-7.37 -4.81,-12.19 3.75,-3.6 -4.91,-4.78 -7.92,-7.02 6.27,-8.39 2.12,-9.16 -0.77,-10.86 8.58,-13.69 12.1,-0.04 4.32,-3.14 5.43,6.29 32.39,-7.51 3.65,-6.7 11.26,-2.26 3.8,7.94 16.07,-5.97 3.31,-3.97 9.11,3.18 10.59,-0.16 2.67,1.55 -2,8.79 -6.28,2.82 1.59,7 7.78,0.77 2.3,3.54 8.47,5.15 0.78,18.82 15.92,-0.32 3.16,7.28 5.1,1.75 10.79,-0.66 1.26,8.99 -1.42,5.34 4.1,11.06 0.48,11.11 -13.77,4.55 -0.91,2.06 -12.88,10.17 -17.22,7.07 -4.06,-6.46 -5.32,-3.33 -11.2,3.96 -15.72,-2.93 -10.76,2.64 -4.35,-0.97 -13.97,3.05 -3.11,-3.52 -24.25,-11.85 -19,-5.29 0.42,4.98 -5.4,1.92 z"
       id="M43214"
       style="fill:#ffff80;fill-opacity:1;stroke:#000000;stroke-width:1.28214;stroke-dasharray:none;stroke-opacity:1" />
    <path
       d="m 308.74,410.88 9,1.72 0.11,10.77 -10.12,10.83 -3.33,-4.47 0.02,-6.62 -7.33,-7.76 z m 166.14,-37.48 -1.26,8.25 3.27,16.62 -0.7,18.4 2.44,4.17 -10.19,14.88 -3.62,-0.09 -3.27,7.26 -6.76,3.39 -3.52,-1.88 -7.31,2.09 -9.93,-9.4 4.16,-4.34 -4.97,-4.43 -4.21,2.9 -11.84,-8.36 0.49,-3.62 -22.16,-11.52 -6.41,-5.95 6.23,-0.51 7.44,7.35 1.75,-3.82 -1.93,-6.1 -0.97,-10.75 -8.86,5.09 -12.42,2.42 -10.3,4.77 -4.6,-0.62 -6.67,2.97 -11.05,-2.17 -11.21,0.11 -18.47,9 -13.89,-0.74 -11.2,5.59 -4.48,-2.25 1.19,-6.58 -5.09,-6.56 5.23,-5.21 9.37,-3.57 12.9,-10.28 0.89,4.44 5.63,0.92 12.8,-1.33 9.59,-2.63 3.13,-2.42 7.74,-0.98 5.28,2.61 10.81,-2.15 7.39,-3.37 4.77,-7.06 4.77,0.67 6.22,4.31 6.5,-3.07 4.14,3.79 5.19,-3.12 10.79,6.59 3.71,-7.41 5.93,-5.85 9.7,1.51 2.8,-4.39 9.99,9.78 4.88,2.16 12.69,-2.76 7.78,1.29 z"
       fill-rule="evenodd"
       id="M43213"
       style="fill:#ffff80;fill-opacity:1;stroke:#000000;stroke-width:1.28214;stroke-dasharray:none;stroke-opacity:1" />
    <path
       d="m 222.62,558.25 2.16,-2.99 1.81,-1.86 4.56,2.48 2.71,-6.49 5.09,-5.01 4.35,-13.48 -0.52,-5.57 -9.92,3.77 -10.12,-3.77 -6,-11.05 3.14,-6.78 0.53,-7.7 13.29,3.23 9.16,-4.96 -0.39,-8.13 5.64,-3.73 2.32,1.11 6.14,-10.33 7.98,-5.66 3.37,3.18 4.72,-0.6 5.36,-6.53 3.26,4.1 5.16,-0.91 0.19,6.18 -2.31,5.8 -8.65,14.31 -0.92,11.68 -4.3,9.95 -5.74,3.44 -6.35,11.81 4.4,2.19 0.16,5.44 -9.18,17.02 -10.77,7.75 -8.88,-2.02 -6.28,8.91 z m 39.76,-0.51 4.76,3.57 -0.98,10.59 -7.13,-3.61 z m 16.95,-158.12 6.9,11.62 -6.48,6.9 2.29,5.61 5.82,3.41 -6.46,9.74 1.82,8.55 -5.94,4.76 -0.83,3.64 -6.41,-0.25 -3.01,-2.91 -10.56,1.16 1.44,-10.12 4.4,-5.72 1.2,-5.14 -13.47,-3.49 0.86,-3.83 6.25,-4.8 4.62,-8.29 4.61,-4.96 5.62,-0.06 z m 17.57,26.84 8.05,11.75 -9.95,13.89 -2.62,-3.55 -3.16,-12.36 z"
       fill-rule="evenodd"
       id="M43212"
       style="fill:#ffff80;fill-opacity:1;stroke:#000000;stroke-width:1.28214;stroke-dasharray:none;stroke-opacity:1" />
    <path
       d="m 290.98,642.69 2.89,5.08 0.05,9.41 12.33,4.14 3.26,5.84 -1.71,10.64 0.05,8.35 -13.24,3.13 -11.87,-0.32 -6.71,-4.54 -3.52,-9.96 -0.49,-6.8 -4.27,-6.17 4.06,-2.23 1.05,-7.32 10.4,-6.28 1.17,-5.99 -2.2,-4.53 5.7,-1.63 z"
       id="M43484"
       style="fill:#ffff80;fill-opacity:1;stroke:#000000;stroke-width:1.28214;stroke-dasharray:none;stroke-opacity:1" />
    <path
       d="m 294.61,689.28 13.24,-3.13 -0.05,-8.35 1.71,-10.64 -3.26,-5.84 -12.33,-4.14 -0.05,-9.41 -2.89,-5.08 2.48,-6.08 5.73,-0.98 7.31,-9.07 -10.5,-0.96 -0.39,-10.09 -3.1,-3.84 9.74,-14.33 14.59,-11.23 -10.82,-5.71 13.19,-14.77 15.54,-15.8 3.15,3.15 -7.6,13.48 2.2,2.12 -3.69,6.48 1.69,4.79 6.06,1.44 5.16,-5.6 1.88,-5.12 4.51,-1.31 9.99,7.42 6.23,-3.41 7.03,2.4 3.67,-2.02 7.75,1.45 3.23,6.59 3.4,-1.94 6.58,1.67 -3.72,6.95 -18.62,8.39 -1.93,10.82 6.77,11.61 -8.13,11 3.04,2.04 0.7,8.66 -8.51,11.93 0.63,9.21 -4.11,4.51 1.68,9.24 -3.46,12.67 3.18,2.62 -4.45,8.89 -2.85,0.84 -16.12,-2.15 -16.02,7.07 -3.14,2.47 -6.73,-4.45 -2.48,-4.51 -9.61,-2.69 z"
       id="M43482"
       style="fill:#ffff80;fill-opacity:1;stroke:#000000;stroke-width:1.28214;stroke-dasharray:none;stroke-opacity:1" />
    <path
       d="m 663.82,219.62 10.76,-2.64 15.72,2.93 11.2,-3.96 5.32,3.33 4.06,6.46 17.22,-7.07 12.88,-10.17 0.91,-2.06 13.77,-4.55 -0.33,7.43 6.24,13.04 4.58,1.73 13.46,13.95 9.2,2.91 7.23,6.07 2.96,5.21 -2.7,5.64 -12.56,-0.64 -5.87,1.24 -3.22,-2.52 -12.15,3.44 -4.47,5.86 -1.51,9.39 -5.08,3.97 -0.73,8.7 -4.72,1.44 -0.08,5.2 5.44,5.35 -2.86,6.6 -4.34,4.56 -12.76,-3.26 -7.1,-11.63 2.68,-8.82 -7.5,-10.77 -8.25,-1.27 -4.88,-6.9 -6.39,-3.3 -6.09,-0.35 -3.24,2.85 -0.74,7.45 -8.69,7.08 -7.02,-0.52 -2.22,-8.09 1.68,-14.94 -5.88,-5.29 1.17,-3.74 -0.86,-10.54 -6.06,-12.08 z"
       id="M43428"
       style="fill:#ffff80;fill-opacity:1;stroke:#000000;stroke-width:1.28214;stroke-dasharray:none;stroke-opacity:1" />
    <path
       d="m 751.24,165.39 -10.79,0.66 -5.1,-1.75 -3.16,-7.28 -15.92,0.32 -0.78,-18.82 -8.47,-5.15 -2.3,-3.54 -7.78,-0.77 -1.59,-7 6.28,-2.82 2,-8.79 3.22,-8.71 15.19,-13.66 11.39,14.02 3.06,14.81 2.58,4.37 -1.15,4.59 6.88,6.06 7.29,9.31 -0.29,8.97 9.4,3.7 -4.24,9.61 z"
       id="M43425"
       style="fill:#ffff80;fill-opacity:1;stroke:#000000;stroke-width:1.28214;stroke-dasharray:none;stroke-opacity:1" />
    <path
       d="m 708.25,64.52 -4.94,1.13 -10.39,-2.41 -7.44,6.13 -4.33,-1.49 -13.06,2.08 -13.72,-5.44 -0.8,-4.84 -5.3,-3.24 -4,7.36 -5.07,-5.26 -11.55,3.76 -2.86,8.24 -7.62,1.39 -5.48,-10.18 -8.78,-7.6 -1.44,-7.26 -7.69,-8.75 3.37,-7.1 0.73,-11.27 5.14,-10.84 6.77,4.28 6.36,-0.13 13.1,-11.39 12.65,-0.69 4.18,2.59 16.44,4.4 5.98,-0.83 5.86,4.27 1.67,7 6.21,2.35 2.9,4.84 8.21,3.53 0.07,3.69 7.8,6.33 3.36,8.44 -1.97,8.6 z"
       id="M43424"
       style="fill:#ffff80;fill-opacity:1;stroke:#000000;stroke-width:1.28214;stroke-dasharray:none;stroke-opacity:1" />
    <path
       d="m 703.63,110.45 -2.67,-1.55 -10.59,0.16 -9.11,-3.18 -3.31,3.97 -16.07,5.97 -3.8,-7.94 -11.26,2.26 -3.65,6.7 -32.39,7.51 -5.43,-6.29 3.92,-8.06 4.07,-2.32 0.52,-6.55 2.98,-7.89 -4.13,-4.32 2.2,-6.89 5.64,-5.51 -3.38,-4.59 7.62,-1.39 2.86,-8.24 11.55,-3.76 5.07,5.26 4,-7.36 5.3,3.24 0.8,4.84 13.72,5.44 13.06,-2.08 4.33,1.49 7.44,-6.13 10.39,2.41 4.94,-1.13 -0.54,10.48 1.35,4.64 6.76,6.49 6.22,1.95 -15.19,13.66 z"
       id="M43423"
       style="fill:#ffff80;fill-opacity:1;stroke:#000000;stroke-width:1.28214;stroke-dasharray:none;stroke-opacity:1" />
    <path
       d="m 577.34,431.93 -1.27,-3.86 5.51,-6.95 4.97,-3 -1.24,-10.25 -6.33,-17.18 8.15,0.2 3.24,-5.77 -8.08,-1.69 -6.63,0.71 -5.01,-6.64 -10.81,0.44 -10.33,-5.62 -7.28,-4.42 -0.23,-6.74 4,-5.72 -1.97,-2.46 -1.21,-17.46 -2.35,-1.98 2.71,-8.27 -0.68,-7.97 4.5,-1 5.46,-5.18 5.63,-2.34 6.17,-5.25 9.49,-4.59 8.32,-5.83 0.97,-4.27 20.97,-14.2 -0.55,4.06 4.63,7.05 6.76,2.12 9.42,-2.48 4.76,3.95 6.8,-3.95 18.51,-3.95 2.2,2.67 13.54,-0.54 4.09,-2.55 7.02,0.52 8.69,-7.08 0.74,-7.45 3.24,-2.85 6.09,0.35 6.39,3.3 4.88,6.9 8.25,1.27 7.5,10.77 -2.68,8.82 7.1,11.63 12.76,3.26 -1.6,6.57 -11.51,10.72 -3.4,-1.03 -9.52,5.71 -6.24,8.56 0.63,6.71 -3.14,4.7 -0.17,15.06 -6.85,0.1 -6.91,-5.84 -4.8,2.91 -1.79,7.85 -7.63,7.29 -2.09,6.69 -4.37,1.37 2.15,9.43 -2.32,5.72 2.1,15.42 -3.55,5.22 -4.36,1.54 1.26,4.95 -5.16,2.53 -6.78,-0.56 -7.9,-3.88 -13.1,-2.03 -5.25,3.75 -3.25,12.29 0.72,7.18 -8.83,0.76 -2.63,2.87 -11.32,-14.49 -7.18,-0.94 -10.98,-6.32 -8.81,2.29 z"
       id="M43447"
       style="fill:#ffff80;fill-opacity:1;stroke:#000000;stroke-width:1.28214;stroke-dasharray:none;stroke-opacity:1" />
    <path
       d="m 533.56,372.81 -1.38,6.43 -3.96,5.85 -3.16,-0.16 -11.68,6.12 -2.48,6.9 -10.2,1.32 -7.6,-8.87 -4.1,-9.5 -9.07,-6.81 -5.05,-0.69 0.3,-1.96 -3.72,-11.85 -3.39,-6.66 -6.47,-4.94 -0.21,-6.26 4.96,-2.07 -1.25,-6.07 12.31,4.54 5.62,4.47 -0.08,8 5.48,-3.95 4.18,0.21 5.79,5.57 7.15,0.63 7.47,-3.86 3.03,5.89 6.05,0.35 1.71,6.94 4.29,-0.57 5.03,4.25 z"
       id="M43444"
       style="fill:#ffff80;fill-opacity:1;stroke:#000000;stroke-width:1.28214;stroke-dasharray:none;stroke-opacity:1" />
    <path
       d="m 476.06,303.5 10.09,-4.55 -6.39,-10.23 1.54,-10.56 11.12,-4.34 5.6,-6.7 7.86,0.03 -0.75,-6.98 3.48,2.34 7.48,-6.92 10.57,-2.34 5.89,-3.37 0.34,2.28 3.23,11.64 -5.08,9.25 10.66,14.87 -1.02,6.1 -7.42,4.44 -21.05,2.37 0.18,5.49 -5.92,4.51 2.62,12.49 -10.54,2.56 -5.12,-9.91 -6.24,-2.64 z"
       id="M43443"
       style="fill:#ffff80;fill-opacity:1;stroke:#000000;stroke-width:1.28214;stroke-dasharray:none;stroke-opacity:1" />
    <path
       d="m 463.53,328 -5.77,-4.61 -20.41,-2.34 8.57,-7.51 11.43,-3.32 4.65,-5.89 6.01,1.34 8.05,-2.17 11.13,9.83 -15.25,11.52 z"
       id="M43442"
       style="fill:#ffff80;fill-opacity:1;stroke:#000000;stroke-width:1.28214;stroke-dasharray:none;stroke-opacity:1" />
    <path
       d="m 549.51,372.32 -6.68,2.06 -9.27,-1.57 -0.43,-6.75 -5.03,-4.25 -4.29,0.57 -1.71,-6.94 -6.05,-0.35 -3.03,-5.89 -7.47,3.86 -7.15,-0.63 -5.79,-5.57 -4.18,-0.21 -5.48,3.95 0.08,-8 -5.62,-4.47 -12.31,-4.54 -1.57,-5.59 8.41,-3.15 15.25,-11.52 6.24,2.64 5.12,9.91 10.54,-2.56 -2.62,-12.49 5.92,-4.51 -0.18,-5.49 21.05,-2.37 7.42,-4.44 1.02,-6.1 3.92,2.04 9.13,-2.31 8.24,1.58 4.13,3 9,-7.91 6.92,4.52 -0.97,4.27 -8.32,5.83 -9.49,4.59 -6.17,5.25 -5.63,2.34 -5.46,5.18 -4.5,1 0.68,7.97 -2.71,8.27 2.35,1.98 1.21,17.46 1.97,2.46 -4,5.72 0.23,6.74 z"
       id="M43441"
       style="fill:#ffff80;fill-opacity:1;stroke:#000000;stroke-width:1.28214;stroke-dasharray:none;stroke-opacity:1" />
    <path
       d="m 375.62,336.77 11.63,4.5 5.66,-1.31 4.13,-4.26 9.06,7.71 5.54,2.58 1.41,4.85 11.02,3.19 11.8,1.86 3.97,5.08 -2.8,4.39 -9.7,-1.51 -5.93,5.85 -3.71,7.41 -10.79,-6.59 -5.19,3.12 -4.14,-3.79 -6.5,3.07 -6.22,-4.31 -4.77,-0.67 -4.77,7.06 -7.39,3.37 -10.81,2.15 -5.28,-2.61 -7.74,0.98 -3.13,2.42 -9.59,2.63 -12.8,1.33 -5.63,-0.92 -0.89,-4.44 6.27,-0.9 8.1,-5.74 8.24,-1.04 8.89,-15.15 8.75,-8.8 12.07,-3.53 4.97,-4.88 z"
       id="M43211"
       style="fill:#ffff80;fill-opacity:1;stroke:#000000;stroke-width:1.28214;stroke-dasharray:none;stroke-opacity:1" />
    <path
       d="m 447.48,188.67 -0.86,-26.85 3.13,-4.28 5.52,-2.03 6.8,-6.34 6.5,-8.43 8.97,2.42 2.58,-4.1 5.71,-1.51 1.72,-5.94 6.14,-4.16 -0.33,-14.04 4.15,-9.58 4.86,-3.8 -4.2,-7.31 7.22,-5.81 4.67,0.88 0.97,-9.2 4.66,-5.33 10.7,-1.97 7.53,2.15 7.64,5.85 0.54,5.48 3.62,2 1.89,6.22 3.97,-0.61 9.81,9.1 6.88,-2.22 6.87,1.6 5.97,4 1.31,6.95 6.51,9.43 -8.58,13.69 0.77,10.86 -2.12,9.16 -6.27,8.39 7.92,7.02 -2.77,2.99 -7.85,-0.18 -0.76,3.28 -7.25,7.31 -9.08,-0.75 -12.34,4.02 -14.84,-0.82 1.49,8.15 -14.7,-3.49 -2.06,3.45 0.57,7.74 -3.65,4.79 -3.04,-4.18 -10.62,-3.82 -7.68,-0.87 -2.86,2.1 -9.76,-6.16 -12.77,-4.89 -9.84,0.97 z"
       id="M43210"
       style="fill:#ffff80;fill-opacity:1;stroke:#000000;stroke-width:1.28214;stroke-dasharray:none;stroke-opacity:1" />
    <path
       d="m 449.75,157.54 -5.24,-3.51 -9.03,2.6 -4.81,9.58 -5.66,0.03 -12.22,6.89 -2.18,8.95 -9.08,3.31 -9.68,-7.97 -3.38,-0.78 1.51,-11.22 2.39,-3.79 8.68,2.42 2.26,-6.46 -6.81,-3.02 2.86,-7.79 -3.73,-4.97 3.02,-8.22 -5.5,-2.3 -0.78,-9.49 7.28,-2.41 2.76,-15.29 -2.12,-2.84 -8.33,-1.02 0.65,-5.03 -2.32,-8.84 4.1,-4.59 6.6,-2.48 3.08,-9.15 -2.77,-4.64 2.62,-3.78 2.69,-6.66 3.56,-17.74 0.72,-9.53 10.4,-8.51 4.63,6.41 -1.21,3.51 7.81,2.31 4.73,-2.58 6.26,2.41 6.78,-1.07 1.74,4.95 9.63,6.27 2.76,4.13 7.25,5.07 10.76,0.21 18.69,8.9 -0.34,3.36 9.53,0.92 5.38,9.17 -4.66,5.33 -0.97,9.2 -4.67,-0.88 -7.22,5.81 4.2,7.31 -4.86,3.8 -4.15,9.58 0.33,14.04 -6.14,4.16 -1.72,5.94 -5.71,1.51 -2.58,4.1 -8.97,-2.42 -6.5,8.43 -6.8,6.34 z"
       id="M43208"
       style="fill:#ffff80;fill-opacity:1;stroke:#000000;stroke-width:1.28214;stroke-dasharray:none;stroke-opacity:1" />
    <path
       d="m 386.6,234.56 -2.46,12.07 -5.22,1.14 -23.52,-6.74 -0.96,2.76 -3.9,4.73 -24.75,-7.93 0.23,-19.28 -14.07,-8.52 -2.66,-0.03 -10.76,-8.31 11.81,-17.55 0.27,-4.64 1.06,-2.95 7.46,-4.55 0.6,-5.12 5.76,-6.25 4.79,-9.88 -1.6,-7.45 18.07,-4.75 12.79,2.87 6.92,1.3 4.58,3.22 2.02,5.16 -3.74,2.6 -2.44,11.36 8.18,-1.83 5.32,7.3 6.32,5.77 -2.99,5.26 -7.41,6.68 -1.49,4.67 5.34,1.77 1.28,12.69 -5.95,3.99 2.97,11.1 z"
       id="M43206"
       style="fill:#ffff80;fill-opacity:1;stroke:#000000;stroke-width:1.28214;stroke-dasharray:none;stroke-opacity:1" />
    <path
       d="m 272.51,674.46 3.52,9.96 6.71,4.54 11.87,0.32 7.5,7.26 9.61,2.69 2.48,4.51 6.73,4.45 3.14,-2.47 16.02,-7.07 16.12,2.15 2.85,-0.84 7.24,5.85 2.95,6.97 -4.55,5.62 -3.71,8.97 -14.81,0.53 -6.7,3.33 -3.45,8.28 -13.53,1.07 -4.72,-3.22 -9.91,4.73 -9.09,-3.67 -0.52,11.44 -5.28,4.75 -15.22,1.17 -22.63,-4.32 0.38,-2.89 -6.64,-6.79 -3.16,-9.19 -14.88,-13.75 3.78,-9.81 7.31,-7.48 -4.92,-6.43 8.74,-8.58 4.39,-9.55 12.29,-3.75 4.4,-3.7 z"
       id="M43205"
       style="fill:#ffff80;fill-opacity:1;stroke:#000000;stroke-width:1.28214;stroke-dasharray:none;stroke-opacity:1" />
    <path
       d="m 593.52,234.17 3.95,-3.66 -7.24,-5.43 -8.85,1.74 -5.07,-3.15 10.55,-18.02 7.3,2.29 5.4,-1.92 -0.42,-4.98 19,5.29 24.25,11.85 3.11,3.52 13.97,-3.05 4.35,0.97 -1.82,6.72 6.06,12.08 0.86,10.54 -1.17,3.74 5.88,5.29 -1.68,14.94 2.22,8.09 -4.09,2.55 -13.54,0.54 -2.2,-2.67 -18.51,3.95 -6.8,3.95 -4.76,-3.95 -9.42,2.48 -6.76,-2.12 -4.63,-7.05 0.55,-4.06 -3.61,-6.22 -7.78,-0.98 1.54,-5.68 -4.31,-7.93 4.82,-4.31 -0.4,-6.53 -3.99,-4.7 z"
       id="M43433"
       style="fill:#ffff80;fill-opacity:1;stroke:#000000;stroke-width:1.28214;stroke-dasharray:none;stroke-opacity:1" />
    <path
       d="m 310.61,182.26 -5.75,-8.52 -6.87,-1.65 -5.74,8.18 -6.8,-4.25 -9.68,2.58 -3.44,-12.33 -1.15,-19.32 -2.55,-4.69 -4.28,0.3 -2.48,-6.28 13,-1.93 28.07,2.42 8.9,-3.47 4.68,1.87 5.18,-5.7 2.67,10.79 4.31,5.8 1.6,7.45 -4.79,9.88 -5.76,6.25 -0.6,5.12 -7.46,4.55 z"
       id="M43204"
       style="fill:#ffff80;fill-opacity:1;stroke:#000000;stroke-width:1.28214;stroke-dasharray:none;stroke-opacity:1" />
    <path
       d="m 532.89,252.16 3.98,-0.64 12.15,-13.84 13.98,-2.55 11.43,-4 9.57,-0.41 9.52,3.45 -3.24,4.12 3.99,4.7 0.4,6.53 -4.82,4.31 4.31,7.93 -1.54,5.68 7.78,0.98 3.61,6.22 -20.97,14.2 -6.92,-4.52 -9,7.91 -4.13,-3 -8.24,-1.58 -9.13,2.31 -3.92,-2.04 -10.66,-14.87 5.08,-9.25 z"
       id="M43432"
       style="fill:#ffff80;fill-opacity:1;stroke:#000000;stroke-width:1.28214;stroke-dasharray:none;stroke-opacity:1" />
    <path
       d="m 481.32,674.27 1.56,4.03 -4.79,7.17 -0.14,6.99 1.91,8.25 7.14,2.06 4.59,5.59 5.83,2.14 0.16,12.95 7.51,17.62 7.61,-4.43 5.96,8.71 10.56,-5.66 1.07,5.9 4.6,5.13 -5.28,4.31 -4.11,9.2 -3.15,1.46 -10.61,-5.21 -9.48,5.19 -1.24,3.33 -7.58,-3.06 -16.74,-0.09 -7.35,-1.42 -4.39,3.26 -3.47,-4.6 -15.23,1.09 -16.82,-3.56 -16.84,-15.22 -9.08,-4.68 -1.98,-10.82 3.44,-11.97 3.59,-4.09 0.94,-6.56 4.07,-0.97 4.56,-7.81 0.4,-6.03 11.93,-14.12 7.66,-3.31 2.93,-7.18 2.93,0.32 6.18,-10.9 -1.94,-4.68 -6.67,-2.58 0.36,-6.9 -5.53,-6.04 3.54,-7.38 8.06,3.9 0.33,7.18 3.99,1.65 1.53,5.23 0.41,15.63 6.19,-0.59 3.97,11.5 2.94,1.52 8.3,-2.73 z"
       id="M43203"
       style="fill:#ffff80;fill-opacity:1;stroke:#000000;stroke-width:1.28214;stroke-dasharray:none;stroke-opacity:1" />
    <path
       d="m 478.63,420.84 3.55,0.68 2.51,11.02 6.37,7.2 6.6,0.94 3.49,4.28 4.04,-0.74 8.43,-6.27 11.31,-2.37 5.35,1.44 7.77,-1.36 4.98,2.35 9.85,-3.62 2.7,-6.17 5.73,7.12 16.03,-3.41 2.23,1.63 8.81,-2.29 10.98,6.32 7.18,0.94 11.32,14.49 -0.24,5.35 3.42,6.95 -0.12,7.9 -8.98,3.37 -1.44,17.67 5.53,11.7 -1.19,7.33 -8.46,7.24 -7.58,3.67 -5.44,-2.84 -11.12,0.56 -3.25,4.7 -7.21,3.55 -7.32,-2.16 -9.59,0.6 -5.6,-1.34 -2.8,-6.4 1.8,-10.79 -6.73,-6.98 -5.51,-0.3 -2.31,-5.1 -8.14,-5.99 -6.09,4.09 -7.28,-7.75 -13.79,5.73 -5.68,-2.52 -7.07,0.1 -5.05,6.64 -16.45,4.36 -9.21,6.3 -2.62,5.39 1.79,5.78 -11.1,2.81 4.21,14.7 -5.23,6.36 2.27,9.41 10.28,3.24 -1.51,5.56 -10.52,4.53 -6.8,12.75 -4.63,3.65 -2.73,6.08 2.16,4.93 -4.17,3.36 -5.81,2.5 -3.09,-2.9 -4.67,1.84 -3.2,-9.65 -3.6,-4.36 -3.97,-9.23 -6.03,6.01 -6.58,-1.67 -3.4,1.94 -3.23,-6.59 -7.75,-1.45 -3.67,2.02 -7.03,-2.4 -6.23,3.41 -9.99,-7.42 -4.51,1.31 -1.88,5.12 -5.16,5.6 -6.06,-1.44 -1.69,-4.79 3.69,-6.48 -2.2,-2.12 7.6,-13.48 -3.15,-3.15 5.51,-8.41 5.21,-0.77 7.56,-7.52 2.3,-4.56 -4.72,-10.6 2.46,-5.78 -2.51,-8.14 -9.24,-0.84 -3.96,-5.11 -0.19,-6.31 2.73,-4.6 9.36,1.09 1.41,-4.74 -7.31,-2.88 -12.67,-7.29 7.45,-12.69 7.14,-3.25 3.8,3.44 7.94,-14.25 8.18,-12.44 11.06,-11.76 4.29,3.29 9.9,-9.59 20.2,18.92 5.62,8.49 -3.64,1.24 -0.16,5.76 -3.66,5.5 7.08,3.62 6.24,8.43 8.2,-5.58 6.24,-9.2 2.04,-5.89 5.35,-0.92 7.31,-2.09 3.52,1.88 6.76,-3.39 3.27,-7.26 3.62,0.09 z"
       id="M43202"
       style="fill:#ffff80;fill-opacity:1;stroke:#000000;stroke-width:1.28214;stroke-dasharray:none;stroke-opacity:1" />
    <path
       d="m 571.78,530.17 7.21,-3.55 3.25,-4.7 11.12,-0.56 5.44,2.84 7.58,-3.67 8.46,-7.24 1.29,10.49 9.63,18.79 6.4,8.75 14.22,0.37 3.65,17.22 3.34,5.97 -3.45,5.83 2.38,7.51 7.56,3.88 2.73,-0.88 6.87,12.11 -0.69,6.26 -9.14,21.15 -11.75,9.43 -6.87,-4.47 -4.54,0.35 -2.31,-0.78 -7.57,-11.56 -8.02,-1.71 -1.88,-4.82 -4.2,-0.5 -6.09,6.2 -4.82,8.82 -11.14,5.48 4.59,-10.27 -8.09,-12.45 -4.89,-3.04 -4.28,-11.04 0.45,-4.5 -4.77,-8.29 0.04,-9.23 4.27,-9.66 5.68,-5.84 -0.9,-9.45 -6.4,-3.6 -1.89,-7.35 -3.87,-3.21 z"
       id="M43507"
       style="fill:#ffff80;fill-opacity:1;stroke:#000000;stroke-width:1.28214;stroke-dasharray:none;stroke-opacity:1" />
    <path
       d="m 590.44,637.18 11.14,-5.48 4.82,-8.82 6.09,-6.2 4.2,0.5 1.88,4.82 8.02,1.71 7.57,11.56 2.31,0.78 1.82,13.45 -5.7,2.75 -1.07,10.34 2.6,2.69 -5.9,4.56 -5.71,-4.02 -5.84,3.29 -3.88,6.46 -4.5,-7.29 -12.38,-2.45 -5.69,-6.54 -2.12,-5.08 1.37,-9.87 -4.44,-4.73 z"
       id="M43506"
       style="fill:#ffff80;fill-opacity:1;stroke:#000000;stroke-width:1.28214;stroke-dasharray:none;stroke-opacity:1" />
    <path
       d="m 573.45,587.59 4.77,8.29 -0.45,4.5 4.28,11.04 4.89,3.04 8.09,12.45 -4.59,10.27 -5.41,2.43 4.44,4.73 -1.37,9.87 2.12,5.08 5.69,6.54 12.38,2.45 4.5,7.29 3.88,-6.46 5.84,-3.29 5.71,4.02 5.9,-4.56 5.83,-1.14 8.16,7.77 1.67,7.36 6.19,12.49 9.56,3.23 2.23,6.62 -1.7,13.13 4.43,8.99 -7.48,5.4 -15.33,-5.06 -6.26,2.51 -8.37,-3.62 -4.24,-5.99 -11.39,0.02 -3.26,-3.14 -5.53,3.37 -6.7,8.06 -4.49,-2.54 -1.51,-7.93 2.15,-6.19 -5.35,-5.96 1.72,-11.87 2.23,-2.52 -7.39,-9.52 -2.69,0.14 -17.2,-15.29 -0.84,-4.02 -6.18,1.86 -5.37,-2.72 -0.58,-5.48 2.92,-3.32 -7.53,-9.94 -1.65,-10.83 0.02,-8.79 -11.21,-12.13 8.28,-16.36 3.86,-3.41 8.06,0.26 3.51,-2.98 5.67,2.71 z"
       id="M43505"
       style="fill:#ffff80;fill-opacity:1;stroke:#000000;stroke-width:1.28214;stroke-dasharray:none;stroke-opacity:1" />
    <path
       d="m 534.89,750.72 -4.6,-5.13 -1.07,-5.9 -10.56,5.66 -5.96,-8.71 -7.61,4.43 -7.51,-17.62 -0.16,-12.95 -5.83,-2.14 -4.59,-5.59 -7.14,-2.06 -1.91,-8.25 17.91,-0.56 4.16,-3.04 -1.67,-4.41 -4.67,-0.08 -0.28,-9.26 2.04,-6.08 9.59,-1.24 13.06,-7.53 5.3,5.73 1.09,7.72 3.56,7.6 -6.86,8.21 5.3,3.44 5.99,-0.97 2.61,10.61 17.16,20.43 -7.63,13.13 7.47,3.46 3.42,4.73 -7.46,-1.34 -2.02,4.44 z"
       id="M43501"
       style="fill:#ffff80;fill-opacity:1;stroke:#000000;stroke-width:1.28214;stroke-dasharray:none;stroke-opacity:1" />
    <path
       d="m 538.98,608.23 11.21,12.13 -0.02,8.79 1.65,10.83 7.53,9.94 -2.92,3.32 0.58,5.48 5.37,2.72 6.18,-1.86 0.84,4.02 17.2,15.29 2.69,-0.14 7.39,9.52 -2.23,2.52 -1.72,11.87 5.35,5.96 -2.15,6.19 1.51,7.93 4.49,2.54 0.15,6.86 -10.57,7.82 -0.09,11 -7.68,0.61 -3.72,3.25 -6.46,-2.97 -6.8,2.28 -3.01,-4.25 -6.54,-1.9 -1.71,-3.63 -3.42,-4.73 -7.47,-3.46 7.63,-13.13 -17.16,-20.43 -2.61,-10.61 -5.99,0.97 -5.3,-3.44 6.86,-8.21 -3.56,-7.6 -1.09,-7.72 -5.3,-5.73 -1.18,-14.38 10.25,-10.51 3,-6.98 -0.43,-9.9 z"
       id="M43514"
       style="fill:#ffff80;fill-opacity:1;stroke:#000000;stroke-width:1.28214;stroke-dasharray:none;stroke-opacity:1" />
    <path
       d="m 359.06,699.96 4.45,-8.89 -3.18,-2.62 3.46,-12.67 -1.68,-9.24 4.11,-4.51 -0.63,-9.21 8.51,-11.93 -0.7,-8.66 -3.04,-2.04 8.13,-11 -6.77,-11.61 1.93,-10.82 18.62,-8.39 3.72,-6.95 6.03,-6.01 3.97,9.23 3.6,4.36 3.2,9.65 4.67,-1.84 3.09,2.9 5.81,-2.5 5.21,10.62 7.3,9.82 -1.57,3.46 2.63,8.59 -3.54,7.38 5.53,6.04 -0.36,6.9 6.67,2.58 1.94,4.68 -6.18,10.9 -2.93,-0.32 -2.93,7.18 -7.66,3.31 -11.93,14.12 -0.4,6.03 -4.56,7.81 -4.07,0.97 -0.94,6.56 -3.59,4.09 -3.44,11.97 -17.02,-3.33 -3.02,-4.83 -1.32,-9.14 -2.85,-7.28 -11.03,0.49 z"
       id="M43513"
       style="fill:#ffff80;fill-opacity:1;stroke:#000000;stroke-width:1.28214;stroke-dasharray:none;stroke-opacity:1" />
    <path
       d="m 481.32,674.27 -5.67,-1.28 -8.3,2.73 -2.94,-1.52 -3.97,-11.5 -6.19,0.59 -0.41,-15.63 -1.53,-5.23 -3.99,-1.65 -0.33,-7.18 -8.06,-3.9 -2.63,-8.59 1.57,-3.46 -7.3,-9.82 -5.21,-10.62 4.17,-3.36 -2.16,-4.93 2.73,-6.08 4.63,-3.65 6.8,-12.75 10.52,-4.53 3.86,5.44 11.7,-1 6.5,2.42 1.83,6.34 0.35,7.03 7.27,9.59 -1.79,6.79 2.25,4.01 0.81,8.7 11.99,11.16 -1.46,6.93 -4.81,4 0.79,12.81 -1.45,9.25 -4.82,5.39 0.34,6.82 z"
       id="M43512"
       style="fill:#ffff80;fill-opacity:1;stroke:#000000;stroke-width:1.28214;stroke-dasharray:none;stroke-opacity:1" />
    <path
       d="m 453.05,561.91 1.51,-5.56 -10.28,-3.24 -2.27,-9.41 5.23,-6.36 -4.21,-14.7 11.1,-2.81 -1.79,-5.78 2.62,-5.39 9.21,-6.3 16.45,-4.36 5.05,-6.64 7.07,-0.1 5.68,2.52 13.79,-5.73 7.28,7.75 6.09,-4.09 8.14,5.99 2.31,5.1 5.51,0.3 6.73,6.98 -1.8,10.79 2.8,6.4 5.6,1.34 9.59,-0.6 7.32,2.16 -1.4,9.08 3.87,3.21 1.89,7.35 6.4,3.6 0.9,9.45 -5.68,5.84 -4.27,9.66 -0.04,9.23 -5.09,0.86 -5.67,-2.71 -3.51,2.98 -8.06,-0.26 -3.86,3.41 -20.39,-2.08 -7.95,7.09 -6.04,-1.77 -2.92,-7.43 -7.58,-6.21 -4.68,-0.75 -6,-9.25 -6.87,5.58 -7.89,-1.94 -1.83,-6.34 -6.5,-2.42 -11.7,1 z"
       id="M43511"
       style="fill:#ffff80;fill-opacity:1;stroke:#000000;stroke-width:1.28214;stroke-dasharray:none;stroke-opacity:1" />
    <path
       d="m 477.95,692.46 0.14,-6.99 4.79,-7.17 -1.56,-4.03 5.09,-6.68 -0.34,-6.82 4.82,-5.39 1.45,-9.25 -0.79,-12.81 4.81,-4 1.46,-6.93 -11.99,-11.16 -0.81,-8.7 -2.25,-4.01 1.79,-6.79 -7.27,-9.59 -0.35,-7.03 7.89,1.94 6.87,-5.58 6,9.25 4.68,0.75 7.58,6.21 2.92,7.43 6.04,1.77 7.95,-7.09 20.39,2.08 -8.28,16.36 -9.25,10.26 0.43,9.9 -3,6.98 -10.25,10.51 1.18,14.38 -13.06,7.53 -9.59,1.24 -2.04,6.08 0.28,9.26 4.67,0.08 1.67,4.41 -4.16,3.04 z"
       id="M43510"
       style="fill:#ffff80;fill-opacity:1;stroke:#000000;stroke-width:1.28214;stroke-dasharray:none;stroke-opacity:1" />
  </g>
</svg>
