<?xml version="1.0" encoding="UTF-8" standalone="no"?>
<svg
   version="1.2"
   width="537.4079"
   height="600.00006"
   viewBox="0 0 537.4079 600.00006"
   stroke-linecap="round"
   stroke-linejoin="round"
   id="svg168"
   sodipodi:docname="mg.svg"
   inkscape:version="1.2 (dc2aedaf03, 2022-05-15)"
   xmlns:inkscape="http://www.inkscape.org/namespaces/inkscape"
   xmlns:sodipodi="http://sodipodi.sourceforge.net/DTD/sodipodi-0.dtd"
   xmlns="http://www.w3.org/2000/svg"
   xmlns:svg="http://www.w3.org/2000/svg">
  <defs
     id="defs172" />
  <sodipodi:namedview
     id="namedview170"
     pagecolor="#505050"
     bordercolor="#eeeeee"
     borderopacity="1"
     inkscape:showpageshadow="0"
     inkscape:pageopacity="0"
     inkscape:pagecheckerboard="0"
     inkscape:deskcolor="#505050"
     showgrid="false"
     inkscape:zoom="0.90257559"
     inkscape:cx="269.22953"
     inkscape:cy="300.25186"
     inkscape:window-width="1920"
     inkscape:window-height="1009"
     inkscape:window-x="-8"
     inkscape:window-y="-8"
     inkscape:window-maximized="1"
     inkscape:current-layer="svg168" />
  <g
     id="mg"
     style="fill:#ffff80;fill-opacity:1;stroke:#000000;stroke-width:1.48758;stroke-dasharray:none;stroke-opacity:1"
     transform="matrix(0.67219041,0,0,0.67227834,-0.17222539,-0.17224666)">
    <path
       d="m 351.99,355.89 2.68,6.25 8.54,8.29 12.87,4.66 9.24,-2.1 1.97,10.41 4.92,3.21 -0.42,4.29 -6.36,-2.3 -5.01,2.7 -8.02,-1.33 -6.84,2.87 -4.16,5.19 0.04,7.6 -6.92,1.2 -9.5,-7.62 -4.54,1.45 -15.37,-5.02 -3.11,-5.2 -12.03,-5.97 -6.47,0.84 -6.18,-1.39 -4.79,-7.04 1.18,-7.03 7.92,-0.68 9.17,-5.29 18.22,-4.25 8.1,4.11 5.25,0.78 6.1,-2.12 -0.37,-5.93 z"
       id="M04424"
       style="fill:#ffff80;fill-opacity:1;stroke:#000000;stroke-width:1.48758;stroke-dasharray:none;stroke-opacity:1" />
    <path
       d="m 391.79,390.9 0.42,-4.29 -4.92,-3.21 -1.97,-10.41 -0.04,-6.08 4.54,-5.39 11.99,1.46 11.3,8.47 1.86,9.74 3.31,3.8 4.88,-2.89 4.44,6.33 7.39,4.68 -5.86,12.74 5.38,-0.89 14.36,3.34 -7.23,16.78 -0.33,5.88 -4.1,2.77 -8.2,19.46 -4.85,5.41 -2.35,3.27 -5.79,1.81 -5.74,-0.9 -3.31,-5.96 -3.78,0.81 -0.16,-3.96 -7.63,-6.2 -1.4,-7.99 5.34,-11.9 0.29,-8.05 -2.26,-4.8 6.49,-5.93 -7.62,-3.64 -3.54,-7.65 z"
       id="M04422"
       style="fill:#ffff80;fill-opacity:1;stroke:#000000;stroke-width:1.48758;stroke-dasharray:none;stroke-opacity:1" />
    <path
       d="m 293.71,369.85 -1.18,7.03 4.79,7.04 6.18,1.39 6.47,-0.84 12.03,5.97 3.11,5.2 15.37,5.02 4.54,-1.45 9.5,7.62 6.92,-1.2 -0.04,-7.6 4.16,-5.19 6.84,-2.87 8.02,1.33 5.01,-2.7 6.36,2.3 0.91,6.61 3.54,7.65 7.62,3.64 -6.49,5.93 2.26,4.8 -0.29,8.05 -5.34,11.9 1.4,7.99 7.63,6.2 0.16,3.96 -2.34,6.37 -8.79,7.63 -3.76,-4.68 -8.56,5.18 -1.78,-3.86 1.33,-8.4 -0.46,-7.43 -2.56,-9.73 1.52,-7.02 -5.89,-1.49 -8.56,0.67 -3.62,-2.92 -2.06,-6.25 1.94,-8.55 -5.77,-1.83 -7.33,1.82 -5.14,3.95 -0.3,11.32 2.47,3.97 -2.58,4.18 -1.1,9.55 -3.49,3.52 -1.42,6.43 1.55,5.94 -10.42,3.05 -1.92,6.73 -4.37,1.14 -4.99,-20.31 -4.81,-4.54 -4.82,-7.95 -5.03,-1.29 -10.27,-5.92 -7.25,-2.01 -13.98,-7.84 -4.58,-6.21 -11.48,-7.11 -2.82,6.59 -4.87,5.69 -3.91,-6.02 -7.63,-0.93 -6.82,-4.49 -6.49,0.38 -4.21,-4.1 -5.12,0.71 -9.67,-7.57 19.19,-12.87 7.22,-5.64 16.72,-9.94 3.3,0.78 9.32,-7.32 23.52,0.53 3.62,-1.58 z"
       id="M04421"
       style="fill:#ffff80;fill-opacity:1;stroke:#000000;stroke-width:1.48758;stroke-dasharray:none;stroke-opacity:1" />
    <path
       d="m 403.19,457.63 3.78,-0.81 3.31,5.96 5.74,0.9 5.79,-1.81 2.35,-3.27 8.19,3.36 6.13,-3.56 4.15,12.24 5.61,3.68 -2.5,2.8 -5.66,-0.73 -4.92,5.87 -5.7,0.77 -0.34,-6.08 -3.9,-0.95 -5.09,6.52 -5.33,14.31 -3.92,3.9 -9.61,4.04 -8.18,-0.68 -5.21,0.82 -9.78,-6.11 0.26,-10.78 -1.55,-6.6 2.93,-9.29 8.56,-5.18 3.76,4.68 8.79,-7.63 z"
       id="M04406"
       style="fill:#ffff80;fill-opacity:1;stroke:#000000;stroke-width:1.48758;stroke-dasharray:none;stroke-opacity:1" />
    <path
       d="m 439.14,527.9 -6.43,-2.58 5.98,-9.32 -3.81,-6.95 -0.05,-3.08 4.72,-3.42 8.94,-1.24 3.18,-6.02 6.24,1.56 2.86,9.99 3.77,2.15 -1.92,7.25 -4.21,-2.09 -4.5,2.29 -3.41,6.97 z"
       id="M04404"
       style="fill:#ffff80;fill-opacity:1;stroke:#000000;stroke-width:1.48758;stroke-dasharray:none;stroke-opacity:1" />
    <path
       d="m 506.63,293.93 7.26,1.55 2.66,-5.38 12.33,7.05 -3.03,9.05 4.59,6.94 11.28,4.46 3.29,6.52 1.08,7.07 -2.57,9.61 -5.68,-0.13 -11.43,-5.24 -10.64,7.66 -0.71,7.97 -2.81,2.9 -11.65,3.98 -7.89,-4.94 -2.95,-8.91 -5.27,-0.95 -3.75,-4.86 -8.85,1.01 -12.97,-3.94 -6.61,-5.18 5.62,-2.54 6.26,-0.02 3.2,-2.79 3.53,-4.17 -8.39,-3.75 -0.89,-7.35 4.72,-5.55 7.12,-3.44 6.35,0.01 6.22,5.05 3.49,-8.46 5.78,-6.35 z"
       id="M04501"
       style="fill:#ffff80;fill-opacity:1;stroke:#000000;stroke-width:1.48758;stroke-dasharray:none;stroke-opacity:1" />
    <path
       d="m 365.96,733.14 0.18,22.21 4.64,36.19 3.94,12.01 -16.74,-1.09 -1.69,-3.87 -15.96,4.75 -7.93,3.98 1.76,-3.46 -1.25,-7.29 -3.55,-4.66 3.28,-11.31 -3.39,-7.22 1.7,-7.86 -0.11,-8.85 -2.03,-12.77 -3.98,-9.44 7.22,-2.7 3.62,-3.55 8.94,-0.45 1.07,8.65 5.9,-4.4 z"
       id="M04362"
       style="fill:#ffff80;fill-opacity:1;stroke:#000000;stroke-width:1.48758;stroke-dasharray:none;stroke-opacity:1" />
    <path
       d="m 365.96,733.14 -14.38,-1.13 -5.9,4.4 -1.07,-8.65 -8.94,0.45 -3.62,3.55 -7.22,2.7 -1.55,-3.61 -0.57,-15.64 -4.22,-5.03 -2.11,-12.31 1.13,-12.96 -4,-12.26 6.62,-4.74 5.87,2.51 7.18,-0.98 3.83,-2.76 2.74,-6.13 10.16,-0.7 4.33,3.51 7.91,9.88 0.81,5.07 -2,6.61 1.8,5.74 7.11,3.82 0.44,9.01 -2.02,5.65 z m -1.55,-33.4 -5.42,1.33 -2.78,4.4 9.24,1.71 3.13,-2.88 z"
       fill-rule="evenodd"
       id="M04361"
       style="fill:#ffff80;fill-opacity:1;stroke:#000000;stroke-width:1.48758;stroke-dasharray:none;stroke-opacity:1" />
    <path
       d="m 271.65,598.83 -3.32,5.09 0.95,7.22 -8.2,7.11 -6.59,1.52 -7.15,-2.52 -2.37,-4.35 -5.28,3.43 -15.41,-6.18 -1.61,-3.86 -6.01,-0.32 -2.56,2.58 3.3,14.95 -10.25,2.11 -9.4,6.04 -10.25,-3.53 -6.97,0.57 -1.34,-4.96 -7.92,-3.8 -8.83,0.56 -7.5,9.11 -7.22,-1.59 -3.34,1.42 -4.5,-7 -3.81,-0.45 -9.47,2.51 -4.12,-3.48 -5.01,3.07 -7.91,-0.65 -2.1,2.44 -9.02,-1.35 3.48,-5.41 8.92,-4.28 1.14,-9.91 5.99,-8.33 -1.63,-13.53 -2.83,-3.92 -0.79,-6.07 1.9,-7.19 -2.82,-2.79 -0.07,-10.6 1.89,-6.75 4.92,-2.16 11.68,-0.18 3.41,-2.81 15.09,-0.27 4.14,-2.99 3.99,1.82 8.11,-4.51 12.92,3.17 12.92,-1.47 7.82,4.8 4.86,0.24 11.33,6.83 0.37,6.13 9.21,0.51 9.3,9.94 10.95,4.34 11.38,2.5 7.66,4.24 3.51,7.96 1.02,12.22 z"
       id="M04324"
       style="fill:#ffff80;fill-opacity:1;stroke:#000000;stroke-width:1.48758;stroke-dasharray:none;stroke-opacity:1" />
    <path
       d="m 320.13,667.91 -6.62,4.74 -6.59,12.22 -0.45,5.65 -5.71,1.24 -1.51,3.53 -5.64,-0.03 -3.39,3.02 -7.99,2.2 -8.99,-0.87 -5.38,-6.48 5.5,-2.16 0.53,-4.81 -0.49,-9.12 2.31,-8.91 -3.4,-7.54 3.4,-8.88 2.52,-10.74 7.4,-4.96 1.09,-6.8 5.86,0.22 -5.12,6.12 13.94,4.39 2.22,-3.33 7.55,0.06 2.99,3.38 1.54,7.67 -0.9,10.41 z"
       id="M04323"
       style="fill:#ffff80;fill-opacity:1;stroke:#000000;stroke-width:1.48758;stroke-dasharray:none;stroke-opacity:1" />
    <path
       d="m 207.15,625.61 10.25,-2.11 -3.3,-14.95 2.56,-2.58 6.01,0.32 1.61,3.86 15.41,6.18 5.28,-3.43 2.37,4.35 7.15,2.52 6.59,-1.52 8.2,-7.11 -0.95,-7.22 3.32,-5.09 3.99,1.69 11.29,-2.02 8.82,3.7 2.64,19.09 -3.4,1.76 -2.41,6.38 -5.86,-0.22 -1.09,6.8 -7.4,4.96 -2.52,10.74 -3.4,8.88 3.4,7.54 -2.31,8.91 0.49,9.12 -6.17,-2.89 -2.04,-3.81 -8.67,-1.45 -3.01,-3.9 -5.96,1.41 -5.07,-2.51 -6.07,1.47 -1.24,-8.29 2.51,-1.46 3.35,-10.83 3.66,-6.6 0.66,-9.15 -3.22,-7.78 -8.22,-3 -3.57,1.16 -6.09,-4.23 -11.43,4.7 z"
       id="M04322"
       style="fill:#ffff80;fill-opacity:1;stroke:#000000;stroke-width:1.48758;stroke-dasharray:none;stroke-opacity:1" />
    <path
       d="m 273.89,686.16 -0.53,4.81 -5.5,2.16 5.38,6.48 -3.74,4.65 -12.65,1.44 -10.13,6.51 -2.63,-10.76 -3.39,0.72 0.26,-3.8 -9.12,-7.83 -1.34,-6.23 2.78,-7.39 3.62,-2.44 6.07,-1.47 5.07,2.51 5.96,-1.41 3.01,3.9 8.67,1.45 2.04,3.81 z"
       id="M04321"
       style="fill:#ffff80;fill-opacity:1;stroke:#000000;stroke-width:1.48758;stroke-dasharray:none;stroke-opacity:1" />
    <path
       d="m 201.03,404 9.67,7.57 5.12,-0.71 4.21,4.1 6.49,-0.38 6.82,4.49 7.63,0.93 3.91,6.02 4.87,-5.69 2.82,-6.59 11.48,7.11 4.58,6.21 13.98,7.84 7.25,2.01 10.27,5.92 5.03,1.29 4.82,7.95 4.81,4.54 4.99,20.31 4.37,-1.14 1.92,-6.73 10.42,-3.05 8.87,4.74 1.98,4.6 10.49,6.04 5.57,4.86 13.41,-4.82 1.55,6.6 -0.26,10.78 9.78,6.11 5.21,-0.82 -3.57,9.69 4.03,7.49 7.05,1.7 11.32,0.44 9.78,4.79 8.92,-4.25 -2.03,8.12 -12.26,-2.03 -2.82,2.81 16.1,1.75 -2.55,2.36 -17.92,29.25 -13.19,23.97 -4.29,11.27 -13.17,-10.05 -2.05,4.9 -10.46,-2.04 -9.46,0.44 0.8,-3.54 -18.8,1.36 -4.21,-5.23 2.14,-5.07 -10.56,-3.88 -10.34,-6.98 -5.52,-1.32 -6.08,5.84 -4.91,-5.48 -7.88,2.81 2.32,8.71 3.36,-0.14 2.33,5.74 8.72,5.32 -9.42,5.12 -2.72,4.24 -8.82,-3.7 -11.29,2.02 -3.99,-1.69 -3.44,-2.78 -1.02,-12.22 -3.51,-7.96 -7.66,-4.24 -11.38,-2.5 -10.95,-4.34 -9.3,-9.94 -9.21,-0.51 -0.37,-6.13 -11.33,-6.83 -4.86,-0.24 -7.82,-4.8 -12.92,1.47 -12.92,-3.17 -8.11,4.51 -3.99,-1.82 -4.14,2.99 -15.09,0.27 -3.41,2.81 -11.68,0.18 -4.92,2.16 0.27,-14.22 8.48,-1.95 5.17,-6.27 -2.52,-6.98 0.04,-7.21 4.62,-0.82 2.06,-7.5 9.11,3.36 5.91,-11.39 -3.16,-5.44 -1.96,-12.31 2.64,-5.74 4.24,-3.31 6.65,-1.45 4.09,-9.05 6.33,-0.67 2.22,-5.73 6.07,-5.55 -2.1,-2.7 -1.42,-13.44 3.57,-3.78 1.32,-12.43 6.69,-3.12 3.08,3.78 6.76,-7.21 1.69,-4.56 4.05,-1.45 z m 231.68,121.32 6.43,2.58 -1.8,2.99 -6.12,-2.09 0.99,-3.73 z"
       fill-rule="evenodd"
       id="M04100"
       style="fill:#ffff80;fill-opacity:1;stroke:#000000;stroke-width:1.48758;stroke-dasharray:none;stroke-opacity:1" />
    <path
       d="m 329.36,791.91 3.55,4.66 1.25,7.29 -1.76,3.46 -0.95,11.83 3.51,5.3 -1.2,7.87 -4.62,5.08 2.13,5.39 0.95,9.48 -1.31,5.25 2.57,5.01 -2.53,5.33 2.4,3.01 -3.54,5.44 -12.16,0.35 -3.87,-2.83 -7.32,2.25 -20.4,-7.71 -1.39,6.46 3.92,4.62 4.2,1.28 4.39,5.04 0.6,6.23 -4.66,-0.91 -6.92,-5.05 -10.3,-2.64 -10.91,-1.27 -6.3,4.15 -2.26,-7.97 -6.55,-5.86 -8.06,-1.48 -2.84,-3.12 -3.39,-9.01 -1.26,-8.2 -2.7,-4.3 4.24,-3.89 3.37,-10.69 -5.76,-12.29 0.07,-3.92 4.57,-3.01 -1.34,-3.94 -12.3,-4.28 -3.97,-4.21 -8.74,3.93 -9.88,-2.62 -2.79,-2.57 -2.18,-7.14 6.3,-6.71 -2.86,-9.25 4.38,-4.83 8.1,-2.63 16.9,-2.88 4.55,-7.43 1.3,-5.86 6.14,2.81 3.57,-1.05 4.36,4.1 -4.92,7.08 5.52,4.95 11.58,0.33 0.62,-2.73 9.53,2.32 9.4,-4.35 8.26,0.27 3.07,5.16 0.51,6.79 7.66,2.1 3.23,-3.25 5.44,-0.83 8.29,2.44 5.74,4.92 3.21,8.11 z"
       id="M04341"
       style="fill:#ffff80;fill-opacity:1;stroke:#000000;stroke-width:1.48758;stroke-dasharray:none;stroke-opacity:1" />
    <path
       d="m 697.17,380.15 0.68,0.09 0.07,0.04 -4.82,7.9 -7.31,0.87 14.76,12.42 -3.27,4.8 -7.87,5.26 -1.78,-2.49 -7.51,-0.45 -3.58,-3.26 -3.99,1.36 3.51,6.37 7.26,6.77 1.57,8.81 -4.56,11.87 3.71,2.22 10.76,-11.18 6.36,-3.63 -1.23,8 3.02,4.23 -4.68,6.23 -3.12,-2.59 -5.83,0.69 -4.07,5.04 -9.35,-1.84 -3.86,-6.16 -1.86,-10.54 -11.96,-3.39 -8.82,2.63 -1.69,-4.04 1.38,-5.7 6.2,-1.51 0.29,-6.33 -8.16,1.38 -4.83,-2.26 3.29,-6.39 0.76,-9.75 4.45,-10.32 0.96,-8.99 3.4,-0.43 9.86,4.98 10.8,-9.86 6.28,2.16 1.46,5.39 z m 12.5,10.62 2.37,1.11 5.86,13.01 -2.8,4.49 -5.06,-2.16 z"
       fill-rule="evenodd"
       id="M04581"
       style="fill:#ffff80;fill-opacity:1;stroke:#000000;stroke-width:1.48758;stroke-dasharray:none;stroke-opacity:1" />
    <path
       d="m 98.32,634.48 4.35,7.34 2.5,9.73 10.5,8.07 0.72,3.21 -3.15,4.06 1.07,4.9 4.09,2.07 4.36,7.18 1.38,7.59 -0.23,9.72 12.02,12 1,12.09 3.26,12.99 6.1,8.61 1.86,7.34 -4.96,1.73 -9.54,10.94 -10.68,-3.15 -6.31,0.65 -1.7,5.4 -7.63,-4.19 -7.8,1.05 -1.77,-4.21 -6.06,2.28 -14.18,-7.19 -0.96,-7.14 -5.11,-0.58 -7.37,6.89 -0.01,8.08 -17.37,-2.99 -3.74,5.56 -11.31,-5.83 -6.91,0.1 -8.2,-7.96 -10.15,-2.81 -5.39,-7.87 1.07,-7.45 7.22,-9.35 -7.39,-15.53 -0.38,-5.36 3.4,-5.89 -2.73,-8.72 6.84,-2.3 8.78,3.86 5.99,-3.17 16.88,3.63 6.3,-3.69 11.02,0.75 4.23,-5.01 -1.27,-3.7 9.34,0.08 12.04,-7.95 1.71,-3.56 -1.86,-12.79 4.68,-8.69 -0.99,-3.24 4.09,-5.41 z"
       id="M04302"
       style="fill:#ffff80;fill-opacity:1;stroke:#000000;stroke-width:1.48758;stroke-dasharray:none;stroke-opacity:1" />
    <path
       d="m 467.39,324.82 -3.2,2.79 -6.26,0.02 -5.62,2.54 6.61,5.18 12.97,3.94 8.85,-1.01 3.75,4.86 5.27,0.95 2.95,8.91 7.89,4.94 11.65,-3.98 2.81,-2.9 -7.28,13.48 4.19,11.73 -5.72,6.77 2.69,4.14 -0.05,6.96 5.68,4.21 -15.92,3.3 -7.08,6.11 -4.27,-5.66 -6.65,4.76 -3.04,-0.2 -4.06,-6.4 3.82,-4.8 8.98,-6.02 1.98,-11.74 -2.26,-6.68 -5.99,-4.06 -2.55,-6.6 -4.55,-0.52 -4.07,-11.52 -13.83,-3.09 -14.01,-1.57 -8.77,2.38 -3.19,-0.76 -0.57,-7.27 -2.72,-1.25 2.65,-7.1 -7.82,-5.44 -7.33,-1.8 -1.91,-4.91 1.42,-6.87 8.74,4.62 1.27,-12.26 -1.23,-5.06 9.5,2.93 3.91,-1.5 8.57,0.83 -0.45,15.98 5.14,1.13 0.42,3.85 9.72,-2.08 z"
       id="M04505"
       style="fill:#ffff80;fill-opacity:1;stroke:#000000;stroke-width:1.48758;stroke-dasharray:none;stroke-opacity:1" />
    <path
       d="m 98.44,624.52 9.02,1.35 2.1,-2.44 7.91,0.65 5.01,-3.07 4.12,3.48 9.47,-2.51 3.81,0.45 4.5,7 3.34,-1.42 7.22,1.59 7.5,-9.11 8.83,-0.56 7.92,3.8 1.34,4.96 6.97,-0.57 10.25,3.53 9.4,-6.04 6.16,3.39 11.43,-4.7 6.09,4.23 3.57,-1.16 8.22,3 3.22,7.78 -0.66,9.15 -3.66,6.6 -3.35,10.83 -2.51,1.46 1.24,8.29 -3.62,2.44 -2.78,7.39 1.34,6.23 9.12,7.83 -0.26,3.8 -10.23,-2.03 -3.01,1.44 -8.25,-4.05 -4.93,6.2 -5.62,-13.71 -4.78,-0.84 -6.59,-7.11 -3.82,-0.67 -4.09,-13.96 -6.54,-1.58 -12.82,0.38 -9.79,5.77 -8.49,-13.54 -11.58,0.49 -13.55,2.11 -4.37,3.45 -5.85,-1.69 -0.72,-3.21 -10.5,-8.07 -2.5,-9.73 -4.35,-7.34 -1.75,-4.28 z"
       id="M04301"
       style="fill:#ffff80;fill-opacity:1;stroke:#000000;stroke-width:1.48758;stroke-dasharray:none;stroke-opacity:1" />
    <path
       d="m 716.67,184.29 5.51,0.94 -1.43,5.5 16.21,1.84 -4.08,10.16 -0.53,12.85 -5.15,-4.29 -3.97,2.31 -7.79,-6.26 -6.23,16.05 -0.46,4.17 -6.38,-1.16 -8.6,0.97 3.31,6.32 -0.79,3.23 -7.23,0.87 -3.3,-3.29 -4.78,4.65 -5.64,2.45 -7.69,-2.5 0.75,6.78 2.61,4.96 -5.12,8.02 0.99,2.02 10.46,1.08 8.82,-2.15 5,2.73 10.14,2.39 14.84,1.09 -0.48,4.65 -3.09,-1.57 -8.32,12.86 -5.68,-1.81 -2.85,-4.12 -4.42,3.12 -6.52,-1.61 -7.61,4.31 -1.77,3.58 -18.12,12.35 -5.24,-0.61 -8.78,-11.27 -2.33,-11.83 -4.41,-7.84 -2,-6.97 -3.23,-1.44 -2.87,-6.96 4.69,-13.43 -6.37,-0.65 1.28,-6.57 -2.12,-5.06 -0.61,-10.59 2.46,-8.52 10.86,-5.14 -0.71,-3.77 12.54,-6.3 12.01,-2.12 3.74,-4.46 7.12,4.77 5.43,-2.16 1.98,-4.07 4.74,-2.08 6.34,5.69 8.35,2.33 9.14,-4.27 z"
       id="M04606"
       style="fill:#ffff80;fill-opacity:1;stroke:#000000;stroke-width:1.48758;stroke-dasharray:none;stroke-opacity:1" />
    <path
       d="m 716.67,184.29 -7.38,0.17 -9.14,4.27 -8.35,-2.33 -6.34,-5.69 -4.74,2.08 -1.98,4.07 -5.43,2.16 -7.12,-4.77 -3.74,4.46 -12.01,2.12 -4.05,-2.69 -1.59,-6.41 -3.05,-3.36 6.44,-8.14 7.37,-2.94 -0.95,-5.63 5.77,-2.74 2.96,-13.27 0.37,-8.34 9.69,1.42 0.12,-7.69 -2.69,-11.69 2.72,-7.22 5.29,-4.21 -4.66,-5.34 -2.86,-10.86 8.75,-7.54 0.08,-6.02 13.06,-9.79 1.72,-10.69 -3.73,-7.81 2.79,-7.97 -0.9,-18.43 -3.03,-7.33 2.12,-11.16 2.91,-3.98 13.82,0.54 3.71,5.04 5.33,-2.34 8.94,-1.29 6.91,1.82 3.83,-1.59 4.3,6.37 5.42,-1.03 9.89,1.78 10.17,8.92 7.12,2.5 5.57,8.8 -5.78,3.25 7.49,9.37 -0.86,6.09 4.37,11.77 0.22,10.3 6.89,7.56 0.78,8.66 5.19,9.9 0.6,6.72 -14.05,-8.82 -1.43,-7.17 -4.84,-3.05 -5.02,-8.71 -8.85,5.97 -5.79,5.82 -4.33,-10.17 -5.03,-0.7 -0.76,-10.64 -4.02,3.27 3.6,8.77 4.38,2.32 -1.16,7.63 -3.31,8.87 -2.02,9.96 0.69,3.88 7.55,13.84 -4,4.39 -7.05,0.24 0.15,6.93 -10.61,0.77 -1.58,6.06 -6.99,4.91 -8.24,2.66 -5.22,3.96 -1.08,8.99 -3.22,5.43 3.58,5.98 5.77,1.47 z m 53.57,-99.81 4.09,5.47 0.95,8.83 -6.13,2.89 5.66,9.33 -1.72,6.23 -4.45,3.35 -9.51,-18.07 1.36,-4.74 -2.85,-5.15 9.38,-3.51 z"
       fill-rule="evenodd"
       id="M04205"
       style="fill:#ffff80;fill-opacity:1;stroke:#000000;stroke-width:1.48758;stroke-dasharray:none;stroke-opacity:1" />
    <path
       d="m 410.88,500.73 3.92,-3.9 5.33,-14.31 5.09,-6.52 3.9,0.95 0.34,6.08 5.7,-0.77 8.95,5.7 -4.98,6.03 1.21,3.54 -5.51,8.44 0.05,3.08 -4.93,-4.8 -9.71,4.09 -5.6,-1.21 z m 77.63,-24.19 0.88,4.6 -1.79,9.64 -3.09,0.7 -4.24,-5.82 4.71,-3.32 z"
       fill-rule="evenodd"
       id="M04203"
       style="fill:#ffff80;fill-opacity:1;stroke:#000000;stroke-width:1.48758;stroke-dasharray:none;stroke-opacity:1" />
    <path
       d="m 651.67,502.35 4.59,12.65 -8.66,6.37 -1.47,-3.33 3.59,-6.49 -1.87,-4.08 z m -136.61,-151.29 0.71,-7.97 10.64,-7.66 11.43,5.24 5.68,0.13 2.57,-9.61 1.8,-14.52 2.43,-4.31 13.22,-6.37 2.94,-3.91 -0.96,-9.53 6.43,-3.74 7.87,2.35 -0.05,7 -2.02,11.37 0.48,4.33 5.46,-0.5 11.26,2.19 4.38,-5.61 7.17,-0.35 14.75,-10.39 8.05,1.06 3.93,-4.71 7.67,-5.59 2.36,-4.06 8.78,11.27 5.24,0.61 18.12,-12.35 1.77,-3.58 7.61,-4.31 6.52,1.61 4.42,-3.12 2.85,4.12 5.68,1.81 8.32,-12.86 3.09,1.57 -1.96,14.11 -4.1,4.43 -5.27,1.98 -2.26,5.05 -5.61,2.38 -4.13,6.12 -5.78,-0.98 -10.74,4.69 2.45,12.48 10.31,1.79 3.25,5.64 -0.1,8.24 3.77,4.8 7.6,0.01 3.52,-5.79 4.97,1.28 2.09,-4.85 5.03,4.06 -2.05,5.72 9.17,6.51 -6.56,11.32 3.1,4.15 -5.52,9.96 -7.8,-2.75 -0.58,-10.31 -2.24,-4.65 -10.15,1.22 -5.94,-5.89 -4.89,1.31 7.53,7.92 -0.82,3.63 5.05,6.56 -2.78,3.17 2.95,6.17 -13.32,-1.6 -1.46,-5.39 -6.28,-2.16 -10.8,9.86 -9.86,-4.98 -3.4,0.43 -0.96,8.99 -4.45,10.32 -0.76,9.75 -3.29,6.39 -7.76,0.68 -4.42,5.53 -1.46,9.49 12.85,1.39 5.91,-2.67 1.69,4.04 8.82,-2.63 11.96,3.39 1.86,10.54 3.86,6.16 9.35,1.84 4.07,-5.04 5.83,-0.69 3.12,2.59 4.68,-6.23 4.4,3.39 14.15,-5.74 -1.43,9.87 -13.88,-3.14 -5.38,6.92 -10.16,1.48 -1.87,3.28 2.61,4.69 9.26,-1.56 7.28,1.76 4.41,8.25 1.01,7.25 5.67,5.88 -1.88,7.18 -3.65,2.71 4.62,5.03 4.49,1.55 0.22,6.26 -2.32,5.27 -5.04,1.62 -2.48,14.47 -2.61,5.16 -5.06,-4.8 -0.73,-13.48 -9.67,0.98 2.91,-6.64 -4.37,-3.15 -12.82,2.1 -9.05,-8.4 8.03,-3.98 5.05,-4.57 -0.56,-3.55 -5.59,-0.98 1.05,-4.11 -1.68,-7.32 -5.75,7.49 -2.22,-7.05 -13.54,3.04 -3.65,-2.93 6.73,-10.37 6.12,-0.24 -1.85,-12.39 -3.78,1.14 -4.58,-2.99 5.91,-8.74 -12.26,0.91 -5.19,-2.79 -7,9.43 -9.7,2.22 -3.77,-2.06 2.07,-10.4 -0.69,-5.1 -7.07,-4.91 -23.67,2.07 -4.99,-2.53 -7.65,0.77 1.07,9.89 -4.55,0.37 -0.42,-6.81 -6.84,-0.15 -14.66,2.57 -0.8,-10.15 1.15,-5.46 5.13,-0.2 -1.45,-12.84 -7.82,-0.67 -3.26,-8.25 0.51,-7.83 -6.08,-3.14 -1.28,9.22 -4.84,-0.68 -11.12,8.26 -5.05,-7.92 -12.15,-0.47 0.05,-6.96 -2.69,-4.14 5.72,-6.77 -4.19,-11.73 z m 167.55,172.08 5.15,2.88 4.34,6.44 3.82,10.2 -2.19,5.17 -8.14,-2.34 -1.87,-7.91 -7.37,-7.98 z m 59.22,10.08 -3.95,-5.39 -5.36,-3.75 -5.81,-14.79 2.44,-2.83 9.04,-2.23 10.39,5.12 1.5,2.67 -5.55,8.56 3.45,7.58 z"
       fill-rule="evenodd"
       id="M04202"
       style="fill:#ffff80;fill-opacity:1;stroke:#000000;stroke-width:1.48758;stroke-dasharray:none;stroke-opacity:1" />
    <path
       d="m 350.51,341.42 -10.96,-7.94 -2.03,-5.42 -8.25,-1.41 -3,-14.11 -13.04,5.75 -2.07,-3.91 -6.55,2.17 -5.02,3.95 -11.06,2.49 -6,-2.07 -10.26,6.82 -2.26,6.06 -5.81,5.1 0.57,6.33 -9.37,4.59 -8.83,0.48 -5.33,1.99 -3.75,4.58 0.11,3.91 -14.98,10.77 -0.74,7.3 -7.25,5.57 -3.03,5.56 -13.45,4.09 -0.43,4.17 -6.74,-2.34 -0.03,-7.58 -5.99,-13.5 -13.66,-5.49 -3.58,-4.66 -2.25,-6.8 4.84,-10.92 -5.38,-0.77 -4.62,-6.14 -0.19,-4.11 6.07,-3.72 2.92,-6.79 -1.84,-3.19 6.85,-6.2 -4.35,-8.89 -0.83,-10.18 -6.33,-2.49 2.18,-5.3 -5.74,-6.15 -8.31,-14.95 3.71,-10.44 10.61,0.06 3.79,7.18 11.71,3.21 6.89,-4.95 2.3,-10.86 7.32,-12.75 2.9,-13.49 6.59,1.5 2.94,-4.81 5.69,-2.9 3.66,1.15 0.97,6.16 6.89,0.72 4.43,-8.18 8.97,0.8 8.18,-1.28 2.45,-5.22 7.51,0.58 1.87,5.32 6.58,2.69 5.34,7.33 7.65,0.27 1.99,-4.5 6.55,6.52 3.52,5.6 7.39,5.34 5.07,7.02 4.98,2.96 8.84,11.86 8.8,4.99 6.68,7.09 2.86,5.75 4.21,1.06 4.65,9.64 -1.68,4.67 0.46,9.25 16.24,8.21 -4.45,5.51 -0.43,16.41 z"
       id="M04445"
       style="fill:#ffff80;fill-opacity:1;stroke:#000000;stroke-width:1.48758;stroke-dasharray:none;stroke-opacity:1" />
    <path
       d="m 351.99,355.89 -3.89,0.58 0.37,5.93 -6.1,2.12 -5.25,-0.78 -8.1,-4.11 -18.22,4.25 -9.17,5.29 -7.92,0.68 -9.79,-1.89 -3.62,1.58 -23.52,-0.53 -9.32,7.32 -3.3,-0.78 -16.72,9.94 -7.22,5.64 -19.19,12.87 -3.51,-5.4 0.2,-0.36 0.43,-4.17 13.45,-4.09 3.03,-5.56 7.25,-5.57 0.74,-7.3 14.98,-10.77 -0.11,-3.91 3.75,-4.58 5.33,-1.99 8.83,-0.48 9.37,-4.59 -0.57,-6.33 5.81,-5.1 2.26,-6.06 10.26,-6.82 6,2.07 11.06,-2.49 5.02,-3.95 6.55,-2.17 2.07,3.91 13.04,-5.75 3,14.11 8.25,1.41 2.03,5.42 10.96,7.94 -1.29,2.77 z"
       id="M04444"
       style="fill:#ffff80;fill-opacity:1;stroke:#000000;stroke-width:1.48758;stroke-dasharray:none;stroke-opacity:1" />
    <path
       d="m 336.49,466 -1.55,-5.94 1.42,-6.43 3.49,-3.52 1.1,-9.55 2.58,-4.18 -2.47,-3.97 0.3,-11.32 5.14,-3.95 7.33,-1.82 5.77,1.83 -1.94,8.55 2.06,6.25 3.62,2.92 8.56,-0.67 5.89,1.49 -1.52,7.02 2.56,9.73 0.46,7.43 -1.33,8.4 1.78,3.86 -2.93,9.29 -13.41,4.82 -5.57,-4.86 -10.49,-6.04 -1.98,-4.6 z"
       id="M04216"
       style="fill:#ffff80;fill-opacity:1;stroke:#000000;stroke-width:1.48758;stroke-dasharray:none;stroke-opacity:1" />
    <path
       d="m 385.32,372.99 -9.24,2.1 -12.87,-4.66 -8.54,-8.29 -2.68,-6.25 -2.77,-11.7 1.29,-2.77 4.86,-3.88 0.43,-16.41 4.45,-5.51 -16.24,-8.21 -0.46,-9.25 1.68,-4.67 -4.65,-9.64 -4.21,-1.06 -2.86,-5.75 -6.68,-7.09 -8.8,-4.99 -8.84,-11.86 -4.98,-2.96 -5.07,-7.02 -7.39,-5.34 -3.52,-5.6 -6.55,-6.52 -1.99,4.5 -7.65,-0.27 -5.34,-7.33 -6.58,-2.69 -1.87,-5.32 -7.51,-0.58 -2.45,5.22 -8.18,1.28 -8.97,-0.8 -4.43,8.18 -6.89,-0.72 -0.97,-6.16 -3.66,-1.15 -5.69,2.9 -2.94,4.81 -6.59,-1.5 -4.34,-6.61 -5.34,-2.06 1.2,-4.57 -1.18,-8.58 7.9,-7.48 1.22,-7.41 4.74,-3.96 2.86,-11 5.76,-5.38 -5.48,-5.78 -5.37,2.6 -13.63,-7.19 -4.44,-13.52 -0.34,-6.38 2.43,-4.73 -0.49,-6.27 -3.2,-1.34 -1.26,-6.04 -12.22,-7.87 -5.79,-0.33 -3.49,-8.69 -6.67,-1.6 -1.45,-7.37 1.6,-3.6 6.54,-4.77 0.69,4.84 4.51,2.23 17.66,-10.14 7.98,0.3 1.37,-4.27 11.66,2.31 5.9,3.94 2.66,-3.47 14.88,-6.22 1.09,-4.74 7.2,-10.25 8.41,-4.56 3.99,2.54 6.74,6.14 2.71,4.57 7.73,4.33 1.95,7.19 4.93,9.27 -0.93,8.15 0.42,20.88 5.32,2.52 -4.56,14.81 -0.17,12.48 -6.72,12.33 4.88,7.72 9.59,4.26 2.36,-4.06 7.39,1.17 10.91,7.72 1.97,4.53 6.84,3.93 10.89,10.46 11.91,-0.6 2.82,-1.97 13.42,8.65 4.48,-2.36 10.7,1.7 5.09,3.7 6.15,-1.95 6,2.91 4.44,6.23 9.49,3.39 3.5,14.58 -2.04,10.86 7.48,6.42 8.16,4.71 -1.67,9.44 8.83,8.7 6.47,-1.22 24.07,2.42 7.05,-3.06 5.58,1.78 4.33,-7.9 2.34,-0.44 9.17,-2.24 -1.27,10.55 9.04,4.78 7.88,9.08 6.62,1.46 6.81,7.3 -11.31,-3.12 -5.78,6.35 -3.49,8.46 -6.22,-5.05 -6.35,-0.01 -7.12,3.44 -4.72,5.55 0.89,7.35 8.39,3.75 -3.53,4.17 -8.97,-5.74 -9.72,2.08 -0.42,-3.85 -5.14,-1.13 0.45,-15.98 -8.57,-0.83 -3.91,1.5 -9.5,-2.93 1.23,5.06 -1.27,12.26 -8.74,-4.62 -1.42,6.87 1.91,4.91 7.33,1.8 7.82,5.44 -2.65,7.1 2.72,1.25 0.57,7.27 3.19,0.76 8.77,-2.38 14.01,1.57 13.83,3.09 4.07,11.52 4.55,0.52 2.55,6.6 5.99,4.06 2.26,6.68 -1.98,11.74 -8.98,6.02 -3.82,4.8 4.06,6.4 -6.6,0.97 -10.29,-5.38 -11.77,3.05 -0.08,3 -14.36,-3.34 -5.38,0.89 5.86,-12.74 -7.39,-4.68 -4.44,-6.33 -4.88,2.89 -3.31,-3.8 -1.86,-9.74 -11.3,-8.47 -11.99,-1.46 -4.54,5.39 z"
       id="M04215"
       style="fill:#ffff80;fill-opacity:1;stroke:#000000;stroke-width:1.48758;stroke-dasharray:none;stroke-opacity:1" />
    <path
       d="m 500.14,469.82 4.45,2.58 -0.23,5.78 5.56,2.12 -0.62,10.89 -7.01,3.64 -7.57,-1.75 -5.38,-10.13 10.19,-2.53 -4.43,-6.34 z m -19.49,-62.96 6.65,-4.76 4.27,5.66 7.08,-6.11 15.92,-3.3 -5.68,-4.21 12.15,0.47 5.05,7.92 11.12,-8.26 4.84,0.68 1.28,-9.22 6.08,3.14 -0.51,7.83 3.26,8.25 7.82,0.67 1.45,12.84 -5.13,0.2 -1.15,5.46 0.8,10.15 -10.31,3.43 -16.42,8.43 -15.71,10.03 -6.31,5.93 -2.39,5.59 -5.5,0.92 -9.57,-1.26 3.17,-8.31 -6.49,-6.05 -1.12,-6.59 -4.52,-7.11 -9.1,-3.04 -0.85,-3.95 16.08,-9.85 -6.84,-10.82 z"
       fill-rule="evenodd"
       id="M04214"
       style="fill:#ffff80;fill-opacity:1;stroke:#000000;stroke-width:1.48758;stroke-dasharray:none;stroke-opacity:1" />
    <path
       d="m 468.38,263 -2.34,0.44 -4.33,7.9 -5.58,-1.78 -7.05,3.06 -24.07,-2.42 -6.47,1.22 -8.83,-8.7 1.67,-9.44 -8.16,-4.71 -7.48,-6.42 2.04,-10.86 -3.5,-14.58 -9.49,-3.39 -4.44,-6.23 -6,-2.91 -6.15,1.95 -5.09,-3.7 -10.7,-1.7 -4.48,2.36 -13.42,-8.65 -2.82,1.97 -11.91,0.6 -10.89,-10.46 -6.84,-3.93 -1.97,-4.53 -10.91,-7.72 -7.39,-1.17 -2.36,4.06 -9.59,-4.26 -4.88,-7.72 6.72,-12.33 0.17,-12.48 4.56,-14.81 -5.32,-2.52 -0.42,-20.88 0.93,-8.15 -4.93,-9.27 -1.95,-7.19 -7.73,-4.33 -2.71,-4.57 -6.74,-6.14 9.09,-10.27 4.99,-10.91 7.5,-5.21 21.05,-1.34 6.77,-4.25 3.56,1.51 6.29,-1.94 7.26,0.34 7.43,4.63 2.06,5.3 8.45,5.4 5.07,1.31 6.45,7.64 9.96,2.61 9.8,-0.01 5.71,8.22 2.45,-3.42 12.83,7.93 8.17,3.17 7.39,13.53 5.59,8.1 6.14,-2.85 5.46,1.02 6.68,-4.17 7.56,0.67 1.66,4.07 6.26,0.99 2.35,-3.35 7.9,-2.01 7.58,3.23 9.65,-5.83 6.02,2.15 3.26,5.01 9.02,-2.06 8.94,2.18 3.5,8.7 0.67,6.83 -9.48,11.91 -5.54,3.59 -8.91,-1.65 -1.16,4.91 15.47,13.03 5.7,-1.08 0.13,18.76 9.75,4.37 -2.69,16.67 1.56,10.18 4.83,2.58 -2.17,6.93 -8,5.75 -7.36,-3.92 -28.81,13.82 -5.58,12.55 -4.88,3.22 -3.18,5.33 4.45,5.96 4.34,-0.28 1.59,8.12 3.48,4.86 -0.01,8.47 z"
       id="M04213"
       style="fill:#ffff80;fill-opacity:1;stroke:#000000;stroke-width:1.48758;stroke-dasharray:none;stroke-opacity:1" />
    <path
       d="m 546.09,331.19 -1.08,-7.07 -3.29,-6.52 -11.28,-4.46 -4.59,-6.94 3.03,-9.05 -12.33,-7.05 -2.66,5.38 -7.26,-1.55 -6.81,-7.3 -6.62,-1.46 -7.88,-9.08 -9.04,-4.78 1.27,-10.55 -9.17,2.24 -6.8,-3.39 0.01,-8.47 -3.48,-4.86 -1.59,-8.12 -4.34,0.28 -4.45,-5.96 3.18,-5.33 4.88,-3.22 5.58,-12.55 28.81,-13.82 7.36,3.92 8,-5.75 2.17,-6.93 -4.83,-2.58 -1.56,-10.18 2.69,-16.67 5.84,3.07 7.69,-4.43 14.3,11 0.69,9.26 4.89,6.1 9.53,0.59 1.53,-6.2 12.6,-4.57 -0.79,-6.01 4.17,-7.08 3.3,-9.61 6.1,0.54 3.09,-3.59 11.05,3.04 -0.89,-8.35 2.44,-2.8 -0.39,-7.5 5.85,-3.16 8.93,8.83 1.22,3.15 10.5,-4.02 10.44,3.63 3.75,7.54 9.04,-1.99 2.45,7.56 9.55,2.42 0.44,4.78 -3.14,8.66 -6.44,8.14 3.05,3.36 1.59,6.41 4.05,2.69 -12.54,6.3 0.71,3.77 -10.86,5.14 -2.46,8.52 0.61,10.59 2.12,5.06 -1.28,6.57 6.37,0.65 -4.69,13.43 2.87,6.96 3.23,1.44 2,6.97 4.41,7.84 2.33,11.83 -2.36,4.06 -7.67,5.59 -3.93,4.71 -8.05,-1.06 -14.75,10.39 -7.17,0.35 -4.38,5.61 -11.26,-2.19 -5.46,0.5 -0.48,-4.33 2.02,-11.37 0.05,-7 -7.87,-2.35 -6.43,3.74 0.96,9.53 -2.94,3.91 -13.22,6.37 -2.43,4.31 z"
       id="M04212"
       style="fill:#ffff80;fill-opacity:1;stroke:#000000;stroke-width:1.48758;stroke-dasharray:none;stroke-opacity:1" />
    <path
       d="m 369.87,694.48 -7.11,-3.82 -1.8,-5.74 2,-6.61 -0.81,-5.07 -7.91,-9.88 -4.33,-3.51 -10.16,0.7 -2.74,6.13 -3.83,2.76 -7.18,0.98 -5.87,-2.51 -5.33,-9.78 0.9,-10.41 -1.54,-7.67 -2.99,-3.38 -7.55,-0.06 -2.22,3.33 -13.94,-4.39 5.12,-6.12 2.41,-6.38 3.4,-1.76 8.79,6.11 10.95,1.3 3.49,2.76 14.85,1.1 5.6,6.88 1.62,5.41 8.3,-2.53 8.25,-18.27 14.5,7.55 6.22,1.49 -6.26,23.34 -3,18.6 z"
       id="M04211"
       style="fill:#ffff80;fill-opacity:1;stroke:#000000;stroke-width:1.48758;stroke-dasharray:none;stroke-opacity:1" />
    <path
       d="m 393.09,504.09 8.18,0.68 9.61,-4.04 3.76,6.4 5.6,1.21 9.71,-4.09 4.93,4.8 3.81,6.95 -5.98,9.32 -0.5,-0.25 -0.11,-0.15 -0.1,-0.8 -1.38,-0.17 -8.92,4.25 -9.78,-4.79 -11.32,-0.44 -7.05,-1.7 -4.03,-7.49 z"
       id="M04209"
       style="fill:#ffff80;fill-opacity:1;stroke:#000000;stroke-width:1.48758;stroke-dasharray:none;stroke-opacity:1" />
    <path
       d="m 324.83,734.46 3.98,9.44 2.03,12.77 0.11,8.85 -1.7,7.86 3.39,7.22 -3.28,11.31 -2.56,-0.62 -3.21,-8.11 -5.74,-4.92 -8.29,-2.44 -5.44,0.83 -3.23,3.25 -7.66,-2.1 -0.51,-6.79 -3.07,-5.16 -8.26,-0.27 -9.4,4.35 -9.53,-2.32 -0.62,2.73 -11.58,-0.33 -5.52,-4.95 4.92,-7.08 -4.36,-4.1 -3.57,1.05 -6.14,-2.81 3.46,-3.61 -2.33,-7.19 3.38,-9.26 -2.37,-4.97 4.98,-1.8 3.29,-6.4 0.72,-6.68 10.13,-6.51 12.65,-1.44 3.74,-4.65 8.99,0.87 7.99,-2.2 3.39,-3.02 5.64,0.03 1.51,-3.53 5.71,-1.24 0.45,-5.65 6.59,-12.22 4,12.26 -1.13,12.96 2.11,12.31 4.22,5.03 0.57,15.64 z"
       id="M04208"
       style="fill:#ffff80;fill-opacity:1;stroke:#000000;stroke-width:1.48758;stroke-dasharray:none;stroke-opacity:1" />
    <path
       d="m 298.39,621.29 -2.64,-19.09 2.72,-4.24 9.42,-5.12 -8.72,-5.32 -2.33,-5.74 -3.36,0.14 -2.32,-8.71 7.88,-2.81 4.91,5.48 6.08,-5.84 5.52,1.32 10.34,6.98 10.56,3.88 -2.14,5.07 4.21,5.23 18.8,-1.36 -0.8,3.54 9.46,-0.44 10.46,2.04 2.05,-4.9 13.17,10.05 1.7,1.35 -6.09,13.32 -6.31,16.97 -6.22,-1.49 -14.5,-7.55 -8.25,18.27 -8.3,2.53 -1.62,-5.41 -5.6,-6.88 -14.85,-1.1 -3.49,-2.76 -10.95,-1.3 z"
       id="M04207"
       style="fill:#ffff80;fill-opacity:1;stroke:#000000;stroke-width:1.48758;stroke-dasharray:none;stroke-opacity:1" />
    <path
       d="m 240.7,702.17 3.39,-0.72 2.63,10.76 -0.72,6.68 -3.29,6.4 -4.98,1.8 2.37,4.97 -3.38,9.26 2.33,7.19 -3.46,3.61 -1.3,5.86 -4.55,7.43 -16.9,2.88 -8.1,2.63 -4.38,4.83 2.86,9.25 -6.3,6.71 -10.44,1.7 -2.57,2.88 -6.57,-1.98 -10.21,-10.02 -1.91,8.2 -14.91,2.78 -3.17,1.69 -5.42,-2.57 -3.43,3.84 -7.77,-0.78 -2.18,3.04 -5.7,0.55 -6.66,-5.29 -4.07,-7.91 -1.17,-14.41 4.22,-6.48 1.7,-5.4 6.31,-0.65 10.68,3.15 9.54,-10.94 4.96,-1.73 -1.86,-7.34 -6.1,-8.61 -3.26,-12.99 -1,-12.09 -12.02,-12 0.23,-9.72 -1.38,-7.59 -4.36,-7.18 -4.09,-2.07 -1.07,-4.9 3.15,-4.06 5.85,1.69 4.37,-3.45 13.55,-2.11 11.58,-0.49 8.49,13.54 9.79,-5.77 12.82,-0.38 6.54,1.58 4.09,13.96 3.82,0.67 6.59,7.11 4.78,0.84 5.62,13.71 4.93,-6.2 8.25,4.05 3.01,-1.44 z"
       id="M04206"
       style="fill:#ffff80;fill-opacity:1;stroke:#000000;stroke-width:1.48758;stroke-dasharray:none;stroke-opacity:1" />
    <path
       d="m 424.16,458.6 4.85,-5.41 8.2,-19.46 4.1,-2.77 0.33,-5.88 7.23,-16.78 0.08,-3 11.77,-3.05 10.29,5.38 6.6,-0.97 3.04,0.2 -0.58,4.76 6.84,10.82 -16.08,9.85 0.85,3.95 9.1,3.04 4.52,7.11 1.12,6.59 -6.58,-1.52 -4.36,5.13 -4.4,-0.01 -6.81,-4.87 -7.52,2.78 -3.34,5.74 -3.72,0.41 0.37,10.05 -1.82,3.63 -5.61,-3.68 -4.15,-12.24 -6.13,3.56 z"
       id="M04401"
       style="fill:#ffff80;fill-opacity:1;stroke:#000000;stroke-width:1.48758;stroke-dasharray:none;stroke-opacity:1" />
  </g>
</svg>
