<?xml version="1.0" encoding="UTF-8" standalone="no"?>
<svg
   version="1.2"
   width="594.79126"
   height="600"
   viewBox="0 0 594.79126 600"
   stroke-linecap="round"
   stroke-linejoin="round"
   id="svg163"
   sodipodi:docname="ni.svg"
   inkscape:version="1.2 (dc2aedaf03, 2022-05-15)"
   xmlns:inkscape="http://www.inkscape.org/namespaces/inkscape"
   xmlns:sodipodi="http://sodipodi.sourceforge.net/DTD/sodipodi-0.dtd"
   xmlns="http://www.w3.org/2000/svg"
   xmlns:svg="http://www.w3.org/2000/svg">
  <defs
     id="defs167" />
  <sodipodi:namedview
     id="namedview165"
     pagecolor="#505050"
     bordercolor="#eeeeee"
     borderopacity="1"
     inkscape:showpageshadow="0"
     inkscape:pageopacity="0"
     inkscape:pagecheckerboard="0"
     inkscape:deskcolor="#505050"
     showgrid="false"
     inkscape:zoom="0.99876084"
     inkscape:cx="298.36973"
     inkscape:cy="300.37221"
     inkscape:window-width="1920"
     inkscape:window-height="1009"
     inkscape:window-x="-8"
     inkscape:window-y="-8"
     inkscape:window-maximized="1"
     inkscape:current-layer="svg163" />
  <g
     id="ni"
     style="fill:#ffff80;fill-opacity:1;stroke:#000000;stroke-width:1.34391;stroke-dasharray:none;stroke-opacity:1"
     transform="matrix(0.74409938,0,0,0.74409938,-0.24414782,-0.24410474)">
    <path
       d="m 375.89,748.5 2.11,4.06 -1.18,4.01 -4.49,1.87 -0.67,-6.6 -4.22,-2.92 -6.75,-0.35 -2.25,-2.81 -9.72,-4.51 -1.98,-3.19 1.13,-5.37 -2.87,-1.97 -5.88,0.63 -2.44,-3.68 0.96,-4.39 -2.64,-2.86 1.29,-19.88 -0.66,-4.39 -3.75,-4.3 -3.45,-10.87 4.14,-4.37 3.48,0.24 3.98,-3.68 9.66,-1.16 5.89,-3.45 0.59,-3.18 8.05,-3.92 6.54,3.64 -1.11,3.01 3.23,6.31 -2.87,2.63 5.42,12.04 -0.2,5.65 3.54,4.19 -0.23,5.24 2.86,3.37 -1.68,6.11 -7.7,3.47 0.17,-4.63 -9.01,6.58 -0.89,9.65 -2.95,2.73 2.25,4.89 2.89,1.62 2.32,4.8 6.29,2.08 z"
       id="M15482"
       style="fill:#ffff80;fill-opacity:1;stroke:#000000;stroke-width:1.34391;stroke-dasharray:none;stroke-opacity:1" />
    <path
       d="m 372.33,758.44 4.49,-1.87 1.18,-4.01 -2.11,-4.06 4.71,-2.45 0.25,-3.48 6.38,-9.13 7.27,-12.58 3.39,-1.89 5.7,-9.97 1.93,-2.68 7.97,0.78 4.65,4.87 6.34,-1.38 0.91,-2.51 5,-0.01 1.39,4.41 10.78,0.22 3.09,5.75 5.35,1.95 1.03,4.03 3.49,4.41 2.21,8.49 -3.33,4.48 -2.06,5.74 1.75,4.11 2.45,12.51 -9.34,2.44 -8.14,0.94 -1.39,2.81 -8.69,2.89 -4.01,-2.26 -6.29,-0.2 2.6,9.8 -0.77,10.16 -3.23,4.71 -4.05,-1.29 -3.86,2.81 -2.09,5.84 -6.73,-0.57 -6,-3.88 -9.28,-4.04 -1.82,6.37 -3.1,4.61 -5.54,0.69 -1.92,-3.73 -1.39,-8.68 -6.51,-3.44 0.77,-4.37 4.41,-1.91 4.08,-9.31 -5.33,-6.65 3.29,-3.61 z"
       id="M15461"
       style="fill:#ffff80;fill-opacity:1;stroke:#000000;stroke-width:1.34391;stroke-dasharray:none;stroke-opacity:1" />
    <path
       d="m 383.41,474.46 -8.5,-4.87 -8.03,1.39 -0.88,-5.64 2.6,-4.09 -2.02,-2.84 -4.88,0.01 5.74,-6.5 6.48,-3.88 6.98,-5.94 4.24,-7.94 -1.33,5.53 9.21,1.52 -2.84,6.7 7.25,6.14 -3.32,7.63 -6.5,6.01 2.2,2.51 z"
       id="M15405"
       style="fill:#ffff80;fill-opacity:1;stroke:#000000;stroke-width:1.34391;stroke-dasharray:none;stroke-opacity:1" />
    <path
       d="m 164.91,703.02 3.62,6.72 -4.3,3.65 -7.39,2.48 -4.24,8.81 -9,1.7 -3.1,-1.22 -6.84,7.55 -7.82,-2.94 -7.76,-0.05 -2.55,3.84 -5.28,-4.82 -5.38,-0.55 -4.37,-2.47 -9.34,4.37 -6.57,-2.59 -3.94,1.3 2.81,4.5 -3.45,5.25 2.34,5.73 3.37,2.03 -7.73,10.43 0.33,2.51 -4.11,4.05 -5,7.41 -0.02,4.31 -3.88,4.31 -9.42,5.1 -0.63,3.28 -9.41,5.09 -5.34,-5.32 1.63,-7.43 -3.33,-8.2 -4.54,-3.71 1.12,-13.9 -1.09,-8.15 -2.53,-1.86 -4.2,-6.99 2.63,-14.52 -3.28,-7.74 -8.36,0.45 -7.5,-4.63 -5.17,-6.76 -4.89,-3.32 7.31,-3.68 14.83,-4.23 23.59,-10.19 16.44,-5.53 5.41,-4.25 19.67,-5.55 9.69,-3.83 9.83,-6.39 3.14,-4.65 4.3,-1.16 5.12,-4.57 10.27,-7.24 7.91,-0.64 7.48,-4.97 3.97,-6.83 2.76,-2.13 5.86,12.03 -0.72,5.5 -2.4,2.58 4.08,10.32 -0.62,4.49 3.63,3.21 -2.64,13.97 -0.28,6.98 2.46,8.45 -0.19,8.5 z"
       id="M15216"
       style="fill:#ffff80;fill-opacity:1;stroke:#000000;stroke-width:1.34391;stroke-dasharray:none;stroke-opacity:1" />
    <path
       d="m 469.89,388.44 -3.84,3.53 -0.77,6.53 -9.39,7.8 -2.71,4.33 -7.4,3.68 -6.2,1.14 -17.58,7.23 -1.94,-2.14 4.18,-4.24 -4.94,-7.81 -5.43,-0.42 -7.36,-8.3 0.32,-7.31 1.93,-3.2 4.23,0.41 1.2,1.81 11.89,2.25 4.38,-1.91 4.65,1.01 1.32,-11.31 -2.41,-4.66 2.37,-2.07 9.96,-1.3 4.16,-1.89 1.06,-5.24 6.3,-0.07 -0.76,4.13 5.54,2.4 -0.18,4.99 7.1,-0.33 -1.56,5.66 3.89,1.83 z"
       id="M15213"
       style="fill:#ffff80;fill-opacity:1;stroke:#000000;stroke-width:1.34391;stroke-dasharray:none;stroke-opacity:1" />
    <path
       d="m 723.1,174.48 -5.38,0.68 -5.26,-4.68 -3.42,1.65 -10.41,0.3 -9.84,-2.57 -3.68,4 -5.64,1.75 -1.61,3.76 -6.53,-1.17 -6.15,4 -3.41,-0.56 -2.56,3.89 -0.66,8.38 3.73,3.35 -4.03,7.27 -3.87,3.43 -1.2,2.68 -5.87,-1.18 -9.15,-6.16 -4.87,-1.04 -5.63,-5.15 -2.03,-5.19 0.22,-13.11 7.39,-14.14 -0.69,-7.21 3.08,-8.13 4.43,-8.35 0.29,-3.44 -3.11,-2.37 2.61,-11.74 -0.29,-4.99 1.16,-11.23 -0.84,-1.65 1.3,-10.81 -0.56,-11.01 3.24,-8.65 -1.79,-4.09 2.64,-5.09 3.38,-9.92 3.7,-4.7 -0.25,-2.85 5.43,-8.47 3.77,-11.59 4.9,-9.55 5.62,-8.37 4.28,-8.57 2.36,-0.89 13.71,8.3 1.4,2.08 5.1,-1.82 6.17,2.02 3.22,4.93 14.95,2.65 3.53,-0.85 9.81,4.73 1.78,4.4 -4.84,6.69 2.86,9.47 -1.09,13.37 -3.94,6.04 -0.38,6.3 2.65,2.98 3.44,-3.19 3.19,5.66 0.62,4.51 6.85,5.6 3.29,-0.94 3.21,3.67 6.68,1.88 4.91,-2.85 4.56,-0.43 3.79,4.95 7.45,0.99 -0.22,2.8 9.63,8.96 1.51,5.94 6.9,4.61 0.36,7.8 -8.22,6.29 -0.32,4.34 -2.51,1.86 -2.96,7.6 -7.61,3.37 -6.82,4.83 -2.94,0.57 -3.79,4.1 -6.71,3.65 -6.15,-2.11 -1.94,2.65 -6.91,-4.06 -2.57,0.56 -6.4,-2.6 -5.24,5.2 -0.71,3.8 -4.9,7.61 z"
       id="M15212"
       style="fill:#ffff80;fill-opacity:1;stroke:#000000;stroke-width:1.34391;stroke-dasharray:none;stroke-opacity:1" />
    <path
       d="m 481.68,457.42 -4.11,5.6 -1.03,6.75 -2.94,-0.61 -7.44,4.42 3.13,6.83 -5.79,2.53 -2.8,-0.85 -2.76,-8.13 -5.86,0.14 -5.38,-1.7 0.07,-5.03 -7.88,-9.82 2.11,-9.52 -3.52,-4.17 -1.3,-5.26 1.77,-3.39 -1,-7.33 1.79,-0.6 11.27,12.5 6.23,0.82 2.33,4.11 3.33,-0.65 3.6,6.7 3.93,-2.27 3.75,-7.23 3.48,5.37 -1.25,4.35 6.41,3.22 z"
       id="M15211"
       style="fill:#ffff80;fill-opacity:1;stroke:#000000;stroke-width:1.34391;stroke-dasharray:none;stroke-opacity:1" />
    <path
       d="m 375.89,748.5 -2.8,-3.66 -6.29,-2.08 -2.32,-4.8 -2.89,-1.62 -2.25,-4.89 2.95,-2.73 0.89,-9.65 9.01,-6.58 -0.17,4.63 7.7,-3.47 1.68,-6.11 -2.86,-3.37 0.23,-5.24 -3.54,-4.19 0.2,-5.65 -5.42,-12.04 2.87,-2.63 -3.23,-6.31 1.11,-3.01 -6.54,-3.64 -8.05,3.92 -0.59,3.18 -5.89,3.45 -9.66,1.16 -3.98,3.68 -3.48,-0.24 -4.14,4.37 -4.71,-1.05 -5.66,1.19 -4.17,-4.17 5.53,-6.35 -1.56,-11.89 3.02,-6.21 -3.4,-2.59 -0.22,-3.21 -3.9,-5.59 2.17,-5.44 -0.04,-6.21 4.56,-0.56 6.99,-7.21 1.34,-6.63 6.52,1.64 5.51,-2.15 6.71,3.22 -0.04,-5.95 7.44,1.37 3.42,-1.15 0.45,-5.17 7.67,-8.26 -0.43,-9.52 1.18,-3.61 9.99,1.79 5.56,-0.79 2.24,2.41 2.48,5.1 9.62,0.97 5.83,-1.94 15.36,2.01 4.97,4.29 1.07,7.9 -0.62,5.13 3.54,4.87 5.59,7.49 4.94,3.61 -5.98,6.77 -6,2.91 -6.09,13.97 2.33,4.57 -6.67,4.24 -3.42,9.99 -4.77,6.41 -4.44,8.88 -1.53,11.63 -2.28,2.62 1.4,6.28 3.66,2.41 -5.7,9.97 -3.39,1.89 -7.27,12.58 -6.38,9.13 -0.25,3.48 z"
       id="M15210"
       style="fill:#ffff80;fill-opacity:1;stroke:#000000;stroke-width:1.34391;stroke-dasharray:none;stroke-opacity:1" />
    <path
       d="m 493.05,382.77 4.81,9.97 18.37,-3.79 0.56,4.43 3.35,3.96 8.72,1.78 -0.07,6.51 2.24,5.65 3.6,1.6 1.38,7.67 9.14,4.04 4.95,-6.51 8.58,5.32 2.22,8.89 2.14,2.02 0.5,8.39 -7.82,-0.94 -5.07,2.77 -7.52,-0.45 -14.47,-4.83 -4,-6.1 -5.11,-0.82 0.08,-3.73 -3.26,-1.77 -4.81,0.47 -3.19,-2.91 -0.05,-4.93 -12.44,-0.88 -3.08,-2.89 2.5,-5.1 -1.46,-6.19 -10.49,-9.15 0.63,-5.45 -4.98,-0.92 0.02,-7.09 2.87,-3.59 5.64,-3.07 2.82,2.13 0.03,4.99 z"
       id="M15209"
       style="fill:#ffff80;fill-opacity:1;stroke:#000000;stroke-width:1.34391;stroke-dasharray:none;stroke-opacity:1" />
    <path
       d="m 422.86,599.32 -4.97,-4.29 -15.36,-2.01 -5.83,1.94 -9.62,-0.97 -2.48,-5.1 2.55,-7.62 5.41,-8 -1.44,-4.98 2.34,-10.62 1.7,-1.98 -1.13,-9.72 2.68,-9.2 -0.69,-5.24 2.28,-7.14 3.68,-4.14 7.34,1.96 2.24,5.6 3.38,0.12 3.51,4.25 0.74,8.14 3.52,0.35 7.15,-2.11 5.63,-3.94 2.93,5.14 -3.64,8.5 3,2.61 10.59,4.24 1.81,5.48 -3.44,2.05 -4.44,-0.83 -1.68,-4.28 -12.08,-3.61 -4.88,11.4 -3.28,3.36 9.1,11.07 -5.58,3.15 -1.82,7.09 3.68,6.25 z"
       id="M15208"
       style="fill:#ffff80;fill-opacity:1;stroke:#000000;stroke-width:1.34391;stroke-dasharray:none;stroke-opacity:1" />
    <path
       d="m 703.55,293.45 3.22,6.09 6.44,3.7 0.15,3.66 7.72,5.36 1,2.14 -2.97,3.85 -9.99,3.89 -4.17,-1.48 -4.75,1.08 -4.28,5.06 -8.03,3.61 -5.86,-0.18 -4.28,3.27 -7.36,-0.08 -3.94,4.91 -6.05,-1.7 -6.13,1.43 -2.77,-1.44 -4.82,2.74 -4.68,-1.5 -4.11,-5.3 -7.06,-4.75 -4.39,1.13 -7.38,-5.56 -9.93,2.16 -0.73,-1.31 3.38,-9.42 -4.64,-3.43 -3.95,-0.89 -6.31,-3.86 -9.89,3 -6.67,-5.28 -3.32,-7.14 -3.57,-3.1 1.73,-4.35 -1.17,-2.81 -5.07,-3.57 0.72,-7.65 3.38,-1.98 -5.96,-4.06 5.17,-3.86 4.07,0.88 8.58,-0.95 1.96,-5.26 2.47,-1.29 2.85,-6.93 -5.02,-1.68 -4.69,1.72 -5.3,-4 10.2,-8.54 -4.09,-7.57 8.91,-8.46 3.12,5.63 10.01,7.72 3.24,-5.46 7.94,-0.58 5.84,1.08 6.51,4.68 6.01,-0.94 5.57,2.84 3.43,3.5 5.03,-0.62 0.91,2.84 5.72,2.32 0.27,6.28 -1.64,9.56 0.94,5.93 4.13,4.95 2.91,7.65 -4.16,8.86 2.44,5.6 16.09,2.96 2.23,3.65 -1.05,4.74 4.06,0.96 6.45,-1.02 7.13,-7.51 0.2,-2.58 z"
       id="M15206"
       style="fill:#ffff80;fill-opacity:1;stroke:#000000;stroke-width:1.34391;stroke-dasharray:none;stroke-opacity:1" />
    <path
       d="m 361.7,458.42 4.88,-0.01 2.02,2.84 -2.6,4.09 0.88,5.64 8.03,-1.39 8.5,4.87 -6.09,9.7 -4.72,12.17 -3.69,2.13 -0.73,4.65 7.15,9.42 6.75,6.63 -1.26,5.41 -4.73,6.46 -0.63,3.51 -6.13,3.68 -2.03,6.13 -3.05,0.32 -3.76,6.48 -1.71,7.01 -2.76,1.96 -0.04,4.88 5.96,8.48 4.87,12 -1.18,3.61 0.43,9.52 -7.67,8.26 -0.45,5.17 -3.42,1.15 -7.44,-1.37 0.04,5.95 -6.71,-3.22 -5.51,2.15 -6.52,-1.64 1.11,-3.82 -5.3,-4.99 -1.86,-5.1 -4.26,1.49 -3.05,-3.05 -0.45,-5.23 -7.63,-5.21 3.72,-4.18 1.57,-6.28 5.25,-4.24 -1.8,-4.8 -6.21,-0.16 -7.78,-6.56 -5.91,-0.76 -10.38,-3.07 -3.65,-2.15 -3.75,3.18 -1.71,-5.4 6.69,-6.93 3.26,-0.87 13.92,-9.78 10.38,-4.69 4.1,-3.93 6.04,-1.35 5.32,-6.52 10.17,-16.62 6.55,-13.57 4.12,-10.54 -0.25,-4 5.02,-2.05 z m -9.48,30.89 -5.4,1.34 -5.29,3.6 1.62,5.63 -2.62,7.01 -3.39,5.53 11,-0.2 3.76,-4.96 4.8,2.57 6.65,0.7 1.62,-2.53 -8.65,-8.48 -4.63,-1.41 3.64,-8.64 z"
       fill-rule="evenodd"
       id="M15205"
       style="fill:#ffff80;fill-opacity:1;stroke:#000000;stroke-width:1.34391;stroke-dasharray:none;stroke-opacity:1" />
    <path
       d="m 439.58,415.45 6.2,-1.14 7.4,-3.68 2.71,-4.33 9.39,-7.8 0.77,-6.53 3.84,-3.53 9.11,0.44 4.98,0.92 -0.63,5.45 10.49,9.15 1.46,6.19 -2.5,5.1 3.08,2.89 12.44,0.88 0.05,4.93 3.19,2.91 4.81,-0.47 3.26,1.77 -0.08,3.73 5.11,0.82 4,6.1 14.47,4.83 7.52,0.45 5.07,-2.77 7.82,0.94 3.48,4.18 1.89,4.95 3.91,1.15 -1.08,4.14 1.46,6.39 5.75,1.05 3.98,0.97 3.82,10.04 -5.32,0.53 -2.41,3.67 -6.7,4.9 -2.14,5.33 -4.85,3.24 -5.11,-1.54 -5.45,8.76 0.29,5.25 -3.92,2.8 -8.81,0.18 -2.98,-1.33 -7.49,6.83 -5.3,-1.51 -1.52,-3.77 -0.31,-7.36 -10.26,-10.46 -2.02,-7.98 6.46,-7.81 -1.12,-2.98 3.37,-8.22 -11.13,-6.45 -11.68,1.73 -7.07,-3.8 -9.6,1.84 0.14,-3.22 -6.41,-3.22 1.25,-4.35 -3.48,-5.37 -3.75,7.23 -3.93,2.27 -3.6,-6.7 -3.33,0.65 -2.33,-4.11 -6.23,-0.82 -11.27,-12.5 -1.79,0.6 2.53,-5.22 z"
       id="M15204"
       style="fill:#ffff80;fill-opacity:1;stroke:#000000;stroke-width:1.34391;stroke-dasharray:none;stroke-opacity:1" />
    <path
       d="m 423.31,612.35 0.62,-5.13 -1.07,-7.9 2.9,-3.08 -3.68,-6.25 1.82,-7.09 5.58,-3.15 -9.1,-11.07 3.28,-3.36 4.88,-11.4 12.08,3.61 1.68,4.28 4.44,0.83 -3.51,4.25 -1.34,6.34 1.92,4.3 -4.08,6.79 -0.38,6.92 -3.32,1.78 -0.73,5.39 -3.91,2.19 -3.27,8.14 z m -39.9,-137.89 6.4,-4.26 -2.2,-2.51 6.5,-6.01 3.32,-7.63 -7.25,-6.14 2.84,-6.7 -9.21,-1.52 1.33,-5.53 2.16,-5.88 5.5,-6.54 6.53,-17 5.52,-21.45 1.06,-6.65 4.1,-1.34 3.97,1.53 1.05,2.66 -2.32,6.64 0.28,3.54 -4.23,-0.41 -1.93,3.2 -0.32,7.31 7.36,8.3 5.43,0.42 4.94,7.81 -4.18,4.24 1.94,2.14 17.58,-7.23 -0.1,7.21 -2.53,5.22 1,7.33 -1.77,3.39 1.3,5.26 3.52,4.17 -2.11,9.52 7.88,9.82 -0.07,5.03 5.38,1.7 5.86,-0.14 2.76,8.13 2.8,0.85 5.79,-2.53 -3.13,-6.83 7.44,-4.42 2.94,0.61 1.03,-6.75 4.11,-5.6 9.6,-1.84 7.07,3.8 11.68,-1.73 11.13,6.45 -3.37,8.22 1.12,2.98 -6.46,7.81 2.02,7.98 10.26,10.46 0.31,7.36 -10.08,0.15 -4.93,2.71 -6.67,-0.94 -11.71,3.44 -3.56,4.07 -1.53,4.62 -7.07,2.98 -8.98,-5.47 -4.19,4.65 0.04,5.85 -1.93,6.69 -6.54,2.87 2.46,6.21 -2.92,5.25 0.69,3.81 -2.55,3.38 -5.39,1.41 -1.81,-5.48 -10.59,-4.24 -3,-2.61 3.64,-8.5 -2.93,-5.14 -5.63,3.94 -7.15,2.11 -3.52,-0.35 -0.74,-8.14 -3.51,-4.25 -3.38,-0.12 -2.24,-5.6 -7.34,-1.96 -3.68,4.14 -2.28,7.14 0.69,5.24 -2.68,9.2 1.13,9.72 -1.7,1.98 -2.34,10.62 1.44,4.98 -5.41,8 -2.55,7.62 -2.24,-2.41 -5.56,0.79 -9.99,-1.79 -4.87,-12 -5.96,-8.48 0.04,-4.88 2.76,-1.96 1.71,-7.01 3.76,-6.48 3.05,-0.32 2.03,-6.13 6.13,-3.68 0.63,-3.51 4.73,-6.46 1.26,-5.41 -6.75,-6.63 3.32,-7.84 -3.92,-2.75 -2.13,-5.61 4.72,-12.17 z"
       fill-rule="evenodd"
       id="M15202"
       style="fill:#ffff80;fill-opacity:1;stroke:#000000;stroke-width:1.34391;stroke-dasharray:none;stroke-opacity:1" />
    <path
       d="m 625.85,178.81 -0.22,13.11 2.03,5.19 5.63,5.15 4.87,1.04 9.15,6.16 5.87,1.18 1.2,-2.68 6.55,-1.75 5.63,2.68 0.78,3.7 -1.42,5.3 1.52,5.79 4.45,7.77 -3.01,8.63 4.12,2.94 7.89,9.95 -1.31,17.9 2.32,5.5 6.07,-1.44 7.53,-0.08 1.34,3.98 5.18,3.56 2.47,8.68 -0.94,2.38 -8.05,3.34 -0.2,2.58 -7.13,7.51 -6.45,1.02 -4.06,-0.96 1.05,-4.74 -2.23,-3.65 -16.09,-2.96 -2.44,-5.6 4.16,-8.86 -2.91,-7.65 -4.13,-4.95 -0.94,-5.93 1.64,-9.56 -0.27,-6.28 -5.72,-2.32 -0.91,-2.84 -5.03,0.62 -3.43,-3.5 -5.57,-2.84 -6.01,0.94 -6.51,-4.68 -5.84,-1.08 -7.94,0.58 -3.24,5.46 -10.01,-7.72 -3.12,-5.63 12.79,-14.38 12.98,-18.36 z"
       id="M15227"
       style="fill:#ffff80;fill-opacity:1;stroke:#000000;stroke-width:1.34391;stroke-dasharray:none;stroke-opacity:1" />
    <path
       d="m 457.73,737.33 -2.21,-8.49 -3.49,-4.41 -1.03,-4.03 -5.35,-1.95 -3.09,-5.75 -10.78,-0.22 -1.39,-4.41 -5,0.01 -0.91,2.51 -6.34,1.38 -4.65,-4.87 -7.97,-0.78 -1.93,2.68 -3.66,-2.41 -1.4,-6.28 2.28,-2.62 1.53,-11.63 4.44,-8.88 4.77,-6.41 3.42,-9.99 6.67,-4.24 -2.33,-4.57 6.09,-13.97 6,-2.91 5.98,-6.77 -4.94,-3.61 -5.59,-7.49 9.74,-12.77 3.4,1.45 2.72,8.65 5.21,-1.32 2.51,-4.74 -1.43,-3.93 2.57,-2.99 6.27,-3.44 4.12,4.68 -5.81,7.69 3.86,3.99 5.1,-1.63 0.79,-4.5 2.86,-2.82 10.22,-0.87 3.51,2.82 5.14,-0.1 1.97,3.25 -0.57,5.52 2.32,1 -0.42,7.21 10.06,3.09 2.86,3.86 5.36,1.07 -0.19,6.73 1.01,10.67 -1.45,2.41 2.42,5.21 5.08,3.63 -0.3,3.43 -2.33,6.06 0.28,11.02 -3.77,5 -2.46,0.05 -8.26,6.03 -0.84,3.18 -6.14,1.75 -5.23,-2.03 -5.24,4.01 -10.87,-0.97 -1.18,1.13 -0.95,11.51 1.06,9.7 3.49,4.41 0.87,13.06 -2.68,1.72 -6.3,-3.5 z"
       id="M15226"
       style="fill:#ffff80;fill-opacity:1;stroke:#000000;stroke-width:1.34391;stroke-dasharray:none;stroke-opacity:1" />
    <path
       d="m 426.85,617.22 -3.54,-4.87 4.81,-3.61 3.27,-8.14 3.91,-2.19 0.73,-5.39 3.32,-1.78 0.38,-6.92 4.08,-6.79 -1.92,-4.3 1.34,-6.34 3.51,-4.25 3.44,-2.05 5.39,-1.41 2.55,-3.38 -0.69,-3.81 2.92,-5.25 -2.46,-6.21 6.54,-2.87 1.93,-6.69 -0.04,-5.85 4.19,-4.65 8.98,5.47 7.07,-2.98 1.53,-4.62 3.56,-4.07 11.71,-3.44 6.67,0.94 4.93,-2.71 10.08,-0.15 1.52,3.77 5.3,1.51 7.49,-6.83 2.98,1.33 8.81,-0.18 3.69,6.46 8.45,3.92 2.24,6.4 -1.57,7.07 0.02,5.95 -5.56,4.25 1.5,8.43 -2.27,2.82 -1.2,9.95 -2.42,1.15 -4.81,6.33 -6.03,5.75 -3.5,7.49 0.4,3.22 6.05,6.54 4.14,5.95 0.68,4.4 5.78,-2.49 1.68,-4.36 9.43,12.55 -0.49,4.76 3.45,4.04 -2.58,7.25 -0.84,7.83 -2.79,5.85 1.15,10.36 3.56,4.04 -0.6,4.67 3.64,6.57 0.78,5.58 -3.89,5.48 -1.82,6.96 2.7,4.64 0.97,6.31 -2.02,8.35 1.1,4.14 -3.3,5.72 -4.62,-5.35 -8.21,2.32 -7.88,-2.45 -2.78,-5.34 1.49,-7.58 -2.98,-4.95 -7.56,-3.64 -1.49,-3.85 -4.74,-3 -3.16,-9.46 -4.11,-3.56 -5.04,-1.51 0.3,-3.43 -5.08,-3.63 -2.42,-5.21 1.45,-2.41 -1.01,-10.67 0.19,-6.73 -5.36,-1.07 -2.86,-3.86 -10.06,-3.09 0.42,-7.21 -2.32,-1 0.57,-5.52 -1.97,-3.25 -5.14,0.1 -3.51,-2.82 -10.22,0.87 -2.86,2.82 -0.79,4.5 -5.1,1.63 -3.86,-3.99 5.81,-7.69 -4.12,-4.68 -6.27,3.44 -2.57,2.99 1.43,3.93 -2.51,4.74 -5.21,1.32 -2.72,-8.65 -3.4,-1.45 z"
       id="M15225"
       style="fill:#ffff80;fill-opacity:1;stroke:#000000;stroke-width:1.34391;stroke-dasharray:none;stroke-opacity:1" />
    <path
       d="m 306.72,97.39 3.75,-0.42 2.13,4.37 -3.1,3.46 -1.51,8.6 0.04,14.39 -1.7,10.2 -3.34,7.06 -0.93,10.24 -3.31,4.3 -1.79,5.67 -5.86,8.27 -3.53,6.92 -1.09,5.54 -4.17,8.47 0.93,5.87 -0.44,8.8 5.14,4.58 10.25,4.28 4.18,-3.37 10.27,-0.68 5.15,-3.24 11.63,-2.39 1.36,9.69 -3.17,9.02 -3.54,4.92 -2.51,10.36 -2.55,2.15 -12.81,26.53 -1.36,8.58 -3.2,2.28 -5.98,7.51 -0.82,2.59 -7.76,2.99 -2.46,3.15 -5.1,1.57 -9.5,8.53 -6.64,7.76 -7.73,5.72 -12.29,2.69 -7.17,-0.96 -4.44,2.03 -9.79,7.11 -5.08,1.36 -12.18,-3.32 -3.76,-4.34 4.32,-7.59 10.1,-0.39 8.41,-4.34 3.87,-6.71 3.42,-10.09 -0.15,-5.11 -3.87,-4.72 2.37,-5.71 5.5,-5.02 1.64,-3.68 8.43,-4.52 5.07,-7 -0.84,-5.54 -8,-9.54 -4.28,-2.75 -7.13,-0.58 -4.27,1.97 -0.48,4.37 -3.83,3.48 -3.13,9.13 -9.14,-6.92 2.63,-1.86 -0.53,-11.21 -4.14,-2.48 6.18,-7.61 -0.34,-6.92 -1.68,-6.84 5.17,-6.19 -2.89,-2.09 1.56,-3.7 6.05,-4.08 3.89,-7.52 -0.45,-3.02 6.72,-5.51 0.44,-3.97 3.82,-4.14 0.49,-6.1 2.89,-1.44 5.13,-11.31 8.77,-4.68 7.58,-7.2 1.32,-3.14 10.13,-9.91 8.33,-2.16 3.04,-3.46 2.32,-6.98 -1.37,-4.12 4.08,-6.21 0.54,-3.54 7.15,-6.18 7.29,-4.45 z"
       id="M15224"
       style="fill:#ffff80;fill-opacity:1;stroke:#000000;stroke-width:1.34391;stroke-dasharray:none;stroke-opacity:1" />
    <path
       d="m 573.43,294.11 3.57,3.1 3.32,7.14 6.67,5.28 9.89,-3 6.31,3.86 3.95,0.89 4.64,3.43 -3.38,9.42 0.73,1.31 -2.13,5.59 -9.97,13.52 -1.04,3.82 -12.36,6.07 0.98,5.8 -1.74,2.77 -8.97,-2.41 -8.48,-1.24 -4.27,-2.47 -5,-5.71 -8.33,-4.37 -4.97,-5.88 1.64,-7.91 -8.12,-1.18 -1.58,-3.4 4.37,-3.65 4.1,0.71 -0.35,-4.65 -5.48,-1.83 -2,-2.67 2.23,-3.73 6.71,-6.06 4.94,0.9 2.17,-1.8 12.29,0.7 1.1,-4.66 3.19,-0.33 1.37,-6.29 z"
       id="M15223"
       style="fill:#ffff80;fill-opacity:1;stroke:#000000;stroke-width:1.34391;stroke-dasharray:none;stroke-opacity:1" />
    <path
       d="m 164.91,703.02 -3.01,-2.11 0.19,-8.5 -2.46,-8.45 0.28,-6.98 2.64,-13.97 -3.63,-3.21 0.62,-4.49 -4.08,-10.32 2.4,-2.58 0.72,-5.5 -5.86,-12.03 5.35,-4.35 3.02,-5.38 3.63,-1.72 7.41,1.68 3.13,2.69 7.04,1.35 9.02,-1.34 6.88,-2.65 3.71,0.93 8.63,-2.71 11.72,-10.46 4.47,-6.2 2.75,3.42 10.67,-9.13 14.01,-13.29 22.13,-22.99 1.71,5.4 3.75,-3.18 3.65,2.15 10.38,3.07 5.91,0.76 7.78,6.56 6.21,0.16 1.8,4.8 -5.25,4.24 -1.57,6.28 -3.72,4.18 7.63,5.21 0.45,5.23 3.05,3.05 4.26,-1.49 1.86,5.1 5.3,4.99 -1.11,3.82 -1.34,6.63 -6.99,7.21 -4.56,0.56 0.04,6.21 -2.17,5.44 3.9,5.59 0.22,3.21 3.4,2.59 -3.02,6.21 1.56,11.89 -5.53,6.35 -11.62,4.38 -8.37,1.16 -4.54,-0.79 -8.38,5.98 -6.87,1.79 -6.38,3.05 -5.34,6.48 -5.74,2.11 -5.13,-0.39 -1.76,-4.08 -4.64,-2.84 -11.66,-2.3 -3.44,-6.44 0.65,-2.58 -2.99,-7.86 0.92,-2.52 -5.47,-4.07 4.28,-5.68 -15.55,-1.97 -6.38,1.25 -3.77,-1.34 -10.87,4.03 2.59,6.24 -7.25,-0.11 -1.28,3.93 -7.44,2.31 -0.97,3.99 1.78,11 -3.01,3.35 -0.77,5.68 8.22,5.24 3.06,-2.73 4.5,0.01 3.64,-6.19 11.96,-6.91 3,2.18 3.87,-5.53 3.7,3.37 -1.76,4.52 2.39,5.29 -3.65,9.53 -6.53,6.96 -5.44,-5.04 -4.67,2.02 -9.05,0.07 -5.1,1.45 -3.68,-4.9 -4.6,-1.85 -7.7,-7.3 z"
       id="M15222"
       style="fill:#ffff80;fill-opacity:1;stroke:#000000;stroke-width:1.34391;stroke-dasharray:none;stroke-opacity:1" />
    <path
       d="m 563.54,442.7 -0.5,-8.39 -2.14,-2.02 -2.22,-8.89 -8.58,-5.32 -4.95,6.51 -9.14,-4.04 -1.38,-7.67 -3.6,-1.6 -2.24,-5.65 0.07,-6.51 -8.72,-1.78 -3.35,-3.96 -0.56,-4.43 2.37,-9.24 -4.13,-4.08 5.16,-7.27 8.23,-5.43 0.74,-4.38 4.99,-3.58 -0.03,-3.27 8.25,-2.9 3.4,-3.48 2.61,1.59 8.33,4.37 5,5.71 4.27,2.47 8.48,1.24 8.97,2.41 3.28,3.83 -3.82,3.67 0.45,11.29 5.26,0.26 2.91,3.32 -0.82,5.53 5.73,5.71 -0.75,6.62 2.37,3.65 6.86,4.19 -1.7,8.27 1.86,4.61 -8.11,5.27 -5.94,10.68 4.73,9.59 -7.19,5.97 -3.88,5.32 -5.16,3.67 -5.75,-1.05 -1.46,-6.39 1.08,-4.14 -3.91,-1.15 -1.89,-4.95 z"
       id="M15218"
       style="fill:#ffff80;fill-opacity:1;stroke:#000000;stroke-width:1.34391;stroke-dasharray:none;stroke-opacity:1" />
    <path
       d="m 133.66,732.71 6.84,-7.55 3.1,1.22 9,-1.7 4.24,-8.81 7.39,-2.48 4.3,-3.65 -3.62,-6.72 1.74,-2.12 7.7,7.3 4.6,1.85 3.68,4.9 5.1,-1.45 9.05,-0.07 4.67,-2.02 5.44,5.04 6.53,-6.96 3.65,-9.53 -2.39,-5.29 1.76,-4.52 -3.7,-3.37 -3.87,5.53 -3,-2.18 -11.96,6.91 -3.64,6.19 -4.5,-0.01 -3.06,2.73 -8.22,-5.24 0.77,-5.68 3.01,-3.35 -1.78,-11 0.97,-3.99 7.44,-2.31 1.28,-3.93 7.25,0.11 -2.59,-6.24 10.87,-4.03 3.77,1.34 6.38,-1.25 15.55,1.97 -4.28,5.68 5.47,4.07 -0.92,2.52 2.99,7.86 -0.65,2.58 3.44,6.44 11.66,2.3 4.64,2.84 1.76,4.08 5.13,0.39 5.74,-2.11 -5.26,11.94 0.27,4.02 -2.41,4.6 -5.11,5.75 -4.9,-2.68 -4.15,0.75 -7.49,6.33 -2.13,6.18 3.2,4.45 -3.81,8.06 2.71,4.49 -3.04,5.53 -6.03,0.64 -0.77,-7.14 -6.71,-2.15 -7.04,0.51 -5.76,-1.82 -6.15,6.45 -6.27,0.82 -5.3,3.31 -10.92,-2.81 -5.92,0.12 -5.57,3.04 -6.29,5.98 -4.68,11.49 -5.63,1.71 -0.13,-3.3 -6.37,-0.61 -1.73,-3.65 -4.18,-0.75 -4.79,-3.34 5.86,-6.97 -1.23,-8.01 5.31,-7.82 -0.2,-5.83 -5.46,-0.81 z"
       id="M15217"
       style="fill:#ffff80;fill-opacity:1;stroke:#000000;stroke-width:1.34391;stroke-dasharray:none;stroke-opacity:1" />
    <path
       d="m 375.33,512.53 -7.15,-9.42 0.73,-4.65 3.69,-2.13 2.13,5.61 3.92,2.75 z m -23.11,-23.22 3.11,0.16 -3.64,8.64 4.63,1.41 8.65,8.48 -1.62,2.53 -6.65,-0.7 -4.8,-2.57 -3.76,4.96 -11,0.2 3.39,-5.53 2.62,-7.01 -1.62,-5.63 5.29,-3.6 z"
       fill-rule="evenodd"
       id="M15504"
       style="fill:#ffff80;fill-opacity:1;stroke:#000000;stroke-width:1.34391;stroke-dasharray:none;stroke-opacity:1" />
    <path
       d="m 571.87,25.64 0.94,3.64 -3.77,13.15 -7.6,7.18 -1.11,-9.57 4.95,-7.23 z"
       id="M15586"
       style="fill:#ffff80;fill-opacity:1;stroke:#000000;stroke-width:1.34391;stroke-dasharray:none;stroke-opacity:1" />
    <path
       d="m 654.38,207.96 3.87,-3.43 4.03,-7.27 -3.73,-3.35 0.66,-8.38 2.56,-3.89 3.41,0.56 6.15,-4 6.53,1.17 1.61,-3.76 5.64,-1.75 3.68,-4 9.84,2.57 10.41,-0.3 3.42,-1.65 5.26,4.68 5.38,-0.68 2.04,1.86 -0.76,9.25 1.33,9.7 -3.34,2.21 -2.78,7.39 -0.86,6.56 4.98,0.02 0.03,4.89 2.18,4.01 -6.31,7.36 -6.1,1.43 -1.82,7.53 0.67,10.77 -5.27,5.43 1.73,2.05 -1.99,4.98 2.34,2.69 -1.82,4.6 -0.25,7.88 -2.68,1.98 -2.4,5.32 -5.18,-3.56 -1.34,-3.98 -7.53,0.08 -6.07,1.44 -2.32,-5.5 1.31,-17.9 -7.89,-9.95 -4.12,-2.94 3.01,-8.63 -4.45,-7.77 -1.52,-5.79 1.42,-5.3 -0.78,-3.7 -5.63,-2.68 z"
       id="M15581"
       style="fill:#ffff80;fill-opacity:1;stroke:#000000;stroke-width:1.34391;stroke-dasharray:none;stroke-opacity:1" />
    <path
       d="m 516.23,388.95 -18.37,3.79 -4.81,-9.97 -0.03,-3.21 5.2,-8.37 7.56,-4.99 4.94,1.77 5.81,-3.27 3.1,3.66 -5.16,7.27 4.13,4.08 z"
       id="M15361"
       style="fill:#ffff80;fill-opacity:1;stroke:#000000;stroke-width:1.34391;stroke-dasharray:none;stroke-opacity:1" />
    <path
       d="m 609.13,325.54 9.93,-2.16 7.38,5.56 4.39,-1.13 7.06,4.75 4.11,5.3 4.68,1.5 4.82,-2.74 2.77,1.44 6.13,-1.43 6.05,1.7 3.94,-4.91 7.36,0.08 4.28,-3.27 5.86,0.18 8.03,-3.61 4.28,-5.06 4.75,-1.08 4.17,1.48 9.99,-3.89 2.97,-3.85 5.61,-0.42 4.56,-3 3.48,6.62 5.45,5.21 1.94,4.55 -7.01,3.7 -2.85,4.66 -3.03,1.4 -2.96,4.79 -5.77,4.49 -7.87,8.94 -0.23,6.31 -2.69,5.26 -2.35,0.65 -6.51,8.58 -0.98,3.8 2.33,3.51 -6.67,3.42 -3,6.88 -4.32,0.71 -7.12,6.28 -6.76,1.8 0.84,5.47 -2,3.53 2.16,4.51 -1.28,3.96 4.88,4.34 2.84,9.16 -0.99,7.46 0.92,10.54 2.94,3.96 4.25,0.98 -1.93,6.69 -6.38,4.69 -8.53,-4.3 -8.03,-0.81 -2.22,2.32 -6.02,-1.75 -3.79,1 -3.59,3.44 -6.56,-6.8 -6.44,2.08 -3.71,-0.47 -5.02,2.65 -2.23,7.03 -0.54,11.67 -3.12,2.83 -10.22,-2.48 -2.11,-2.02 -5.9,4.31 -3.77,1.1 -3.06,-2.04 -14.09,4.5 -3.28,-0.26 -6.46,2.56 -2.71,-2.39 2.14,-5.33 6.7,-4.9 2.41,-3.67 5.32,-0.53 -3.82,-10.04 -3.98,-0.97 5.16,-3.67 3.88,-5.32 7.19,-5.97 -4.73,-9.59 5.94,-10.68 8.11,-5.27 -1.86,-4.61 1.7,-8.27 -6.86,-4.19 -2.37,-3.65 0.75,-6.62 -5.73,-5.71 0.82,-5.53 -2.91,-3.32 -5.26,-0.26 -0.45,-11.29 3.82,-3.67 -3.28,-3.83 1.74,-2.77 -0.98,-5.8 12.36,-6.07 1.04,-3.82 9.97,-13.52 z"
       id="M15385"
       style="fill:#ffff80;fill-opacity:1;stroke:#000000;stroke-width:1.34391;stroke-dasharray:none;stroke-opacity:1" />
    <path
       d="m 469.89,388.44 2.01,-3.47 -3.89,-1.83 1.56,-5.66 -7.1,0.33 0.18,-4.99 -5.54,-2.4 0.76,-4.13 -6.3,0.07 -1.06,5.24 -4.16,1.89 -9.96,1.3 -2.37,2.07 -4.82,-1.04 -2.52,-2.49 -9.87,-1.67 -2.83,5.17 -3.97,-1.53 -4.1,1.34 0.19,-6.1 2.61,-4.5 2.72,-10.87 3.08,-6.44 2.21,-8.14 6.76,-10.01 8.67,-9.61 11.42,-9.37 10.5,-7.16 11.83,-6.65 15.23,-10.42 15.26,-11.63 5.64,-5.91 23.02,-7.01 3.88,-0.19 20.49,-7.5 8.03,-6.12 2.16,1.63 4.16,10.57 3.29,8.48 5.96,4.06 -3.38,1.98 -0.72,7.65 5.07,3.57 1.17,2.81 -1.73,4.35 -4,1.07 -1.37,6.29 -3.19,0.33 -1.1,4.66 -12.29,-0.7 -2.17,1.8 -4.94,-0.9 -6.71,6.06 -2.23,3.73 2,2.67 5.48,1.83 0.35,4.65 -4.1,-0.71 -4.37,3.65 1.58,3.4 8.12,1.18 -1.64,7.91 4.97,5.88 -2.61,-1.59 -3.4,3.48 -8.25,2.9 0.03,3.27 -4.99,3.58 -0.74,4.38 -8.23,5.43 -3.1,-3.66 -5.81,3.27 -4.94,-1.77 -7.56,4.99 -5.2,8.37 0.03,3.21 -2.67,-0.52 -0.03,-4.99 -2.82,-2.13 -5.64,3.07 -2.87,3.59 -0.02,7.09 z"
       id="M15100"
       style="fill:#ffff80;fill-opacity:1;stroke:#000000;stroke-width:1.34391;stroke-dasharray:none;stroke-opacity:1" />
    <path
       d="m 434.02,376.86 2.41,4.66 -1.32,11.31 -4.65,-1.01 -4.38,1.91 -11.89,-2.25 -1.2,-1.81 -0.28,-3.54 2.32,-6.64 -1.05,-2.66 2.83,-5.17 9.87,1.67 2.52,2.49 z"
       id="M15342"
       style="fill:#ffff80;fill-opacity:1;stroke:#000000;stroke-width:1.34391;stroke-dasharray:none;stroke-opacity:1" />
    <path
       d="m 583.26,232.21 4.09,7.57 -10.2,8.54 5.3,4 4.69,-1.72 5.02,1.68 -2.85,6.93 -2.47,1.29 -1.96,5.26 -8.58,0.95 -4.07,-0.88 -5.17,3.86 -3.29,-8.48 1.92,-2.81 -4.57,-8.91 0.67,-3.16 6.53,-2.45 z"
       id="M15307"
       style="fill:#ffff80;fill-opacity:1;stroke:#000000;stroke-width:1.34391;stroke-dasharray:none;stroke-opacity:1" />
  </g>
</svg>
