<?xml version="1.0" encoding="UTF-8" standalone="no"?>
<svg
   version="1.2"
   width="375.02347"
   height="600"
   viewBox="0 0 375.02347 600"
   stroke-linecap="round"
   stroke-linejoin="round"
   id="svg1309"
   sodipodi:docname="nn.svg"
   inkscape:version="1.2 (dc2aedaf03, 2022-05-15)"
   xmlns:inkscape="http://www.inkscape.org/namespaces/inkscape"
   xmlns:sodipodi="http://sodipodi.sourceforge.net/DTD/sodipodi-0.dtd"
   xmlns="http://www.w3.org/2000/svg"
   xmlns:svg="http://www.w3.org/2000/svg">
  <defs
     id="defs1313" />
  <sodipodi:namedview
     id="namedview1311"
     pagecolor="#505050"
     bordercolor="#eeeeee"
     borderopacity="1"
     inkscape:showpageshadow="0"
     inkscape:pageopacity="0"
     inkscape:pagecheckerboard="0"
     inkscape:deskcolor="#505050"
     showgrid="false"
     inkscape:zoom="0.64765625"
     inkscape:cx="185.28347"
     inkscape:cy="299.54162"
     inkscape:window-width="1920"
     inkscape:window-height="1009"
     inkscape:window-x="-8"
     inkscape:window-y="-8"
     inkscape:window-maximized="1"
     inkscape:current-layer="svg1309" />
  <g
     id="nn"
     transform="matrix(0.4687011,0,0,0.4687011,0.03129636,0.03127739)"
     style="fill:#ffff80;fill-opacity:1;stroke:#000000;stroke-width:2.13356;stroke-dasharray:none;stroke-opacity:1">
    <path
       d="m 358.97,877.44 -0.74,12.19 2.98,7.12 -29.88,0.47 -20.52,1.53 -8.57,-0.57 -1.26,-8.15 -5.8,0.05 -21.28,-14.83 -2.64,-5.67 11.7,-8 1.65,-3.58 19.28,0.04 3.4,1.64 7.16,13.28 24.4,4.07 12.58,5.34 z"
       id="M20388"
       style="fill:#ffff80;fill-opacity:1;stroke:#000000;stroke-width:2.13356;stroke-dasharray:none;stroke-opacity:1" />
    <path
       d="m 590.75,742.89 -5.71,9.88 -21.82,-3.74 -8.47,-2.7 -10.19,2.45 -10.23,9.27 -10.26,2.19 -10.75,10.54 -8.34,-6.51 -10.74,-9.03 -2.85,0.39 -8.4,-10.55 2.03,-4.6 16.6,-1.16 0.96,-5.66 53.73,6.2 5.57,2.12 16.54,-1.22 z"
       id="M20363"
       style="fill:#ffff80;fill-opacity:1;stroke:#000000;stroke-width:2.13356;stroke-dasharray:none;stroke-opacity:1" />
    <path
       d="m 504.98,764.27 8.34,6.51 10.75,-10.54 10.26,-2.19 10.23,-9.27 10.19,-2.45 8.47,2.7 21.82,3.74 -0.15,4.32 -8.49,6.75 -1.7,10.92 -10,16.27 -9.4,10.37 -8.25,14.2 -5.32,5.4 -6.1,-3.91 -4.74,-7.65 -8.94,-6.98 -9.04,6.83 -3.28,13.04 -13.16,24.21 1.25,4.81 -10.12,10.98 -1.47,6.18 7.42,6.62 -11.76,-3.22 -2.94,-10.14 1.83,-15.65 2.9,-6.89 -2.01,-8.13 6.66,-9.05 -6.36,-6.58 1.84,-15.25 -3.8,-1.02 -2.96,-18.11 8.9,-16.23 z"
       id="M20362"
       style="fill:#ffff80;fill-opacity:1;stroke:#000000;stroke-width:2.13356;stroke-dasharray:none;stroke-opacity:1" />
    <path
       d="m 475.1,637.37 3.04,5.21 0.03,8.71 -18.35,1.76 -0.49,8.43 -7.13,-0.18 2.12,7.92 -11.26,11.43 -4.01,-3.94 -15.28,3.79 0.12,-8.95 -3.2,-15.4 3.89,-23.05 9.81,0.36 2.78,-7.14 -9.44,-5.87 3.72,-7.53 8.87,-4.49 13.43,-1.79 3.41,2.47 0.47,10.28 6.98,2.86 4.22,10.05 z"
       id="M20361"
       style="fill:#ffff80;fill-opacity:1;stroke:#000000;stroke-width:2.13356;stroke-dasharray:none;stroke-opacity:1" />
    <path
       d="m 475.1,637.37 -6.27,-5.07 -4.22,-10.05 -6.98,-2.86 -0.47,-10.28 -3.41,-2.47 1.92,-7.17 -2.86,-4.78 -0.22,-12.04 2.01,-7.64 -5.38,-4.9 4.83,-7.79 14.95,4.07 4.76,4.68 13.21,-5.14 19.48,0.58 6.95,-10.58 0.32,-5.66 6.83,-2.96 -1.48,-18.8 6.77,-10.78 4.39,-2.29 11.25,6.61 2.59,20.84 6.5,7.96 -9.29,18.09 0.27,25.06 -4.4,23.11 -8.22,13.98 -14.81,14.69 -10.16,3.64 -9.72,-1.72 -4.75,-10.45 z"
       id="M20350"
       style="fill:#ffff80;fill-opacity:1;stroke:#000000;stroke-width:2.13356;stroke-dasharray:none;stroke-opacity:1" />
    <path
       d="m 547.64,200 -7.69,2.99 -10.25,-0.6 -0.88,10.4 -5.23,6.01 -11.34,-1.25 -8.9,8.39 -11.87,-2.59 -12.1,-10.82 -18.48,-8.15 -0.21,-5.55 18.16,0.26 23.06,-13.88 5.85,-8.47 15.86,-8.04 4.12,-10.89 7.99,-2.41 3.73,-6.04 -9.83,-2.96 7.64,-10.45 3.1,14.06 -0.71,17.2 11.08,3.13 2.63,16.83 z"
       id="M20590"
       style="fill:#ffff80;fill-opacity:1;stroke:#000000;stroke-width:2.13356;stroke-dasharray:none;stroke-opacity:1" />
    <path
       d="m 446.76,440.47 19.86,8.18 2.03,15.16 -5.97,11.22 -8.27,5.57 0.88,7.9 -9.03,9.11 -3.66,-4.16 -15.29,11.11 -4.98,-6.67 -3.12,-16.42 6.41,-10.93 0.67,-7.87 -3.56,-4.58 -5.28,-13.94 4.59,-4.3 14.13,-1.77 z"
       id="M20349"
       style="fill:#ffff80;fill-opacity:1;stroke:#000000;stroke-width:2.13356;stroke-dasharray:none;stroke-opacity:1" />
    <path
       d="m 369.21,941.96 4.17,6.9 6.89,-3.02 8.9,4.65 7.42,-1.06 4.92,5.4 1.7,20.81 -8.7,15.94 -11.61,11.64 -7.35,-8.57 -10.1,1.62 -6.01,3.67 -10.93,-5.12 -4.97,4.77 -15.71,-14.75 -3.24,-11.28 8.85,-2.37 5.59,-10.59 11.45,3.01 5.35,-13.6 6.63,4.12 3.86,-11.64 z"
       id="M20386"
       style="fill:#ffff80;fill-opacity:1;stroke:#000000;stroke-width:2.13356;stroke-dasharray:none;stroke-opacity:1" />
    <path
       d="m 375.14,807.81 -2.81,10.39 -5.77,6.7 -10.44,-7.87 -4.52,10.48 -18.34,-3.88 -4.74,-4.71 19.38,-1.09 7.08,-8.23 -11.17,-3.89 3.54,-9.14 6.24,-2.65 20.57,1.89 z m -34.6,-19.02 -10.2,5.63 -12.47,-2.88 -5.52,9.68 -0.52,6.15 5.96,9.12 -5.56,1.01 -6.05,-4.94 -5.76,2.57 0.38,-6.56 -5.51,-9.13 2.39,-11.05 3.94,-4.11 10.46,-0.4 5.63,-9.02 20.22,14.03 z"
       fill-rule="evenodd"
       id="M20385"
       style="fill:#ffff80;fill-opacity:1;stroke:#000000;stroke-width:2.13356;stroke-dasharray:none;stroke-opacity:1" />
    <path
       d="m 348.69,306.33 -8.05,-3.67 0.31,-4.56 -7.72,-8.55 2.48,-11.19 -5.28,-10.18 0.38,-8.83 5.79,3.21 13.8,-10.62 8.23,-0.26 25.32,8.62 3.69,3.94 -5.81,11.08 -1.17,11.31 2.76,6.39 -0.58,9.29 -9.18,2.76 -2.93,-3.4 -10.07,-1.7 -5.91,6.23 z"
       id="M20588"
       style="fill:#ffff80;fill-opacity:1;stroke:#000000;stroke-width:2.13356;stroke-dasharray:none;stroke-opacity:1" />
    <path
       d="m 369.21,941.96 -2.89,0.53 -3.86,11.64 -6.63,-4.12 -5.35,13.6 -11.45,-3.01 -5.59,10.59 -8.85,2.37 -6.91,2.9 -10.43,-3.15 -1.73,-5.64 -12.65,-2.53 -6.67,9.18 -12.67,-3.5 -4.16,-8.17 2.26,-12.93 -1.24,-4.92 5.91,-7.43 -1.15,-6.68 2.97,-10.55 19.05,9.72 4.33,-1.49 11.56,7.76 18.76,-8.52 12.67,3.89 9.81,0.01 2.13,5.93 z"
       id="M20384"
       style="fill:#ffff80;fill-opacity:1;stroke:#000000;stroke-width:2.13356;stroke-dasharray:none;stroke-opacity:1" />
    <path
       d="m 375.14,807.81 -0.98,-12 -20.57,-1.89 -13.05,-5.13 -2.61,0.1 -20.22,-14.03 6.25,-5.54 6.72,-0.29 17.36,-15.55 15.76,9.95 13.68,-6.66 13.41,5.17 8.92,-8.48 1.53,-4.32 4.96,6.17 8.6,5.11 8.46,-2.84 7.08,-6.88 2.3,8.46 -4.78,11.31 -10.53,11.63 -9.33,-0.31 -8.45,14.44 z"
       id="M20383"
       style="fill:#ffff80;fill-opacity:1;stroke:#000000;stroke-width:2.13356;stroke-dasharray:none;stroke-opacity:1" />
    <path
       d="m 317.71,774.86 -5.63,9.02 -10.46,0.4 -3.81,-8.28 -9.52,-3.03 -3.2,-6.59 1.23,-7.11 8.39,-7.31 2.87,-6.72 5.71,-2.38 5.21,-7.71 5.6,-13.3 13.55,-11.66 -3.11,-4.47 4.21,-6.97 4.98,-0.06 12.82,-12.77 0.41,-5.94 6.21,-1.58 5.45,6.77 11.49,6.87 11.95,-7.16 3.38,0.92 -4.02,8.64 -1.46,12.35 -3.15,4.7 15.72,3.92 10.12,-1.07 -0.29,7.44 4.8,1.42 1.63,17.58 -1.29,6.47 -6.16,1.89 -1.53,4.32 -8.92,8.48 -13.41,-5.17 -13.68,6.66 -15.76,-9.95 -17.36,15.55 -6.72,0.29 z"
       id="M20382"
       style="fill:#ffff80;fill-opacity:1;stroke:#000000;stroke-width:2.13356;stroke-dasharray:none;stroke-opacity:1" />
    <path
       d="m 660.48,101.4 4.18,6.75 -2.99,13.57 7.95,2.18 8.11,-3.58 18.18,4.92 -8.66,10.89 4.62,8.88 -9.02,5.59 -2.53,9.71 -5.6,-2.44 -4.88,3.88 -11.41,3.32 -2.39,-7 -23.71,-5.38 -6.6,-5.02 -8.34,12.32 -7.81,2.39 -4.86,-7.79 1.36,-11.95 -7.46,-0.19 3.56,-7.57 -3.68,-8.85 6.85,-1.37 5.83,-16.02 8.92,2.45 13.55,-2.19 8.71,-5.37 5.36,0.55 8.96,-9.16 z"
       id="M20562"
       style="fill:#ffff80;fill-opacity:1;stroke:#000000;stroke-width:2.13356;stroke-dasharray:none;stroke-opacity:1" />
    <path
       d="m 609.58,162.38 7.81,-2.39 8.34,-12.32 6.6,5.02 23.71,5.38 2.39,7 11.41,-3.32 4.88,-3.88 5.6,2.44 2.53,-9.71 9.02,-5.59 14.73,9.82 18.61,-2.22 6.13,2.53 8.61,16.29 -4.08,11.1 -0.52,11.49 5.78,6.97 3,14.57 -11.47,2.51 -6,9.6 -9.49,-5.08 -6.25,8.79 -4.73,-4.09 -17.65,2.31 -13.34,8.11 -1.18,10.79 9.27,7.55 -11.6,-0.92 -8.07,-5.54 -15.6,-1.33 -1.77,-6.3 -22.7,-6.7 -12.9,-2.32 -7.68,-15.28 1.2,-10.34 -3.06,-3.31 5.01,-15.15 -5.99,-8.35 10.03,-12.04 z"
       id="M20561"
       style="fill:#ffff80;fill-opacity:1;stroke:#000000;stroke-width:2.13356;stroke-dasharray:none;stroke-opacity:1" />
    <path
       d="m 707.54,605.52 9.05,10.5 4.15,12.19 12.14,2.56 6.74,-1.4 6.95,17.05 -0.69,7.52 -8.15,5.19 -2.8,-2.62 -14.72,-2.28 -9.92,1.27 -10.2,-3.39 -10.76,-8.02 -8.05,2.54 -11.19,-2.85 -3.64,7.18 -6.39,-3.05 -6.6,1.25 -5.45,-12.04 -2.7,-0.5 -7.5,12.46 -6.2,2.66 -9.98,10.94 -13,10 -12.21,5.77 -8.14,-2.01 0.55,8.87 -7.72,4.99 -4.38,-10.01 -6.34,-5.21 -0.11,-11.36 -3.51,-4.65 -1.32,-11.66 10.02,-9.42 5.95,0.89 14.16,-13.1 22.71,-12.05 7.89,-7.52 8.69,1.38 13.37,-2.57 6.57,-7.26 7.49,7.74 17.25,0.39 20.34,-2.27 z"
       id="M20309"
       style="fill:#ffff80;fill-opacity:1;stroke:#000000;stroke-width:2.13356;stroke-dasharray:none;stroke-opacity:1" />
    <path
       d="m 710.29,655.5 9.92,-1.27 14.72,2.28 2.8,2.62 -0.16,3.71 6.97,12.1 0.77,13.39 -7.16,14.86 -24.23,-4.06 -13.96,-4.25 -1.75,-3.86 -9.54,-0.48 -7.67,-5.92 -14.39,-3.65 6.37,-8.71 4.84,1.09 10.26,-3.54 10.14,1.01 12.67,-8.84 z"
       id="M20307"
       style="fill:#ffff80;fill-opacity:1;stroke:#000000;stroke-width:2.13356;stroke-dasharray:none;stroke-opacity:1" />
    <path
       d="m 666.61,680.97 14.39,3.65 7.67,5.92 9.54,0.48 1.75,3.86 13.96,4.25 24.23,4.06 17.06,11.35 10.19,0.28 5.05,13.84 -16.59,-0.96 -6.9,3.99 -12.91,-3.92 -13.02,1.44 -5.37,-2.73 -13.85,2.13 -5.13,-2.02 -2.21,-8.13 -10.78,-8.36 -13.79,-3.89 -11.03,-9.7 0.51,-7.11 z"
       id="M20306"
       style="fill:#ffff80;fill-opacity:1;stroke:#000000;stroke-width:2.13356;stroke-dasharray:none;stroke-opacity:1" />
    <path
       d="m 658.87,696.51 11.03,9.7 13.79,3.89 10.78,8.36 2.21,8.13 -19.77,6.03 -3.47,6.57 -5.67,-8.63 -4.09,2.38 4.31,12.54 -11.86,6.61 2.2,22.31 4.26,10.31 -4.46,10.42 -10.23,0.18 -9.85,-4.89 -5.53,-10.12 5.59,-14.35 -6.3,-8.94 -10.71,-5.47 -30.35,-8.65 2.3,-8.17 -5.43,-14.01 -1.83,-9.97 13.77,0.61 11.89,-5.39 21.62,0.15 11.2,-12.53 1.64,-7.45 5.99,2.38 z"
       id="M20305"
       style="fill:#ffff80;fill-opacity:1;stroke:#000000;stroke-width:2.13356;stroke-dasharray:none;stroke-opacity:1" />
    <path
       d="m 696.68,726.59 5.13,2.02 13.85,-2.13 5.37,2.73 13.02,-1.44 12.91,3.92 6.9,-3.99 16.59,0.96 13.47,4.5 -0.62,9.8 7.99,9.53 3.13,8.7 4.58,4.21 -0.42,7.03 -8.13,14.66 -9.12,-1.15 -12.49,10.99 -5.56,16.74 -11.33,-4.2 -12.25,4.05 -13.26,-2.53 -2.25,-3.32 0.26,-14.79 -8.36,-12.96 -8.9,4.76 -12.88,-5.26 -4.8,2.94 -9.02,0.16 -13.39,-3.01 -4.51,5.2 -4.26,-10.31 -2.2,-22.31 11.86,-6.61 -4.31,-12.54 4.09,-2.38 5.67,8.63 3.47,-6.57 z"
       id="M20304"
       style="fill:#ffff80;fill-opacity:1;stroke:#000000;stroke-width:2.13356;stroke-dasharray:none;stroke-opacity:1" />
    <path
       d="m 581.11,690.3 7.72,-4.99 -0.55,-8.87 8.14,2.01 12.21,-5.77 13,-10 9.98,-10.94 6.2,-2.66 7.5,-12.46 2.7,0.5 5.45,12.04 6.6,-1.25 6.39,3.05 3.64,-7.18 11.19,2.85 8.05,-2.54 10.76,8.02 10.2,3.39 0.6,6.48 -12.67,8.84 -10.14,-1.01 -10.26,3.54 -4.84,-1.09 -6.37,8.71 -7.23,8.43 -0.51,7.11 -6.97,-8 -5.99,-2.38 -1.64,7.45 -11.2,12.53 -21.62,-0.15 -11.89,5.39 -13.77,-0.61 z"
       id="M20303"
       style="fill:#ffff80;fill-opacity:1;stroke:#000000;stroke-width:2.13356;stroke-dasharray:none;stroke-opacity:1" />
    <path
       d="m 610.65,232.94 12.9,2.32 22.7,6.7 1.77,6.3 15.6,1.33 8.07,5.54 11.6,0.92 -5.33,10.8 -9.48,1.86 -10.18,4.98 -9.59,-2.01 -7.93,6.48 0.86,5.89 -3.16,8.87 -7.56,2.24 -26.82,-15.79 -3.52,-7.7 -9.94,-0.09 -13.5,-2.78 -4.43,-9.61 -3.96,-14.35 5.59,-2.94 3.88,-7.28 4.16,1.17 7.11,-6.45 15.13,5.75 z"
       id="M20543"
       style="fill:#ffff80;fill-opacity:1;stroke:#000000;stroke-width:2.13356;stroke-dasharray:none;stroke-opacity:1" />
    <path
       d="m 578.22,234.62 -3.88,7.28 -5.59,2.94 -8.6,-4.16 -18.62,0.31 -0.01,-10.86 3.78,-8.24 11.86,-4.3 11.46,-2.85 7.05,6.55 -1.76,5.79 z"
       id="M20541"
       style="fill:#ffff80;fill-opacity:1;stroke:#000000;stroke-width:2.13356;stroke-dasharray:none;stroke-opacity:1" />
    <path
       d="m 537.27,135.95 -7.64,10.45 9.83,2.96 -3.73,6.04 -7.99,2.41 -4.12,10.89 -15.86,8.04 -5.85,8.47 -23.06,13.88 -18.16,-0.26 -9.96,-10.38 -1.33,-8.49 2.68,-6.3 -14.9,2.54 -1.8,-14.99 2.9,-10.85 -6.5,-9.81 0.14,-3.9 14.61,-10.34 9.48,-0.19 17.5,4.49 8.47,-5.29 10.03,-1.32 9.85,-10.32 9.23,2.91 11.26,-0.82 10.75,3.44 3.7,13.83 z m -37.35,0.96 -2.34,6.33 4.47,4.54 11.86,2 2.95,-12.45 z"
       fill-rule="evenodd"
       id="M20583"
       style="fill:#ffff80;fill-opacity:1;stroke:#000000;stroke-width:2.13356;stroke-dasharray:none;stroke-opacity:1" />
    <path
       d="m 514.12,645.78 14.81,-14.69 8.22,-13.98 4.4,-23.11 -0.27,-25.06 9.29,-18.09 -6.5,-7.96 -2.59,-20.84 0.14,-13.71 4.61,-11.19 4.04,2.6 -2.29,7.21 16.67,1.37 3.63,-9.56 5.81,2.87 -2.1,6.32 2.75,10.61 -1.98,21.25 -4.2,5.47 -12.56,10.23 -11.29,27.94 -4.97,24.47 1.37,10.57 10.77,15.62 0.05,11.36 -8.5,14.68 -6.35,2.48 -4.6,-3.4 -11.65,-2.61 0.52,-4.11 z"
       id="M20324"
       style="fill:#ffff80;fill-opacity:1;stroke:#000000;stroke-width:2.13356;stroke-dasharray:none;stroke-opacity:1" />
    <path
       d="m 675.13,438.38 -6.89,7.89 4.01,26.69 4.69,10.35 -1.84,8.23 18.32,2.32 0.11,11.84 12.85,12.63 2.58,7.33 -12.35,1.72 -8.85,-4.2 -9.76,1.59 -6.18,-9.92 -7.27,0.88 -8.97,-4.56 -1.5,-8.21 -1.71,-13.47 3.73,-11.93 -13.71,-2.74 11.22,-23.15 6.12,-3.22 2.22,-11.7 5.79,-3.41 z"
       id="M20323"
       style="fill:#ffff80;fill-opacity:1;stroke:#000000;stroke-width:2.13356;stroke-dasharray:none;stroke-opacity:1" />
    <path
       d="m 708.96,525.66 -2.58,-7.33 -12.85,-12.63 -0.11,-11.84 -18.32,-2.32 1.84,-8.23 -4.69,-10.35 -4.01,-26.69 6.89,-7.89 11.7,2.73 8.13,-10.47 19.87,-4.29 9.98,0.49 10.6,5.4 5.94,-1.21 5.35,4.52 3.13,11.02 -1.43,11.3 4.25,7.05 -4,11.5 1.82,19.71 -3.06,6.93 3.18,7.96 -4.88,6 -8.07,4.26 -10.21,1.96 -6.87,5.08 z"
       id="M20321"
       style="fill:#ffff80;fill-opacity:1;stroke:#000000;stroke-width:2.13356;stroke-dasharray:none;stroke-opacity:1" />
    <path
       d="m 660.48,101.4 -3.8,-6.48 -8.96,9.16 -5.36,-0.55 -11.82,-10.31 -6.81,-8.03 -1.71,-9.21 -4.2,-6.57 2.09,-10.55 11.24,-9.33 11.35,-12.42 12.92,-0.22 4.99,-2.07 13.38,-3.42 -0.33,7.24 -10.05,7.02 -4.07,11.19 -5.27,7.4 0.2,9.8 7.94,-0.22 9.63,11.4 -7.47,13.53 z"
       id="M20563"
       style="fill:#ffff80;fill-opacity:1;stroke:#000000;stroke-width:2.13356;stroke-dasharray:none;stroke-opacity:1" />
    <path
       d="m 382.9,1003.22 11.61,-11.64 8.7,-15.94 -1.7,-20.81 4.93,-5.37 -0.36,-11.62 2.17,-5.34 7.97,-3.11 8.89,6.41 1.34,10.38 3.42,4.47 3.62,12.46 5.61,5.58 1.94,13.78 -2.39,8.51 5.61,10.24 8.52,5.28 2.66,7.8 11.85,7.18 -3.21,9.68 7.51,8.38 -11.91,15.76 4.52,2.48 -3.48,13.11 10.06,3.77 -0.61,23.79 -8.97,0.68 -5.34,3.92 -6.26,-0.88 -7.47,-12.9 -7.17,-1.02 -6.41,-7.64 -7.24,3.21 -11.81,12.82 -6.12,3.43 -5.03,-8.68 -5.67,-3.07 -9.89,-10.02 -6.26,-2.87 12.3,-38.08 3.12,-8.95 -7.76,-6.18 -6.44,-10.31 z"
       id="M20417"
       style="fill:#ffff80;fill-opacity:1;stroke:#000000;stroke-width:2.13356;stroke-dasharray:none;stroke-opacity:1" />
    <path
       d="m 388.83,1037.35 -12.3,38.08 -1.92,4.11 -6.59,-4.67 -7.98,-11.24 -4.96,3.06 -10.51,-2.69 -10.4,3.37 -12.98,-14.16 -8.47,-3.63 5.49,-8.46 4.54,-15 4.43,-5.17 7.92,-1.53 3.89,-2.89 8.72,6.07 10.02,-1.85 10.15,-5.37 9.81,10.92 9.6,6.12 z"
       id="M20416"
       style="fill:#ffff80;fill-opacity:1;stroke:#000000;stroke-width:2.13356;stroke-dasharray:none;stroke-opacity:1" />
    <path
       d="m 312.72,1049.58 8.47,3.63 12.98,14.16 10.4,-3.37 10.51,2.69 4.96,-3.06 7.98,11.24 6.59,4.67 -0.01,4.61 -14.51,22.66 1.18,4.41 -9.67,9.99 -3.66,-3.87 -12.47,-4.09 -2.9,-4.18 1.26,-9.96 -16.26,-6.51 -5.63,-6.36 3.38,-13.72 -11.32,-1.34 0.13,-8.56 8.37,-12.75 z"
       id="M20415"
       style="fill:#ffff80;fill-opacity:1;stroke:#000000;stroke-width:2.13356;stroke-dasharray:none;stroke-opacity:1" />
    <path
       d="m 293.13,1197.86 -0.59,3.13 -5.39,-10.4 6.58,-11.85 -6.35,-4.4 -1.76,-7.21 -11.13,-13.55 -1,-7.75 -0.63,-6.33 4.81,-4.85 0.13,-9.31 13.02,8.28 6.03,1.54 9.35,6.73 2.26,6.33 9.39,1.46 2.15,8.7 12.77,11.4 7,-2.98 -1.08,11.38 -15.89,15.55 -6.17,-1.35 -9.41,2.57 -8.74,-2.23 z"
       id="M20414"
       style="fill:#ffff80;fill-opacity:1;stroke:#000000;stroke-width:2.13356;stroke-dasharray:none;stroke-opacity:1" />
    <path
       d="m 292.54,1200.99 0.59,-3.13 9.54,3.64 1.61,10.77 8.75,1.09 12.12,9.18 -2.63,15.72 -7.32,6.84 1.37,8.19 -6.97,12 -7.54,-3.07 -8.05,1.6 -5.99,4.86 -7.23,-1.16 -11.91,6.91 -18.47,-0.86 0.17,-7.99 -13.95,-0.28 -11.8,-2.24 -0.3,-5.98 4.89,-4.6 10.42,-2.6 4.65,-6.6 6.14,-1.24 2.34,-13.18 13.75,-15.42 3.1,2.53 8.43,-6.69 12.65,-4.23 z"
       id="M20413"
       style="fill:#ffff80;fill-opacity:1;stroke:#000000;stroke-width:2.13356;stroke-dasharray:none;stroke-opacity:1" />
    <path
       d="m 216.52,1256.21 -14.93,-2.12 -9.87,5.01 4.18,-9.87 -6.99,-16.49 -0.04,-7.28 9.17,-20.85 11.86,3.4 4.1,3.44 13.22,-0.85 4.57,7.4 -4.03,13.36 -1.31,16.92 -5.89,8.43 z"
       id="M20412"
       style="fill:#ffff80;fill-opacity:1;stroke:#000000;stroke-width:2.13356;stroke-dasharray:none;stroke-opacity:1" />
    <path
       d="m 277.8,1125.34 -0.13,9.31 -4.81,4.85 0.63,6.33 -4.08,8.51 -9.07,8.26 -8.17,12.89 -9.11,-5.81 -6.05,-8.95 -4.17,-9.69 -0.58,-8.77 13.1,-8 6.65,-8.48 15.17,-4.33 z"
       id="M20411"
       style="fill:#ffff80;fill-opacity:1;stroke:#000000;stroke-width:2.13356;stroke-dasharray:none;stroke-opacity:1" />
    <path
       d="m 188.91,1232.74 6.99,16.49 -4.18,9.87 -10.82,13.01 -10.06,-1.99 -13.4,4.02 -6.55,4.65 -7.67,0.21 0.47,-14.09 -9.09,-11.01 -6.9,-5.21 -1.12,-11.64 4.22,-8.77 8.38,-7.38 -7.42,-8.03 1.42,-10.3 8.41,-5.1 9.19,3.4 6.95,-0.75 16.29,9.09 -2.94,4.49 -1.38,19.42 5.37,0.29 5.84,-4.89 z"
       id="M20410"
       style="fill:#ffff80;fill-opacity:1;stroke:#000000;stroke-width:2.13356;stroke-dasharray:none;stroke-opacity:1" />
    <path
       d="m 198.04,1204.61 -9.17,20.85 0.04,7.28 -8,-4.22 -5.84,4.89 -5.37,-0.29 1.38,-19.42 2.94,-4.49 -16.29,-9.09 -6.95,0.75 -9.19,-3.4 14.99,-9.73 0.57,-16.24 -2.56,-7.73 0.2,-9.35 -11.54,-7.58 7.19,-2.42 15.67,1.3 8.62,-5.05 4.33,5.22 0.91,15.18 5.57,7.52 14.11,10.94 5.99,0.84 -0.63,13.96 z"
       id="M20409"
       style="fill:#ffff80;fill-opacity:1;stroke:#000000;stroke-width:2.13356;stroke-dasharray:none;stroke-opacity:1" />
    <path
       d="m 252.01,1125.79 -6.65,8.48 -13.1,8 0.58,8.77 4.17,9.69 -4.68,7.05 -7.15,-0.33 -2.45,6.81 -17.09,6.11 -5.99,-0.84 -14.11,-10.94 -5.57,-7.52 -0.91,-15.18 -4.33,-5.22 -0.93,-8.08 -5.69,-0.83 -3.77,-13.12 -12.51,-11.14 20.58,-21.12 -2.85,-16.1 4.07,-5.94 6.8,-1.23 0.12,-7.01 5.62,-7.72 11.64,0.29 5.52,-3.23 2.02,-9.79 3.58,-2.46 5.69,1.03 7.52,21.65 13.26,4.38 -0.31,9.51 -6.39,3.95 1.15,6.65 7.7,16.99 4.54,4.01 5.59,-2.61 -1.64,13.66 z"
       id="M20407"
       style="fill:#ffff80;fill-opacity:1;stroke:#000000;stroke-width:2.13356;stroke-dasharray:none;stroke-opacity:1" />
    <path
       d="m 273.49,1145.83 1,7.75 11.13,13.55 1.76,7.21 6.35,4.4 -6.58,11.85 5.39,10.4 -1.64,4.06 -12.65,4.23 -8.43,6.69 -3.1,-2.53 -13.75,15.42 -2.34,13.18 -6.14,1.24 -4.65,6.6 -10.42,2.6 -4.89,4.6 -5.71,1.3 -2.3,-2.17 4.04,0.5 5.89,-8.43 1.31,-16.92 4.03,-13.36 -4.57,-7.4 -13.22,0.85 -4.1,-3.44 -11.86,-3.4 6.97,-10.28 0.63,-13.96 17.09,-6.11 2.45,-6.81 7.15,0.33 4.68,-7.05 6.05,8.95 9.11,5.81 8.17,-12.89 9.07,-8.26 z"
       id="M20404"
       style="fill:#ffff80;fill-opacity:1;stroke:#000000;stroke-width:2.13356;stroke-dasharray:none;stroke-opacity:1" />
    <path
       d="m 335.1,1019.42 -7.92,1.53 -4.43,5.17 -4.54,15 -5.49,8.46 -0.22,0.29 -5.84,-2.98 -27.47,-22.34 -0.8,-10.88 3.55,-8.17 -4.51,-5.14 4.51,-9.84 6.31,7.1 21.36,3.52 16.01,9.8 z"
       id="M20403"
       style="fill:#ffff80;fill-opacity:1;stroke:#000000;stroke-width:2.13356;stroke-dasharray:none;stroke-opacity:1" />
    <path
       d="m 324.59,973.56 3.24,11.28 15.71,14.75 4.97,-4.77 10.93,5.12 6.01,-3.67 10.1,-1.62 7.35,8.57 -5.15,8.69 6.44,10.31 7.76,6.18 -3.12,8.95 -1.54,-4.93 -9.6,-6.12 -9.81,-10.92 -10.15,5.37 -10.02,1.85 -8.72,-6.07 -3.89,2.89 -9.48,-8.48 -16.01,-9.8 -21.36,-3.52 -6.31,-7.1 -3.58,-15.1 -4.83,-4.6 12.67,3.5 6.67,-9.18 12.65,2.53 1.73,5.64 10.43,3.15 z"
       id="M20402"
       style="fill:#ffff80;fill-opacity:1;stroke:#000000;stroke-width:2.13356;stroke-dasharray:none;stroke-opacity:1" />
    <path
       d="m 691.87,145.01 -4.62,-8.88 8.66,-10.89 -18.18,-4.92 -8.11,3.58 -7.95,-2.18 2.99,-13.57 -4.18,-6.75 3.89,-2.64 7.47,-13.53 -9.63,-11.4 -7.94,0.22 -0.2,-9.8 5.27,-7.4 4.07,-11.19 10.05,-7.02 0.33,-7.24 -13.38,3.42 1.21,-13.06 8.67,-5.99 4.83,-14.77 9.4,4.88 9.05,-1.91 7.54,1.67 5.52,17.42 6,6.88 1.06,7.03 -2.06,31.82 4.22,4.58 -1.53,7.03 3.9,5.89 9.41,-1.02 4.6,3.16 -1.8,8.61 3.16,5.09 15.56,7.23 3.61,4.5 10.8,0.56 9.44,8.77 -1.81,15.85 -5.27,5.78 8.54,10.65 -6.54,14.89 -7.06,3.06 -1.22,7 10.42,5.5 4.48,19.26 -11.65,5.34 -18.76,5.04 -3,-14.57 -5.78,-6.97 0.52,-11.49 4.08,-11.1 -8.61,-16.29 -6.13,-2.53 -18.61,2.22 z"
       id="M20602"
       style="fill:#ffff80;fill-opacity:1;stroke:#000000;stroke-width:2.13356;stroke-dasharray:none;stroke-opacity:1" />
    <path
       d="m 330.81,259.35 -0.38,8.83 -7.46,6.17 -7.6,0.66 -8.13,4.38 -0.29,9 -24.8,-2.29 -3.72,-8.38 -7.61,-4.7 -2.64,-5.1 -16.77,-5.55 -5.02,-5.14 -0.49,-15.02 -5.46,-13.41 0.51,-15.43 4.7,-9.67 -4.25,-7.39 7.39,-11.69 30.71,5.87 2.56,3.71 14.01,6.92 19.48,5.37 1.83,4.27 11,-5.72 20.18,1.86 -4.4,7.51 -5.83,17.84 -4.76,4.38 1.39,8.4 z"
       id="M20485"
       style="fill:#ffff80;fill-opacity:1;stroke:#000000;stroke-width:2.13356;stroke-dasharray:none;stroke-opacity:1" />
    <path
       d="m 307.76,414.4 3.44,34.45 -1.69,8.84 -10.71,-10.22 -9.74,7.41 -6.13,-5.57 -14.51,-2.53 -5.05,1.87 -8.61,-3.6 -2.8,3.8 -8.63,-6.92 -0.74,-6.33 14.81,-2.65 7.24,-4.76 8.06,-1.72 0.72,-10.37 -2.38,-6.18 6.88,-3.24 1.88,7.27 13.75,-3.01 6.97,6.09 z"
       id="M20482"
       style="fill:#ffff80;fill-opacity:1;stroke:#000000;stroke-width:2.13356;stroke-dasharray:none;stroke-opacity:1" />
    <path
       d="m 309.51,457.69 1.69,-8.84 -3.44,-34.45 4.14,1.35 9.37,-6.72 -3.43,-18.07 6.13,-0.99 16.01,3.21 3.73,7.3 -2.3,7.4 -13.3,7.62 4.52,11.49 6.4,8.04 -6.68,3.25 -6.4,11.87 3.81,13.07 -11.38,5.13 z"
       id="M20481"
       style="fill:#ffff80;fill-opacity:1;stroke:#000000;stroke-width:2.13356;stroke-dasharray:none;stroke-opacity:1" />
    <path
       d="m 348.56,206.9 -20.18,-1.86 -11,5.72 -1.83,-4.27 -19.48,-5.37 -14.01,-6.92 -2.56,-3.71 -30.71,-5.87 15.04,-8.11 1.01,-5.25 15.08,-8.16 6.21,-6.9 0.04,-6.91 8,-11.85 6.57,-6.49 -0.53,-4.01 12.38,-16.71 -5.39,-3.24 -3.74,-9.17 5.51,-8.42 -4.5,-7.2 6.32,-2.08 10.51,4.16 14.95,-7 6.99,3.95 8.61,0.88 8.46,7.71 4.08,-6.15 12.42,0.09 12.46,4.68 1.09,7.66 8.75,1.31 0.32,9.33 -8.49,12.51 1.96,12.83 -9.38,11.15 -8.06,10.5 -12.14,21.49 0.14,7.05 -8.49,10.96 0.24,4.93 z"
       id="M20486"
       style="fill:#ffff80;fill-opacity:1;stroke:#000000;stroke-width:2.13356;stroke-dasharray:none;stroke-opacity:1" />
    <path
       d="m 284.61,858 -1.65,3.58 -11.7,8 -10.47,-4.63 -8.92,-11.04 -11.29,-0.41 -9.82,-6.91 -20.33,1.72 -22.08,21.15 -4.12,-4.02 -6.86,1.46 -7.43,-2.39 -9.92,1.47 -1.1,-5.73 2.06,-19.01 -7.49,11.33 -4.4,-3.18 -5.95,-10.84 -2.48,-12.93 -27.5,-12.36 -10.95,-1.3 -3.16,-4.63 -13.27,-10.51 3.25,-4.53 1.29,-10.86 12.06,-17.09 7.52,0.62 7.72,-15.26 6.61,-7.5 -0.46,-7.33 17.65,-8.94 8.8,-7.57 5.2,-13.54 7.59,5.25 11.41,-5.83 11.68,5.4 8.12,6 7.53,-4.42 12.58,4.65 -3.43,10.06 1.84,6.04 -2.72,12.42 9.08,9.33 4.24,9.52 7.46,5.89 11.52,12.8 1.07,5.04 7.02,3.19 5.74,-8.91 13.27,-7.03 3.01,8.32 -1.15,11.04 5.59,7.73 0.87,6.28 -5.42,6.26 -1.2,13.37 3.24,1.61 -0.84,11.83 4.27,1.63 4.45,10.87 z"
       id="M20432"
       style="fill:#ffff80;fill-opacity:1;stroke:#000000;stroke-width:2.13356;stroke-dasharray:none;stroke-opacity:1" />
    <path
       d="m 278.12,920.14 -2.97,10.55 1.15,6.68 -5.91,7.43 1.24,4.92 -2.26,12.93 -13.49,16.68 -9.79,2.81 -3.74,5.42 -13.49,4.47 -1.62,-4.94 -14.55,-6.58 -5.29,-10.28 -13.17,-10.4 -10.83,8.16 -10.55,1.98 -9.8,-7.01 -3.09,-8.61 -11.79,-6.7 -11.88,-0.21 -6.5,-6.5 -10.79,-2.58 -14.44,5.74 -6.91,-4.24 0.84,-5.38 -7.14,-6.45 0.9,-7.63 25.32,5.32 11.9,-7.12 -0.51,-4.52 12.6,-8.85 7.11,2.27 -0.22,8.32 3.46,8.96 4.26,2.9 10.1,-0.94 14.59,-3.81 3.57,-8.19 -4.93,-3.92 6.59,-13.97 16.58,4.58 4.29,11.36 20.6,7 4.74,3.48 9.8,-7.92 -0.57,-6.88 12.84,-17.52 6.84,-1.16 12.44,-13.23 2.79,18.23 -5.41,7.53 0.52,11.12 z"
       id="M20430"
       style="fill:#ffff80;fill-opacity:1;stroke:#000000;stroke-width:2.13356;stroke-dasharray:none;stroke-opacity:1" />
    <path
       d="m 85.78,796.82 13.27,10.51 3.16,4.63 10.95,1.3 27.5,12.36 2.48,12.93 5.95,10.84 4.4,3.18 7.49,-11.33 -2.06,19.01 1.1,5.73 9.92,-1.47 -1.54,4.35 -7.71,2.05 -5.21,-4.62 -5.21,4.67 4.91,12.16 -15.02,6.38 -4.3,6.97 -17.98,-1.96 5.76,16.34 5.32,3.23 0.51,4.52 -11.9,7.12 -25.32,-5.32 -1.36,-5.72 -11.11,-13.26 -3.37,-12.26 -10.95,1.98 -9.15,-11 -13.57,-0.72 -4.61,-16.13 -5.97,-1.89 -10.48,2.3 -5.05,-2.33 -9.84,1.75 -5.79,-9.26 3.45,-19.88 2.21,-2.46 11.7,1.03 6.11,-12.49 -0.24,-11.24 7.71,-10.88 18.98,-6.25 13.09,-2.55 6.25,8.47 5.63,2.49 z"
       id="M20429"
       style="fill:#ffff80;fill-opacity:1;stroke:#000000;stroke-width:2.13356;stroke-dasharray:none;stroke-opacity:1" />
    <path
       d="m 269.42,774.22 -13.27,7.03 -5.74,8.91 -7.02,-3.19 -1.07,-5.04 -11.52,-12.8 -7.46,-5.89 -4.24,-9.52 -9.08,-9.33 2.72,-12.42 -1.84,-6.04 3.43,-10.06 9.02,-11.35 1.7,-5.42 8.05,-9.56 -0.77,-15.17 10.69,-11.87 15.42,9.33 8.34,-3.38 5.62,16.19 4.86,0.26 -2.77,11.52 -2.12,45.27 -6.36,9.2 3.53,16.83 z"
       id="M20425"
       style="fill:#ffff80;fill-opacity:1;stroke:#000000;stroke-width:2.13356;stroke-dasharray:none;stroke-opacity:1" />
    <path
       d="m 242.59,435.6 0.74,6.33 8.63,6.92 2.8,-3.8 8.61,3.6 5.05,-1.87 14.51,2.53 6.13,5.57 9.74,-7.41 10.71,10.22 8.87,10.66 11.38,-5.13 -3.81,-13.07 6.4,-11.87 6.68,-3.25 2.33,6.04 -1.41,7.7 5.09,4.75 8.29,0.73 4.13,-7.5 8.69,-6.77 10.62,19.44 -6.33,0.5 -6.51,8.38 -7.18,3.42 0.83,13.06 -5.47,11.42 5.91,4.94 6.32,-0.37 4.85,8.91 -3.19,4.23 -15.74,7.78 -8.37,19.69 -6.48,9.35 -18.57,2.45 -10.7,3.88 -11.09,-1.42 -7.95,-4.83 -21.83,3.58 -2.77,-5.85 4.92,-7.15 -0.59,-11.16 -29.45,0.33 -2.41,-4.53 -8.3,-4.18 -2.44,-12.2 3.8,-11.08 -0.63,-14.84 -14.66,-16.08 4.52,-8.23 -1.62,-5.78 4.73,-9.31 -1.72,-8.65 8.77,-10.29 11.25,4.79 z"
       id="M20220"
       style="fill:#ffff80;fill-opacity:1;stroke:#000000;stroke-width:2.13356;stroke-dasharray:none;stroke-opacity:1" />
    <path
       d="m 208.93,1033.19 -3.58,2.46 -2.02,9.79 -5.52,3.23 -11.64,-0.29 -5.62,7.72 -0.12,7.01 -6.8,1.23 -13.83,-16.9 -2.69,1.97 -15.8,-9.59 -1.92,-12.56 -3.68,-2.63 3.3,-9.35 -2.82,-3.57 -15.33,0.17 -13.83,-16.13 5,-7.9 3.1,-11.51 5.67,-1.63 4.1,-8.86 -5.69,-10.23 -14.65,-11.52 14.44,-5.74 10.79,2.58 6.5,6.5 11.88,0.21 11.79,6.7 3.09,8.61 9.8,7.01 10.55,-1.98 10.83,-8.16 13.17,10.4 5.29,10.28 14.55,6.58 1.62,4.94 -8.11,9.94 2.96,8.96 -12.47,6.88 -4.35,9.77 z"
       id="M20423"
       style="fill:#ffff80;fill-opacity:1;stroke:#000000;stroke-width:2.13356;stroke-dasharray:none;stroke-opacity:1" />
    <path
       d="m 271.26,869.58 2.64,5.67 -0.25,1.31 -12.44,13.23 -6.84,1.16 -12.84,17.52 0.57,6.88 -9.8,7.92 -4.74,-3.48 -20.6,-7 -4.29,-11.36 -16.58,-4.58 -6.59,13.97 4.93,3.92 -3.57,8.19 -14.59,3.81 -10.1,0.94 -4.26,-2.9 -3.46,-8.96 0.22,-8.32 -7.11,-2.27 -12.6,8.85 -5.32,-3.23 -5.76,-16.34 17.98,1.96 4.3,-6.97 15.02,-6.38 -4.91,-12.16 5.21,-4.67 5.21,4.62 7.71,-2.05 1.54,-4.35 7.43,2.39 6.86,-1.46 4.12,4.02 22.08,-21.15 20.33,-1.72 9.82,6.91 11.29,0.41 8.92,11.04 z"
       id="M20422"
       style="fill:#ffff80;fill-opacity:1;stroke:#000000;stroke-width:2.13356;stroke-dasharray:none;stroke-opacity:1" />
    <path
       d="m 574.74,518.57 -2.75,-10.61 2.1,-6.32 -5.81,-2.87 -3.63,9.56 -16.67,-1.37 2.29,-7.21 5.56,-2.58 5.88,-8.13 2.02,-15.3 -6.28,-1.79 -6.95,-6.07 -1.27,-8.87 6.76,-0.32 10.22,-9.92 1.14,-3.68 9.18,-5.19 0.9,-9.58 6.39,-6.71 24.16,-2.87 22.95,8.52 8.67,1.65 0.42,6.08 -7.75,9.4 -3.37,9.5 -14.56,9.41 -7.92,-0.68 -7.28,8.43 -2.3,18.25 -8.06,0.64 -2.01,5.23 5.28,5.99 7.65,13.74 -3.93,4.33 -6.2,-5.72 z"
       id="M20219"
       style="fill:#ffff80;fill-opacity:1;stroke:#000000;stroke-width:2.13356;stroke-dasharray:none;stroke-opacity:1" />
    <path
       d="m 494.42,365.09 1.08,7.15 -1.13,4.37 -13.31,6.47 -3.9,14.87 -4.83,5.83 -14.42,6.57 -3.72,5.96 -3.95,0.96 -2.07,-8.55 -6.73,-7.14 -2.2,-6.24 -9.87,-4.66 -5,-4.05 -1.51,-6.7 -15.05,-3.41 -4.15,4.99 -5.36,-2.06 3.09,-14.18 4.98,-6.16 1.32,-14.07 11.31,-0.14 8.49,-2.84 11.86,3.08 7.38,-1.66 9.94,-11.42 19.48,-0.71 2.08,7.33 9.04,3.99 6.9,14.15 z"
       id="M20218"
       style="fill:#ffff80;fill-opacity:1;stroke:#000000;stroke-width:2.13356;stroke-dasharray:none;stroke-opacity:1" />
    <path
       d="m 707.54,605.52 -7.65,-1.9 -20.34,2.27 -17.25,-0.39 -7.49,-7.74 -6.57,7.26 -13.37,2.57 -8.69,-1.38 -7.89,7.52 -22.71,12.05 -14.16,13.1 -5.95,-0.89 -10.02,9.42 -2.76,-2.45 -10.76,0.52 -0.05,-11.36 -10.77,-15.62 -1.37,-10.57 4.97,-24.47 11.29,-27.94 12.56,-10.23 4.2,-5.47 1.98,-21.25 14.83,-5.06 6.2,5.72 3.93,-4.33 11.66,0.64 6.42,4.46 -0.71,6.09 16.54,0.86 12.96,-9.8 8.6,-2.35 -4.15,-8.68 3.06,-3.16 1.5,8.21 8.97,4.56 7.27,-0.88 6.18,9.92 9.76,-1.59 8.85,4.2 12.35,-1.72 11.6,2.66 3.17,8.13 -2.13,12.11 5.82,6 -0.35,8.07 5.86,10.36 6.19,-1.05 1.6,6.59 -7.48,6.81 8.08,15.42 -24.02,6.49 z"
       id="M20217"
       style="fill:#ffff80;fill-opacity:1;stroke:#000000;stroke-width:2.13356;stroke-dasharray:none;stroke-opacity:1" />
    <path
       d="m 301.62,784.28 -3.94,4.11 -2.39,11.05 5.51,9.13 -0.38,6.56 -5.33,6.77 0.12,14.41 -5.7,9.78 -7.27,7.07 -4.45,-10.87 -4.27,-1.63 0.84,-11.83 -3.24,-1.61 1.2,-13.37 5.42,-6.26 -0.87,-6.28 -5.59,-7.73 1.15,-11.04 -3.01,-8.32 0.12,-6.5 -3.53,-16.83 6.36,-9.2 2.12,-45.27 2.77,-11.52 6.66,-0.39 6.79,-6.64 1.01,-5.42 6.24,-2.83 3.82,-8.47 23.54,-24.56 -3.68,-4.96 17.09,-23.33 9.38,8.27 3.54,-12.71 11.42,0.62 0.94,13.52 5.88,-5.73 11.21,3.81 24.38,3.39 -0.38,5.93 -6.49,17.69 -0.82,20.13 -6.55,4.76 -0.66,11.53 -5.14,6.29 -3.38,-0.92 -11.95,7.16 -11.49,-6.87 -5.45,-6.77 -6.21,1.58 -0.41,5.94 -12.82,12.77 -4.98,0.06 -4.21,6.97 3.11,4.47 -13.55,11.66 -5.6,13.3 -5.21,7.71 -5.71,2.38 -2.87,6.72 -8.39,7.31 -1.23,7.11 3.2,6.59 9.52,3.03 z"
       id="M20215"
       style="fill:#ffff80;fill-opacity:1;stroke:#000000;stroke-width:2.13356;stroke-dasharray:none;stroke-opacity:1" />
    <path
       d="m 590.75,742.89 -12.33,-2.13 -16.54,1.22 -5.57,-2.12 -53.73,-6.2 -0.96,5.66 -16.6,1.16 -2.03,4.6 8.4,10.55 2.85,-0.39 10.74,9.03 -19.13,0.59 -8.9,16.23 -4.59,-11.76 -7.95,-6.33 2.19,-8.07 -14.58,-12.1 -6.56,-2.36 1.47,-8.04 12.13,-11.85 -1,-4.39 12.34,-3.78 -0.83,-15.78 9.62,-12.75 4.3,-23.3 6.18,-1.42 4.57,-11.46 9.72,1.72 10.16,-3.64 7.23,6.74 -0.52,4.11 11.65,2.61 4.6,3.4 6.35,-2.48 8.5,-14.68 10.76,-0.52 2.76,2.45 1.32,11.66 3.51,4.65 0.11,11.36 6.34,5.21 4.38,10.01 4.68,20.44 1.83,9.97 5.43,14.01 z"
       id="M20214"
       style="fill:#ffff80;fill-opacity:1;stroke:#000000;stroke-width:2.13356;stroke-dasharray:none;stroke-opacity:1" />
    <path
       d="m 642.36,103.53 -8.71,5.37 -13.55,2.19 -8.92,-2.45 -5.83,16.02 -6.85,1.37 3.68,8.85 -3.56,7.57 -11.76,-7.33 -5.62,10.4 3.15,9.91 -2.86,3.8 -16.64,-1.94 -3.94,-8.34 -5.27,0.31 -8,-15 -10.41,1.69 -0.47,-2.91 7.17,-3.42 4.87,-8.85 -4.33,-7.19 6.1,-12.9 -5.13,-7.12 3.41,-9.89 12,-10.14 6.63,-1.2 7.84,4.3 8.2,-9.22 3.84,-7.37 -0.42,-6.42 8.44,-19.06 8.53,-10.44 10.2,-4.88 11,-2.86 13.42,-9.57 7.27,1.26 13.39,-1.86 15.89,-5.21 -4.83,14.77 -8.67,5.99 -1.21,13.06 -4.99,2.07 -12.92,0.22 -11.35,12.42 -11.24,9.33 -2.09,10.55 4.2,6.57 1.71,9.21 6.81,8.03 z"
       id="M20213"
       style="fill:#ffff80;fill-opacity:1;stroke:#000000;stroke-width:2.13356;stroke-dasharray:none;stroke-opacity:1" />
    <path
       d="m 330.43,268.18 5.28,10.18 -2.48,11.19 7.72,8.55 -0.31,4.56 8.05,3.67 -8.7,25.28 -4.95,6.45 0.8,8 11.8,15.11 5.54,-5.08 9.57,4.96 -1.55,7.87 -4.42,3.2 -1.63,11.36 -3.55,-3.09 -11.62,12.79 -16.01,-3.21 -6.13,0.99 3.43,18.07 -9.37,6.72 -4.14,-1.35 -7.24,2.63 -6.97,-6.09 -13.75,3.01 -1.88,-7.27 -6.88,3.24 2.38,6.18 -0.72,10.37 -8.06,1.72 -7.24,4.76 -14.81,2.65 -3.92,-5.42 -11.25,-4.79 -8.77,10.29 1.72,8.65 -4.73,9.31 1.62,5.78 -4.52,8.23 -7.59,6.52 -3.78,12.42 -12.47,0.44 -7.45,-2.74 -5.72,-0.9 -9.2,-15.19 -18.12,-5.43 3,-12.42 7.32,-9.02 2.17,-10.78 13.61,-4.99 6.77,-20.71 5.52,-2.94 0.88,-8.21 -2.61,-12.48 8.03,-3.53 1.42,-11.4 20.74,-5.92 1.72,-10.9 -13.51,-3.09 2.77,-11.08 -1,-5.98 14.39,-10.54 6.72,-6.76 12.85,-0.11 2.95,-4.83 -5.17,-13.38 4.17,-9.85 5.24,-26.62 5.02,5.14 16.77,5.55 2.64,5.1 7.61,4.7 3.72,8.38 24.8,2.29 0.29,-9 8.13,-4.38 7.6,-0.66 z"
       id="M20212"
       style="fill:#ffff80;fill-opacity:1;stroke:#000000;stroke-width:2.13356;stroke-dasharray:none;stroke-opacity:1" />
    <path
       d="m 547.64,200 5.73,-12.83 -2.63,-16.83 -11.08,-3.13 0.71,-17.2 -3.1,-14.06 10.41,-1.69 8,15 5.27,-0.31 3.94,8.34 16.64,1.94 2.86,-3.8 -3.15,-9.91 5.62,-10.4 11.76,7.33 7.46,0.19 -1.36,11.95 4.86,7.79 0.58,6.09 -10.03,12.04 5.99,8.35 -5.01,15.15 3.06,3.31 -1.2,10.34 7.68,15.28 -6.03,2.15 -15.13,-5.75 -7.11,6.45 -4.16,-1.17 -4.31,-7.54 1.76,-5.79 -7.05,-6.55 -11.46,2.85 -3.43,-17.57 z"
       id="M20211"
       style="fill:#ffff80;fill-opacity:1;stroke:#000000;stroke-width:2.13356;stroke-dasharray:none;stroke-opacity:1" />
    <path
       d="m 273.9,875.25 21.28,14.83 5.8,-0.05 1.26,8.15 8.57,0.57 20.52,-1.53 29.88,-0.47 -2.98,-7.12 0.74,-12.19 6.98,5.92 4.58,-7.96 11.93,1.23 15.53,4.86 9.06,8.02 -1.29,4.16 5.28,10.28 5.53,4.33 1.07,17.76 -1.42,3.35 -7.97,3.11 -2.17,5.34 0.36,11.62 -4.93,5.37 -4.92,-5.4 -7.42,1.06 -8.9,-4.65 -6.89,3.02 -4.17,-6.9 -12.78,-4.52 -2.13,-5.93 -9.81,-0.01 -12.67,-3.89 -18.76,8.52 -11.56,-7.76 -4.33,1.49 -19.05,-9.72 -6.57,-6.7 -0.52,-11.12 5.41,-7.53 -2.79,-18.23 z"
       id="M20210"
       style="fill:#ffff80;fill-opacity:1;stroke:#000000;stroke-width:2.13356;stroke-dasharray:none;stroke-opacity:1" />
    <path
       d="m 446.76,440.47 -10.59,-2.39 -14.13,1.77 -4.59,4.3 5.28,13.94 3.56,4.58 -4.13,1.02 -11.42,-6.16 -2.25,1.85 -15.64,0.74 -11.86,3.17 -4.22,-3.87 -10.62,-19.44 -2.05,-8.35 -4.77,-3.69 9.32,-27.42 9.47,-0.78 8.98,6.75 1.05,11.01 17.28,5.07 8.03,-2.27 -3.73,-9.27 2.16,-6.5 17.48,-13.85 9.87,4.66 2.2,6.24 6.73,7.14 2.07,8.55 -4.13,1.89 1.68,9.06 z"
       id="M20452"
       style="fill:#ffff80;fill-opacity:1;stroke:#000000;stroke-width:2.13356;stroke-dasharray:none;stroke-opacity:1" />
    <path
       d="m 277.26,684.9 -4.86,-0.26 -5.62,-16.19 -8.34,3.38 -15.42,-9.33 5.01,-1.14 8.18,-7.86 9.24,-21.14 9.29,-10.9 6.73,-0.09 5.25,7 11.75,-2.81 13.66,-6.75 4.29,1.77 5.22,11.05 3.68,4.96 -23.54,24.56 -3.82,8.47 -6.24,2.83 -1.01,5.42 -6.79,6.64 z"
       id="M20451"
       style="fill:#ffff80;fill-opacity:1;stroke:#000000;stroke-width:2.13356;stroke-dasharray:none;stroke-opacity:1" />
    <path
       d="m 316.42,620.58 -4.29,-1.77 -13.66,6.75 -11.75,2.81 -5.25,-7 -6.73,0.09 10.83,-10 5.57,-1.14 3.55,-6.43 16.32,-11.34 12.74,-1.01 1.95,9.42 z"
       id="M20450"
       style="fill:#ffff80;fill-opacity:1;stroke:#000000;stroke-width:2.13356;stroke-dasharray:none;stroke-opacity:1" />
    <path
       d="m 358.97,877.44 -7.54,4.93 -12.58,-5.34 -24.4,-4.07 -7.16,-13.28 -3.4,-1.64 -19.28,-0.04 -2.37,-4.84 7.27,-7.07 5.7,-9.78 -0.12,-14.41 5.33,-6.77 5.76,-2.57 6.05,4.94 5.56,-1.01 -5.96,-9.12 0.52,-6.15 5.52,-9.68 12.47,2.88 10.2,-5.63 13.05,5.13 -6.24,2.65 -3.54,9.14 11.17,3.89 -7.08,8.23 -19.38,1.09 4.74,4.71 18.34,3.88 4.52,-10.48 10.44,7.87 5.77,-6.7 2.81,-10.39 24.51,-11.58 8.45,-14.44 9.33,0.31 10.53,-11.63 4.78,-11.31 -2.3,-8.46 15.02,-10.23 6.56,2.36 14.58,12.1 -2.19,8.07 7.95,6.33 4.59,11.76 2.96,18.11 3.8,1.02 -1.84,15.25 6.36,6.58 -6.66,9.05 2.01,8.13 -2.9,6.89 -1.83,15.65 2.94,10.14 11.76,3.22 3.96,-0.71 17.72,17.3 -22.15,21.34 -8.83,6.05 -0.56,4.93 7.41,10.95 -0.38,16.14 6.88,5.56 7.44,13.7 -8.59,8.59 1.47,16.51 -5.7,8.96 -6.53,15.55 -6.52,-5.91 -6.1,0.22 -5.78,7.17 -11.85,-7.18 -2.66,-7.8 -8.52,-5.28 -5.61,-10.24 2.39,-8.51 -1.94,-13.78 -5.61,-5.58 -3.62,-12.46 -3.42,-4.47 -1.34,-10.38 -8.89,-6.41 1.42,-3.35 -1.07,-17.76 -5.53,-4.33 -5.28,-10.28 1.29,-4.16 -9.06,-8.02 -15.53,-4.86 -11.93,-1.23 -4.58,7.96 z"
       id="M20209"
       style="fill:#ffff80;fill-opacity:1;stroke:#000000;stroke-width:2.13356;stroke-dasharray:none;stroke-opacity:1" />
    <path
       d="m 667.74,433.34 -5.79,3.41 -2.22,11.7 -6.12,3.22 -11.22,23.15 13.71,2.74 -3.73,11.93 1.71,13.47 -3.06,3.16 4.15,8.68 -8.6,2.35 -12.96,9.8 -16.54,-0.86 0.71,-6.09 -6.42,-4.46 -11.66,-0.64 -7.65,-13.74 -5.28,-5.99 2.01,-5.23 8.06,-0.64 2.3,-18.25 7.28,-8.43 7.92,0.68 14.56,-9.41 3.37,-9.5 7.75,-9.4 1.1,4.79 16.55,2.67 1.75,-8.64 z"
       id="M20208"
       style="fill:#ffff80;fill-opacity:1;stroke:#000000;stroke-width:2.13356;stroke-dasharray:none;stroke-opacity:1" />
    <path
       d="m 568.75,244.84 3.96,14.35 4.43,9.61 13.5,2.78 9.94,0.09 3.52,7.7 26.82,15.79 -7.2,8.99 -4.83,14.52 4.6,6 0.23,8.76 -9.29,10.36 -17.12,-9.26 -14.61,3.82 -2.4,5.58 -10.15,2.77 -5.79,-6.19 -6.93,-2.96 3.84,-11.54 -6.1,-4.41 -1.12,-18.54 -9.1,-9.59 -0.83,-5.93 -11,-10.9 -6.28,-2.2 14.69,-33.45 18.62,-0.31 z"
       id="M20207"
       style="fill:#ffff80;fill-opacity:1;stroke:#000000;stroke-width:2.13356;stroke-dasharray:none;stroke-opacity:1" />
    <path
       d="m 443.06,680.65 11.26,-11.43 -2.12,-7.92 7.13,0.18 0.49,-8.43 18.35,-1.76 -0.03,-8.71 -3.04,-5.21 14.39,-0.12 4.75,10.45 -4.57,11.46 -6.18,1.42 -4.3,23.3 -9.62,12.75 0.83,15.78 -12.34,3.78 1,4.39 -12.13,11.85 -1.47,8.04 -15.02,10.23 -7.08,6.88 -8.46,2.84 -8.6,-5.11 -4.96,-6.17 6.16,-1.89 1.29,-6.47 -1.63,-17.58 -4.8,-1.42 0.29,-7.44 8.32,-5.89 8.75,1.95 6.27,-7.52 8.52,-7.69 4.04,0.73 6.5,-8.81 z"
       id="M20206"
       style="fill:#ffff80;fill-opacity:1;stroke:#000000;stroke-width:2.13356;stroke-dasharray:none;stroke-opacity:1" />
    <path
       d="m 269.37,962.65 4.16,8.17 4.83,4.6 3.58,15.1 -4.51,9.84 4.51,5.14 -3.55,8.17 0.8,10.88 27.47,22.34 5.84,2.98 -8.37,12.75 -0.13,8.56 11.32,1.34 -3.38,13.72 5.63,6.36 16.26,6.51 -1.26,9.96 2.9,4.18 12.47,4.09 3.66,3.87 9.67,-9.99 -1.18,-4.41 14.51,-22.66 0.01,-4.61 1.92,-4.11 6.26,2.87 9.89,10.02 5.67,3.07 5.03,8.68 6.12,-3.43 11.81,-12.82 7.24,-3.21 6.41,7.64 7.17,1.02 7.47,12.9 1.97,13.13 -1.38,4.92 10.33,4.12 -2.79,10.3 9.98,6.76 -6.44,19.72 -14.68,3.2 -8.52,7.51 -2.11,9.75 -5.43,1.53 -8.75,-6.46 -5.58,-0.1 -12.62,14.67 -7.29,4.01 0.94,5.92 -5,7.3 -7.46,-2.28 -7.67,1.86 -5.49,6.44 -5.05,-0.45 -3.43,6.11 -8.73,0.78 -4.32,4.7 -8.46,0.56 -2.54,10.49 -3.47,4.1 -13.09,-2.5 2.63,-15.72 -12.12,-9.18 -8.75,-1.09 -1.61,-10.77 -9.54,-3.64 5.35,-5.14 8.74,2.23 9.41,-2.57 6.17,1.35 15.89,-15.55 1.08,-11.38 -7,2.98 -12.77,-11.4 -2.15,-8.7 -9.39,-1.46 -2.26,-6.33 -9.35,-6.73 -6.03,-1.54 -13.02,-8.28 -10.62,-3.88 -15.17,4.33 -5.97,-13.38 1.64,-13.66 -5.59,2.61 -4.54,-4.01 -7.7,-16.99 -1.15,-6.65 6.39,-3.95 0.31,-9.51 -13.26,-4.38 -7.52,-21.65 -5.69,-1.03 -2.04,-5.61 4.35,-9.77 12.47,-6.88 -2.96,-8.96 8.11,-9.94 13.49,-4.47 3.74,-5.42 9.79,-2.81 z"
       id="M20205"
       style="fill:#ffff80;fill-opacity:1;stroke:#000000;stroke-width:2.13356;stroke-dasharray:none;stroke-opacity:1" />
    <path
       d="m 431.45,612.92 -3.72,7.53 9.44,5.87 -2.78,7.14 -9.81,-0.36 -3.89,23.05 3.2,15.4 -0.12,8.95 -12.2,5.97 14.42,16.41 -6.27,7.52 -8.75,-1.95 -8.32,5.89 -10.12,1.07 -15.72,-3.92 3.15,-4.7 1.46,-12.35 4.02,-8.64 5.14,-6.29 0.66,-11.53 6.55,-4.76 0.82,-20.13 6.49,-17.69 0.38,-5.93 1.79,-9.2 4.74,-4.93 13.54,8.09 z"
       id="M20204"
       style="fill:#ffff80;fill-opacity:1;stroke:#000000;stroke-width:2.13356;stroke-dasharray:none;stroke-opacity:1" />
    <path
       d="m 541.48,522.05 -11.25,-6.61 -4.39,2.29 -6.77,10.78 1.48,18.8 -6.83,2.96 -0.32,5.66 -6.95,10.58 -19.48,-0.58 -13.21,5.14 -4.76,-4.68 -14.95,-4.07 -4.83,7.79 -7.19,-5.1 -2.61,-7.38 -13.18,-10.2 2.08,-7.47 -5.57,-7.67 -0.74,-9.77 5.3,-17.96 15.29,-11.11 3.66,4.16 9.03,-9.11 -0.88,-7.9 8.27,-5.57 5.97,-11.22 -2.03,-15.16 -19.86,-8.18 1.03,-12.25 -1.68,-9.06 4.13,-1.89 3.95,-0.96 6.35,2.94 14.68,12.12 25.53,-6.56 2.87,-2.32 18.38,-2.75 0.61,-7.6 -4.74,-9.04 -7.17,-5.35 1.1,-10.51 -6.26,-7.63 -10.04,-7.37 -1.08,-7.15 11.35,2.39 5.38,-4.5 5.58,3.29 5.92,-4.36 9.39,1.73 6.2,-15.26 9.27,1.87 9.92,-12.7 6.93,2.96 5.79,6.19 10.15,-2.77 2.4,-5.58 14.61,-3.82 17.12,9.26 0.9,6.24 -5.5,7.4 1.01,10.33 -5.02,11.78 2.04,6.41 -0.39,14.08 1.73,6.37 -1.22,12.34 -24.16,2.87 -6.39,6.71 -0.9,9.58 -9.18,5.19 -1.14,3.68 -10.22,9.92 -6.76,0.32 1.27,8.87 6.95,6.07 6.28,1.79 -2.02,15.3 -5.88,8.13 -5.56,2.58 -4.04,-2.6 -4.61,11.19 z"
       id="M20203"
       style="fill:#ffff80;fill-opacity:1;stroke:#000000;stroke-width:2.13356;stroke-dasharray:none;stroke-opacity:1" />
    <path
       d="m 453.75,606.64 -13.43,1.79 -8.87,4.49 -5.9,0.51 -13.54,-8.09 -4.74,4.93 -1.79,9.2 -24.38,-3.39 -11.21,-3.81 -5.88,5.73 -0.94,-13.52 -11.42,-0.62 -3.54,12.71 -9.38,-8.27 -17.09,23.33 -5.22,-11.05 9.28,-19.62 -1.95,-9.42 -12.74,1.01 -16.32,11.34 -3.55,6.43 -5.57,1.14 -10.83,10 -9.29,10.9 -9.24,21.14 -8.18,7.86 -5.01,1.14 -10.69,11.87 0.77,15.17 -8.05,9.56 -1.7,5.42 -9.02,11.35 -12.58,-4.65 -7.53,4.42 -8.12,-6 -11.68,-5.4 -11.41,5.83 -7.59,-5.25 -0.66,-12.04 8.69,-11.47 -3.1,-12.79 -20.26,-7.45 -12.14,-14.87 5.43,-14.39 -3.25,-5.02 7.44,-10.99 13.18,-7.51 2.23,-18.34 -7.98,-3.47 -3.35,-6 -1.2,-10.16 5.67,-1.39 7.52,-15.81 5.41,-4.06 4.96,-9.9 7.95,-10.81 10.74,-7.48 1.62,-26.87 -2.87,-9.71 7.45,2.74 12.47,-0.44 3.78,-12.42 7.59,-6.52 14.66,16.08 0.63,14.84 -3.8,11.08 2.44,12.2 8.3,4.18 2.41,4.53 29.45,-0.33 0.59,11.16 -4.92,7.15 2.77,5.85 21.83,-3.58 7.95,4.83 11.09,1.42 10.7,-3.88 18.57,-2.45 6.48,-9.35 8.37,-19.69 15.74,-7.78 3.19,-4.23 -4.85,-8.91 -6.32,0.37 -5.91,-4.94 5.47,-11.42 -0.83,-13.06 7.18,-3.42 6.51,-8.38 6.33,-0.5 4.22,3.87 11.86,-3.17 15.64,-0.74 2.25,-1.85 11.42,6.16 4.13,-1.02 -0.67,7.87 -6.41,10.93 3.12,16.42 4.98,6.67 -5.3,17.96 0.74,9.77 5.57,7.67 -2.08,7.47 13.18,10.2 2.61,7.38 7.19,5.1 5.38,4.9 -2.01,7.64 0.22,12.04 2.86,4.78 z"
       id="M20202"
       style="fill:#ffff80;fill-opacity:1;stroke:#000000;stroke-width:2.13356;stroke-dasharray:none;stroke-opacity:1" />
    <path
       d="m 460.69,198.83 0.21,5.55 18.48,8.15 12.1,10.82 11.87,2.59 8.9,-8.39 11.34,1.25 5.23,-6.01 0.88,-10.4 10.25,0.6 7.69,-2.99 6.09,0.02 3.43,17.57 -11.86,4.3 -3.78,8.24 0.01,10.86 -14.69,33.45 6.28,2.2 11,10.9 0.83,5.93 9.1,9.59 1.12,18.54 6.1,4.41 -3.84,11.54 -9.92,12.7 -9.27,-1.87 -6.2,15.26 -9.39,-1.73 -5.92,4.36 -5.58,-3.29 -5.38,4.5 -11.35,-2.39 -0.25,-8.27 -6.9,-14.15 -9.04,-3.99 -2.08,-7.33 -19.48,0.71 -9.94,11.42 -7.38,1.66 -11.86,-3.08 -8.49,2.84 -11.31,0.14 -1.32,14.07 -4.98,6.16 -3.09,14.18 5.36,2.06 -18.96,5.4 -16.05,13.61 -10.03,-5.07 -3.47,-11.97 1.63,-11.36 4.42,-3.2 1.55,-7.87 -9.57,-4.96 -5.54,5.08 -11.8,-15.11 -0.8,-8 4.95,-6.45 8.7,-25.28 6.06,-0.13 5.91,-6.23 10.07,1.7 2.93,3.4 9.18,-2.76 0.58,-9.29 -2.76,-6.39 1.17,-11.31 5.81,-11.08 -3.69,-3.94 -25.32,-8.62 -8.23,0.26 -13.8,10.62 -5.79,-3.21 4.15,-14.32 -1.39,-8.4 4.76,-4.38 5.83,-17.84 4.4,-7.51 6.65,-8.74 -0.24,-4.93 8.49,-10.96 -0.14,-7.05 12.14,-21.49 8.06,-10.5 7.67,5.35 6.69,1.2 2.77,5.84 19.41,3.53 7.5,-18.4 4.36,-4.1 -0.14,3.9 6.5,9.81 -2.9,10.85 1.8,14.99 14.9,-2.54 -2.68,6.3 1.33,8.49 z"
       id="M20201"
       style="fill:#ffff80;fill-opacity:1;stroke:#000000;stroke-width:2.13356;stroke-dasharray:none;stroke-opacity:1" />
    <path
       d="m 339.03,435.03 -6.4,-8.04 -4.52,-11.49 13.3,-7.62 2.3,-7.4 -3.73,-7.3 11.62,-12.79 3.55,3.09 3.47,11.97 10.03,5.07 -9.32,27.42 4.77,3.69 2.05,8.35 -8.69,6.77 -4.13,7.5 -8.29,-0.73 -5.09,-4.75 1.41,-7.7 z"
       id="M20448"
       style="fill:#ffff80;fill-opacity:1;stroke:#000000;stroke-width:2.13356;stroke-dasharray:none;stroke-opacity:1" />
    <path
       d="m 403.66,381.51 4.15,-4.99 15.05,3.41 1.51,6.7 5,4.05 -17.48,13.85 -2.16,6.5 3.73,9.27 -8.03,2.27 -17.28,-5.07 -1.05,-11.01 -8.98,-6.75 -9.47,0.78 16.05,-13.61 z"
       id="M20446"
       style="fill:#ffff80;fill-opacity:1;stroke:#000000;stroke-width:2.13356;stroke-dasharray:none;stroke-opacity:1" />
    <path
       d="m 454.19,416.31 3.72,-5.96 14.42,-6.57 4.83,-5.83 3.9,-14.87 13.31,-6.47 1.13,-4.37 10.04,7.37 6.26,7.63 -1.1,10.51 7.17,5.35 4.74,9.04 -0.61,7.6 -18.38,2.75 -2.87,2.32 -25.53,6.56 -14.68,-12.12 z"
       id="M20521"
       style="fill:#ffff80;fill-opacity:1;stroke:#000000;stroke-width:2.13356;stroke-dasharray:none;stroke-opacity:1" />
  </g>
</svg>
