<?xml version="1.0" encoding="UTF-8" standalone="no"?>
<svg
   version="1.2"
   width="629.12354"
   height="600"
   viewBox="0 0 629.12354 600"
   stroke-linecap="round"
   stroke-linejoin="round"
   id="svg1301"
   sodipodi:docname="oi.svg"
   inkscape:version="1.2 (dc2aedaf03, 2022-05-15)"
   xmlns:inkscape="http://www.inkscape.org/namespaces/inkscape"
   xmlns:sodipodi="http://sodipodi.sourceforge.net/DTD/sodipodi-0.dtd"
   xmlns="http://www.w3.org/2000/svg"
   xmlns:svg="http://www.w3.org/2000/svg">
  <defs
     id="defs1305" />
  <sodipodi:namedview
     id="namedview1303"
     pagecolor="#505050"
     bordercolor="#eeeeee"
     borderopacity="1"
     inkscape:showpageshadow="0"
     inkscape:pageopacity="0"
     inkscape:pagecheckerboard="0"
     inkscape:deskcolor="#505050"
     showgrid="false"
     inkscape:zoom="1.0563565"
     inkscape:cx="315.23449"
     inkscape:cy="300.08809"
     inkscape:window-width="1920"
     inkscape:window-height="1009"
     inkscape:window-x="-8"
     inkscape:window-y="-8"
     inkscape:window-maximized="1"
     inkscape:current-layer="svg1301" />
  <g
     id="oi"
     transform="matrix(0.78712221,0,0,0.78712221,-0.28712331,-0.28713005)"
     style="fill:#ffff80;fill-opacity:1;stroke:#000000;stroke-width:1.27045;stroke-dasharray:none;stroke-opacity:1">
    <path
       d="m 649.87,420.33 -5.65,-13.49 -8.61,0.82 -4.2,3.92 -9.23,2.29 -6.67,5.22 -2.54,-1.93 -6.31,4.09 -13.53,4.21 -10.33,6.89 -4.05,-3.22 -11.89,16.4 3.86,5.4 -2.75,13.54 -6.09,16.93 2.29,4.18 -5.45,6.21 0.86,11.59 -8.92,1.38 -3.74,-4.63 -5.14,-2.31 -10.99,-2.14 -9.41,4.91 -3.21,-3.73 -8.24,-2.25 -14.72,-9.34 -7.01,0.21 -3.83,3.51 -8.31,-3.39 -4.08,-6.06 -5.62,-0.85 -3.14,-4.85 -7.75,0.74 -12.84,10.53 -9,1.98 -7.12,6.15 3.46,3.64 -4.52,8.29 -12.63,4.38 -5.94,-1.38 -5.5,-5.77 -1.49,-8.04 -6.62,-2.38 -2.1,4.21 -10.82,6.66 -2.4,-1.42 -0.7,-8.29 6.17,-6.7 3.28,-5.99 0.66,-8.17 -3.7,-2.86 0.65,-6.18 5.55,-2.85 3.35,-5.51 5.8,-0.26 3.1,3.07 1.41,-6.48 4.07,1.17 4.24,-5.69 7.64,-4.95 2.82,-4.48 9.04,-2.01 2.59,-8.1 7.58,-8.99 10.08,-6.13 -2.38,-3.73 3.39,-3.7 -3.26,-5.13 3.39,-8.13 -0.18,-7.83 1.91,-5.02 -7.58,-0.63 -4.79,-3.17 -3.02,-4.31 0.95,-8.46 3.98,-0.06 9.78,6.02 7.56,-0.14 23.94,9.11 6.9,-8.25 8.95,-4.21 29.52,-8.58 3.77,11.73 3.51,-1.71 -3.41,-11.07 8.67,-3.32 7.11,-0.19 8.44,3.68 18.5,13.55 0.01,2.8 7.8,6.94 4.9,1.76 0.05,-8.21 7.35,0.06 2.13,5.53 5.78,-2.4 3.03,2.53 14.46,2.08 10.82,-3.83 11.58,-1.27 9.43,-5.22 9.05,5.23 -2.29,-7.45 10.33,-5.03 12.36,-1.7 -8.74,17.8 -6.47,-0.16 -4.91,9.03 3.78,4.89 -3.5,7.46 -3.66,2.26 -5.27,12.9 z m 68.06,-68.88 -0.43,3.22 -6.75,2.56 -3.6,-4.41 z"
       fill-rule="evenodd"
       id="M44201"
       style="fill:#ffff80;fill-opacity:1;stroke:#000000;stroke-width:1.27045;stroke-dasharray:none;stroke-opacity:1" />
    <path
       d="m 248.69,289.03 6.52,-0.09 2.1,3.5 7.07,-0.19 0.74,-3.81 11.07,4.5 5.49,4.91 2.52,6.72 4.47,4.77 15.36,-1.83 6.04,10.83 12.67,4.03 -4.9,7.28 -5.36,1.47 10.14,8.39 -13.38,16.72 -7.58,5.89 -2.74,11.54 -5.21,-9.54 -8.1,-3.32 -2.48,-6.03 -4.18,2.41 -4.1,-2.41 1.91,-4.38 -7.83,-17.83 -9.83,4.7 -11.15,0.15 -5.71,4.46 -0.54,5.23 -11.12,3.61 -0.91,4.04 -8.39,4.94 -3.04,10.04 -10.15,1.59 -4.06,3.92 -0.93,8.38 -7.95,6.77 -4.35,8.95 -1.22,6.6 -3.77,6.27 -3.38,11.87 -7.4,-3.48 -2.59,2.07 -8.49,-2.75 1.95,-14.75 2.14,-7.4 -0.68,-12.53 2.1,-2.16 -12.14,-9.89 -2.41,-11.11 -5.02,-0.12 -1.72,4.17 -9.94,0.75 -2.17,-6.3 1.4,-15.06 1.5,-5.01 4.61,-2.38 4.56,-7.97 -0.91,-5.02 4.15,-3.09 4.47,-10.33 -0.82,-4.31 -6.33,0.78 0.9,-9 2.51,-8.42 -3.95,-1.23 2.09,-8.85 4.99,-8.46 7.59,-0.17 6.46,-3.41 5.4,-0.1 10.28,12.21 8.29,3.08 3.91,-7.21 7.05,-0.7 4.93,9.8 2.85,1.91 6.35,-5.07 4.44,5.52 2.45,6.68 7.03,-1.89 5.28,6.06 4.61,-7.44 z"
       id="M44462"
       style="fill:#ffff80;fill-opacity:1;stroke:#000000;stroke-width:1.27045;stroke-dasharray:none;stroke-opacity:1" />
    <path
       d="m 182.43,424.08 3.38,-11.87 3.77,-6.27 1.22,-6.6 4.35,-8.95 7.95,-6.77 0.93,-8.38 4.06,-3.92 10.15,-1.59 3.04,-10.04 8.39,-4.94 0.91,-4.04 11.12,-3.61 0.54,-5.23 5.71,-4.46 11.15,-0.15 9.83,-4.7 7.83,17.83 -1.91,4.38 4.1,2.41 4.18,-2.41 2.48,6.03 8.1,3.32 5.21,9.54 -5,3.44 -4.61,6.93 -6.6,3.63 7.73,12.17 4.93,12.01 12.2,8.94 -4.27,4.72 4.05,7.22 6.17,-4.46 3.54,3.17 -5.57,7.21 -6.08,4.03 -3.13,-1.43 -7.83,2.99 -8.32,6.11 -9.87,9.12 -1.46,10.1 -2.14,9.05 -4.33,4.12 -6.35,12.37 -6.95,2.26 -13.14,-3.01 -7.54,9.69 -4.5,2.89 -7.28,-7 -1.45,-5.01 1.61,-5.36 -1.02,-6.09 -6.08,-8.81 2.12,-9.27 -3.62,-9.11 -8.4,-6.82 -0.07,-3.97 -8.85,-3.81 -3.12,-5.22 -6.69,-2.54 -1.8,-7.54 z"
       id="M44461"
       style="fill:#ffff80;fill-opacity:1;stroke:#000000;stroke-width:1.27045;stroke-dasharray:none;stroke-opacity:1" />
    <path
       d="m 567.29,223.34 -7.3,-2.78 -7.85,1.02 -6.42,5.69 -1.05,3.85 -12.75,2.74 -7.96,-2.78 1.43,-6.74 4.18,-5.63 -14.87,-1.22 -4.51,-7.69 -6.52,-0.63 -6.11,-2.96 -3.03,-8.33 -1.37,-17.41 -2.22,-6.16 -5.11,-6.82 -3.01,-10.17 -0.08,-6.83 2.33,-11.28 1.72,-1.92 2.93,-12.37 -4.66,-5.06 -5.81,0.52 -3.71,-8.01 -1.05,-7.61 3.93,-7.48 -14.08,-10 0.38,-13.82 -3.1,-3.88 -1.6,-12.97 -3.1,-7.7 6.86,-6.34 3.96,-0.6 3.01,8.91 5.81,-0.25 -1.24,-8.9 8.13,-4.17 4.74,4.05 8.64,0.01 -0.18,6.3 10.97,3.26 7.07,-6.03 4.58,7.26 3.31,1.16 -0.72,6.35 8.73,-5.27 4.1,4.69 4.27,10.52 6.34,7.76 5.75,-0.27 5.02,19.86 3.98,6.86 4.55,0.26 6.9,11.98 5.23,6.06 -0.65,4.64 4.71,9.08 0.5,12.46 2.26,2.42 -3.36,6.27 -4.29,13.93 -2.08,11.95 0.93,7.16 5.32,-1.86 -0.18,22.03 -7.27,-0.87 z"
       id="M44214"
       style="fill:#ffff80;fill-opacity:1;stroke:#000000;stroke-width:1.27045;stroke-dasharray:none;stroke-opacity:1" />
    <path
       d="m 442.08,374.69 4.79,3.17 7.58,0.63 -1.91,5.02 0.18,7.83 -3.39,8.13 3.26,5.13 -3.39,3.7 2.38,3.73 -10.08,6.13 -7.58,8.99 -2.59,8.1 -9.04,2.01 -2.82,4.48 -7.64,4.95 -4.24,5.69 -4.07,-1.17 -1.41,6.48 -2.79,-5.25 -7.96,-4.11 -7.75,1.34 -3.2,-2.9 -20.78,1.06 -1.9,4.8 -7.14,4.61 -4.22,11.24 -11.55,5.99 3.99,4.06 -3.58,3.91 -9.68,1.02 -3.04,-3.17 -13.58,2.89 -12.09,-11.68 -7.15,1.9 -5.94,-5.29 -8.95,1.45 1.46,-10.1 9.87,-9.12 8.32,-6.11 7.83,-2.99 3.13,1.43 6.08,-4.03 5.57,-7.21 -3.54,-3.17 -6.17,4.46 -4.05,-7.22 4.27,-4.72 -12.2,-8.94 -4.93,-12.01 -7.73,-12.17 6.6,-3.63 4.61,-6.93 5,-3.44 2.74,-11.54 7.58,-5.89 13.38,-16.72 -10.14,-8.39 5.36,-1.47 4.9,-7.28 11.24,3.07 11.14,-2.23 8.89,-8.1 10.75,1.28 8.66,4.59 4.95,-4.64 8.67,1.55 -0.3,4.24 -6.86,6.93 -2.87,9.74 1.35,3.87 -8.99,6.28 -10,1.63 2.02,12.27 -9.65,12.81 2.03,10.81 14.04,4.73 7.4,-4.62 14.86,-4.86 1.38,3.82 12.65,-6.23 1.55,4.72 12.81,7.54 2.62,-3.23 11.63,1.67 -1.52,-16.11 3.75,-1.73 z"
       id="M44213"
       style="fill:#ffff80;fill-opacity:1;stroke:#000000;stroke-width:1.27045;stroke-dasharray:none;stroke-opacity:1" />
    <path
       d="m 377.25,493.14 0.7,8.29 2.4,1.42 10.82,-6.66 2.1,-4.21 6.62,2.38 1.49,8.04 5.5,5.77 5.94,1.38 12.63,-4.38 4.52,-8.29 -3.46,-3.64 7.12,-6.15 9,-1.98 12.84,-10.53 7.75,-0.74 3.14,4.85 5.62,0.85 4.08,6.06 8.31,3.39 3.83,-3.51 7.01,-0.21 14.72,9.34 8.24,2.25 3.21,3.73 9.41,-4.91 10.99,2.14 -11.11,5.36 -4.72,9.37 0.16,9.83 3.72,2.68 -0.57,9.65 -7.72,4.61 -5.84,-3.12 -3.57,12.51 2.26,6.94 5.41,5.92 4.5,12.55 3.91,4.24 3.13,12.07 -1.79,2.33 -9.65,6.51 -3.16,8.82 -5.17,-1.25 -7.43,8.33 4.4,1.76 2.15,6.78 -9.21,-3.57 -3.62,1.29 1.98,8.5 -3.34,4.04 -0.04,5.27 -7.47,6.08 -2.91,7.09 -5.51,1.7 -11.13,-4.04 -14.63,9.91 -1.74,4.96 -15.32,8.18 -12.73,2.43 -7.76,8.8 -4.28,1.28 -13.25,6.2 -10.93,0.29 -3.61,7.74 -6.37,4.86 -13.3,-1.18 -13.89,3.03 -9.11,4.61 -9.67,-5.53 1.26,-4.69 -2.26,-8.34 1.65,-3.15 7.92,-1.42 15.74,-9.88 6.34,-10.71 -5.68,-4.33 8.06,-10.63 -2.49,-17.51 2.77,-13.26 -1.62,-5.2 6.04,-4.94 0.62,-9.78 8.99,-14.99 -0.82,-7.95 -3.18,-4.74 2.53,-2.84 -1.87,-10.72 -6.99,-4.11 -6.94,-1.37 -3.53,-5.2 -5.02,0.7 -2.41,-10.21 7.28,-1.39 4.44,-6.47 3.2,-8.47 -4.09,-7.07 5.39,-3.68 -3.2,-5.12 3.92,-7.52 z"
       id="M44212"
       style="fill:#ffff80;fill-opacity:1;stroke:#000000;stroke-width:1.27045;stroke-dasharray:none;stroke-opacity:1" />
    <path
       d="m 322.74,322.37 -12.67,-4.03 -6.04,-10.83 -15.36,1.83 -4.47,-4.77 -2.52,-6.72 -5.49,-4.91 -11.07,-4.5 -0.74,3.81 -7.07,0.19 -2.1,-3.5 -6.52,0.09 6.24,-5.81 2.62,-7.47 -5.25,-6.07 4.87,-8.17 -1.1,-10.82 9.72,-1.27 7.93,0.53 -0.67,-12.37 -4.9,-9.34 -1.43,-6.74 1.86,-3.86 -3.29,-16.97 3.71,1.09 7.61,-3.38 8.4,-13.79 -10.28,-19.77 -2.8,-9.04 4.89,-12.78 7.78,0.38 4.08,-21.02 7.57,1.36 2.88,-1.59 15.94,-1.46 9.03,1.65 2.78,5.75 6.3,0.28 5.67,-3.26 22.57,0.69 7.51,3.13 9.2,-0.77 5.32,4.03 -7.94,3.09 -2.31,7.58 8.5,5.31 -0.45,6.64 5.46,0.6 9.38,7.67 -12.67,6.74 6.6,6.63 -0.22,7.02 -10.35,-3.2 -6.68,5.82 -3.08,9.14 4.72,6.21 4.24,1.28 2.76,4.74 -0.94,4.5 5.02,14.18 0.88,6.99 -3.21,2.93 0.88,5.18 -2.99,6.63 -4.64,2.19 1.55,8.71 -3.99,2.41 -4.74,12.8 0.96,4.14 11.19,2.37 4.87,11.72 -10.55,6.04 -9.54,-0.53 0.95,4.99 -3.72,7.43 1.37,6.27 -10.75,-1.28 -8.89,8.1 -11.14,2.23 z"
       id="M44211"
       style="fill:#ffff80;fill-opacity:1;stroke:#000000;stroke-width:1.27045;stroke-dasharray:none;stroke-opacity:1" />
    <path
       d="m 485.07,139.21 -2.33,11.28 0.08,6.83 3.01,10.17 5.11,6.82 2.22,6.16 1.37,17.41 3.03,8.33 6.11,2.96 6.52,0.63 4.51,7.69 14.87,1.22 -4.18,5.63 -1.43,6.74 7.96,2.78 12.75,-2.74 1.05,-3.85 6.42,-5.69 7.85,-1.02 7.3,2.78 -5.65,9.54 -5.36,22.38 -9.43,-0.17 -9.47,-4.94 0.04,-3.44 -7.09,-4.1 -4.39,2.13 -11.33,-2.72 -0.61,5.75 -4.75,3.65 6.53,3.46 0.45,5.75 5.38,4.98 -1.64,12.89 -6.29,1.36 -7.12,-0.84 -3.7,1.94 -0.98,-10.51 -7.33,-2.35 -10.15,-5.33 -4.69,4.51 -6.15,0.7 -1.84,-6.67 -6.34,-1.14 2.53,-12.23 -4.93,-9.21 -6.11,1.17 -0.65,5.59 -6.89,3.8 -6.43,7.14 1.71,5.67 -7.91,0.11 -1.46,4.22 -16.45,1.58 -1.83,3.68 -17.98,-6.36 -2.26,10.7 2.08,3.54 -11.33,13.07 -1.22,-0.45 -4.87,-11.72 -11.19,-2.37 -0.96,-4.14 4.74,-12.8 3.99,-2.41 -1.55,-8.71 4.64,-2.19 2.99,-6.63 -0.88,-5.18 3.21,-2.93 -0.88,-6.99 -5.02,-14.18 0.94,-4.5 -2.76,-4.74 -4.24,-1.28 -4.72,-6.21 3.08,-9.14 6.68,-5.82 10.35,3.2 0.22,-7.02 -6.6,-6.63 12.67,-6.74 1.11,6.17 4.62,7.84 10.15,3.33 6.3,8.38 4.22,0.28 20.81,13.53 7.91,-1.38 -2.38,-18.8 3.46,-2.66 10.7,-21.05 0.03,-2.86 6.59,-8.28 7.8,-6.54 z"
       id="M44210"
       style="fill:#ffff80;fill-opacity:1;stroke:#000000;stroke-width:1.27045;stroke-dasharray:none;stroke-opacity:1" />
    <path
       d="m 456.92,48.91 3.1,7.7 1.6,12.97 3.1,3.88 -0.38,13.82 14.08,10 -3.93,7.48 1.05,7.61 3.71,8.01 5.81,-0.52 4.66,5.06 -2.93,12.37 -1.72,1.92 -7.66,1.81 -7.8,6.54 -6.59,8.28 -0.03,2.86 -10.7,21.05 -3.46,2.66 2.38,18.8 -7.91,1.38 -20.81,-13.53 -4.22,-0.28 -6.3,-8.38 -10.15,-3.33 -4.62,-7.84 -1.11,-6.17 -9.38,-7.67 -5.46,-0.6 0.45,-6.64 -8.5,-5.31 2.31,-7.58 7.94,-3.09 3.8,-1.83 -6.42,-9.36 -0.27,-7.04 24.26,-20.77 3.7,4.31 3.58,-5.5 0.85,-7.46 5.84,-4.9 1,-5.43 7.54,-1.1 -1.63,-6.86 6.18,-1.49 -5.13,-5.52 1.93,-5.72 4.84,-2.63 4.77,4.13 9.31,-3.64 4.77,-4.4 z"
       id="M44209"
       style="fill:#ffff80;fill-opacity:1;stroke:#000000;stroke-width:1.27045;stroke-dasharray:none;stroke-opacity:1" />
    <path
       d="m 402.11,457.69 -3.1,-3.07 -5.8,0.26 -3.35,5.51 -5.55,2.85 -0.65,6.18 3.7,2.86 -0.66,8.17 -3.28,5.99 -6.17,6.7 -8.35,7.52 -3.92,7.52 3.2,5.12 -5.39,3.68 4.09,7.07 -3.2,8.47 -4.44,6.47 -7.28,1.39 2.41,10.21 5.02,-0.7 3.53,5.2 6.94,1.37 6.99,4.11 1.87,10.72 -2.53,2.84 3.18,4.74 0.82,7.95 -8.99,14.99 -0.62,9.78 -6.04,4.94 1.62,5.2 -2.77,13.26 2.49,17.51 -8.06,10.63 5.68,4.33 -6.34,10.71 -15.74,9.88 -7.92,1.42 -1.65,3.15 -4.3,-4.13 -7.36,0.43 -3.93,-8.51 -7.79,-6.55 -9.91,-3.14 -14.5,-15.04 -4.93,-1.86 -4.08,-6.06 -2.64,-8.01 -0.15,-19.99 -4.43,-11.93 1.53,-5.75 -1.23,-10.57 6.04,-1.15 4.57,-10.35 -10.13,-4 0.31,-9.67 -4.57,-3.89 -3.28,-6.15 -7.41,-6.53 1.23,-4.95 -2.77,-4.71 -3.29,-15.97 -12.32,-14.9 -2.16,-5.2 7.54,-9.69 13.14,3.01 6.95,-2.26 6.35,-12.37 4.33,-4.12 2.14,-9.05 8.95,-1.45 5.94,5.29 7.15,-1.9 12.09,11.68 13.58,-2.89 3.04,3.17 9.68,-1.02 3.58,-3.91 -3.99,-4.06 11.55,-5.99 4.22,-11.24 7.14,-4.61 1.9,-4.8 20.78,-1.06 3.2,2.9 7.75,-1.34 7.96,4.11 z"
       id="M44208"
       style="fill:#ffff80;fill-opacity:1;stroke:#000000;stroke-width:1.27045;stroke-dasharray:none;stroke-opacity:1" />
    <path
       d="m 747.07,509.88 -9.3,4.41 -0.46,2.86 -9.19,5.15 -9.88,-6.16 -4,2.43 -8.24,-4.56 -12.29,5.89 -6.84,0.15 -5.1,3.68 -6.25,7.54 -24.43,-0.07 -7.05,2.76 -3.38,-1.07 -7.96,7.95 -4.53,-3.09 -6.93,0.46 -8.81,-1.5 0.71,-4.99 4.14,-4.04 1.51,-5.8 -7.68,-2.44 -3.52,-11.67 4.23,-4.44 6.41,-2.12 5.49,-7.19 3.02,0.78 9.07,-7.74 8.12,-2.74 6.49,0.82 9.07,-3.77 8.19,-6.39 8.95,-0.32 4.73,-4.28 7.66,-3.35 2.33,2.63 -8.86,3.9 -4.53,8.29 -8.85,-1.3 -1.92,6.58 -15.19,8.49 9.89,9.38 8.32,-1.22 3.07,-4.01 5.43,4.97 4.68,1.06 3.27,-4.62 7.65,8.75 5.79,1.53 3.92,-10.6 -1.86,-8.92 3.73,0.47 -0.19,8.9 4.28,9.38 6.3,1.89 0.9,-4.3 7.75,0.41 -1.07,4.63 5.53,2.13 9.06,-4.38 -2.59,-8.37 2.54,-9.06 6.3,0.39 -1.59,9.4 z"
       id="M44207"
       style="fill:#ffff80;fill-opacity:1;stroke:#000000;stroke-width:1.27045;stroke-dasharray:none;stroke-opacity:1" />
    <path
       d="m 541.78,497.82 5.14,2.31 3.74,4.63 8.92,-1.38 -0.86,-11.59 5.45,-6.21 -2.29,-4.18 6.09,-16.93 2.75,-13.54 -3.86,-5.4 11.89,-16.4 4.05,3.22 10.33,-6.89 13.53,-4.21 6.31,-4.09 2.54,1.93 6.67,-5.22 9.23,-2.29 4.2,-3.92 8.61,-0.82 5.65,13.49 -6.25,1.32 -11.06,18.44 4.29,9.12 -12.14,9.06 0.88,8.2 3.04,3.53 7.72,0.84 11.42,4.97 14.57,-12.07 3.58,5.45 5.42,1.39 10.39,-5.46 7.29,1.91 -7.66,3.35 -4.73,4.28 -8.95,0.32 -8.19,6.39 -9.07,3.77 -6.49,-0.82 -8.12,2.74 -9.07,7.74 -3.02,-0.78 -5.49,7.19 -6.41,2.12 -4.23,4.44 3.52,11.67 7.68,2.44 -1.51,5.8 -4.14,4.04 -0.71,4.99 1.59,5.89 -4.62,3.18 -2.48,8.87 -4.35,5.54 1.85,9.74 3.38,8.62 -13.86,6.94 -6.05,-1.43 -10.92,2.88 -8.12,-1.81 -12.33,3.84 -4.88,5.87 -2.86,-0.63 -5.3,5.23 -9.51,-0.48 -4.42,-6.2 1.79,-2.33 -3.13,-12.07 -3.91,-4.24 -4.5,-12.55 -5.41,-5.92 -2.26,-6.94 3.57,-12.51 5.84,3.12 7.72,-4.61 0.57,-9.65 -3.72,-2.68 -0.16,-9.83 4.72,-9.37 z"
       id="M44206"
       style="fill:#ffff80;fill-opacity:1;stroke:#000000;stroke-width:1.27045;stroke-dasharray:none;stroke-opacity:1" />
    <path
       d="m 689.22,730 7.63,2.37 0.07,4.1 -7.68,0.56 z m -276.24,-44.37 4.28,-1.28 7.76,-8.8 12.73,-2.43 15.32,-8.18 1.74,-4.96 14.63,-9.91 11.13,4.04 5.51,-1.7 2.91,-7.09 7.47,-6.08 0.04,-5.27 3.34,-4.04 -1.98,-8.5 3.62,-1.29 9.21,3.57 -2.15,-6.78 -4.4,-1.76 7.43,-8.33 5.17,1.25 3.16,-8.82 9.65,-6.51 4.42,6.2 9.51,0.48 5.3,-5.23 2.86,0.63 4.88,-5.87 12.33,-3.84 8.12,1.81 10.92,-2.88 6.05,1.43 13.86,-6.94 -3.38,-8.62 -1.85,-9.74 4.35,-5.54 2.48,-8.87 4.62,-3.18 -1.59,-5.89 8.81,1.5 6.93,-0.46 4.53,3.09 7.96,-7.95 3.38,1.07 7.05,-2.76 24.43,0.07 6.25,-7.54 5.1,-3.68 6.84,-0.15 12.29,-5.89 8.24,4.56 4,-2.43 9.88,6.16 9.19,-5.15 0.46,-2.86 9.3,-4.41 2.63,6.93 -2.8,4.89 -4.06,-1.63 -4.99,2.1 -4.87,5.34 -10.29,-1.08 -4.81,-2.56 -4.25,1.17 -4.46,-2.94 -3.76,4.07 -3.18,-3.61 -6.48,6.22 -1.47,14.63 -11.48,11.65 4.41,7.62 -6.54,0.94 -5.14,5.31 4.07,6.61 10.23,6.61 9.12,1.07 -1.77,6.11 7.42,2.3 0.72,5.95 5.19,-1.1 9.19,6.76 3.43,-1.81 10.79,7.09 6.56,-4.64 3.15,5.91 8.18,3.76 8,-5.71 7.29,0.35 -0.32,-9.47 6.56,3.98 9.48,1.23 7.68,-1.9 6.91,3.6 1.59,8.76 -5.36,0.13 -5.14,-4.08 -20.85,-0.04 -10.85,4.41 -1.49,5.56 -4.5,1.67 0.84,11.83 -6.91,-2.98 -3.44,-3.84 0.69,-4.65 -9.69,-0.49 3.07,6.18 0.23,10.52 2.82,7.11 6.18,-3.53 4.32,4.28 -11.94,14.23 -2.19,5.77 -4.55,-0.69 -9.04,12.54 -5.36,5 4.21,5.18 1.08,9.39 5.44,-7.42 7.45,4.39 3.51,-4.77 -7.28,-7.51 6.6,-3.66 7.2,5.97 6.43,1.03 -0.05,7.61 -3.73,3.35 -10.07,4.66 -9.05,10.22 2.95,2.26 -3.14,5.87 -5.25,-1.89 1.91,-5.96 -7.64,-4.46 -5.05,3 1.58,5.49 -7.77,9.37 -10.46,-0.82 -8.52,-5.74 -2.37,6.19 -5.04,-2.67 3.5,-4.76 -0.44,-5.56 -6.95,-0.86 -2.04,10.02 -7.84,3.02 1.97,5.33 -4.82,3.1 7.09,9.45 -3.72,9.89 -0.19,6.57 -7.63,0.19 -9.18,3.21 -1.82,-8.84 3.6,-6.25 -3.47,-15.8 3.15,-10.19 6.82,-11.79 -0.81,-11.59 -6.74,2.71 -8.65,-1.39 -6.33,-7.68 -11.3,5.83 -11.95,-4.36 -0.33,-4.31 -11.7,-2.48 -9.34,0.38 -11.61,4.02 -0.68,9.85 -2.26,1.58 -2,14 -6.1,4.91 -3.7,13.05 -3.54,1.46 -6.72,-2.29 -12.65,4.73 -9.77,-0.58 -7.97,-1.96 -4.82,1.06 -9.72,-3.15 -4.7,1.06 -13.48,-1.52 -4.16,0.75 -6.88,9.91 -6.52,5.14 -20.64,-3.54 -15.36,-8.17 -2.26,-3.38 1.43,-12 4.24,-8.07 -15.21,-11.34 -6.13,-7.03 z m 291.87,-135.28 3.75,4.08 -6.73,6.98 -0.09,8.66 -3.92,6.07 -5.1,0.67 -3.98,-6.08 9.03,-7.98 -0.82,-8.85 z m 88.38,29.35 3.16,5.58 -0.45,4.94 -5.43,6.4 -2.43,-7 3.95,-2.67 z"
       fill-rule="evenodd"
       id="M44205"
       style="fill:#ffff80;fill-opacity:1;stroke:#000000;stroke-width:1.27045;stroke-dasharray:none;stroke-opacity:1" />
    <path
       d="m 148.15,289.54 3.95,1.23 -2.51,8.42 -0.9,9 6.33,-0.78 0.82,4.31 -4.47,10.33 -4.15,3.09 0.91,5.02 -4.56,7.97 -4.61,2.38 -1.5,5.01 -1.4,15.06 2.17,6.3 9.94,-0.75 1.72,-4.17 5.02,0.12 2.41,11.11 12.14,9.89 -2.1,2.16 0.68,12.53 -2.14,7.4 -1.95,14.75 -9.21,-2 -4.5,-2.79 -13.62,0.75 -1.84,4.39 -4.88,1.45 -7.4,6.43 -6.85,0.14 -7.29,-4.61 -5.54,11.69 -0.78,12.15 -3.64,7.65 8.29,9.44 1.55,7.83 9.46,8.19 6.53,12.8 3.01,3.12 -6.08,5.95 -2.36,7.43 4.45,4.66 -3.21,8.5 -0.56,7.06 -4.39,2.51 -0.99,5.27 -7.89,6.81 -13.03,0.04 -7.01,-10.17 -1.41,-7.5 -6.44,-4.31 -7.39,-1.72 -7.41,2.4 -10.57,-9.82 -4.27,0.66 -2.04,-6.7 -3.9,-2.16 -0.58,-5.91 -8.23,-6.31 -6.16,0.96 -1.95,-3.27 -13.29,0.67 -1.97,-8.13 8.54,-3.25 5.27,-6.35 2.9,-7.05 3.23,-15.65 5.27,-4.14 -1.91,-8.83 0.77,-7.23 4.99,-1.58 1.1,-7.56 -15.06,-5.14 -3.04,-3.78 -7.4,-3.84 -6.78,-5.66 1.47,-4.8 13.16,-9.24 L 18.61,387 6.18,385.55 1.96,383.58 1,372.76 l 2.5,-4.86 10.49,-0.04 6.4,-3.83 5.41,1.06 -4.69,-10.75 0.4,-7.3 5.84,-5.41 -2.1,-9.8 -4.26,-10.24 -0.97,-8.04 -2.64,-5.7 h -5.4 l -4.27,-5.23 16.76,-14.45 -1.32,-7.87 1.72,-2.81 14.83,-1.95 -0.8,-7.74 1.92,-11.41 2.78,-1.5 -1.56,-6.63 1.89,-3.65 -0.53,-7.57 3.73,-6.53 -1.68,-5.78 9.89,-2.76 3.29,-3.81 6.69,-2.14 1.55,4.12 4.75,0.46 6.29,7.92 0.06,5.7 12.34,3.6 -0.02,4.47 7.34,8.46 4.26,1.14 6.47,9.16 9.43,4.52 0.43,8.9 7.28,6.59 2.42,10.18 z"
       id="M44204"
       style="fill:#ffff80;fill-opacity:1;stroke:#000000;stroke-width:1.27045;stroke-dasharray:none;stroke-opacity:1" />
    <path
       d="m 248.69,289.03 -6.54,2.47 -4.61,7.44 -5.28,-6.06 -7.03,1.89 -2.45,-6.68 -4.44,-5.52 -6.35,5.07 -2.85,-1.91 -4.93,-9.8 -7.05,0.7 -3.91,7.21 -8.29,-3.08 -10.28,-12.21 -5.4,0.1 -6.46,3.41 -7.59,0.17 -4.99,8.46 -2.09,8.85 -20.23,1.7 -2.42,-10.18 -7.28,-6.59 -0.43,-8.9 -9.43,-4.52 -6.47,-9.16 -4.26,-1.14 -7.34,-8.46 0.02,-4.47 -12.34,-3.6 -0.06,-5.7 -6.29,-7.92 -4.75,-0.46 -1.55,-4.12 2.24,-6.9 7.98,-14.39 12.14,-6.03 9.61,-10.27 6.25,-0.18 9.38,-3.68 8.69,2.36 13.04,-7.61 11.13,8.5 6.2,-1.75 10.49,3.69 16.37,-1.83 8.53,4.31 7.11,-0.26 20.88,-4.59 8.11,1.45 -5,-7.3 -0.86,-9.54 6.36,-4.33 6.43,-7.33 2.32,-10.63 -2.79,-7.49 -6.42,-5.21 -2.29,-5.7 0.58,-6.63 3.2,-4.48 -0.29,-6.1 4.55,-8.32 12.59,-0.88 10.94,9.24 10.41,2.58 4.22,-7.33 8.41,5.83 -1.79,3.3 7.78,4.85 3.35,6.92 3.51,2.07 -4.08,21.02 -7.78,-0.38 -4.89,12.78 2.8,9.04 10.28,19.77 -8.4,13.79 -7.61,3.38 -3.71,-1.09 3.29,16.97 -1.86,3.86 1.43,6.74 4.9,9.34 0.67,12.37 -7.93,-0.53 -9.72,1.27 1.1,10.82 -4.87,8.17 5.25,6.07 -2.62,7.47 z"
       id="M44203"
       style="fill:#ffff80;fill-opacity:1;stroke:#000000;stroke-width:1.27045;stroke-dasharray:none;stroke-opacity:1" />
    <path
       d="m 440.01,361.92 -0.95,8.46 3.02,4.31 -7.14,-2.52 -3.75,1.73 1.52,16.11 -11.63,-1.67 -2.62,3.23 -12.81,-7.54 -1.55,-4.72 -12.65,6.23 -1.38,-3.82 -14.86,4.86 -7.4,4.62 -14.04,-4.73 -2.03,-10.81 9.65,-12.81 -2.02,-12.27 10,-1.63 8.99,-6.28 -1.35,-3.87 2.87,-9.74 6.86,-6.93 0.3,-4.24 -8.67,-1.55 -4.95,4.64 -8.66,-4.59 -1.37,-6.27 3.72,-7.43 -0.95,-4.99 9.54,0.53 4.2,4.89 11.06,-1.65 19.63,-7.04 9.58,1.56 6.29,4.5 -0.3,12.56 5.25,14.96 -0.68,6.66 3.32,19.71 z"
       id="M44202"
       style="fill:#ffff80;fill-opacity:1;stroke:#000000;stroke-width:1.27045;stroke-dasharray:none;stroke-opacity:1" />
    <path
       d="m 537.74,2.09 7.04,1.48 4.54,3.41 -9.03,5.29 -6.59,6.55 -4.8,-3.38 -7.6,-0.31 -0.6,-6.7 6.16,0.23 7.95,-7.66 z"
       id="M44322"
       style="fill:#ffff80;fill-opacity:1;stroke:#000000;stroke-width:1.27045;stroke-dasharray:none;stroke-opacity:1" />
    <path
       d="m 375.7,298.23 10.55,-6.04 1.22,0.45 11.33,-13.07 -2.08,-3.54 2.26,-10.7 17.98,6.36 1.83,-3.68 16.45,-1.58 1.46,-4.22 7.91,-0.11 -1.71,-5.67 6.43,-7.14 6.89,-3.8 0.65,-5.59 6.11,-1.17 4.93,9.21 -2.53,12.23 6.34,1.14 1.84,6.67 6.15,-0.7 4.69,-4.51 10.15,5.33 7.33,2.35 0.98,10.51 -12.02,1.52 -0.76,15.42 -7.53,2.31 -14.54,-4.07 -5.9,1.77 -5.94,-3.9 -2.77,-8.02 -10.2,-1.49 -15.17,5.4 -1.57,10.59 -6.29,-4.5 -9.58,-1.56 -19.63,7.04 -11.06,1.65 z"
       id="M44341"
       style="fill:#ffff80;fill-opacity:1;stroke:#000000;stroke-width:1.27045;stroke-dasharray:none;stroke-opacity:1" />
  </g>
</svg>
