<?xml version="1.0" encoding="UTF-8" standalone="no"?>
<svg
   version="1.2"
   width="690"
   height="600"
   viewBox="0 0 690 600"
   stroke-linecap="round"
   stroke-linejoin="round"
   id="svg1780"
   sodipodi:docname="on.svg"
   inkscape:version="1.2 (dc2aedaf03, 2022-05-15)"
   xmlns:inkscape="http://www.inkscape.org/namespaces/inkscape"
   xmlns:sodipodi="http://sodipodi.sourceforge.net/DTD/sodipodi-0.dtd"
   xmlns="http://www.w3.org/2000/svg"
   xmlns:svg="http://www.w3.org/2000/svg">
  <defs
     id="defs1784" />
  <sodipodi:namedview
     id="namedview1782"
     pagecolor="#505050"
     bordercolor="#eeeeee"
     borderopacity="1"
     inkscape:showpageshadow="0"
     inkscape:pageopacity="0"
     inkscape:pagecheckerboard="0"
     inkscape:deskcolor="#505050"
     showgrid="false"
     inkscape:zoom="1.1207642"
     inkscape:cx="306.93342"
     inkscape:cy="356.89932"
     inkscape:window-width="1920"
     inkscape:window-height="1009"
     inkscape:window-x="-8"
     inkscape:window-y="-8"
     inkscape:window-maximized="1"
     inkscape:current-layer="svg1780" />
  <g
     id="g2007"
     inkscape:label="on">
    <path
       d="m 381.25017,213.24529 -0.0576,1.78572 1.4401,1.12328 1.15208,1.6129 1.09447,3.48504 -0.0288,0.92166 1.5265,1.92973 0.25922,3.13941 -1.00807,-0.0288 -0.28802,2.30416 0.37443,1.44009 -5.55878,0.97927 -1.92973,-1.12328 -0.17281,-1.32489 -5.44357,-1.09447 -1.5553,-1.4977 -1.55531,-0.54724 -2.93779,0.72005 -1.4113,-0.80645 -3.74425,1.5841 -1.4977,1.23849 -0.48963,1.72811 -1.49771,1.67052 -0.34562,0.57603 -0.20161,-1.98733 -0.74885,-2.10254 -0.77765,-0.28802 0.0576,-2.30416 1.23848,-1.15207 5.67398,-3.80186 h 1.4401 l 0.54724,-0.97926 1.92973,-0.14401 2.67858,0.54723 2.33296,-0.83525 -0.51844,-1.4689 1.72812,-2.13135 1.92973,-0.51843 0.77765,1.90093 1.35369,0.66244 1.84332,-2.21775 -0.0864,-1.23848 1.03687,-2.33296 z"
       id="M47314"
       style="fill:#ffff80;fill-opacity:1;stroke:#000000;stroke-width:1;stroke-dasharray:none;stroke-opacity:1" />
    <path
       d="m 386.37691,224.10362 -1.5265,-1.92973 0.0288,-0.92166 -1.09447,-3.48504 -1.15208,-1.6129 -1.4401,-1.12328 0.0576,-1.78572 1.90092,-1.44009 0.20162,-0.95047 1.41129,-0.69124 2.44817,-0.63365 1.06567,0.43203 1.4977,-1.00807 2.01614,-2.76498 1.90092,0.0864 5.99081,2.18894 0.63364,1.87213 -1.69931,1.64171 0.69124,1.55531 1.95853,1.75691 0.37443,1.23848 -0.51844,1.92973 -1.69931,0.89286 -0.92166,1.55531 -2.909,1.12327 -3.54264,0.97927 -1.4977,-1.52651 -2.27535,-0.20161 -1.00807,1.12328 0.31682,1.12327 z"
       id="M47313"
       style="fill:#ffff80;fill-opacity:1;stroke:#000000;stroke-width:1;stroke-dasharray:none;stroke-opacity:1" />
    <path
       d="m 381.25017,213.24529 -1.4401,-0.57604 -1.03687,2.33296 0.0864,1.23848 -1.84332,2.21775 -1.35369,-0.66244 -0.77765,-1.90093 -1.92973,0.51843 -1.72812,2.13135 0.51844,1.4689 -2.33296,0.83525 -2.67858,-0.54723 -1.92973,0.14401 -0.54724,0.97926 h -1.4401 l -5.67398,3.80186 -1.23848,1.15207 -0.0576,2.30416 -3.16822,0.34562 -3.48503,2.41937 -0.89286,2.10254 -1.72812,0.86406 -2.13134,2.01613 -1.4689,0.77765 -0.63364,1.78572 -2.76499,-0.37442 -1.06567,-1.12328 -2.07374,-0.51843 -3.19702,1.32489 -0.17281,0.89286 -2.10254,-0.80646 -0.72005,-1.32489 1.64171,-1.64171 2.44817,-1.20968 2.39056,-1.95853 1.64171,-2.47697 0.60484,1.12328 2.04494,1.06567 0.37442,1.09447 1.23848,0.14401 1.49771,-0.77765 0.83525,0.40323 1.67051,-1.26729 0.25922,-1.4689 -0.46083,-1.5265 0.77765,-1.4977 1.67052,-0.72005 3.13941,-3.16821 1.4977,-0.17281 1.18088,-0.95047 1.20968,-2.47696 1.20968,0.37442 1.32489,-0.74885 0.14401,-1.87212 -1.4113,-2.70739 1.00807,-2.50576 1.75692,-0.48964 1.4689,1.61291 0.95046,-1.26728 0.95047,-0.0576 1.12327,-1.81452 1.75692,0.25921 1.81452,0.86406 1.12328,1.26729 1.5265,-0.54724 0.74885,-2.41936 1.78572,-0.20162 2.01614,-1.41129 2.79379,0.48963 0.77765,-0.57604 0.66244,-1.92973 -0.0864,-1.32489 1.5841,0.17281 0.63365,-1.09447 1.23848,0.77765 1.06567,1.92973 -0.37442,1.00807 1.26728,2.79379 -1.41129,0.69125 -0.20162,0.95046 z"
       id="M47311"
       style="fill:#ffff80;fill-opacity:1;stroke:#000000;stroke-width:1;stroke-dasharray:none;stroke-opacity:1" />
    <path
       d="m 364.42983,166.18292 2.13135,1.4977 -1.00807,2.53457 -1.75692,1.64172 -0.54724,1.78572 -1.06567,-0.63365 0.23042,-2.18894 -1.23849,-2.9378 0.86406,-0.92166 z m -13.79613,1.03687 1.18088,0.97927 -0.86405,1.00807 -1.23849,-1.35369 z m 27.90908,-15.81226 0.20162,3.60024 -0.43203,2.24655 1.5265,0.23042 0.60484,1.61291 1.23848,1.44009 4.20509,0.28802 1.92973,1.32489 1.81452,-0.31682 -0.0576,2.47697 1.18088,4.03227 -1.03687,2.33296 -2.13135,0.60484 -1.61291,2.01613 -2.04493,-0.11521 -1.06568,-1.06567 -3.68664,0.17281 -2.24656,1.78572 -1.75691,2.8514 -1.55531,1.29608 -0.46083,1.32489 0.43203,1.4113 -1.4401,-0.28802 -0.1152,-2.47697 -2.04494,-3.28342 -0.0576,-1.32489 -1.12327,-2.16014 -0.66245,0.14401 -0.40322,-3.16822 0.0576,-2.27535 1.84332,-1.67051 1.4401,-0.37443 -0.51843,-3.60024 -1.4113,-1.95853 -2.64978,-1.75692 -0.0576,-1.98733 0.80645,-1.29609 0.86406,-2.53457 -0.11521,-1.72812 1.61291,0.46083 1.06567,1.12328 3.91707,1.5553 1.35369,-0.14401 0.66244,-0.86406 z"
       fill-rule="evenodd"
       id="M47308"
       style="fill:#ffff80;fill-opacity:1;stroke:#000000;stroke-width:1;stroke-dasharray:none;stroke-opacity:1" />
    <path
       d="m 389.71794,170.67603 1.03687,-2.33296 -1.18088,-4.03227 0.0576,-2.47697 -1.81452,0.31682 -1.92973,-1.32489 -4.20509,-0.28802 -1.23848,-1.44009 -0.60484,-1.61291 -1.5265,-0.23042 0.43203,-2.24655 -0.20162,-3.60024 3.62905,-0.72005 0.89286,0.51843 3.77305,-1.6129 2.85139,0.23041 2.8514,2.07374 0.72004,0.95047 4.52191,1.4977 2.30415,0.37442 2.41937,1.03687 0.69124,1.4689 -3.25462,1.90093 -0.86405,1.4689 v 2.64978 l -1.20968,2.47696 0.57603,1.12328 -1.72811,0.28802 1.09447,1.26728 -0.80645,2.16015 -2.21775,0.77765 -0.66245,-1.32489 -1.44009,1.67051 -1.32489,-1.29608 z m 15.84106,-23.01275 2.9666,1.23848 -0.0864,3.11061 -1.06567,1.4689 -1.95854,-0.11521 -1.32489,-1.09447 -0.86405,-2.82259 1.18088,-1.61291 z"
       fill-rule="evenodd"
       id="M47306"
       style="fill:#ffff80;fill-opacity:1;stroke:#000000;stroke-width:1;stroke-dasharray:none;stroke-opacity:1" />
    <path
       d="m 473.44517,161.94904 -0.28801,2.62097 -2.01614,0.17282 -0.17281,1.12327 -1.32489,1.26729 0.46083,1.4689 -1.35369,0.69124 -0.80646,1.84333 -1.67051,1.75692 -1.90093,0.0864 -2.30415,0.95046 -1.75692,-0.17281 -1.06567,0.89286 -4.00347,0.17281 -4.4643,0.51843 -2.10254,-1.00806 -3.08181,-0.40323 -0.97927,-0.69125 -2.93779,0.43203 -0.86406,1.90093 0.92166,2.39056 1.18088,0.69125 0.43203,2.36176 -0.92166,1.15207 0.0288,1.20969 -2.62098,-0.37443 -0.77765,-0.60484 -2.50577,-0.0576 -1.75692,-0.48963 1.38249,3.0818 -2.30415,0.97927 -2.01614,-1.72812 -1.09447,-1.41129 -3.62904,-2.9378 0.74885,-1.81452 2.62097,-2.53457 -0.14401,-1.15208 1.58411,-1.4689 1.03687,0.74885 0.63364,-2.04494 1.58411,-1.46889 1.38249,-0.0864 0.89286,-1.95854 0.74885,-0.28802 2.36176,0.74885 0.72005,0.69125 1.84332,-0.0864 2.39057,-1.15208 1.72811,-1.35369 1.90093,-3.94586 1.20968,-1.09448 2.01614,-0.92166 1.20968,-1.75692 0.17281,-1.78572 1.95853,-1.87212 1.64171,-0.0288 0.63365,-2.73619 2.85139,-1.72811 0.86406,-1.23849 3.25461,1.4401 2.39057,0.17281 0.37442,4.06107 1.67051,1.06568 0.28802,2.01613 1.29609,1.23849 1.29609,2.18894 z"
       id="M47303"
       style="fill:#ffff80;fill-opacity:1;stroke:#000000;stroke-width:1;stroke-dasharray:none;stroke-opacity:1" />
    <path
       d="m 455.73198,155.23819 -1.95853,1.87212 -0.17281,1.78572 -1.20968,1.75692 -2.01614,0.92166 -1.20968,1.09448 -1.90093,3.94586 -1.72811,1.35369 -2.39057,1.15208 -1.84332,0.0864 -0.72005,-0.69125 -2.36176,-0.74885 -0.74885,0.28802 -0.89286,1.95854 -1.38249,0.0864 -1.58411,1.46889 -0.63364,2.04494 -1.03687,-0.74885 -1.58411,1.4689 0.14401,1.15208 -2.62097,2.53457 -0.57604,-1.5265 -2.62098,-2.18895 -0.95046,-4.4643 -0.77766,-1.20968 2.8802,-2.39056 1.64171,-2.47697 1.61291,-0.66245 2.85139,0.54724 1.12328,0.92166 1.64171,-0.34562 -0.0288,-1.69931 -1.06567,-0.95047 -3.053,-1.00807 -2.30416,-1.35369 -0.40323,-0.95046 2.47697,-3.25462 1.4977,-1.4977 1.4689,-2.44817 2.24655,0.0288 4.83873,-1.72811 0.77765,-1.4977 2.13134,-1.23849 1.90093,1.35369 1.87213,0.46083 1.20968,1.72812 2.9666,0.92166 1.32489,0.89286 z"
       id="M47302"
       style="fill:#ffff80;fill-opacity:1;stroke:#000000;stroke-width:1;stroke-dasharray:none;stroke-opacity:1" />
    <path
       d="m 473.44517,161.94904 -1.15207,-0.25922 -1.29609,-2.18895 -1.29609,-1.23848 -0.28802,-2.01614 -1.67051,-1.06567 -0.37442,-4.06107 -2.39057,-0.17281 -3.25461,-1.4401 -0.86406,1.23848 -2.85139,1.72812 -0.63365,2.73618 -1.64171,0.0288 -3.16821,-3.25461 -1.32489,-0.89286 -2.9666,-0.92167 -1.20968,-1.72811 -1.87213,-0.46083 -1.90093,-1.3537 1.4113,-1.67051 -0.0576,-3.25462 -1.12328,-1.98733 0.51843,-0.74885 1.67052,-0.11521 2.24655,-1.20968 2.82259,-0.54724 1.61291,-1.64171 0.43203,-1.92973 4.32029,-2.70738 -0.23042,-1.58411 1.4401,-0.83525 3.91706,-3.83066 0.31682,-1.75692 1.67052,-0.57604 -0.14401,-2.36176 2.44816,-4.78112 1.23848,-1.4689 1.26729,-3.60024 1.00807,-0.83526 0.17281,-3.45623 -1.81452,-1.06567 -0.63365,-1.35369 0.69125,-2.76499 2.9666,-2.30416 1.67051,0.40323 -0.46083,2.36176 2.33296,2.33296 2.9378,1.4401 -0.23042,0.77765 1.4113,1.32489 1.18088,0.31682 0.74885,1.5265 1.4689,-1.5265 1.5841,0.11521 0.80646,3.19701 -0.54724,1.38249 1.29609,2.10255 1.41129,0.86405 0.74885,1.84333 0.95047,0.95046 -0.77766,1.90093 0.97927,2.88019 -1.20968,1.06568 2.47697,3.28342 0.1152,1.20968 -1.15207,2.47697 0.60484,1.5553 -0.89286,2.56337 1.4689,1.32489 0.0864,1.03687 -1.90093,0.97927 -0.77765,3.54264 -3.0242,1.41129 0.0864,1.12328 -0.86406,1.67051 -1.20968,-0.0576 -1.41129,1.09447 1.5553,1.4113 -2.24655,1.29609 0.77765,2.04493 -1.72811,1.06568 -2.13135,2.01613 -0.14401,4.32029 -1.46889,2.16015 z"
       id="M47301"
       style="fill:#ffff80;fill-opacity:1;stroke:#000000;stroke-width:1;stroke-dasharray:none;stroke-opacity:1" />
    <path
       d="m 337.75924,288.41835 -0.92167,1.09448 -0.28801,2.10254 0.60484,1.5265 2.18894,0.23042 3.39863,1.81452 -0.0288,1.78572 -1.26728,0.34562 -1.4113,2.50577 -2.41936,2.04494 0.34562,0.77765 -3.36983,-1.64171 h -3.60024 l -0.80645,-0.60484 -1.55531,-0.89286 0.0576,-2.10254 -0.80646,-0.57604 1.35369,-1.55531 0.0576,-1.44009 1.41129,-2.16015 1.03687,-0.40323 1.55531,-2.01613 1.84332,-0.0864 1.32489,-1.23848 z"
       id="M47329"
       style="fill:#ffff80;fill-opacity:1;stroke:#000000;stroke-width:1;stroke-dasharray:none;stroke-opacity:1" />
    <path
       d="m 342.74197,295.18681 -3.39863,-1.81452 -2.18894,-0.23042 -0.60484,-1.5265 0.28801,-2.10254 0.92167,-1.09448 -0.54724,-1.38249 1.00807,-0.97927 0.80645,-2.30415 2.44817,-3.39863 1.15207,-2.13134 0.66245,-0.34563 2.56337,1.15208 1.4689,-0.0576 2.79379,-1.52651 0.69125,2.01614 -0.20162,1.84332 -1.84332,0.66245 -3.13941,2.9954 -0.51844,2.01614 -1.81452,3.13941 -0.0576,3.83066 z"
       id="M47328"
       style="fill:#ffff80;fill-opacity:1;stroke:#000000;stroke-width:1;stroke-dasharray:none;stroke-opacity:1" />
    <path
       d="m 350.11527,277.44481 -2.79379,1.52651 -1.4689,0.0576 -2.56337,-1.15208 -0.66245,0.34563 -0.92166,-1.78572 -1.18088,-0.86406 -0.97926,-2.36176 0.92166,-1.61291 1.84332,-1.75692 -0.31682,-0.86406 2.04494,0.43203 0.95046,-0.66244 0.97927,-1.78572 1.78572,-0.51844 0.74885,0.95047 -0.43203,2.76498 1.06567,2.70739 3.97467,-0.48964 0.92166,0.77765 -1.64171,0.31683 -1.78572,-0.63365 -1.35369,2.01614 z"
       id="M47327"
       style="fill:#ffff80;fill-opacity:1;stroke:#000000;stroke-width:1;stroke-dasharray:none;stroke-opacity:1" />
    <path
       d="m 341.99312,268.97704 0.31682,0.86406 -1.84332,1.75692 -0.92166,1.61291 0.97926,2.36176 -3.34102,-0.51844 -1.4401,1.4401 -1.35369,-0.57604 0.0576,-2.04494 0.77766,-2.47696 -1.23849,-0.28802 -0.77765,-2.33296 -1.78572,-1.29609 -0.92166,-2.53457 1.20968,-2.67858 -0.37443,-0.89286 1.23849,-0.28802 1.92973,1.06567 1.90093,-0.66244 1.41129,0.34562 1.06567,-1.4689 1.20968,0.92167 -1.5553,1.12327 1.78572,2.9954 -0.31682,1.12328 z"
       id="M47326"
       style="fill:#ffff80;fill-opacity:1;stroke:#000000;stroke-width:1;stroke-dasharray:none;stroke-opacity:1" />
    <path
       d="m 340.09219,261.28693 -1.20968,-0.92167 -1.06567,1.4689 -1.41129,-0.34562 -1.90093,0.66244 -1.92973,-1.06567 -1.23849,0.28802 -0.17281,-2.67858 -1.03687,0.34562 -0.83525,-3.54263 2.9954,-0.69125 1.5553,-1.18088 1.69932,-0.20161 2.16014,-0.86406 -0.0576,-2.41937 0.80645,-1.12327 0.34563,-2.41936 3.28342,-5.18435 0.86406,0.17281 0.0288,1.81452 -0.77765,4.80992 -1.15208,1.15208 0.40323,2.76499 -1.26729,2.04494 0.31682,4.69471 1.4401,0.66245 z"
       id="M47325"
       style="fill:#ffff80;fill-opacity:1;stroke:#000000;stroke-width:1;stroke-dasharray:none;stroke-opacity:1" />
    <path
       d="m 330.24193,237.06449 0.72005,1.32489 2.10254,0.80646 0.17281,-0.89286 3.19702,-1.32489 2.07374,0.51843 1.06567,1.12328 2.76499,0.37442 -0.25922,2.41937 -3.28342,5.18435 -0.34563,2.41936 -0.80645,1.12327 0.0576,2.41937 -2.16014,0.86406 -1.69932,0.20161 -1.5553,1.18088 -2.9954,0.69125 -1.92973,-3.91707 -0.31682,-1.69931 -1.15208,-1.4113 -2.59218,-5.18435 -0.83525,-2.88019 0.48963,-5.84679 0.43203,-0.97927 -0.63364,-2.21775 2.88019,0.25922 3.08181,5.38596 z"
       id="M47324"
       style="fill:#ffff80;fill-opacity:1;stroke:#000000;stroke-width:1;stroke-dasharray:none;stroke-opacity:1" />
    <path
       d="m 348.38715,140.05956 2.9378,1.95854 0.72005,1.35369 2.07374,1.32489 0.63364,2.10254 -0.74885,2.21775 -4.83872,0.92166 -2.10255,-0.0288 -2.21775,-0.72005 -2.41936,-0.17281 -2.50577,0.46083 -4.4931,-0.0288 -1.35369,-0.40323 -1.09447,-1.23848 -0.80646,-2.56337 1.58411,-4.03227 1.5841,-0.74885 2.21775,0.20161 2.13135,0.97926 1.84332,0.20162 3.19702,-0.34562 0.95046,-0.69125 z"
       id="M47315"
       style="fill:#ffff80;fill-opacity:1;stroke:#000000;stroke-width:1;stroke-dasharray:none;stroke-opacity:1" />
    <path
       d="m 18.962037,441.50657 3.62905,0.92166 5.06914,2.44816 0.48963,0.92167 -1.67051,1.06567 -1.29609,1.92973 -2.53457,1.29608 -2.24655,2.47697 -2.67858,-1.15208 -1.38249,0.46084 -3.45624,-0.97927 -0.69124,1.4401 -2.2753605,0.31682 -1.95853,-0.14401 -0.89286,-0.74885 -4.17628,-1.26729 -2.16013999,0.0576 -0.23042,-1.20969 0.92165999,-1.12327 0.20162,-1.90093 3.16821,-1.15208 0.0576,-1.41129 2.01614,-1.75692 1.38249,0.83526 3.2834205,0.37442 4.23389,-1.38249 1.09447,0.95046 z"
       id="M47382"
       style="fill:#ffff80;fill-opacity:1;stroke:#000000;stroke-width:1;stroke-dasharray:none;stroke-opacity:1" />
    <path
       d="m 217.43621,475.37765 2.16014,0.95046 1.20969,1.29609 0.23041,1.78572 -0.74885,0.69125 -3.16821,-2.10255 -1.69932,-1.92973 0.0288,-1.5841 z m -1.64171,-5.52997 -1.38249,2.16014 -0.51844,2.27535 -1.92973,-1.64171 0.80646,-2.18894 z m 16.99314,92.54063 2.36176,0.43203 2.9666,1.12327 0.86406,0.95047 -0.0864,1.38249 -1.32488,2.50577 -1.67052,0.40323 -0.97926,0.92166 -2.909,-0.0288 -0.74885,-0.54724 -1.92973,0.28802 -3.97467,-0.48964 -2.01613,-1.38249 0.31682,-2.9378 1.38249,-0.17281 4.78112,-2.39056 z m -1.18088,-109.8506 2.47697,3.11061 2.04494,1.4401 0.37442,2.01613 2.9378,1.32489 0.37443,0.86406 -1.00807,2.53457 2.04494,2.67858 1.20968,-0.20161 0.28802,-1.29609 1.92973,-0.95046 0.80645,-2.50577 1.81452,1.18088 1.4401,0.37442 1.12328,-0.66244 1.75691,0.57604 -0.0864,1.09447 1.95853,1.26728 1.55531,-1.00806 0.72004,-1.92973 3.02421,1.5265 0.34562,3.25462 1.23848,1.15208 1.23849,-0.80646 2.27535,1.09448 0.86406,-0.51844 3.85946,2.13134 0.37442,2.04494 1.18088,1.52651 4.3491,0.28801 0.57604,1.55531 -0.66245,0.54724 -0.54724,2.70738 -2.24655,1.5265 0.11521,1.98734 -0.46083,1.20968 0.83526,1.75691 -1.26729,0.51844 0.17281,1.4401 -0.74885,1.00806 -1.20968,-1.75691 h -2.10254 l -0.17281,1.38249 -2.24655,3.34102 -0.83526,2.18895 1.20968,3.74425 -0.11521,2.8514 -0.63364,1.5841 -2.67858,-2.01613 -2.73618,0.0288 0.89286,3.16821 -0.83526,1.58411 0.37442,1.00807 -0.54723,1.4977 -1.78572,0.31682 -3.13941,-0.34562 -2.909,-1.69932 -1.95853,-1.69931 -3.13941,-1.32489 -3.85946,0.48963 -2.13135,-0.20161 -1.5841,0.46083 -4.3491,-1.67051 -4.4643,-0.34563 -5.09794,-1.03687 -1.4977,-1.29608 -2.41936,-1.4113 0.0864,-0.51843 -2.10254,-1.72812 -2.76499,-1.00807 -0.83525,2.9666 0.43203,0.89286 -0.72005,2.53457 -0.83526,0.20162 -3.48503,-0.48964 -1.87213,-1.29609 -1.4977,0.51844 -2.9378,-0.43203 -2.88019,-4.00347 -0.51844,-1.4401 -1.67051,-2.10254 2.44817,-1.67051 1.69931,0.66244 1.38249,1.20969 1.4113,-0.83526 -1.92973,-3.51384 0.86406,-2.59217 0.95046,-0.57604 1.4977,1.32489 2.36176,0.74885 1.09447,2.16014 1.06568,-1.4977 -1.58411,-2.9666 -0.57604,-1.95853 1.4689,0.0288 2.16015,2.21775 2.93779,-2.50577 1.29609,-0.23041 -0.28802,2.33296 2.56337,1.35369 0.48964,2.36176 1.5841,0.92166 0.89286,2.10254 0.83526,-0.37442 -0.97927,-2.8802 -0.14401,-2.76499 0.72005,-2.07373 -1.4977,-1.29609 2.41936,-3.16822 -0.40322,-1.81452 h -1.4977 l -0.95047,-2.73618 1.95853,-0.80646 0.74886,-1.75691 -1.20969,-1.3825 -0.69124,-2.18894 1.78572,-0.77766 0.34562,-1.92973 -0.72005,-1.03687 0.54724,-1.15207 1.4689,-0.95047 0.72005,-1.84332 3.16821,-0.97927 0.43203,-1.41129 -0.51844,-1.29609 -2.27535,-1.12328 1.67051,-1.95853 z m 41.44599,65.12119 0.54724,1.00806 -0.20161,1.64171 -0.97927,0.89286 -1.81452,-0.69124 -1.32489,-1.87213 1.18088,-1.00807 z m -31.99895,-76.95879 1.5265,0.28802 0.83526,1.26729 -0.51844,1.12327 -2.07374,-0.37442 -0.83525,-1.23849 z m 36.46326,70.36314 0.95046,1.58411 -3.48504,3.48503 -1.44009,-0.74885 0.69124,-1.90093 2.62098,-2.33295 z m 6.50923,-33.64066 2.44817,0.77765 2.39056,1.61291 -0.72005,1.75691 1.4401,1.4401 2.04494,1.00807 0.0576,1.78572 -2.47697,0.97927 -1.26728,-0.28802 -0.14401,-1.32489 -1.4113,-0.63365 -5.55877,-0.51843 -1.15208,-0.86406 2.70738,-0.83525 0.14401,-1.4401 -1.5553,-1.55531 0.34562,-0.89286 z m 6.88367,-3.62905 1.26728,1.4689 -0.92166,0.48963 -1.4689,-1.20968 z m 1.26728,34.56233 3.22582,1.41129 2.21775,-0.92166 1.20968,1.4113 0.40323,2.27535 -0.92166,2.27535 -3.57144,2.62098 -1.67052,0.34562 -1.72811,-1.15207 -0.80646,-1.87213 -1.98733,-3.25462 -0.0576,-1.81452 2.01614,-1.98734 z m 22.78234,-26.49779 1.44009,0.92167 1.67052,2.39056 0.83525,2.41936 -2.59217,2.16015 -2.16015,0.57603 -1.20968,-0.51843 -1.00807,-2.13134 -0.17281,-1.4113 0.89286,-0.83526 0.37443,-2.41936 z"
       fill-rule="evenodd"
       id="M47381"
       style="fill:#ffff80;fill-opacity:1;stroke:#000000;stroke-width:1;stroke-dasharray:none;stroke-opacity:1" />
    <path
       d="m 637.63377,105.21722 5.50117,1.61291 3.54264,-0.23041 3.16821,0.97926 0.34563,0.63365 -1.81453,3.62904 -0.63364,2.21775 -1.18088,0.86406 -3.68665,0.20161 -3.053,-1.61291 -1.64171,-2.24655 -0.86406,-2.21775 -0.31682,-2.21775 z"
       fill-rule="evenodd"
       id="M47358"
       style="fill:#ffff80;fill-opacity:1;stroke:#000000;stroke-width:1;stroke-dasharray:none;stroke-opacity:1"
       sodipodi:nodetypes="cccccccccccccc" />
    <path
       d="m 625.16253,132.14704 3.0242,0.11521 1.75692,0.48963 1.92973,1.09447 1.69932,2.56337 0.51843,1.78572 -1.61291,4.23389 v 2.62098 l -1.03687,1.98733 -1.78572,1.81452 -3.62904,1.15208 -2.82259,0.34562 -2.44817,-0.80645 -3.053,-2.33296 1.03687,-2.47696 v -5.12675 l 1.03687,-3.28342 -0.11521,-2.39056 1.55531,-1.15208 z"
       id="M47357"
       style="fill:#ffff80;fill-opacity:1;stroke:#000000;stroke-width:1;stroke-dasharray:none;stroke-opacity:1" />
    <path
       d="m 167.39576,249.39172 1.09448,0.60485 -1.32489,2.50576 0.92166,2.62098 1.03687,0.60484 2.18895,-0.83526 -0.40323,1.58411 -3.68665,2.10254 -1.5265,-1.23848 0.23042,-1.15208 -1.29609,-1.87212 1.32489,-3.19702 z"
       id="M47356"
       style="fill:#ffff80;fill-opacity:1;stroke:#000000;stroke-width:1;stroke-dasharray:none;stroke-opacity:1" />
    <path
       d="m 190.46612,182.08159 2.36176,0.60484 1.61291,2.27536 0.60484,1.90093 -1.81453,2.73618 -1.18088,0.23042 -0.69124,-1.00807 -4.72352,0.77765 -1.4689,0.74885 -1.09447,-0.31682 0.89286,-2.9954 1.44009,-2.10254 1.84333,-1.23849 0.77765,-1.12327 z"
       id="M47355"
       style="fill:#ffff80;fill-opacity:1;stroke:#000000;stroke-width:1;stroke-dasharray:none;stroke-opacity:1" />
    <path
       d="m 191.99262,310.25022 1.98733,2.18895 -0.63364,0.57604 -0.28802,3.31222 -1.32489,-0.57604 -0.83525,-3.48503 z m 3.57144,-12.12561 -0.0864,1.98733 -1.81453,2.27535 -1.06567,-0.89286 0.48963,-3.053 z m 10.88713,10.62791 0.86406,0.46083 0.43203,2.13135 -2.24655,0.89286 -1.06567,-2.16015 1.00807,-1.20968 z m -2.21775,-6.53804 3.19702,4.4355 -1.69931,0.31682 -2.21775,1.26729 -1.29609,-0.80646 0.51843,-0.97926 -2.33295,-0.51844 0.74885,-2.9666 2.59217,-1.64171 z m 3.28343,10.45511 0.80645,2.30415 -1.06567,1.4977 -1.4113,-1.35369 0.80646,-1.81452 z m 4.4643,-12.55765 0.28802,2.13134 1.67051,1.26729 -1.00807,2.07374 -1.06567,-0.80646 0.23041,-1.26728 -0.48963,-1.87213 z m 0.1152,-10.94474 0.17282,1.23849 4.17628,0.95046 1.69931,1.32489 -2.9666,2.56337 -0.43203,-2.50577 -2.50577,0.77766 0.89286,3.053 -2.9666,2.33296 -0.83525,-2.24655 -1.18088,1.09447 -1.23848,-1.09447 -2.36176,-0.14401 -0.14401,-1.87213 2.27535,0.0576 0.77765,-0.63365 0.74885,-1.98733 1.64171,1.32489 1.32489,-0.80646 -0.23041,-1.92973 z"
       fill-rule="evenodd"
       id="M47354"
       style="fill:#ffff80;fill-opacity:1;stroke:#000000;stroke-width:1;stroke-dasharray:none;stroke-opacity:1" />
    <path
       d="m 225.02845,296.91492 2.44816,1.20969 1.5265,2.13134 0.46083,4.03227 -1.12327,0.25922 0.40323,1.98733 -0.54724,1.55531 -1.35369,1.5553 -1.03687,0.43203 -0.20162,2.44817 0.97927,5.61637 -3.13941,0.31683 -0.72005,1.6129 -1.20968,-1.18088 0.0288,-1.69931 0.92166,-2.21775 -1.81452,-1.20968 -0.11521,-2.30416 -0.54723,-1.15207 2.33295,-1.06567 -0.80645,-1.3537 0.17281,-3.51383 1.26729,-1.75692 -0.48964,-0.92166 1.72812,-1.78572 -0.48963,-2.76499 z m 3.0818,-3.1106 1.12328,1.90092 -1.29609,0.60484 -0.57604,-1.09447 z m 23.07036,3.65784 0.54723,1.95853 -1.5265,1.78572 -0.72005,2.79379 -1.78572,-0.25922 1.87213,-4.4643 z"
       fill-rule="evenodd"
       id="M47353"
       style="fill:#ffff80;fill-opacity:1;stroke:#000000;stroke-width:1;stroke-dasharray:none;stroke-opacity:1" />
    <path
       d="m 328.62902,299.5071 1.55531,0.89286 -0.66245,1.35369 1.4977,0.95046 1.06567,1.78573 -0.63364,0.86405 -1.4977,0.37443 -0.28802,2.44816 -1.4977,2.01614 -0.34562,1.5553 0.37442,1.4689 -1.32489,1.29609 -1.5553,-0.83526 -2.01614,-2.67858 -0.72005,-0.0288 -1.20968,-1.4401 -0.46083,-1.64171 1.4977,-1.69931 1.35369,0.0288 0.95047,-0.80645 0.23041,-3.45624 1.3537,-1.64171 z"
       id="M47350"
       style="fill:#ffff80;fill-opacity:1;stroke:#000000;stroke-width:1;stroke-dasharray:none;stroke-opacity:1" />
    <path
       d="m 330.18433,300.39996 0.80645,0.60484 h 3.60024 l 3.36983,1.64171 -1.18088,0.83526 0.92166,1.35369 0.40323,2.27535 1.4977,1.29609 -2.88019,0.72005 -0.83526,-2.59218 -3.45623,-0.63364 -0.97927,-0.54724 0.63364,-0.86405 -1.06567,-1.78573 -1.4977,-0.95046 z"
       id="M47348"
       style="fill:#ffff80;fill-opacity:1;stroke:#000000;stroke-width:1;stroke-dasharray:none;stroke-opacity:1" />
    <path
       d="m 481.52119,355.12955 1.4401,1.95853 0.80646,0.0576 0.66244,2.41936 -0.80645,0.31682 -5.41477,-3.54264 1.32489,-1.35369 z m 3.83066,26.18096 2.79379,0.86406 1.78572,1.35369 0.46083,1.92973 -0.60484,2.9954 -2.88019,2.59218 -2.01614,1.12327 h -4.17628 l -3.39863,-0.74885 -1.38249,-0.80645 -1.26729,-3.85946 0.57604,-2.73618 2.62098,-2.44817 3.94586,-1.12328 z"
       fill-rule="evenodd"
       id="M47375"
       style="fill:#ffff80;fill-opacity:1;stroke:#000000;stroke-width:1;stroke-dasharray:none;stroke-opacity:1" />
    <path
       d="m 322.58061,310.97027 0.72005,0.0288 2.01614,2.67858 1.5553,0.83526 0.37443,4.98274 2.33296,0.14401 0.72004,2.18894 1.92973,1.75692 1.09448,1.64171 1.69931,0.17281 0.80646,2.10254 -1.75692,1.90093 -2.36176,0.46083 -2.13134,2.64978 -1.4113,3.13941 -0.74885,0.31683 -1.98733,-2.47697 -1.03687,-0.43203 -0.72005,-1.67051 -1.67051,-1.58411 0.31682,-0.86406 -1.26729,-1.67051 -0.69124,-1.95853 1.12327,-0.46083 0.74885,-2.9666 -1.58411,-1.20968 -1.15207,0.80645 -1.67052,-1.78572 2.73619,-3.97467 -0.66245,-1.5265 0.0288,-0.80646 1.75691,-1.20968 z"
       id="M47362"
       style="fill:#ffff80;fill-opacity:1;stroke:#000000;stroke-width:1;stroke-dasharray:none;stroke-opacity:1" />
    <path
       d="m 65.868927,246.56913 0.69124,0.0288 2.01614,1.5841 1.35369,1.87213 1.84332,3.39863 1.84333,-0.57604 1.61291,2.18895 0.48963,1.4689 1.38249,1.78572 1.09448,0.46083 0.66244,1.4689 -2.64978,2.16014 0.37443,1.20968 -1.61291,1.18088 -1.18088,2.33296 0.46083,1.18088 -0.83525,3.88826 1.67051,1.4401 0.0576,1.38249 0.89286,1.32489 -0.97926,0.80645 -2.79379,-0.77765 -1.72812,-1.90093 -3.51384,-1.5553 -1.03687,-1.12328 -0.20161,-1.78572 -2.16014,-2.30415 0.48963,-1.35369 -1.4401,-1.32489 -0.37442,-1.15208 -2.24655,-1.26729 -2.47697,-2.18894 -5.70279,-0.89286 -2.18894,-1.3825 -2.18895,-4.34909 0.95046,-1.4401 1.20968,-0.74885 3.62905,-0.14401 2.64978,-0.97926 5.12674,-3.34103 3.13941,-0.60484 z m 14.45857,14.86181 1.5265,1.78572 -2.73618,0.28801 -0.17281,-1.32488 z"
       fill-rule="evenodd"
       id="M47361"
       style="fill:#ffff80;fill-opacity:1;stroke:#000000;stroke-width:1;stroke-dasharray:none;stroke-opacity:1"
       sodipodi:nodetypes="ccccccccccccccccccccccccccccccccccccccccccccccc" />
    <path
       d="m 380.18449,89.97299 0.97927,2.18895 -1.5553,0.37442 -0.46084,-2.44816 z m 3.74426,-16.359501 2.62097,1.411295 2.16015,1.64171 0.48963,3.283422 -0.74885,1.584106 -0.95046,0.345624 -0.20162,1.468898 0.48964,3.225818 -3.57144,0.489633 -1.18088,-0.777653 -1.23849,0.201614 -0.72005,-0.979266 -1.64171,-0.662445 -0.40322,-2.246551 0.57604,-1.468899 -1.15208,-1.180879 -1.64171,-0.518435 2.13134,-3.427431 4.23389,-1.497701 z"
       fill-rule="evenodd"
       id="M47360"
       style="fill:#ffff80;fill-opacity:1;stroke:#000000;stroke-width:1;stroke-dasharray:none;stroke-opacity:1" />
    <path
       d="m 380.41491,59.990171 -0.0864,2.160146 -1.09447,1.152077 -1.32489,-0.633642 -0.86406,-1.209682 2.16015,-1.382493 z m 26.35377,-28.801939 0.17282,1.094474 -1.67052,0.374425 -2.79378,2.793788 -1.20969,1.584107 -1.23848,3.369826 0.57604,0.720049 -0.83526,2.880194 -1.20968,2.419363 -2.13134,1.209681 -1.4401,-0.374425 -1.5553,0.374425 -2.16015,1.641711 -0.31682,1.526503 0.86406,1.411295 -0.92166,1.065671 -1.98734,-0.144009 -2.47696,0.691246 -1.4401,1.440097 -0.37443,3.139412 -1.72811,-1.699315 -0.46083,-1.03687 0.17281,-2.390561 3.48503,-3.542638 1.4977,-3.571441 2.39056,-1.584106 1.92973,-2.131344 0.77766,-1.78572 3.39862,-2.332957 1.3825,-1.296087 1.78572,-2.793789 0.51843,-1.555304 3.51384,-0.403227 3.25462,-1.497701 z"
       fill-rule="evenodd"
       id="M47359"
       style="fill:#ffff80;fill-opacity:1;stroke:#000000;stroke-width:1;stroke-dasharray:none;stroke-opacity:1" />
    <path
       d="m 326.8721,314.51291 1.32489,-1.29609 -0.37442,-1.4689 0.34562,-1.5553 1.4977,-2.01614 0.28802,-2.44816 1.4977,-0.37443 0.97927,0.54724 3.45623,0.63364 0.83526,2.59218 2.88019,-0.72005 0.74885,1.67051 -0.74885,0.95047 0.95047,1.29608 -0.46084,1.00807 3.48504,0.37443 0.17281,-2.9666 1.06567,-1.4113 3.54264,-1.26728 3.60024,-0.57604 0.37443,0.92166 -0.31682,1.95853 2.21775,1.03687 0.37442,1.58411 -0.28802,2.50577 -1.41129,0.0864 -1.75692,2.36176 -1.72812,0.63364 -2.47696,2.56338 -2.73619,3.62904 -2.16014,0.72005 -1.03687,-0.69125 -1.58411,-0.0288 -2.21775,1.38249 v 1.29609 l -1.38249,0.0576 -0.80646,-2.10254 -1.69931,-0.17281 -1.09448,-1.64171 -1.92973,-1.75692 -0.72004,-2.18894 -2.33296,-0.14401 z m 49.30892,-1.00807 -0.0576,0.74885 -5.962,4.75232 -0.72005,-1.4977 1.03687,-1.12327 4.4355,-1.75692 z"
       fill-rule="evenodd"
       id="M47215"
       style="fill:#ffff80;fill-opacity:1;stroke:#000000;stroke-width:1;stroke-dasharray:none;stroke-opacity:1" />
    <path
       d="m 604.13105,330.76311 1.18088,2.85139 2.76499,0.0288 0.20161,0.74885 0.51844,0.11521 1.20968,1.55531 0.23041,0.69124 0.66245,0.28802 0.14401,0.77765 1.84332,1.3537 -0.28802,2.01613 -1.64171,1.26729 -1.81452,0.17281 -1.90093,-0.86406 -2.13134,-0.34562 -1.18088,-2.44817 -1.23849,-0.66244 0.40323,-1.67052 -1.20968,-0.40322 v -3.39863 l 1.26728,-0.66245 z m 5.44357,-7.11408 3.08181,1.12328 1.15207,0.0288 2.76499,2.10254 2.90899,1.18088 3.45624,2.10254 0.25921,1.38249 2.01614,4.32029 0.20161,3.31223 -1.38249,2.16014 -2.9666,0.83526 -2.76498,-0.63364 -3.05301,-1.64171 -1.81452,-0.11521 -0.37443,-0.83526 -1.15208,-0.72005 -0.66244,-1.20968 -0.89286,-0.43203 -1.20968,-2.13134 -0.77765,-0.37443 -0.20162,-0.97926 -0.80645,-0.95047 1.23848,-0.83525 -0.14401,-2.33296 -0.74885,-2.73618 0.63364,-1.4977 z m 21.65906,40.40912 2.59217,1.15208 1.72812,2.47697 -0.43203,1.15207 -1.75692,0.72005 -2.16015,-0.63364 -1.03687,-1.98733 z m -0.34563,-62.4138 h 0.86406 l 2.10254,1.87212 1.06567,2.21775 -1.35369,0.0864 -1.03687,1.09447 -3.34102,-2.04493 -1.00807,-2.33296 2.07374,-1.09448 z m 7.11408,7.14288 1.06567,1.87213 0.28802,1.92973 2.70739,2.56337 0.80645,3.22581 2.39056,1.58411 1.29609,0.11521 1.67051,3.51384 0.46083,1.5553 -0.25922,2.13134 2.16015,4.95394 1.35369,1.32489 3.91706,2.47696 0.83526,1.06568 -0.97927,0.86405 -0.0864,3.88827 1.03687,0.72004 0.57604,1.52651 2.70738,0.60484 1.38249,1.64171 3.28342,0.31682 1.4113,-1.00807 3.19701,1.4113 2.16015,1.38249 0.46083,2.30416 3.22582,2.82259 1.38249,-0.17282 1.23848,0.95047 1.84333,0.20161 1.95853,0.89286 1.98733,-0.31682 2.07374,1.90093 0.63365,2.47696 3.053,3.42744 0.25922,1.44009 -1.20968,0.11521 -0.31682,1.32489 -1.98734,-0.83526 -2.73618,-0.40322 -2.50577,0.69124 -4.4643,-0.72005 -3.94587,0.23042 -2.50576,1.15208 h -1.64172 l -1.29608,-1.06567 -3.39863,1.12327 -3.80186,1.64171 -2.24655,0.23042 -2.76499,-0.25922 -1.6129,0.25922 -1.32489,1.72811 -2.33296,0.46083 -2.39056,-1.46889 -1.03687,-1.32489 0.57604,-1.52651 -0.23042,-1.81452 -1.03687,0.25922 0.95047,2.21775 -0.48964,1.4401 -1.78572,-1.32489 -4.86752,-1.87213 -0.83526,-1.09447 -2.01614,-0.77766 -0.74885,-3.45623 -1.23848,-1.84332 0.86406,-2.39056 1.03687,0.60484 2.04494,2.50577 1.20968,-0.95047 1.38249,1.35369 1.81452,-0.57604 -0.60484,-4.14748 -2.36176,-4.00347 -1.09447,-1.15207 -2.64978,-0.48964 -0.80645,-1.38249 -0.14401,-1.75692 1.5553,-1.32489 1.26729,-0.0864 2.39056,-2.27536 0.86406,-2.07373 0.66244,0.0576 -0.20161,-4.26269 -0.86406,-1.78572 0.0864,-1.06567 1.32489,-1.38249 1.61291,-0.51844 0.86406,1.55531 1.4977,-2.24655 -1.90093,-3.68665 -1.06567,-0.25922 -0.25922,-1.61291 -1.6129,-3.54264 -1.67052,-1.5265 -0.57604,-2.04494 0.28802,-1.4401 -2.47696,-2.79378 1.67051,-0.48964 0.54724,-0.97926 z"
       fill-rule="evenodd"
       id="M47214"
       style="fill:#ffff80;fill-opacity:1;stroke:#000000;stroke-width:1;stroke-dasharray:none;stroke-opacity:1" />
    <path
       d="m 361.40563,266.41367 -3.42743,-2.50577 1.69931,-0.72005 1.61291,-1.4689 1.78572,-0.66244 1.81452,2.36176 0.43203,1.84332 -1.00806,0.80646 -2.16015,-1.90093 -0.86406,0.77765 z m -5.55877,-37.73054 0.77765,0.28802 0.74885,2.10254 0.20161,1.98733 0.60484,1.12328 -0.95046,1.4113 -2.53457,-1.49771 -1.20968,2.79379 0.95046,1.26729 2.16015,0.0864 -0.43203,1.29609 1.15207,2.33296 0.95047,0.11521 3.45623,2.24655 2.70738,2.90899 1.26729,0.34563 2.70738,3.57144 -1.5553,0.66244 0.0288,1.78572 -0.74885,1.95853 0.57604,1.58411 1.26728,1.23848 2.30416,3.62905 1.5265,0.89286 0.89286,1.18088 2.41936,1.00807 2.67858,2.70738 2.21775,6.07721 -0.60484,2.18894 -1.5265,0.17282 -0.77765,-1.58411 -1.4977,-0.89286 -2.27536,-0.63364 -2.56337,-2.33296 -1.4113,-2.16015 -1.06567,-0.74885 -1.15207,-1.75691 -1.4113,-1.15208 -0.69125,-1.4977 -1.69931,-2.56338 -1.72812,0.48964 -1.95853,1.72811 -1.81452,0.77766 -1.75692,-1.95854 -1.78572,-1.03687 -1.32489,-2.24655 0.46083,-1.72811 -1.18088,-0.0288 0.17281,-1.69931 1.09448,-0.20161 1.00807,-2.67858 -0.14401,-1.15208 1.90092,-1.75692 -1.15207,-0.43203 -0.48964,-1.75692 -1.5553,-1.12327 -1.18088,1.23848 -2.62098,-3.31222 -0.86406,1.95853 -1.75691,0.0864 -2.18895,-3.71545 v -1.4689 l -1.4977,-3.60025 1.4689,-0.77765 2.13134,-2.01613 1.72812,-0.86406 0.89286,-2.10254 3.48503,-2.41937 z m 24.45284,38.85382 1.4689,2.13134 -3.053,-0.83526 -0.40323,-1.12327 z m 5.52997,18.57725 0.95047,1.12327 -0.57604,1.29609 0.11521,1.72812 -1.12328,0.60484 -0.57604,1.32489 -1.90093,-1.75692 1.3825,-1.67051 -0.28802,-2.8802 z m 3.31223,-20.53579 2.88019,1.87213 -0.28802,1.20968 -1.4977,0.60484 -0.23041,2.30416 -1.98734,-1.58411 -0.40323,-3.11061 z m 2.50577,-10.94473 0.89286,0.95046 0.20161,2.01614 1.23848,0.31682 -0.0864,1.18088 -3.16822,3.08181 -0.89286,0.54723 -2.93779,-0.51843 -1.52651,-1.55531 0.83526,-1.69931 -0.83526,-1.55531 2.27536,-0.60484 1.09447,0.37443 3.31222,-1.81452 z m 6.0196,-6.19242 1.12328,3.13941 0.74885,3.05301 -0.57604,1.4977 -1.4401,-0.0288 -1.81452,1.35369 -2.82259,0.0576 -0.28802,-3.71545 1.12328,-2.76498 1.29608,-0.89287 1.4689,-0.144 z m 3.28342,-4.83873 0.89286,0.92167 -1.18088,3.13941 -0.28802,1.67051 -1.38249,-0.40323 -0.86406,-2.9954 1.58411,-1.92973 z"
       fill-rule="evenodd"
       id="M47213"
       style="fill:#ffff80;fill-opacity:1;stroke:#000000;stroke-width:1;stroke-dasharray:none;stroke-opacity:1" />
    <path
       d="m 306.53793,317.10508 1.32489,-0.23041 1.26729,0.77765 0.77765,1.38249 -2.18895,0.63365 -2.67858,-0.40323 0.11521,-2.10254 z m 14.37217,-9.21662 0.46083,1.64171 1.20968,1.4401 -0.89286,1.20968 -1.75691,1.20968 -0.0288,0.80646 -0.92166,1.72812 -2.73618,-0.54724 -0.63364,2.07374 -1.32489,1.03687 -1.00807,-1.12328 -2.909,2.16015 -0.92166,-1.55531 -0.46083,-0.51843 -0.63364,-0.31682 -0.43203,-0.60484 -0.31682,0.14401 -1.3825,-0.14401 -1.5265,-2.16015 -0.0864,-1.4689 -1.20968,-1.09447 2.59218,0.31682 1.90093,-0.80646 1.15207,-1.18087 1.75692,0.23041 2.64978,-2.10254 0.74885,-2.85139 1.78572,1.23848 2.62098,-0.34562 z"
       fill-rule="evenodd"
       id="M47212"
       style="fill:#ffff80;fill-opacity:1;stroke:#000000;stroke-width:1;stroke-dasharray:none;stroke-opacity:1" />
    <path
       d="m 357.9782,263.9079 3.42743,2.50577 -0.57604,0.48963 -3.80186,-0.89286 -0.66244,-0.57604 z m -15.63945,-24.91368 0.63364,-1.78572 1.4977,3.60025 v 1.4689 l 2.18895,3.71545 1.75691,-0.0864 0.86406,-1.95853 2.62098,3.31222 1.18088,-1.23848 1.5553,1.12327 0.48964,1.75692 1.15207,0.43203 -1.90092,1.75692 0.14401,1.15208 -1.00807,2.67858 -1.09448,0.20161 -0.17281,1.69931 1.18088,0.0288 -0.46083,1.72811 1.32489,2.24655 1.78572,1.03687 1.75692,1.95854 -1.23848,1.03687 -0.92167,1.6129 2.01614,1.81453 1.20968,0.0864 0.28802,1.64171 -5.01154,0.37443 1.15208,2.36176 2.24655,-0.66245 1.38249,1.09448 -2.56337,1.09447 -1.03687,-1.23848 -1.32489,0.1152 -0.92166,-0.77765 -3.97467,0.48964 -1.06567,-2.70739 0.43203,-2.76498 -0.74885,-0.95047 -1.78572,0.51844 -0.97927,1.78572 -0.95046,0.66244 -2.04494,-0.43203 -1.98733,-2.44816 0.31682,-1.12328 -1.78572,-2.9954 1.5553,-1.12327 1.84333,-1.75692 -1.4401,-0.66245 -0.31682,-4.69471 1.26729,-2.04494 -0.40323,-2.76499 1.15208,-1.15208 0.77765,-4.80992 -0.0288,-1.81452 -0.86406,-0.17281 z"
       fill-rule="evenodd"
       id="M47211"
       style="fill:#ffff80;fill-opacity:1;stroke:#000000;stroke-width:1;stroke-dasharray:none;stroke-opacity:1" />
    <path
       d="m 319.90203,314.19609 0.66245,1.5265 -2.73619,3.97467 1.67052,1.78572 1.15207,-0.80645 1.58411,1.20968 -0.74885,2.9666 -1.12327,0.46083 0.69124,1.95853 1.26729,1.67051 -0.31682,0.86406 1.67051,1.58411 0.72005,1.67051 1.03687,0.43203 1.98733,2.47697 -0.95046,0.25921 -0.66245,1.95853 -3.34102,1.03687 -1.78572,-0.77765 -5.55878,2.62098 -1.72811,1.98733 -1.87213,-1.03687 -1.69931,-0.14401 -2.9378,-1.69931 0.54723,-2.30416 0.11521,-3.22581 1.4977,-3.65785 -0.80645,-0.54724 0.89286,-2.33295 -1.23848,-3.91707 -1.84333,0.48963 0.63364,2.41937 -0.80645,0.37442 -1.35369,-5.87559 2.56337,-0.63365 3.28342,-1.44009 2.909,-2.16015 1.00807,1.12328 1.32489,-1.03687 0.63364,-2.07374 2.73618,0.54724 z"
       id="M47210"
       style="fill:#ffff80;fill-opacity:1;stroke:#000000;stroke-width:1;stroke-dasharray:none;stroke-opacity:1" />
    <path
       d="m 406.53827,158.06078 0.31682,2.64977 1.38249,2.67859 1.4401,1.23848 0.77765,2.62098 -0.51843,0.69124 -4.92513,-2.85139 -2.07374,1.84332 -1.00807,-1.5265 -1.78572,0.0576 -0.92166,-1.18088 0.17281,-1.72811 1.75692,-2.70739 1.15207,-0.0576 1.18088,-1.15207 2.21775,0.0576 z m -6.22122,52.27552 -0.63364,-1.87213 -5.99081,-2.18895 -1.90092,-0.0864 -2.01614,2.76499 -1.4977,1.00807 -1.06567,-0.43203 -2.44817,0.63364 -1.26728,-2.79379 0.37442,-1.00806 -1.06567,-1.92973 -1.23848,-0.77766 1.38249,-2.18894 2.01614,0.86405 1.84332,-1.03687 1.12328,-1.67051 1.5553,-0.60484 0.46083,1.58411 1.20968,-0.0288 0.95047,-3.13941 2.24655,-2.18895 1.18088,-2.30416 0.86406,-2.53457 -0.11521,-3.11061 -3.51384,-1.92973 -1.41129,0.11521 -3.48504,-1.75692 -2.39056,-1.90093 -0.92166,0.37443 -1.78572,-0.74885 -1.26729,-1.23848 -2.27535,-0.37443 -0.97927,1.67051 -1.46889,0.83526 -3.19702,-1.38249 -0.43203,-1.4113 0.46083,-1.32489 1.55531,-1.29609 1.75691,-2.85139 2.24656,-1.78572 3.68664,-0.17281 1.06568,1.06567 2.04493,0.11521 1.61291,-2.01614 2.13135,-0.60484 1.64171,-0.28802 1.32489,1.29609 1.44009,-1.67051 0.66245,1.32489 2.21775,-0.77765 0.80645,-2.16015 2.8802,1.06567 1.26728,1.64171 -0.37442,1.03687 1.18087,1.15208 1.58411,-0.37442 3.31222,1.38249 1.92973,-1.58411 2.21775,-1.26728 2.53457,0.69124 2.8514,-1.03687 3.42743,-2.01613 2.33295,-0.46083 0.77766,1.20968 0.95046,4.4643 2.62098,2.18895 0.57604,1.5265 -0.74885,1.81452 3.62904,2.9378 1.09447,1.41129 2.01614,1.72812 2.30415,-0.97927 2.18895,1.72812 2.16015,4.55071 -1.78572,1.75692 0.46083,3.22581 -3.74425,0.20162 -2.64978,1.12327 -1.5265,0.14401 -2.8802,2.44817 -2.01613,0.92166 -0.57604,1.15208 -2.59218,-1.3825 -1.23848,-1.72811 -3.45623,-1.61291 -2.24656,0.20161 -1.35369,1.12328 -1.78572,-0.17281 -0.83525,-1.09448 -1.69932,-0.0864 0.11521,1.09448 2.30416,3.34102 0.54723,2.24655 1.3825,1.4689 0.51843,1.4689 -3.77305,-0.11521 -2.24656,0.74885 0.46084,1.26729 -1.92973,1.12327 -3.71545,-0.77765 -1.90093,0.60484 -0.83526,1.5265 z"
       fill-rule="evenodd"
       id="M47209"
       style="fill:#ffff80;fill-opacity:1;stroke:#000000;stroke-width:1;stroke-dasharray:none;stroke-opacity:1" />
    <path
       d="m 311.9239,290.86652 h -1.72812 l 0.0864,-1.3825 1.64171,0.0576 z m 21.37104,-1.61291 -1.55531,2.01613 -1.03687,0.40323 -1.41129,2.16015 -1.52651,-0.28802 -1.90092,1.18088 -5.96201,-0.0288 -2.18894,-1.90093 -3.02421,-0.86406 -0.37442,-0.86406 v -3.16821 l 1.95853,0.20161 2.56337,-3.22582 1.06567,-0.48963 0.69125,-1.78572 3.54264,-0.43203 1.29609,0.54724 1.72811,2.62098 0.11521,2.41936 2.13134,0.86406 0.95047,-1.3825 z"
       fill-rule="evenodd"
       id="M47208"
       style="fill:#ffff80;fill-opacity:1;stroke:#000000;stroke-width:1;stroke-dasharray:none;stroke-opacity:1" />
    <path
       d="m 334.89052,484.56547 -1.64171,0.74885 -3.51384,0.28802 -0.25922,-1.4689 3.45624,-0.66245 z m 42.71328,-84.5337 1.5553,1.32489 4.4067,0.77766 -0.31682,3.31222 0.97926,2.01613 -0.97926,1.49771 -0.69125,3.36982 -1.23848,1.4401 -1.58411,0.83526 -0.72005,1.29608 -2.56337,1.12328 -2.10254,2.70738 -0.34563,2.56337 1.55531,1.95854 -3.65785,5.06914 -3.22582,1.90092 -0.57603,1.52651 -0.0576,3.88826 -2.53457,1.32489 -3.25462,2.67858 -2.16014,3.08181 -0.37443,1.23848 0.14401,3.51384 1.61291,1.35369 -0.63364,2.21775 -0.74885,-0.0288 -0.66245,2.67859 1.4113,2.36175 0.80645,3.02421 -1.38249,4.11868 -0.28802,4.83872 0.54724,0.72005 -1.12328,3.74425 -0.0288,2.50577 -1.98734,2.9954 -1.78572,1.29609 -1.92973,-0.14401 -2.18894,-1.15208 -1.61291,-1.75692 -3.36983,0.17282 -0.97927,0.57603 -0.23041,1.32489 0.69125,1.55531 -2.33296,2.41936 -3.05301,1.38249 -3.13941,0.20162 -3.36983,-2.39056 -2.76498,-0.34563 0.57604,-1.29608 -1.4401,-1.84333 -3.36983,-1.84332 -1.72811,-0.17281 -2.07374,-1.29609 -1.78572,-1.98733 1.32489,-2.18895 1.90092,-1.35369 1.03687,0.28802 2.79379,-2.27536 1.03687,-2.07374 -0.34562,-2.56337 0.95046,-1.5265 -0.0576,-2.33296 -2.41936,-0.51843 -0.43203,-1.84333 -2.30416,-2.04494 -1.00807,-1.84332 -1.64171,0.89286 -3.16821,-0.54724 -4.17628,3.05301 -0.95047,2.04494 -1.98733,-2.9378 -1.92973,-0.80646 0.66245,-2.90899 1.26728,-0.60484 0.97927,-2.59218 -1.06567,-1.23848 3.16821,0.43203 1.75692,-0.66245 3.0818,1.69932 1.29609,1.26728 2.13135,-0.57603 -0.48964,-2.64978 v -2.30416 l 2.13135,-1.12327 -0.31683,-2.44817 -2.90899,-1.4977 1.35369,-0.89286 2.27535,1.23848 2.10254,0.72005 1.84333,1.58411 1.06567,2.10254 -1.32489,2.16015 -0.46083,1.87212 -0.89286,0.74885 1.4689,1.58411 3.51384,-3.60024 4.69471,1.4977 2.44817,0.20161 1.4689,-0.77765 1.06567,-1.35369 1.29608,-0.51844 2.21775,0.23042 1.32489,-0.31682 1.4113,0.86405 3.31222,-0.1152 0.86406,-1.15208 -0.34562,-2.62098 -1.09448,-0.17281 0.97927,-4.06107 1.38249,-2.50577 -0.0288,-2.27535 2.62098,-0.25922 1.67051,-1.58411 0.40323,-1.29609 3.31222,-3.42743 2.44816,1.61291 2.07374,2.909 0.60484,-1.35369 0.74885,-3.45624 1.69932,-3.19701 -0.17281,-1.09447 0.86406,-1.32489 1.64171,-0.57604 -0.23042,-2.10254 -1.29609,-1.00807 -1.78572,-2.16015 0.54724,-0.95046 2.16015,-1.78572 1.38249,-0.66245 1.18088,-3.16821 1.78572,-2.01614 0.86406,-2.21775 0.17281,-4.78112 z"
       fill-rule="evenodd"
       id="M47207"
       style="fill:#ffff80;fill-opacity:1;stroke:#000000;stroke-width:1;stroke-dasharray:none;stroke-opacity:1"
       sodipodi:nodetypes="cccccccccccccccccccccccccccccccccccccccccccccccccccccccccccccccccccccccccccccccccccccccccccccccccccccccccccccccccccccccccccccccccccccccccccc" />
    <path
       d="m 337.75924,288.41835 -1.29609,-0.48963 -1.32489,1.23848 -1.84332,0.0864 -2.9378,-2.01614 -0.95047,1.3825 -2.13134,-0.86406 -0.11521,-2.41936 -1.72811,-2.62098 2.01613,-1.75692 0.31682,-1.09447 2.16015,-0.43203 0.95046,-1.18088 1.72812,-0.77765 0.69125,-1.78572 1.09447,0.23041 1.35369,0.57604 1.4401,-1.4401 3.34102,0.51844 1.18088,0.86406 0.92166,1.78572 -1.15207,2.13134 -2.44817,3.39863 -0.80645,2.30415 -1.00807,0.97927 z"
       id="M47205"
       style="fill:#ffff80;fill-opacity:1;stroke:#000000;stroke-width:1;stroke-dasharray:none;stroke-opacity:1" />
    <path
       d="m 329.29147,293.83312 -0.0576,1.44009 -1.35369,1.55531 0.80646,0.57604 -0.0576,2.10254 -2.33295,0.80645 -1.3537,1.64171 -0.23041,3.45624 -0.95047,0.80645 -1.35369,-0.0288 -1.4977,1.69931 -2.30415,-1.5841 -2.62098,0.34562 -1.78572,-1.23848 -0.74885,2.85139 -2.64978,2.10254 -1.75692,-0.23041 -1.15207,1.18087 -1.90093,0.80646 -2.59218,-0.31682 -0.0576,-3.42743 -2.33296,-3.57144 0.25922,6.76845 -1.32489,-0.17281 0.17281,-0.97927 -0.37442,-7.37329 1.23848,0.77765 1.87213,-0.0864 -0.0288,-1.09447 1.95854,-2.79379 0.86405,-0.34562 1.52651,1.29609 2.04493,-2.44817 1.61291,0.17281 2.76499,-1.69931 -0.46083,-4.17628 h -1.18088 l -0.37443,2.41936 h -1.81452 v -1.64171 l 1.4113,-0.28802 -0.97927,-2.27535 h 1.72812 l 0.46083,0.17281 0.89286,0.37442 0.28802,0.11521 0.51843,0.20162 0.60484,0.20161 3.02421,0.86406 2.18894,1.90093 5.96201,0.0288 1.90092,-1.18088 z"
       id="M47201"
       style="fill:#ffff80;fill-opacity:1;stroke:#000000;stroke-width:1;stroke-dasharray:none;stroke-opacity:1" />
  </g>
  <g
     id="g2015">
    <path
       style="fill:none;stroke:#000000;stroke-width:1px;stroke-linecap:butt;stroke-linejoin:miter;stroke-opacity:1"
       d="M 2.6767449,372.95979 H 380.09778 L 551.40945,229.30781 h 137.40624"
       id="path2009"
       sodipodi:nodetypes="cccc" />
    <path
       style="fill:none;stroke:#000000;stroke-width:1px;stroke-linecap:butt;stroke-linejoin:miter;stroke-opacity:1"
       d="M 551.43734,229.3357 V 1.7844966"
       id="path2011" />
  </g>
</svg>
