<?xml version="1.0" encoding="UTF-8" standalone="no"?>
<svg
   version="1.2"
   width="535.67786"
   height="599.99994"
   viewBox="0 0 535.67786 599.99994"
   stroke-linecap="round"
   stroke-linejoin="round"
   id="svg7492"
   sodipodi:docname="oy.svg"
   inkscape:version="1.2 (dc2aedaf03, 2022-05-15)"
   xmlns:inkscape="http://www.inkscape.org/namespaces/inkscape"
   xmlns:sodipodi="http://sodipodi.sourceforge.net/DTD/sodipodi-0.dtd"
   xmlns="http://www.w3.org/2000/svg"
   xmlns:svg="http://www.w3.org/2000/svg">
  <defs
     id="defs7496" />
  <sodipodi:namedview
     id="namedview7494"
     pagecolor="#505050"
     bordercolor="#eeeeee"
     borderopacity="1"
     inkscape:showpageshadow="0"
     inkscape:pageopacity="0"
     inkscape:pagecheckerboard="0"
     inkscape:deskcolor="#505050"
     showgrid="false"
     inkscape:zoom="0.89955357"
     inkscape:cx="267.91067"
     inkscape:cy="300.14888"
     inkscape:window-width="1920"
     inkscape:window-height="1009"
     inkscape:window-x="-8"
     inkscape:window-y="-8"
     inkscape:window-maximized="1"
     inkscape:current-layer="svg7492" />
  <g
     id="oy"
     transform="matrix(0.67002237,0,0,0.67002237,-0.17003343,-0.17002672)"
     style="fill:#ffff80;fill-opacity:1;stroke:#000000;stroke-width:1.49249;stroke-dasharray:none;stroke-opacity:1">
    <path
       d="m 778,136.07 -2.55,6.41 -7.1,7.72 -6.1,3.6 -3.88,7.03 -6.32,3.32 -4.48,11.11 -3.31,2.84 -9.86,-2.54 -12.98,-7.88 -5.56,-0.98 -7.53,-20.35 -1.11,-12.21 12.3,-4.39 10.3,1.08 6.2,-1.84 8.34,-8.64 1.31,-5.61 9.64,-2.84 12.88,-7.58 4.01,-4.71 -1.05,-7.36 11.54,-5.32 8.33,5.37 0.78,4.09 -4.05,11.42 -10.08,5.02 -0.84,13.1 z"
       id="M33643"
       style="fill:#ffff80;fill-opacity:1;stroke:#000000;stroke-width:1.49249;stroke-dasharray:none;stroke-opacity:1" />
    <path
       d="m 648.46,393.97 -1.25,7.22 -7.49,8.15 -2.96,11.27 18.33,3.12 3.04,5.59 0.71,10.48 -4.65,12.93 -5.57,4.81 -4.59,13.39 6.3,7.83 -1.53,12.65 2.91,7.52 -6.57,3.2 -7.13,-1.49 -3.45,4.01 -15.21,0.8 -5.99,-6.17 3.96,-4.79 -1.71,-9.5 -10.77,-7.92 -10.9,-0.56 -7.01,-7.29 -5.08,-0.38 -8.15,-8.21 -1.26,-6.96 -22.97,-10.11 -6.15,3.96 -5.02,-4.03 0.38,-8.48 4.12,-5.43 -1.18,-7.49 11.42,3.15 11.99,-7.76 2.72,-9.52 10.72,-0.86 5.34,-4.65 -7.65,-3.74 3.12,-6.01 -1.85,-4.18 -6.78,0.7 10.64,-18.67 -1.29,-4.06 2.68,0.61 5.89,10.02 6.45,-4.41 5,2.11 -2.08,19.53 9.96,2.84 10.58,-0.44 8.28,5.76 4.3,-15.09 10.07,1.19 z"
       id="M33346"
       style="fill:#ffff80;fill-opacity:1;stroke:#000000;stroke-width:1.49249;stroke-dasharray:none;stroke-opacity:1" />
    <path
       d="m 210.61,174.68 -7.85,0.28 -12.64,-2.28 -1.94,-5.39 3.94,-4.77 -10.68,-16.61 2.07,-3.45 -5.85,-16.25 0.58,-3.88 -4.25,-8.49 -6.87,-6.5 8.14,-10.71 12.25,3.43 7.74,-5.94 6.24,1.6 8.17,-11.74 9.9,7.13 8.76,2.51 -0.67,7.26 5.06,9.34 -1.79,8.62 6.35,7.63 1.26,9.21 -1.34,8.12 -12.05,1.01 -0.41,7.13 -4.35,2.14 0.14,8.05 2.93,5.13 -6.88,6.22 z"
       id="M33586"
       style="fill:#ffff80;fill-opacity:1;stroke:#000000;stroke-width:1.49249;stroke-dasharray:none;stroke-opacity:1" />
    <path
       d="m 535.15,662.6 -13.79,-3.34 -18.92,0.12 -7.01,15.02 -7.68,1.03 -6.9,-10.01 -6.68,-2.15 7.25,-10.12 -6.72,-6.98 -6.26,3 h -11.6 l 7.04,22.43 -8.42,15.36 -12.18,6.75 -6.2,-5.02 -5.94,4.22 1.26,11.07 -7.89,0.57 -6.1,4.73 -8.7,-1.17 -2.81,-5.97 -8.04,-7.17 -7.05,0.78 -6.27,-13.64 9.68,-3.53 -0.08,-11.5 6.84,-9.45 0.5,-8.78 -3.7,-7.77 -2.74,-10.41 1.18,-7.16 -4.02,-6.66 5.05,-6.37 -3.97,-13.39 4.07,-3.2 -1.84,-5.74 -7.03,-6.38 -8.2,1.35 -8.27,4.36 -2.86,-3.4 -1.07,-8.68 5.94,-6.58 -8.7,-11.73 5.63,-10.59 -2.5,-10.35 -3.75,-6.83 -12.65,-9.17 -3.07,0.4 -8.33,-6.56 -4.75,1.32 -6.66,-11.56 0.12,-5.61 8.9,-15.05 14.01,-0.43 0.84,-9.08 4.78,-10 5.61,-3.94 7.17,-0.98 5.78,5.46 7.82,1.4 -0.89,-23.64 7.49,-6.08 10.52,-2.52 3.14,-7.6 -3.31,-13.23 4.87,-8.7 -1.5,-3.58 5.94,-9.78 5.8,-1.03 1.66,-7.52 -11.84,-9.06 -0.05,-15.61 2.63,-8.72 4.66,0.79 2.21,5.6 7.65,-2.29 5.61,-7.23 3.6,3.65 15.33,0.17 -2.64,4.8 1.57,9.85 -1.61,7.09 -8.43,7.33 5.85,6.87 4.64,-4.38 9.05,4.94 5.79,11.02 5.53,3.31 -7.42,7.87 6.7,3.13 12.46,-1.49 4,4 5,12.6 6.46,5.11 3.04,-6.71 8.39,4.21 -0.81,7.45 -3.53,4.69 2.41,7.36 -3.94,17.02 -8.27,3.75 -8.33,14.03 13.21,6.25 -2.83,7.94 6.43,6.73 -10.05,10.07 8.83,8.41 6.87,10.98 10.89,-2.29 13.29,-7.26 11.57,-9.65 4.11,-10.39 4.89,-5.37 4.39,-10.18 15.66,-1.8 4.08,10.01 -1.87,6.35 13.13,1.53 9.36,6.72 -1.94,4.48 -9.42,4.7 -2.72,13.03 -6.48,10.45 -6.68,6.95 0.53,6.04 -4.47,14.4 -12.21,10.01 -5.76,9.25 4.38,6.28 6,3.46 7.29,-2.03 -2.95,10.36 9.22,4.51 10.43,-5.92 10.48,10.22 -4.66,18.44 2.24,4.09 -0.48,10.42 -6.03,-0.94 -4.76,5.71 -8.49,1.47 -3.3,-4.56 -7.5,2.25 -10.16,-2.22 -0.82,-8.11 -4.02,-1.34 -3.67,-9.06 -9.18,1.65 -18.17,-5.52 -7.8,0.32 -6.25,4.26 -3.7,6.05 -14.06,2.85 -6.33,2.81 8.6,5.12 9.33,-5.82 21.37,-0.36 14.98,-3.44 10.21,9.71 0.29,9.35 z"
       id="M33100"
       style="fill:#ffff80;fill-opacity:1;stroke:#000000;stroke-width:1.49249;stroke-dasharray:none;stroke-opacity:1" />
    <path
       d="m 532.34,41.5 -7.98,13.23 2.25,13.59 -3.49,6.11 -11.57,9.49 2.67,12.6 5.79,8.37 -7.67,5.1 -3.15,5.91 0.93,14.18 -1.5,19.74 -5.39,5.47 -2.91,9.18 -4,1.71 -2.88,7.14 0.67,6.51 -4.41,4.88 -0.46,11.65 -3.77,6.75 0.41,7.54 -5.34,3.44 -4.98,12.77 -3.68,2.33 0.47,11.94 -4.51,6.72 -11.07,-0.05 -6.1,-3.64 -11.77,-10.6 -10.88,-0.71 -4.63,-4.08 -4.01,-13.87 -8.64,-2.86 -6.87,3.12 -1.28,-12.92 -6.31,-3.58 -0.79,-4.55 -8.36,-0.85 -3.28,-4.27 -9.94,0.57 -6.87,-5.09 -7.45,-8.88 -0.73,-4.26 -7.6,-2.32 0.31,-13.09 6.11,-4.33 -0.53,-17.96 -4.15,-7.29 6.14,-5.86 -1.95,-8.26 14.96,6.81 5.62,-4.51 8.68,-19.11 -1.7,-8.92 9.7,3.24 8.12,-3.96 8.23,-12.47 7.23,-3.53 -0.57,-11.6 -2.17,-5.54 13.49,-1.35 17.72,-10.82 12.8,-0.22 4.73,-9.4 -2.92,-3.56 2.59,-9.48 9.59,0.5 6.09,-6.89 10.84,-6.09 7.06,3.78 12.46,-8.1 12.56,3.59 -3.41,7.08 3.17,5.57 -7.8,7.32 -3.27,9.07 5.83,5.33 z"
       id="M33606"
       style="fill:#ffff80;fill-opacity:1;stroke:#000000;stroke-width:1.49249;stroke-dasharray:none;stroke-opacity:1" />
    <path
       d="m 255.21,605.05 0.92,15.52 3.74,14.76 7.39,8.27 -11.89,10.6 -6.28,2.72 -9.16,5.84 -10.86,-2.56 -7.82,-5.01 -3.66,-6.41 -5.49,4.3 -10.39,-7.33 -7.2,-8.12 -10.81,3.07 2.13,-6.97 -3.61,-11.9 -5.85,-6.55 5.2,-2.3 5.09,2.14 1.89,-9.4 5.29,-6.33 6.88,4.47 5.03,-2.73 0.1,-10.92 5.84,-8.9 0.7,-8.04 8.76,-0.18 7.6,-6.12 -0.86,-9.67 10.94,-6.66 7.09,0.04 6.19,8.22 -3.3,9.13 -5.57,1.91 1.66,17.45 4.31,3.82 -0.71,7.7 z"
       id="M33461"
       style="fill:#ffff80;fill-opacity:1;stroke:#000000;stroke-width:1.49249;stroke-dasharray:none;stroke-opacity:1" />
    <path
       d="m 212.1,653.08 5.49,-4.3 3.66,6.41 7.82,5.01 10.86,2.56 9.16,-5.84 9.35,9.34 2.07,7.45 5.69,2.8 -4.92,15.11 -12.38,22.46 -10.73,5.71 -2.68,9.23 -6.68,3.44 -3.78,7.25 5.19,5.78 -2.83,4.14 -9.31,0.18 -3.83,3.89 -3.89,-17.21 -5.06,-6.11 5.18,-3.81 -3.34,-6.4 4.23,-7 5.85,-2.85 -6.28,-15.84 -13.2,6.88 -4.27,-7 0.47,-7.56 10.6,-9.04 1.42,-10.61 z"
       id="M33216"
       style="fill:#ffff80;fill-opacity:1;stroke:#000000;stroke-width:1.49249;stroke-dasharray:none;stroke-opacity:1" />
    <path
       d="m 707.22,134.14 1.11,12.21 7.53,20.35 5.56,0.98 12.98,7.88 9.86,2.54 3.31,-2.84 4.48,-11.11 6.32,-3.32 3.88,-7.03 6.1,-3.6 7.1,-7.72 2.55,-6.41 11.61,5.8 7.94,0.56 1.08,7.93 -4.49,10.11 4.86,6.09 -4.27,9.61 -6.65,-4.09 -10.02,-0.3 -10.92,4.71 -2.86,9.73 -4.78,9.1 3,3.81 -5.88,7.87 1.91,9.93 -3.81,7.83 -9.06,1.25 -12.16,4.51 1.45,13.56 -4.61,5.61 1.25,15.05 -5.99,-1.96 -6.92,2.04 -11.28,8.06 -4.44,8.76 -7.5,5.62 0.92,9.97 9.2,3.35 2.36,3.76 -3.15,8.06 -4.7,2.72 4.17,6.89 -0.09,10.58 -11.81,9.36 -4.03,5.35 -12.92,7.28 0.24,6.68 -6.67,5.11 -1.71,13.88 -20.21,-3.21 1.4,16.93 -7.33,-5.36 -10.07,-1.19 -4.3,15.09 -8.28,-5.76 -10.58,0.44 -9.96,-2.84 2.08,-19.53 -5,-2.11 -6.45,4.41 -5.89,-10.02 6.79,-8.43 6.75,-1.6 -9.85,-7.31 -4.55,-9.07 -5.31,-1.45 -1.35,-8.23 5.6,-0.97 0.16,-25.57 -4.34,8.07 -4.64,-0.7 2.3,-10.13 -1.52,-10.17 8.29,-4.74 7.61,2.27 7.78,-3.9 10.55,0.02 1.95,-2.21 -2.16,-22.76 13.43,1 11.13,3.01 4.74,-8.81 -1.53,-7.06 4.01,-4.72 -8.76,-7.47 4.34,-13.17 4.77,2.48 5,-7.29 6,-1.89 11.16,0.05 5.03,-5.77 5.96,-2.65 -3.52,-5.58 3.9,-11.86 -5.37,-5.42 3.5,-10.22 -0.02,-5.85 -4.83,-8.01 0.25,-7.66 -3.83,-13.05 7.73,-6.49 15.41,-3.04 3.02,-6.48 4.74,-1.84 z"
       id="M33215"
       style="fill:#ffff80;fill-opacity:1;stroke:#000000;stroke-width:1.49249;stroke-dasharray:none;stroke-opacity:1" />
    <path
       d="m 210.61,174.68 5.96,-1.2 6.88,-6.22 -2.93,-5.13 -0.14,-8.05 4.35,-2.14 0.41,-7.13 12.05,-1.01 1.34,-8.12 -1.26,-9.21 -6.35,-7.63 1.79,-8.62 -5.06,-9.34 0.67,-7.26 -8.76,-2.51 -9.9,-7.13 0.09,-8.71 3.58,-5.77 -2.13,-4.19 1.18,-8.18 4.88,-8.67 -0.54,-14.63 10.9,-13.99 -2.16,-6.01 5.19,-6.11 17.68,7.09 6.56,-2.38 12.23,2.7 11.53,10.51 8.09,4.03 10.02,-1.33 3,-5.18 9.02,1.59 12.61,6.86 15.01,-0.04 5.76,7.56 6.99,-0.37 6.06,7.74 12.37,5.72 4.45,0.13 1.05,6.7 5.5,6.75 -1.16,5.65 5.3,4.6 2.03,10.44 1.7,8.92 -8.68,19.11 -5.62,4.51 -14.96,-6.81 1.95,8.26 -6.14,5.86 4.15,7.29 0.53,17.96 -6.11,4.33 -0.31,13.09 7.6,2.32 0.73,4.26 7.45,8.88 6.87,5.09 9.94,-0.57 3.28,4.27 8.36,0.85 0.79,4.55 6.31,3.58 1.28,12.92 -6.3,2.39 -3.15,8.88 2.38,5.04 -4.61,4.12 -4.5,9.39 1.38,6.58 -1.19,10.1 2.41,1.88 -6.45,1.95 1.74,5.64 -11.8,11.4 -12.29,2.27 3.38,8.39 -2.55,5.63 1.07,11.97 4.63,5.5 6.79,3.72 3.43,22.64 -5.7,-1.5 -0.98,-5.1 -12.67,-1.74 -6.63,0.87 -6.67,6.62 -4.51,0.36 -3.69,5.49 -5.49,-0.04 -5.89,-3.92 -6.91,1.28 -4.81,-5.61 -8.06,-3.77 -1.81,5.1 -10.35,5.39 -4.98,-3.93 -6.13,7.66 -9.65,4.08 -7.03,-2.07 1.21,21.67 -11.3,4.91 -0.74,4.58 -9.13,3.19 1.1,-13.17 -2.72,-13.95 -2.74,-0.97 -8.36,-16.61 4.45,-5.29 9.9,-2.11 -1.73,-9.43 -8.51,-13.06 0.64,-5.41 -9.18,-4.73 -0.63,-6.78 4.56,-10.76 -8.89,-3.44 -2.71,-12.63 4.96,-7.23 -3.92,-5.72 3.04,-15.05 -0.1,-5.95 -9.13,-9.71 -1.4,-7.77 1.01,-10.17 5.64,-3.43 1.7,-9.89 3.45,-7.58 z"
       id="M33214"
       style="fill:#ffff80;fill-opacity:1;stroke:#000000;stroke-width:1.49249;stroke-dasharray:none;stroke-opacity:1" />
    <path
       d="m 580,366.49 1.29,4.06 -10.64,18.67 6.78,-0.7 1.85,4.18 -3.12,6.01 7.65,3.74 -5.34,4.65 -10.72,0.86 -2.72,9.52 -11.99,7.76 -11.42,-3.15 1.18,7.49 -4.12,5.43 -0.38,8.48 5.02,4.03 6.15,-3.96 22.97,10.11 1.26,6.96 8.15,8.21 5.08,0.38 7.01,7.29 10.9,0.56 10.77,7.92 1.71,9.5 -3.96,4.79 -2.93,0.43 -13.77,11.33 -9.36,-6.72 -13.13,-1.53 1.87,-6.35 -4.08,-10.01 -15.66,1.8 -4.39,10.18 -4.89,5.37 -4.11,10.39 -11.57,9.65 -13.29,7.26 -10.89,2.29 -6.87,-10.98 -8.83,-8.41 10.05,-10.07 -6.43,-6.73 2.83,-7.94 -13.21,-6.25 8.33,-14.03 8.27,-3.75 3.94,-17.02 -2.41,-7.36 3.53,-4.69 0.81,-7.45 -8.39,-4.21 -3.04,6.71 -6.46,-5.11 -5,-12.6 -4,-4 14.55,-6.54 2.25,-4.99 13.62,-3.63 3.71,-4.62 -2.24,-5.24 7.28,-16.3 3.07,-14.36 6.31,-10.58 5.92,5.67 5.2,0.68 7.44,5.32 5.01,-1.99 5.81,2.2 3.73,-3.78 9.41,-1.16 3.6,5.21 -2.32,6.04 z"
       id="M33213"
       style="fill:#ffff80;fill-opacity:1;stroke:#000000;stroke-width:1.49249;stroke-dasharray:none;stroke-opacity:1" />
    <path
       d="m 393.2,616.85 4.02,6.66 -1.18,7.16 2.74,10.41 -7.08,6.45 -2.58,-3.96 -13.2,-3.56 -2.55,-7.18 8.46,-3.26 2.94,-7.02 z"
       id="M33423"
       style="fill:#ffff80;fill-opacity:1;stroke:#000000;stroke-width:1.49249;stroke-dasharray:none;stroke-opacity:1" />
    <path
       d="m 582.68,367.1 -2.68,-0.61 -7.37,-5.08 2.32,-6.04 -3.6,-5.21 -9.41,1.16 -3.73,3.78 -5.81,-2.2 -5.01,1.99 -7.44,-5.32 -5.2,-0.68 -5.92,-5.67 -6.31,10.58 -5.56,1.31 -3.42,-4.66 0.6,-18.86 -17.97,0.24 -10.2,3.71 -9.19,-3.93 -10.71,-7.88 -0.95,6.36 -4.86,2.32 -3,10.49 -8.47,6.24 -15.33,-0.17 -3.6,-3.65 -5.61,7.23 -7.65,2.29 -2.21,-5.6 -4.66,-0.79 -2.63,8.72 -4.23,-8.99 -5.99,-0.02 -2.92,-5.58 -6.28,-1.21 -7.68,5.7 -3.1,5.25 -5.82,0.6 -4.1,8.88 -18.19,-7.01 -3.2,-12.99 6.67,-6.62 6.63,-0.87 12.67,1.74 0.98,5.1 5.7,1.5 -3.43,-22.64 -6.79,-3.72 -4.63,-5.5 -1.07,-11.97 2.55,-5.63 -3.38,-8.39 12.29,-2.27 11.8,-11.4 -1.74,-5.64 6.45,-1.95 6.35,-2.4 5.29,8.13 15.32,-3.53 6.74,-0.18 3.55,24.21 -5.25,5.44 3.96,13.14 5.19,-1.42 7.34,8.12 9.51,-8.74 6.87,-8.37 0.62,-4.62 7.1,-4.08 5.25,-13.07 -1.79,-10.01 14.99,-2.9 -4.8,13.55 -1.49,9.24 2.55,7.73 13.5,-2.05 4.26,-7.35 7.96,-5.51 6.33,2.77 4.96,6.57 3.88,0.42 4.73,7.53 10.22,3.54 6.04,-0.22 -5.22,-9.27 9.33,-11.01 8.02,1.3 2.14,3.22 10.94,-3.74 5.41,5.02 2.63,6.54 1.52,10.17 -2.3,10.13 4.64,0.7 4.34,-8.07 -0.16,25.57 -5.6,0.97 1.35,8.23 5.31,1.45 4.55,9.07 9.85,7.31 -6.75,1.6 z"
       id="M33666"
       style="fill:#ffff80;fill-opacity:1;stroke:#000000;stroke-width:1.49249;stroke-dasharray:none;stroke-opacity:1" />
    <path
       d="m 480.28,409.48 -12.46,1.49 -6.7,-3.13 7.42,-7.87 -5.53,-3.31 -5.79,-11.02 -9.05,-4.94 -4.64,4.38 -5.85,-6.87 8.43,-7.33 1.61,-7.09 -1.57,-9.85 2.64,-4.8 8.47,-6.24 3,-10.49 4.86,-2.32 0.95,-6.36 10.71,7.88 9.19,3.93 10.2,-3.71 17.97,-0.24 -0.6,18.86 3.42,4.66 5.56,-1.31 -3.07,14.36 -7.28,16.3 2.24,5.24 -3.71,4.62 -13.62,3.63 -2.25,4.99 z"
       id="M33663"
       style="fill:#ffff80;fill-opacity:1;stroke:#000000;stroke-width:1.49249;stroke-dasharray:none;stroke-opacity:1" />
    <path
       d="m 650.13,625.96 -3.24,8.49 -18.63,4.11 v -6.8 l 6.68,1.22 7.62,-5.02 z m -60.67,24.22 0.48,-10.42 -2.24,-4.09 4.66,-18.44 -10.48,-10.22 -10.43,5.92 -9.22,-4.51 2.95,-10.36 -7.29,2.03 -6,-3.46 -4.38,-6.28 5.76,-9.25 12.21,-10.01 4.47,-14.4 -0.53,-6.04 6.68,-6.95 6.48,-10.45 6.13,-0.57 -2.5,12.43 7.7,6.02 6.72,-9.82 5.48,-1.08 5.51,-6.29 14.78,9.49 -4.31,11.17 2.14,14.44 8.64,-0.42 7.32,-3.87 12.6,-10.38 6.27,-2.28 6.58,1.2 7.03,-3.34 -1.63,-6.61 11.08,11.6 -5.17,2.87 -1.69,5.22 -5.39,2.99 -6.8,10.29 -7.82,4.79 -2.83,5.5 -9.81,10.86 -8.3,-2.49 -3.17,3.53 1.75,13.1 3.14,1.99 -4.12,12.18 -13.4,1.67 -8.76,6.35 -2.05,7.02 -7.24,0.84 -6.65,7.39 z m 92.26,-76.37 -13.99,9.27 -4.26,-6.72 7.22,-2.69 z"
       fill-rule="evenodd"
       id="M33212"
       style="fill:#ffff80;fill-opacity:1;stroke:#000000;stroke-width:1.49249;stroke-dasharray:none;stroke-opacity:1" />
    <path
       d="m 691.89,550.15 6.52,4.67 -5.3,7.42 -7.94,-2.62 z m -78.53,-50.87 5.99,6.17 15.21,-0.8 3.45,-4.01 7.13,1.49 6.57,-3.2 -2.91,-7.52 1.53,-12.65 -6.3,-7.83 4.59,-13.39 5.57,-4.81 4.65,-12.93 -0.71,-10.48 -3.04,-5.59 -18.33,-3.12 2.96,-11.27 7.49,-8.15 1.25,-7.22 -1.4,-16.93 20.21,3.21 1.71,-13.88 6.67,-5.11 -0.24,-6.68 12.92,-7.28 -0.33,5.87 6.38,1.22 9.2,6.77 -0.91,4.58 14.08,14.27 -4.09,8.29 -7.9,2.17 -5.92,5.13 -1.54,11.55 -9.11,15.71 0.39,6.52 4.46,1.95 2.54,8.18 -2.01,5.23 3.18,4.67 11.87,-3.48 3.2,6.94 13.52,9.01 6.27,7.08 1.98,12.19 -2.35,6.06 5.18,5.74 4.41,0.02 2.41,7.2 -8.03,3.41 -4.46,24.99 -11.85,-3.67 -13.28,2.2 -5.51,6.5 -1.76,6 -11.74,0.64 -5.34,2.67 -8.41,-6.28 -1.83,-7.13 -14.88,0.91 -2.5,6.15 -7.27,2.22 8.07,7.98 10.19,1.8 6.4,-5.22 1.63,6.61 -7.03,3.34 -6.58,-1.2 -6.27,2.28 -12.6,10.38 -7.32,3.87 -8.64,0.42 -2.14,-14.44 4.31,-11.17 -14.78,-9.49 -5.51,6.29 -5.48,1.08 -6.72,9.82 -7.7,-6.02 2.5,-12.43 -6.13,0.57 2.72,-13.03 9.42,-4.7 1.94,-4.48 13.77,-11.33 z m 106.01,31.05 8.48,2.45 5.17,9.44 3.24,1.68 6.08,-7.56 4.9,2.79 5.67,9.82 -13.75,-3.44 -4.06,7.66 -5.8,-0.33 -7.09,-3.92 -14.59,1.24 -5.01,-5.72 3.91,-7.51 8.72,-6.25 z"
       fill-rule="evenodd"
       id="M33211"
       style="fill:#ffff80;fill-opacity:1;stroke:#000000;stroke-width:1.49249;stroke-dasharray:none;stroke-opacity:1" />
    <path
       d="m 181.44,145.91 10.68,16.61 -3.94,4.77 1.94,5.39 12.64,2.28 7.85,-0.28 16.14,10.65 -3.45,7.58 -1.7,9.89 -5.64,3.43 -1.01,10.17 1.4,7.77 9.13,9.71 0.1,5.95 -3.04,15.05 3.92,5.72 -4.96,7.23 2.71,12.63 8.89,3.44 -4.56,10.76 0.63,6.78 9.18,4.73 -0.64,5.41 8.51,13.06 1.73,9.43 -9.9,2.11 -4.45,5.29 -11.76,5.12 4.15,8.79 -2.77,5.83 -9.65,0.72 -7.3,12.93 5.56,13.24 -5.51,9.36 -6.06,4.04 -6.71,0.21 -5.49,4.24 -6.65,-0.04 -3.15,6.19 -5.06,3.16 -13.02,-7.05 -8.2,1.82 -5.46,-5.32 -17.25,3.54 -4.57,-4.33 -11.79,-3.33 -8.98,5.41 -10.91,1.4 -4.34,4.48 -13.26,-3.76 -17.64,-0.73 -12.41,16.34 -4.62,-7.15 -10.18,-8.21 -2.58,-6.81 -5.35,-6.17 -1.54,-12.45 4.99,-7.7 1.16,-7.32 -1.92,-6.11 5.27,-6.9 -8.48,-16.1 5.31,-7.61 -1.26,-6.01 5.4,-2.21 7.58,-11.28 -0.36,-13.34 -3.83,-7.48 -7.46,-2.34 -1.39,-4.64 -12.36,-17 -7.5,-3.67 -5.25,-6.34 6.95,-11.63 9.69,-4.11 -1.79,-21.23 7.5,-6.72 14.2,8.47 6.07,-0.97 7.02,-9.84 6.29,0.82 5.3,4.11 8.22,-7.99 8.43,-3.83 5.71,1.31 11.4,-1.02 5.89,-5.81 -0.42,-14.98 -4.24,-3.55 -4.61,-17.58 -3.59,-4.74 1.91,-9.74 7.89,-4.51 5.67,0.99 15.65,9.92 6.61,1.51 13.52,-3.28 5.48,-5.85 7.38,-3.73 9.06,-1.55 6.68,-4.14 5.77,2.19 1.98,6.47 z"
       id="M33210"
       style="fill:#ffff80;fill-opacity:1;stroke:#000000;stroke-width:1.49249;stroke-dasharray:none;stroke-opacity:1" />
    <path
       d="m 233.6,341.47 8.36,16.61 2.74,0.97 2.72,13.95 -1.1,13.17 9.13,-3.19 0.74,-4.58 11.3,-4.91 -1.21,-21.67 7.03,2.07 9.65,-4.08 6.13,-7.66 4.98,3.93 10.35,-5.39 1.81,-5.1 8.06,3.77 2.37,18.57 -5.8,11.56 3.84,9.46 -4.14,3.06 -4.79,10.44 -7.62,1.18 -8.62,8.38 -12.57,6.26 0.88,8.03 -7.04,11.64 -4.65,2.94 -5.07,9.49 0.62,5.81 4.94,4.91 -0.52,7.89 6.1,8.24 2.86,7.12 0.49,12.39 -8.84,5.75 -1.54,7.54 -7.11,5.99 -4.7,-2.26 -5.26,9.37 -15.21,13.34 -12.68,13.08 -14.36,-3.19 -4.64,-8.15 3.1,-4.85 -15.81,-3.62 -11.14,7.93 0.51,5.98 6.25,7.17 -8.76,7.14 -10.32,4.67 -1.55,7.58 -7.29,-0.77 -12.04,4.82 -7.28,5.21 -10.66,-1.72 -9.27,-8.59 -4.66,-0.16 -5.48,-11.44 -4.12,-3.3 -2.14,-10.42 -8.4,-8.11 -7.07,-2.13 -2.26,-4.54 -10.33,-0.96 -3.47,-19.09 5.38,-10.93 -1.8,-8.26 5.42,-6.2 0.35,-9.55 -7.1,-9.03 -6.27,-0.54 -4.11,-9.32 -7.49,0.31 -6.71,-8.87 -1.34,-12.88 12.41,-16.34 17.64,0.73 13.26,3.76 4.34,-4.48 10.91,-1.4 8.98,-5.41 11.79,3.33 4.57,4.33 17.25,-3.54 5.46,5.32 8.2,-1.82 13.02,7.05 5.06,-3.16 3.15,-6.19 6.65,0.04 5.49,-4.24 6.71,-0.21 6.06,-4.04 5.51,-9.36 -5.56,-13.24 7.3,-12.93 9.65,-0.72 2.77,-5.83 -4.15,-8.79 z"
       id="M33209"
       style="fill:#ffff80;fill-opacity:1;stroke:#000000;stroke-width:1.49249;stroke-dasharray:none;stroke-opacity:1" />
    <path
       d="m 330.36,498.14 -0.12,5.61 6.66,11.56 4.75,-1.32 8.33,6.56 3.07,-0.4 12.65,9.17 3.75,6.83 2.5,10.35 -5.63,10.59 8.7,11.73 -5.94,6.58 1.07,8.68 2.86,3.4 -1.74,7.53 0.07,11.15 -3.92,1.33 -8.88,-4.6 -6.76,3.51 -5.7,-2.72 -7.86,7.81 4.1,2.38 -7.86,7.7 -10.29,0.12 -3.36,-7.32 0.66,-13.56 -7.29,-8.16 -13.98,-2.41 -2.44,-4.28 -9.98,3.38 -13.92,8.81 -18.65,6.9 -6.71,-6.14 0.71,-7.7 -4.31,-3.82 -1.66,-17.45 5.57,-1.91 3.3,-9.13 -6.19,-8.22 -7.09,-0.04 -9.94,-5.69 -4.86,2.41 -3.8,-7.82 12.68,-13.08 15.21,-13.34 5.26,-9.37 4.7,2.26 7.11,-5.99 1.54,-7.54 8.84,-5.75 9.11,12.98 3.82,12.59 6.35,5.21 1.82,-8.83 19.08,-11.87 0.56,-4.75 z"
       id="M33208"
       style="fill:#ffff80;fill-opacity:1;stroke:#000000;stroke-width:1.49249;stroke-dasharray:none;stroke-opacity:1" />
    <path
       d="m 238.83,550.64 -10.94,6.66 0.86,9.67 -7.6,6.12 -8.76,0.18 -0.7,8.04 -5.84,8.9 -0.1,10.92 -5.03,2.73 -6.88,-4.47 -5.29,6.33 -1.89,9.4 -5.09,-2.14 -5.2,2.3 5.85,6.55 3.61,11.9 -2.13,6.97 -3.84,5.97 -8.1,1.12 -4.98,10.19 -0.08,13.5 -10.47,5.64 -8.77,8.09 -19.4,3.59 -2.37,-11.55 -7.63,-7.89 -5.8,-2.85 -2.49,-13.86 -12.1,-3.17 -6.11,-4.73 -0.8,-8.84 -7.72,-9.65 0.14,-7.28 4.84,-4.88 -3.29,-4.44 0.9,-5.96 9.95,-19.99 -0.95,-5.91 -11.09,-2.96 0.64,-6.63 -8.52,-8.44 -3.51,-23.87 -5.34,-3.03 -0.41,-6.27 6.11,-8.51 10.33,0.96 2.26,4.54 7.07,2.13 8.4,8.11 2.14,10.42 4.12,3.3 5.48,11.44 4.66,0.16 9.27,8.59 10.66,1.72 7.28,-5.21 12.04,-4.82 7.29,0.77 1.55,-7.58 10.32,-4.67 8.76,-7.14 -6.25,-7.17 -0.51,-5.98 11.14,-7.93 15.81,3.62 -3.1,4.85 4.64,8.15 14.36,3.19 3.8,7.82 4.86,-2.41 z"
       id="M33207"
       style="fill:#ffff80;fill-opacity:1;stroke:#000000;stroke-width:1.49249;stroke-dasharray:none;stroke-opacity:1" />
    <path
       d="m 162.34,851 7.52,8.42 -8.51,0.2 z m 18.59,-55.41 -3.58,15.77 -4.5,6.64 -5.99,-11.53 9.4,-4.31 z m 2.77,-154.89 10.81,-3.07 7.2,8.12 10.39,7.33 -6.14,14.07 -1.42,10.61 -10.6,9.04 -0.47,7.56 4.27,7 -3.82,13.86 -4.17,2.35 -5.74,10.07 11.18,3.77 10.11,-1.03 5.06,6.11 3.89,17.21 -8.76,-2.03 -14.11,5.85 -8.61,-5.84 -2.7,14.42 -6.78,1.71 -9.38,-2.14 -8.24,9.08 -11.17,-5.55 12,-10.49 -4.36,-4.03 -14.79,8.67 -4.49,-0.06 -0.77,-19.27 -6.51,-4.8 6.66,-10 -1.44,-9.99 -4.25,-10.7 4.64,-9.09 -3.13,-10.64 19.4,-3.59 8.77,-8.09 10.47,-5.64 0.08,-13.5 4.98,-10.19 8.1,-1.12 z m 6.49,244.76 -3.58,9.54 -5.27,-5.2 z m 34.09,-45.53 -4.71,10.57 -5.86,2.59 -3.74,-2.52 10.07,-9.12 z m -31.13,-32.21 5.72,8.4 -4.28,12.26 8.58,1.61 0.9,7.12 -7.54,-1.69 -21,-11.37 1.06,-5.9 5.82,1.24 z"
       fill-rule="evenodd"
       id="M33205"
       style="fill:#ffff80;fill-opacity:1;stroke:#000000;stroke-width:1.49249;stroke-dasharray:none;stroke-opacity:1" />
    <path
       d="m 474.17,663.27 6.68,2.15 6.9,10.01 7.68,-1.03 7.01,-15.02 18.92,-0.12 13.79,3.34 -2.22,3.16 -1.66,12.83 -8.61,8.51 -4.19,-5.09 -6.29,4.46 -3.95,9.95 2.69,14.78 -4.34,-1.88 -4.02,-10.31 -6.62,-2.02 -6.3,2.53 -6.49,6.21 1.52,7.76 -3.61,6.38 5.8,9.08 -10.19,2.05 -1.75,6.72 -6.7,3.1 -2.59,6.68 6.48,7.56 -0.28,7.65 -5.9,3.64 -17.11,-0.02 -7.4,-5.1 -13.5,0.12 0.59,-5.52 -3.17,-8.39 -8.96,-2.57 -1.37,-4.17 2.33,-9.29 3.8,-0.64 -2.73,-21.49 6.1,-4.73 7.89,-0.57 -1.26,-11.07 5.94,-4.22 6.2,5.02 12.18,-6.75 8.42,-15.36 4.91,8.48 3.23,-3.15 z"
       id="M33204"
       style="fill:#ffff80;fill-opacity:1;stroke:#000000;stroke-width:1.49249;stroke-dasharray:none;stroke-opacity:1" />
    <path
       d="m 403.87,215.16 6.87,-3.12 8.64,2.86 4.01,13.87 4.63,4.08 10.88,0.71 11.77,10.6 6.1,3.64 11.07,0.05 4.51,-6.72 -0.47,-11.94 3.68,-2.33 4.98,-12.77 5.34,-3.44 -0.41,-7.54 3.77,-6.75 0.46,-11.65 4.41,-4.88 -0.67,-6.51 2.88,-7.14 4,-1.71 2.91,-9.18 5.39,-5.47 1.5,-19.74 -0.93,-14.18 3.15,-5.91 7.67,-5.1 -5.79,-8.37 -2.67,-12.6 11.57,-9.49 3.49,-6.11 -2.25,-13.59 7.98,-13.23 9.75,2.27 7.32,3.89 5.25,-4.13 5.89,3.22 7.68,-2.55 3.21,-4.33 8.09,3.44 3.39,5.88 13.59,13.07 9.31,-1.08 3.91,6.3 -2.57,4.59 9.03,9.89 -5.44,7.27 1.85,5.61 -5.53,3.06 4.86,6.77 9.6,-2.78 4.13,5.61 -1.4,9.82 -5.45,9.28 -0.25,9.3 7.64,5.67 2.74,6.65 -0.94,7.1 -11.98,3.93 -5.1,8.85 0.26,13.26 -6.66,20.25 -1.72,12.2 -15.55,16.51 -3.37,0.06 -2.17,11.54 2.93,2.41 -2.05,14.13 -7.35,-3.22 -6.24,2.92 -0.61,13.02 1.7,13.82 -5.41,-5.02 -10.94,3.74 -2.14,-3.22 -8.02,-1.3 -9.33,11.01 5.22,9.27 -6.04,0.22 -10.22,-3.54 -4.73,-7.53 -3.88,-0.42 -4.96,-6.57 -6.33,-2.77 -7.96,5.51 -4.26,7.35 -13.5,2.05 -2.55,-7.73 1.49,-9.24 4.8,-13.55 -14.99,2.9 1.79,10.01 -5.25,13.07 -7.1,4.08 -0.62,4.62 -6.87,8.37 -9.51,8.74 -7.34,-8.12 -5.19,1.42 -3.96,-13.14 5.25,-5.44 -3.55,-24.21 -6.74,0.18 -15.32,3.53 -5.29,-8.13 -6.35,2.4 -2.41,-1.88 1.19,-10.1 -1.38,-6.58 4.5,-9.39 4.61,-4.12 -2.38,-5.04 3.15,-8.88 z"
       id="M33203"
       style="fill:#ffff80;fill-opacity:1;stroke:#000000;stroke-width:1.49249;stroke-dasharray:none;stroke-opacity:1" />
    <path
       d="m 291.6,724.36 -0.56,8.56 -10.08,-0.16 0.09,-9.56 z m 107.18,-83.28 3.7,7.77 -0.5,8.78 -6.84,9.45 0.08,11.5 -9.68,3.53 6.27,13.64 7.05,-0.78 8.04,7.17 2.81,5.97 8.7,1.17 2.73,21.49 -3.8,0.64 -2.33,9.29 1.37,4.17 8.96,2.57 3.17,8.39 -0.59,5.52 -9.05,-8.81 -26.05,-4.43 -14.46,9.62 1.57,13.29 2.22,6.24 -5.06,1.77 -10.76,-2.93 -4.53,2.77 -3.2,-7.85 -9.11,-14.45 -0.6,-8.28 -4.88,1.78 -1.74,-9.7 -6.12,-6.56 -3.79,-9.92 -5.46,2.21 -9.3,-1.92 -1.84,3.77 12.62,4.92 4.34,16.87 -16.73,-2.13 -10.68,-3.97 0.91,-38.2 -10.1,0.2 -0.25,8.82 -4.46,4.48 -9.66,-0.23 -0.26,-8.81 -7.81,-2.17 -7.36,6.95 -0.6,7.06 -15.19,2.34 -4.14,7.64 -10.9,-2.7 2.68,-9.23 10.73,-5.71 12.38,-22.46 4.92,-15.11 -5.69,-2.8 -2.07,-7.45 -9.35,-9.34 6.28,-2.72 11.89,-10.6 -7.39,-8.27 -3.74,-14.76 -0.92,-15.52 18.65,-6.9 13.92,-8.81 9.98,-3.38 2.44,4.28 13.98,2.41 7.29,8.16 -0.66,13.56 3.36,7.32 10.29,-0.12 7.86,-7.7 -4.1,-2.38 7.86,-7.81 5.7,2.72 6.76,-3.51 8.88,4.6 3.92,-1.33 -0.07,-11.15 1.74,-7.53 8.27,-4.36 8.2,-1.35 7.03,6.38 1.84,5.74 -4.07,3.2 3.97,13.39 -5.05,6.37 -8.43,5.7 -2.94,7.02 -8.46,3.26 2.55,7.18 13.2,3.56 2.58,3.96 z m -53.51,141.8 2.05,3.4 7.37,0.67 -3.42,6.51 -4.23,-0.83 z"
       fill-rule="evenodd"
       id="M33202"
       style="fill:#ffff80;fill-opacity:1;stroke:#000000;stroke-width:1.49249;stroke-dasharray:none;stroke-opacity:1" />
    <path
       d="m 197.74,701.36 13.2,-6.88 6.28,15.84 -5.85,2.85 -4.23,7 3.34,6.4 -5.18,3.81 -10.11,1.03 -11.18,-3.77 5.74,-10.07 4.17,-2.35 z"
       id="M33445"
       style="fill:#ffff80;fill-opacity:1;stroke:#000000;stroke-width:1.49249;stroke-dasharray:none;stroke-opacity:1" />
    <path
       d="m 407.1,357.17 0.05,15.61 11.84,9.06 -1.66,7.52 -5.8,1.03 -5.94,9.78 1.5,3.58 -4.87,8.7 3.31,13.23 -3.14,7.6 -10.52,2.52 -7.49,6.08 0.89,23.64 -7.82,-1.4 -5.78,-5.46 -7.17,0.98 -5.61,3.94 -4.78,10 -0.84,9.08 -14.01,0.43 -8.9,15.05 -14.05,-6.08 -0.56,4.75 -19.08,11.87 -1.82,8.83 -6.35,-5.21 -3.82,-12.59 -9.11,-12.98 -0.49,-12.39 -2.86,-7.12 -6.1,-8.24 0.52,-7.89 -4.94,-4.91 -0.62,-5.81 5.07,-9.49 4.65,-2.94 7.04,-11.64 -0.88,-8.03 12.57,-6.26 8.62,-8.38 7.62,-1.18 4.79,-10.44 4.14,-3.06 -3.84,-9.46 5.8,-11.56 -2.37,-18.57 4.81,5.61 6.91,-1.28 5.89,3.92 5.49,0.04 3.69,-5.49 4.51,-0.36 3.2,12.99 18.19,7.01 4.1,-8.88 5.82,-0.6 3.1,-5.25 7.68,-5.7 6.28,1.21 2.92,5.58 5.99,0.02 z"
       id="M33681"
       style="fill:#ffff80;fill-opacity:1;stroke:#000000;stroke-width:1.49249;stroke-dasharray:none;stroke-opacity:1" />
    <path
       d="m 662.1,140.28 3.83,13.05 -0.25,7.66 4.83,8.01 0.02,5.85 -3.5,10.22 5.37,5.42 -3.9,11.86 3.52,5.58 -5.96,2.65 -5.03,5.77 -11.16,-0.05 -6,1.89 -5,7.29 -4.77,-2.48 -7.26,-2.22 -10.54,-0.43 -3.54,-6.09 -9.96,-0.45 1.72,-12.2 6.66,-20.25 -0.26,-13.26 5.1,-8.85 11.98,-3.93 7,2.26 8.59,-5.7 2.03,-10.81 z"
       id="M33623"
       style="fill:#ffff80;fill-opacity:1;stroke:#000000;stroke-width:1.49249;stroke-dasharray:none;stroke-opacity:1" />
    <path
       d="m 634.1,223 -4.34,13.17 8.76,7.47 -4.01,4.72 1.53,7.06 -4.74,8.81 -11.13,-3.01 -13.43,-1 2.16,22.76 -1.95,2.21 -10.55,-0.02 -7.78,3.9 -7.61,-2.27 -8.29,4.74 -2.63,-6.54 -1.7,-13.82 0.61,-13.02 6.24,-2.92 7.35,3.22 2.05,-14.13 -2.93,-2.41 2.17,-11.54 3.37,-0.06 15.55,-16.51 9.96,0.45 3.54,6.09 10.54,0.43 z"
       id="M33622"
       style="fill:#ffff80;fill-opacity:1;stroke:#000000;stroke-width:1.49249;stroke-dasharray:none;stroke-opacity:1" />
  </g>
</svg>
