<?xml version="1.0" encoding="UTF-8" standalone="no"?>
<svg
   version="1.2"
   width="371.25714"
   height="600"
   viewBox="0 0 371.25714 600"
   stroke-linecap="round"
   stroke-linejoin="round"
   id="svg6255"
   sodipodi:docname="si.svg"
   inkscape:version="1.2 (dc2aedaf03, 2022-05-15)"
   xmlns:inkscape="http://www.inkscape.org/namespaces/inkscape"
   xmlns:sodipodi="http://sodipodi.sourceforge.net/DTD/sodipodi-0.dtd"
   xmlns="http://www.w3.org/2000/svg"
   xmlns:svg="http://www.w3.org/2000/svg">
  <defs
     id="defs6259" />
  <sodipodi:namedview
     id="namedview6257"
     pagecolor="#505050"
     bordercolor="#eeeeee"
     borderopacity="1"
     inkscape:showpageshadow="0"
     inkscape:pageopacity="0"
     inkscape:pagecheckerboard="0"
     inkscape:deskcolor="#505050"
     showgrid="false"
     inkscape:zoom="0.62335654"
     inkscape:cx="184.48511"
     inkscape:cy="299.98883"
     inkscape:window-width="1920"
     inkscape:window-height="1009"
     inkscape:window-x="-8"
     inkscape:window-y="-8"
     inkscape:window-maximized="1"
     inkscape:current-layer="svg6255" />
  <g
     id="si"
     transform="matrix(0.46398141,0,0,0.46398141,0.03600543,0.03601744)"
     style="fill:#ffff80;fill-opacity:1;stroke:#000000;stroke-width:2.15526;stroke-dasharray:none;stroke-opacity:1">
    <path
       d="m 725.93,591.88 -16.19,-0.25 -9,7.45 -7.14,1.47 -14.11,9.69 -6.1,-17.16 -7,-4.74 -13.52,-2.83 -3.99,5 -2.12,11.58 -4.96,-1.42 -1.67,-11.12 -4.32,-6.04 -9.61,-1.54 -5.28,-6.93 -10.77,-0.61 -6.09,3.37 -18.82,0.41 -10.8,3.17 -7.6,-6.64 -0.83,-1.51 16.65,-26.39 0.88,-14.96 9.25,-18.58 1.23,-11.57 21.8,-5.38 1.91,6.14 8.93,-2.68 6.14,13.51 16.11,-6.28 1.64,-17.22 3.29,-8.25 5.53,-3.75 3.88,-16.34 -2.07,-16.8 -4.08,-12.19 5.61,-8.12 4.55,4.07 18.2,2.57 3.48,-5.62 3.37,-16.77 -6.33,-11.22 1.82,-13.75 -10.46,-18.09 0.88,-6.05 -9.08,-14.39 1.76,-3.74 -12.71,-6.74 6.09,-11.56 -4.1,-7.95 3.05,-19.66 6.19,-9.66 0.37,-18.15 5.34,-10.68 -2.16,-17.88 12.45,-5.4 6.77,-26.35 12.76,-1.3 2.54,11.58 5.2,7.33 0.84,11.94 3.76,6.48 18.66,4.27 2.17,23.88 -5.85,5.09 -10.84,18.2 -1.1,11.95 12.84,10.6 4.35,15.58 21.48,5.25 1.27,15.03 5.43,10.6 -3.52,11.94 -8.53,8.95 3.64,8 -8.14,7.61 -0.03,5.39 9.81,8.06 8.85,17.18 14.92,9.81 3.76,7.37 -8.37,13.49 -12.48,8.23 -12.14,-0.34 -4.23,5.19 1.86,14.05 -4.52,4.68 13.64,3.89 1.04,7.83 -12.88,28.94 1.26,17.52 -6.33,7.88 z"
       id="M25214"
       style="fill:#ffff80;fill-opacity:1;stroke:#000000;stroke-width:2.15526;stroke-dasharray:none;stroke-opacity:1" />
    <path
       d="m 494.82,728.94 5.03,7.88 0.56,19.42 7.92,16.79 1.08,15.4 14.55,0.24 11.69,6.17 6.03,-11.64 -3.12,-8.84 8.27,-0.99 2.75,5.67 9,5.22 7.65,-3.11 6.12,-8.47 5.62,3.71 20.88,5.82 8.3,-1 16.73,-6.45 4.94,5.74 8.76,3.52 7.38,7.48 -3.11,10.25 7.44,2.22 6.39,-8.24 5.51,-0.11 5.81,9.74 16.19,7 5.21,-7.61 5.26,2.19 9.39,-5.8 8.35,-1.73 8.73,-6.19 5.43,-9.75 -1.51,-5.4 -11.22,-9.6 -5.24,-10.62 -1.52,-10.29 2.22,-12.77 3.47,-4.84 9.57,-2.09 1.54,-8.29 16.88,13.17 5.72,0.41 12.46,6.3 5.8,-2.52 22.42,18.09 12.45,14.53 0.4,12.71 -10.35,3.59 -3.57,15.28 -5.77,3.52 -2.67,8.34 14.3,9.62 -9.3,10.18 2.94,8.15 -0.7,13.1 -3.7,7.35 3.93,14.41 -7.9,5.18 7.31,22.24 -12.19,10.57 -7.3,3.17 -7.93,10.55 -1.62,17.22 2.76,10.41 5.76,0.2 -6.54,16.42 -15.69,6.14 -19.25,-12.24 -5.25,5.63 -13.01,2.95 -9.51,-0.62 -0.81,-7.24 -9.55,-2.08 -14.34,9.65 -8.96,-18.43 -8.18,-9.17 -11.66,-3.61 -1.5,-6.79 -10.14,-2.44 -13.87,-17.15 -5.22,-1.69 -27.77,1.19 -10.42,-9.71 -10.22,-5.41 -16.83,-0.69 -0.69,4.8 -15.06,2.38 -4.79,7.28 -1.42,10.07 2.27,18.05 -7.06,8.23 -14.06,8.39 -2.75,6.29 -14.48,-3.51 -4.08,12.12 -2.83,-5.27 -7.76,0.2 -9.19,-14.95 -8.17,3.08 -7.47,-23.93 3.54,-11.94 -8.07,-11.27 3.98,-6.68 -0.07,-9.37 -4.27,-4.52 -5.48,-5.78 -0.26,-6.5 -17.66,-14.96 -0.01,-9.49 16.31,-10.24 11.94,-0.94 11.58,5.22 11.39,-5.92 0.07,-10.3 15.11,-10.45 -8.31,-6.97 -2.92,-10.2 -5.76,-9.18 -7.21,-2.1 -12.11,-10.34 -12.48,-2.81 -0.85,-8.1 -11.03,-15.67 -0.83,-16.07 -7.33,-5.33 -12.66,2.62 -7.55,-5.35 -5.33,-17.31 8.41,-4.3 4.1,-17.22 10.66,5.13 16.9,1.97 4.36,5.94 31.46,3.92 16.1,15.46 z"
       id="M25213"
       style="fill:#ffff80;fill-opacity:1;stroke:#000000;stroke-width:2.15526;stroke-dasharray:none;stroke-opacity:1" />
    <path
       d="m 395.48,249.44 -2.24,11.04 1.58,8.54 -4.29,6.18 -3.15,14.96 3.02,13.98 -1.91,14.48 -3.84,2.38 -0.93,12.7 -4.38,5.8 3.05,5.59 13.15,3.35 -4.07,8.98 -10.69,6.02 -6.15,-0.62 -4.75,-6.48 -3.51,-13.22 -10.35,0.01 -10.27,9.24 -2.43,8.71 -9.42,4.37 -5.81,6.67 -7.53,14.12 5.07,10.9 1.74,12.12 -1.35,8.5 -11.77,18.08 -1.43,8.82 3.72,11.55 -1.1,7.41 10.02,1.93 6.02,9.55 17.98,15.8 5.23,14.45 1.14,16.28 3.13,9.06 6.26,5.15 -2.31,12.3 -12.41,0.48 -18.51,12.61 -8.22,9.92 -4.81,-3.21 -11.02,0.41 -16.52,14.61 3.33,11.49 -0.05,9.24 -8.45,6.61 -14.27,5.71 -5.73,8.01 -11.8,-11.24 -7.77,0.02 -23.39,-7.54 -9.09,4.9 -5.2,10.01 -8.31,9.32 -10.48,3.17 -20.32,-8.3 -6.68,-9.65 1.88,-5.84 -26.75,-13.5 -19.67,6.31 -6,-3.93 -2.57,-5.85 -7.91,1.59 -2.39,8.05 -17.33,8.77 -5.76,-3.76 -11.05,-20.27 1.55,-8.16 -7.43,-6.26 L 55.49,554.5 31.95,539.96 20.34,516.24 1,510.58 l 6.93,-21.82 8.87,-8.45 1.61,-10.74 14.8,-10.75 -1.23,-7.82 19.21,1.81 2.94,-9.08 -2.29,-4.92 3.08,-20.15 2.84,-4.97 15.57,-2.37 6.17,3.41 7.31,-2.81 19.64,6.7 -1.19,12.35 11.77,9 12.73,-4.22 5.46,-4.53 11.88,-3.65 3.44,-10.71 -0.65,-12.91 11.23,-13.58 13.23,-3.79 -1.97,-23.5 3.6,-10.53 2.03,-15.08 -1.53,-5.42 6.56,-7.86 0.7,-13.75 8.71,-8.72 3.9,-14.67 5.56,-12.56 1.87,-13.31 8.52,0.1 5.54,13.12 12.43,14.03 11.63,1.74 9.59,19.03 9.88,-8.5 19.82,1.23 5.8,-8.23 0.04,-10.24 4.9,-10.54 4.81,0.53 3.93,-10.41 6.13,-5.95 -0.65,-8 23.18,-7.76 14.29,3.79 1.88,5.27 7.95,2.7 9.03,-6.09 -0.41,-5.53 7.55,-8.69 11.93,4.57 z"
       id="M25212"
       style="fill:#ffff80;fill-opacity:1;stroke:#000000;stroke-width:2.15526;stroke-dasharray:none;stroke-opacity:1" />
    <path
       d="m 358,923.56 12.49,18.54 3.06,12.97 16.64,11.75 13.49,-8.46 12.61,3.78 -4.71,-14.46 11.54,-0.27 14.58,14.59 -5.96,16.14 2.37,15.1 -13.18,5.41 -6,4.89 5.71,9.27 -3.87,7.28 4.5,7.36 4.62,21.43 -7.3,3.45 -2.74,8.49 -7.87,3.74 -3.42,6.55 -10.07,-1.42 -2.27,-4.56 -16.53,-3.38 -10.24,-5.35 -3.72,-6.19 -17.51,-2.4 -17.21,-24.06 -4.3,-8.8 4.37,-10.34 -7.02,-2.48 -4.66,-21.66 3.88,-9.14 -0.88,-10.91 13.87,-8.89 5.8,-17.33 0.48,-16.91 z"
       id="M25211"
       style="fill:#ffff80;fill-opacity:1;stroke:#000000;stroke-width:2.15526;stroke-dasharray:none;stroke-opacity:1" />
    <path
       d="m 358,923.56 -19.45,-6.27 -0.48,16.91 -5.8,17.33 -13.87,8.89 -13.72,-11.6 -12.75,-22.96 -9.53,-12.16 -12.51,-5.2 5.43,-8.3 6.45,-1.9 2.95,-8.08 -1.15,-13.07 -8.23,-7.34 2.63,-15.02 -4.82,-11.65 -6.51,-8.9 -20.58,-14.31 4.92,-6.74 -0.88,-6.92 9.49,-13.06 22.58,13.17 7.63,-3.42 12.52,2.62 9.56,30.33 11.04,6.6 6.83,-0.91 9.88,6.7 8.59,0.8 5.62,8.92 9.69,9.51 -2.48,12.19 3.76,3.6 -0.51,26.62 z"
       id="M25210"
       style="fill:#ffff80;fill-opacity:1;stroke:#000000;stroke-width:2.15526;stroke-dasharray:none;stroke-opacity:1" />
    <path
       d="m 669.05,973.95 14.34,-9.65 9.55,2.08 0.81,7.24 9.51,0.62 13.01,-2.95 5.25,-5.63 19.25,12.24 15.69,-6.14 -1.39,9.71 5.08,15.76 -9.1,6.53 3.32,4.65 -0.56,15.96 -14.7,16.42 -4.65,8.46 -5,16.52 -8.18,-2.34 -17.34,15.25 -0.91,10.8 2.32,15.23 -7.05,2.64 -3.07,12.98 1.09,10.81 -18.21,8.51 -4.95,5.96 -7.66,-1.05 -10.03,4.28 -5.06,5.34 -8.42,-1.3 -6.73,3.65 -0.36,8.93 -9.12,7.67 -18.43,7.89 -15.13,-3.17 -9.32,10.36 -19.89,9.48 -17.65,-5.27 -8.73,0.71 -34.37,-12.52 -12.7,-12 -5.64,0.31 -1.64,-10.73 -16.03,-2.96 -21.19,8.28 -13.99,-8.72 -5.66,7.14 -12.81,-11.69 -4.81,-1.01 -4.6,-13.69 -12.14,8.08 -8.09,11.74 -9.89,-1.86 3.91,9.33 -3.03,8.64 13.76,8.13 16.57,1.8 10.27,-4.85 0.74,9.05 4.17,6.05 -10.37,8.63 -10.52,4.31 -4.5,17.25 -10.77,0.54 -8.69,13.69 8.82,15.96 -5.28,9.67 -20.36,11.27 -10.74,3.66 -9.9,-0.65 -4.12,4.19 -11.99,0.89 -14.72,10.94 -9.92,-2.02 -9.82,-5.19 -1.23,-5.27 5.52,-13.49 16.15,-11.59 -1.52,-6.21 -14.12,-6.74 -11.67,0.06 -3.53,-8.73 3.4,-14.56 -5.22,-2.78 -6.87,3.97 -19.67,5.35 -7.28,-0.05 0.67,-10.63 -17.23,-12.28 -8.72,4.5 -9.93,-17.11 2.6,-20.32 14.09,-3.44 10.24,0.85 3.64,-15.77 8.52,3.87 14.62,-1.92 -0.65,-10.91 5.5,-4.7 1.21,-10.89 7.7,-0.9 3.91,-7.16 10.15,-8.17 11.26,3.7 2.42,-5.61 13.97,-3.31 7.26,0.58 0.68,-9.86 -10.72,-10.91 9.2,-9.93 5.93,-1.68 3.03,-16.76 14.33,-8.18 17.51,2.4 3.72,6.19 10.24,5.35 16.53,3.38 2.27,4.56 10.07,1.42 3.42,-6.55 7.87,-3.74 2.74,-8.49 7.3,-3.45 -4.62,-21.43 -4.5,-7.36 3.87,-7.28 -5.71,-9.27 6,-4.89 13.18,-5.41 -2.37,-15.1 5.96,-16.14 12.97,8.17 8.63,-7.12 3.08,-8.92 9.19,14.95 7.76,-0.2 2.83,5.27 2.49,3.59 -0.01,13.29 6.99,9.74 14.12,7.3 7.72,9.96 8.82,-0.44 4.36,7.49 0.96,16.3 9.46,-2.39 2.93,8.7 8.32,7.07 16.5,3.54 14.94,-9.85 5.22,3.3 13.17,-9.44 6.51,-9.45 4.19,1.57 12.52,-13.99 16.9,1.39 5.46,6.1 16.63,-6.67 6.87,-8.8 5.21,-27.27 z"
       id="M25209"
       style="fill:#ffff80;fill-opacity:1;stroke:#000000;stroke-width:2.15526;stroke-dasharray:none;stroke-opacity:1" />
    <path
       d="m 318.4,960.42 0.88,10.91 -3.88,9.14 4.66,21.66 7.02,2.48 -4.37,10.34 4.3,8.8 17.21,24.06 -14.33,8.18 -3.03,16.76 -5.93,1.68 -12.75,7.81 -15.13,-5.73 -7.89,-15.15 -7.55,-3.17 -2.94,-5.72 14.98,-2.46 -4.32,-18.23 -7.07,-6.43 -6.12,4.54 -10.88,-4.38 11.29,-23.84 -8.29,-9.05 -2.15,-6.56 -8.86,-1.27 -13.87,-9.45 -2.37,-8.79 4.71,-13.47 -13.26,-8.87 4.62,-6.97 -7.34,-4.57 4.83,-6.83 15.23,6.59 21.82,12.87 9.9,-15.18 9.22,0.07 5.19,-4.33 12.75,22.96 z"
       id="M25208"
       style="fill:#ffff80;fill-opacity:1;stroke:#000000;stroke-width:2.15526;stroke-dasharray:none;stroke-opacity:1" />
    <path
       d="m 246.06,819.93 20.58,14.31 6.51,8.9 4.82,11.65 -2.63,15.02 8.23,7.34 1.15,13.07 -2.95,8.08 -6.45,1.9 -5.43,8.3 12.51,5.2 9.53,12.16 -5.19,4.33 -9.22,-0.07 -9.9,15.18 -21.82,-12.87 -15.23,-6.59 1.85,-3.2 -7.37,-10.22 -11.42,-4.48 -3.08,-13.43 2.54,-14.96 -7.21,-4.96 -5.47,-8.84 7.47,-29.66 -0.4,-9.98 6.39,-7.91 11.9,1.84 4.92,5.31 9.01,1.11 z"
       id="M25207"
       style="fill:#ffff80;fill-opacity:1;stroke:#000000;stroke-width:2.15526;stroke-dasharray:none;stroke-opacity:1" />
    <path
       d="m 230.57,925.84 -4.83,6.83 7.34,4.57 -4.62,6.97 13.26,8.87 -4.71,13.47 2.37,8.79 13.87,9.45 8.86,1.27 2.15,6.56 8.29,9.05 -11.29,23.84 -13.26,-0.1 -1.94,-6.84 -10.7,2.57 -1.81,10.31 -8.21,4.61 -9.47,0.46 -4.12,-12.45 -7.89,-10.59 0.09,-5.48 -24.1,-5.5 -10.74,1.35 0.15,-8.16 6.63,-0.71 6.33,-11.95 -4.66,-13.39 0.19,-9.84 -5.13,-10.31 -7.02,-2.11 11,-13.93 0.88,-7.31 8.1,-8.17 19.22,-12.36 -7.53,-5.52 -2.62,-9.91 15.9,4.33 3.08,13.43 11.42,4.48 7.37,10.22 z m -62.16,59.88 2.91,-7.52 7.2,6.17 -3.53,7.16 z"
       fill-rule="evenodd"
       id="M25206"
       style="fill:#ffff80;fill-opacity:1;stroke:#000000;stroke-width:2.15526;stroke-dasharray:none;stroke-opacity:1" />
    <path
       d="m 390.47,713.33 5.33,17.31 7.55,5.35 12.66,-2.62 7.33,5.33 0.83,16.07 11.03,15.67 0.85,8.1 12.48,2.81 12.11,10.34 7.21,2.1 5.76,9.18 2.92,10.2 8.31,6.97 -15.11,10.45 -0.07,10.3 -11.39,5.92 -11.58,-5.22 -11.94,0.94 -16.31,10.24 0.01,9.49 17.66,14.96 0.26,6.5 5.48,5.78 -8.13,3.55 -5.6,-4.49 0.98,-9.46 -13.96,-10.99 -9.51,5.68 -4.85,-5.62 -8.11,3.76 -4.8,-11.38 -13.68,-0.3 -10.66,7.28 -9.69,-9.51 -5.62,-8.92 -8.59,-0.8 -9.88,-6.7 -6.83,0.91 -11.04,-6.6 -9.56,-30.33 -12.52,-2.62 6.73,-12.4 9.5,-1.6 19.01,7.82 16.48,-2.64 8.39,-12.91 -1.07,-5.5 -8.08,-6.93 0.84,-13.22 4.22,-3.92 8.38,-21.86 21.01,-0.08 5.8,-4.68 -9.67,-13.69 z m 20.68,67.43 10.84,2.59 1.35,-4.53 -7.59,-7.36 -11.37,-5.45 -4.52,2.39 -10.92,-2.51 0.69,8.04 8.06,1.14 5.75,7.77 z M 350,699.43 l 10.25,3.69 -9.36,7.43 -5.37,-2.8 -8.96,5.5 0.72,-12.86 z"
       fill-rule="evenodd"
       id="M25204"
       style="fill:#ffff80;fill-opacity:1;stroke:#000000;stroke-width:2.15526;stroke-dasharray:none;stroke-opacity:1" />
    <path
       d="m 672.97,239.1 2.16,17.88 -5.34,10.68 -0.37,18.15 -6.19,9.66 -3.05,19.66 4.1,7.95 -6.09,11.56 12.71,6.74 -1.76,3.74 9.08,14.39 -0.88,6.05 10.46,18.09 -1.82,13.75 6.33,11.22 -3.37,16.77 -3.48,5.62 -18.2,-2.57 -4.55,-4.07 -5.61,8.12 4.08,12.19 2.07,16.8 -3.88,16.34 -5.53,3.75 -3.29,8.25 -1.64,17.22 -16.11,6.28 -6.14,-13.51 -8.93,2.68 -1.91,-6.14 -21.8,5.38 -1.07,-19.05 -9.59,-12.44 -5.76,1.13 -8.13,-12.42 -14.3,-8.25 -6.83,0.98 -13.72,-3.14 -11.3,0.6 0.75,-15.17 -8.23,-16.07 -6.21,-4.66 -10.38,-16.02 1.79,-10.58 -9.27,-12.14 -2.14,-11.78 13.1,-6.75 0.13,-7.48 -7.37,-15.82 -1.44,-16.03 0.37,-21.29 -9.42,-10.5 -9.17,7.22 -6.84,-6.25 -3.61,-16.17 -6.91,2.78 4.53,15.52 -5.57,11.14 3.6,8.07 -7.12,5.2 -2.97,8.38 -6.39,6.21 3.49,15.23 8.95,0.04 -5.08,9.1 0.64,6.42 -7.96,14.68 -9.16,-4.6 4.22,-7.78 -1.8,-10.88 -8.54,1.26 -11.94,-4.15 -1.86,-11.89 3.18,-10.46 7.92,-7.55 -15.64,-7.7 -6.39,6.05 -3.31,17.59 -5.73,16.13 -13.15,-3.35 -3.05,-5.59 4.38,-5.8 0.93,-12.7 3.84,-2.38 1.91,-14.48 -3.02,-13.98 3.15,-14.96 4.29,-6.18 -1.58,-8.54 2.24,-11.04 0.54,-13.93 3.83,-9.2 -4.57,-14.62 5.37,-5.49 -1.39,-11.23 4.28,-8.82 -0.44,-9.12 10.81,5.21 12.98,2.33 6.78,-1.63 5.36,6.42 8.71,-2.46 22.48,2.55 -4.47,-16.42 12.73,-17.51 -12.24,-33.57 -8.11,-9.38 -0.11,-13.83 -2.85,-8.95 -6.65,-9.97 -1.32,-15.03 -2.99,-5.21 -11.93,-3.63 -3.45,-6.75 18.21,-30.28 1.26,-10.39 6.24,-2.76 10.73,4.44 0.84,-7.06 21.38,-2.15 9.01,4.22 6.25,15.9 11.02,2.67 4.36,7.47 8.84,-2.72 9.48,5.52 7.77,-2.83 11.83,12.33 6.61,-3.49 8.21,7.06 13.72,3.63 12.91,10.59 -4.58,13.92 7.55,11 -4.55,10.02 9.52,12.41 1.33,10.46 11.09,4.42 9.62,-6.8 10.47,-1.61 9.38,9.77 -5.33,18.06 3.04,7.88 1.22,40.11 -4.43,6.26 -3.07,13.7 1.44,12.13 5.31,4.33 8.83,-9.38 8.74,0.99 4.17,18.41 z m -173.49,7.06 -8.47,4.42 1.5,19.93 6.54,0.83 4.42,-5.98 -0.08,-10.94 z"
       fill-rule="evenodd"
       id="M25203"
       style="fill:#ffff80;fill-opacity:1;stroke:#000000;stroke-width:2.15526;stroke-dasharray:none;stroke-opacity:1" />
    <path
       d="m 566.84,574.74 7.6,6.64 10.8,-3.17 18.82,-0.41 6.09,-3.37 10.77,0.61 5.28,6.93 9.61,1.54 4.32,6.04 1.67,11.12 4.96,1.42 2.12,-11.58 3.99,-5 13.52,2.83 7,4.74 6.1,17.16 0.08,6.43 -7.21,1.35 -7.62,6.52 -20.38,-5.2 -15.61,14.27 -8.03,0.54 -4.3,11.44 -10.15,10.81 -15.65,1.69 -5.4,10.82 2.67,9.32 -12.42,-6.3 -4.36,3.01 -8.57,3.32 3.19,8.05 -2.73,4.58 -10.83,-0.91 -4.31,6.92 -13.63,-8.08 -5.24,16.32 -8.93,14.03 2.97,4.89 -12.45,-7.79 -5.68,6.02 -5.93,-5.2 -4.15,11.85 -12.36,-4.71 -16.1,-15.46 -31.46,-3.92 -4.36,-5.94 -16.9,-1.97 -10.66,-5.13 30.29,-5.93 15.53,-8.37 6.33,-7.77 36.75,-20.88 22.59,-14.93 11.16,-14.7 9.39,-2.91 21.19,-16.98 14.31,-19.23 z"
       id="M25202"
       style="fill:#ffff80;fill-opacity:1;stroke:#000000;stroke-width:2.15526;stroke-dasharray:none;stroke-opacity:1" />
    <path
       d="m 112.67,597.75 6,3.93 19.67,-6.31 26.75,13.5 -1.88,5.84 6.68,9.65 20.32,8.3 10.48,-3.17 8.31,-9.32 5.2,-10.01 9.09,-4.9 23.39,7.54 7.77,-0.02 11.8,11.24 -5.99,1.47 -14,8.88 -6.05,15.83 -8.26,3.96 -3.7,13.72 3.34,7 -13.05,10.31 -7.43,3.52 -8.53,8.54 -2.23,9.33 -8.42,1 -13.74,26.69 -1.16,9.26 8.94,20.94 14.11,12 -12.34,15.14 -1.98,11.79 6.61,12.52 -1.56,15.21 -7.56,10.11 -10.77,8.2 -8.26,3.15 0.18,15.3 -9.33,6.95 -2.76,7.81 -8.14,9.54 -1.16,11.24 -7.64,5.18 -7.18,16.96 1.01,4.73 -8.56,10.05 -0.11,15.19 -7.24,18.66 15.62,12.21 17.64,2.72 9.77,26.02 11.12,6.44 1.67,-17.74 10.74,-1.35 24.1,5.5 -0.09,5.48 7.89,10.59 4.12,12.45 9.47,-0.46 8.21,-4.61 1.81,-10.31 10.7,-2.57 1.94,6.84 13.26,0.1 10.88,4.38 6.12,-4.54 7.07,6.43 4.32,18.23 -14.98,2.46 2.94,5.72 7.55,3.17 7.89,15.15 15.13,5.73 12.75,-7.81 -9.2,9.93 10.72,10.91 -0.68,9.86 -7.26,-0.58 -13.97,3.31 -2.42,5.61 -11.26,-3.7 -10.15,8.17 -3.91,7.16 -7.7,0.9 -1.21,10.89 -5.5,4.7 0.65,10.91 -14.62,1.92 -8.52,-3.87 -3.64,15.77 -10.24,-0.85 -14.09,3.44 -2.37,-9.23 -5.96,-9.72 -13.94,9.48 -13.05,1.95 -3.69,9.32 -11.31,7.73 -12.64,-5.76 -0.01,-8.15 -14.84,-7.03 -9.64,-9.93 -5.07,-14.58 9.29,-8.81 -2.45,-14.39 1.92,-8.22 10.64,-12 -4.5,-12.26 3.06,-5.6 -3.76,-9.1 -13.34,-5.55 -0.76,-4.17 -12.64,-15.2 5.18,-12.19 -2,-6.68 -6.83,-0.1 0.18,-9.76 -8.05,2.53 -17.12,-1.66 5.88,-11.25 4.61,-3 -4.48,-11.55 3.22,-4.1 -1.1,-13.75 -9.35,-2.16 1.95,-6.72 -4.03,-10.24 -10.63,-9.18 0.56,-7.36 12.8,-9.15 9.09,-2.4 1.15,-9.55 -4.57,-12.88 7.42,-10.75 1.76,-9.96 -5.54,-7.33 9.12,-15.79 0.37,-10.43 7.57,-15.01 2.86,-19.38 -4.14,-10.71 4.51,-6.11 4.09,-18.73 -10.79,-4.16 -7.14,-24.97 1.48,-13.81 -12.5,-29.08 -0.26,-17.45 7.5,-4.52 0.2,-16.38 8.24,-33.6 9.03,-10.82 2.37,-9.01 z"
       id="M25201"
       style="fill:#ffff80;fill-opacity:1;stroke:#000000;stroke-width:2.15526;stroke-dasharray:none;stroke-opacity:1" />
    <path
       d="m 679.49,610.24 14.11,-9.69 7.14,-1.47 9,-7.45 16.19,0.25 4.62,8.72 -2.53,26.92 3.92,5.66 -8.99,11.51 -11.58,3.37 0.71,9.12 6.87,8.23 6.57,1.04 8.96,11.76 10.55,3.37 9.85,13.12 -0.76,12.59 -3.96,18.98 -4.69,6.88 -5.72,-0.41 -16.88,-13.17 -1.54,8.29 -9.57,2.09 -3.47,4.84 -2.22,12.77 1.52,10.29 5.24,10.62 11.22,9.6 1.51,5.4 -5.43,9.75 -8.73,6.19 -8.35,1.73 -9.39,5.8 -5.26,-2.19 -5.21,7.61 -16.19,-7 -5.81,-9.74 -1.35,-7.16 -8.82,-9.31 -18.52,-2.15 -3.08,-7.3 -9.06,-7.53 -5.63,-8.22 -5.75,-14.3 0.07,-11.94 -4.05,-12.02 -9.62,-8.83 -6.53,-13.46 -17.74,-18.46 4.36,-3.01 12.42,6.3 -2.67,-9.32 5.4,-10.82 15.65,-1.69 10.15,-10.81 4.3,-11.44 8.03,-0.54 15.61,-14.27 20.38,5.2 7.62,-6.52 7.21,-1.35 z"
       id="M25443"
       style="fill:#ffff80;fill-opacity:1;stroke:#000000;stroke-width:2.15526;stroke-dasharray:none;stroke-opacity:1" />
    <path
       d="m 547.86,696.9 4.31,-6.92 10.83,0.91 2.73,-4.58 -3.19,-8.05 8.57,-3.32 17.74,18.46 6.53,13.46 9.62,8.83 4.05,12.02 -0.07,11.94 -6.65,3.96 -8.72,0.07 -3.01,-4.86 -21.17,-7.4 0.01,-9.13 -15.17,-3.72 -1.26,-7.1 3.42,-9.47 z"
       id="M25442"
       style="fill:#ffff80;fill-opacity:1;stroke:#000000;stroke-width:2.15526;stroke-dasharray:none;stroke-opacity:1" />
    <path
       d="m 523.03,724.06 -2.97,-4.89 8.93,-14.03 5.24,-16.32 13.63,8.08 8.57,5.1 -3.42,9.47 1.26,7.1 15.17,3.72 -0.01,9.13 -23.03,-6.26 -7.36,0.71 3.24,11.22 5.14,4.59 -2.75,6.79 -11.16,-3.78 -0.68,-11.09 -9.54,-5.2 z"
       id="M25441"
       style="fill:#ffff80;fill-opacity:1;stroke:#000000;stroke-width:2.15526;stroke-dasharray:none;stroke-opacity:1" />
    <path
       d="m 441.85,889.5 4.27,4.52 0.07,9.37 -3.98,6.68 8.07,11.27 -3.54,11.94 7.47,23.93 8.17,-3.08 -3.08,8.92 -8.63,7.12 -12.97,-8.17 -14.58,-14.59 -11.54,0.27 4.71,14.46 -12.61,-3.78 -13.49,8.46 -16.64,-11.75 -3.06,-12.97 -12.49,-18.54 6.3,-13.62 0.51,-26.62 -3.76,-3.6 2.48,-12.19 10.66,-7.28 13.68,0.3 4.8,11.38 8.11,-3.76 4.85,5.62 9.51,-5.68 13.96,10.99 -0.98,9.46 5.6,4.49 z"
       id="M25384"
       style="fill:#ffff80;fill-opacity:1;stroke:#000000;stroke-width:2.15526;stroke-dasharray:none;stroke-opacity:1" />
    <path
       d="m 482.16,974.15 4.08,-12.12 14.48,3.51 2.75,-6.29 14.06,-8.39 7.06,-8.23 -2.27,-18.05 1.42,-10.07 4.79,-7.28 15.06,-2.38 0.69,-4.8 16.83,0.69 10.22,5.41 10.42,9.71 27.77,-1.19 5.22,1.69 13.87,17.15 10.14,2.44 1.5,6.79 11.66,3.61 8.18,9.17 8.96,18.43 3.39,11.24 -5.21,27.27 -6.87,8.8 -16.63,6.67 -5.46,-6.1 -16.9,-1.39 -12.52,13.99 -4.19,-1.57 -6.51,9.45 -13.17,9.44 -5.22,-3.3 -14.94,9.85 -16.5,-3.54 -8.32,-7.07 -2.93,-8.7 -9.46,2.39 -0.96,-16.3 -4.36,-7.49 -8.82,0.44 -7.72,-9.96 -14.12,-7.3 -6.99,-9.74 0.01,-13.29 z"
       id="M25383"
       style="fill:#ffff80;fill-opacity:1;stroke:#000000;stroke-width:2.15526;stroke-dasharray:none;stroke-opacity:1" />
    <path
       d="m 661.19,795.62 -5.51,0.11 -6.39,8.24 -7.44,-2.22 3.11,-10.25 -7.38,-7.48 -8.76,-3.52 -4.94,-5.74 -16.73,6.45 -8.3,1 -20.88,-5.82 -5.62,-3.71 -6.12,8.47 -7.65,3.11 -9,-5.22 -2.75,-5.67 -8.27,0.99 3.12,8.84 -6.03,11.64 -11.69,-6.17 -14.55,-0.24 -1.08,-15.4 -7.92,-16.79 -0.56,-19.42 -5.03,-7.88 4.15,-11.85 5.93,5.2 5.68,-6.02 12.45,7.79 0.26,4.34 9.54,5.2 0.68,11.09 11.16,3.78 2.75,-6.79 -5.14,-4.59 -3.24,-11.22 7.36,-0.71 23.03,6.26 21.17,7.4 3.01,4.86 8.72,-0.07 6.65,-3.96 5.75,14.3 5.63,8.22 9.06,7.53 3.08,7.3 18.52,2.15 8.82,9.31 z"
       id="M25425"
       style="fill:#ffff80;fill-opacity:1;stroke:#000000;stroke-width:2.15526;stroke-dasharray:none;stroke-opacity:1" />
  </g>
</svg>
