<?xml version="1.0" encoding="UTF-8" standalone="no"?>
<svg
   version="1.2"
   width="690"
   height="600"
   viewBox="0 0 690 600"
   stroke-linecap="round"
   stroke-linejoin="round"
   id="svg1646"
   sodipodi:docname="sz.svg"
   inkscape:version="1.2 (dc2aedaf03, 2022-05-15)"
   xmlns:inkscape="http://www.inkscape.org/namespaces/inkscape"
   xmlns:sodipodi="http://sodipodi.sourceforge.net/DTD/sodipodi-0.dtd"
   xmlns="http://www.w3.org/2000/svg"
   xmlns:svg="http://www.w3.org/2000/svg">
  <defs
     id="defs1650" />
  <sodipodi:namedview
     id="namedview1648"
     pagecolor="#505050"
     bordercolor="#eeeeee"
     borderopacity="1"
     inkscape:showpageshadow="0"
     inkscape:pageopacity="0"
     inkscape:pagecheckerboard="0"
     inkscape:deskcolor="#505050"
     showgrid="false"
     inkscape:zoom="1.3501629"
     inkscape:cx="344.4029"
     inkscape:cy="383.65742"
     inkscape:window-width="1920"
     inkscape:window-height="1009"
     inkscape:window-x="-8"
     inkscape:window-y="-8"
     inkscape:window-maximized="1"
     inkscape:current-layer="svg1646" />
  <g
     id="sz"
     transform="matrix(0.86340852,0,0,0.86340852,-0.36341398,34.933585)"
     style="fill:#ffff80;fill-opacity:1;stroke:#000000;stroke-width:1.1582;stroke-dasharray:none;stroke-opacity:1">
    <path
       d="m 155.72,583.36 -10.08,-0.71 -13.79,-5.86 -8.75,-2.23 -33.6,-6.21 -17.55,-1.98 -11.49,-0.06 3.91,-6.44 3.18,-8.32 2.16,-2.32 1.53,-8.37 3.89,-5.6 6.37,-3.89 -3.69,-3.95 4.42,-4.52 -2.94,-2.05 -4.72,2.28 -2.01,8.93 -5.66,-2.14 -2.82,7.93 -5.59,2.6 -3.06,-2.32 2.27,-10.19 3.87,-7.21 10.84,-11.17 4.38,-5.45 4.27,-0.18 1.57,-5.78 -11.55,-4.71 -2.84,5.31 0.32,4.81 -2.86,1.58 -3.73,-3.88 -4.03,2.15 -4.34,-0.74 -6.11,2.58 -1.14,6.61 -5.09,5.23 -3.29,-5.62 4.57,-1.38 2.26,-7.83 2.91,-5.26 -5.98,-0.58 -5.08,-2.27 -0.84,10.06 0.39,7.62 -6.71,-1.82 -4.06,2.99 -6.38,-1.92 -9.07,-9.16 0.68,-8.64 -3.51,-5.8 6.98,-6.73 -0.8,-4.6 8.5,-2.65 2.9,-2.98 7.13,-0.47 5.8,-4.43 6.77,-1.58 10.4,1.22 3.91,-5.24 1.1,-7.8 8.93,-1.65 8.27,-5.89 3.65,-4.41 -0.39,-6.71 3.54,-4.35 -0.43,-3.87 2.8,-3.89 -0.88,-4.58 4.06,-6.52 5.3,-2.14 2.32,1.69 9.84,-15.15 5.3,-0.5 -3.5,-7.3 3.92,-5.59 -3.38,-5.28 2.72,-8.15 4.66,-5.77 0.4,-4.47 5.43,-3.02 5.5,-9.41 13.44,-9.21 3.43,-3.29 -0.53,-8.56 1.09,-2.78 7.69,1.12 3.98,-6.43 -1.91,-11.95 4.07,-2.34 7.63,-9.84 3.39,-2.27 -3.66,-3.8 1.99,-5.69 -3.49,-3.78 -3.67,-0.07 -3.45,-4.84 5.06,-1.85 3.74,-9.85 3.46,-0.67 7.63,-9.72 6.8,-1.35 6.37,2.59 3.72,-4.36 2.16,-5.77 -1.15,-6.91 6.17,-5.77 5.45,2.18 5.61,-0.07 2.93,-3.46 2.14,-8.85 7.15,-0.48 3.64,-3.96 7.37,-0.66 2.9,-5.16 4.26,0.38 4.64,-5.43 6.48,-1.57 6.24,1.94 -3.09,7.07 0.98,8.83 -6.2,5.46 0.84,3.39 4.76,-0.12 1.3,3.67 -1.7,6.26 11.53,8.42 -1.68,3.99 1.65,5.6 -13.52,19.16 -3.46,6.7 -0.69,11.77 3.37,2.01 2.35,8.81 7.97,-0.91 13.52,13.4 -5.51,10.63 0.17,9 -3.22,3.01 4.11,10.47 0.02,6.28 -12.55,8.34 -0.03,3.21 5.82,5.83 1.39,5.78 -3.35,4.49 -8.25,5.84 -0.73,3.19 -12.06,7.43 -1.94,2.98 -4.67,-0.68 -4.02,6.37 -6.9,-0.91 -9.29,5.67 -5.13,7.2 -2.47,-1.25 -4.47,5.54 2.08,7.58 5.58,3.12 0.46,4.81 -5.22,1.27 -9.68,6.12 -13,1.29 -4.34,6.27 -4.03,-0.37 -2.5,3.49 -6.91,4.13 1.27,19.59 -1.82,11.27 2.4,7.03 -2.64,8.57 -1.78,10.69 -2.77,5.19 -3.45,10.07 -2.7,16.68 -2.32,1.76 -0.96,7.94 -2.75,8.51 -0.17,7.92 1.32,3.52 z"
       id="M22130"
       style="fill:#ffff80;fill-opacity:1;stroke:#000000;stroke-width:1.1582;stroke-dasharray:none;stroke-opacity:1" />
    <path
       d="m 417.82,437.1 -7.52,-7.97 -3.08,-6.02 -3.4,1.78 -1.77,-6.32 -9.92,-3.94 -1.12,-7.14 -2.55,-1.15 -1.51,-9.37 -7.51,-3.37 -2.4,-8.9 -2.02,-2.28 -5.39,-0.56 -3.49,-5.27 -11.01,-4.39 -7.83,0.63 -5.59,-3.67 5.12,-20.19 0.36,-6.35 4.44,-5.61 -4.37,-5.88 -0.49,-3.97 -5.07,-3.47 2.05,-9.41 -3.96,-8.81 -0.51,-6.73 5.98,-4.33 6.5,-0.52 5.37,-8.39 4.84,-0.4 3.95,-8.69 -7.53,-14.43 -4.37,-2.49 -3.86,0.34 -3.65,8.34 -3.87,-1.15 -3.52,-4.2 1.32,-10.97 7.42,-6.77 0.47,-6.63 -3.96,-5.35 -3.65,0.24 -4.23,-6.62 -7.72,2.08 -7.57,0.06 -0.07,-4.17 -3.4,-2.34 -0.58,-9.52 -5.12,-5.48 -6.13,-4.56 -7.36,-2.05 0.02,-2.92 -7.29,-8.95 2.16,-7.7 4.22,-1.14 1.77,-8.22 7.19,-6.34 6.75,-0.24 5.65,-2.46 5.44,-16.64 -3.9,-4.73 -4.53,-0.98 2.36,-8.68 -8.72,-3.48 1.16,-4.16 -2.2,-6.03 1.23,-6.09 4.6,1.79 4.5,-3.31 7.58,-0.58 0.51,-20.07 -4.49,-3.33 -4,0.15 2.93,-11.07 -3.81,-2.09 4.11,-4.32 5.95,-8.98 -1.62,-3.99 -4.72,-3.08 2.71,-8.17 4.88,-6.05 5.14,-0.18 5.51,4.98 4.88,-9.09 0.63,-4.03 4.82,-7.56 -1.74,-5.75 0.49,-8.19 3.71,-1.77 3.55,-5.48 4.5,-0.81 2.01,3.42 -1.91,7.56 3.7,2.89 -0.19,9.43 2.36,0.63 1.41,7.96 -1.98,2.88 2.39,13.55 7.17,6.14 -1.02,12.96 2.5,2.17 3.05,7.62 -4.17,4.81 -1.12,17.48 -2.1,5.88 -3.43,1.46 -0.93,5.47 5.24,5.58 1.96,7.89 -0.64,13.85 -5.56,4.44 -0.24,5.1 -2.77,1.71 -3.86,9.88 9.17,4.5 2.73,14.56 -3.93,4.08 4.37,8.84 5.66,1.21 3.16,4.07 4.22,1.84 5.33,-7.14 3.09,-0.08 10.27,-6.17 5.16,0.39 3.85,4.99 6.79,0.14 6.19,7.58 0.9,3.13 -2.72,5.3 0.12,11.75 5.33,9.48 3.79,4.49 2.69,12.49 1.19,9.92 2.52,4.42 3.81,-1.57 5.47,3.08 5.67,10.06 12.35,1.26 2.05,-0.74 11.02,3.09 3.45,3.38 4.6,-4.74 2.43,-5.56 2.89,-1.7 2.4,-5.61 2.43,-0.32 -1.36,9.68 1.9,1.12 1.02,8.48 4.97,3.06 1.46,4.34 8.02,-1.23 1.14,-2.23 10.98,9.26 8.75,-0.06 2.5,5.34 3.69,2.77 8.18,-2.38 4.1,10.01 -3,0.77 -14.89,0.01 -10.65,1.97 -9.47,5.9 -3.47,5.29 -2.23,9.05 -5.9,12.18 -7.35,4.9 2.21,2.9 -11.16,7.53 -2.61,4.6 1.31,6.76 0.07,8.13 3.77,6.13 2.5,-6.25 -4.64,-3.37 0.67,-5.4 7.65,-1.06 1.69,-4.22 5.41,4.43 -3.25,10.49 -9.12,10.08 -18.01,10.39 -27.98,11.01 -4.25,5.25 -14.86,5.72 -6.45,3.98 z"
       id="M22100"
       style="fill:#ffff80;fill-opacity:1;stroke:#000000;stroke-width:1.1582;stroke-dasharray:none;stroke-opacity:1" />
    <path
       d="m 725.22,212.17 -4.76,-6.3 -3.77,-2.71 -4.63,-6.17 -0.42,-5.03 2.79,-2.8 -5.19,-5.5 -3.64,0.11 -4.89,-3.02 -12.98,-4.4 -4.72,-0.2 -0.21,-3.53 -9.2,-1.43 1.6,4.08 -2.2,6.5 -2.81,1.34 -6.73,-6.71 -7.37,-1.54 -5.14,0.59 -5.72,-2.41 -23.73,-0.98 -20.95,-3.82 -0.43,-1.56 32.74,-8.1 10.72,1.45 5.74,-5.65 8.03,-3.86 5.73,0.18 5.07,4.94 6.9,-2.72 7.11,-5.83 5.1,-2.09 25.2,-1.16 1.45,-1.76 6.97,1.83 4.54,-0.99 3.91,2.65 -1.52,8.7 3.48,5.06 0.44,8.18 2.6,1.92 -1.99,4.55 1.29,7.09 3.91,5.17 -4.48,9.15 0.51,1.78 -3.65,12.36 z"
       id="M22344"
       style="fill:#ffff80;fill-opacity:1;stroke:#000000;stroke-width:1.1582;stroke-dasharray:none;stroke-opacity:1" />
    <path
       d="m 683.39,291.63 2.9,10.93 -3,5.78 -5.96,1.11 -2.07,3.01 -0.58,-8.37 2.67,-1.23 -5.07,-7.39 -3.48,-0.21 -4.52,-5.73 -2.54,-8.61 -10.14,-10.05 -3.45,-9.97 -3.6,-2.34 -5.87,-8.09 0.09,-1.11 3.04,0.71 10.71,8.11 10.68,6.15 3.85,8.77 4.33,2.65 10.36,10.11 -1.51,4.11 z"
       id="M22342"
       style="fill:#ffff80;fill-opacity:1;stroke:#000000;stroke-width:1.1582;stroke-dasharray:none;stroke-opacity:1" />
    <path
       d="m 675.26,312.46 2.07,-3.01 5.96,-1.11 0.89,5.88 3.58,7.88 -3.46,7.6 -3.28,3.12 -4.64,0.5 -3.24,-11.92 2.2,-2.77 z"
       id="M22341"
       style="fill:#ffff80;fill-opacity:1;stroke:#000000;stroke-width:1.1582;stroke-dasharray:none;stroke-opacity:1" />
    <path
       d="m 742.98,290.97 2.14,6.85 3.54,3.69 1.16,4.62 -4.14,5.45 0.37,6.56 -2.21,5.52 0.47,5.61 -2.56,1.37 -9.16,1.82 -7.6,-2.45 -6.68,2 -2.48,-1.05 -14.46,5.72 -4.95,4.02 -9.39,1.11 4.86,-7.62 5.64,-7.46 4.92,-0.87 3.98,-11.54 9.12,-10.98 0.64,-2.48 7.66,-6 1.64,-5.58 3.59,-2.85 0.97,-6.56 5.02,-7.91 3.71,0.27 3.58,6.77 -1.31,5.67 z"
       id="M22325"
       style="fill:#ffff80;fill-opacity:1;stroke:#000000;stroke-width:1.1582;stroke-dasharray:none;stroke-opacity:1" />
    <path
       d="m 677.3,473.93 -4.22,3.55 -0.51,19.44 -3.02,3.91 -10.17,1.86 -2.48,-8.71 -6.7,0.37 -1.08,3.69 -7.55,7.94 -6.49,4.74 -9.24,4.53 -4.32,0.76 -8.53,-19.75 3.69,-6.28 -4.48,-2.44 -2.36,-5.25 5.85,-6.47 -1.56,-6.04 5.83,-2.84 0.81,-5.85 -3.31,-0.79 5.44,-1.85 0.2,-5.27 7.89,-2.45 7.74,0.79 4.69,-4.17 5.58,-0.77 0.76,5.81 2.31,4.04 13.07,6.58 1.14,3.1 7.9,0.54 z"
       id="M22306"
       style="fill:#ffff80;fill-opacity:1;stroke:#000000;stroke-width:1.1582;stroke-dasharray:none;stroke-opacity:1" />
    <path
       d="m 621.52,516.01 4.32,-0.76 9.24,-4.53 6.49,-4.74 7.55,-7.94 1.08,-3.69 6.7,-0.37 2.48,8.71 10.17,-1.86 -0.34,2.94 4.46,4.62 5.39,1.09 -1.93,9.93 -7.83,9.14 -3.37,-0.75 -5.09,3.75 -0.57,3.92 -5.15,8.04 2.55,4.32 -3.23,-0.73 -5.92,2.6 -9.11,1.5 -8.78,-2.56 -1.55,-5.05 -9.59,1.74 -9.22,2.89 -5.42,3.88 1.17,-10.05 -0.59,-3.8 2.36,-5.02 7.03,-3.72 -0.45,-5.85 7.19,-2.95 z"
       id="M22305"
       style="fill:#ffff80;fill-opacity:1;stroke:#000000;stroke-width:1.1582;stroke-dasharray:none;stroke-opacity:1" />
    <path
       d="m 604.85,552.1 5.42,-3.88 9.22,-2.89 9.59,-1.74 1.55,5.05 8.78,2.56 9.11,-1.5 5.92,-2.6 3.23,0.73 19.09,4.42 0.2,6.59 -3.94,3.81 0.76,4.07 7.9,1.81 -2.11,10.1 -2.32,1.45 3.44,5.57 2.39,7.61 -5.86,-3.42 -3.36,6.87 -3.23,-0.76 -3.07,3.8 -3.43,-0.8 -7.31,5.8 -2.15,4.47 -9.16,-3.61 -5.27,-5.98 -3.16,-5.81 -7.29,2.73 0.43,-6.25 -3.03,-3.33 -5.51,-0.62 -2.16,-4.46 5.9,-7.06 -3.1,-8.42 -5.33,-5.95 -4.86,-3.4 -5.96,-0.99 z"
       id="M22304"
       style="fill:#ffff80;fill-opacity:1;stroke:#000000;stroke-width:1.1582;stroke-dasharray:none;stroke-opacity:1" />
    <path
       d="m 669.55,500.83 3.02,-3.91 0.51,-19.44 4.22,-3.55 6.01,0.54 3.74,4.01 4.26,0.45 7.38,-3.41 3.11,1.14 10.6,-6.58 3.94,4.89 0.81,3.64 4.07,4.48 4.93,8.34 8.41,9.07 0.73,8.66 5.46,5.89 -2.7,5.93 -7.4,1.5 -3.27,5.17 1.55,3.53 -3.44,4.29 -0.44,6.48 -5.77,0.2 -7.37,-2.98 -0.71,-7.51 -4.18,-6.63 -7.09,-3.07 2.38,-5.01 -1.77,-3.85 -3.86,1.51 -4.79,-3.25 -4.32,0.43 -8.51,-2.31 -5.39,-1.09 -4.46,-4.62 z"
       id="M22302"
       style="fill:#ffff80;fill-opacity:1;stroke:#000000;stroke-width:1.1582;stroke-dasharray:none;stroke-opacity:1" />
    <path
       d="m 740.75,515.05 -5.46,-5.89 -0.73,-8.66 -8.41,-9.07 -4.93,-8.34 -4.07,-4.48 -0.81,-3.64 -3.94,-4.89 -2.44,-4.71 8.03,-4.55 7.91,-1.11 2.55,-2.16 9.95,1.91 2.33,-6.6 3.72,-3.45 0.51,-3.58 4.31,5 5.57,2.67 8.69,10.78 4.35,-0.56 -2.75,6.45 -0.52,7.38 1.69,2.83 -8.23,13.37 -1.9,8.97 -7.81,6.77 3.24,2.98 z"
       id="M22301"
       style="fill:#ffff80;fill-opacity:1;stroke:#000000;stroke-width:1.1582;stroke-dasharray:none;stroke-opacity:1" />
    <path
       d="m 350.35,598.41 7.15,7.75 4.53,-0.26 0.82,4.61 -2.81,2.49 -9.84,-2.98 -7.01,-0.28 -5.92,-3.92 -16.03,-5.88 -14.72,-7.37 -17.49,-6.89 1.31,-8.63 1.61,-2.16 8.39,1.92 3.42,-7.64 1.27,-7.67 5.09,-3.43 1.07,-2.91 5.8,-3.23 4.13,1.72 8.44,3.9 4.79,5.27 0.27,5.97 4.11,1.32 0.29,5.59 -6.93,9.09 1.24,11.34 4.36,-0.75 7.23,3.9 z"
       id="M22223"
       style="fill:#ffff80;fill-opacity:1;stroke:#000000;stroke-width:1.1582;stroke-dasharray:none;stroke-opacity:1" />
    <path
       d="m 677.3,473.93 -3.12,-7.28 -7.9,-0.54 -1.14,-3.1 -13.07,-6.58 -2.31,-4.04 -0.76,-5.81 -5.58,0.77 -4.69,4.17 -7.74,-0.79 -7.89,2.45 -0.2,5.27 -5.44,1.85 -4.06,-1.7 -0.97,-13.88 4.52,-5.88 3.43,0.29 7.63,-6.59 -1.8,-7.84 -3.66,-4.43 -0.86,-6.78 6.66,-0.49 7.27,-4.44 3.15,1.46 5.02,-2.34 7.64,2.88 0.41,-6.04 -1.07,-10.94 5.37,-1.31 4.37,-4.55 8.89,-3.21 3.89,-5.03 11.22,-5.94 0.66,6.18 3.2,3.5 5.88,-1.52 6.71,0.99 9.96,-6.42 10.06,-0.18 4.5,-5.2 5.84,1.57 3,-2.17 7.72,4.92 3.96,-5.7 4.98,0.9 -4.27,8.14 -0.07,5.02 7.42,4.58 6.32,-1.48 0.76,4.16 -7.46,5.7 2.12,6.2 -5.4,7.96 -1.24,8.52 1.98,4.97 5,6.7 -6.67,6.58 -4.51,8.37 -0.51,3.58 -3.72,3.45 -2.33,6.6 -9.95,-1.91 -2.55,2.16 -7.91,1.11 -8.03,4.55 2.44,4.71 -10.6,6.58 -3.11,-1.14 -7.38,3.41 -4.26,-0.45 -3.74,-4.01 z"
       id="M22222"
       style="fill:#ffff80;fill-opacity:1;stroke:#000000;stroke-width:1.1582;stroke-dasharray:none;stroke-opacity:1" />
    <path
       d="m 9.98,501.92 9.07,9.16 6.38,1.92 4.06,-2.99 6.71,1.82 -7.38,1.69 -9.3,5.57 7.29,1.63 4.16,4.49 2.19,7.94 -6.14,0.87 7.86,7.64 3.76,-2.65 2.53,7.32 3.71,3.66 -0.95,4.86 6.9,2.77 4.5,4.64 -7.93,1.48 -23.7,1.6 L 6.28,567.6 9.43,550.85 7.3,542.37 5.06,540.73 4.08,528.77 1,523.33 l 1.59,-3.9 -0.35,-10.5 2.54,-4.35 z"
       id="M22221"
       style="fill:#ffff80;fill-opacity:1;stroke:#000000;stroke-width:1.1582;stroke-dasharray:none;stroke-opacity:1" />
    <path
       d="m 683.39,291.63 -3.16,-1.66 1.51,-4.11 -10.36,-10.11 -4.33,-2.65 -3.85,-8.77 -10.68,-6.15 -10.71,-8.11 -3.04,-0.71 -5.78,-4.12 -8.11,-14.99 -11.47,-24.88 0.05,-6.52 -4.43,-13.6 11.48,9.18 1.11,8 6.24,5.37 3.48,0.64 1.96,4.38 -1.05,6.17 6.76,5.21 10.47,-0.92 9.07,-5.77 10.18,-2.41 -0.19,4.22 3.53,5.17 1.39,5.71 6.3,4.19 -0.51,7.13 9.78,8.57 16.96,-5.68 5.33,0.33 5.75,-3.79 1.64,1.37 3.95,11.98 -0.03,6.9 6.6,6.43 -7.98,5.03 -10.15,0.79 -6.87,4.99 -6.71,-1.05 -4.99,1.01 -7.77,8.83 z"
       id="M22220"
       style="fill:#ffff80;fill-opacity:1;stroke:#000000;stroke-width:1.1582;stroke-dasharray:none;stroke-opacity:1" />
    <path
       d="m 208.42,441.44 5.22,-1.27 -0.46,-4.81 -5.58,-3.12 -2.08,-7.58 4.47,-5.54 2.47,1.25 5.13,-7.2 9.29,-5.67 6.9,0.91 4.02,-6.37 4.67,0.68 1.94,-2.98 12.06,-7.43 1.92,3.44 0.57,15.48 2.74,4.51 7.38,2.05 2.63,6.8 -4.23,4.19 -10.69,-0.47 -3.03,7.82 -3.67,1.74 -6.56,11.38 -5.98,4.26 -4.03,5.15 -2.36,7.7 0.75,2.99 -8.32,12.88 -2.64,0.16 -2.67,7.45 -4.51,6.2 -5.8,2.27 -2.9,-1.64 -2.63,4.73 -5.38,-2.21 2.57,-5.46 0.06,-7.28 -5.22,0.13 -3.51,-5.25 0.12,-8.58 4.12,-1.28 -0.08,-10.66 4.31,-2.58 1.28,-4.67 7.68,-6.97 z"
       id="M22461"
       style="fill:#ffff80;fill-opacity:1;stroke:#000000;stroke-width:1.1582;stroke-dasharray:none;stroke-opacity:1" />
    <path
       d="m 657.67,547.83 -2.55,-4.32 5.15,-8.04 0.57,-3.92 5.09,-3.75 3.37,0.75 7.83,-9.14 1.93,-9.93 8.51,2.31 4.32,-0.43 4.79,3.25 3.86,-1.51 1.77,3.85 -2.38,5.01 7.09,3.07 4.18,6.63 0.71,7.51 7.37,2.98 5.77,-0.2 -6.21,4.83 -2.33,6.28 -0.75,6.39 1.82,1.66 0.46,8.36 3.22,4.64 -3.69,5.12 -8.47,-0.9 -0.06,-8.51 -1.23,-3.92 -8.01,4.75 -11.23,10.58 -1.88,8.8 -3.61,3.23 -2.39,-7.61 -3.44,-5.57 2.32,-1.45 2.11,-10.1 -7.9,-1.81 -0.76,-4.07 3.94,-3.81 -0.2,-6.59 z"
       id="M22219"
       style="fill:#ffff80;fill-opacity:1;stroke:#000000;stroke-width:1.1582;stroke-dasharray:none;stroke-opacity:1" />
    <path
       d="m 190.96,481.33 3.51,5.25 5.22,-0.13 -0.06,7.28 -2.57,5.46 5.38,2.21 2.63,-4.73 2.9,1.64 5.8,-2.27 4.51,-6.2 2.67,-7.45 2.64,-0.16 1.62,4.78 -3.28,13.13 5.78,6.83 0.92,3.08 5.44,5 -2.18,3.4 9.37,7.03 3.79,1.73 2.94,-2.02 8.33,5.5 -4.85,3.86 -6.28,2.23 -4.6,3.73 3.76,6.58 -9.48,5.36 -0.13,4.4 -5.65,2.36 1.26,3.13 4.47,2.23 2.68,7.78 -8.7,-0.99 -14.55,-0.49 -4.52,0.82 -1.79,-5.71 1.99,-4.11 -0.89,-4.44 -4.51,0.27 -2.27,-4.34 3.33,-11.79 -2.16,-5.06 1.6,-4.87 -3.01,-7.62 -4.36,-0.86 0.84,-11.34 -4.26,-4.87 -6.82,-0.14 -3.27,-6.52 -3.73,-11.8 9.04,-4.23 z"
       id="M22216"
       style="fill:#ffff80;fill-opacity:1;stroke:#000000;stroke-width:1.1582;stroke-dasharray:none;stroke-opacity:1" />
    <path
       d="m 600.55,168.24 20.95,3.82 23.73,0.98 5.72,2.41 5.14,-0.59 7.37,1.54 6.73,6.71 2.81,-1.34 2.2,-6.5 -1.6,-4.08 9.2,1.43 0.21,3.53 4.72,0.2 12.98,4.4 4.89,3.02 3.64,-0.11 5.19,5.5 -2.79,2.8 0.42,5.03 4.63,6.17 3.77,2.71 4.76,6.3 -8.44,12.33 -0.49,9.29 0.78,7.16 -5.75,3.79 -5.33,-0.33 -16.96,5.68 -9.78,-8.57 0.51,-7.13 -6.3,-4.19 -1.39,-5.71 -3.53,-5.17 0.19,-4.22 -10.18,2.41 -9.07,5.77 -10.47,0.92 -6.76,-5.21 1.05,-6.17 -1.96,-4.38 -3.48,-0.64 -6.24,-5.37 -1.11,-8 -11.48,-9.18 -5.16,-7.75 -0.6,-4.41 -2.5,-4.26 z"
       id="M22215"
       style="fill:#ffff80;fill-opacity:1;stroke:#000000;stroke-width:1.1582;stroke-dasharray:none;stroke-opacity:1" />
    <path
       d="m 341.71,369.16 5.59,3.67 7.83,-0.63 11.01,4.39 3.49,5.27 5.39,0.56 2.02,2.28 2.4,8.9 7.51,3.37 1.51,9.37 2.55,1.15 1.12,7.14 9.92,3.94 1.77,6.32 3.25,3.04 -2.29,5.58 -4.27,-1.22 -6.21,6.86 -3.94,8.56 -4.25,3.92 -1.95,10.08 2.54,3.03 -3.99,7.18 1.8,7.2 -2.24,2.85 -7.33,-2 -6.6,4.98 -3.74,0.18 -5.95,-4.18 3.89,-10.18 -3.63,0.77 -7.71,-8.61 0.97,-3.22 -5.51,-5.55 0.19,-6.05 -4.62,-5.43 -12.81,-7.4 1.76,-4.14 -1.16,-4.3 -5.56,-3.3 -0.42,-3.82 4.05,-7.48 0.33,-13.52 2.03,-5.13 7.96,-4.08 -0.35,-5.19 4.01,-6.46 -2.61,-6.92 z"
       id="M22214"
       style="fill:#ffff80;fill-opacity:1;stroke:#000000;stroke-width:1.1582;stroke-dasharray:none;stroke-opacity:1" />
    <path
       d="m 291.95,574.89 -1.61,2.16 -1.31,8.63 -9.91,-3.63 -28.4,-7.62 -13.22,-2.08 -2.68,-7.78 -4.47,-2.23 -1.26,-3.13 5.65,-2.36 0.13,-4.4 9.48,-5.36 -3.76,-6.58 4.6,-3.73 6.28,-2.23 4.85,-3.86 -8.33,-5.5 -2.94,2.02 -3.79,-1.73 -9.37,-7.03 2.18,-3.4 -5.44,-5 -0.92,-3.08 -5.78,-6.83 3.28,-13.13 -1.62,-4.78 8.32,-12.88 -0.75,-2.99 2.36,-7.7 4.03,-5.15 5.98,-4.26 6.56,-11.38 3.67,-1.74 3.03,-7.82 10.69,0.47 4.23,-4.19 2.39,4.65 4.63,2.7 -0.09,7.34 -5.14,7.4 1.06,13.25 10.62,1.2 -0.75,2.34 3.18,6.06 8.54,1.79 2.69,4.46 -0.58,6.53 1.48,5.97 -5.43,4.42 -2.01,5.05 -10.59,14.15 -5.84,2.72 4.93,7.37 0.43,3.84 -2.97,2.74 -3.8,-0.69 5.01,13.38 9.41,10.89 -5.3,2.95 2.45,5.42 5.89,4.81 z"
       id="M22213"
       style="fill:#ffff80;fill-opacity:1;stroke:#000000;stroke-width:1.1582;stroke-dasharray:none;stroke-opacity:1" />
    <path
       d="m 403.82,424.89 3.4,-1.78 3.08,6.02 7.52,7.97 -4.23,5.66 -0.54,4.45 -5.17,8.05 -1.04,8.58 4.68,4.58 0.98,9.38 -16.33,25.5 0.59,4.19 -4.75,5.73 -20.73,-20.62 -6.68,-7.47 3.74,-0.18 6.6,-4.98 7.33,2 2.24,-2.85 -1.8,-7.2 3.99,-7.18 -2.54,-3.03 1.95,-10.08 4.25,-3.92 3.94,-8.56 6.21,-6.86 4.27,1.22 2.29,-5.58 z"
       id="M22212"
       style="fill:#ffff80;fill-opacity:1;stroke:#000000;stroke-width:1.1582;stroke-dasharray:none;stroke-opacity:1" />
    <path
       d="m 155.72,583.36 -4.13,-2.25 -1.32,-3.52 0.17,-7.92 2.75,-8.51 0.96,-7.94 2.32,-1.76 2.7,-16.68 3.45,-10.07 2.77,-5.19 1.78,-10.69 2.64,-8.57 -2.4,-7.03 1.82,-11.27 -1.27,-19.59 6.91,-4.13 2.5,-3.49 4.03,0.37 4.34,-6.27 13,-1.29 9.68,-6.12 -0.03,5.15 -7.68,6.97 -1.28,4.67 -4.31,2.58 0.08,10.66 -4.12,1.28 -0.12,8.58 -1.5,2.93 -9.04,4.23 3.73,11.8 3.27,6.52 6.82,0.14 4.26,4.87 -0.84,11.34 4.36,0.86 3.01,7.62 -1.6,4.87 2.16,5.06 -3.33,11.79 2.27,4.34 4.51,-0.27 0.89,4.44 -1.99,4.11 1.79,5.71 -27.87,4.64 -12.23,3.1 -6.47,2.96 z"
       id="M22211"
       style="fill:#ffff80;fill-opacity:1;stroke:#000000;stroke-width:1.1582;stroke-dasharray:none;stroke-opacity:1" />
    <path
       d="m 556.14,310.34 -4.1,-10.01 -8.18,2.38 -3.69,-2.77 -2.5,-5.34 -8.75,0.06 -10.98,-9.26 1.21,-10.58 -1.22,-4.19 8.56,-6.54 5.48,0.3 2.93,3.46 3.59,-1.85 6.63,7.73 9.24,-10.13 -0.67,-4.1 7.08,-7.76 1.94,3.72 5.68,0.38 1,-4.17 -0.9,-7.53 -2.58,-6.41 5.35,-3.92 3.62,-5.55 6.58,-4.23 5.99,-5.88 6.97,-2.97 -1.46,-2.71 4.79,-7.43 4.75,-13.04 3.07,-5.11 -3.08,-14.03 -1.72,-4.03 2.5,4.26 0.6,4.41 5.16,7.75 4.43,13.6 -0.05,6.52 11.47,24.88 8.11,14.99 5.78,4.12 -0.09,1.11 -3.18,5.17 -5.57,3.85 -3.66,4.35 -6.34,4.06 -3.49,12.14 6.34,1.19 -6.05,16.38 -4.52,-0.98 -1.72,4.97 -6.71,-1.56 -14.07,-1.45 -13.77,2.78 -2.72,2.24 z"
       id="M22210"
       style="fill:#ffff80;fill-opacity:1;stroke:#000000;stroke-width:1.1582;stroke-dasharray:none;stroke-opacity:1" />
    <path
       d="m 256.47,392.31 0.73,-3.19 8.25,-5.84 3.35,-4.49 9.33,-1.29 7.61,2.48 2.06,3.29 -1.15,4.44 8.55,4.57 4.7,-4.83 1.93,-7.31 6.74,-2.18 1.73,-7.1 2.73,-5.07 -0.98,-2.87 6.08,-5.84 3.68,-8.33 -0.3,-3.77 3.11,-3.23 5.89,5.39 2.99,-4.66 6.37,-1.63 6.96,8.12 -5.12,20.19 -2.25,1.78 2.61,6.92 -4.01,6.46 0.35,5.19 -7.96,4.08 -2.03,5.13 -0.33,13.52 -4.05,7.48 0.42,3.82 5.56,3.3 1.16,4.3 -1.76,4.14 12.81,7.4 4.62,5.43 -0.19,6.05 5.51,5.55 -0.97,3.22 7.71,8.61 3.63,-0.77 -3.89,10.18 5.95,4.18 6.68,7.47 -5.42,5.47 -7.53,3.99 -19,-6.89 -11.96,-1.79 -5.89,5.67 -3.63,-0.99 -2.43,-7.72 -4.87,7.93 -3.44,-3.55 -3.18,-7.06 -4.19,0.62 -1.48,-5.97 0.58,-6.53 -2.69,-4.46 -8.54,-1.79 -3.18,-6.06 0.75,-2.34 -10.62,-1.2 -1.06,-13.25 5.14,-7.4 0.09,-7.34 -4.63,-2.7 -2.39,-4.65 -2.63,-6.8 -7.38,-2.05 -2.74,-4.51 -0.57,-15.48 z"
       id="M22209"
       style="fill:#ffff80;fill-opacity:1;stroke:#000000;stroke-width:1.1582;stroke-dasharray:none;stroke-opacity:1" />
    <path
       d="m 767.88,463.72 -4.35,0.56 -8.69,-10.78 -5.57,-2.67 -4.31,-5 4.51,-8.37 6.67,-6.58 -5,-6.7 -1.98,-4.97 1.24,-8.52 5.4,-7.96 -2.12,-6.2 7.46,-5.7 -0.76,-4.16 -6.32,1.48 -7.42,-4.58 0.07,-5.02 4.27,-8.14 -2.73,-4.78 4.66,-5.16 9.72,3.12 9.08,-6.7 3.74,2.96 -1.17,14.16 -4.61,-0.5 -1.66,4.06 5.32,6.85 -0.13,5.15 5.66,6.15 6.57,-1.9 4.2,2.31 2.02,9.78 6.84,-1.16 -1.38,8.74 1.89,1.91 -3.66,8.65 v 6.34 l -3.66,8.47 3.26,2.74 -3.51,6.43 -6.83,4.64 -6.63,0.9 -2.62,7.1 -5.4,-0.21 z"
       id="M22208"
       style="fill:#ffff80;fill-opacity:1;stroke:#000000;stroke-width:1.1582;stroke-dasharray:none;stroke-opacity:1" />
    <path
       d="m 517.94,285.4 -1.14,2.23 -8.02,1.23 -1.46,-4.34 -4.97,-3.06 -1.02,-8.48 -1.9,-1.12 1.36,-9.68 5.13,-1 -2.77,-9.29 2.33,-3.84 -2.56,-5.36 -2.97,-13.33 -3.06,-3.97 2.89,-5.05 0.64,-7.34 -2.65,-7.36 -1.91,-10.2 10.96,-9.93 -0.11,-6.13 -2.01,-2.64 0.03,-17.84 -1.2,-1.71 3.66,-6.33 -2.2,-7.15 0.28,-4.26 6.64,-4.31 4.7,-5.46 1.64,-4.73 8.76,-3.91 9.67,5.32 5.45,22.58 14.21,-2.99 h 11.65 l 3.72,3.19 4.46,20.53 8.63,-1.15 0.86,-1.76 11.61,-1.51 2.85,1.43 0.43,1.56 0.22,0.59 1.72,4.03 3.08,14.03 -3.07,5.11 -4.75,13.04 -4.79,7.43 1.46,2.71 -6.97,2.97 -5.99,5.88 -6.58,4.23 -3.62,5.55 -5.35,3.92 2.58,6.41 0.9,7.53 -1,4.17 -5.68,-0.38 -1.94,-3.72 -7.08,7.76 0.67,4.1 -9.24,10.13 -6.63,-7.73 -3.59,1.85 -2.93,-3.46 -5.48,-0.3 -8.56,6.54 1.22,4.19 z"
       id="M22207"
       style="fill:#ffff80;fill-opacity:1;stroke:#000000;stroke-width:1.1582;stroke-dasharray:none;stroke-opacity:1" />
    <path
       d="m 683.29,308.34 3,-5.78 -2.9,-10.93 1.37,-4.4 7.77,-8.83 4.99,-1.01 6.71,1.05 6.87,-4.99 10.15,-0.79 7.98,-5.03 5.84,4.33 -5.02,7.91 -0.97,6.56 -3.59,2.85 -1.64,5.58 -7.66,6 -0.64,2.48 -9.12,10.98 -3.98,11.54 -4.92,0.87 -5.64,7.46 -4.15,-4.51 -3.44,0.02 3.46,-7.6 -3.58,-7.88 z"
       id="M22206"
       style="fill:#ffff80;fill-opacity:1;stroke:#000000;stroke-width:1.1582;stroke-dasharray:none;stroke-opacity:1" />
    <path
       d="m 741.75,330.64 2.56,-1.37 -0.47,-5.61 2.21,-5.52 -0.37,-6.56 4.14,-5.45 -1.16,-4.62 -3.54,-3.69 -2.14,-6.85 4.38,-0.54 20.96,5.57 11.89,-0.44 0.02,7.09 -5.43,7.33 -3.8,1.88 -3.39,7.64 -2.47,1.64 2.44,7.04 -3.51,2.88 2.35,6.81 -4.85,9.21 2.23,3.84 5.74,1.18 3.17,-3.04 3.6,3.09 -0.86,7.7 -3.74,-2.96 -9.08,6.7 -9.72,-3.12 -6.29,-2.48 -2.05,-6.37 -0.16,-7.01 3.23,-1.26 -4.74,-6.27 z"
       id="M22205"
       style="fill:#ffff80;fill-opacity:1;stroke:#000000;stroke-width:1.1582;stroke-dasharray:none;stroke-opacity:1" />
    <path
       d="m 638.68,250.47 5.87,8.09 3.6,2.34 3.45,9.97 10.14,10.05 2.54,8.61 4.52,5.73 3.48,0.21 5.07,7.39 -2.67,1.23 0.58,8.37 0.08,6.17 -2.2,2.77 3.24,11.92 4.64,-0.5 3.28,-3.12 3.44,-0.02 4.15,4.51 -4.86,7.62 -3.26,1.78 2.62,12.84 -4.26,3.12 4.34,3.72 -4.39,6.98 2.43,3.29 -11.22,5.94 -3.89,5.03 -8.89,3.21 -4.37,4.55 -5.37,1.31 1.07,10.94 -0.41,6.04 -7.64,-2.88 -5.02,2.34 -3.15,-1.46 -7.27,4.44 -6.66,0.49 -4.04,-5.87 -2.54,-13.43 6.22,1.6 0.71,-2.55 -3.8,-4.79 2.92,-8.71 2.38,-2.37 -1.02,-5.23 2.75,-8.5 7.75,2.17 12.9,-0.71 8.34,4.68 6.28,-3.6 9.34,-2.59 6.94,4.61 3.31,-4.18 -2.93,-4.07 5.35,-9.45 -5.69,-2.43 -2.24,2.86 -6.35,-13.12 -5.02,-1.42 -3.64,-4.15 -4.92,-9.12 -5.47,-5.25 -12.23,-7.35 -11.32,-4.59 -15.18,-4.33 1.72,-4.97 4.52,0.98 6.05,-16.38 -6.34,-1.19 3.49,-12.14 6.34,-4.06 3.66,-4.35 5.57,-3.85 z"
       id="M22203"
       style="fill:#ffff80;fill-opacity:1;stroke:#000000;stroke-width:1.1582;stroke-dasharray:none;stroke-opacity:1" />
    <path
       d="m 350.35,598.41 -5.43,0.87 -7.23,-3.9 -4.36,0.75 -1.24,-11.34 6.93,-9.09 -0.29,-5.59 -4.11,-1.32 -0.27,-5.97 -4.79,-5.27 -8.44,-3.9 0.12,-8.82 -2.78,-7.57 0.91,-8.86 -4.76,-5.57 1.37,-7.61 3.55,-5.72 -1.68,-11.44 3.63,0.99 5.89,-5.67 11.96,1.79 19,6.89 5.73,5.72 3.73,9.91 -0.93,8.23 2,2.75 -10.52,10.62 -4.29,7.25 -0.32,6.26 -2.51,6.84 -6.34,13.12 -1.1,11.63 2.11,6.88 z"
       id="M22226"
       style="fill:#ffff80;fill-opacity:1;stroke:#000000;stroke-width:1.1582;stroke-dasharray:none;stroke-opacity:1" />
    <path
       d="m 687.03,341.81 9.39,-1.11 4.95,-4.02 14.46,-5.72 2.48,1.05 6.68,-2 7.6,2.45 9.16,-1.82 1.15,6.44 4.74,6.27 -3.23,1.26 0.16,7.01 2.05,6.37 6.29,2.48 -4.66,5.16 2.73,4.78 -4.98,-0.9 -3.96,5.7 -7.72,-4.92 -3,2.17 -5.84,-1.57 -4.5,5.2 -10.06,0.18 -9.96,6.42 -6.71,-0.99 -5.88,1.52 -3.2,-3.5 -0.66,-6.18 -2.43,-3.29 4.39,-6.98 -4.34,-3.72 4.26,-3.12 -2.62,-12.84 z"
       id="M22225"
       style="fill:#ffff80;fill-opacity:1;stroke:#000000;stroke-width:1.1582;stroke-dasharray:none;stroke-opacity:1" />
    <path
       d="m 321.12,553.65 -4.13,-1.72 -5.8,3.23 -1.07,2.91 -5.09,3.43 -1.27,7.67 -3.42,7.64 -8.39,-1.92 -0.03,-9.56 -5.89,-4.81 -2.45,-5.42 5.3,-2.95 -9.41,-10.89 -5.01,-13.38 3.8,0.69 2.97,-2.74 -0.43,-3.84 -4.93,-7.37 5.84,-2.72 10.59,-14.15 2.01,-5.05 5.43,-4.42 4.19,-0.62 3.18,7.06 3.44,3.55 4.87,-7.93 2.43,7.72 1.68,11.44 -3.55,5.72 -1.37,7.61 4.76,5.57 -0.91,8.86 2.78,7.57 z"
       id="M22224"
       style="fill:#ffff80;fill-opacity:1;stroke:#000000;stroke-width:1.1582;stroke-dasharray:none;stroke-opacity:1" />
    <path
       d="m 268.8,378.79 -1.39,-5.78 -5.82,-5.83 0.03,-3.21 12.55,-8.34 -0.02,-6.28 -4.11,-10.47 3.22,-3.01 -0.17,-9 5.51,-10.63 -13.52,-13.4 -7.97,0.91 -2.35,-8.81 -3.37,-2.01 0.69,-11.77 3.46,-6.7 13.52,-19.16 -1.65,-5.6 1.68,-3.99 -11.53,-8.42 1.7,-6.26 -1.3,-3.67 -4.76,0.12 -0.84,-3.39 6.2,-5.46 -0.98,-8.83 3.09,-7.07 4.27,-6.17 -0.79,-5.01 6.16,-3.38 -0.75,-3.81 6.3,-1.71 5.1,-6.85 4.71,0.07 7.76,5.3 -2.16,7.7 7.29,8.95 -0.02,2.92 7.36,2.05 6.13,4.56 5.12,5.48 0.58,9.52 3.4,2.34 0.07,4.17 7.57,-0.06 7.72,-2.08 4.23,6.62 3.65,-0.24 3.96,5.35 -0.47,6.63 -7.42,6.77 -1.32,10.97 3.52,4.2 3.87,1.15 3.65,-8.34 3.86,-0.34 4.37,2.49 7.53,14.43 -3.95,8.69 -4.84,0.4 -5.37,8.39 -6.5,0.52 -5.98,4.33 0.51,6.73 3.96,8.81 -2.05,9.41 5.07,3.47 0.49,3.97 4.37,5.88 -4.44,5.61 -0.36,6.35 -6.96,-8.12 -6.37,1.63 -2.99,4.66 -5.89,-5.39 -3.11,3.23 0.3,3.77 -3.68,8.33 -6.08,5.84 0.98,2.87 -2.73,5.07 -1.73,7.1 -6.74,2.18 -1.93,7.31 -4.7,4.83 -8.55,-4.57 1.15,-4.44 -2.06,-3.29 -7.61,-2.48 z"
       id="M22429"
       style="fill:#ffff80;fill-opacity:1;stroke:#000000;stroke-width:1.1582;stroke-dasharray:none;stroke-opacity:1" />
    <path
       d="m 371.28,492.6 20.73,20.62 -2.46,2.87 -10.47,5.56 -10.22,7.02 -2,-2.75 0.93,-8.23 -3.73,-9.91 -5.73,-5.72 7.53,-3.99 z"
       id="M22424"
       style="fill:#ffff80;fill-opacity:1;stroke:#000000;stroke-width:1.1582;stroke-dasharray:none;stroke-opacity:1" />
  </g>
</svg>
