<?xml version="1.0" encoding="UTF-8" standalone="no"?>
<svg
   version="1.2"
   width="485.29785"
   height="600"
   viewBox="0 0 485.29785 600"
   stroke-linecap="round"
   stroke-linejoin="round"
   id="svg1259"
   sodipodi:docname="tc.svg"
   inkscape:version="1.2 (dc2aedaf03, 2022-05-15)"
   xmlns:inkscape="http://www.inkscape.org/namespaces/inkscape"
   xmlns:sodipodi="http://sodipodi.sourceforge.net/DTD/sodipodi-0.dtd"
   xmlns="http://www.w3.org/2000/svg"
   xmlns:svg="http://www.w3.org/2000/svg">
  <defs
     id="defs1263" />
  <sodipodi:namedview
     id="namedview1261"
     pagecolor="#505050"
     bordercolor="#eeeeee"
     borderopacity="1"
     inkscape:showpageshadow="0"
     inkscape:pageopacity="0"
     inkscape:pagecheckerboard="0"
     inkscape:deskcolor="#505050"
     showgrid="false"
     inkscape:zoom="0.81496461"
     inkscape:cx="242.95533"
     inkscape:cy="299.3995"
     inkscape:window-width="1920"
     inkscape:window-height="1009"
     inkscape:window-x="-8"
     inkscape:window-y="-8"
     inkscape:window-maximized="1"
     inkscape:current-layer="svg1259" />
  <g
     id="tc"
     transform="matrix(0.60688956,0,0,0.60688956,-0.10689303,-0.10689397)"
     style="fill:#ffff80;fill-opacity:1;stroke:#000000;stroke-width:1.64775;stroke-dasharray:none;stroke-opacity:1">
    <path
       d="m 382.16,960.92 -21.31,8.81 -9.77,8.39 -15.99,9.05 -1.23,-3.66 -16.65,-5.13 -0.84,9.23 -10.68,-4.76 -3.96,4.54 -3.66,-14.15 9.12,-7.71 1.36,-7.01 19.59,-15.13 5.92,-3.16 -1.84,-9.94 5.56,-5.69 9.79,2.11 -5.27,13.06 6.4,3.24 16.84,0.69 7.12,-3.12 4.03,-6.45 5.69,-1.22 -1.68,13.36 3.48,7.37 z"
       id="M09364"
       style="fill:#ffff80;fill-opacity:1;stroke:#000000;stroke-width:1.64775;stroke-dasharray:none;stroke-opacity:1" />
    <path
       d="m 428.85,693.35 -1.3,7.05 6.25,11.17 -1.5,10.13 -10.16,2.75 0.17,8.94 -4.41,10.11 3.27,2.74 -1.12,11.56 -5.29,12.64 3.22,4.74 -2.72,9.14 -10.91,-2.84 -15.22,-4.24 -3.2,-13.64 -5.26,-2.32 -13.97,-21.09 0.29,-6.65 -7.77,-11.8 -1.07,-7.67 8.67,-4.06 2.92,-7.58 -1.62,-8.55 8.34,-6.53 8.33,6.36 4.1,-3.89 -1.02,-7.92 6.63,-7.17 4.19,3.32 10.03,-4.99 3,-4.27 7.74,1.2 3.25,14.12 5.71,3.37 z"
       id="M09361"
       style="fill:#ffff80;fill-opacity:1;stroke:#000000;stroke-width:1.64775;stroke-dasharray:none;stroke-opacity:1" />
    <path
       d="m 630.42,575.5 0.48,1.55 -7.53,-1.68 1.17,-6.7 -8.75,-7.48 -5.49,10.02 -13.25,-1.3 -2.6,2.54 5.22,9.15 -2.21,9.67 -12.2,1.17 -13.59,5.49 -9.27,-14.25 -0.43,-7.17 -7.35,-1.31 -2.16,-7.2 -16.63,1.12 -10.21,-23.57 -2.57,-10.05 10.55,-7.02 2.52,-6.38 -2.8,-7.97 6.44,-7.41 6.32,1.64 7.57,-5.51 11.07,9.02 9.49,-2.86 10.62,-12.52 20.17,19.58 8.62,13.24 v 6.13 l -5,4.5 3.33,9.27 0.38,8.85 7.07,-3.4 6.5,1.07 z"
       id="M09386"
       style="fill:#ffff80;fill-opacity:1;stroke:#000000;stroke-width:1.64775;stroke-dasharray:none;stroke-opacity:1" />
    <path
       d="m 384.42,259.47 2.89,8.15 8.64,15.16 5.62,13.86 15.25,15.71 2.26,8.78 17.33,5.89 1,13.78 4.32,1.86 17.41,28.21 -3.39,0.96 -4.89,10.36 9.44,12.18 6.9,5.23 11.24,4.48 2.5,12.08 9.8,10.94 0.51,11.63 17.86,6.86 -1.55,7.18 -8.86,0.85 -15.91,-2.34 -15.85,-3.26 -5.03,2.03 -17.78,-7.73 -6.26,5.74 -11.53,-10.59 -22.32,-4.31 -9.18,-5.69 -30.32,-15.26 -10.74,-9.26 -12,0.87 -3.09,-14.03 0.3,-14.24 -3.35,-1.91 -0.64,-15.93 2.27,-10.39 -3.12,-11.76 7.41,-0.3 11.33,-10.41 17.44,-12.13 1.61,-13.91 -2.31,-19.49 0.71,-7.79 4.04,-6.83 z"
       id="M09384"
       style="fill:#ffff80;fill-opacity:1;stroke:#000000;stroke-width:1.64775;stroke-dasharray:none;stroke-opacity:1" />
    <path
       d="m 554.62,575.2 7.35,1.31 0.43,7.17 9.27,14.25 13.59,-5.49 12.2,-1.17 2.21,-9.67 -5.22,-9.15 2.6,-2.54 13.25,1.3 5.49,-10.02 8.75,7.48 -1.17,6.7 7.53,1.68 3.14,15.92 -7.09,9.06 3.39,17.84 0.56,11.6 -5.68,2.76 -2.96,9.67 4.14,12.33 -10.91,-1.43 1.66,-12.3 -8.08,0.75 -3.93,21.96 -4.01,4.93 -3.68,10.48 -7.24,10.54 -8.08,1.01 -18.89,-1.62 -2.78,-6.93 5.73,-7.58 -0.89,-9.45 3.64,-11.75 -0.81,-9.59 -9.35,-17.5 -0.84,-6.59 4.42,-8.11 -3.56,-13.97 z"
       id="M09345"
       style="fill:#ffff80;fill-opacity:1;stroke:#000000;stroke-width:1.64775;stroke-dasharray:none;stroke-opacity:1" />
    <path
       d="m 630.9,577.05 -0.48,-1.55 12.42,-10.52 5.32,-12.79 29.48,4.98 -1.99,8.14 0.55,14.62 6.71,3.73 -6.37,11.67 -7.65,-1.21 -2.12,5.13 6.48,5.46 -5.95,25.72 15.88,13.24 -6.44,10.72 -15.31,5.66 -8.41,-1.03 -2.47,4.18 -9.05,-1.52 -4.8,5.98 -11.29,-0.44 -3.57,10.12 3.09,5.56 -4.9,5.04 -7.06,-5.91 -5.51,2.19 -0.73,8.65 -8.07,-1.68 4.68,-6.54 -2.21,-14.51 4.01,-4.93 3.93,-21.96 8.08,-0.75 -1.66,12.3 10.91,1.43 -4.14,-12.33 2.96,-9.67 5.68,-2.76 -0.56,-11.6 -3.39,-17.84 7.09,-9.06 z"
       id="M09344"
       style="fill:#ffff80;fill-opacity:1;stroke:#000000;stroke-width:1.64775;stroke-dasharray:none;stroke-opacity:1" />
    <path
       d="m 676.74,654.39 6.44,-10.72 -15.88,-13.24 5.95,-25.72 -6.48,-5.46 2.12,-5.13 7.65,1.21 6.37,-11.67 -6.71,-3.73 -0.55,-14.62 9.57,2.69 14.52,-2.65 5.77,15.69 7.67,5.61 15.86,-9.95 -1.14,-7.79 21.17,-5.17 0.46,-7.67 5.48,-3.79 4.02,-1.2 7.35,14.56 0.62,11.93 -4.78,15.32 2.98,17.62 -2.65,4.88 6.45,8.51 -3.8,6.79 0.65,13.97 4.01,9.9 6.31,7.52 -10.43,2.65 1.09,7.65 -6.16,4.66 -9.03,0.18 -0.89,12.49 -5.12,9.51 -5.63,2.78 -11.41,25.33 2.75,8.22 -4.02,8.6 1.59,17.95 -8.95,16.68 -6.09,6.44 -16.24,-1.83 -7.81,2.02 -9.91,-16.4 3.69,-22.33 9.07,-17.42 0.54,-11.1 -9.18,-18.27 -1.34,-12.19 2.03,-10.53 -8.42,-0.73 0.32,-13.67 8.79,0.67 -0.86,-7.93 z"
       id="M09343"
       style="fill:#ffff80;fill-opacity:1;stroke:#000000;stroke-width:1.64775;stroke-dasharray:none;stroke-opacity:1" />
    <path
       d="m 620.03,687.94 4.9,-5.04 -3.09,-5.56 3.57,-10.12 11.29,0.44 4.8,-5.98 9.05,1.52 2.47,-4.18 8.41,1.03 15.31,-5.66 7.81,1.12 0.86,7.93 -8.79,-0.67 -0.32,13.67 8.42,0.73 -2.03,10.53 1.34,12.19 9.18,18.27 -0.54,11.1 -9.07,17.42 -3.69,22.33 -10.32,-0.9 -14.73,4.24 -3.75,3.62 1.36,9.54 -7.91,1.08 -7.81,-4.78 -21.41,-2.24 -2.82,-8.91 5.72,-9.84 -3.78,-7.68 3.13,-8.41 -2.39,-4.85 3.25,-12.04 -1.75,-4.57 2.6,-16.85 -1.34,-5.74 z"
       id="M09342"
       style="fill:#ffff80;fill-opacity:1;stroke:#000000;stroke-width:1.64775;stroke-dasharray:none;stroke-opacity:1" />
    <path
       d="m 529.43,709.38 -1.12,9.97 -6.11,8.59 -5.44,3.03 -11.61,24.58 -0.04,12.42 -2.23,13.63 -7.3,7.44 -1.86,-5.91 -8.66,-3.45 -10.36,0.5 -3.76,-6.1 1.44,-8.23 -9.06,-0.37 -0.41,5 -13.86,0.46 -2.16,-3.35 4.14,-23.38 -1.13,-24.6 5.65,-3.2 8.77,0.45 10.98,-11.65 11.41,-15.46 15.02,7.87 5.87,-2.13 8.74,1.7 0.9,6.13 z"
       id="M09301"
       style="fill:#ffff80;fill-opacity:1;stroke:#000000;stroke-width:1.64775;stroke-dasharray:none;stroke-opacity:1" />
    <path
       d="m 404.35,781.48 10.91,2.84 2.72,-9.14 -3.22,-4.74 5.29,-12.64 1.12,-11.56 -3.27,-2.74 4.41,-10.11 -0.17,-8.94 10.16,-2.75 1.5,-10.13 -6.25,-11.17 1.3,-7.05 8.23,8.55 12.9,4.45 5.57,10.06 -5.65,3.2 1.13,24.6 -4.14,23.38 2.16,3.35 13.86,-0.46 0.41,-5 9.06,0.37 -1.44,8.23 3.76,6.1 10.36,-0.5 8.66,3.45 1.86,5.91 -3.51,15.12 0.78,4.67 -5.55,13.57 -4.5,3.73 -6.46,-6.03 -7.39,-0.19 -1.12,8.96 -5.33,4.6 -8.1,1.17 -2.73,-9.98 -7.88,4.87 -4.28,-2.98 -5.21,6.58 -4.79,0.09 -1.62,-16.84 -13.34,-5.07 -10.59,-1 -6.57,-6.73 -0.43,-6.64 -5.26,-1.84 5.14,-9.47 z"
       id="M09216"
       style="fill:#ffff80;fill-opacity:1;stroke:#000000;stroke-width:1.64775;stroke-dasharray:none;stroke-opacity:1" />
    <path
       d="m 630.42,575.5 -4.52,-19.77 -6.5,-1.07 -7.07,3.4 -0.38,-8.85 -3.33,-9.27 5,-4.5 v -6.13 l -8.62,-13.24 -20.17,-19.58 0.3,-3.67 22.88,-27.12 -3,-6.56 8.22,-2.7 7.67,-14.9 -3.99,-6.55 12.06,-7.81 8.67,14.08 8.56,0.27 3.9,4.5 6.29,-1.15 4.49,11.3 7.72,-0.07 6.39,-7.75 8.69,-0.16 9.7,13.36 0.21,12.18 7.6,12.17 6.75,6.83 18.95,0.87 5.23,-2.38 6.98,10.09 5.01,-1.23 8.18,4.32 -1.75,8.11 9.65,11.75 -1.52,5.55 3,9.31 -6.98,2 0.32,11.15 -5.48,3.79 -0.46,7.67 -21.17,5.17 1.14,7.79 -15.86,9.95 -7.67,-5.61 -5.77,-15.69 -14.52,2.65 -9.57,-2.69 1.99,-8.14 -29.48,-4.98 -5.32,12.79 z"
       id="M09215"
       style="fill:#ffff80;fill-opacity:1;stroke:#000000;stroke-width:1.64775;stroke-dasharray:none;stroke-opacity:1" />
    <path
       d="m 584.83,496.49 -10.62,12.52 -9.49,2.86 -11.07,-9.02 -7.57,5.51 -6.32,-1.64 -6.44,7.41 2.8,7.97 -2.52,6.38 -10.55,7.02 -2.76,-20.61 2.18,-9.7 -7.19,-15.86 -5.12,-7.79 -17.74,-21.73 -9.63,-8.53 15.91,2.34 8.86,-0.85 1.55,-7.18 21.29,-2.26 2.54,-14 -4.51,-5.54 8.67,-5.67 -2.5,-5.11 12.45,-12.44 -7.59,-11.72 5.19,-9.59 2.97,-10.84 6.65,-1.05 13.74,19.23 8.55,0.69 0.29,5.53 14.81,10.19 7.11,-6.66 12.01,4.66 5.3,-3.58 14.08,12.61 -4.9,5.04 3.71,12.1 -12.06,7.81 3.99,6.55 -7.67,14.9 -8.22,2.7 3,6.56 -22.88,27.12 z"
       id="M09214"
       style="fill:#ffff80;fill-opacity:1;stroke:#000000;stroke-width:1.64775;stroke-dasharray:none;stroke-opacity:1" />
    <path
       d="m 384.42,259.47 -10.04,5.23 -5.7,-5.68 1.92,-14.37 -19.7,-16.96 -4.33,-6.24 1.87,-5.53 -5.93,-4.43 7.39,-10.61 -2.56,-11.22 2.96,-4.67 -5.4,-10.88 7.65,-6.22 4.18,-8.5 -0.12,-12.8 2.94,-2.81 -2.99,-9.75 3.05,-11.69 27.5,-3.29 7.28,-5.08 11.25,-17.87 7.75,-18.04 -1.01,-4.38 -3.19,-12 2.39,-12.57 -4.93,-7.72 3.19,-5.85 7.38,-4.7 3.2,-7.66 13.34,-6.05 10.9,-1.42 4.42,-6.68 9.37,1.15 14.18,-7.43 6.46,-1.05 3.39,4.93 8.16,1.99 14.5,-6.37 8.22,1.2 9.07,-2.45 10.55,7.44 -13.69,8.18 -11.08,2.76 -5.32,12.49 1.38,21.21 9.96,-0.84 6.95,6.7 -0.05,8.56 -7.92,12.95 3.27,10.08 1.21,18.98 19.48,8.02 4.18,-1.75 6.98,6.97 7.66,-1.12 11.08,15.84 4.07,1.79 8.85,16.31 8.19,6.63 -1.39,8.46 14.66,9.34 15.08,7.34 5.05,6.29 6.25,0.61 4.9,-4.79 -5.99,-11.79 3.97,-5.55 5.54,3.75 8.56,10.81 13,-0.11 4.52,-9.95 7,-0.81 5.53,18.64 -6.83,6.16 -5.47,-2.93 -5.53,7.45 3.74,12.18 -10.7,12.72 -12.77,12.09 -18.61,0.74 -7,-9.5 -8.75,7.1 -5.92,-9.07 -9.82,12.71 1.18,10.57 -4.44,5.89 -6.06,-0.82 -13.48,10.34 12.41,15.53 -7.9,5.27 -1.37,9.54 -10.54,2.55 -3.07,10.88 3.4,7.2 -11.65,10.55 -13.71,-1.25 0.14,-8.39 -8.98,-13.33 -0.5,-3.68 -10.26,-15.91 -17.29,7.26 -7.41,-4.63 -2.58,-8.03 -14.54,-4.59 -14.69,-9.86 -13.48,-7.24 -7.73,-6.37 -2.42,-12.41 -7.58,-5.64 -8.85,2.03 -3.09,4.06 -10.46,4.01 -5.95,8.96 z"
       id="M09213"
       style="fill:#ffff80;fill-opacity:1;stroke:#000000;stroke-width:1.64775;stroke-dasharray:none;stroke-opacity:1" />
    <path
       d="m 509.11,445.59 -17.86,-6.86 -0.51,-11.63 -9.8,-10.94 -2.5,-12.08 -11.24,-4.48 -6.9,-5.23 -9.44,-12.18 4.89,-10.36 3.39,-0.96 -17.41,-28.21 -4.32,-1.86 -1,-13.78 -17.33,-5.89 -2.26,-8.78 -15.25,-15.71 -5.62,-13.86 -8.64,-15.16 -2.89,-8.15 11.88,-2.89 5.95,-8.96 10.46,-4.01 3.09,-4.06 8.85,-2.03 7.58,5.64 2.42,12.41 7.73,6.37 13.48,7.24 14.69,9.86 14.54,4.59 2.58,8.03 7.41,4.63 4.81,14.76 5.08,5.6 5.69,11.7 14.15,9.25 10.77,10.79 13.91,5.29 4.78,13.69 -6.65,1.05 -2.97,10.84 -5.19,9.59 7.59,11.72 -12.45,12.44 2.5,5.11 -8.67,5.67 4.51,5.54 -2.54,14 z"
       id="M09211"
       style="fill:#ffff80;fill-opacity:1;stroke:#000000;stroke-width:1.64775;stroke-dasharray:none;stroke-opacity:1" />
    <path
       d="m 598.77,396.35 -7.11,6.66 -14.81,-10.19 -0.29,-5.53 -8.55,-0.69 -13.74,-19.23 -4.78,-13.69 -13.91,-5.29 -10.77,-10.79 -14.15,-9.25 -5.69,-11.7 -5.08,-5.6 -4.81,-14.76 17.29,-7.26 10.26,15.91 0.5,3.68 8.98,13.33 -0.14,8.39 13.71,1.25 11.65,-10.55 -3.4,-7.2 3.07,-10.88 10.54,-2.55 1.37,-9.54 7.9,-5.27 -12.41,-15.53 13.48,-10.34 6.06,0.82 4.44,-5.89 -1.18,-10.57 9.82,-12.71 5.92,9.07 8.75,-7.1 7,9.5 18.61,-0.74 12.77,-12.09 3.21,8.45 11.93,11.65 6.76,-9.32 0.44,-10.67 7.64,-3.51 7.58,6.17 5.81,-3.08 -1.39,-9.28 21.07,-4.53 9.47,4.06 5.39,-2.21 18.51,4.99 15.45,-1.79 15.52,6.19 -6.86,8.14 -4.22,8.7 0.27,12.93 4.62,18.4 -1.16,5.69 3.18,13.03 -4.3,21.42 4.28,4.53 -1.41,6.41 5.39,4.17 3.5,9.25 0.77,16.46 -2.41,1.88 2.76,12.2 -0.5,8.78 -10.48,7.67 -17.07,-19.13 -4.45,-15.53 3.36,-11.52 -0.91,-9.79 -7.52,-0.99 -3.93,-4.41 -10.75,6.12 -5.18,12.35 -8.96,5.35 -6.21,-7.57 -4.48,-0.38 -3.15,12.11 -4.11,1.79 -5.5,13.68 -5.8,0.4 -3.3,7.52 -9.12,8.97 -17.68,-0.04 -2.88,-4.6 -16.71,-8.74 -9.42,1.24 -2.39,12.6 -4.13,-2.24 -13.45,2.99 -9.43,-0.1 z"
       id="M09210"
       style="fill:#ffff80;fill-opacity:1;stroke:#000000;stroke-width:1.64775;stroke-dasharray:none;stroke-opacity:1" />
    <path
       d="m 560.46,683.62 2.78,6.93 18.89,1.62 8.08,-1.01 7.24,-10.54 3.68,-10.48 2.21,14.51 -4.68,6.54 8.07,1.68 0.73,-8.65 5.51,-2.19 7.06,5.91 -2.07,12.74 1.34,5.74 -2.6,16.85 1.75,4.57 -3.25,12.04 2.39,4.85 -3.13,8.41 3.78,7.68 -5.72,9.84 2.82,8.91 -1.09,7.16 3.28,8.08 -4.59,7.2 -12.83,6.67 -10.5,-2.25 -7.77,2.41 -11.11,-1.02 -9.32,8.61 -9.66,0.89 -8.87,-2.64 -3.88,-4.93 -7.71,7.29 -0.65,17.05 -15.23,1.81 -9.16,5.86 -10.36,1.97 -8,6.8 -2.44,-2.43 3.67,-10.8 -5.9,-8.96 4.08,-5.94 5.55,-13.57 -0.78,-4.67 3.51,-15.12 7.3,-7.44 2.23,-13.63 0.04,-12.42 11.61,-24.58 5.44,-3.03 6.11,-8.59 1.12,-9.97 0.19,-9.35 3.76,-17.49 3.79,-5.42 12.35,-1.36 8.19,1.83 z"
       id="M09209"
       style="fill:#ffff80;fill-opacity:1;stroke:#000000;stroke-width:1.64775;stroke-dasharray:none;stroke-opacity:1" />
    <path
       d="m 382.16,960.92 2.02,-7.28 -3.48,-7.37 1.68,-13.36 -5.69,1.22 -4.03,6.45 -7.12,3.12 -16.84,-0.69 -6.4,-3.24 5.27,-13.06 -9.79,-2.11 -5.56,5.69 1.84,9.94 -5.92,3.16 -19.59,15.13 -1.36,7.01 -4.86,-9.68 0.6,-5.31 7.81,-6.5 -2.1,-7.76 10.36,-12.4 10.97,1.55 2.9,-6.27 -3.97,-5.91 9.27,-19.34 -6.03,-3.7 -0.87,-13.12 7.37,-2.69 -2.33,-12 13.38,-3.03 -2.96,-9.36 1.4,-11.92 7.28,0.42 1.17,-7.41 8.86,0.77 1.78,-14.44 9.53,-9.13 14.2,-0.9 0.75,-12.3 5.26,1.84 0.43,6.64 6.57,6.73 10.59,1 13.34,5.07 1.62,16.84 4.79,-0.09 5.21,-6.58 4.28,2.98 7.88,-4.87 2.73,9.98 8.1,-1.17 5.33,-4.6 1.12,-8.96 7.39,0.19 6.46,6.03 4.5,-3.73 -4.08,5.94 5.9,8.96 -3.67,10.8 2.44,2.43 -2.26,25.94 0.37,8.87 -5.38,3.38 -8.29,-4.13 1.96,-8.06 -15.05,-4.38 3.23,-5.88 -6.43,-3.56 -1.82,8.33 -12.96,4.74 -5.75,-1.35 -8.65,11.91 -3.59,8.68 5.42,14.91 -8.2,12.63 -4.19,18.01 -4.16,8.03 z"
       id="M09208"
       style="fill:#ffff80;fill-opacity:1;stroke:#000000;stroke-width:1.64775;stroke-dasharray:none;stroke-opacity:1" />
    <path
       d="m 374.38,264.7 -4.04,6.83 -0.71,7.79 2.31,19.49 -1.61,13.91 -17.44,12.13 -11.33,10.41 -7.41,0.3 3.12,11.76 -2.27,10.39 0.64,15.93 3.35,1.91 -0.3,14.24 3.09,14.03 12,-0.87 10.74,9.26 30.32,15.26 9.18,5.69 22.32,4.31 11.53,10.59 -8.72,5.09 -0.98,14.3 -2.65,1.91 -11.99,-2.15 -4.83,-10.08 -7.94,2.75 -9.53,9.52 -8.81,1.36 -2.08,24.09 6.24,9.9 2.66,17.22 -1.5,12.34 -8.87,-0.56 -1.73,4 -9.43,3.52 1.93,6.98 -11.86,0.53 -11.03,11.15 -4.46,-3.2 -9.99,3.29 -6.67,-1.56 -4.07,-5.47 0.48,-10.09 6.48,-8.58 -10.26,-6.09 -0.77,-16.19 -10.89,0.23 -10.97,6.32 -5.09,-6.55 -10.98,1.1 -8.8,-3.64 -6.28,2.6 -2.15,6.85 7.75,0.28 4.48,6.47 -11.77,14.17 -18.46,-8.71 -3.29,-4.23 -10.02,-1.52 -9.22,-8.08 -4.48,-7.08 -6.91,-3.32 -5.82,-30.98 2.2,-7.52 -11.89,-9.83 -3.33,3.2 -6.99,-3.9 -9.18,5.06 -11.54,2.29 1.81,6.88 -1.94,7.92 3.22,5.66 -1.71,5.83 -7.29,2 -6.62,12.85 -6.63,3.71 -3.49,10.83 1.43,8.37 9.42,14.66 -3.11,3.26 -13.87,4.77 -2.86,7.04 -5.79,-1.13 -8.98,5.76 -1.31,6.57 -16.87,-0.82 -7.28,5.75 -7.81,0.62 -12.04,-7.23 -11.35,6.13 -9.98,-10.12 -12.38,0.03 -16.18,-3.25 -5.45,-8.54 -5.84,-3.97 -7.51,-0.42 0.73,-15.18 -3.18,-15.36 6.49,-8.88 0.34,-9.13 3.6,-3.96 -1.95,-14.28 16.13,-15.5 2.83,-9.99 5.97,-8.12 -1.77,-4.63 4.55,-16.47 -11.8,-5.7 -0.66,-10.15 -3.7,-3.31 9.52,-17.91 10,-3.7 3.08,-8.06 -0.09,-12.83 8.87,-0.85 2.04,-9.51 12.98,-12.97 -7.77,-8.04 -8.86,-0.85 -16.78,-6.78 -2.19,-5.46 -9.31,-1.82 -3.25,-3.62 5.75,-6.1 2.14,-14.29 8.03,-5.16 3.33,-5.85 -1.04,-7.04 7.3,-8.71 12.02,-5.49 -0.51,-7.81 4.87,-9.65 10.83,-7.8 12.22,3.57 6.69,-12.15 -0.43,-6.22 18.46,-12.45 3.73,-17.54 9.57,-0.66 9.67,-4.24 8.26,7.79 7.96,-1.69 9.36,-8.6 14.6,-4.07 9.97,-9.49 8.09,-1.67 20.82,-12.94 1.95,-10.35 13.96,2.97 3.44,-4.09 7.3,2.27 11.54,-12.68 -0.46,-7 8.86,0.88 13.28,-5.65 3.41,-4.8 7.65,1.44 9.78,-16.85 12.73,-6.05 7.03,3.3 8.7,-9.41 10.92,-1.55 7.31,1.29 3.59,-3.49 12.81,1.5 8.43,-5.31 12.46,-13.68 8.38,-1.95 17.9,6.1 10.45,-0.3 1.01,4.38 -7.75,18.04 -11.25,17.87 -7.28,5.08 -27.5,3.29 -3.05,11.69 2.99,9.75 -2.94,2.81 0.12,12.8 -4.18,8.5 -7.65,6.22 5.4,10.88 -2.96,4.67 2.56,11.22 -7.39,10.61 5.93,4.43 -1.87,5.53 4.33,6.24 19.7,16.96 -1.92,14.37 z m -295.15,164.33 9.3,6.81 4.5,-2.92 9.07,5.06 7.88,-1.87 6.68,6.62 0.57,9.21 8.69,0.54 5.78,-3.69 10.57,-15.77 -11.79,-1.39 -16.44,-9.08 -1.22,-4.39 -15.2,3.01 -12.38,-2.93 z"
       fill-rule="evenodd"
       id="M09206"
       style="fill:#ffff80;fill-opacity:1;stroke:#000000;stroke-width:1.64775;stroke-dasharray:none;stroke-opacity:1" />
    <path
       d="m 411.72,668.79 -3,4.27 -10.03,4.99 -4.19,-3.32 -6.63,7.17 1.02,7.92 -4.1,3.89 -8.33,-6.36 -8.34,6.53 1.62,8.55 -2.92,7.58 -8.67,4.06 -8.34,-14.17 -16.75,-6.87 -10.02,5.59 -12.8,-4.5 -3.66,1.88 -7.69,-6.26 -14.97,-4.75 -10.64,6.73 -9.88,2.62 -9.99,-2.68 -5.42,11.16 0.47,12.6 -8.15,-1.06 -7.66,-4.73 -8.1,-14.03 -7.45,-7.81 -10.7,-4.17 -8.47,0.53 -12.12,-7.85 -11.14,-13.29 -0.58,-8.77 -3.86,-13.39 -4.63,-3.45 -5.27,-11.82 -4.51,-3.27 0.39,-7.58 -5.87,-5.75 -15.2,-5.32 -4.65,-4.13 0.34,-5.29 -7.64,-7.42 -1.99,-12.86 -5.06,-3.73 1.31,-6.57 8.98,-5.76 5.79,1.13 2.86,-7.04 13.87,-4.77 3.11,-3.26 -9.42,-14.66 -1.43,-8.37 3.49,-10.83 6.63,-3.71 6.62,-12.85 7.29,-2 1.71,-5.83 -3.22,-5.66 1.94,-7.92 -1.81,-6.88 11.54,-2.29 9.18,-5.06 6.99,3.9 3.33,-3.2 11.89,9.83 -2.2,7.52 5.82,30.98 6.91,3.32 4.48,7.08 9.22,8.08 10.02,1.52 3.29,4.23 18.46,8.71 11.77,-14.17 -4.48,-6.47 -7.75,-0.28 2.15,-6.85 6.28,-2.6 8.8,3.64 10.98,-1.1 5.09,6.55 10.97,-6.32 10.89,-0.23 0.77,16.19 10.26,6.09 -6.48,8.58 -0.48,10.09 4.07,5.47 6.67,1.56 9.99,-3.29 4.46,3.2 3.84,9.99 7.5,3.66 5.05,8.39 8.86,-4.93 15.71,9.51 4.79,-1.21 7.83,5.68 -11.12,5.05 2.5,11.58 12.18,14.91 10.98,-3.78 1.17,4.52 -5.5,8.76 0.55,6.33 7.26,5.54 2.09,9.88 -3.2,7.49 -6.36,-0.65 z"
       id="M09205"
       style="fill:#ffff80;fill-opacity:1;stroke:#000000;stroke-width:1.64775;stroke-dasharray:none;stroke-opacity:1" />
    <path
       d="m 130.49,599.53 4.65,4.13 15.2,5.32 5.87,5.75 -0.39,7.58 4.51,3.27 5.27,11.82 4.63,3.45 3.86,13.39 0.58,8.77 11.14,13.29 12.12,7.85 15.26,25.65 9.9,7.77 3.77,-1.68 11.95,15.78 10.13,7.24 5.03,-0.69 3.91,8.71 1.2,15.03 7.31,6.4 -13.15,26.29 0.13,8.36 -11.35,3.57 -5.68,7.06 -1,7.43 3.53,3.89 v 14.78 l 3.97,1.97 -0.73,16.79 2.82,3.22 11.42,-3.46 -0.66,8.16 -5.38,6.4 -1,10.8 -10.09,15.63 2.81,14.06 -6.94,6.13 -19.95,-1.16 -5.35,2.33 -14,-0.18 -10.05,-13.71 -4.27,4.8 -6.28,-6.12 -7.1,-7.58 -8.09,-4.63 4.95,-11.12 6.52,-4.75 9.86,3.55 -0.72,-9.85 4.16,-22.77 -16.03,2.71 -12.21,-0.19 -6.91,-7.76 0.62,-14.33 4.84,-8.3 -7.9,-27.17 -13.39,-10.44 -0.71,-6.23 -5.29,-6.02 -0.97,-10.13 -22.35,-23.14 -17.35,8.57 -6.89,-8.78 -12.96,-0.7 4.82,-5.15 -1.01,-7.98 13.9,-0.7 7.18,-7.09 -3.96,-6.38 -1.7,-10.1 -9.74,-13.11 3.11,-14.57 4.98,-1.95 10.16,-15.26 -3.01,-13.08 2.5,-13.33 10.74,1.42 7.08,-3.78 4.04,-10.72 6.98,-3.21 -0.1,-6.62 z m 102.16,110.1 7.66,4.73 -2.11,9.56 -3.68,1.3 -6.32,-8.35 z"
       fill-rule="evenodd"
       id="M09204"
       style="fill:#ffff80;fill-opacity:1;stroke:#000000;stroke-width:1.64775;stroke-dasharray:none;stroke-opacity:1" />
    <path
       d="m 307.19,965.53 -9.12,7.71 3.66,14.15 -9.56,0.61 -2.01,-7 -13.26,-23.8 -6.95,-7.95 -6.8,-2.27 -9.69,-13.9 4.83,-7.24 -2.18,-8.6 -14.08,-3.93 -2.81,-14.06 10.09,-15.63 1,-10.8 5.38,-6.4 0.66,-8.16 -11.42,3.46 -2.82,-3.22 0.73,-16.79 -3.97,-1.97 v -14.78 l -3.53,-3.89 1,-7.43 5.68,-7.06 11.35,-3.57 -0.13,-8.36 13.15,-26.29 -7.31,-6.4 -1.2,-15.03 -3.91,-8.71 -5.03,0.69 -10.13,-7.24 -11.95,-15.78 -3.77,1.68 -9.9,-7.77 -15.26,-25.65 8.47,-0.53 10.7,4.17 7.45,7.81 8.1,14.03 -4.45,7.24 6.32,8.35 3.68,-1.3 2.11,-9.56 8.15,1.06 -0.47,-12.6 5.42,-11.16 9.99,2.68 9.88,-2.62 10.64,-6.73 14.97,4.75 7.69,6.26 3.66,-1.88 12.8,4.5 10.02,-5.59 16.75,6.87 8.34,14.17 1.07,7.67 7.77,11.8 -0.29,6.65 13.97,21.09 5.26,2.32 3.2,13.64 15.22,4.24 -7.51,4.15 -5.14,9.47 -0.75,12.3 -14.2,0.9 -9.53,9.13 -1.78,14.44 -8.86,-0.77 -1.17,7.41 -7.28,-0.42 -1.4,11.92 2.96,9.36 -13.38,3.03 2.33,12 -7.37,2.69 0.87,13.12 6.03,3.7 -9.27,19.34 3.97,5.91 -2.9,6.27 -10.97,-1.55 -10.36,12.4 2.1,7.76 -7.81,6.5 -0.6,5.31 z"
       id="M09203"
       style="fill:#ffff80;fill-opacity:1;stroke:#000000;stroke-width:1.64775;stroke-dasharray:none;stroke-opacity:1" />
    <path
       d="m 67.27,736.34 12.96,0.7 6.89,8.78 17.35,-8.57 22.35,23.14 0.97,10.13 5.29,6.02 0.71,6.23 13.39,10.44 7.9,27.17 -4.84,8.3 -0.62,14.33 6.91,7.76 12.21,0.19 16.03,-2.71 -4.16,22.77 0.72,9.85 -9.86,-3.55 -6.52,4.75 -4.95,11.12 8.09,4.63 7.1,7.58 -9.02,-3.07 -4.2,3.92 -31.55,9.14 -15.51,0.52 -4.23,-5.75 7.21,-3.49 -8.63,-8.96 -11.15,0.86 -0.09,-5.49 -13.97,-10.57 -9.15,-12.28 -0.69,-8.7 9.71,-0.04 -3.13,-8.15 -21.47,-13.98 -7.06,-9.09 -16.47,-13.07 -1.89,-12.47 -4.44,-4.4 7.45,-14.52 4.58,-2.63 1.16,-11.05 7.48,-10.83 4.88,-2.88 2.2,-10.22 6.76,-2.68 z"
       id="M09202"
       style="fill:#ffff80;fill-opacity:1;stroke:#000000;stroke-width:1.64775;stroke-dasharray:none;stroke-opacity:1" />
    <path
       d="m 428.85,693.35 -0.43,-5.87 -5.71,-3.37 -3.25,-14.12 -7.74,-1.2 -0.84,-8.14 6.36,0.65 3.2,-7.49 -2.09,-9.88 -7.26,-5.54 -0.55,-6.33 5.5,-8.76 -1.17,-4.52 -10.98,3.78 -12.18,-14.91 -2.5,-11.58 11.12,-5.05 -7.83,-5.68 -4.79,1.21 -15.71,-9.51 -8.86,4.93 -5.05,-8.39 -7.5,-3.66 -3.84,-9.99 11.03,-11.15 11.86,-0.53 -1.93,-6.98 9.43,-3.52 1.73,-4 8.87,0.56 1.5,-12.34 -2.66,-17.22 -6.24,-9.9 2.08,-24.09 8.81,-1.36 9.53,-9.52 7.94,-2.75 4.83,10.08 11.99,2.15 2.65,-1.91 0.98,-14.3 8.72,-5.09 6.26,-5.74 17.78,7.73 5.03,-2.03 15.85,3.26 9.63,8.53 17.74,21.73 5.12,7.79 7.19,15.86 -2.18,9.7 2.76,20.61 2.57,10.05 10.21,23.57 16.63,-1.12 2.16,7.2 4.18,23.88 3.56,13.97 -4.42,8.11 0.84,6.59 9.35,17.5 0.81,9.59 -3.64,11.75 0.89,9.45 -5.73,7.58 -2.75,-6.03 -8.19,-1.83 -12.35,1.36 -3.79,5.42 -3.76,17.49 -0.19,9.35 -12.19,-6.06 -0.9,-6.13 -8.74,-1.7 -5.87,2.13 -15.02,-7.87 -11.41,15.46 -10.98,11.65 -8.77,-0.45 -5.57,-10.06 -12.9,-4.45 z"
       id="M09201"
       style="fill:#ffff80;fill-opacity:1;stroke:#000000;stroke-width:1.64775;stroke-dasharray:none;stroke-opacity:1" />
    <path
       d="m 744.11,500.09 -5.01,1.23 -6.98,-10.09 -5.23,2.38 -18.95,-0.87 -6.75,-6.83 -7.6,-12.17 -0.21,-12.18 -9.7,-13.36 -8.69,0.16 -6.39,7.75 -7.72,0.07 -4.49,-11.3 -6.29,1.15 -3.9,-4.5 -8.56,-0.27 -8.67,-14.08 -3.71,-12.1 4.9,-5.04 -14.08,-12.61 -5.3,3.58 -12.01,-4.66 -1.05,-9.47 9.43,0.1 13.45,-2.99 4.13,2.24 2.39,-12.6 9.42,-1.24 16.71,8.74 2.88,4.6 17.68,0.04 9.12,-8.97 3.3,-7.52 5.8,-0.4 5.5,-13.68 4.11,-1.79 3.15,-12.11 4.48,0.38 6.21,7.57 8.96,-5.35 5.18,-12.35 10.75,-6.12 3.93,4.41 7.52,0.99 0.91,9.79 -3.36,11.52 4.45,15.53 17.07,19.13 -0.12,9.48 6.14,7.17 -5.09,7.64 6.03,12.37 5.75,6.41 11.8,8.24 3.6,9.09 -1.4,13.33 -3.05,4.54 -9.35,1.43 -2.69,4.62 h -17.54 l -2.09,4.64 -8.95,-2.54 -10.78,13.56 3.82,9.7 z"
       id="M09411"
       style="fill:#ffff80;fill-opacity:1;stroke:#000000;stroke-width:1.64775;stroke-dasharray:none;stroke-opacity:1" />
    <path
       d="m 650.07,230.02 10.7,-12.72 -3.74,-12.18 5.53,-7.45 5.47,2.93 6.83,-6.16 -5.53,-18.64 -7,0.81 -4.52,9.95 -13,0.11 -8.56,-10.81 -5.54,-3.75 -3.97,5.55 5.99,11.79 -4.9,4.79 -6.25,-0.61 -5.05,-6.29 -15.08,-7.34 -14.66,-9.34 1.39,-8.46 -8.19,-6.63 -8.85,-16.31 -4.07,-1.79 -11.08,-15.84 -7.66,1.12 -6.98,-6.97 -4.18,1.75 -19.48,-8.02 -1.21,-18.98 -3.27,-10.08 7.92,-12.95 0.05,-8.56 -6.95,-6.7 -9.96,0.84 -1.38,-21.21 5.32,-12.49 11.08,-2.76 13.69,-8.18 9.9,0.96 9.34,4.33 4.21,-1.21 15.77,3.91 8.22,-3 18.79,7.88 8.66,9.79 7.02,-1.36 19.43,5.99 3.63,-2.71 7.42,3.28 21.08,17.57 7.45,-2.39 15.95,15.69 -2.24,4.44 4,6.81 5,1.21 7.02,9.53 9.96,1.09 6.85,3.86 -2.01,9.19 7.59,9.34 -0.43,20.05 3.38,4.72 13.62,5.57 4.08,-5.5 14.77,-0.08 5.39,-2.07 1.94,17.46 -9.18,9.15 3.17,9.31 5.77,8.26 -5.63,4.55 -0.24,6.05 7.62,10.6 -7.13,6.24 -3.21,7.4 2,6.6 -15.45,1.79 -18.51,-4.99 -5.39,2.21 -9.47,-4.06 -21.07,4.53 1.39,9.28 -5.81,3.08 -7.58,-6.17 -7.64,3.51 -0.44,10.67 -6.76,9.32 -11.93,-11.65 z"
       id="M09407"
       style="fill:#ffff80;fill-opacity:1;stroke:#000000;stroke-width:1.64775;stroke-dasharray:none;stroke-opacity:1" />
  </g>
</svg>
