<?xml version="1.0" encoding="UTF-8" standalone="no"?>
<svg
   version="1.2"
   width="690"
   height="600"
   viewBox="0 0 690 600"
   stroke-linecap="round"
   stroke-linejoin="round"
   id="svg1808"
   sodipodi:docname="tk.svg"
   inkscape:version="1.2 (dc2aedaf03, 2022-05-15)"
   xmlns:inkscape="http://www.inkscape.org/namespaces/inkscape"
   xmlns:sodipodi="http://sodipodi.sourceforge.net/DTD/sodipodi-0.dtd"
   xmlns="http://www.w3.org/2000/svg"
   xmlns:svg="http://www.w3.org/2000/svg">
  <defs
     id="defs1812" />
  <sodipodi:namedview
     id="namedview1810"
     pagecolor="#505050"
     bordercolor="#eeeeee"
     borderopacity="1"
     inkscape:showpageshadow="0"
     inkscape:pageopacity="0"
     inkscape:pagecheckerboard="0"
     inkscape:deskcolor="#505050"
     showgrid="false"
     inkscape:zoom="1.1194444"
     inkscape:cx="181.33996"
     inkscape:cy="303.7221"
     inkscape:window-width="1920"
     inkscape:window-height="1009"
     inkscape:window-x="-8"
     inkscape:window-y="-8"
     inkscape:window-maximized="1"
     inkscape:current-layer="svg1808" />
  <g
     id="g2096"
     inkscape:label="tk"
     transform="matrix(4.4362887,0,0,4.4362887,-134.35492,-31.727828)"
     style="fill:#ffff80;fill-opacity:1;stroke:#000000;stroke-width:0.225414;stroke-dasharray:none;stroke-opacity:1">
    <path
       d="m 107.97814,45.514592 0.84,-0.03 -1.17,-2.67 0.81,-0.21 0.51,0.72 0.81,-0.21 0.72,-1.38 1.86,0.42 0.12,0.57 2.13,0.48 -0.03,0.87 1.05,0.45 0.3,-1.11 0.87,1.17 -0.21,1.2 1.11,0.39 -0.3,0.93 -0.48,0.66 -1.47,0.54 -1.5,0.21 -1.23,-2.25 -0.12,1.44 -1.74,-1.68 -2.61,-0.12 z"
       id="M13214"
       style="fill:#ffff80;fill-opacity:1;stroke:#000000;stroke-width:0.225414;stroke-dasharray:none;stroke-opacity:1" />
    <path
       d="m 118.53814,30.784592 0.15,1.29 0.57,1.26 -0.66,0.63 1.23,0.27 -1.59,0.54 -0.15,0.9 -0.81,0.6 -0.48,1.35 0.06,1.83 -1.17,-0.15 -0.24,-0.9 -1.74,-0.84 -2.46,1.41 0.03,-1.86 -0.57,-0.54 -0.21,-1.26 -0.9,-0.9 0.03,-1.35 0.66,0.09 1.02,-0.54 1.17,-0.06 0.42,-0.72 h 1.56 l 1.35,-1.29 0.87,-0.18 0.72,0.33 0.63,-0.51 z"
       id="M13213"
       style="fill:#ffff80;fill-opacity:1;stroke:#000000;stroke-width:0.225414;stroke-dasharray:none;stroke-opacity:1" />
    <path
       d="m 105.93814,49.594592 0.78,0.72 1.17,1.62 1.74,2.1 0.21,0.42 -0.45,0.18 -0.24,1.38 -1.74,1.23 -1.59,-1.05 -0.3,0.42 -1.35,0.33 -1.14,0.81 -2.73,-0.03 -0.570002,-0.54 -1.56,-0.06 -0.51,-0.39 -1.17,-1.53 0.12,-1.02 2.16,-1.26 -0.33,-0.54 0.96,-1.56 -0.21,-1.8 0.57,-0.54 -0.39,-0.63 1.410002,0.09 1.59,0.39 1.68,0.72 z"
       id="M13212"
       style="fill:#ffff80;fill-opacity:1;stroke:#000000;stroke-width:0.225414;stroke-dasharray:none;stroke-opacity:1" />
    <path
       d="m 116.79814,44.584592 -0.87,-1.17 -0.3,1.11 -1.05,-0.45 0.03,-0.87 -2.13,-0.48 -0.12,-0.57 -1.86,-0.42 -1.68,-0.36 -1.47,-1.08 0.36,0.03 2.19,-1.23 0.48,0.27 0.87,-0.39 2.46,-1.41 1.74,0.84 0.24,0.9 1.17,0.15 -0.06,-1.83 0.87,0.45 1.11,-0.54 0.87,0.27 0.72,0.9 2.04,-0.12 -0.15,1.08 -0.54,0.57 0.15,0.6 0.9,0.84 -0.03,0.81 -2.31,0.54 -0.12,0.81 -1.89,-0.18 -0.09,0.69 z"
       id="M13211"
       style="fill:#ffff80;fill-opacity:1;stroke:#000000;stroke-width:0.225414;stroke-dasharray:none;stroke-opacity:1" />
    <path
       d="m 117.39814,47.104592 0.3,-0.93 -1.11,-0.39 0.21,-1.2 1.53,-0.24 0.09,-0.69 1.89,0.18 0.12,-0.81 2.31,-0.54 0.54,0.36 -0.21,0.81 0.3,0.63 0.87,0.15 -0.06,1.23 0.27,0.75 -0.84,1.65 -0.66,0.42 0.39,0.84 -0.75,-0.63 -0.63,-0.75 -0.75,1.05 -2.16,-0.27 -1.74,-0.72 z"
       id="M13210"
       style="fill:#ffff80;fill-opacity:1;stroke:#000000;stroke-width:0.225414;stroke-dasharray:none;stroke-opacity:1" />
    <path
       d="m 102.18814,64.204592 0.72,-0.42 0.75,0.18 0.75,-0.51 1.23,-0.03 1.17,1.08 0.84,-0.27 0.9,0.45 0.66,-0.75 1.26,0.18 0.48,-0.57 0.6,0.81 1.74,-0.33 1.05,1.11 0.15,0.48 0.9,0.3 2.79,2.58 -0.09,0.69 0.84,0.36 0.99,1.2 0.18,0.6 -0.93,0.27 -0.69,1.14 -0.84,0.63 -1.17,-2.07 0.42,-1.29 0.57,-0.99 -0.78,-0.21 -0.45,0.57 -0.99,0.21 -0.45,1.32 -0.57,0.87 -0.21,1.2 0.33,0.57 1.5,0.21 0.36,0.72 0.06,1.62 -0.33,0.84 0.21,0.63 0.81,0.84 -0.15,0.84 0.33,0.66 -0.21,1.5 -0.51,0.21 -1.02,1.56 0.66,1.17 -0.75,0.75 -1.35,-0.18 0.06,-0.75 -0.54,-0.93 -0.24,-1.35 -1.14,-0.48 -0.21,-0.48 0.54,-1.05 -1.53,-1.41 -0.57,-1.14 -2.61,-1.8 -0.99,-1.77 -1.44,-1.35 -0.69,-1.77 -1.26,-0.45 -0.33,-1.38 -1.26,-0.12 -3.300002,-1.8 -1.17,-0.9 h -1.02 l -3,-1.05 -1.32,0.15 -1.41,-0.57 -1.05,0.42 -1.47,-0.06 -0.9,-0.3 -1.05,-1.08 -1.53,-0.3 -0.48,0.36 -1.77,0.42 v -0.54 l 1.08,-0.66 0.21,-0.63 1.38,-0.42 1.26,0.06 0.72,0.87 1.53,-0.03 0.96,0.33 2.76,-0.18 1.68,0.33 0.96,0.96 2.22,0.66 0.69,-0.63 1.2,0.87 1.320002,0.42 0.75,0.66 0.18,-1.2 z"
       id="M13209"
       style="fill:#ffff80;fill-opacity:1;stroke:#000000;stroke-width:0.225414;stroke-dasharray:none;stroke-opacity:1" />
    <path
       d="m 122.58814,48.694592 0.75,0.63 -0.24,0.63 0.96,2.61 0.96,0.12 0.66,0.54 0.45,-0.45 -0.48,-0.66 0.24,-2.07 0.39,-0.3 1.08,0.24 1.38,-0.39 0.57,2.07 0.27,1.56 1.11,0.03 0.39,0.81 0.69,-1.08 -0.27,-0.93 1.26,-0.09 0.45,0.27 -0.18,0.96 0.33,1.41 0.39,0.36 -0.03,1.86 -0.72,-0.06 -1.11,-0.21 -0.99,-0.69 -1.23,0.63 -0.54,1.23 -0.21,1.71 -1.98,-0.36 -0.3,-0.45 -3.54,-1.17 -0.72,-0.69 -0.03,-1.47 -0.48,-0.54 0.9,-2.22 0.51,-0.9 -0.36,-1.44 -0.6,-0.36 z"
       id="M13208"
       style="fill:#ffff80;fill-opacity:1;stroke:#000000;stroke-width:0.225414;stroke-dasharray:none;stroke-opacity:1" />
    <path
       d="m 100.77814,47.944592 -1.410002,-0.09 -1.38,-0.09 -0.69,-0.33 -2.67,0.36 -1.65,-0.81 0.12,-1.05 -0.6,-0.72 -0.09,-1.47 1.02,-0.63 0.42,-1.08 0.75,0.09 1.38,-0.81 1.11,-0.24 1.29,0.33 1.59,-0.21 1.410002,1.53 0.9,1.23 -0.27,2.46 -0.42,0.06 -0.27,1.11 z"
       id="M13207"
       style="fill:#ffff80;fill-opacity:1;stroke:#000000;stroke-width:0.225414;stroke-dasharray:none;stroke-opacity:1" />
    <path
       d="m 112.59814,47.704592 0.12,-1.44 1.23,2.25 1.5,-0.21 1.47,-0.54 0.48,-0.66 -0.09,0.9 1.74,0.72 2.16,0.27 0.75,-1.05 0.63,0.75 -0.27,1.14 0.6,0.36 0.36,1.44 -0.51,0.9 -0.9,2.22 0.48,0.54 0.03,1.47 -1.41,-0.99 -1.41,0.27 -0.6,-0.3 -2.04,-0.24 -2.01,0.36 -0.03,0.3 -5.04,-1.71 -0.21,-0.42 -1.74,-2.1 0.3,-0.36 1.62,0.12 0.78,-0.21 0.63,0.3 0.09,-1.77 0.36,-1.38 z"
       id="M13206"
       style="fill:#ffff80;fill-opacity:1;stroke:#000000;stroke-width:0.225414;stroke-dasharray:none;stroke-opacity:1" />
    <path
       d="m 92.078138,27.844592 -0.66,1.29 -0.87,-0.24 -0.03,0.96 0.54,0.45 -0.48,0.78 -0.42,-0.24 -0.96,0.57 -1.44,-0.51 -0.78,-0.63 -0.99,1.17 0.72,1.77 -0.03,2.31 -1.41,-1.26 -1.83,-0.12 -2.34,0.33 -0.72,-0.15 -0.99,-1.05 -0.93,-0.27 -1.05,0.06 -2.79,-1.35 -1.62,0.15 -0.66,-1.02 -1.2,-1.2 -0.09,-0.39 -1.5,-0.51 -1.11,0.3 -1.56,1.05 -1.44,0.78 -0.69,0.06 -0.66,0.93 -1.86,-0.63 -0.84,0.78 -0.06,-1.11 1.68,-0.78 -0.15,-2.16 0.48,-0.66 1.77,-0.54 1.68,-0.87 0.63,-0.63 -0.21,-1.17 0.51,-1.47 -0.33,-1.29 0.51,-0.75 -1.08,-1.83 -0.9,-0.6 -0.39,-1.53 1.71,0.48 1.47,0.93 1.41,0.66 1.71,-0.18 0.69,-1.02 0.81,-0.06 1.08,0.81 2.1,1.17 0.72,-0.72 0.87,0.69 1.53,-0.3 1.32,0.45 1.8,-0.72 1.59,0.03 0.18,0.45 1.26,-0.15 0.87,0.57 0.78,0.03 0.21,2.13 0.66,0.21 0.75,-0.45 0.75,0.33 -0.18,1.83 0.27,0.33 0.87,2.55 0.57,0.87 z"
       id="M13205"
       style="fill:#ffff80;fill-opacity:1;stroke:#000000;stroke-width:0.225414;stroke-dasharray:none;stroke-opacity:1" />
    <path
       d="m 123.33814,49.324592 -0.39,-0.84 0.66,-0.42 0.84,-1.65 0.42,0.72 0.93,-0.27 1.32,0.3 -0.09,-2.28 3.27,1.56 0.96,-0.51 1.29,0.84 0.3,0.63 1.17,0.99 -0.54,0.39 0.57,0.93 -1.02,0.09 -0.18,1.53 0.36,0.9 -0.45,-0.27 -1.26,0.09 0.27,0.93 -0.69,1.08 -0.39,-0.81 -1.11,-0.03 -0.27,-1.56 -0.57,-2.07 -1.38,0.39 -1.08,-0.24 -0.39,0.3 -0.24,2.07 0.48,0.66 -0.45,0.45 -0.66,-0.54 -0.96,-0.12 -0.96,-2.61 z"
       id="M13204"
       style="fill:#ffff80;fill-opacity:1;stroke:#000000;stroke-width:0.225414;stroke-dasharray:none;stroke-opacity:1" />
    <path
       d="m 124.44814,46.414592 -0.27,-0.75 0.06,-1.23 -0.87,-0.15 -0.3,-0.63 0.21,-0.81 0.45,0.87 1.29,0.3 1.89,-1.11 1.26,-0.93 h 1.35 l 1.32,0.45 2.01,1.47 1.41,1.26 -0.84,2.07 -0.57,0.18 -0.3,-0.63 -1.29,-0.84 -0.96,0.51 -3.27,-1.56 0.09,2.28 -1.32,-0.3 -0.93,0.27 z"
       id="M13203"
       style="fill:#ffff80;fill-opacity:1;stroke:#000000;stroke-width:0.225414;stroke-dasharray:none;stroke-opacity:1" />
    <path
       d="m 110.49814,41.734592 -0.72,1.38 -0.81,0.21 -0.51,-0.72 -0.81,0.21 1.17,2.67 -0.84,0.03 v 0 l -0.75,0.33 0.3,0.69 0.66,0.3 -1.11,1.98 -0.51,-0.36 -0.63,1.14 -1.89,-0.54 -1.68,-0.72 -1.59,-0.39 0.54,-0.36 0.27,-1.11 0.42,-0.06 0.27,-2.46 -0.9,-1.23 -1.410002,-1.53 -1.59,0.21 -1.29,-0.33 -1.11,0.24 -0.27,-0.57 -0.06,-1.59 0.96,-0.24 0.15,-0.45 0.9,0.09 1.98,0.78 1.140002,-0.48 -0.03,-0.78 1.65,1.59 3.03,0.09 1.92,0.54 1.47,1.08 z"
       id="M13202"
       style="fill:#ffff80;fill-opacity:1;stroke:#000000;stroke-width:0.225414;stroke-dasharray:none;stroke-opacity:1" />
    <path
       d="m 99.368138,47.854592 0.39,0.63 -0.57,0.54 0.21,1.8 -0.96,1.56 0.33,0.54 -2.16,1.26 -0.12,1.02 1.17,1.53 0.51,0.39 1.56,0.06 0.570002,0.54 2.73,0.03 1.14,-0.81 1.35,-0.33 0.45,0.75 0.81,0.39 1.08,1.41 -0.72,0.81 -0.84,0.24 -2.4,1.53 -0.63,1.23 -1.08,1.23 -1.02,0.66 -0.18,1.2 -0.75,-0.66 -1.320002,-0.42 -1.2,-0.87 -0.69,0.63 -2.22,-0.66 -0.96,-0.96 -1.68,-0.33 -2.76,0.18 -0.96,-0.33 -1.53,0.03 -0.72,-0.87 -1.26,-0.06 -1.38,0.42 -0.21,0.63 -1.08,0.66 v 0.54 l -0.48,0.39 -0.15,0.96 -1.14,-0.36 -0.87,0.51 -0.84,-0.69 -1.32,-0.36 -0.12,-0.45 -1.29,-1.02 -0.15,-1.11 -0.54,-0.69 -0.84,-0.36 0.21,-0.78 -0.96,-1.44 0.03,-1.71 -0.66,-0.69 -2.13,-0.75 -0.87,0.51 -0.18,0.57 -1.2,0.45 -0.78,-0.09 -0.6,-0.81 -0.96,-0.33 -0.33,-2.04 -0.9,-1.2 0.51,-0.48 0.21,-0.9 0.63,-0.99 0.21,-1.71 2.01,-0.06 1.17,0.24 1.29,-0.09 0.18,-2.13 0.66,-0.12 -0.03,-1.5 0.39,-1.05 0.51,-0.15 1.11,-1.05 0.3,0.42 3.51,0.54 0.84,0.6 1.86,-0.24 0.45,0.33 1.29,0.09 0.84,-0.96 0.42,0.18 2.76,0.12 0.24,0.39 1.23,-0.21 0.78,-0.48 1.2,0.12 0.51,-0.93 1.35,1.71 0.57,-0.6 0.21,0.15 0.09,1.47 0.6,0.72 -0.12,1.05 1.65,0.81 2.67,-0.36 0.69,0.33 z"
       id="M13201"
       style="fill:#ffff80;fill-opacity:1;stroke:#000000;stroke-width:0.225414;stroke-dasharray:none;stroke-opacity:1" />
    <path
       d="m 113.64698,136.26119 0.6,0.28 0.23,0.35 0.35,0.39 0.01,0.43 -0.1,0.19 -0.48,0.26 -0.48,-0.18 -0.34,-0.33 0.03,-1.29 z"
       id="M13402"
       style="fill:#ffff80;fill-opacity:1;stroke:#000000;stroke-width:0.225414;stroke-dasharray:none;stroke-opacity:1" />
    <path
       d="m 109.79698,94.401185 0.19,0.29 0.3,0.15 0.2,0.3 0.05,0.39 -0.59,0.14 -0.27,-0.15 -0.16,-0.46 -0.28,-0.31 0.06,-0.25 z m 3.97,-1.45 0.8,0.18 0.4,0.47 0.67,0.41 0.1,0.56 0.26,0.04 0.14,0.22 0.47,0.07 0.19,0.54 0.66,0.17 0.3,-0.06 0.47,0.12 0.21,0.29 0.14,0.44 0.31,0.4 -0.14,0.48 0.24,0.45 -0.09,0.3 -0.4,0.06 -0.24,0.15 -0.29,-0.02 -0.14,0.37 -0.22,0.28 0.06,0.2 -0.05,0.49 0.19,0.27 -0.29,0.290005 -0.61,-0.760005 -0.66,-0.09 -0.29,-0.28 -0.31,0.08 -0.17,-0.21 -0.47,-0.24 -0.21,-0.38 -0.01,-0.88 -0.07,-0.4 -0.62,-0.37 -0.5,-0.06 -0.31,-0.47 -0.04,-0.36 -0.34,-0.44 -0.26,-0.55 -0.07,-0.45 0.03,-0.45 0.26,-0.49 0.28,-0.23 z"
       fill-rule="evenodd"
       id="M13401"
       style="fill:#ffff80;fill-opacity:1;stroke:#000000;stroke-width:0.225414;stroke-dasharray:none;stroke-opacity:1" />
    <path
       d="m 122.73814,42.484592 0.03,-0.81 -0.9,-0.84 -0.15,-0.6 0.54,-0.57 1.77,-1.38 0.36,-0.87 1.77,-1.92 0.39,0.27 2.49,-1.62 0.99,1.89 -0.33,0.87 0.21,0.93 -0.15,1.26 0.36,0.42 -0.57,1.41 -0.03,1.05 h -1.35 l -1.26,0.93 -1.89,1.11 -1.29,-0.3 -0.45,-0.87 z"
       id="M13229"
       style="fill:#ffff80;fill-opacity:1;stroke:#000000;stroke-width:0.225414;stroke-dasharray:none;stroke-opacity:1" />
    <path
       d="m 80.378138,34.324592 0.72,0.15 2.34,-0.33 1.83,0.12 1.41,1.26 0.96,-0.12 1.35,0.9 0.45,0.69 0.45,0.72 0.54,1.98 1.32,1.05 v 0.84 l 0.45,2.01 -0.57,0.6 -1.35,-1.71 -0.51,0.93 -1.2,-0.12 -0.78,0.48 -1.23,0.21 -0.24,-0.39 -2.76,-0.12 -0.42,-0.18 -0.84,0.96 -1.29,-0.09 -0.45,-0.33 -1.86,0.24 -0.84,-0.6 -3.51,-0.54 -0.3,-0.42 -1.11,1.05 -0.51,0.15 -0.39,1.05 0.03,1.5 -0.66,0.12 -0.18,2.13 -1.29,0.09 -1.17,-0.24 -2.01,0.06 0.12,-2.52 -1.08,-0.9 0.18,-1.53 -0.15,-1.68 0.12,-1.35 -0.3,-0.6 0.24,-0.72 -0.27,-1.02 -1.2,-0.66 -0.42,-1.05 -0.75,-0.81 -1.35,-0.24 0.21,-0.9 0.81,-0.42 -0.6,-0.81 -1.17,-0.78 0.24,-0.42 0.84,-0.78 1.86,0.63 0.66,-0.93 0.69,-0.06 2.82,1.89 0.12,1.11 1.23,0.15 1.92,0.9 0.6,0.75 0.93,0.39 0.75,1.44 h 0.48 l 1.17,0.87 1.05,0.21 1.08,-0.15 0.96,0.6 1.89,0.24 0.9,0.6 2.4,-0.24 1.02,0.27 -0.33,-1.62 -0.48,-0.33 0.21,-1.02 -0.84,-1.23 -0.81,0.03 -1.35,-0.42 z"
       id="M13228"
       style="fill:#ffff80;fill-opacity:1;stroke:#000000;stroke-width:0.225414;stroke-dasharray:none;stroke-opacity:1" />
    <path
       d="m 86.678138,35.524592 0.03,-2.31 -0.72,-1.77 0.99,-1.17 0.78,0.63 1.44,0.51 0.96,-0.57 0.42,0.24 1.23,1.14 0.78,0.09 0.36,2.28 1.08,1.86 -3.3,-0.75 -0.15,0.69 -1.14,0.6 -0.45,-0.69 -1.35,-0.9 z"
       id="M13227"
       style="fill:#ffff80;fill-opacity:1;stroke:#000000;stroke-width:0.225414;stroke-dasharray:none;stroke-opacity:1" />
    <path
       d="m 122.37814,56.764592 0.72,0.69 -0.66,1.17 0.33,0.9 -0.93,0.3 -0.48,1.17 -1.77,0.36 -1.35,1.05 0.15,0.99 0.66,0.99 -0.39,0.48 -1.35,0.03 -0.39,-0.72 -0.84,-0.33 -0.72,-1.02 -0.09,-0.72 -1.32,-0.3 -0.6,-0.78 0.06,-1.02 1.14,-0.78 -0.42,-1.26 -0.03,-0.9 0.78,-0.9 0.03,-0.3 2.01,-0.36 2.04,0.24 0.6,0.3 1.41,-0.27 z"
       id="M13225"
       style="fill:#ffff80;fill-opacity:1;stroke:#000000;stroke-width:0.225414;stroke-dasharray:none;stroke-opacity:1" />
    <path
       d="m 105.51814,56.614592 0.3,-0.42 1.59,1.05 1.74,-1.23 0.24,-1.38 0.45,-0.18 5.04,1.71 -0.78,0.9 0.03,0.9 0.42,1.26 -1.14,0.78 -0.06,1.02 -1.86,1.71 -0.54,0.81 -0.48,0.57 -1.26,-0.18 -0.66,0.75 -0.9,-0.45 -0.84,0.27 -1.17,-1.08 -1.23,0.03 -0.75,0.51 -0.75,-0.18 -0.72,0.42 1.08,-1.23 0.63,-1.23 2.4,-1.53 0.84,-0.24 0.72,-0.81 -1.08,-1.41 -0.81,-0.39 z"
       id="M13224"
       style="fill:#ffff80;fill-opacity:1;stroke:#000000;stroke-width:0.225414;stroke-dasharray:none;stroke-opacity:1" />
    <path
       d="m 105.42814,39.754592 -3.03,-0.09 -1.65,-1.59 0.03,0.78 -1.140002,0.48 -1.98,-0.78 -0.9,-0.09 -0.78,-0.63 -0.06,-0.57 0.57,-0.99 -0.09,-0.93 1.56,-2.43 0.18,-0.63 0.93,0.39 0.75,-0.42 0.18,0.96 0.720002,0.21 0.78,-0.36 0.33,0.72 2.13,0.27 0.66,0.75 -0.3,1.89 0.51,0.21 0.09,2.01 z"
       id="M13223"
       style="fill:#ffff80;fill-opacity:1;stroke:#000000;stroke-width:0.225414;stroke-dasharray:none;stroke-opacity:1" />
    <path
       d="m 116.79814,37.624592 0.48,-1.35 0.81,-0.6 0.15,-0.9 1.59,-0.54 1.83,-0.87 0.81,-0.39 1.41,-0.15 2.79,-1.11 -0.12,2.67 -0.39,1.11 -1.77,1.92 -0.36,0.87 -1.77,1.38 0.15,-1.08 -2.04,0.12 -0.72,-0.9 -0.87,-0.27 -1.11,0.54 z"
       id="M13222"
       style="fill:#ffff80;fill-opacity:1;stroke:#000000;stroke-width:0.225414;stroke-dasharray:none;stroke-opacity:1" />
    <path
       d="m 119.82814,34.234592 -1.23,-0.27 0.66,-0.63 -0.57,-1.26 -0.15,-1.29 0.42,-0.69 1.17,-0.12 0.81,-0.45 0.36,-0.66 0.99,0.03 1.44,-1.14 1.2,-1.92 0.78,-0.66 0.87,0.9 -0.51,1.23 -1.02,1.11 0.99,0.51 -0.15,1.65 -1.71,1.26 -1.44,0.27 -1.08,1.26 z"
       id="M13221"
       style="fill:#ffff80;fill-opacity:1;stroke:#000000;stroke-width:0.225414;stroke-dasharray:none;stroke-opacity:1" />
    <path
       d="m 109.62814,33.064592 -0.03,1.35 0.9,0.9 0.21,1.26 0.57,0.54 -0.03,1.86 -0.87,0.39 -0.48,-0.27 -2.19,1.23 -0.36,-0.03 -1.92,-0.54 -0.51,-0.84 -0.09,-2.01 -0.51,-0.21 0.3,-1.89 -0.66,-0.75 -2.13,-0.27 1.08,-0.21 0.27,-0.63 0.75,-0.3 2.34,0.66 0.42,-0.39 1.47,0.3 z"
       id="M13220"
       style="fill:#ffff80;fill-opacity:1;stroke:#000000;stroke-width:0.225414;stroke-dasharray:none;stroke-opacity:1" />
    <path
       d="m 128.91814,59.434592 0.21,-1.71 0.54,-1.23 1.23,-0.63 0.99,0.69 1.11,0.21 -0.48,1.05 0.51,1.14 0.57,0.39 0.36,1.26 -0.69,1.05 0.15,0.54 -0.6,-0.39 -1.44,-0.27 -0.99,-0.51 z"
       id="M13219"
       style="fill:#ffff80;fill-opacity:1;stroke:#000000;stroke-width:0.225414;stroke-dasharray:none;stroke-opacity:1" />
    <path
       d="m 95.978138,41.314592 -1.38,0.81 -0.75,-0.09 -0.42,1.08 -1.02,0.63 -0.21,-0.15 -0.45,-2.01 v -0.84 l -1.32,-1.05 -0.54,-1.98 -0.45,-0.72 1.14,-0.6 0.15,-0.69 3.3,0.75 1.5,1.68 0.39,-0.87 0.06,0.57 0.78,0.63 -0.15,0.45 -0.96,0.24 0.06,1.59 z"
       id="M13218"
       style="fill:#ffff80;fill-opacity:1;stroke:#000000;stroke-width:0.225414;stroke-dasharray:none;stroke-opacity:1" />
    <path
       d="m 107.97814,45.514592 0.27,0.39 2.61,0.12 1.74,1.68 -0.93,0.93 -0.36,1.38 -0.09,1.77 -0.63,-0.3 -0.78,0.21 -1.62,-0.12 -0.3,0.36 -1.17,-1.62 -0.78,-0.72 0.63,-1.14 0.51,0.36 1.11,-1.98 -0.66,-0.3 -0.3,-0.69 z"
       id="M13215"
       style="fill:#ffff80;fill-opacity:1;stroke:#000000;stroke-width:0.225414;stroke-dasharray:none;stroke-opacity:1" />
    <path
       d="m 65.528138,16.624592 0.39,1.53 0.9,0.6 1.08,1.83 -0.51,0.75 0.33,1.29 -0.51,1.47 0.21,1.17 -0.63,0.63 -1.68,0.87 -1.77,0.54 -0.48,0.66 0.15,2.16 -1.68,0.78 0.06,1.11 -0.24,0.42 -0.84,1.02 -3.69,-2.31 -0.27,-0.45 -1.47,0.63 -0.51,1.17 -1.08,-0.24 -0.6,0.27 -1.26,-0.42 -1.35,1.23 -1.53,0.39 -0.33,0.69 -0.9,0.03 -0.96,0.48 -0.54,1.47 0.27,0.78 -1.11,0.72 -0.39,-0.33 -1.65,0.78 -1.5,0.3 -1.05,-1.86 -0.09,-0.45 -0.99,-0.15 -1.02,-0.84 -0.48,-1.59 -0.81,-0.84 0.33,-2.82 -0.21,-0.6 -1.32,-0.75 0.06,-0.72 -0.87,-1.23 -0.21,-1.08 0.27,-1.8 -0.36,-0.42 0.09,-2.25 -0.18,-0.81 -1.11,0.36 -1.44,-1.35 -0.93,-1.35 0.18,-1.23 -0.72,-1.02 -0.18,-1.05 1.02,-1.74 0.81,-1.02 1.71,-0.72 0.45,-0.87 0.72,0.06 1.02,-0.6000002 1.02,0.7500002 h 0.54 l 1.14,-0.63 0.78,0.09 0.93,-1.1100002 0.03,-0.81 0.6,-0.66 1.26,-0.27 0.81,0.21 0.93,0.87 1.32,0.75 1.68,1.5600002 0.24,0.45 1.29,0.27 0.57,0.75 1.77,0.39 0.84,-0.72 0.75,0.09 1.44,1.17 1.2,0.06 0.57,0.42 2.1,0.42 3.09,-0.21 1.95,0.54 1.89,1.11 z"
       id="M13308"
       style="fill:#ffff80;fill-opacity:1;stroke:#000000;stroke-width:0.225414;stroke-dasharray:none;stroke-opacity:1" />
    <path
       d="m 66.758138,48.424592 -0.21,1.71 -0.63,0.99 -0.21,0.9 -0.51,0.48 -1.26,0.39 -1.02,-0.18 -1.68,-1.08 -0.9,0.06 -0.66,-0.93 -2.28,-1.59 -1.11,-1.2 -1.35,-0.24 -0.78,0.33 -1.68,-0.96 -1.5,0.03 -1.17,-0.54 -0.27,-0.45 -1.77,-0.87 -0.84,-0.9 -1.29,-0.36 -0.6,-0.72 -0.93,-0.36 -1.02,-1.02 -0.27,-1.05 -1.14,-1.5 -0.24,-0.72 1.5,-0.3 1.65,-0.78 0.39,0.33 1.11,-0.72 -0.27,-0.78 0.54,-1.47 0.96,-0.48 0.9,-0.03 0.33,-0.69 1.53,-0.39 1.35,-1.23 1.26,0.42 0.6,-0.27 1.08,0.24 0.51,-1.17 1.47,-0.63 0.27,0.45 3.69,2.31 0.84,-1.02 1.17,0.78 0.6,0.81 -0.81,0.42 -0.21,0.9 1.35,0.24 0.75,0.81 0.42,1.05 1.2,0.66 0.27,1.02 -0.24,0.72 0.3,0.6 -0.12,1.35 0.15,1.68 -0.18,1.53 1.08,0.9 z"
       id="M13307"
       style="fill:#ffff80;fill-opacity:1;stroke:#000000;stroke-width:0.225414;stroke-dasharray:none;stroke-opacity:1" />
    <path
       d="m 65.438138,30.874592 1.44,-0.78 1.56,-1.05 1.11,-0.3 1.5,0.51 0.09,0.39 1.2,1.2 0.66,1.02 1.62,-0.15 2.79,1.35 1.05,-0.06 0.93,0.27 0.99,1.05 0.78,0.99 1.35,0.42 0.81,-0.03 0.84,1.23 -0.21,1.02 0.48,0.33 0.33,1.62 -1.02,-0.27 -2.4,0.24 -0.9,-0.6 -1.89,-0.24 -0.96,-0.6 -1.08,0.15 -1.05,-0.21 -1.17,-0.87 h -0.48 l -0.75,-1.44 -0.93,-0.39 -0.6,-0.75 -1.92,-0.9 -1.23,-0.15 -0.12,-1.11 z"
       id="M13305"
       style="fill:#ffff80;fill-opacity:1;stroke:#000000;stroke-width:0.225414;stroke-dasharray:none;stroke-opacity:1" />
    <path
       d="m 90.578138,31.084592 0.48,-0.78 -0.54,-0.45 0.03,-0.96 0.87,0.24 0.66,-1.29 0.36,0.36 0.93,-0.54 0.66,0.12 0.63,-0.48 0.57,0.6 1.02,-0.03 0.51,0.36 1.41,0.27 -0.21,1.17 0.39,0.54 1.65,0.57 0.210002,0.81 -0.390002,0.66 -0.75,0.42 -0.93,-0.39 -0.18,0.63 -1.56,2.43 0.09,0.93 -0.57,0.99 -0.39,0.87 -1.5,-1.68 -1.08,-1.86 -0.36,-2.28 -0.78,-0.09 z"
       id="M13303"
       style="fill:#ffff80;fill-opacity:1;stroke:#000000;stroke-width:0.225414;stroke-dasharray:none;stroke-opacity:1" />
    <path
       d="m 167.73814,68.674592 0.93,-0.63 -0.99,-1.47 0.24,-0.3 0.78,0.51 0.54,-0.99 0.84,-0.57 0.15,-0.51 1.68,3.27 -2.97,2.01 z m 5.7,-12.69 0.21,-1.29 h 0.39 l 0.78,0.06 -0.15,2.7 -1.35,-0.06 z"
       fill-rule="evenodd"
       id="M13999"
       sodipodi:nodetypes="cccccccccccccccccc"
       style="fill:#33ff33;fill-opacity:1;stroke:#000000;stroke-width:0.22541364;stroke-dasharray:none;stroke-opacity:1" />
    <path
       d="m 72.390374,134.38578 0.3,0.13 0.47,0.42 0.36,0.55 0.34,0.97 -0.42,0.87 -0.16,0.17 -1.03,-0.14 -0.48,0.01 -0.68,-0.33 -0.15,-0.41 v -0.75 l 0.09,-0.33 0.25,-0.41 0.41,-0.54 z"
       id="M13382"
       style="fill:#ffff80;fill-opacity:1;stroke:#000000;stroke-width:0.225414;stroke-dasharray:none;stroke-opacity:1" />
    <path
       d="m 68.610374,120.07578 0.35,0.04 0.39,0.26 0.65,0.57 0.23,0.35 0.1,0.75 -0.19,0.43 0.12,0.49 -0.06,0.69 -0.4,0.34 -0.22,0.29 -0.56,0.17 -0.31,0.19 -0.06,0.28 -0.26,0.13 -0.17,-0.17 -0.19,0.15 -0.5,-0.11 -0.6,0.2 -0.41,-0.17 -0.19,-0.2 h -0.39 l -0.25,-0.56 0.13,-0.67 -0.3,-0.21 -0.03,-0.28 0.41,-0.31 -0.04,-0.24 0.13,-0.32 0.27,-0.26 -0.01,-0.31 0.25,-0.11 0.05,-0.19 -0.25,-0.45 0.19,-0.46 0.3,-0.14 0.43,-0.05 0.24,0.15 0.43,-0.23 0.44,-0.08 z"
       id="M13381"
       style="fill:#ffff80;fill-opacity:1;stroke:#000000;stroke-width:0.225414;stroke-dasharray:none;stroke-opacity:1" />
    <path
       d="m 134.04814,49.714592 -0.57,-0.93 0.54,-0.39 -1.17,-0.99 0.57,-0.18 0.84,-2.07 -1.41,-1.26 -0.24,-1.2 1.68,-0.69 0.99,-0.87 2.13,-0.84 1.47,0.03 0.72,1.77 0.51,0.81 1.5,0.42 0.18,0.63 1.38,0.51 1.08,-0.06 0.69,1.98 0.78,1.47 -1.05,0.96 -0.27,0.96 0.78,1.08 -0.39,0.75 -1.8,0.51 -1.8,0.81 -2.22,-0.66 -0.54,-0.69 -1.47,-0.69 -0.51,0.27 -0.96,-1.14 z"
       id="M13115"
       style="fill:#ffff80;fill-opacity:1;stroke:#000000;stroke-width:0.225414;stroke-dasharray:none;stroke-opacity:1" />
    <path
       d="m 145.17814,50.854592 -0.78,-1.08 0.27,-0.96 1.05,-0.96 -0.78,-1.47 -0.69,-1.98 -1.08,0.06 -1.38,-0.51 -0.18,-0.63 -1.5,-0.42 -0.51,-0.81 -0.72,-1.77 0.6,-1.02 h 0.84 l 1.02,1.77 3.54,-0.12 0.39,-0.81 1.59,-0.42 0.51,0.48 -0.09,0.27 -0.33,1.11 0.18,0.78 0.81,1.11 0.21,0.75 1.17,-0.24 -0.42,1.89 0.15,0.48 -0.72,1.44 -0.57,0.42 -1.44,1.65 z"
       id="M13114"
       style="fill:#ffff80;fill-opacity:1;stroke:#000000;stroke-width:0.225414;stroke-dasharray:none;stroke-opacity:1" />
    <path
       d="m 144.78814,51.604592 0.39,-0.75 1.14,-0.99 1.44,-1.65 0.57,-0.42 -0.12,0.63 0.72,1.41 1.17,-0.99 1.11,-0.51 0.87,0.93 1.17,0.72 -0.3,0.69 0.57,0.75 -1.26,1.83 0.69,1.11 1.53,0.57 0.15,1.74 -0.69,0.96 -0.24,0.03 -1.44,-0.09 -1.59,-1.32 -0.9,-1.02 -0.9,-1.47 -1.95,-0.45 -0.39,-1.65 z"
       id="M13113"
       style="fill:#ffff80;fill-opacity:1;stroke:#000000;stroke-width:0.225414;stroke-dasharray:none;stroke-opacity:1" />
    <path
       d="m 132.99814,56.764592 0.72,0.06 0.03,-1.86 -0.39,-0.36 -0.33,-1.41 0.18,-0.96 -0.36,-0.9 0.18,-1.53 1.02,-0.09 1.44,0.3 0.96,1.14 0.51,-0.27 1.47,0.69 0.54,0.69 2.22,0.66 1.8,-0.81 1.8,-0.51 1.74,0.06 0.39,1.65 1.5,2.43 -0.03,1.5 0.27,1.11 -0.99,2.34 -1.23,-0.69 -1.32,-0.45 -0.3,0.87 0.75,1.77 -0.54,0.57 0.03,1.38 0.81,0.39 1.41,-0.27 0.48,1.41 0.03,1.14 -0.78,0.6 -0.96,-1.41 -1.11,0.12 -0.42,-0.3 -0.66,0.69 -0.12,1.23 -0.99,-0.93 -1.44,-1.02 -1.38,-1.38 -2.1,-1.32 -0.93,-0.39 h -1.17 l -0.75,-0.48 -1.56,-0.03 -0.15,-0.54 0.69,-1.05 -0.36,-1.26 -0.57,-0.39 -0.51,-1.14 z"
       id="M13112"
       style="fill:#ffff80;fill-opacity:1;stroke:#000000;stroke-width:0.225414;stroke-dasharray:none;stroke-opacity:1" />
    <path
       d="m 168.51814,79.834592 -0.6,-0.54 2.04,-2.19 0.99,0.15 z m -7.41,-9.12 1.47,0.03 -1.26,1.95 -1.14,-0.69 -0.12,-1.2 z m -17.37,-2.97 0.12,-1.23 0.66,-0.69 0.42,0.3 1.11,-0.12 0.96,1.41 0.78,-0.6 -0.03,-1.14 0.69,-0.9 0.24,-1.23 0.81,0.12 0.66,0.69 0.9,1.2 2.13,0.27 0.15,0.6 0.9,0.51 1.14,-0.03 0.36,0.45 -0.06,0.93 h 0.93 l 1.68,-0.54 0.21,0.3 1.35,3.84 -0.96,0.33 0.42,0.78 0.9,-0.21 0.81,0.78 1.17,-1.68 2.28,-0.3 2.52,4.35 1.26,1.8 -2.25,1.38 -1.68,-0.66 -0.36,-0.63 -0.9,0.81 -1.35,-0.93 -1.83,-1.02 -1.56,0.12 -1.17,-0.24 -0.75,0.81 -1.35,-0.48 -1.41,1.05 -1.83,0.36 -0.93,-0.42 -0.24,-1.38 0.81,-0.78 -0.06,-0.78 -0.87,-0.54 -1.29,-0.21 -1.71,-1.14 -0.39,-0.6 -1.14,-3.63 -0.93,-1.02 z m 15.03,0.27 1.02,-0.09 v 0.84 h 1.05 v -1.89 l 0.69,0.39 0.99,-0.63 0.87,1.83 1.44,1.26 -0.72,0.57 h -4.32 l -0.3,-0.24 z m 8.91,-1.44 0.99,1.47 -0.93,0.63 -1.83,-1.32 1.59,-1.08 z"
       fill-rule="evenodd"
       id="M13111"
       style="fill:#ffff80;fill-opacity:1;stroke:#000000;stroke-width:0.225414;stroke-dasharray:none;stroke-opacity:1" />
    <path
       d="m 146.91814,53.314592 1.95,0.45 0.9,1.47 0.9,1.02 1.59,1.32 1.44,0.09 -0.72,0.81 0.24,1.65 -1.68,0.84 -0.27,0.9 -1.08,1.56 -0.03,0.93 -0.66,-0.69 -0.81,-0.12 -0.24,1.23 -0.69,0.9 -0.48,-1.41 -1.41,0.27 -0.81,-0.39 -0.03,-1.38 0.54,-0.57 -0.75,-1.77 0.3,-0.87 1.32,0.45 1.23,0.69 0.99,-2.34 -0.27,-1.11 0.03,-1.5 z"
       id="M13110"
       style="fill:#ffff80;fill-opacity:1;stroke:#000000;stroke-width:0.225414;stroke-dasharray:none;stroke-opacity:1" />
    <path
       d="m 162.51814,66.634592 -0.99,0.63 -0.69,-0.39 v 1.89 h -1.05 v -0.84 l -1.02,0.09 -0.06,-2.34 0.42,-0.78 0.18,-2.52 0.81,-0.03 0.63,0.6 0.24,1.17 z m -8.82,-8.97 0.24,-0.03 -0.39,0.69 0.51,0.72 0.96,-0.09 0.75,0.84 0.09,0.87 1.05,0.36 1.98,-0.06 h 0.24 l -0.21,3.39 -0.45,0.93 -0.18,2.46 -1.68,0.54 h -0.93 l 0.06,-0.93 -0.36,-0.45 -1.14,0.03 -0.9,-0.51 -0.15,-0.6 -2.13,-0.27 -0.9,-1.2 0.03,-0.93 1.08,-1.56 0.27,-0.9 1.68,-0.84 -0.24,-1.65 z m 8.88,4.17 -0.93,-0.33 0.18,-0.87 0.42,0.66 z m -3.18,-0.72 0.66,-0.03 0.27,-0.75 0.06,1.68 -1.05,0.09 z"
       fill-rule="evenodd"
       id="M13109"
       style="fill:#ffff80;fill-opacity:1;stroke:#000000;stroke-width:0.225414;stroke-dasharray:none;stroke-opacity:1" />
    <path
       d="m 170.22814,64.714592 -0.15,0.51 -0.84,0.57 -0.54,0.99 -0.78,-0.51 -0.24,-0.33 2.37,-1.56 z m -0.42,-0.63 -4.26,2.85 -0.15,-0.54 1.23,-1.92 1.86,-1.23 z m -7.23,-2.25 -0.33,-0.54 1.74,-1.26 0.42,0.63 -0.63,0.48 1.86,2.79 -0.96,1.53 -2.16,-3.27 z m 3.78,0.63 -0.45,0.63 -1.44,-2.19 0.72,-0.51 z m 7.68,-7.77 h -0.39 l -0.21,1.29 -0.12,1.41 -0.12,1.8 -2.94,0.36 -0.09,-0.3 1.98,-0.21 0.15,-1.86 -2.04,0.21 -0.21,0.27 -1.95,0.24 -0.18,0.69 -0.9,0.09 -0.18,1.05 0.3,0.96 -0.57,0.84 -1.05,-1.56 -0.75,0.51 -1.32,-1.92 2.46,-1.53 0.06,-0.48 -2.34,1.56 -0.63,-0.6 2.58,-2.07 -0.42,-0.66 -0.09,-1.83 -0.3,-1.29 0.09,-0.93 0.66,-1.08 -0.24,-1.32 0.48,-0.3 0.9,0.21 0.93,0.57 1.11,-0.36 -0.06,-0.66 1.29,-0.21 -0.15,-2.94 1.89,0.99 h 0.75 l 1.35,0.69 0.63,0.87 -0.03,1.35 -0.33,1.35 0.45,0.42 -0.24,1.02 z m -2.46,3.27 -1.41,1.17 -0.12,-0.96 z m 1.59,2.16 -0.21,2.91 -0.51,0.33 -0.78,-1.17 -0.51,-0.24 -0.24,-2.16 1.77,-0.21 z"
       fill-rule="evenodd"
       id="M13108"
       style="fill:#ffff80;fill-opacity:1;stroke:#000000;stroke-width:0.225414;stroke-dasharray:none;stroke-opacity:1" />
    <path
       d="m 172.41814,45.634592 h -0.75 l -1.89,-0.99 0.15,2.94 -1.29,0.21 0.06,0.66 -1.11,0.36 -0.93,-0.57 -0.9,-0.21 -0.48,0.3 -0.24,-1.08 1.29,-2.55 1.53,-1.89 0.48,-2.1 0.78,-2.1 0.93,-0.9 0.54,1.11 0.96,1.29 1.95,2.31 -1.05,0.3 -0.3,0.75 0.93,0.81 -0.6,0.63 z"
       id="M13107"
       style="fill:#ffff80;fill-opacity:1;stroke:#000000;stroke-width:0.225414;stroke-dasharray:none;stroke-opacity:1" />
    <path
       d="m 168.33814,40.714592 -0.48,2.1 -1.53,1.89 -1.29,2.55 -1.02,-0.36 -0.33,-0.75 -1.17,-0.3 -0.48,-0.66 -0.54,-0.66 -0.15,-0.96 0.21,-0.93 -0.6,-0.69 0.27,-1.05 -0.36,-0.69 0.54,0.63 0.57,-0.12 1.11,0.63 0.75,0.06 0.48,-0.66 2.7,-0.27 z"
       id="M13106"
       style="fill:#ffff80;fill-opacity:1;stroke:#000000;stroke-width:0.225414;stroke-dasharray:none;stroke-opacity:1" />
    <path
       d="m 160.86814,40.204592 0.36,0.69 -0.27,1.05 0.6,0.69 -0.21,0.93 0.15,0.96 0.54,0.66 -0.6,0.69 -3.24,-0.21 -0.51,-1.05 -1.11,-0.18 -1.56,-0.03 -0.54,-0.6 -0.78,-0.42 0.09,-0.63 1.02,-0.45 -0.3,-1.02 0.6,-0.36 0.87,0.57 0.87,-0.54 1.2,-1.77 0.66,0.6 0.57,-0.45 1.29,0.57 z"
       id="M13105"
       style="fill:#ffff80;fill-opacity:1;stroke:#000000;stroke-width:0.225414;stroke-dasharray:none;stroke-opacity:1" />
    <path
       d="m 148.32814,47.794592 0.72,-1.44 -0.15,-0.48 0.42,-1.89 -1.17,0.24 -0.21,-0.75 -0.81,-1.11 -0.18,-0.78 0.33,-1.11 h 0.03 l 0.84,1.11 1.77,0.3 1.71,-0.18 0.18,1.89 2.67,0.21 0.54,0.6 1.56,0.03 1.11,0.18 0.51,1.05 -1.53,2.1 -0.75,0.48 -0.27,0.84 0.24,0.78 -0.75,0.42 -1.14,0.18 -0.48,0.96 -0.57,-0.75 0.3,-0.69 -1.17,-0.72 -0.87,-0.93 -1.11,0.51 -1.17,0.99 -0.72,-1.41 z"
       id="M13104"
       style="fill:#ffff80;fill-opacity:1;stroke:#000000;stroke-width:0.225414;stroke-dasharray:none;stroke-opacity:1" />
    <path
       d="m 160.32814,60.334592 -0.27,0.75 -0.66,0.03 0.27,-1.89 h 0.63 z m 1.92,0.96 -0.42,-0.66 1.35,-0.96 0.81,0.36 z m -8.31,-3.66 0.69,-0.96 -0.15,-1.74 -1.53,-0.57 -0.69,-1.11 1.26,-1.83 0.48,-0.96 1.14,-0.18 0.75,-0.42 0.84,0.51 0.36,0.93 1.41,0.87 1.02,-0.06 0.6,0.24 0.15,1.89 0.9,0.57 -0.51,0.75 -0.15,3.06 -0.78,-0.45 -0.48,0.9 -0.09,1.59 -0.27,0.3 -1.98,0.06 -1.05,-0.36 -0.09,-0.87 -0.75,-0.84 -0.96,0.09 -0.51,-0.72 z"
       fill-rule="evenodd"
       id="M13103"
       style="fill:#ffff80;fill-opacity:1;stroke:#000000;stroke-width:0.225414;stroke-dasharray:none;stroke-opacity:1" />
    <path
       d="m 165.27814,48.334592 0.24,1.32 -0.66,1.08 -0.09,0.93 0.3,1.29 0.09,1.83 -2.7,2.01 -0.87,-0.99 -0.42,-0.99 -0.9,-0.57 -0.15,-1.89 -0.6,-0.24 1.5,-0.51 1.05,-1.14 0.03,-2.13 1.56,-0.72 0.36,-0.72 1.02,0.36 z"
       id="M13102"
       style="fill:#ffff80;fill-opacity:1;stroke:#000000;stroke-width:0.225414;stroke-dasharray:none;stroke-opacity:1" />
    <path
       d="m 162.03814,45.184592 0.48,0.66 1.17,0.3 0.33,0.75 -0.36,0.72 -1.56,0.72 -0.03,2.13 -1.05,1.14 -1.5,0.51 -1.02,0.06 -1.41,-0.87 -0.36,-0.93 -0.84,-0.51 -0.24,-0.78 0.27,-0.84 0.75,-0.48 1.53,-2.1 3.24,0.21 z"
       id="M13101"
       style="fill:#ffff80;fill-opacity:1;stroke:#000000;stroke-width:0.225414;stroke-dasharray:none;stroke-opacity:1" />
    <path
       d="m 174.66814,57.454592 0.15,-2.7 -0.78,-0.06 0.21,-3.36 0.24,-1.02 -0.45,-0.42 0.33,-1.35 0.03,-1.35 -0.63,-0.87 -1.35,-0.69 0.06,-0.72 0.6,-0.63 -0.93,-0.81 0.3,-0.75 1.05,-0.3 1.47,1.68 0.78,-0.72 0.96,0.33 0.99,-0.36 -0.36,-0.78 1.2,-3.57 0.99,-0.66 0.42,-1.83 1.17,-0.24 1.5,1.23 0.24,1.38 -0.48,1.08 0.12,1.65 0.84,0.78 0.66,1.11 1.29,1.14 0.42,2.04 -1.62,2.37 -0.78,0.48 -1.62,0.21 -1.14,0.69 -0.12,1.26 0.24,0.66 0.03,2.46 -0.6,2.16 -1.92,1.26 -2.16,-0.09 z"
       id="M13123"
       style="fill:#ffff80;fill-opacity:1;stroke:#000000;stroke-width:0.225414;stroke-dasharray:none;stroke-opacity:1" />
    <path
       d="m 173.49814,42.424592 -1.95,-2.31 -0.96,-1.29 -0.54,-1.11 -1.11,-2.19 0.03,-1.02 0.96,-0.15 0.63,0.9 1.17,-0.63 0.21,-0.93 0.84,0.12 1.32,-1.23 0.87,-0.06 0.12,0.81 0.72,0.24 0.18,-1.26 -1.29,-1.71 -0.69,-1.59 -0.15,-1.2 0.39,-0.54 1.53,1.11 0.54,-0.87 0.63,0.09 1.11,-0.48 0.93,0.69 -0.81,1.14 -0.03,0.48 0.93,0.87 1.59,-0.57 1.05,0.24 -0.06,0.87 -1.68,0.96 -0.54,1.17 0.6,1.74 1.08,1.56 -1.17,0.24 -0.42,1.83 -0.99,0.66 -1.2,3.57 0.36,0.78 -0.99,0.36 -0.96,-0.33 -0.78,0.72 z"
       id="M13122"
       style="fill:#ffff80;fill-opacity:1;stroke:#000000;stroke-width:0.225414;stroke-dasharray:none;stroke-opacity:1" />
    <path
       d="m 170.04814,37.714592 -0.93,0.9 -0.87,-0.42 -1.05,0.45 -1.59,-0.42 -0.57,-0.72 0.36,-1.14 -1.38,-0.75 -1.74,0.09 -2.16,-0.24 -1.26,-0.33 -0.18,-0.63 1.47,-0.96 -0.03,-1.08 -1.08,0.54 -0.87,0.06 -1.44,-0.63 -0.09,-0.75 0.3,-1.2 0.72,-0.3 0.99,-0.84 0.99,-0.18 0.09,-0.6 0.84,-1.44 -1.62,-1.83 0.03,-0.69 1.65,-0.54 0.81,-0.9 0.87,0.12 1.2,1.71 2.1,0.57 1.02,-0.18 0.54,-0.45 1.74,0.03 1.02,-0.69 h 0.84 l -0.66,1.23 -0.06,1.59 0.9,0.81 1.08,-0.45 0.81,-1.02 0.87,0.21 0.54,0.63 -0.39,0.54 0.15,1.2 0.69,1.59 1.29,1.71 -0.18,1.26 -0.72,-0.24 -0.12,-0.81 -0.87,0.06 -1.32,1.23 -0.84,-0.12 -0.21,0.93 -1.17,0.63 -0.63,-0.9 -0.96,0.15 -0.03,1.02 z"
       id="M13121"
       style="fill:#ffff80;fill-opacity:1;stroke:#000000;stroke-width:0.225414;stroke-dasharray:none;stroke-opacity:1" />
    <path
       d="m 132.84814,43.894592 -2.01,-1.47 -1.32,-0.45 0.03,-1.05 0.57,-1.41 -0.36,-0.42 0.15,-1.26 -0.21,-0.93 0.33,-0.87 -0.99,-1.89 1.17,-0.75 0.72,-0.15 0.57,-0.93 0.66,-0.06 0.27,-0.72 0.75,-0.72 2.49,0.69 -0.18,0.81 2.22,0.12 0.09,0.72 0.84,-0.06 0.27,-2.52 0.75,0.57 0.12,0.9 0.72,0.48 0.93,0.15 0.39,-0.36 0.78,0.45 h 2.1 l 1.26,0.42 0.75,1.59 0.21,1.26 -0.48,1.32 1.41,0.27 -0.03,0.99 -0.45,1.59 -0.51,-0.48 -1.59,0.42 -0.39,0.81 -3.54,0.12 -1.02,-1.77 h -0.84 l -0.6,1.02 -1.47,-0.03 -2.13,0.84 -0.99,0.87 -1.68,0.69 z"
       id="M13120"
       style="fill:#ffff80;fill-opacity:1;stroke:#000000;stroke-width:0.225414;stroke-dasharray:none;stroke-opacity:1" />
    <path
       d="m 47.980374,112.45578 0.34,0.25 0.33,0.01 0.6,0.33 0.14,0.19 0.07,0.73 0.18,0.22 -0.1,0.16 0.08,0.46 -0.23,0.11 -0.1,-0.24 -0.6,0.23 -0.2,0.25 0.1,0.39 -0.48,-0.02 -0.1,0.43 -0.26,0.17 -0.48,0.09 -0.54,-0.53 0.08,-0.39 0.52,-0.14 0.06,-0.61 -0.23,-0.67 0.45,-0.31 -0.04,-0.48 0.06,-0.5 z"
       id="M13364"
       style="fill:#ffff80;fill-opacity:1;stroke:#000000;stroke-width:0.225414;stroke-dasharray:none;stroke-opacity:1" />
    <path
       d="m 51.640374,106.44579 0.22,0.21 0.45,0.17 0.06,0.17 -0.7,0.77 -0.28,-0.08 -0.03,-0.23 -0.25,0.01 -0.1,0.31 h -0.16 l -0.21,-0.27 0.36,-0.4 0.19,-0.01 0.24,-0.29 -0.15,-0.22 z m 3.53,-6.08 0.49,0.29 0.16,0.54 -0.26,0.28 -0.01,0.17 0.26,0.21 -0.08,0.36 -0.25,0.16 -0.39,0.63 -0.11,1.33 0.03,1.4 -0.17,0.46 -0.07,0.63 -0.58,-0.21 -0.44,-0.33 -0.18,-0.37 -0.25,-0.22 0.04,-0.67 -0.17,-0.32 0.55,-0.81 0.17,-0.47 0.09,-0.56 -0.08,-0.5 0.6,-0.51 0.08,-0.46 0.41,-0.03 0.17,-0.14 0.12,-0.39 z m 0.42,-3.02 0.54,0.34 -0.3,0.120005 z"
       fill-rule="evenodd"
       id="M13363"
       style="fill:#ffff80;fill-opacity:1;stroke:#000000;stroke-width:0.225414;stroke-dasharray:none;stroke-opacity:1" />
    <path
       d="m 54.970374,93.86579 h 0.49 l 0.32,0.22 0.12,0.27 -0.12,0.27 -0.53,0.56 -0.46,-0.06 -0.22,-0.3 0.03,-0.64 z"
       id="M13362"
       style="fill:#ffff80;fill-opacity:1;stroke:#000000;stroke-width:0.225414;stroke-dasharray:none;stroke-opacity:1" />
    <path
       d="m 59.510374,76.64579 0.3,0.17 0.29,-0.13 0.19,0.23 0.24,0.04 0.2,0.28 0.39,0.02 0.87,0.23 0.21,-0.05 0.32,0.32 0.36,0.21 0.45,0.41 0.19,0.31 0.35,1.28 0.25,0.21 v 0.4 l -0.22,0.41 0.05,0.44 0.21,0.36 -0.01,0.42 -0.2,0.15 -0.06,0.5 0.31,0.3 -0.28,0.63 0.02,0.26 -0.32,0.38 -0.4,0.01 -0.31,-0.27 -0.49,0.1 -0.75,-0.05 -0.33,-0.13 -0.86,-0.79 -0.37,-0.22 -0.71,-0.16 0.1,-0.53 -0.45,-0.57 0.03,-0.76 0.2,-0.27 -0.03,-0.53 -0.16,-0.19 -0.01,-0.27 -0.21,-0.56 -0.01,-0.45 0.16,-0.23 -0.14,-0.35 0.01,-0.49 0.15,-0.11 0.07,-0.32 0.27,-0.26 z"
       id="M13361"
       style="fill:#ffff80;fill-opacity:1;stroke:#000000;stroke-width:0.225414;stroke-dasharray:none;stroke-opacity:1" />
    <path
       d="m 147.81814,38.614592 0.03,-0.99 -1.41,-0.27 0.48,-1.32 -0.21,-1.26 -0.75,-1.59 -1.26,-0.42 h -2.1 l -0.78,-0.45 -0.39,0.36 -0.93,-0.15 -0.72,-0.48 -0.12,-0.9 -0.75,-0.57 0.51,-0.96 0.6,-0.33 0.39,-0.78 0.84,-0.51 0.18,-0.93 h 1.23 l 0.81,-0.51 h 2.61 l 1.38,0.27 1.5,-0.39 1.44,0.39 -0.99,1.62 -0.21,0.75 0.9,0.81 1.17,0.3 0.63,2.79 1.59,1.23 1.02,1.47 -0.21,1.35 -0.3,0.24 -1.44,-0.15 -1.02,1.71 -0.84,-1.05 -1.47,0.21 z"
       id="M13119"
       style="fill:#ffff80;fill-opacity:1;stroke:#000000;stroke-width:0.225414;stroke-dasharray:none;stroke-opacity:1" />
    <path
       d="m 169.11814,38.614592 -0.78,2.1 -1.32,-0.24 -2.7,0.27 -0.48,0.66 -0.75,-0.06 -1.11,-0.63 -0.57,0.12 -0.54,-0.63 -0.3,-0.3 0.09,-0.3 1.56,-0.81 -0.48,-0.69 -1.74,-0.81 -0.42,-0.72 -0.78,-0.18 0.18,-0.72 1.14,-0.21 2.16,0.24 1.74,-0.09 1.38,0.75 -0.36,1.14 0.57,0.72 1.59,0.42 1.05,-0.45 z"
       id="M13118"
       style="fill:#ffff80;fill-opacity:1;stroke:#000000;stroke-width:0.225414;stroke-dasharray:none;stroke-opacity:1" />
    <path
       d="m 160.56814,39.904592 -1.29,-0.57 -0.69,-0.69 -1.17,-0.72 -0.87,0.36 -1.23,-0.84 -0.66,0.96 -0.66,-1.02 0.3,-0.24 0.21,-1.35 -1.02,-1.47 -1.59,-1.23 -0.63,-2.79 -1.17,-0.3 -0.9,-0.81 0.21,-0.75 0.99,-1.62 1.95,1.35 2.07,0.24 0.36,0.69 1.5,-0.54 0.75,0.51 -0.09,1.41 -0.3,1.2 0.09,0.75 1.44,0.63 0.87,-0.06 1.08,-0.54 0.03,1.08 -1.47,0.96 0.18,0.63 1.26,0.33 -1.14,0.21 -0.18,0.72 0.78,0.18 0.42,0.72 1.74,0.81 0.48,0.69 -1.56,0.81 z"
       id="M13117"
       style="fill:#ffff80;fill-opacity:1;stroke:#000000;stroke-width:0.225414;stroke-dasharray:none;stroke-opacity:1" />
    <path
       d="m 147.27814,40.474592 0.09,-0.27 0.45,-1.59 1.41,-0.51 1.47,-0.21 0.84,1.05 1.02,-1.71 1.44,0.15 0.66,1.02 0.66,-0.96 1.23,0.84 0.87,-0.36 1.17,0.72 0.69,0.69 -0.57,0.45 -0.66,-0.6 -1.2,1.77 -0.87,0.54 -0.87,-0.57 -0.6,0.36 0.3,1.02 -1.02,0.45 -0.09,0.63 0.78,0.42 -2.67,-0.21 -0.18,-1.89 -1.71,0.18 -1.77,-0.3 -0.84,-1.11 z"
       id="M13116"
       style="fill:#ffff80;fill-opacity:1;stroke:#000000;stroke-width:0.225414;stroke-dasharray:none;stroke-opacity:1" />
    <path
       d="m 151.53607,133.14481 0.21,0.54 -0.16,0.3 -0.21,0.08 -0.14,-0.43 -0.2,-0.12 0.26,-0.36 z m 1.24,2.74 0.31,0.3 -0.12,0.21 0.11,0.4 -0.27,0.34 -0.25,-0.2 0.19,-0.16 -0.14,-0.84 z m 0.35,-1.41 -0.2,0.28 -0.19,-0.26 z m -1.9,-7.49 0.26,0.61 0.28,0.21 0.26,-0.05 0.23,-0.29 0.49,-0.15 0.26,0.45 -0.45,0.23 -0.29,0.23 0.21,0.58 0.51,-0.19 h 0.3 l 0.11,0.35 -0.29,0.48 0.1,0.61 0.22,0.28 0.61,0.14 0.15,-0.23 0.33,0.04 0.01,0.19 -0.43,0.14 -0.31,-0.07 0.01,0.38 -0.18,0.27 0.08,0.43 0.41,0.3 0.07,0.5 -0.01,0.75 -0.15,0.12 -0.27,-0.11 0.22,-0.33 -0.09,-0.5 -0.15,-0.11 -0.2,-0.39 -0.41,0.11 -0.06,-0.56 -0.35,0.15 -0.13,-0.49 -0.28,-0.43 -0.06,-0.32 0.21,-0.23 -0.07,-0.33 -0.33,0.06 0.19,-0.49 -0.46,-0.4 v -0.15 l -0.3,-0.29 -0.12,-0.59 -0.28,-0.41 -0.04,-0.28 z m 2.27,-24.23 0.08,0.38 -0.35,-0.02 z m 1.09,-4.069997 -0.02,0.14 0.35,0.15 -0.03,0.68 0.37,0.25 -0.1,0.379997 -0.21,0.48 -0.21,0.24 -0.23,0.03 -0.04,0.32 -0.35,-0.1 0.03,-0.26 0.27,-0.23 -0.1,-0.13 -0.06,-0.55 0.23,-0.639997 v -0.32 l -0.14,-0.3 z m 1.26,37.199997 0.25,0.16 -0.14,0.29 -0.73,0.2 v -0.19 l 0.23,-0.3 z m -1.05,-32.19 h 0.58 l 0.7,0.32 0.1,0.26 0.28,0.36 -0.09,0.23 0.52,0.5 -0.11,0.5 0.06,0.73 0.28,0.18 -0.1,0.26 -0.3,-0.3 -0.37,0.61 0.3,0.32 0.06,0.18 -0.53,-0.02 0.06,-0.25 h -0.66 l -0.1,-0.22 -0.42,-0.08 -0.2,0.21 -0.5,-0.23 0.2,-0.17 0.03,-0.41 0.28,-0.44 -0.08,-0.25 -0.35,-0.33 0.29,-0.17 0.35,0.02 0.17,0.13 0.2,-0.11 0.08,-0.46 -0.04,-0.22 -0.24,-0.07 0.1,-0.37 -0.3,-0.15 -0.32,0.19 -0.09,0.22 -0.42,-0.23 -0.04,-0.44 0.28,-0.3 z m -0.07,-2.29 0.13,0.36 0.4,0.28 0.15,0.26 0.61,-0.22 0.32,0.37 0.22,0.13 -0.03,0.43 0.15,0.14 0.34,0.02 -0.08,0.31 -0.41,-0.12 -0.32,0.13 -0.71,-0.02 -0.32,-0.12 0.27,-0.29 -0.39,-0.42 -0.4,-0.1 -0.15,-0.3 0.27,-0.22 -0.22,-0.21 z m 2.07,33.83 0.2,0.25 -0.33,0.43 -0.15,-0.15 0.03,-0.27 z m 0.56,-30.96 0.36,0.16 -0.15,0.17 z"
       fill-rule="evenodd"
       id="M13421"
       sodipodi:nodetypes="cccccccccccccccccccccccccccccccccccccccccccccccccccccccccccccccccccccccccccccccccccccccccccccccccccccccccccccccccccccccccccccccccccccccccccccccccccccccccccccccccccccccccccccccc"
       style="fill:#ffff80;fill-opacity:1;stroke:#000000;stroke-width:0.225414;stroke-dasharray:none;stroke-opacity:1" />
  </g>
  <g
     id="g3028"
     style="stroke:#000000;stroke-opacity:1">
    <path
       style="fill:none;stroke:#000000;stroke-width:1px;stroke-linecap:butt;stroke-linejoin:miter;stroke-opacity:1"
       d="M 46.451613,219.75186 273.97384,367.79666 H 628.50037"
       id="path2161"
       sodipodi:nodetypes="ccc" />
    <path
       style="fill:none;stroke:#000000;stroke-width:1px;stroke-linecap:butt;stroke-linejoin:miter;stroke-opacity:1"
       d="M 273.95841,599.11766 V 367.78986"
       id="path2163"
       sodipodi:nodetypes="cc" />
    <path
       style="fill:none;stroke:#000000;stroke-width:1px;stroke-linecap:butt;stroke-linejoin:miter;stroke-opacity:1"
       d="M 461.11082,599.11766 V 367.78986"
       id="path2163-7"
       sodipodi:nodetypes="cc"
       inkscape:label="path2164" />
  </g>
</svg>
