<?xml version="1.0" encoding="UTF-8" standalone="no"?>
<svg
   version="1.2"
   width="352.47205"
   height="600"
   viewBox="0 0 352.47205 600"
   stroke-linecap="round"
   stroke-linejoin="round"
   id="svg867"
   sodipodi:docname="yt.svg"
   inkscape:version="1.2 (dc2aedaf03, 2022-05-15)"
   xmlns:inkscape="http://www.inkscape.org/namespaces/inkscape"
   xmlns:sodipodi="http://sodipodi.sourceforge.net/DTD/sodipodi-0.dtd"
   xmlns="http://www.w3.org/2000/svg"
   xmlns:svg="http://www.w3.org/2000/svg">
  <defs
     id="defs871" />
  <sodipodi:namedview
     id="namedview869"
     pagecolor="#505050"
     bordercolor="#eeeeee"
     borderopacity="1"
     inkscape:showpageshadow="0"
     inkscape:pageopacity="0"
     inkscape:pagecheckerboard="0"
     inkscape:deskcolor="#505050"
     showgrid="false"
     inkscape:zoom="0.5917768"
     inkscape:cx="177.43176"
     inkscape:cy="300.78908"
     inkscape:window-width="1920"
     inkscape:window-height="1009"
     inkscape:window-x="-8"
     inkscape:window-y="-8"
     inkscape:window-maximized="1"
     inkscape:current-layer="svg867" />
  <g
     id="yt"
     transform="matrix(0.44044118,0,0,0.44044118,0.05955837,0.05952942)"
     style="fill:#ffff80;fill-opacity:1;stroke:#000000;stroke-width:2.27045;stroke-dasharray:none;stroke-opacity:1">
    <path
       d="m 623.7,593.92 -14.02,6.49 -4.32,16.19 -7.67,-5.85 -19.13,-6.55 -9.33,-4.76 -10.32,-14.52 -15.72,1.23 -9.86,9.69 -14.34,-4.91 -8.96,2.36 13.78,-13.6 7.54,-17.18 9.13,-2.83 10.13,-8.02 -2.02,-24.19 11.44,-5.92 8.21,-2.11 22.21,10.26 6.47,-0.55 3.77,9.96 6.39,4.16 -3.55,5.51 3.61,10.95 -1.26,7.23 3.79,8.48 12.29,0.83 z"
       id="M06341"
       style="fill:#ffff80;fill-opacity:1;stroke:#000000;stroke-width:2.27045;stroke-dasharray:none;stroke-opacity:1" />
    <path
       d="m 487.95,412.58 -11.98,7.77 6.1,13.66 -3.57,4.8 -0.42,10.74 -6.41,2.82 3.46,6.56 -4.4,12.46 -1.3,23.39 6.53,6.41 -3.87,16.6 -12.06,20.3 -7.84,-2.42 -18.62,12.38 -3.47,4.44 -10.67,-2.96 -7.1,1.28 -9.65,-5.38 -4.37,-5.9 -7.51,-1.36 -12.29,-9.75 -3.48,-12.59 -9.34,-3.66 -2.32,-7.36 -8.11,-12.44 6.53,-3.12 1.19,-12.95 5.01,-10.04 4.73,-17.34 -7.08,-4.29 -8.07,-28.31 -4.74,-8.3 2.52,-6.38 4.36,1.15 12.38,-12.19 7.42,0.34 5.67,-8.39 7.03,-1.52 -4.54,-13.8 9.11,-4.46 15.93,1.53 4.06,-3.19 9.48,11.08 10.89,6.64 4.23,-5.66 12.41,-3.24 3.03,10.67 7.02,6.12 10.01,-1.93 6.45,6.01 -0.33,10.65 z"
       id="M06367"
       style="fill:#ffff80;fill-opacity:1;stroke:#000000;stroke-width:2.27045;stroke-dasharray:none;stroke-opacity:1" />
    <path
       d="m 487.95,412.58 -7.99,-11.13 0.33,-10.65 -6.45,-6.01 -10.01,1.93 -7.02,-6.12 -3.03,-10.67 -12.41,3.24 -4.23,5.66 -10.89,-6.64 -9.48,-11.08 0.19,-9.51 -3.32,-3.96 -18.17,-6.49 3.52,-19.45 15.51,-5.23 4.77,-4.11 13.79,-0.84 13.18,5.81 17.62,-1.22 3.18,-2.12 18.52,5 13.38,20.13 6.82,4.64 14.93,-2.29 1.42,7.62 10.34,-0.2 3.39,-5.47 7.36,-0.81 14.82,6.47 0.58,8.59 -8.23,0.64 -6.73,4.82 -8.9,12.82 -5.15,1.99 -8.52,10.75 7.76,4.73 -2.33,8.48 -11.72,4.13 -23.83,3.89 z"
       id="M06366"
       style="fill:#ffff80;fill-opacity:1;stroke:#000000;stroke-width:2.27045;stroke-dasharray:none;stroke-opacity:1" />
    <path
       d="m 412.33,550.81 7.1,-1.28 10.67,2.96 3.47,-4.44 18.62,-12.38 7.84,2.42 12.06,-20.3 3.87,-16.6 -6.53,-6.41 1.3,-23.39 4.4,-12.46 4.83,2.58 4.88,-5.82 13.16,-4.37 20.04,5.71 3.93,9.2 -1.35,8.48 -2.58,6.21 4.37,4.7 -8.9,7.97 1.67,6.08 -3.86,7.03 6.81,10.55 -17.48,17.63 5.18,9.43 6.8,2.45 3.21,9.29 -2.35,10.74 -8.8,4.44 -0.68,8.18 3.77,5.67 -1.57,9.53 -4.22,16.23 -12.96,5.04 -6.64,11.47 -20.84,-2.1 -13.52,8.19 -6.73,11.43 -18.88,9.07 -1.77,9.6 -5.47,0.16 -13.31,-13.85 -11.75,-2.39 -4.07,5.7 -17.68,8.05 -10.97,-8.62 0.54,-24.96 5.4,4.77 17.4,-8.13 8.01,-8.97 3.34,-9.03 9.73,-0.88 0.83,-8.96 7.21,-5.73 3.42,-9.59 -4.31,-22.59 z"
       id="M06365"
       style="fill:#ffff80;fill-opacity:1;stroke:#000000;stroke-width:2.27045;stroke-dasharray:none;stroke-opacity:1" />
    <path
       d="m 543.2,342.61 -7.36,0.81 -3.39,5.47 -10.34,0.2 -1.42,-7.62 -14.93,2.29 -6.82,-4.64 -13.38,-20.13 -18.52,-5 -3.18,2.12 -17.62,1.22 -13.18,-5.81 -13.79,0.84 -0.9,-21.95 14.03,-13.03 -12.14,-12.62 -0.47,-15.41 3.84,-3.9 7.85,1.75 4.52,-6.69 -4.49,-9.07 6.85,-8.53 -2.25,-6.07 -9.49,-6.41 -4.58,2.35 -9.36,-3.98 4.13,-8.98 3.15,-13.98 -5.13,-13.9 12.09,-8.48 2.67,-8.33 11.44,-5.97 17.42,-7.57 18.94,-2.2 2.61,5.75 -3,16.54 15.4,4.33 4.02,3.71 13.26,-3.45 5.07,2.37 6.67,-6.05 16.18,6.18 7.13,9.27 11.8,4.2 5.75,-10.63 0.08,-5.8 6.54,-3.13 11.84,8.19 12.41,1.34 1.88,13.83 7.61,12.81 14.09,4.12 14.29,1.15 12.99,-1.73 4.25,9.11 5.63,1.57 4.11,8.03 1.78,12.23 -2.97,12.07 -15.3,11.59 -8.04,-14.24 -9.27,-1.46 -8.17,-7.86 -25.8,-5.55 -9.66,7.87 -17.32,-0.2 -8.18,6.37 -5.23,8.43 -7.68,6.41 -2.16,12.83 5.42,7.5 -10.15,33.44 3.25,5.47 6.04,19.25 z"
       id="M06364"
       style="fill:#ffff80;fill-opacity:1;stroke:#000000;stroke-width:2.27045;stroke-dasharray:none;stroke-opacity:1" />
    <path
       d="m 560.03,521.55 -11.44,5.92 2.02,24.19 -10.13,8.02 -9.13,2.83 -7.54,17.18 -13.78,13.6 -3.82,1.32 1.57,-9.53 -3.77,-5.67 0.68,-8.18 8.8,-4.44 2.35,-10.74 -3.21,-9.29 -6.8,-2.45 -5.18,-9.43 17.48,-17.63 -6.81,-10.55 3.86,-7.03 -1.67,-6.08 8.9,-7.97 -4.37,-4.7 2.58,-6.21 4.55,-2.22 10,1.67 5.84,-5.33 9.45,3.24 7.62,-7.91 0.48,-4.82 9.8,-7.24 16.44,-5.55 7.33,-13.01 7.03,-4.43 11.18,0.99 2.99,-5.01 11.19,9.65 11.79,-0.86 18.49,2.17 9.33,17.22 -25.02,15.81 -17.4,0.96 -12.97,8.39 -6.27,8.37 -12.7,-3.22 -22.71,9.2 -9.08,0.77 5.35,12.96 z"
       id="M06363"
       style="fill:#ffff80;fill-opacity:1;stroke:#000000;stroke-width:2.27045;stroke-dasharray:none;stroke-opacity:1" />
    <path
       d="m 664.13,453.27 -9.33,-17.22 -18.49,-2.17 -11.79,0.86 -11.19,-9.65 17.28,-23.59 3.76,-1.18 4.89,-15.54 -4.67,-7.17 7.68,-15.36 5.04,-1.45 10.51,-19.74 6.18,-2.71 11.72,-12.4 7.09,-3.81 -0.64,-14.82 6.95,-18.67 7.87,3.77 7.66,-5.03 7.35,2.7 6.86,-3.03 8.8,10.03 0.01,8.08 -6.44,9.1 1.84,9.34 8.44,2.02 4.42,11.02 7.34,0.42 15.48,9.97 5.65,9.34 0.62,7.95 -2.65,14.08 5.62,17.13 17.27,9.11 6.8,-3.29 6.94,7.33 -7.3,6.81 -3.62,13.93 -6,5.03 -1.55,9.38 -10,9.48 -0.03,16.67 6.76,2.6 5.84,11.85 -4.01,13.62 -9.27,16.15 -2.92,13.77 -8.72,6.27 -14.83,-4.06 -4.81,-9.11 -11.71,-1.5 1.87,-10.67 -1.47,-9.08 -5.55,-13.32 -10.17,-7.74 -9.97,3.03 -4.62,-6.14 -7.04,-0.45 -2.99,5.46 -14.31,-5.05 0.25,-5.74 -7.67,-9.07 z"
       id="M06362"
       style="fill:#ffff80;fill-opacity:1;stroke:#000000;stroke-width:2.27045;stroke-dasharray:none;stroke-opacity:1" />
    <path
       d="m 544.56,335.25 -6.04,-19.25 -3.25,-5.47 10.15,-33.44 -5.42,-7.5 2.16,-12.83 7.68,-6.41 5.23,-8.43 8.18,-6.37 17.32,0.2 9.66,-7.87 25.8,5.55 8.17,7.86 9.27,1.46 8.04,14.24 15.3,-11.59 6.3,10.87 2.46,12.56 13.1,5.27 8.97,7.61 0.02,3.96 -3.99,-0.5 -31.31,22.54 -12.01,13.11 -5.15,-2.14 -11.53,2.37 -0.29,5.5 -11.58,11.16 -8.16,2.75 -5.71,-2.48 -10.36,1.93 -6.11,-3.15 -17.62,-2.18 -4.8,3.89 z"
       id="M06361"
       style="fill:#ffff80;fill-opacity:1;stroke:#000000;stroke-width:2.27045;stroke-dasharray:none;stroke-opacity:1" />
    <path
       d="m 553.76,800.37 3.82,3.54 -4.62,3.46 -0.63,12.65 -5.6,7.03 -9.37,3.65 -3.19,-5.78 -9.63,1.38 -21.41,9.3 -8.13,-0.19 -4.45,-8.3 -5.12,-2.54 -5.88,-9.15 2.6,-4.7 7.92,4.41 2.95,-11.75 5.99,-3.74 22.08,-7.03 0.54,-0.64 7.03,-1 -1.08,9.51 9,2.8 6.48,-2.78 0.92,-8.32 9.4,3.29 z"
       id="M06302"
       style="fill:#ffff80;fill-opacity:1;stroke:#000000;stroke-width:2.27045;stroke-dasharray:none;stroke-opacity:1" />
    <path
       d="m 479.55,815.42 5.88,9.15 5.12,2.54 4.45,8.3 8.13,0.19 21.41,-9.3 9.63,-1.38 3.19,5.78 3,6.08 -2.28,8.1 -6.59,7.76 0.33,10.17 -17.86,8.14 -11.05,-3.3 -6.2,2.18 -5.23,-3.9 -8.25,-0.01 3.07,9.72 -4.63,10.21 5.45,3.75 -4.29,13.45 -7.74,-3.1 -6.31,4.03 -6.58,8.69 -5.02,0.55 -2.48,-15.59 -11.78,-2.75 0.35,-12.48 12.16,-25.21 17.42,-7.99 -4.1,-21.35 7.14,-11.41 z"
       id="M06301"
       style="fill:#ffff80;fill-opacity:1;stroke:#000000;stroke-width:2.27045;stroke-dasharray:none;stroke-opacity:1" />
    <path
       d="m 493.02,803.38 -2.95,11.75 -7.92,-4.41 -2.6,4.7 -3.66,1.02 -12.33,2.84 4.48,-13.66 -1.47,-5.53 8.17,-2.84 -18.64,-8.39 -14.86,-2.6 -6.85,7.4 -5.52,-1.48 -20.62,7.99 -1.83,4.89 -16.32,23.04 -8.85,-7.3 -10.2,2.92 -9.87,14.97 -8.02,4.33 -4.94,-11.45 -5.17,-2.75 -12.23,18.44 -13.05,5.84 -6.52,14.45 -9.83,3.31 -8.96,-4.25 0.46,-9.74 4.28,-8.65 2.13,-13.09 23.29,-12.44 1.08,-6.87 12.73,-4.14 3.19,-3.86 -2.69,-12.8 3.66,-21.15 -4.57,-5.61 5.84,-17.99 4.52,-3.83 13.94,6.48 6.86,9.8 9.9,4.93 5.93,-13.12 13.22,-10.36 12.01,-0.74 7.95,5.11 17.24,-5.51 7.26,5.33 9.25,-1.31 13.16,3.23 6.78,7.96 12.35,-1.65 7.7,5.43 -6.28,10.01 6.1,6.82 5.44,10.88 z"
       id="M06324"
       style="fill:#ffff80;fill-opacity:1;stroke:#000000;stroke-width:2.27045;stroke-dasharray:none;stroke-opacity:1" />
    <path
       d="m 475.89,816.44 -7.14,11.41 4.1,21.35 -17.42,7.99 -12.16,25.21 -0.35,12.48 -6.31,-9.87 -14,-3.25 -8.75,8.54 -5.25,-3.39 -7.93,5.05 -6.15,-3.91 -10.83,-15.52 -6.2,1.1 -9.83,9.22 -4.87,10.28 -8.09,-2.92 -13.54,4.37 -3.98,13.49 -4.8,3.1 -8.42,24.52 2.92,9.58 -10.98,7.48 -14.2,-17.35 1.89,-4.76 -14.28,-4.63 3.24,-11.09 -0.77,-8.86 -8.81,-3.34 -11.11,-11.31 3.52,-15.14 17.07,-9.66 8.96,4.25 9.83,-3.31 6.52,-14.45 13.05,-5.84 12.23,-18.44 5.17,2.75 4.94,11.45 8.02,-4.33 9.87,-14.97 10.2,-2.92 8.85,7.3 16.32,-23.04 1.83,-4.89 20.62,-7.99 5.52,1.48 6.85,-7.4 14.86,2.6 18.64,8.39 -8.17,2.84 1.47,5.53 -4.48,13.66 z"
       id="M06323"
       style="fill:#ffff80;fill-opacity:1;stroke:#000000;stroke-width:2.27045;stroke-dasharray:none;stroke-opacity:1" />
    <path
       d="m 357.94,627.63 -0.54,24.96 10.97,8.62 17.68,-8.05 4.07,-5.7 11.75,2.39 13.31,13.85 5.47,-0.16 1.77,-9.6 18.88,-9.07 16.92,17.15 10.05,17.96 -4.32,4.59 -1.77,9.02 3.88,8.8 v 9.58 l 10.85,6.47 -5.3,21.29 4.56,3.89 -13.07,6.66 -13.16,-3.23 -9.25,1.31 -7.26,-5.33 -17.24,5.51 -7.95,-5.11 -12.01,0.74 -13.22,10.36 -5.93,13.12 -9.9,-4.93 -6.86,-9.8 -13.94,-6.48 -4.52,3.83 -5.84,17.99 4.57,5.61 -3.66,21.15 2.69,12.8 -3.19,3.86 -12.73,4.14 -1.08,6.87 -23.29,12.44 -2.13,13.09 -4.28,8.65 -0.46,9.74 -17.07,9.66 -7.29,-8.93 -8.27,-2.95 -0.73,-15.96 -7.49,-7.19 -6.64,-2.27 -3.26,-12.28 5.86,-8.72 8.81,-4.3 5.65,-8.29 -0.45,-7.74 10.87,-17.02 -5.33,-11.28 8.14,-13.25 -4.89,-15.98 2.84,-7.37 6.22,-1.34 5.37,-12.22 -0.74,-13.44 -5.99,-1.65 4.39,-17.55 -3.64,-9.84 11.43,-9.44 -5.24,-4.21 -0.25,-9.25 9.35,-1.85 5.01,-8.28 18.62,-10.49 6.32,-7.28 10.28,-6.23 16.7,-5.04 z"
       id="M06322"
       style="fill:#ffff80;fill-opacity:1;stroke:#000000;stroke-width:2.27045;stroke-dasharray:none;stroke-opacity:1" />
    <path
       d="m 581.91,698.97 -5.75,6.39 0.75,12.37 5.06,4.32 -6.46,10.52 3.03,12.11 -5.67,5.11 -8.21,22.98 -1.76,-5.02 -9.41,-2.17 -12.04,-10.49 -4.95,-16.15 -10.69,1.63 1.57,-6.67 -6.68,-7.3 -4.85,-23.53 6.45,-12.67 -6.41,-6.82 7.41,-1.36 17.32,3.9 6.08,4.71 15.08,6.25 z"
       id="M06321"
       style="fill:#ffff80;fill-opacity:1;stroke:#000000;stroke-width:2.27045;stroke-dasharray:none;stroke-opacity:1" />
    <path
       d="m 383.09,1057.84 -0.56,8.64 8.44,8.69 13.39,0.83 -0.18,8.73 6.1,9.23 6.33,-1.17 6.68,3.8 5.6,13.78 -8.46,9.85 -8.42,16.92 0.65,2.99 -4.87,5.15 -9.26,-6.77 -17.78,7.99 -11.07,12.28 4.09,6.95 -8.03,7.38 -9.03,-0.64 -1.83,8.03 2.15,10.19 -8.58,4.92 -7.45,12.95 -4.41,2.8 -19.01,1.74 1.79,6.17 -5.8,4.78 -10.36,1.77 -7.54,6.4 -7.77,-9.63 -1.68,-16.41 7.13,-2.65 -2.69,-16 -13.71,-6.84 0.29,-9.56 11.14,-5.41 9.21,-0.04 -0.21,-10.22 8.86,-10.5 -1.25,-15.3 9.95,-18.29 9.8,0.05 8.2,-3.56 8.25,1.52 16.93,-14.92 -4.59,-15.83 9.67,-6.82 9.01,0.22 6.58,-15.29 z"
       id="M06382"
       style="fill:#ffff80;fill-opacity:1;stroke:#000000;stroke-width:2.27045;stroke-dasharray:none;stroke-opacity:1" />
    <path
       d="m 412.66,1140.13 -0.65,-2.99 8.42,-16.92 8.46,-9.85 -5.6,-13.78 1.98,0.04 1.01,-0.31 3.58,-1.88 15.59,5.35 17.31,-19.93 9.84,3.24 12.9,-5.19 -7.56,-4.9 -1.75,-6.17 5.49,-4.77 0.82,-7.07 6,-6.59 12.27,-6.45 10.41,0.89 9.74,8.43 5.6,12 5.72,2.84 3.45,11.04 -4.3,7.47 0.48,6.79 9.36,19.68 -9.15,11.84 -1.35,9.45 3.37,5.19 -6.03,10.59 5.79,30.15 -5.16,12.51 -3.66,2.26 -3.62,-4.59 -11.25,4.99 -11.55,0.47 -5.21,7.34 -1.05,7.03 -7.11,4.39 -12.64,-4.13 0.72,-6.69 -5.88,-11.98 -0.1,-11.02 -16.44,-5.45 1.35,-4.07 -4.34,-17.57 -5.83,-1.7 -10.29,-8.99 z"
       id="M06381"
       style="fill:#ffff80;fill-opacity:1;stroke:#000000;stroke-width:2.27045;stroke-dasharray:none;stroke-opacity:1" />
    <path
       d="m 377.23,108.5 -1.78,9.42 -14.36,12.51 -1.91,10.08 0.76,11.28 -5.59,1.55 -13.31,33.68 -18.27,1.79 -17.17,9.42 -11.35,3.11 -6.3,5.14 -11.39,1.51 -3.78,-3.2 -12.95,-2.02 -2.58,-6.38 -14.43,-2.6 -6.06,9.36 -0.69,10.2 -7.13,3.84 -12.21,-8.49 19.39,-62.29 4.61,-33.29 4.27,-8.18 -1.19,-7.98 -5.87,-12.07 26.32,-0.53 28.61,5.58 1.73,-4.03 33.51,10.84 2.31,-9.61 7.31,-6.7 39.26,-9.6 -0.49,18.58 4.11,12.66 z"
       id="M06461"
       style="fill:#ffff80;fill-opacity:1;stroke:#000000;stroke-width:2.27045;stroke-dasharray:none;stroke-opacity:1" />
    <path
       d="m 457.18,913.22 5.02,-0.55 3.92,0.65 5.32,11.23 -0.13,13.46 6.65,11.97 -2.46,13.21 5.59,3.61 -2.91,11.91 5.58,7.95 -2.62,5.08 -16.91,3.58 1.73,7.99 10.27,10.08 7.9,2.79 1.91,10.94 7.61,0.23 10.4,4.18 -3.28,10.43 -12.27,6.45 -6,6.59 -0.82,7.07 -5.49,4.77 1.75,6.17 7.56,4.9 -12.9,5.19 -9.84,-3.24 -17.31,19.93 -15.59,-5.35 -3.58,1.88 -1.01,0.31 -1.98,-0.04 -6.68,-3.8 -6.33,1.17 -6.1,-9.23 0.18,-8.73 -13.39,-0.83 -8.44,-8.69 0.56,-8.64 13.03,-12.74 5.89,-10.68 -0.11,-6.35 8.73,-13.85 -2.44,-9.44 3.32,-5.58 5.39,-5.52 8.62,-1.68 -2.31,-8.24 5.97,-12.4 9.13,-12.02 4.66,-16.6 5.7,-7.64 z"
       id="M06213"
       style="fill:#ffff80;fill-opacity:1;stroke:#000000;stroke-width:2.27045;stroke-dasharray:none;stroke-opacity:1" />
    <path
       d="m 623.7,593.92 -1.74,-17.65 -12.29,-0.83 -3.79,-8.48 1.26,-7.23 -3.61,-10.95 3.55,-5.51 -6.39,-4.16 -3.77,-9.96 -6.47,0.55 -22.21,-10.26 -8.21,2.11 3.3,-15.04 -5.35,-12.96 9.08,-0.77 22.71,-9.2 12.7,3.22 6.27,-8.37 12.97,-8.39 17.4,-0.96 25.02,-15.81 1.03,7.54 7.67,9.07 -0.25,5.74 14.31,5.05 2.99,-5.46 7.04,0.45 4.62,6.14 9.97,-3.03 10.17,7.74 5.55,13.32 1.47,9.08 -1.87,10.67 -6.42,14.65 10.53,18.94 7.27,7.8 -2.78,6.72 8.02,3.16 1.05,12.89 5.52,11.26 -8.67,7.86 2.32,4.05 -3.69,8.6 -7.7,4.71 6.1,12.98 6.81,0.98 -6.13,13.84 7.38,14.51 17.31,6.96 7.59,17.11 -1.35,5.1 4.54,9.77 -2.14,5.77 -8.56,9.14 -8.39,-3.69 -5.93,-11.05 -7.88,2.21 -9.44,-8.3 -10.42,-1.6 -7.01,3.29 -10.17,-23.9 -17.4,-2.91 -13.1,4.78 -8.68,-5.64 v -14.58 l -7.47,-6.65 -10.91,-4.53 -4.2,-8.28 4.35,-10.02 0.89,-14.78 -6.03,-7.02 z"
       id="M06212"
       style="fill:#ffff80;fill-opacity:1;stroke:#000000;stroke-width:2.27045;stroke-dasharray:none;stroke-opacity:1" />
    <path
       d="m 572.87,749.79 5.67,-5.11 -3.03,-12.11 6.46,-10.52 -5.06,-4.32 -0.75,-12.37 5.75,-6.39 9.82,-7.15 -4.39,-7.03 20.97,-1.32 0.35,2.6 20.56,1.66 15.05,-2.35 4.97,-3.69 2.91,-8.61 13.26,-3.51 8.68,5.64 13.1,-4.78 17.4,2.91 10.17,23.9 7.01,-3.29 10.42,1.6 9.44,8.3 7.88,-2.21 5.93,11.05 -5.66,18.6 -4.53,4.79 1.8,17.02 2.67,3.44 -7.7,7.02 -2.8,7.27 -8.02,0.84 -5.19,11.47 -8.42,1.83 -8.72,11.44 -4.86,-2.14 -10.28,-1.24 -16.19,-13.6 -5.29,-0.92 -4.23,-7.73 -21.32,-17.95 -0.51,-5.76 -6.91,-1.33 -14.44,5.23 -2.06,3.56 -20.94,-1.67 -5.49,-4.37 -11.94,4.86 z"
       id="M06211"
       style="fill:#ffff80;fill-opacity:1;stroke:#000000;stroke-width:2.27045;stroke-dasharray:none;stroke-opacity:1" />
    <path
       d="m 557.58,803.91 -3.82,-3.54 1.7,-12.73 6,-5.47 3.2,-9.4 8.21,-22.98 11.54,3.56 11.94,-4.86 5.49,4.37 20.94,1.67 2.06,-3.56 14.44,-5.23 6.91,1.33 0.51,5.76 21.32,17.95 4.23,7.73 5.29,0.92 16.19,13.6 10.28,1.24 -7,4.81 -16.36,3.61 -8.78,5.49 -16.93,-1.65 -4.87,11.92 -10.75,6.22 -5.2,5.98 -6.09,-5.31 -3.66,4.82 -8.05,0.19 -23.52,-5.95 -8.25,-3.81 -12.82,-1.63 -5.13,-11.42 z"
       id="M06210"
       style="fill:#ffff80;fill-opacity:1;stroke:#000000;stroke-width:2.27045;stroke-dasharray:none;stroke-opacity:1" />
    <path
       d="m 271.87,891.41 11.11,11.31 8.81,3.34 0.77,8.86 -3.24,11.09 14.28,4.63 -1.89,4.76 14.2,17.35 10.76,-0.18 15.88,4.52 18.9,14.52 8.38,3.79 -1.21,8.98 12.73,7.6 6.04,0.6 10.19,6.47 4.79,-8.34 9.14,8.49 -3.32,5.58 2.44,9.44 -8.73,13.85 0.11,6.35 -5.89,10.68 -13.03,12.74 -4.3,-1.1 -6.58,15.29 -9.01,-0.22 -9.67,6.82 -6.33,-10.17 2.27,-15.01 -7.17,-1.28 0.79,-7.24 -11.86,-4.3 -10.19,-6.3 -21.9,4.7 -17.6,-13.66 -16.64,0.83 -6.09,-6.93 -8.07,-27.37 5.59,-8.97 -7.24,-7.31 -4.35,-13.02 1.21,-16.39 -2.45,-11.81 10.12,-12.07 5.64,-3.51 2.13,-16.83 z"
       id="M06209"
       style="fill:#ffff80;fill-opacity:1;stroke:#000000;stroke-width:2.27045;stroke-dasharray:none;stroke-opacity:1" />
    <path
       d="m 510.03,593.29 8.96,-2.36 14.34,4.91 9.86,-9.69 15.72,-1.23 10.32,14.52 9.33,4.76 19.13,6.55 7.67,5.85 4.32,-16.19 14.02,-6.49 18.34,9.79 6.03,7.02 -0.89,14.78 -4.35,10.02 4.2,8.28 10.91,4.53 7.47,6.65 v 14.58 l -13.26,3.51 -2.91,8.61 -4.97,3.69 -15.05,2.35 -20.56,-1.66 -0.35,-2.6 -20.97,1.32 4.39,7.03 -9.82,7.15 -20.13,-1.89 -15.08,-6.25 -6.08,-4.71 -17.32,-3.9 -7.41,1.36 -4.63,-3.99 -1.21,-15.09 -4.95,-9.36 -1.89,-12.63 -11.7,-4.64 -9.12,-10.52 6.64,-11.47 12.96,-5.04 4.22,-16.23 z"
       id="M06208"
       style="fill:#ffff80;fill-opacity:1;stroke:#000000;stroke-width:2.27045;stroke-dasharray:none;stroke-opacity:1" />
    <path
       d="m 234.09,353.36 3.85,2.42 -5.91,8.93 4.02,2.95 6.88,17.4 8.66,3.45 0.24,4.82 -6.42,14.55 -7.52,9.27 -1.69,10.2 -8.44,0.07 -4.94,-4.29 3.71,-8.88 -6.08,-10.64 -1.38,-7.1 -23.54,-2.44 5.95,-7.26 4.15,-15.16 -0.85,-7.26 -6.15,-3.78 -0.38,-15.78 23.38,12.91 z"
       id="M06426"
       style="fill:#ffff80;fill-opacity:1;stroke:#000000;stroke-width:2.27045;stroke-dasharray:none;stroke-opacity:1" />
    <path
       d="m 532.24,1066.12 -5.72,-2.84 -5.6,-12 -9.74,-8.43 -10.41,-0.89 3.28,-10.43 -10.4,-4.18 -7.61,-0.23 -1.91,-10.94 -7.9,-2.79 -10.27,-10.08 -1.73,-7.99 16.91,-3.58 2.62,-5.08 -5.58,-7.95 2.91,-11.91 -5.59,-3.61 2.46,-13.21 -6.65,-11.97 0.13,-13.46 -5.32,-11.23 8.01,-1.57 2.94,6.47 7.28,6.08 14.61,-1.38 6.85,1.51 1.54,8.62 4.89,6.1 -2.72,5.24 3.11,9.25 7.96,4.66 15.01,-12.65 2.9,7.92 13.79,-9.56 6.94,4.39 -1.8,9.55 7.71,3.34 17.29,3.29 14.81,7.72 13.43,-4.82 8.16,9.94 16.66,4.42 11.44,-2.02 7.23,6.06 -3.48,12.67 -7.26,2.71 -9.85,21.97 2.36,16.2 -2.16,4.52 -15.26,10.07 -10.22,4.59 -5.36,6.34 -13.96,-0.95 -7.98,4.68 -21.37,-4.6 -7.6,4.01 -11.12,-4.88 z"
       id="M06207"
       style="fill:#ffff80;fill-opacity:1;stroke:#000000;stroke-width:2.27045;stroke-dasharray:none;stroke-opacity:1" />
    <path
       d="m 441.3,644.87 6.73,-11.43 13.52,-8.19 20.84,2.1 9.12,10.52 11.7,4.64 1.89,12.63 4.95,9.36 1.21,15.09 4.63,3.99 6.41,6.82 -6.45,12.67 4.85,23.53 6.68,7.3 -1.57,6.67 10.69,-1.63 4.95,16.15 12.04,10.49 9.41,2.17 1.76,5.02 -3.2,9.4 -6,5.47 -1.7,12.73 -0.38,-4.9 -9.4,-3.29 -0.92,8.32 -6.48,2.78 -9,-2.8 1.08,-9.51 -7.03,1 -0.54,0.64 -22.08,7.03 -5.99,3.74 2.17,-13.65 -5.44,-10.88 -6.1,-6.82 6.28,-10.01 -7.7,-5.43 -12.35,1.65 -6.78,-7.96 13.07,-6.66 -4.56,-3.89 5.3,-21.29 -10.85,-6.47 v -9.58 l -3.88,-8.8 1.77,-9.02 4.32,-4.59 -10.05,-17.96 z"
       id="M06206"
       style="fill:#ffff80;fill-opacity:1;stroke:#000000;stroke-width:2.27045;stroke-dasharray:none;stroke-opacity:1" />
    <path
       d="m 475.13,458.93 -3.46,-6.56 6.41,-2.82 0.42,-10.74 3.57,-4.8 -6.1,-13.66 11.98,-7.77 3,-2.66 23.83,-3.89 11.72,-4.13 2.33,-8.48 -7.76,-4.73 8.52,-10.75 5.15,-1.99 8.9,-12.82 6.73,-4.82 8.23,-0.64 -0.58,-8.59 -14.82,-6.47 1.36,-7.36 14.48,3.22 4.8,-3.89 17.62,2.18 6.11,3.15 10.36,-1.93 5.71,2.48 8.16,-2.75 11.58,-11.16 0.29,-5.5 11.53,-2.37 5.15,2.14 12.01,-13.11 31.31,-22.54 3.99,0.5 1.46,2.98 -6.95,18.67 0.64,14.82 -7.09,3.81 -11.72,12.4 -6.18,2.71 -10.51,19.74 -5.04,1.45 -7.68,15.36 4.67,7.17 -4.89,15.54 -3.76,1.18 -17.28,23.59 -2.99,5.01 -11.18,-0.99 -7.03,4.43 -7.33,13.01 -16.44,5.55 -9.8,7.24 -0.48,4.82 -7.62,7.91 -9.45,-3.24 -5.84,5.33 -10,-1.67 -4.55,2.22 1.35,-8.48 -3.93,-9.2 -20.04,-5.71 -13.16,4.37 -4.88,5.82 z"
       id="M06205"
       style="fill:#ffff80;fill-opacity:1;stroke:#000000;stroke-width:2.27045;stroke-dasharray:none;stroke-opacity:1" />
    <path
       d="m 416.77,361.11 -4.06,3.19 -15.93,-1.53 -9.11,4.46 4.54,13.8 -7.03,1.52 -5.67,8.39 -7.42,-0.34 -12.38,12.19 -4.36,-1.15 -3.23,-10.32 -6.34,-5.05 -16.53,0.35 -1.89,-12.28 -10.13,-9.03 -8.91,0.32 1.11,-11.73 -12.47,-5.1 -5.75,-6.45 3.44,-3.74 -5.48,-10.5 3.34,-7.82 -5.56,-7.7 -25.17,-10.51 2.09,7.66 -3.85,6.23 -11.47,3.61 -0.72,15.8 -6.37,-1.68 -5.88,-7.36 -12.7,-4.91 -0.07,5.85 6.61,3.87 -0.71,6.79 5.38,15.42 -12.46,4.38 -23.38,-12.91 0.38,15.78 6.15,3.78 -0.18,5.78 -21.82,-2.65 -4.21,9.44 -13.56,-0.1 -4.94,3.36 11.29,-29.75 11.17,-35.73 7.76,-29.24 4.8,-24.88 5.42,-12.8 8.44,-13.91 -7.63,-2.37 5.14,-13.32 4.88,1.22 5.39,-10.74 12.21,8.49 7.13,-3.84 0.69,-10.2 6.06,-9.36 14.43,2.6 2.58,6.38 12.95,2.02 3.78,3.2 11.39,-1.51 6.3,-5.14 11.35,-3.11 17.17,-9.42 18.27,-1.79 13.31,-33.68 5.59,-1.55 -0.76,-11.28 1.91,-10.08 14.36,-12.51 1.78,-9.42 7.98,5.6 21.1,3.51 8.79,4.94 1.42,8.89 9.37,4.86 10.15,1.54 4.99,11.32 -11.44,5.97 -2.67,8.33 -12.09,8.48 5.13,13.9 -3.15,13.98 -4.13,8.98 9.36,3.98 4.58,-2.35 9.49,6.41 2.25,6.07 -6.85,8.53 4.49,9.07 -4.52,6.69 -7.85,-1.75 -3.84,3.9 0.47,15.41 12.14,12.62 -14.03,13.03 0.9,21.95 -4.77,4.11 -15.51,5.23 -3.52,19.45 18.17,6.49 3.32,3.96 z M 7.62,1 17.8,10.01 10.06,14.89 1.45,25.27 1,13.41 Z"
       fill-rule="evenodd"
       id="M06204"
       style="fill:#ffff80;fill-opacity:1;stroke:#000000;stroke-width:2.27045;stroke-dasharray:none;stroke-opacity:1" />
    <path
       d="m 351.04,614.63 -16.7,5.04 -10.28,6.23 -6.32,7.28 -18.62,10.49 -5.01,8.28 -9.35,1.85 0.25,9.25 5.24,4.21 -11.43,9.44 3.64,9.84 -4.39,17.55 5.99,1.65 0.74,13.44 -5.37,12.22 -6.22,1.34 -2.84,7.37 4.89,15.98 -8.14,13.25 5.33,11.28 -10.87,17.02 0.45,7.74 -5.65,8.29 -8.81,4.3 -5.86,8.72 -6.86,-8.28 -12.7,-9.95 0.47,-5.73 -15.27,-2.03 -7.76,-10.13 -9.33,0.87 -10.06,5.85 -4.12,-3.92 -9.55,0.06 -6.56,-7.51 -6.75,1.92 -14.02,-11.46 -1.27,-9.24 -6.54,-11.59 -7.03,6.53 -5.43,-6.1 0.78,-12.92 8.06,-12.36 -0.39,-10.27 2.62,-17.11 -5.85,-19.4 9.91,-13.68 -3.64,-9.03 -13.79,-4.85 -6.29,-4.82 -7.24,1.72 -15.07,-3.22 -6.47,1.37 -9.06,-3.57 -6.59,-10.1 -12.64,-4.13 -10.43,3.72 -2.87,-4.24 -28.08,-17.01 -9.21,-10.14 1.43,-5.75 8.47,-12.02 4.63,-18.22 4.44,-4.05 18.75,-38.69 -0.54,-4.08 10.71,-21.87 7.93,-8.31 4.31,-8.31 5.88,2.59 18.33,-18.17 1.39,-6.88 6.04,-6.54 7.42,1.12 12.7,-12.59 -1.52,-2.76 7.95,-14.82 18.64,-16.79 9.35,-6.37 11.08,-23.21 4.94,-3.36 13.56,0.1 4.21,-9.44 21.82,2.65 0.18,-5.78 0.85,7.26 -4.15,15.16 -5.95,7.26 23.54,2.44 1.38,7.1 6.08,10.64 -3.71,8.88 4.94,4.29 8.44,-0.07 1.69,-10.2 7.52,-9.27 6.42,-14.55 -0.24,-4.82 -8.66,-3.45 -6.88,-17.4 -4.02,-2.95 5.91,-8.93 3.66,5.24 15.35,4 2.25,7.2 13.07,9.71 2.28,9.76 4.92,0.76 15.61,20.66 -2.67,9.86 10.43,3.71 10.94,-3.18 14.09,5.77 1.31,15.07 2.72,5.88 -9.62,15.87 2.2,20.4 -4.24,20.96 3.01,10.46 6.16,12.13 -5.38,20.2 2.31,10.62 5.86,7.66 13.72,6.84 2.31,15.57 5.62,12.34 z"
       id="M06203"
       style="fill:#ffff80;fill-opacity:1;stroke:#000000;stroke-width:2.27045;stroke-dasharray:none;stroke-opacity:1" />
    <path
       d="m 295.67,1232.22 7.54,-6.4 10.36,-1.77 5.8,-4.78 -1.79,-6.17 19.01,-1.74 4.41,-2.8 7.45,-12.95 8.58,-4.92 -2.15,-10.19 1.83,-8.03 9.03,0.64 8.03,-7.38 -4.09,-6.95 11.07,-12.28 17.78,-7.99 9.26,6.77 4.87,-5.15 19.14,0.99 10.29,8.99 5.83,1.7 4.34,17.57 -1.35,4.07 16.44,5.45 0.1,11.02 5.88,11.98 -0.72,6.69 12.64,4.13 7.11,-4.39 1.05,-7.03 5.21,-7.34 11.55,-0.47 11.25,-4.99 3.62,4.59 -1.85,5.03 1.8,14.06 -1.53,9.6 3.61,10.92 -3.11,10.75 1.21,13.6 -3.75,12.12 4.82,9.44 15.74,8.22 5.94,6.67 -11.98,8.75 -4.28,15.04 -7.31,2.37 -8.1,13.3 -7.64,5.67 -6.4,11.44 -22.48,-1.65 -3.46,-4.67 -15.41,-3.37 -12.06,-0.2 -11.23,3.65 -4.28,12.14 -9.18,5.03 -18.12,-3.37 -11.19,-18.62 -12.82,0.09 -3.2,-9.04 -11.65,-10.28 -7.93,10.11 -19.69,3.65 -5.95,4.19 -11.19,-0.92 -6.11,-5.33 0.52,-6.86 -8.3,-9.19 -5.14,-10.82 1.43,-9.28 -3.04,-8.28 -12.31,-6.29 -2.61,-5.9 -1.68,-14.94 2.79,-20.21 z"
       id="M06202"
       style="fill:#ffff80;fill-opacity:1;stroke:#000000;stroke-width:2.27045;stroke-dasharray:none;stroke-opacity:1" />
    <path
       d="m 537.36,830.7 9.37,-3.65 5.6,-7.03 0.63,-12.65 4.62,-3.46 9.02,3.63 5.13,11.42 12.82,1.63 8.25,3.81 23.52,5.95 8.05,-0.19 3.66,-4.82 6.09,5.31 5.2,-5.98 10.75,-6.22 4.87,-11.92 16.93,1.65 8.78,-5.49 16.36,-3.61 7,-4.81 4.86,2.14 2.49,15.63 4.01,6.89 -7.5,14.44 -11.53,-4.26 -2.61,9.51 -5.86,1.03 -0.04,9.13 3.19,8.85 -6.55,7.95 -10.74,2.47 -0.34,18.02 -2.41,8.55 0.1,13.42 3.57,3.54 -2.41,9.11 4.59,12.67 2.06,17.13 -7.59,10.56 -1.43,12.55 -11.31,5.43 -4.4,6.85 -7.23,-6.06 -11.44,2.02 -16.66,-4.42 -8.16,-9.94 -13.43,4.82 -14.81,-7.72 -17.29,-3.29 -7.71,-3.34 1.8,-9.55 -6.94,-4.39 -13.79,9.56 -2.9,-7.92 -15.01,12.65 -7.96,-4.66 -3.11,-9.25 2.72,-5.24 -4.89,-6.1 -1.54,-8.62 -6.85,-1.51 -14.61,1.38 -7.28,-6.08 -2.94,-6.47 -8.01,1.57 -3.92,-0.65 6.58,-8.69 6.31,-4.03 7.74,3.1 4.29,-13.45 -5.45,-3.75 4.63,-10.21 -3.07,-9.72 8.25,0.01 5.23,3.9 6.2,-2.18 11.05,3.3 17.86,-8.14 -0.33,-10.17 6.59,-7.76 2.28,-8.1 z"
       id="M06201"
       style="fill:#ffff80;fill-opacity:1;stroke:#000000;stroke-width:2.27045;stroke-dasharray:none;stroke-opacity:1" />
    <path
       d="m 355.35,401.64 -2.52,6.38 4.74,8.3 8.07,28.31 7.08,4.29 -4.73,17.34 -5.01,10.04 -1.19,12.95 -6.53,3.12 8.11,12.44 2.32,7.36 9.34,3.66 3.48,12.59 12.29,9.75 7.51,1.36 4.37,5.9 9.65,5.38 -3.36,7.71 4.31,22.59 -3.42,9.59 -7.21,5.73 -0.83,8.96 -9.73,0.88 -3.34,9.03 -8.01,8.97 -17.4,8.13 -5.4,-4.77 -6.9,-13 2.81,-11.36 -5.62,-12.34 -2.31,-15.57 -13.72,-6.84 -5.86,-7.66 -2.31,-10.62 5.38,-20.2 -6.16,-12.13 -3.01,-10.46 4.24,-20.96 -2.2,-20.4 9.62,-15.87 -2.72,-5.88 -1.31,-15.07 -14.09,-5.77 -10.94,3.18 -10.43,-3.71 2.67,-9.86 -15.61,-20.66 -4.92,-0.76 -2.28,-9.76 -13.07,-9.71 -2.25,-7.2 -15.35,-4 -3.66,-5.24 -3.85,-2.42 -5.38,-15.42 0.71,-6.79 -6.61,-3.87 0.07,-5.85 12.7,4.91 5.88,7.36 6.37,1.68 0.72,-15.8 11.47,-3.61 3.85,-6.23 -2.09,-7.66 25.17,10.51 5.56,7.7 -3.34,7.82 5.48,10.5 -3.44,3.74 5.75,6.45 12.47,5.1 -1.11,11.73 8.91,-0.32 10.13,9.03 1.89,12.28 16.53,-0.35 6.34,5.05 z"
       id="M06428"
       style="fill:#ffff80;fill-opacity:1;stroke:#000000;stroke-width:2.27045;stroke-dasharray:none;stroke-opacity:1" />
    <path
       d="m 353.53,1078.63 4.59,15.83 -16.93,14.92 -8.25,-1.52 -8.2,3.56 -9.8,-0.05 -9.95,18.29 1.25,15.3 -8.86,10.5 0.21,10.22 -9.21,0.04 -11.14,5.41 -0.29,9.56 13.71,6.84 2.69,16 -7.13,2.65 1.68,16.41 7.77,9.63 -7.75,7.49 -2.79,20.21 1.68,14.94 -3.37,-1.09 -5.15,13.93 -16.57,0.41 -3.21,3.22 -13,0.07 -11.84,-13.43 -5.56,-0.99 -12.75,10.22 -12.07,2.47 -6.01,7.31 -6.62,-2.08 -1.12,-7.17 -5.5,-3.22 -9.06,-13.16 -29.69,10.74 -6.87,-9.61 8.95,-13.02 5.33,-13.94 5.13,1.64 12.4,-9.51 1.34,-8.8 6.25,-0.94 8.5,-7.01 8.7,-1.61 0.55,-8.81 -3.66,-3.79 4.38,-8.4 9.98,-7.08 1.76,-5.16 12.77,-1.07 5.71,-10.13 -0.17,-11.94 3.28,-3.87 -4.97,-9.6 3.85,-10.99 7.02,-2.17 11.62,1.3 11.59,-4.32 3.59,-8.02 -1.32,-5.89 15.27,-12.85 -0.49,-16.05 -3.34,-8.29 -0.28,-10.24 -6.13,-2.17 1.44,-12.66 -7.66,-10.08 -9.65,-8.91 1.76,-11.67 6.89,-7.16 6.09,6.93 16.64,-0.83 17.6,13.66 21.9,-4.7 10.19,6.3 11.86,4.3 -0.79,7.24 7.17,1.28 -2.27,15.01 z"
       id="M06403"
       style="fill:#ffff80;fill-opacity:1;stroke:#000000;stroke-width:2.27045;stroke-dasharray:none;stroke-opacity:1" />
    <path
       d="m 442.92,894.88 11.78,2.75 2.48,15.59 -8.51,21.88 -5.7,7.64 -4.66,16.6 -9.13,12.02 -5.97,12.4 2.31,8.24 -8.62,1.68 -5.39,5.52 -9.14,-8.49 -4.79,8.34 -10.19,-6.47 -6.04,-0.6 -12.73,-7.6 1.21,-8.98 -8.38,-3.79 -18.9,-14.52 -15.88,-4.52 -10.76,0.18 10.98,-7.48 -2.92,-9.58 8.42,-24.52 4.8,-3.1 3.98,-13.49 13.54,-4.37 8.09,2.92 4.87,-10.28 9.83,-9.22 6.2,-1.1 10.83,15.52 6.15,3.91 7.93,-5.05 5.25,3.39 8.75,-8.54 14,3.25 z"
       id="M06402"
       style="fill:#ffff80;fill-opacity:1;stroke:#000000;stroke-width:2.27045;stroke-dasharray:none;stroke-opacity:1" />
    <path
       d="m 275.39,876.27 -3.52,15.14 -10.48,10.58 -2.13,16.83 -5.64,3.51 -10.12,12.07 2.45,11.81 -1.21,16.39 4.35,13.02 7.24,7.31 -5.59,8.97 8.07,27.37 -6.89,7.16 -1.76,11.67 9.65,8.91 7.66,10.08 -1.44,12.66 6.13,2.17 0.28,10.24 3.34,8.29 0.49,16.05 -15.27,12.85 1.32,5.89 -3.59,8.02 -11.59,4.32 -11.62,-1.3 -7.02,2.17 -3.85,10.99 4.97,9.6 -3.28,3.87 0.17,11.94 -5.71,10.13 -12.77,1.07 -1.76,5.16 -9.98,7.08 -4.38,8.4 3.66,3.79 -0.55,8.81 -8.7,1.61 -8.5,7.01 -6.25,0.94 -1.34,8.8 -12.4,9.51 -5.13,-1.64 -5.33,13.94 -8.95,13.02 -11.41,-14.83 -0.26,-6.53 -6.84,-1.62 -7.36,6.77 -11.37,1.22 -0.89,-3.96 -15.79,-10.99 -0.31,-7.5 -13.18,-7.58 -6.6,-12.47 1.92,-4.86 -4.96,-17 4.82,-11.69 5.49,-4.03 2.61,-11.1 -2.09,-5.04 3.72,-9.42 -4.8,-5.52 4.08,-10.19 -3.55,-4.21 4.07,-6.89 6.73,-4.23 -1.38,-22.05 3.74,-15.43 12.47,-2.92 12.92,-15.08 -4.46,-8.21 -0.06,-10.01 -10.2,-0.04 1.77,-13.44 5.69,-15.13 6.85,-4.53 -2.73,-19.87 2.31,-9.72 -0.76,-9.22 -4.17,-3.7 -1.65,-9.46 10.05,-15.6 1.44,-7.78 10.73,-10.65 13.11,5.34 5.25,-1.16 14.15,8.33 3.97,-5.44 12.59,4.33 13.74,-7.48 7.77,-8.39 6.01,-1.18 13.97,-9.88 15.58,-6.91 6.06,-15.56 5.14,-3.81 0.65,-8.88 16.83,-12.89 8.27,2.95 z"
       id="M06401"
       style="fill:#ffff80;fill-opacity:1;stroke:#000000;stroke-width:2.27045;stroke-dasharray:none;stroke-opacity:1" />
  </g>
</svg>
