<?xml version="1.0" encoding="UTF-8" standalone="no"?>
<svg
   version="1.2"
   width="367.56595"
   height="600"
   viewBox="0 0 367.56595 600"
   stroke-linecap="round"
   stroke-linejoin="round"
   id="svg3747"
   sodipodi:docname="ak.svg"
   inkscape:version="1.2 (dc2aedaf03, 2022-05-15)"
   xmlns:inkscape="http://www.inkscape.org/namespaces/inkscape"
   xmlns:sodipodi="http://sodipodi.sourceforge.net/DTD/sodipodi-0.dtd"
   xmlns="http://www.w3.org/2000/svg"
   xmlns:svg="http://www.w3.org/2000/svg">
  <defs
     id="defs3751" />
  <sodipodi:namedview
     id="namedview3749"
     pagecolor="#505050"
     bordercolor="#eeeeee"
     borderopacity="1"
     inkscape:showpageshadow="0"
     inkscape:pageopacity="0"
     inkscape:pagecheckerboard="0"
     inkscape:deskcolor="#505050"
     showgrid="false"
     inkscape:zoom="1"
     inkscape:cx="215"
     inkscape:cy="354"
     inkscape:window-width="1920"
     inkscape:window-height="1009"
     inkscape:window-x="-8"
     inkscape:window-y="-8"
     inkscape:window-maximized="1"
     inkscape:current-layer="svg3747" />
  <g
     id="ak"
     transform="matrix(0.45935583,0,0,0.45935583,0.04063988,0.04062892)"
     style="fill:#ffff80;fill-opacity:1;stroke:#000000;stroke-width:2.17696;stroke-dasharray:none;stroke-opacity:1">
    <path
       d="m 708.71,443.29 5.69,5.04 -3.03,13.29 1.49,10.48 8.18,9.29 -0.24,9.61 7.34,13.03 -1.01,7.16 -12.65,3.8 -8.74,-1.5 -8.93,-10.64 -8.91,4.56 -8.86,-2.06 -10.59,11.04 3.89,12.38 -1.12,23.14 10.19,6.45 5.95,-2.06 7.06,6.21 10.44,4.11 4.06,9.3 -8.36,9.87 -9.26,7.2 -2.3,7.43 -6.4,4.7 0.45,7.2 -5.23,5.13 -10.24,2.54 1.62,9.99 6.74,12.63 9.46,1.25 v 7.63 l 7.78,8.42 -2.56,6.2 2.8,11.66 -1.7,10.1 -8.09,17.05 -1.22,14.74 -5.34,7.69 -8.47,-0.75 -4.38,10.41 -6.79,2.5 -6.11,13.63 -8.6,4.28 -6.07,-0.4 -1.75,-7.58 -7.37,-5.79 -4.58,1.36 -7.85,-6.48 -5.26,8.97 -8.05,-0.34 -5.56,-3.77 -8.24,2.28 -9.15,8.45 -4.89,-4.97 -16.32,-8.25 -3.7,10.07 -11.68,-1.16 -10.15,-7.36 -4.05,-0.34 -1.19,11.61 -7.06,5.02 0.66,4.49 -6.95,5.6 -13.72,-6.36 -4.47,-7.97 -0.16,-13.18 -4.29,-7.32 -5.59,0.29 -8.72,-6.3 -1.75,-7.01 1.36,-16.52 2.97,-12.49 3.84,-7.13 7.26,-6.86 2.38,-17 3.12,-8.85 -3.69,-16.11 1.26,-4.67 7.54,-6.99 -0.05,-6.32 4.23,-5.87 -5.72,-16.04 -9.93,-10.22 -5.95,-12.6 6.84,-6.28 12.96,-4.54 2.72,-5.16 -4.6,-18.69 2.78,-5.26 8.39,-3.07 5.58,-8.54 0.54,-15.99 11.82,-2.3 7.88,-8.02 7.77,-0.46 7.08,7.99 11.76,0.29 7.34,-4.51 6.51,-12.45 -3.79,-17.6 10.56,-4.51 7.58,-6.11 3.24,-9.26 16.46,-11.97 5.12,-13.67 8.64,-3.9 0.39,-6.38 10.76,-2 14.04,14.78 -2.37,7.7 3.38,6.13 15.08,-0.02 6.87,-5.28 5.42,0.84 6.37,-4.93 16.11,8.29 z m -134.52,188.17 2.17,6.37 10.44,13.46 12.02,-4.05 8.77,1.83 3.77,-11.66 6.36,-8.05 -2.05,-7.06 -8.37,-7.94 -16.21,-4.62 -9.98,1.4 z"
       fill-rule="evenodd"
       id="M05215"
       style="fill:#ffff80;fill-opacity:1;stroke:#000000;stroke-width:2.17696;stroke-dasharray:none;stroke-opacity:1" />
    <path
       d="m 227.28,1099.68 -33.51,8.26 -6.2,5.69 -1.96,8.15 -28.44,-9.2 -1.47,3.42 -40.74,-7.9 3.62,-8.43 0.38,-12.21 5.18,-4.81 6.62,-20.93 -0.83,-14.34 -6.79,-3.78 13.62,-34.98 -3.02,-8.28 5.68,-15.92 7.07,-7.9 11.86,-0.66 9.85,-4.02 8.62,-14.24 6.26,4.97 6.94,23.22 7.51,8.33 4.87,-1.77 9.88,7.66 -3.1,7.92 5.58,8.23 10.02,9.91 -2.63,11.6 -0.08,14.34 -5.09,7.01 -1.84,8.24 13.02,10.22 1.27,14.12 z"
       id="M05214"
       style="fill:#ffff80;fill-opacity:1;stroke:#000000;stroke-width:2.17696;stroke-dasharray:none;stroke-opacity:1" />
    <path
       d="m 637.76,410.92 -10.76,2 -0.39,6.38 -8.64,3.9 -5.12,13.67 -16.46,11.97 -3.24,9.26 -7.58,6.11 -10.56,4.51 3.79,17.6 -6.51,12.45 -7.34,4.51 -11.76,-0.29 -7.08,-7.99 -7.77,0.46 -7.88,8.02 -11.82,2.3 -0.54,15.99 -5.58,8.54 -8.39,3.07 -2.78,5.26 4.6,18.69 -2.72,5.16 -12.96,4.54 -6.84,6.28 -3.07,0.7 -9.49,-21.39 -4.61,-1.6 -12.94,3.35 -8.96,-6.73 -7.74,-0.33 -1.97,-4.58 -5.77,-7.92 -3.18,-24.53 -8.47,-14.03 2.83,-11.8 -3.32,-10.51 -6.82,-5.87 0.89,-8.19 -2.59,-18.8 -3.14,-6.93 3.57,-6.17 10.78,-8.72 -1.66,-7.36 -9.75,-10.91 -3.15,-7.44 7.47,-7.51 8.68,-15.46 -2.85,-5.45 2.35,-6.82 -3.5,-10.04 1.25,-9.59 -14.17,0.14 -15.16,6.51 -6.03,-2.33 -9.29,1.12 -7.58,10.39 -21.21,-0.86 0.2,-11.87 -4.72,-2.02 2,-8.42 -4.4,-10.15 2.91,-4.44 0.16,-13.88 5.26,-13.94 -2.15,-13.39 1.15,-11.29 6.69,-0.49 4.71,-10.3 13.1,-1.34 -1.79,-6.65 -8.18,-6.82 2.61,-7.86 -5.72,-9.16 1.52,-4.59 8.87,-8.38 11.89,-2.43 0.72,-7.48 7.83,-8.25 2.2,-11.83 -2.86,-9.98 1.6,-7.85 4.91,-3.61 1.3,-12.51 10.82,-18.63 13.61,8.82 0.88,18.69 3.96,9.44 6.16,7.53 6.97,15.28 7.03,7.22 -3.16,3.47 5.79,10.36 14.34,-2.5 2.68,7.78 6.71,4.61 7.58,0.75 -1.91,14.89 10.11,6.94 1.36,9.61 -4.21,4.66 4.83,14.14 0.95,8.53 7.56,2.69 3.46,7.74 7.1,5.93 15.76,-4.93 -0.91,8.53 5.81,6.42 22.84,4.3 6.65,6.05 -1.38,17.64 0.76,10.15 10.08,5.6 12.76,-8.69 14.97,6.69 2.75,6.63 8.23,-0.28 6.25,3.75 -0.15,8.75 4.6,8.76 1.84,12.59 4.07,5.89 15.82,12.73 z"
       id="M05213"
       style="fill:#ffff80;fill-opacity:1;stroke:#000000;stroke-width:2.17696;stroke-dasharray:none;stroke-opacity:1" />
    <path
       d="m 493.31,631.35 -1.26,4.67 3.69,16.11 -3.12,8.85 -2.38,17 -7.26,6.86 -3.84,7.13 -2.97,12.49 -1.36,16.52 1.75,7.01 8.72,6.3 5.59,-0.29 4.29,7.32 0.16,13.18 4.47,7.97 13.72,6.36 6.95,-5.6 -0.66,-4.49 7.06,-5.02 1.19,-11.61 4.05,0.34 10.15,7.36 11.68,1.16 3.7,-10.07 16.32,8.25 4.89,4.97 9.15,-8.45 8.24,-2.28 5.56,3.77 8.05,0.34 5.26,-8.97 7.85,6.48 4.58,-1.36 7.37,5.79 1.75,7.58 -0.74,10.22 6.35,4.88 1.13,8.47 -2.94,11.72 -7.3,2.36 -1.13,11.44 -5.59,3.86 3.2,11.29 -1.49,5.12 -11.23,8.54 -4.93,-8.95 -7.21,-1.73 -10.65,-10.52 -13.37,-2.9 -14.26,5.03 -11.97,2.31 -4.25,5.72 -18.02,-1.4 -3.55,20.11 2.31,3.46 -14.62,4.92 -12.97,8.3 -1.43,4.16 4.39,8.26 -4.72,12.82 -13.36,7.88 0.65,9.45 -17.4,14.06 1,-21.1 2.57,-7.63 -3.43,-5.73 -7.13,2.54 -5.86,-2.41 -9.96,7.12 -13.77,2.96 -6.87,-1.86 -4.45,3.2 4.13,6.54 -12.24,0.69 -3.57,-8.46 -11.06,4.91 -1.39,6.88 -7.01,4.53 -7.25,-5.56 -2.67,-6.21 -16.44,-2.87 9.64,-10.23 1.03,-7.7 -17.11,-6.02 -5.43,-8.12 -0.41,-11.99 7.86,-4.68 -0.24,-9.67 -9.39,-14.21 5.7,-5.02 -7.52,-16.06 -6.67,-0.93 -3.37,-20.02 -3.22,-4.32 -8.14,0.31 2.92,-13.11 3.97,-2.07 2.48,-8.39 6.67,-1.82 -0.02,-9.19 8.46,-11.58 -0.36,-6.6 10.19,-12.17 0.11,-12.25 -7.87,0.62 -0.43,-10.95 13.1,-1.53 1.89,5.28 8.44,0.96 -1.5,-15.77 11.6,-10.5 7.8,3.3 5.79,-11.82 10,-3.07 5.1,1.78 12.31,-5.58 16.46,-12.06 7.97,6.03 9.09,1.87 16.96,-9.37 z"
       id="M05212"
       style="fill:#ffff80;fill-opacity:1;stroke:#000000;stroke-width:2.17696;stroke-dasharray:none;stroke-opacity:1" />
    <path
       d="m 310.23,522.82 -7.04,9.18 -12.04,2.88 -6.98,-3.91 -4.96,3.91 -8.74,-0.17 -9.43,-4.63 -5.85,6.74 -5.67,0.9 -10.94,-2.77 -5.14,-10.31 -3.87,5.67 -6.06,-0.93 -4.63,5.58 3.8,12.64 0.46,17.32 -13.26,2.04 -9.02,-20.84 -16.03,-23.63 -15.32,-15.98 -0.12,-3.51 -8.77,-10.6 4.26,-5.56 6.84,-12.69 27.92,8.6 -0.22,4.18 13.22,20.87 3.54,0.4 4.33,-18.92 2,-2.52 20.05,-0.35 7.83,8.17 9.49,14.93 8.73,4.06 14.83,3.35 9.49,9.62 10.1,0.61 z"
       id="M05211"
       style="fill:#ffff80;fill-opacity:1;stroke:#000000;stroke-width:2.17696;stroke-dasharray:none;stroke-opacity:1" />
    <path
       d="m 227.28,1099.68 2.15,-8.08 -1.27,-14.12 -13.02,-10.22 1.84,-8.24 5.09,-7.01 0.08,-14.34 2.63,-11.6 -10.02,-9.91 -5.58,-8.23 3.1,-7.92 -9.88,-7.66 -4.87,1.77 -7.51,-8.33 -6.94,-23.22 -6.26,-4.97 10.24,-23.08 10,-30.86 5.14,-19.42 14.41,-73.87 3.52,-26.75 -0.6,-7.61 3.89,-19.29 2.16,-25.11 9.8,2.39 6.75,11.8 7.69,-4.81 14.35,12.46 15.9,-0.03 6.7,9.36 5.37,20.62 10.78,-4.58 1.69,3.46 -6.43,17.18 1.76,6.98 10.57,4.94 18.78,5.46 -4.95,7.11 1.35,11.16 5.77,-1.96 1.23,7.93 14.95,8.85 6.23,-0.55 0.41,11.99 5.43,8.12 17.11,6.02 -1.03,7.7 -9.64,10.23 16.44,2.87 2.67,6.21 -26.81,6.06 -5.49,3.67 0.84,11.37 18.16,1.05 1.12,4.76 9.55,-0.85 7.49,6.59 -0.92,7.18 8.54,15.75 7.05,5.43 1.25,7.92 -7.23,0.34 -1.6,11.19 -4.04,5.78 -1.98,9.7 6.33,1.82 4.02,6.88 -27.7,4.68 -25.09,7.75 -7.49,8.09 -11.47,-3.58 -4.84,8.66 4.87,5.62 0.19,5.82 5.56,7.94 6.01,-2.52 4.81,10.87 14.04,15.56 1.2,9.79 6.37,4.33 6.75,9.46 0.89,7.95 5.01,5.68 2.64,11.71 8.19,0.76 7.11,13.36 0.82,7.68 -5.85,7.4 0.89,7.32 4.62,7.58 -8.35,8.53 -6.32,2.8 -4.95,13.94 -10,-3.57 -6.06,-7.87 -13.73,-5.24 -5.66,5.13 -4.3,-2 -11.25,2.92 -3.42,-3.15 -13.07,-3.67 2.55,-14.04 -2.21,-4.88 -16.08,1.87 -14.78,6.42 -4.24,-9.6 -8.61,-1.31 -7.95,-4.13 -1.2,-7.54 -7.47,-4.2 -17.9,-2.98 -6.78,-4.74 2.88,-5.46 -3.49,-10.74 z"
       id="M05210"
       style="fill:#ffff80;fill-opacity:1;stroke:#000000;stroke-width:2.17696;stroke-dasharray:none;stroke-opacity:1" />
    <path
       d="m 708.71,443.29 -6.05,-4.86 -16.11,-8.29 -6.37,4.93 -5.42,-0.84 -6.87,5.28 -15.08,0.02 -3.38,-6.13 2.37,-7.7 -14.04,-14.78 0.25,-7.67 -15.82,-12.73 -4.07,-5.89 -1.84,-12.59 12.09,-23.98 -1.41,-6.81 1.17,-19.9 4.48,-6.02 -0.54,-8.43 8.08,-2.46 4.6,-11.44 -3.41,-5.35 -8.99,-2.42 -6.26,1.3 -5.49,-4.76 -3.14,-14.12 1.27,-12.42 17.16,0.22 -1.77,-6.52 -9.6,-18.86 8.38,-0.16 1.08,-17.93 -3.1,-3.38 2.98,-15.33 -4.23,-6.6 4.04,-7.47 12.54,5.19 13.01,-1.54 3.76,-10.41 -2.48,-4.59 5.9,-10.73 8.65,-6.37 -4.44,-7.17 4.21,-14.05 11.03,-12.19 4.38,-11.73 3.67,-3.82 -3.72,-12.96 5.55,-7.71 0.93,-8.14 8.36,-3.81 6.22,12.78 7.24,2.83 15.38,-1.82 19.49,-6.09 3.68,-4.06 9.31,-7.32 5.7,3.13 12.84,-3.66 7.94,2.93 -2.3,17.36 3.61,5.86 -1.77,8 6.5,14.69 0.14,12.01 -8.6,9.54 -7.76,4.73 -5.91,12.76 -0.81,12.14 -8.34,8.24 5.16,7.11 0.23,12.99 -4.33,10.58 0.65,8.93 -4.09,5.39 1.29,9.27 -22.51,5.26 -5.94,6.82 -3.84,10.52 1.74,6.62 -12.17,11.23 -8.12,5.37 6.04,9.71 8.61,4.73 -9.78,18.4 7.03,12.5 -0.82,13.58 -8.59,10.53 -3.55,-1 -8,9.29 6.68,22.34 -3.04,12 3.1,14.23 -3.96,4.69 1.1,11.45 -2.4,14.06 z"
       id="M05209"
       style="fill:#ffff80;fill-opacity:1;stroke:#000000;stroke-width:2.17696;stroke-dasharray:none;stroke-opacity:1" />
    <path
       d="m 390.72,1177.6 8.35,-8.53 -4.62,-7.58 -0.89,-7.32 5.85,-7.4 -0.82,-7.68 7.33,-1 7.49,-10.76 16.28,-5.16 7.04,-12.7 1.5,-9.11 7.28,-3.16 5.51,-7.54 2.19,-13.77 4.35,-4.58 4.92,4.58 8.59,-9.42 -6.27,-11.96 -4.49,-16.25 1.81,-4.06 13.49,-1.05 15,5.99 10.2,-0.41 10.43,6.83 -2.67,10.62 2.65,8.02 6.01,4.29 5.75,-5.83 -1.2,-7.2 10.43,-0.13 4.96,-3.11 19.78,7.55 5.21,16.55 4.34,8.1 -3.54,2.4 4.24,9.2 -3.32,9.34 6.18,4 5.48,12.64 8.79,-1.11 3.82,5.81 18.94,5.39 2.97,5.99 -2.09,15.48 13.56,12.02 0.94,19.26 -3.99,6.08 11.04,9.79 -1.87,7.83 4.73,7.29 16.25,16.01 3.51,6.17 -14.43,7.04 -5.36,11.74 -9.98,11.11 -4.09,-2.8 -9.03,4.9 -7.74,11.02 -1.17,5.1 -16,6.69 -21.73,-2.98 -1.48,4.58 -8.57,-0.31 -18.99,10.9 -4.85,-2.41 -4.16,-11.7 -7.34,-7.59 -5.82,2.57 -6.24,-2.29 -6.5,4.27 -6.6,-3.07 -1.34,-6.02 -7.61,-6.46 -11.11,-4.47 -2.09,-10.66 -5.35,-9.22 2.52,-10.25 -1.51,-10.38 -8.27,-8.14 -3.6,-7.74 -11.02,1.47 -12.13,-0.98 -11.96,-3.49 -6.46,-10.87 -1.6,-11.75 -10.52,-1.13 z"
       id="M05207"
       style="fill:#ffff80;fill-opacity:1;stroke:#000000;stroke-width:2.17696;stroke-dasharray:none;stroke-opacity:1" />
    <path
       d="m 164.88,486.84 -4.26,5.56 8.77,10.6 0.12,3.51 -10.9,-7.66 -15.62,-7.74 -16.79,-2.24 -23.79,5.32 3.08,4.13 -10.12,10.38 1.49,11.23 -7.17,0.37 -4.4,-4.77 -5.88,8.14 -7.7,0.1 -8.43,-7.11 -20.46,4.24 -8.94,-2.66 -6.07,-12.04 -1.26,-19.77 -5.88,-1.81 -12.04,-17.79 -0.44,-11.74 8.64,-1.26 1.28,-6.49 -7.53,-1.76 -4.97,-9.62 0.11,-6.56 -4.72,-15.14 5.23,-8.94 13.29,20.13 6.64,-1.78 3.91,3.86 15.35,3.34 10.59,6.19 1.85,5.01 7.19,3.24 7.18,-0.82 21.87,-10.49 16.91,-14.25 17.83,-21.66 13.45,-20.22 13.24,-25.57 7.33,2.42 -2.55,6.74 5.44,3.26 -6.96,17.01 -9.11,4.24 -3.37,6.15 7.78,17.43 -5.85,9.02 -6.76,25.15 2.31,4.64 13.91,9.21 z"
       id="M05206"
       style="fill:#ffff80;fill-opacity:1;stroke:#000000;stroke-width:2.17696;stroke-dasharray:none;stroke-opacity:1" />
    <path
       d="m 616.28,372.04 -4.6,-8.76 0.15,-8.75 -6.25,-3.75 -8.23,0.28 -2.75,-6.63 -14.97,-6.69 -12.76,8.69 -10.08,-5.6 -0.76,-10.15 1.38,-17.64 -6.65,-6.05 -22.84,-4.3 -5.81,-6.42 0.91,-8.53 -15.76,4.93 -7.1,-5.93 -3.46,-7.74 -7.56,-2.69 -0.95,-8.53 -4.83,-14.14 4.21,-4.66 -1.36,-9.61 -10.11,-6.94 1.91,-14.89 -7.58,-0.75 -6.71,-4.61 -2.68,-7.78 -14.34,2.5 -5.79,-10.36 3.16,-3.47 -7.03,-7.22 -6.97,-15.28 -6.16,-7.53 -3.96,-9.44 -0.88,-18.69 -13.61,-8.82 2.01,-9.39 -11.13,-9.57 -2.36,-5.87 -0.77,-14.04 2.07,-6.86 -2.37,-6.41 1.56,-15.86 5.25,-10.32 -0.26,-7.62 10.99,-13.48 10.21,1.49 5.52,-8.47 11.74,10.01 12.85,-6.41 6.25,3.33 -2.34,8.66 2.51,10.02 3.84,3.73 9.56,-4.68 11.17,2.72 4.61,9.83 7.88,3.56 6.4,6.38 11.9,-2.26 2.64,16.14 5.27,6.92 4.02,-0.99 7.23,5.51 4.19,-7.57 -7.82,-10.88 2.71,-4.59 10.09,-0.37 8.95,-3.26 0.63,-4.76 13.67,10 7.1,-0.67 5.71,5.48 7.54,11.77 11.68,-3.04 7.1,-4.84 0.78,21.22 3.91,11.2 5.6,1.88 6.18,7.95 5.39,15.58 5.68,7.66 -5.76,8.56 1.35,10 7.28,15.72 -4.04,7.47 4.23,6.6 -2.98,15.33 3.1,3.38 -1.08,17.93 -8.38,0.16 9.6,18.86 1.77,6.52 -17.16,-0.22 -1.27,12.42 3.14,14.12 5.49,4.76 6.26,-1.3 8.99,2.42 3.41,5.35 -4.6,11.44 -8.08,2.46 0.54,8.43 -4.48,6.02 -1.17,19.9 1.41,6.81 z"
       id="M05204"
       style="fill:#ffff80;fill-opacity:1;stroke:#000000;stroke-width:2.17696;stroke-dasharray:none;stroke-opacity:1" />
    <path
       d="m 385.26,902.52 7.25,5.56 7.01,-4.53 1.39,-6.88 11.06,-4.91 3.57,8.46 12.24,-0.69 -4.13,-6.54 4.45,-3.2 6.87,1.86 13.77,-2.96 9.96,-7.12 5.86,2.41 7.13,-2.54 3.43,5.73 -2.57,7.63 -1,21.1 17.4,-14.06 11.32,11.04 2.9,5.56 8.31,3.91 8.33,-4.88 5.23,5.35 4.12,-15.11 10.61,-3.39 14.09,1.67 9.85,-2.38 9.75,8.05 2.96,-6 14.76,-8.34 5.72,3.84 8.26,0.89 -2.05,11.76 7.83,7.15 0.03,9.35 9.06,3.12 3.64,10.86 -6.49,1.15 -3.51,11.88 0.44,10.97 14.55,2.44 0.31,18.92 31.32,15.95 5.05,8.62 7.05,2.49 -0.64,9.21 -10.52,2.63 -4.54,8.1 2.18,3.71 -8.22,8.07 -10.15,1.99 -5.16,-2.9 -11.6,9.31 -10.84,-0.36 -16.31,-16.7 -2.62,2.52 -13.6,1.14 -0.71,8.05 -6.64,-1.11 -3.14,8.16 9.17,9.52 8.12,22.82 9.23,-7.28 8.71,4.08 5.48,7.81 -3.78,7.66 5.3,16.78 -5.02,12.17 -18.94,-5.39 -3.82,-5.81 -8.79,1.11 -5.48,-12.64 -6.18,-4 3.32,-9.34 -4.24,-9.2 3.54,-2.4 -4.34,-8.1 -5.21,-16.55 -19.78,-7.55 -4.96,3.11 -10.43,0.13 1.2,7.2 -5.75,5.83 -6.01,-4.29 -2.65,-8.02 2.67,-10.62 -10.43,-6.83 -10.2,0.41 -15,-5.99 -13.49,1.05 -2.33,-7.46 -7.13,0.44 -4.99,-4.08 -0.36,-7.34 -12.04,-13.1 -0.05,-3.14 -24.41,-0.19 -9.27,7.83 -4.02,-6.88 -6.33,-1.82 1.98,-9.7 4.04,-5.78 1.6,-11.19 7.23,-0.34 -1.25,-7.92 -7.05,-5.43 -8.54,-15.75 0.92,-7.18 -7.49,-6.59 -9.55,0.85 -1.12,-4.76 -18.16,-1.05 -0.84,-11.37 5.49,-3.67 z"
       id="M05203"
       style="fill:#ffff80;fill-opacity:1;stroke:#000000;stroke-width:2.17696;stroke-dasharray:none;stroke-opacity:1" />
    <path
       d="m 358.18,217.04 -1.52,4.59 5.72,9.16 -2.61,7.86 8.18,6.82 1.79,6.65 -13.1,1.34 -4.71,10.3 -6.69,0.49 -1.15,11.29 2.15,13.39 -5.26,13.94 -0.16,13.88 -2.91,4.44 4.4,10.15 -2,8.42 4.72,2.02 -0.2,11.87 -2.47,6.33 -6.02,2.39 -2.27,10.38 -12.55,-10.55 -0.8,-6.85 -15.21,1.31 1.87,-10.38 -5.37,-1.57 -1.62,-9.02 -4.31,-3.27 1.52,-11.41 4.63,-4.92 2.14,-8.53 -6.18,-2.5 -10.06,0.35 -9.87,3.06 -7.33,-3.41 -7.55,2.41 -7.74,-10.97 -9.55,-5.62 -4.12,1.05 -11,-7.13 -12.51,6.18 -4.09,-3.15 -5.98,13.37 -7.75,8.83 -7.53,2.85 -20.9,-2.33 11.99,-40.61 -5.01,-6.21 2.72,-13.38 4.03,0.77 3.55,-16.81 2.53,-3.44 6.59,-32.1 8.62,1.11 2.3,-6.33 20.46,1.53 15.66,9.51 6.54,0.6 17.28,-4.2 6.33,-25.85 -4.23,-17.58 3.67,-6.75 -3.56,-11.02 6.42,-8.84 6.63,-20.32 7.05,3.58 9.33,11 6.5,4.63 0.91,24.49 4.22,5.56 1.58,12.5 5.53,-0.21 2.55,10.26 -2.85,12.95 3.78,8 7.84,8.8 7.79,1.49 4.72,4.49 11.92,-3.57 z"
       id="M05202"
       style="fill:#ffff80;fill-opacity:1;stroke:#000000;stroke-width:2.17696;stroke-dasharray:none;stroke-opacity:1" />
    <path
       d="m 483.43,573.31 5.95,12.6 9.93,10.22 5.72,16.04 -4.23,5.87 0.05,6.32 -7.54,6.99 -13.3,5.44 -16.96,9.37 -9.09,-1.87 -7.97,-6.03 -16.46,12.06 -12.31,5.58 -5.1,-1.78 -10,3.07 -5.79,11.82 -7.8,-3.3 -11.6,10.5 1.5,15.77 -8.44,-0.96 -1.89,-5.28 -13.1,1.53 0.43,10.95 7.87,-0.62 -0.11,12.25 -10.19,12.17 0.36,6.6 -8.46,11.58 0.02,9.19 -6.67,1.82 -2.48,8.39 -3.97,2.07 -2.92,13.11 8.14,-0.31 3.22,4.32 3.37,20.02 6.67,0.93 7.52,16.06 -5.7,5.02 9.39,14.21 0.24,9.67 -7.86,4.68 -6.23,0.55 -14.95,-8.85 -1.23,-7.93 -5.77,1.96 -1.35,-11.16 4.95,-7.11 -18.78,-5.46 -10.57,-4.94 -1.76,-6.98 6.43,-17.18 -1.69,-3.46 -10.78,4.58 -5.37,-20.62 -6.7,-9.36 -15.9,0.03 -14.35,-12.46 -7.69,4.81 -6.75,-11.8 -9.8,-2.39 2.03,-45.06 -2.28,-52.76 -3.2,-14.51 -4.75,-8.47 2.73,-9.35 -0.87,-10.26 -7.78,2.14 -1.98,-7.67 3.1,-6.03 -2.7,-12.68 13.26,-2.04 -0.46,-17.32 -3.8,-12.64 4.63,-5.58 6.06,0.93 3.87,-5.67 5.14,10.31 10.94,2.77 5.67,-0.9 5.85,-6.74 9.43,4.63 8.74,0.17 4.96,-3.91 6.98,3.91 12.04,-2.88 7.04,-9.18 11.12,-2.67 4.17,1.73 6.78,15.5 10.38,11.17 5.01,-1.95 9.12,2.1 4.9,-6.06 9,1.61 6.3,2.41 4.69,17.88 -2.12,8.25 5.91,0.56 12.16,-6.46 9.36,-17.27 10.13,-7.66 17.51,0.77 1.97,4.58 7.74,0.33 8.96,6.73 12.94,-3.35 4.61,1.6 9.49,21.39 z"
       id="M05201"
       style="fill:#ffff80;fill-opacity:1;stroke:#000000;stroke-width:2.17696;stroke-dasharray:none;stroke-opacity:1" />
    <path
       d="m 652.14,1238.01 -3.51,-6.17 -16.25,-16.01 -4.73,-7.29 1.87,-7.83 -11.04,-9.79 3.99,-6.08 -0.94,-19.26 -13.56,-12.02 2.09,-15.48 -2.97,-5.99 5.02,-12.17 -5.3,-16.78 3.78,-7.66 -5.48,-7.81 -8.71,-4.08 -9.23,7.28 -8.12,-22.82 -9.17,-9.52 3.14,-8.16 6.64,1.11 0.71,-8.05 13.6,-1.14 2.62,-2.52 16.31,16.7 10.84,0.36 11.6,-9.31 5.16,2.9 10.15,-1.99 8.22,-8.07 -1.08,8.52 8.5,2.37 6.01,4.87 5.44,-1.07 6.41,9.15 -20.83,8.53 -5.1,12.08 -9.7,9.4 12.42,12.84 -8.65,4.83 4.52,7.26 -6.34,18.04 11.68,5.79 4.22,-2.67 12.95,4.36 2.73,4.71 -3.05,6.11 3.51,8.53 -7.14,8.14 1.57,4.5 -3.27,9.41 -7.3,12.38 -8.85,6.33 -0.31,8.65 6.65,16.09 -1.63,8.35 z"
       id="M05464"
       style="fill:#ffff80;fill-opacity:1;stroke:#000000;stroke-width:2.17696;stroke-dasharray:none;stroke-opacity:1" />
    <path
       d="m 398.59,1139.09 -7.11,-13.36 -8.19,-0.76 -2.64,-11.71 -5.01,-5.68 -0.89,-7.95 -6.75,-9.46 -6.37,-4.33 -1.2,-9.79 -14.04,-15.56 -4.81,-10.87 -6.01,2.52 -5.56,-7.94 -0.19,-5.82 -4.87,-5.62 4.84,-8.66 11.47,3.58 7.49,-8.09 25.09,-7.75 27.7,-4.68 9.27,-7.83 24.41,0.19 0.05,3.14 12.04,13.1 0.36,7.34 4.99,4.08 7.13,-0.44 2.33,7.46 -1.81,4.06 4.49,16.25 6.27,11.96 -8.59,9.42 -4.92,-4.58 -4.35,4.58 -2.19,13.77 -5.51,7.54 -7.28,3.16 -1.5,9.11 -7.04,12.7 -16.28,5.16 -7.49,10.76 z"
       id="M05463"
       style="fill:#ffff80;fill-opacity:1;stroke:#000000;stroke-width:2.17696;stroke-dasharray:none;stroke-opacity:1" />
    <path
       d="m 488.95,901.84 -0.65,-9.45 13.36,-7.88 4.72,-12.82 -4.39,-8.26 1.43,-4.16 12.97,-8.3 14.62,-4.92 -2.31,-3.46 3.55,-20.11 18.02,1.4 4.25,-5.72 11.97,-2.31 14.26,-5.03 13.37,2.9 10.65,10.52 7.21,1.73 4.93,8.95 -5.29,2.36 -7.68,13.02 5.28,8.85 -2.76,14.97 -14.01,3.37 3.34,8.24 -4.61,11.59 -14.76,8.34 -2.96,6 -9.75,-8.05 -9.85,2.38 -14.09,-1.67 -10.61,3.39 -4.12,15.11 -5.23,-5.35 -8.33,4.88 -8.31,-3.91 -2.9,-5.56 z"
       id="M05434"
       style="fill:#ffff80;fill-opacity:1;stroke:#000000;stroke-width:2.17696;stroke-dasharray:none;stroke-opacity:1" />
    <path
       d="m 157.7,457.57 -13.91,-9.21 -2.31,-4.64 6.76,-25.15 5.85,-9.02 -7.78,-17.43 3.37,-6.15 9.11,-4.24 6.96,-17.01 10.4,-7.57 3.92,-21.15 8.64,0.01 1.43,4.68 11.27,7.32 19.31,9.87 4.45,3.62 7.54,17.17 -1.64,42.63 -4.62,19.2 -6.11,13.42 -4.28,4.64 -2.76,2.94 -15.15,6.6 z"
       id="M05368"
       style="fill:#ffff80;fill-opacity:1;stroke:#000000;stroke-width:2.17696;stroke-dasharray:none;stroke-opacity:1" />
    <path
       d="m 310.23,522.82 -7.2,4.33 -10.1,-0.61 -9.49,-9.62 -14.83,-3.35 -8.73,-4.06 -9.49,-14.93 -7.83,-8.17 -20.05,0.35 0.7,-11.94 -4.02,-5.83 5.94,-4.76 0.28,-0.22 12.92,4.08 15.99,0.32 7.76,6.52 8.46,2.35 3.4,9.79 5.51,1.27 1.08,7.79 4.59,2.24 11.92,-2.88 5.95,8.92 18.97,4.28 -0.61,11.46 z"
       id="M05366"
       style="fill:#ffff80;fill-opacity:1;stroke:#000000;stroke-width:2.17696;stroke-dasharray:none;stroke-opacity:1" />
    <path
       d="m 216.06,458.56 4.28,-4.64 6.11,-13.42 4.62,-19.2 12.66,9.68 19.47,-2.89 -1.12,9.2 -5.84,5.68 -9.06,-6.39 -2.79,7.05 1.68,10.81 -20.66,9.57 -0.28,0.22 z"
       id="M05363"
       style="fill:#ffff80;fill-opacity:1;stroke:#000000;stroke-width:2.17696;stroke-dasharray:none;stroke-opacity:1" />
    <path
       d="m 370.71,544.25 -9,-1.61 -4.9,6.06 -9.12,-2.1 -5.01,1.95 -10.38,-11.17 -6.78,-15.5 -4.17,-1.73 0.61,-11.46 -18.97,-4.28 -5.95,-8.92 -11.92,2.88 -4.59,-2.24 -1.08,-7.79 -5.51,-1.27 -3.4,-9.79 -8.46,-2.35 -7.76,-6.52 -15.99,-0.32 -12.92,-4.08 20.66,-9.57 -1.68,-10.81 2.79,-7.05 9.06,6.39 5.84,-5.68 1.12,-9.2 -2.92,-6.36 6.53,-2.41 19.19,-17.09 7.69,0.09 3.5,5.05 13.13,-6.94 8.43,1.06 4.94,4.48 9.59,-1.35 -0.63,12.69 9.85,6.57 1.38,10.78 -3.14,7.98 8.4,8.33 2.79,9.54 5.15,4.65 11.17,3.59 0.22,12.44 3.1,10.32 -0.66,8.56 3.34,8.19 -2.43,9.69 4.13,4.17 0.9,10.59 z M 213.3,461.5 l 2.76,-2.94 9.07,5.67 -5.94,4.76 z"
       fill-rule="evenodd"
       id="M05361"
       style="fill:#ffff80;fill-opacity:1;stroke:#000000;stroke-width:2.17696;stroke-dasharray:none;stroke-opacity:1" />
    <path
       d="m 344.83,353.65 21.21,0.86 7.58,-10.39 9.29,-1.12 6.03,2.33 15.16,-6.51 14.17,-0.14 -1.25,9.59 3.5,10.04 -2.35,6.82 2.85,5.45 -8.68,15.46 -7.47,7.51 3.15,7.44 9.75,10.91 1.66,7.36 -10.78,8.72 -3.57,6.17 3.14,6.93 2.59,18.8 -0.89,8.19 6.82,5.87 3.32,10.51 -2.83,11.8 8.47,14.03 3.18,24.53 5.77,7.92 -17.51,-0.77 -10.13,7.66 -9.36,17.27 -12.16,6.46 -5.91,-0.56 2.12,-8.25 -4.69,-17.88 -6.3,-2.41 6.14,-11.54 -0.9,-10.59 -4.13,-4.17 2.43,-9.69 -3.34,-8.19 0.66,-8.56 -3.1,-10.32 -0.22,-12.44 -11.17,-3.59 -5.15,-4.65 -2.79,-9.54 -8.4,-8.33 3.14,-7.98 -1.38,-10.78 -9.85,-6.57 0.63,-12.69 5.21,-7.55 0.7,-9.81 -5.12,-14.51 2.27,-10.38 6.02,-2.39 z"
       id="M05327"
       style="fill:#ffff80;fill-opacity:1;stroke:#000000;stroke-width:2.17696;stroke-dasharray:none;stroke-opacity:1" />
    <path
       d="m 284.73,110.63 -6.63,20.32 -6.42,8.84 3.56,11.02 -3.67,6.75 4.23,17.58 -6.33,25.85 -17.28,4.2 -6.54,-0.6 -15.66,-9.51 -20.46,-1.53 -2.3,6.33 -8.62,-1.11 5.18,-40.12 1.21,-19.52 -1.89,-15.22 -5.07,-4.81 -0.79,-6.53 -20.4,-12.97 -1.06,-8.43 -18.63,-12.12 -3.62,-13.4 10.81,-3.89 8.43,6.63 16.86,-5.07 6.27,5.58 6.36,-2.82 2.28,-8.15 -3.15,-5.61 2.84,-5.26 8.29,-6.2 5.51,0.05 7.28,-5.25 11.78,0.27 12.9,11.23 -0.2,7.24 5.17,6.5 -2.68,1.74 -1.84,13.18 8.86,12.6 8.33,-3.11 6.93,3.89 7.03,-2.11 1.63,8.44 6.27,6.55 z"
       id="M05349"
       style="fill:#ffff80;fill-opacity:1;stroke:#000000;stroke-width:2.17696;stroke-dasharray:none;stroke-opacity:1" />
    <path
       d="m 165.75,364.72 -5.44,-3.26 2.55,-6.74 -7.33,-2.42 16.68,-41.75 20.9,2.33 7.53,-2.85 7.75,-8.83 5.98,-13.37 4.09,3.15 12.51,-6.18 11,7.13 4.12,-1.05 9.55,5.62 7.74,10.97 7.55,-2.41 7.33,3.41 9.87,-3.06 10.06,-0.35 6.18,2.5 -2.14,8.53 -4.63,4.92 -1.52,11.41 4.31,3.27 1.62,9.02 5.37,1.57 -1.87,10.38 15.21,-1.31 0.8,6.85 12.55,10.55 5.12,14.51 -0.7,9.81 -5.21,7.55 -9.59,1.35 -4.94,-4.48 -8.43,-1.06 -13.13,6.94 -3.5,-5.05 -7.69,-0.09 -19.19,17.09 -6.53,2.41 2.92,6.36 -19.47,2.89 -12.66,-9.68 1.64,-42.63 -7.54,-17.17 -4.45,-3.62 -19.31,-9.87 -11.27,-7.32 -1.43,-4.68 -8.64,-0.01 -3.92,21.15 z"
       id="M05348"
       style="fill:#ffff80;fill-opacity:1;stroke:#000000;stroke-width:2.17696;stroke-dasharray:none;stroke-opacity:1" />
    <path
       d="m 405.46,126.09 -10.82,18.63 -1.3,12.51 -4.91,3.61 -1.6,7.85 2.86,9.98 -2.2,11.83 -7.83,8.25 -0.72,7.48 -11.89,2.43 -8.87,8.38 -2.58,-2.44 -11.92,3.57 -4.72,-4.49 -7.79,-1.49 -7.84,-8.8 -3.78,-8 2.85,-12.95 -2.55,-10.26 -5.53,0.21 -1.58,-12.5 -4.22,-5.56 -0.91,-24.49 -6.5,-4.63 -9.33,-11 -7.05,-3.58 4.77,-8.55 -6.27,-6.55 -1.63,-8.44 -7.03,2.11 -6.93,-3.89 -8.33,3.11 -8.86,-12.6 1.84,-13.18 2.68,-1.74 44.6,-4.23 10.16,5.26 8.05,-3.07 6.17,5.87 19.21,-8.67 9.42,0.94 7.64,-4.28 11.97,-0.16 6.54,7.8 15.74,-2.27 -1.56,15.86 2.37,6.41 -2.07,6.86 0.77,14.04 2.36,5.87 11.13,9.57 z"
       id="M05346"
       style="fill:#ffff80;fill-opacity:1;stroke:#000000;stroke-width:2.17696;stroke-dasharray:none;stroke-opacity:1" />
    <path
       d="m 757.03,72.81 -3.68,4.06 -19.49,6.09 -15.38,1.82 -7.24,-2.83 -6.22,-12.78 -8.36,3.81 -0.93,8.14 -5.55,7.71 3.72,12.96 -3.67,3.82 -4.38,11.73 -11.03,12.19 -4.21,14.05 4.44,7.17 -8.65,6.37 -5.9,10.73 2.48,4.59 -3.76,10.41 -13.01,1.54 -12.54,-5.19 -7.28,-15.72 -1.35,-10 5.76,-8.56 -5.68,-7.66 -5.39,-15.58 -6.18,-7.95 -5.6,-1.88 -3.91,-11.2 -0.78,-21.22 6.97,-4.46 0.17,-6.92 7.17,-1.93 10.33,1.49 4.25,8.82 6.47,0.65 0.32,-19.23 11.41,0.41 6.13,-9.72 5.95,0.01 8.84,-4.83 4.11,6.35 6.04,0.61 2.64,-7.43 2.31,-16.71 -0.52,-6.91 21.08,-16.3 4.46,1.69 17.01,-4.02 -1.26,9.82 -9.47,-1.39 -12.04,3.24 -5.69,4.37 -3.18,11.24 9.91,16.77 -3.04,6.81 6.05,11.24 3.65,2.38 1.07,8.87 4.85,4.01 12.81,-1.26 6.59,-7.58 8.68,1.52 5.08,-3.23 z"
       id="M05303"
       style="fill:#ffff80;fill-opacity:1;stroke:#000000;stroke-width:2.17696;stroke-dasharray:none;stroke-opacity:1" />
  </g>
</svg>
