<?xml version="1.0" encoding="UTF-8" standalone="no"?>
<svg
   version="1.2"
   width="454.51233"
   height="600"
   viewBox="0 0 454.51233 600"
   stroke-linecap="round"
   stroke-linejoin="round"
   id="svg1608"
   sodipodi:docname="ch.svg"
   inkscape:version="1.2 (dc2aedaf03, 2022-05-15)"
   xmlns:inkscape="http://www.inkscape.org/namespaces/inkscape"
   xmlns:sodipodi="http://sodipodi.sourceforge.net/DTD/sodipodi-0.dtd"
   xmlns="http://www.w3.org/2000/svg"
   xmlns:svg="http://www.w3.org/2000/svg">
  <defs
     id="defs1612" />
  <sodipodi:namedview
     id="namedview1610"
     pagecolor="#505050"
     bordercolor="#eeeeee"
     borderopacity="1"
     inkscape:showpageshadow="0"
     inkscape:pageopacity="0"
     inkscape:pagecheckerboard="0"
     inkscape:deskcolor="#505050"
     showgrid="false"
     inkscape:zoom="17.270547"
     inkscape:cx="85.000201"
     inkscape:cy="211.68987"
     inkscape:window-width="1920"
     inkscape:window-height="1009"
     inkscape:window-x="-8"
     inkscape:window-y="-8"
     inkscape:window-maximized="1"
     inkscape:current-layer="svg1608" />
  <g
     id="ch"
     transform="matrix(0.5683112,0,0,0.5683112,-0.06831355,-0.06832637)"
     style="fill:#ffff80;fill-opacity:1;stroke:#000000;stroke-width:1.7596;stroke-dasharray:none;stroke-opacity:1">
    <path
       d="m 292.17,811.92 0.18,6.06 9.6,6.65 9.24,-3.04 10.03,-0.1 4.13,7.38 -0.05,6.43 3.97,3.6 2.23,7.94 -0.23,6.35 -3.06,6.91 0.04,10.14 -6.5,4.12 -4.96,-5.68 0.79,-4.04 -4.73,-5.47 -12.36,6.21 -3.45,-3.19 -10.41,2.01 -1.38,3.79 -12.25,-4.06 -8.97,4.94 -9.32,8.01 -2.59,4.29 -0.51,9.69 -4.46,5.87 0.9,3.75 -10.28,8.47 -1.51,5.44 -5.38,1.33 -0.1,4.19 -14.39,-1.36 -12.24,6.61 -4.14,-6.23 -1.94,-13.15 -6.62,-12.99 -8.66,-6.72 -7.74,2.4 1.75,-6.8 -3.5,-2.06 1.41,-10.23 -9.56,-0.14 -0.68,8.8 -7.49,-5.36 -9.36,-0.67 -0.41,-2.82 -7.39,-7.27 -8.28,1.87 -3.87,-5.94 0.51,-9.29 0.1,-7.28 4.51,1.46 5.77,-6.09 12.06,-1.66 6.32,2.79 15.06,-3.41 15.97,1.47 10.06,-9.16 3.78,4.68 5.95,-2.52 4.02,1.37 4.05,-4.42 5.61,-0.41 9.72,-8.16 10.79,5.96 3.58,-1.96 0.63,-6.41 2.83,-2.67 10.01,0.33 4.49,-8.98 6.05,2.12 9.08,-1.33 7.94,7.22 z"
       id="M12223"
       style="fill:#ffff80;fill-opacity:1;stroke:#000000;stroke-width:1.7596;stroke-dasharray:none;stroke-opacity:1" />
    <path
       d="m 190.51,283.78 2.15,2.41 -4.79,11.28 4.17,2.16 -4.74,4.11 2.6,5.43 -6.88,5.69 -1.19,4.71 -5.19,-1.1 -4.43,2.02 -3.43,-1.78 -3.85,-6.47 -7.29,2.09 -1.3,-7.67 2.54,-3.12 0.97,-11.27 -5.38,-10.97 11.56,-1.9 7.99,0.99 3.8,-3.35 -2.21,-8.32 6.91,-2.25 10.6,6.23 z m -18.18,24.66 -4.7,7.52 6.23,3.68 2.83,-6.9 z"
       fill-rule="evenodd"
       id="M12224"
       style="fill:#ffff80;fill-opacity:1;stroke:#000000;stroke-width:1.7596;stroke-dasharray:none;stroke-opacity:1" />
    <path
       d="m 311.19,821.59 -9.24,3.04 -9.6,-6.65 -0.18,-6.06 -1.07,-7.52 -4.68,-8.64 -0.58,-5.65 -6.25,-10.07 -3.07,-8.87 1.34,-2.91 5.36,-7.81 2.62,-8.66 7.35,-4.48 6.1,-0.09 3.26,-3.69 -0.66,-4.76 2.17,-8.47 8.14,-2.05 9.63,-9.41 1.01,-5.33 -3.91,-4.52 1.36,-6.51 8.45,4.01 9.31,-4.35 -0.2,-8.69 5.94,-5.78 9.08,-3.34 3.55,2.39 1.25,5.72 6.86,3.76 6.18,0.18 3.8,15.05 -7.45,10.63 -4.41,-0.11 -3.81,3.93 3.09,6.67 9.18,1.6 10.27,12.77 -4.05,4.55 0.33,6.98 -7.45,7.03 -13.46,1.15 5.31,4.84 -6.25,9.78 -3.42,1.98 -0.87,11.51 1.05,7.46 -5.38,10.72 -5.24,-0.89 -6.59,-4.9 -6.36,6.09 -5.34,-3.81 -4.75,5.42 -6.98,1.9 z"
       id="M12441"
       style="fill:#ffff80;fill-opacity:1;stroke:#000000;stroke-width:1.7596;stroke-dasharray:none;stroke-opacity:1" />
    <path
       d="m 280.39,301.14 4.76,3.83 -4.2,4.04 1.24,5.36 -5,3.51 -1.28,7.18 2.63,9.96 -5.82,5.6 -1.95,6.56 5.93,7.53 -2.01,4.69 -9.16,-1.19 -0.96,-6.91 -6.59,-6.42 -5.61,4.14 -3.15,5.73 -7.74,7.96 -6.23,-0.67 -3.13,-5.65 5.66,-2.53 -11.97,-4.05 -2.91,-2.23 5.33,-5.4 -6.28,-3.17 3.37,-11.87 -2.66,-7.18 1.48,-5.34 5.96,-0.93 2.34,-7.02 6,-7.29 0.18,-13.52 2.35,-2.52 5.25,0.96 4.41,2.45 6.01,-0.73 15.17,6.71 z"
       id="M12221"
       style="fill:#ffff80;fill-opacity:1;stroke:#000000;stroke-width:1.7596;stroke-dasharray:none;stroke-opacity:1" />
    <path
       d="m 281.6,228.99 -10.28,4.33 -6.71,-4.34 -8.08,-1.91 -7.4,-3.17 -25.63,-3.44 -0.95,2.48 -8.32,-2.66 -4.1,-3.74 -7.42,0.75 -30.77,-8.5 -0.07,-7.76 4.17,-5.55 8.06,-3.06 4.54,-7.73 3.94,5.08 6.66,-9.16 11.73,7.63 9.69,3.44 3.92,6.33 5.51,3.75 9.86,-6.53 10.44,2.9 6.41,4.14 11.32,4.99 4.75,10.1 z"
       id="M12222"
       style="fill:#ffff80;fill-opacity:1;stroke:#000000;stroke-width:1.7596;stroke-dasharray:none;stroke-opacity:1" />
    <path
       d="m 128.18,848.56 -0.51,9.29 -3.46,1.48 -1.21,8.01 -4.13,3.84 -12.75,-0.6 -8.99,3.99 -13.49,-1.27 -5.05,3.13 -4.6,-0.54 -8.52,6.85 -5.48,0.41 -5.52,-0.03 -2.6,-11.94 4.89,-8.59 5.28,-5.4 -1.59,-7.54 -4.81,-6.37 -1.3,-5.28 -7.15,-3.05 7.52,-3.21 6.72,-0.6 11.45,-4.42 9.56,3.38 2.34,3.37 11.69,-2.69 9.38,2.98 1.29,4.66 7.22,8.35 z"
       id="M12463"
       style="fill:#ffff80;fill-opacity:1;stroke:#000000;stroke-width:1.7596;stroke-dasharray:none;stroke-opacity:1" />
    <path
       d="m 120.03,166.26 0.23,9.58 -4.07,10.49 10.72,-5.85 3.47,7.28 -0.86,6.18 4.84,0.32 1.03,14.17 -7.49,0.41 -0.6,3.41 8.87,0.28 -0.96,11.15 4.13,-2.49 3.84,2.92 0.44,15.25 -8.37,-0.82 -9.4,-13.12 -4.09,0.66 -7.02,10.89 -10.93,5.8 -6.38,-0.11 1.09,-12.16 4.36,-7.87 2.99,-9.9 -3.92,-10.91 -3.52,-14.11 -10.82,-17.96 19.42,-4.53 7.46,2.62 z"
       id="M12220"
       style="fill:#ffff80;fill-opacity:1;stroke:#000000;stroke-width:1.7596;stroke-dasharray:none;stroke-opacity:1" />
    <path
       d="m 360.53,259.58 -4.01,1.27 -0.72,-10.03 -5.5,1.47 0.24,-6.75 -7.14,-4.83 -0.82,-7.72 -13.8,1.94 -6.72,3.72 -7.44,-1.59 -7.72,-4.44 -10.09,-3.4 13.46,-5.55 13.43,-8.43 7.16,-0.26 12.22,6.62 7.88,-1.14 15.76,-12.25 11.03,-4.24 5.87,2.37 -5.08,10.82 -1.86,11.02 2.12,12.76 2.51,3.15 -5.26,8.77 -7.69,-4.08 -1.12,3.3 -7.72,5.28 z"
       id="M12329"
       style="fill:#ffff80;fill-opacity:1;stroke:#000000;stroke-width:1.7596;stroke-dasharray:none;stroke-opacity:1" />
    <path
       d="m 393.46,315.23 1.94,6.23 -6.68,1.14 -5.4,7.87 5.25,9.45 4.89,4.5 -4.86,2.13 -3.48,5.32 -5.06,3.17 -6.3,-0.88 -5.91,3.28 -5.42,-12.94 -4.69,0.41 -2.65,-7.26 5.52,-2.83 3.55,-5.06 -2.27,-7.45 4,-2.73 -0.88,-10.51 7.52,0.12 3.98,-2.47 3.19,5.27 5.83,-5.29 z"
       id="M12322"
       style="fill:#ffff80;fill-opacity:1;stroke:#000000;stroke-width:1.7596;stroke-dasharray:none;stroke-opacity:1" />
    <path
       d="m 691.58,257.39 -12.83,6.47 -7.11,1.55 -1.79,8.73 6.79,1.42 -0.11,6.49 3.75,1.49 -3.78,8.38 -8.74,-7.58 -2.86,4.57 -7.2,5.21 -1.84,5.58 -6.26,-8.36 -5.08,-11.73 -11.7,2.06 -6.28,-7.71 -3.6,0.87 -0.33,-5.97 7,-2.11 0.3,-4.71 7.25,-5.31 -1.9,-9.47 6.3,-2.09 -1.81,-13.04 -2.46,-3.9 2.26,-8.05 13.25,2.22 14.6,4.79 14.09,10.13 7.61,11.88 z"
       id="M12349"
       style="fill:#ffff80;fill-opacity:1;stroke:#000000;stroke-width:1.7596;stroke-dasharray:none;stroke-opacity:1" />
    <path
       d="m 570.04,303.57 -2.09,2.7 -7.17,1.19 -5.14,-3.49 -2.5,5.79 -5.34,-1.05 -2.45,-4.94 -8.11,1.17 1.84,7.42 -3.32,13.31 -11.51,9.94 0.1,2.94 -3.93,-0.46 -9.25,20.79 -1.37,5.39 -7.89,-6.14 -4.93,-12.21 -3.47,0.37 -3.93,-4.89 -5.93,-3.12 4.64,-8.25 -0.44,-3.93 -8.63,-22.27 1.29,-8.09 -6.98,-3.39 -6.33,3.09 -2.49,-4.05 -0.5,-7.46 3.75,-2.82 7.37,4.61 4.31,5.29 8.82,-4.85 -2.23,-4.61 7.15,-2.23 0.98,-13.04 5.32,-3.3 11.69,8.07 -0.35,4.98 9.24,1.68 4.79,-6.46 5.46,-3.72 5.33,5.18 -1.48,6.2 7.9,7.02 5.5,-1.29 10.01,6.46 6.65,1.03 z"
       id="M12347"
       style="fill:#ffff80;fill-opacity:1;stroke:#000000;stroke-width:1.7596;stroke-dasharray:none;stroke-opacity:1" />
    <path
       d="m 235.25,362.04 6.23,0.67 7.74,-7.96 3.15,-5.73 5.61,-4.14 6.59,6.42 0.96,6.91 9.16,1.19 4.81,4.92 2.82,-0.13 1.37,0.44 2.32,2.02 -4.06,-2.21 -2.74,0.35 -2.59,2.86 -2.14,15.51 3.43,2.55 6.15,-0.45 3.94,15.58 5.8,4.44 7.22,-7.66 1.99,0.54 11.27,11.68 -5.12,9.69 5.95,2.07 9.74,-17.17 -1.71,-4.09 6.19,-3.17 4.51,2.29 2.42,9.07 4.07,7.48 8.96,1.61 6.91,5.02 4.85,0.1 6.12,-0.82 0.83,16.9 -4.37,6.65 10.13,10.65 -0.3,5 8.53,7.78 1.13,5.74 3.96,5.05 -2.31,4.36 0.64,6.52 -7.5,0.38 -0.29,5.22 7.9,9.37 -3.05,6.73 8.44,4.04 -4.99,3.14 -4.69,-3.08 -2.67,5.3 -5.65,4.84 -1.6,11.98 -0.68,-5.16 -8.19,-1.94 -2.4,6.48 -1.14,-5.45 -8.47,-4.33 -7.37,1.48 -1.56,-5.39 -6.2,-7.09 7.46,-13.51 -3.39,-6.65 -12.88,-3.93 -5.74,5.16 -4.93,-3.23 -2.26,5.91 -8.66,3.33 -5.37,-3.01 -9.01,0.57 -14.98,-13.67 -5.64,3.45 -10.42,-3.03 -0.3,-1.96 -17.04,-7.32 4.01,-4.58 13.74,-2.46 -3.92,-17.86 -9.94,-8.08 -1.8,-4.34 -7.84,-8.42 -3.73,2.51 6.22,7.48 -1.93,4.48 -10.19,-12.26 -29.22,-29.34 -6.48,-7.32 15.78,-22.3 17.25,0.96 z m 1.89,93.47 13.4,0.69 1.53,8.56 4.73,6.32 -18.3,0.86 -3.22,-16.54 z"
       fill-rule="evenodd"
       id="M12100"
       style="fill:#ffff80;fill-opacity:1;stroke:#000000;stroke-width:1.7596;stroke-dasharray:none;stroke-opacity:1" />
    <path
       d="m 450.71,190.1 -5.6,-4.72 0.28,-6.31 14.7,-5.86 7.97,-0.19 10.89,2.22 8.66,-4.1 1.68,3.02 -5.66,5.24 -3.08,12.3 2.24,3.91 -2.41,9.35 4.28,-0.59 6.85,5.11 -2.26,4.05 -14.5,-2.07 -9.94,10.71 -6.23,0.59 4.69,-17.14 -6.37,-9.59 -4.98,-1.69 z"
       id="M12342"
       style="fill:#ffff80;fill-opacity:1;stroke:#000000;stroke-width:1.7596;stroke-dasharray:none;stroke-opacity:1" />
    <path
       d="m 328.25,870.24 -0.04,-10.14 3.06,-6.91 0.23,-6.35 -2.23,-7.94 -3.97,-3.6 0.05,-6.43 -4.13,-7.38 -10.03,0.1 0.74,-4.86 6.98,-1.9 4.75,-5.42 5.34,3.81 6.36,-6.09 6.59,4.9 5.24,0.89 5.38,-10.72 -1.05,-7.46 0.87,-11.51 3.42,-1.98 6.25,-9.78 -5.31,-4.84 13.46,-1.15 7.45,-7.03 5.06,-0.41 6.36,4.65 3.09,9.88 8.33,5.81 3.5,4.42 -6.88,5.65 0.02,5.44 -3.46,4.87 4.91,5.89 3.93,11.24 5.84,2.08 5.8,-2.79 10.45,1.19 -8.31,8.2 -1.69,8 -3.86,5.57 -1.55,10.1 -9.05,0.94 -0.03,-7.48 -5.77,-3.55 -5.12,0.6 -8.12,14.25 -6.46,-0.08 -13.52,-3.18 -7.3,4.24 -0.36,4.48 -9.13,5.33 -1.31,5.86 -8.89,-1.29 z"
       id="M12218"
       style="fill:#ffff80;fill-opacity:1;stroke:#000000;stroke-width:1.7596;stroke-dasharray:none;stroke-opacity:1" />
    <path
       d="m 337.85,693.45 0.2,8.69 -9.31,4.35 -8.45,-4.01 -1.36,6.51 3.91,4.52 -1.01,5.33 -9.63,9.41 -8.14,2.05 -2.17,8.47 0.66,4.76 -3.26,3.69 -6.1,0.09 -7.35,4.48 -2.62,8.66 -5.36,7.81 -2.93,-4.9 -8.53,-6.24 -4.83,-16.84 1.25,-17.23 -4.12,-5.88 2.17,-13.62 3.37,-1.91 -2.84,-7.7 -6.45,-2.65 -0.51,-4.6 9.05,-7.58 0.22,-3.54 5.17,-5.35 -3.44,-7.3 -0.61,-5.78 -5.92,-10.85 -6.46,-7.62 -4.47,3.65 -6.77,-5.02 1.6,-6.34 -1.51,-10.02 1.96,-6.27 -2.35,-4.83 0.33,-7.71 -6.59,-9.91 -15.02,5.76 -11.36,1.86 -1.97,-5.17 1.45,-7.15 -2.32,-6.89 -12.17,-19.29 -3.13,-4.41 -0.35,-6.96 -4.1,-4.1 6.99,-10.17 7.95,4.48 2.27,-3.17 -7.85,-5.58 6.16,-8.94 5.98,3.96 2.59,-3.8 -5.8,-4.04 16.83,-24.09 2.27,0.81 6.75,-6.3 9.35,8.7 2.17,-2.44 1.61,-10.21 4.08,-0.47 10.2,4.5 2.25,-0.63 10.42,3.03 5.64,-3.45 14.98,13.67 9.01,-0.57 5.37,3.01 8.66,-3.33 2.26,-5.91 4.93,3.23 5.74,-5.16 12.88,3.93 3.39,6.65 -7.46,13.51 6.2,7.09 1.56,5.39 7.37,-1.48 8.47,4.33 1.14,5.45 -6.3,7.22 0.7,3.79 -8.18,1.33 -9.28,-4.42 -8.93,-1.28 -3.73,1.8 -3.36,8.82 -5.15,4.2 -5.92,-3.51 -1.54,4.14 -7.05,0.1 0.34,7.43 -2.82,3.5 11.38,7.55 -1.4,9.32 -7.01,6.24 5.35,8.39 -0.99,4.53 6.7,7.05 -1.18,2.81 4.77,10.56 3.48,1.04 4.8,10.7 -5.05,0.79 -1.34,6.75 5.66,9.12 2.33,11.67 3.38,5.38 -0.92,5.83 5.37,5.02 z"
       id="M12219"
       style="fill:#ffff80;fill-opacity:1;stroke:#000000;stroke-width:1.7596;stroke-dasharray:none;stroke-opacity:1" />
    <path
       d="m 225.81,349.81 11.97,4.05 -5.66,2.53 3.13,5.65 -11.16,15.63 -17.25,-0.96 -15.78,22.3 -4.27,-4.43 -18.72,2.68 -0.68,-4.95 11.74,0.29 -0.72,-5.12 2.14,-2.82 -4.99,-8.43 7.75,-14.97 3.6,3 10.73,0.98 4.73,-4.71 10.88,3.82 9.4,-3.99 -1.44,-7.41 z"
       id="M12216"
       style="fill:#ffff80;fill-opacity:1;stroke:#000000;stroke-width:1.7596;stroke-dasharray:none;stroke-opacity:1" />
    <path
       d="m 501.91,358.13 7.89,6.14 1.37,-5.39 9.25,-20.79 3.93,0.46 0.4,2.15 11.16,11.25 -2.52,6.86 3.66,10.79 7.25,1.91 1.28,8.84 5.54,-4.53 10.26,8.07 2.39,3.92 -8.44,7.08 10.5,15.55 2.28,0.33 8.33,9.83 -24.14,22.65 -13.43,-13.12 -7.3,5.95 -4.53,-5.91 1.07,-4.16 6.54,-6.06 -3.95,-7.14 -5.41,5.23 -15.47,-11.38 9.17,-9.15 -20.17,-10.41 -4.86,3.97 -6.01,-4.92 -2.57,-9.13 -10.96,-1.74 0.47,-1.98 12.84,-9.46 7.57,-4.17 z"
       id="M12410"
       style="fill:#ffff80;fill-opacity:1;stroke:#000000;stroke-width:1.7596;stroke-dasharray:none;stroke-opacity:1" />
    <path
       d="m 190.51,283.78 2.61,-11.08 -10.6,-6.23 -6.91,2.25 -6.41,-5.46 -7.31,7.49 -8.18,-3.88 0.02,-4.66 -6.34,-1.12 -4.3,-7.02 -1.39,-9.34 -6.45,-6.19 8.37,0.82 -0.44,-15.25 -3.84,-2.92 -4.13,2.49 0.96,-11.15 -8.87,-0.28 0.6,-3.41 7.49,-0.41 -1.03,-14.17 -4.84,-0.32 0.86,-6.18 -3.47,-7.28 -10.72,5.85 4.07,-10.49 -0.23,-9.58 5.83,-1.01 4.81,-6.42 9.94,-5.17 2.08,-4.11 9.68,8.04 8.56,3.54 5.95,6.97 7.82,4.92 11.76,-1.65 4.03,0.93 8.75,8.31 -6.66,9.16 -3.94,-5.08 -4.54,7.73 -8.06,3.06 -4.17,5.55 0.07,7.76 9.29,8.99 14.21,-0.28 2.98,4.23 9.56,-2.47 8.15,9.3 6.42,-5.62 0.95,-2.48 25.63,3.44 7.4,3.17 -1.5,12.13 -7.22,2.5 -4.46,4.61 -2.67,-3.63 -9.94,-0.8 -3.98,-2.37 -8.83,-1.39 -5.44,2.78 -5.71,6.96 -6.69,10.98 -1.71,11.34 z"
       id="M12217"
       style="fill:#ffff80;fill-opacity:1;stroke:#000000;stroke-width:1.7596;stroke-dasharray:none;stroke-opacity:1" />
    <path
       d="m 622.94,274.83 3.6,-0.87 6.28,7.71 11.7,-2.06 5.08,11.73 6.26,8.36 1.84,-5.58 7.2,-5.21 2.86,-4.57 8.74,7.58 5.55,3 0.7,8.36 11.03,2.35 2.76,2.38 -2.6,15.36 0.84,4.63 4.95,1.46 7.04,-5.83 4.52,8.65 0.26,4.2 -6.18,2.93 -4.38,13.13 5.37,3.03 10.16,-0.94 3.83,4.53 -7.77,4.04 -7.99,0.82 -10.63,-1.19 -6.77,-5.97 -15.73,0.9 -19.93,6.8 -14.57,7.34 -13.72,9.38 -2.4,-4.96 -6.82,2.58 -1.55,-12.7 -4.86,-1.97 2.5,-7.96 -1.59,-6.69 -16.08,0.06 -2.33,-3.66 9.17,-4.64 5.47,1.09 0.31,-14.81 3.42,-3.37 -7.81,-3.39 -18.86,4.77 -1.59,-4.84 5.12,-4.86 -4.47,-7.21 4.52,-9.74 12.77,-6.32 5.48,-5.86 3.08,5.18 5.29,-6.61 5.41,0.56 6.45,-5.47 z"
       id="M12215"
       style="fill:#ffff80;fill-opacity:1;stroke:#000000;stroke-width:1.7596;stroke-dasharray:none;stroke-opacity:1" />
    <path
       d="m 377.66,758.45 -0.33,-6.98 4.05,-4.55 -10.27,-12.77 -9.18,-1.6 -3.09,-6.67 3.81,-3.93 4.41,0.11 7.45,-10.63 -3.8,-15.05 4.61,-4.88 8.1,-2.11 3.71,-10.49 4.9,-3.89 4.03,0.28 8.06,-7.21 6.15,1.81 10.88,-1.52 8.12,-0.3 9.18,2.89 5.92,-0.27 -1.63,11.81 7.66,-0.89 3.52,-3.94 7.01,3.72 5.63,3.63 5.55,10.63 0.84,8.65 -7,15.47 -3.3,15.06 0.63,13.05 3.09,2.28 -0.29,12.84 -9.01,23.23 1.04,6.95 -6.37,9.04 -5.18,-4.75 -6.77,-0.59 -5.41,-3.4 1.77,-13.82 -17.48,2.71 -1.12,-3.54 -9.53,-0.56 -4.02,4.53 -3.5,-4.42 -8.33,-5.81 -3.09,-9.88 -6.36,-4.65 z"
       id="M12238"
       style="fill:#ffff80;fill-opacity:1;stroke:#000000;stroke-width:1.7596;stroke-dasharray:none;stroke-opacity:1" />
    <path
       d="m 274.69,359.4 2.01,-4.69 -5.93,-7.53 1.95,-6.56 5.82,-5.6 -2.63,-9.96 1.28,-7.18 5,-3.51 -1.24,-5.36 4.2,-4.04 11.65,9.38 8.4,0.18 0.4,0.1 6.98,7.52 6.19,-2.96 0.67,-7.51 2.69,-7.28 3.72,-2.53 10.96,4.9 21.82,15.25 3.26,0.29 2.27,7.45 -3.55,5.06 -5.52,2.83 2.65,7.26 4.69,-0.41 5.42,12.94 5.91,-3.28 6.3,0.88 5.06,-3.17 -3.17,12.81 -3.92,2.56 0.93,8.84 -4.93,-1.12 -5.85,2.51 1.38,5.21 -2.14,4.16 -5.15,-0.87 -0.46,7.69 -6.41,5.82 6.16,6.5 -1.34,13.78 0.83,2.98 -4.85,-0.1 -6.91,-5.02 -8.96,-1.61 -4.07,-7.48 -2.42,-9.07 -4.51,-2.29 1.15,-7.19 -4.95,-7.88 0.78,-3.51 -4.98,-9.22 4.52,-10.11 -1.34,-6.86 -9.98,1.06 -10.81,8.35 -13.03,-0.69 -7.43,-4.62 -1.35,7.04 2.76,1.55 1.34,1.56 -2.32,-2.02 -1.37,-0.44 -2.82,0.13 z"
       id="M12212"
       style="fill:#ffff80;fill-opacity:1;stroke:#000000;stroke-width:1.7596;stroke-dasharray:none;stroke-opacity:1" />
    <path
       d="m 371.31,538.49 1.6,-11.98 5.65,-4.84 2.67,-5.3 4.69,3.08 4.99,-3.14 -8.44,-4.04 3.05,-6.73 -7.9,-9.37 0.29,-5.22 7.5,-0.38 -0.64,-6.52 2.31,-4.36 6.74,5.94 7.39,-3.11 7.01,-0.42 -0.04,5.25 4.83,4.24 4.1,8.69 5.01,3.67 2.9,-6.43 9.73,8.6 -3.01,8.74 4.38,4.66 13.12,2.62 -1.06,6.49 3.74,4.15 4.06,-8.46 7.28,3.42 2.29,-2.92 18.82,9.69 -10.39,23.26 -21.26,-4.5 -3.42,1.11 -1.77,-10.53 -4.65,-5.99 -14.41,-2.02 -3.33,10.32 -8.41,-4.8 -6.98,-1.59 2.62,-5.22 -11.65,-3.28 -16.39,4.73 -7.13,-1.87 z"
       id="M12239"
       style="fill:#ffff80;fill-opacity:1;stroke:#000000;stroke-width:1.7596;stroke-dasharray:none;stroke-opacity:1" />
    <path
       d="m 387.08,479.69 -3.96,-5.05 -1.13,-5.74 3.87,0.21 18.96,-11.76 12.89,0.58 -9.12,-6.31 -2.23,-9.12 2.99,-3.73 -0.93,-1.52 -6.31,1.33 -4.58,-4.81 4.29,-3.38 -5.05,-7.01 6.21,-5.39 6.5,4.15 2.58,-4.71 4.25,5.95 1.68,6.22 -4.72,9.84 11.65,0.86 4.69,-3.77 5.06,7.09 7.49,-3.34 8.23,0.95 1.37,10.19 6.39,6.51 10.83,-5.41 3.12,2.99 4.26,-5.94 4.34,-0.82 2.26,11.99 4.65,12.74 -5.52,14.29 -3.72,3.76 -2.13,12.6 -2.86,4.97 -4.08,-2.53 -12.82,2.92 13.54,7.04 -4.47,8.29 -2.29,2.92 -7.28,-3.42 -4.06,8.46 -3.74,-4.15 1.06,-6.49 -13.12,-2.62 -4.38,-4.66 3.01,-8.74 -9.73,-8.6 -2.9,6.43 -5.01,-3.67 -4.1,-8.69 -4.83,-4.24 0.04,-5.25 -7.01,0.42 -7.39,3.11 z"
       id="M12213"
       style="fill:#ffff80;fill-opacity:1;stroke:#000000;stroke-width:1.7596;stroke-dasharray:none;stroke-opacity:1" />
    <path
       d="m 639.55,220.18 -2.26,8.05 2.46,3.9 1.81,13.04 -6.3,2.09 1.9,9.47 -7.25,5.31 -0.3,4.71 -7,2.11 0.33,5.97 0.93,5.63 -6.45,5.47 -5.41,-0.56 -5.29,6.61 -3.08,-5.18 -5.48,5.86 -12.77,6.32 -4.52,9.74 -6.71,0.78 -4.12,-5.93 -5.62,-11.44 -6.65,-1.03 -10.01,-6.46 -5.5,1.29 -7.9,-7.02 1.48,-6.2 -5.33,-5.18 -5.46,3.72 -4.79,6.46 -9.24,-1.68 0.35,-4.98 -11.69,-8.07 2.88,-16.84 8.98,-6.74 -3.13,-3.57 -0.16,-6.46 5.92,0.93 0.2,-5.88 -6.73,-3.59 -1.92,-6.87 -5.7,-6.69 -4.16,4.62 -4.35,-2.41 -6.85,-5.11 -4.28,0.59 2.41,-9.35 -2.24,-3.91 3.08,-12.3 5.66,-5.24 -1.68,-3.02 9.6,-3.23 7.12,-10.16 9.06,6.02 9.58,8.87 4.36,-5.06 -2.48,-11.64 7.19,-4.66 1.75,-9.28 8.24,-12.64 11.2,9.59 7.44,8.06 14.22,7 9.54,5.93 7.58,6.71 5.21,9.19 7.37,2.52 6.52,6.49 6.06,12.71 8.78,14.74 1.36,4.88 z"
       id="M12236"
       style="fill:#ffff80;fill-opacity:1;stroke:#000000;stroke-width:1.7596;stroke-dasharray:none;stroke-opacity:1" />
    <path
       d="m 360.04,537.87 2.4,-6.48 8.19,1.94 0.68,5.16 5.89,-4.36 7.13,1.87 16.39,-4.73 11.65,3.28 -2.62,5.22 6.98,1.59 8.41,4.8 3.33,-10.32 14.41,2.02 4.65,5.99 1.77,10.53 -2.68,6.03 -5.7,-5 -4.43,0.14 -1.68,6.79 -7.58,4.15 -0.28,5.36 -5.51,2.06 -1.32,14.83 5.46,2.32 -13.23,12.15 -4.01,1.31 -0.68,9.95 -3.33,1.92 -1.83,1.31 3.54,9.84 -6.11,0.53 -3.03,8.05 -7.08,2.4 -15.06,-3 -0.81,-8.47 2.87,-3.42 -1.48,-5.93 -12.15,5.73 -5.01,-9.28 4.81,-3.51 1.5,-8.56 -2.01,-3.49 -1.47,-6.93 -6.31,-5.35 -1.12,-10.43 1.77,-13.16 2.67,-3.24 -3.58,-10.6 -0.7,-3.79 z"
       id="M12210"
       style="fill:#ffff80;fill-opacity:1;stroke:#000000;stroke-width:1.7596;stroke-dasharray:none;stroke-opacity:1" />
    <path
       d="m 474.42,375.28 10.96,1.74 2.57,9.13 6.01,4.92 4.86,-3.97 20.17,10.41 -9.17,9.15 15.47,11.38 5.41,-5.23 3.95,7.14 -6.54,6.06 -1.07,4.16 4.53,5.91 7.3,-5.95 13.43,13.12 -21.5,22.75 -12.15,15.89 -6,9.57 -16.3,-14.64 -8.74,-3.34 -4.65,-12.74 -2.26,-11.99 -4.34,0.82 -4.26,5.94 -3.12,-2.99 -10.83,5.41 -6.39,-6.51 -1.37,-10.19 -8.23,-0.95 -7.49,3.34 -5.06,-7.09 -4.69,3.77 -11.65,-0.86 4.72,-9.84 -1.68,-6.22 -4.25,-5.95 -5.71,-7.18 3.3,-10.98 7.67,-6.91 7.78,-0.06 -5.12,-7.15 6.45,-4.06 -1.73,-3.33 9.6,-8.78 9.27,5.15 2.92,-1.77 9.4,5.88 6.58,-3.81 9.1,4.75 z"
       id="M12237"
       style="fill:#ffff80;fill-opacity:1;stroke:#000000;stroke-width:1.7596;stroke-dasharray:none;stroke-opacity:1" />
    <path
       d="m 362.05,295.17 0.05,-0.62 0.23,0.59 -0.3,0.37 0.02,-0.2 z m -1.52,-35.59 -1.01,-2.22 7.72,-5.28 1.12,-3.3 7.69,4.08 5.26,-8.77 -2.51,-3.15 -2.12,-12.76 1.86,-11.02 5.08,-10.82 13.51,6.11 10.54,-1.38 8.51,-5.58 9.58,-9.54 3.35,-7.69 7.59,-6.56 8.69,-2.63 -0.28,6.31 5.6,4.72 1.21,4.24 4.98,1.69 6.37,9.59 -4.69,17.14 6.23,-0.59 9.94,-10.71 14.5,2.07 2.26,-4.05 4.35,2.41 4.16,-4.62 5.7,6.69 1.92,6.87 6.73,3.59 -0.2,5.88 -5.92,-0.93 0.16,6.46 3.13,3.57 -8.98,6.74 -2.88,16.84 -5.32,3.3 -0.98,13.04 -7.15,2.23 2.23,4.61 -8.82,4.85 -4.31,-5.29 -7.37,-4.61 -3.75,2.82 0.5,7.46 -6.76,6.12 4.52,3.97 -2.82,5.87 4.35,2.98 -1.65,9.91 -10.42,1.18 1.23,8.15 4.65,3.28 -4.46,3.92 -5.44,-4.81 -1.95,-8.05 -6.16,-1.33 -0.13,7.18 -3.61,-0.65 -0.27,-8.75 -4.21,-3.2 -0.92,-5.22 -9.17,-9.05 -7.57,-3.08 -4.83,-10.51 -3.96,3.11 -5.14,12.28 1.24,3.67 -7.77,6.87 -7.93,-8.53 -5.83,5.29 -3.19,-5.27 -3.98,2.47 -7.52,-0.12 -3.86,-8.29 0.85,-4.73 2.45,-0.2 -1.65,-10.62 -5.87,-2.93 -1.36,-5.95 0.11,-0.49 0.01,-0.02 0.01,-0.07 7,-3.71 3.24,-5.64 z"
       fill-rule="evenodd"
       id="M12211"
       style="fill:#ffff80;fill-opacity:1;stroke:#000000;stroke-width:1.7596;stroke-dasharray:none;stroke-opacity:1" />
    <path
       d="m 127.67,857.85 3.87,5.94 8.28,-1.87 7.39,7.27 0.41,2.82 9.36,0.67 7.49,5.36 0.68,-8.8 9.56,0.14 -1.41,10.23 3.5,2.06 -1.75,6.8 7.74,-2.4 8.66,6.72 6.62,12.99 1.94,13.15 4.14,6.23 -9.38,6.98 -5.49,6.91 -2.89,-0.74 -7.44,4.87 -7.26,7.24 -8.77,10.9 -3.02,5.86 -3.28,14.71 -6.35,12.8 -1.43,6.09 3.19,10.8 0.01,5.78 -2.76,6.69 -6.37,8.24 -7.24,5.64 -0.12,4.07 -8.98,4.54 -6.89,1.58 -2.18,3.61 -5.83,-0.72 -4.14,2.98 -6.56,-1.86 -7.23,2.87 -7.02,-0.28 -6.27,-3.49 -13.27,3.38 -15.61,-7.16 0.13,-0.04 0.04,-0.01 6.41,0.52 13.73,-3.53 4.12,-7.56 5.48,2.54 8.89,-3.78 2.41,0.88 6.46,-6.18 4.84,4.74 4.62,-2.39 10.14,1.01 5.97,-11.76 -6.26,-3.88 -5.88,-1.04 -4.95,-10.29 0.83,-7.44 4.37,-11.29 13.49,-3.92 1.48,-7.36 6.74,-7.46 0.4,-3.18 -5.73,-10.54 0.15,-8.13 -9.5,7.58 -10.88,-0.66 -0.19,6.74 -12.32,2.66 -2.41,-15.52 -0.32,-13.63 -4.85,-4.9 -5.12,5.18 -5.23,1.96 -6.4,5.32 -14.41,-0.13 -5.9,0.93 -10.28,-5.53 2.29,-4.39 6.79,4.38 4.73,-3.03 1.83,-7.9 -7.75,-15.33 0.12,-4.18 11.97,-5.59 2.92,-6.59 -4.55,-11.58 5.48,-0.41 8.52,-6.85 4.6,0.54 5.05,-3.13 13.49,1.27 8.99,-3.99 12.75,0.6 4.13,-3.84 1.21,-8.01 z"
       id="M12234"
       style="fill:#ffff80;fill-opacity:1;stroke:#000000;stroke-width:1.7596;stroke-dasharray:none;stroke-opacity:1" />
    <path
       d="m 524.35,338.55 -0.1,-2.94 11.51,-9.94 3.32,-13.31 -1.84,-7.42 8.11,-1.17 2.45,4.94 5.34,1.05 2.5,-5.79 5.14,3.49 7.17,-1.19 2.09,-2.7 4.12,5.93 6.71,-0.78 4.47,7.21 -5.12,4.86 1.59,4.84 18.86,-4.77 7.81,3.39 -3.42,3.37 -0.31,14.81 -5.47,-1.09 -9.17,4.64 2.33,3.66 16.08,-0.06 1.59,6.69 -2.5,7.96 4.86,1.97 1.55,12.7 6.82,-2.58 2.4,4.96 -9.58,7.13 -37.22,32.19 -8.33,-9.83 -2.28,-0.33 -10.5,-15.55 8.44,-7.08 -2.39,-3.92 -10.26,-8.07 -5.54,4.53 -1.28,-8.84 -7.25,-1.91 -3.66,-10.79 2.52,-6.86 -11.16,-11.25 z"
       id="M12235"
       style="fill:#ffff80;fill-opacity:1;stroke:#000000;stroke-width:1.7596;stroke-dasharray:none;stroke-opacity:1" />
    <path
       d="m 192.04,299.63 -4.17,-2.16 4.79,-11.28 -2.15,-2.41 7.87,-13.6 1.71,-11.34 6.69,-10.98 5.71,-6.96 5.44,-2.78 8.83,1.39 3.98,2.37 9.94,0.8 2.67,3.63 -4.17,8.59 4.3,5.84 10.04,3.62 -0.72,7.01 -6.58,12.93 -5.25,-0.96 -4.89,-6.77 -9.47,-6.5 -1.6,12.08 -3.88,7.98 -15.64,8.44 -6.7,-4.15 z"
       id="M12232"
       style="fill:#ffff80;fill-opacity:1;stroke:#000000;stroke-width:1.7596;stroke-dasharray:none;stroke-opacity:1" />
    <path
       d="m 393.46,344.42 -4.89,-4.5 -5.25,-9.45 5.4,-7.87 6.68,-1.14 -1.94,-6.23 7.77,-6.87 -1.24,-3.67 5.14,-12.28 3.96,-3.11 4.83,10.51 7.57,3.08 9.17,9.05 0.92,5.22 4.21,3.2 0.27,8.75 3.61,0.65 -1.44,4.69 7.21,4.51 1.99,5.59 4.76,1.64 -2.16,7.87 -6.68,2.43 8.67,9.86 10.43,-0.25 0.02,8.33 -6.58,3.81 -9.4,-5.88 -2.92,1.77 -9.27,-5.15 -9.6,8.78 -13.66,-5.88 -4.06,-3.38 -3.19,-7.94 2.07,-3.46 -0.43,-7.25 -6.62,2.26 -1.19,-6.42 z"
       id="M12233"
       style="fill:#ffff80;fill-opacity:1;stroke:#000000;stroke-width:1.7596;stroke-dasharray:none;stroke-opacity:1" />
    <path
       d="m 385.12,351.87 3.48,-5.32 4.86,-2.13 4.16,1.27 1.19,6.42 6.62,-2.26 0.43,7.25 -2.07,3.46 3.19,7.94 4.06,3.38 13.66,5.88 1.73,3.33 -6.45,4.06 5.12,7.15 -7.78,0.06 -7.67,6.91 -3.3,10.98 5.71,7.18 -2.58,4.71 -6.5,-4.15 -6.21,5.39 5.05,7.01 -4.29,3.38 4.58,4.81 6.31,-1.33 0.93,1.52 -2.99,3.73 2.23,9.12 9.12,6.31 -12.89,-0.58 -18.96,11.76 -3.87,-0.21 -8.53,-7.78 0.3,-5 -10.13,-10.65 4.37,-6.65 -0.83,-16.9 -6.12,0.82 -0.83,-2.98 1.34,-13.78 -6.16,-6.5 6.41,-5.82 0.46,-7.69 5.15,0.87 2.14,-4.16 -1.38,-5.21 5.85,-2.51 4.93,1.12 -0.93,-8.84 3.92,-2.56 z"
       id="M12230"
       style="fill:#ffff80;fill-opacity:1;stroke:#000000;stroke-width:1.7596;stroke-dasharray:none;stroke-opacity:1" />
    <path
       d="m 280.39,301.14 -8.58,-8.41 -15.17,-6.71 -6.01,0.73 -4.41,-2.45 6.58,-12.93 0.72,-7.01 -10.04,-3.62 -4.3,-5.84 4.17,-8.59 4.46,-4.61 7.22,-2.5 1.5,-12.13 8.08,1.91 6.71,4.34 10.28,-4.33 7.34,2.65 7.87,-2.42 10.09,3.4 7.72,4.44 7.44,1.59 6.72,-3.72 13.8,-1.94 0.82,7.72 7.14,4.83 -0.24,6.75 5.5,-1.47 0.72,10.03 -9.12,2.54 -3.94,5.61 11.86,6.21 0.1,6.58 0.19,0.47 0.05,0.09 0.27,0.43 5.71,7.5 0.36,5.77 -0.85,4.73 3.86,8.29 0.88,10.51 -4,2.73 -3.26,-0.29 -21.82,-15.25 0.72,-1.57 -9.71,-8.98 -3.57,-0.61 -13.37,16.47 -3.32,1.66 -9.65,-0.36 z"
       id="M12231"
       style="fill:#ffff80;fill-opacity:1;stroke:#000000;stroke-width:1.7596;stroke-dasharray:none;stroke-opacity:1" />
    <path
       d="m 464.71,291.39 2.49,4.05 6.33,-3.09 6.98,3.39 -1.29,8.09 8.63,22.27 0.44,3.93 -4.64,8.25 5.93,3.12 3.93,4.89 3.47,-0.37 4.93,12.21 -6.61,1.54 -7.57,4.17 -12.84,9.46 -0.47,1.98 -2.85,3.9 -9.1,-4.75 -0.02,-8.33 -10.43,0.25 -8.67,-9.86 6.68,-2.43 2.16,-7.87 -4.76,-1.64 -1.99,-5.59 -7.21,-4.51 1.44,-4.69 0.13,-7.18 6.16,1.33 1.95,8.05 5.44,4.81 4.46,-3.92 -4.65,-3.28 -1.23,-8.15 10.42,-1.18 1.65,-9.91 -4.35,-2.98 2.82,-5.87 -4.52,-3.97 z"
       id="M12409"
       style="fill:#ffff80;fill-opacity:1;stroke:#000000;stroke-width:1.7596;stroke-dasharray:none;stroke-opacity:1" />
    <path
       d="m 484.37,534.51 -18.82,-9.69 4.47,-8.29 -13.54,-7.04 12.82,-2.92 4.08,2.53 2.86,-4.97 2.13,-12.6 3.72,-3.76 5.52,-14.29 8.74,3.34 16.3,14.64 -4.49,10.47 -3.75,1.44 -7.85,10.14 z"
       id="M12403"
       style="fill:#ffff80;fill-opacity:1;stroke:#000000;stroke-width:1.7596;stroke-dasharray:none;stroke-opacity:1" />
    <path
       d="m 356.42,686.72 -3.55,-2.39 -9.08,3.34 -5.94,5.78 -3.7,-9.71 -5.37,-5.02 0.92,-5.83 -3.38,-5.38 -2.33,-11.67 -5.66,-9.12 1.34,-6.75 5.05,-0.79 -4.8,-10.7 -2.02,-6.53 2.97,-5.24 6.26,1.27 3.46,-13.68 8.62,-0.66 8.19,-6.55 14.03,-0.6 1.05,2.1 2.01,3.49 -1.5,8.56 -4.81,3.51 5.01,9.28 12.15,-5.73 1.48,5.93 -2.87,3.42 0.81,8.47 15.06,3 7.08,-2.4 -1.43,4.5 3.03,8.04 -3.7,5.51 -3.65,-1.68 -12.08,2.58 -9.52,3.87 -8.58,14.79 -3.93,1.96 z"
       id="M12427"
       style="fill:#ffff80;fill-opacity:1;stroke:#000000;stroke-width:1.7596;stroke-dasharray:none;stroke-opacity:1" />
    <path
       d="m 175.61,268.72 2.21,8.32 -3.8,3.35 -7.99,-0.99 -11.56,1.9 5.38,10.97 -13.32,-1.12 -5.52,4.69 1.6,6.98 -5.76,3.06 -0.09,6.23 -7.01,2.11 -1.59,-9.6 -11.07,-2.57 -4.87,-3.56 -4.17,2.4 -1.04,7.27 -8.2,4.86 -5.17,-7.35 -2.67,-7.83 2.41,-5.29 8.3,-5.62 -4.24,-14.55 0.22,-9.72 1.93,-10.44 -2.16,-9.56 6.38,0.11 10.93,-5.8 7.02,-10.89 4.09,-0.66 9.4,13.12 6.45,6.19 1.39,9.34 4.3,7.02 6.34,1.12 -0.02,4.66 8.18,3.88 7.31,-7.49 z"
       id="M12207"
       style="fill:#ffff80;fill-opacity:1;stroke:#000000;stroke-width:1.7596;stroke-dasharray:none;stroke-opacity:1" />
    <path
       d="m 120.03,166.26 -5.54,1.58 -7.46,-2.62 -19.42,4.53 -5.24,-11.12 -4.64,-6.13 -10.33,-7.49 -6.2,-11.39 -3.45,-13.62 -5.5,-5.46 1.08,-6.72 -8.91,-12.28 1.89,-4.7 L 43.8,72.52 46.57,66.7 43.98,58.93 37.51,53.53 28.06,41.61 22.34,31.57 17.15,12.3 18.51,5.9 24.79,1 l 7.62,6.84 4.53,8.4 3.24,14.53 3.82,7.05 16.82,18.84 7.23,6.39 6.94,3.92 15.11,19.26 4.22,16.57 10.86,9.98 12.39,6.35 11.23,0.78 3.99,6.55 -4.56,9.93 4.99,8.99 9.47,4.17 -2.08,4.11 -9.94,5.17 -4.81,6.42 z"
       id="M12208"
       style="fill:#ffff80;fill-opacity:1;stroke:#000000;stroke-width:1.7596;stroke-dasharray:none;stroke-opacity:1" />
    <path
       d="m 57.82,941.96 14.41,0.13 6.4,-5.32 5.23,-1.96 5.12,-5.18 4.85,4.9 0.32,13.63 2.41,15.52 12.32,-2.66 0.19,-6.74 10.88,0.66 9.5,-7.58 -0.15,8.13 5.73,10.54 -0.4,3.18 -6.74,7.46 -1.48,7.36 -13.49,3.92 -4.37,11.29 -0.83,7.44 4.95,10.29 5.88,1.04 6.26,3.88 -5.97,11.76 -10.14,-1.01 -4.62,2.39 -4.84,-4.74 -6.46,6.18 -2.41,-0.88 -8.89,3.78 -5.48,-2.54 -4.12,7.56 -13.73,3.53 -6.41,-0.52 -1.29,-2.97 3.38,-10.95 -1.68,-4.65 -6.57,-7.3 -6.27,-4.19 -19.57,-9 -5.97,1.25 -8.72,-4.09 -4.05,-5.21 1.32,-9.82 h 19.02 l 3.02,3.31 7.66,-0.86 11.01,-4.56 6.5,-0.12 5.39,-10.24 8.86,-0.81 0.26,4.91 5.66,0.71 4.14,-4.38 2.09,-9.91 -0.26,-8.04 -2.55,-7.9 -3.79,-4.59 -5.52,-0.09 z"
       id="M12205"
       style="fill:#ffff80;fill-opacity:1;stroke:#000000;stroke-width:1.7596;stroke-dasharray:none;stroke-opacity:1" />
    <path
       d="m 319.92,628.48 -3.48,-1.04 -4.77,-10.56 1.18,-2.81 -6.7,-7.05 0.99,-4.53 -5.35,-8.39 7.01,-6.24 1.4,-9.32 -11.38,-7.55 2.82,-3.5 -0.34,-7.43 7.05,-0.1 1.54,-4.14 5.92,3.51 5.15,-4.2 3.36,-8.82 3.73,-1.8 8.93,1.28 9.28,4.42 8.18,-1.33 3.58,10.6 -2.67,3.24 -1.77,13.16 1.12,10.43 6.31,5.35 1.47,6.93 -1.05,-2.1 -14.03,0.6 -8.19,6.55 -8.62,0.66 -3.46,13.68 -6.26,-1.27 -2.97,5.24 z"
       id="M12426"
       style="fill:#ffff80;fill-opacity:1;stroke:#000000;stroke-width:1.7596;stroke-dasharray:none;stroke-opacity:1" />
    <path
       d="m 193.26,561.34 12.17,19.29 2.32,6.89 -1.45,7.15 1.97,5.17 11.36,-1.86 15.02,-5.76 6.59,9.91 -0.33,7.71 2.35,4.83 -1.96,6.27 1.51,10.02 -4.91,4.94 -2.75,-2.5 -11.55,2.24 -3.09,3.45 -9.5,-1.55 -3.75,8.35 -5,-0.2 -1.75,8.82 -6.3,0.73 -2.35,7.24 -5.59,7.45 -8.07,-0.95 -3.49,-5.24 4.61,-8 -3.37,-7.58 2.6,-3.55 -2.04,-13.17 -4.43,-5.45 5.56,-2.65 4.09,2.74 3.69,-9.34 -12.09,-0.71 -2.93,-2.88 -13.87,-1.12 2.87,-6.42 -5.24,-2.71 -8.07,8.37 -9.5,-5.51 -0.62,-8.29 5.41,-10 -1.05,-3.92 1.78,-12.21 7.89,-2.27 3.94,9.3 4.85,-0.31 -6.23,-17.59 11.63,-5.48 7.34,15.3 1.77,-1.78 -4.06,-9.19 12.45,-8.3 z"
       id="M12229"
       style="fill:#ffff80;fill-opacity:1;stroke:#000000;stroke-width:1.7596;stroke-dasharray:none;stroke-opacity:1" />
    <path
       d="m 242.81,630.96 -1.6,6.34 6.77,5.02 4.47,-3.65 6.46,7.62 5.92,10.85 0.61,5.78 3.44,7.3 -5.17,5.35 -0.22,3.54 -9.05,7.58 0.51,4.6 -3.55,-5.9 -7.31,-2.08 -7.57,-15.35 -9,0.03 -8.58,-7.45 -5.08,-0.89 -5.23,6.14 0.74,5.15 -2.5,5.71 -8.96,4.74 -6,1.19 -2.95,9 h -4.59 l -3.84,-6.98 -4.88,0.84 -0.55,7.4 -12.77,0.06 -9.74,-8.36 -1.07,-4.04 -7.78,1.45 -12.47,-6.48 -15.48,-2.97 -6.87,4.77 -3.12,-1.85 -2.06,-8.54 -7.02,-12.61 0.21,-8.23 4.89,0.87 7.01,-4.46 9.55,-9.36 -3.26,-4.99 -4.64,1.66 -6.15,-20.44 -0.88,-9.11 4.52,-7.24 13.2,-7.35 12.9,-2.8 6.26,0.73 1.05,3.92 -5.41,10 0.62,8.29 9.5,5.51 8.07,-8.37 5.24,2.71 -2.87,6.42 13.87,1.12 2.93,2.88 12.09,0.71 -3.69,9.34 -4.09,-2.74 -5.56,2.65 4.43,5.45 2.04,13.17 -2.6,3.55 3.37,7.58 -4.61,8 3.49,5.24 8.07,0.95 5.59,-7.45 2.35,-7.24 6.3,-0.73 1.75,-8.82 5,0.2 3.75,-8.35 9.5,1.55 3.09,-3.45 11.55,-2.24 2.75,2.5 z"
       id="M12206"
       style="fill:#ffff80;fill-opacity:1;stroke:#000000;stroke-width:1.7596;stroke-dasharray:none;stroke-opacity:1" />
    <path
       d="m 406.04,627.54 -3.54,-9.84 1.83,-1.31 3.33,-1.92 0.68,-9.95 4.01,-1.31 13.23,-12.15 h 11.59 l 7.25,2.54 -0.5,5.83 16.57,4.67 -3.38,19.23 0.03,12.05 -2.89,-6.43 -16.43,1.01 -5.56,6.64 -4.65,0.63 -6.82,-4.77 -6.36,-0.91 z"
       id="M12423"
       style="fill:#ffff80;fill-opacity:1;stroke:#000000;stroke-width:1.7596;stroke-dasharray:none;stroke-opacity:1" />
    <path
       d="m 151.11,381.63 -3.69,-0.75 3.01,-6.7 z m 8.74,-89.36 -0.97,11.27 -2.54,3.12 1.3,7.67 1.24,3.25 -1.18,10.69 -7.03,-2.12 -4.31,13.7 -5.57,3.4 -4.87,-0.04 -2.64,11.81 5.94,-4.48 9.97,5.05 1.6,17.96 -7.26,8.5 -16.23,4.66 -6.82,5.23 -1.8,4.45 -17.96,-15.04 -5.03,1.26 1.33,-7.78 14.78,-4.85 7.21,-10.73 -1.81,-9.05 -12.53,-13.59 -0.51,-7.4 2.1,-4.92 -1.02,-6.09 -6.43,-5.18 8.2,-4.86 1.04,-7.27 4.17,-2.4 4.87,3.56 11.07,2.57 1.59,9.6 7.01,-2.11 0.09,-6.23 5.76,-3.06 -1.6,-6.98 5.52,-4.69 z"
       fill-rule="evenodd"
       id="M12203"
       style="fill:#ffff80;fill-opacity:1;stroke:#000000;stroke-width:1.7596;stroke-dasharray:none;stroke-opacity:1" />
    <path
       d="m 449.3,554.38 3.42,-1.11 21.26,4.5 -8.43,25.09 -5.06,21.24 -16.57,-4.67 0.5,-5.83 -7.25,-2.54 h -11.59 l -5.46,-2.32 1.32,-14.83 5.51,-2.06 0.28,-5.36 7.58,-4.15 1.68,-6.79 4.43,-0.14 5.7,5 z"
       id="M12424"
       style="fill:#ffff80;fill-opacity:1;stroke:#000000;stroke-width:1.7596;stroke-dasharray:none;stroke-opacity:1" />
    <path
       d="m 95.69,382.61 5.03,-1.26 17.96,15.04 15.15,13.17 -21.03,14.1 -8.87,6.85 -2.94,-7.25 -3.65,2.67 -11.29,-3.24 -0.8,-11.52 8.6,-5.69 2.78,-9.71 z"
       id="M12227"
       style="fill:#ffff80;fill-opacity:1;stroke:#000000;stroke-width:1.7596;stroke-dasharray:none;stroke-opacity:1" />
    <path
       d="m 157.03,382.82 -5.92,-1.19 -0.68,-7.45 10.65,1.08 1.28,8.51 z m 0.61,-68.49 7.29,-2.09 3.85,6.47 3.43,1.78 4.43,-2.02 5.19,1.1 1.19,-4.71 6.88,-5.69 -2.6,-5.43 4.74,-4.11 6.75,-5.21 6.7,4.15 15.64,-8.44 3.88,-7.98 1.6,-12.08 9.47,6.5 4.89,6.77 -2.35,2.52 -0.18,13.52 -6,7.29 -2.34,7.02 -5.96,0.93 -1.48,5.34 2.66,7.18 -3.37,11.87 6.28,3.17 -5.33,5.4 2.91,2.23 -4.6,3.14 1.44,7.41 -9.4,3.99 -10.88,-3.82 -4.73,4.71 -10.73,-0.98 -3.6,-3 -7.75,14.97 4.99,8.43 -2.14,2.82 -11.47,1.55 -2.22,-15.63 -5.47,-1.57 -8.46,1.72 -1.6,-17.96 -9.97,-5.05 -5.94,4.48 2.64,-11.81 4.87,0.04 5.57,-3.4 4.31,-13.7 7.03,2.12 1.18,-10.69 z m 14.69,-5.89 4.36,4.3 -2.83,6.9 -6.23,-3.68 z"
       fill-rule="evenodd"
       id="M12204"
       style="fill:#ffff80;fill-opacity:1;stroke:#000000;stroke-width:1.7596;stroke-dasharray:none;stroke-opacity:1" />
    <path
       d="m 460.93,681.39 -7.01,-3.72 -3.52,3.94 -7.66,0.89 1.63,-11.81 -5.92,0.27 -9.18,-2.89 -8.12,0.3 1.66,-7.13 -1.5,-5.48 4.39,-8.16 -2.12,-3.06 4.03,-7.31 4.65,-0.63 5.56,-6.64 16.43,-1.01 2.89,6.43 -0.76,4.37 0.46,20.72 2.23,16.67 z"
       id="M12421"
       style="fill:#ffff80;fill-opacity:1;stroke:#000000;stroke-width:1.7596;stroke-dasharray:none;stroke-opacity:1" />
    <path
       d="m 329.33,397.17 -6.19,3.17 1.71,4.09 -9.74,17.17 -5.95,-2.07 5.12,-9.69 -11.27,-11.68 -1.99,-0.54 -7.22,7.66 -5.8,-4.44 -3.94,-15.58 -6.15,0.45 -3.43,-2.55 2.14,-15.51 2.59,-2.86 2.74,-0.35 4.06,2.21 -1.34,-1.56 -2.76,-1.55 1.35,-7.04 7.43,4.62 13.03,0.69 10.81,-8.35 9.98,-1.06 1.34,6.86 -4.52,10.11 4.98,9.22 -0.78,3.51 4.95,7.88 z"
       id="M12228"
       style="fill:#ffff80;fill-opacity:1;stroke:#000000;stroke-width:1.7596;stroke-dasharray:none;stroke-opacity:1" />
    <path
       d="m 370.71,696.38 -6.18,-0.18 -6.86,-3.76 -1.25,-5.72 0.62,-11.03 3.93,-1.96 8.58,-14.79 9.52,-3.87 12.08,-2.58 3.65,1.68 3.7,-5.51 -3.03,-8.04 1.43,-4.5 3.03,-8.05 6.11,-0.53 8.39,4.01 6.36,0.91 6.82,4.77 -4.03,7.31 2.12,3.06 -4.39,8.16 1.5,5.48 -1.66,7.13 -10.88,1.52 -6.15,-1.81 -8.06,7.21 -4.03,-0.28 -4.9,3.89 -3.71,10.49 -8.1,2.11 z"
       id="M12422"
       style="fill:#ffff80;fill-opacity:1;stroke:#000000;stroke-width:1.7596;stroke-dasharray:none;stroke-opacity:1" />
    <path
       d="m 676.5,291.92 3.78,-8.38 -3.75,-1.49 0.11,-6.49 -6.79,-1.42 1.79,-8.73 7.11,-1.55 12.83,-6.47 3.69,11.2 11.28,13.74 33.22,23.52 19.38,14.87 4.72,1.83 17.17,-0.4 4.26,-4.2 9.68,3.01 3.7,6.96 -2.29,5.13 2.61,8 -3.29,3.35 -2.55,14.4 -3.68,3.11 -9.19,-3.05 -4.89,-11.16 -5.11,-2.4 -17.34,1.73 -32.6,12.13 -3.83,-4.53 -10.16,0.94 -5.37,-3.03 4.38,-13.13 6.18,-2.93 -0.26,-4.2 -4.52,-8.65 -7.04,5.83 -4.95,-1.46 -0.84,-4.63 2.6,-15.36 -2.76,-2.38 -11.03,-2.35 -0.7,-8.36 z"
       id="M12202"
       style="fill:#ffff80;fill-opacity:1;stroke:#000000;stroke-width:1.7596;stroke-dasharray:none;stroke-opacity:1" />
    <path
       d="m 292.17,811.92 -5.61,-0.42 -7.94,-7.22 -9.08,1.33 -6.05,-2.12 -4.49,8.98 -10.01,-0.33 -2.83,2.67 -0.63,6.41 -3.58,1.96 -10.79,-5.96 -9.72,8.16 -5.61,0.41 -4.05,4.42 -4.02,-1.37 -5.95,2.52 -3.78,-4.68 -10.06,9.16 -15.97,-1.47 3.11,-4.21 2.56,-10.47 -3.4,-6.71 0.88,-10.9 -10.54,-15.47 -3.57,-13.18 1.69,-1.72 -2.23,-11.6 -3.94,1.93 -7.45,-5.04 -6.48,2.61 -2.31,-8.73 5.44,-5.34 -8.37,-5.41 -5.49,1.83 -9.86,-8.21 -4.68,-1.52 -4.24,-7.88 0.42,-6.02 -6.32,-1.86 -3.06,-8.45 -6.9,-2.09 -0.87,-8.85 -8,-11.98 -7.91,-5.01 -2.46,-5.88 -6.55,-9.28 -0.29,-7.86 -9.02,-7.88 4.84,-7.14 11.72,6.84 14.57,5.56 3.43,-0.18 7.02,12.61 2.06,8.54 3.12,1.85 6.87,-4.77 15.48,2.97 12.47,6.48 7.78,-1.45 1.07,4.04 9.74,8.36 12.77,-0.06 0.55,-7.4 4.88,-0.84 3.84,6.98 h 4.59 l 2.95,-9 6,-1.19 8.96,-4.74 2.5,-5.71 -0.74,-5.15 5.23,-6.14 5.08,0.89 8.58,7.45 9,-0.03 7.57,15.35 7.31,2.08 3.55,5.9 6.45,2.65 2.84,7.7 -3.37,1.91 -2.17,13.62 4.12,5.88 -1.25,17.23 4.83,16.84 8.53,6.24 2.93,4.9 -1.34,2.91 3.07,8.87 6.25,10.07 0.58,5.65 4.68,8.64 z"
       id="M12225"
       style="fill:#ffff80;fill-opacity:1;stroke:#000000;stroke-width:1.7596;stroke-dasharray:none;stroke-opacity:1" />
    <path
       d="m 172,834.37 -15.06,3.41 -6.32,-2.79 -12.06,1.66 -5.77,6.09 -4.51,-1.46 -0.1,7.28 -13.82,-1.79 -7.22,-8.35 -1.29,-4.66 -9.38,-2.98 -11.69,2.69 -2.34,-3.37 -9.56,-3.38 -11.45,4.42 -6.72,0.6 -7.52,3.21 -1.03,-12.25 0.26,-14.67 4.98,-10.55 5.14,-5.12 9.16,-4.25 3.28,-3.89 12.88,-5.63 2.85,-9.86 -1.39,-10.39 -3.13,-10.17 -4.55,-7.08 -7.82,-8.21 4.14,-11.15 -10.13,-10.22 -18.84,-8.86 -14.13,-4.26 19.46,-4.72 -2.31,-6.62 5.65,-1.99 10.69,-6.46 -1.63,-3.6 -5.91,0.94 -4.18,-6.76 10.57,-12.69 6.65,10.64 3.62,-2.2 6.55,9.28 2.46,5.88 7.91,5.01 8,11.98 0.87,8.85 6.9,2.09 3.06,8.45 6.32,1.86 -0.42,6.02 4.24,7.88 4.68,1.52 9.86,8.21 5.49,-1.83 8.37,5.41 -5.44,5.34 2.31,8.73 6.48,-2.61 7.45,5.04 3.94,-1.93 2.23,11.6 -1.69,1.72 3.57,13.18 10.54,15.47 -0.88,10.9 3.4,6.71 -2.56,10.47 z"
       id="M12226"
       style="fill:#ffff80;fill-opacity:1;stroke:#000000;stroke-width:1.7596;stroke-dasharray:none;stroke-opacity:1" />
    <path
       d="m 424.61,816.37 -10.45,-1.19 -5.8,2.79 -5.84,-2.08 -3.93,-11.24 -4.91,-5.89 3.46,-4.87 -0.02,-5.44 6.88,-5.65 4.02,-4.53 9.53,0.56 1.12,3.54 17.48,-2.71 -1.77,13.82 5.41,3.4 6.77,0.59 5.18,4.75 -0.24,4.13 -7.12,6.97 -4.74,0.69 -6.02,-3.1 -7.23,1.97 z"
       id="M12443"
       style="fill:#ffff80;fill-opacity:1;stroke:#000000;stroke-width:1.7596;stroke-dasharray:none;stroke-opacity:1" />
  </g>
</svg>
