<?xml version="1.0" encoding="UTF-8" standalone="no"?>
<svg
   version="1.2"
   width="370.68445"
   height="600"
   viewBox="0 0 370.68445 600"
   stroke-linecap="round"
   stroke-linejoin="round"
   id="svg6490"
   sodipodi:docname="dh.svg"
   inkscape:version="1.2 (dc2aedaf03, 2022-05-15)"
   xmlns:inkscape="http://www.inkscape.org/namespaces/inkscape"
   xmlns:sodipodi="http://sodipodi.sourceforge.net/DTD/sodipodi-0.dtd"
   xmlns="http://www.w3.org/2000/svg"
   xmlns:svg="http://www.w3.org/2000/svg">
  <defs
     id="defs6494" />
  <sodipodi:namedview
     id="namedview6492"
     pagecolor="#505050"
     bordercolor="#eeeeee"
     borderopacity="1"
     inkscape:showpageshadow="0"
     inkscape:pageopacity="0"
     inkscape:pagecheckerboard="0"
     inkscape:deskcolor="#505050"
     showgrid="false"
     inkscape:zoom="0.64015444"
     inkscape:cx="104.66224"
     inkscape:cy="299.92762"
     inkscape:window-width="1920"
     inkscape:window-height="1009"
     inkscape:window-x="-8"
     inkscape:window-y="-8"
     inkscape:window-maximized="1"
     inkscape:current-layer="svg6490" />
  <g
     id="dh"
     transform="matrix(0.46326373,0,0,0.46326373,0.03673684,0.03673153)"
     style="fill:#ffff80;fill-opacity:1;stroke:#000000;stroke-width:2.1586;stroke-dasharray:none;stroke-opacity:1">
    <path
       d="m 151.75,873.39 11.77,4.75 7.64,-4.8 4.08,-0.09 3.1,5.4 1.2,7.39 4.99,0.26 2.48,3.28 10.39,1.47 3.93,6.16 10.79,-5.06 4.78,-4.43 11.86,-4.98 5.02,-5.06 20.57,-15.08 5.12,1.76 5.87,-1.69 10.24,6.46 3.9,-5.02 -3.4,-13.97 1.35,-5.02 7.19,0.36 7.62,4.75 2.42,6.6 6.6,7.53 2.85,-9.69 -1.62,-3.94 11.65,-8.06 0.77,-6.95 -3.26,-5.29 5.7,-3.77 5.88,1.09 -0.23,-4.97 9.99,-2.14 -0.09,-5.69 2.81,-9.89 4.01,-4.84 6.31,-2.37 1.42,-3.44 -6.47,-11.92 2.7,-4.54 -1.49,-3.76 3.5,-1.04 2.15,-5.44 10.41,-3.23 -0.11,-9.5 6.21,-7.78 12.9,2.8 3.39,-6.06 8.47,0.09 7.14,2.99 0.83,-4.71 6.4,-10.49 1.64,-8.37 10.04,1.76 -2.2,7.4 0.83,7.09 7.54,18.08 -2.56,5.77 3.4,4.53 2.64,10.69 5.94,7.19 3.34,6.54 4.39,6.27 -0.98,8.31 4.48,2.9 13.49,1.08 3.31,5.19 -4.06,8.82 10.88,18.64 -4.22,1.65 -2.88,10.3 -7.79,9.28 0.85,9.81 -8.29,1.85 -0.82,4.73 3.16,2.54 -1.3,8.27 -0.23,12.22 5.9,9.13 1.74,6.25 7.17,-4.03 7.59,-1.3 5.05,-4.1 7.64,4.14 4.85,9.63 -0.63,9.58 -2.79,3.49 1.58,14.6 3.9,5.04 0.8,5.74 7.16,3.67 -0.44,5.28 3.9,5.78 1.84,7.29 2.95,-0.23 6.58,5.65 1.27,3.99 -4.4,5.84 0.56,3.83 3.4,20.15 -3.24,2.16 -3.45,9.15 -1.95,7.42 3.02,3.32 -6.85,3.42 -13.3,9.5 -0.99,3.7 2.44,6.28 -5.49,3.83 -2.95,11.7 4.64,4.17 0.98,4.53 -3.63,12.59 0.63,8.52 1.32,17.89 -4.68,4.41 -2.6,10.36 -3.33,7.41 3.2,7.37 -6.11,8.72 -0.52,5.62 2.1,6.16 4.67,4.05 1.72,8.09 9.16,7.69 6.45,1.03 2.64,1.05 3.38,7.14 -2.42,2.87 -9.52,4.98 -5.59,16.18 1.15,7.25 -3.31,4.61 1.77,5.82 8.05,1.44 3.66,10.71 7.09,4.52 -2.81,8.56 5.13,3.29 7.37,-3.63 7.25,1.95 7.95,-12.76 -1.88,-8.19 8.9,1.31 6.66,8.21 7.71,-2.73 3.16,1.16 4.02,-4.13 5.77,4.51 6.38,-4.42 8.56,5.88 4.87,-2.95 4.51,-6.86 -0.67,-4.94 5.56,-11.39 9.31,-3.42 6.28,-6.25 11.93,2.04 4.14,-4.18 3.97,1.4 7.26,-2.8 6.04,-7.64 4.37,2.38 4.87,-3.95 -0.32,-11.05 -1.51,-7.3 -7.45,-12.39 5.63,-4.78 -2.41,-3.68 10.54,-16.64 -0.9,-15.01 5.03,-5.55 -4.01,-3.23 -1.5,-9.61 -7.98,-5.82 -2.29,-10.29 2.91,-3.05 -2.85,-3.97 4.57,-5.25 -3.56,-11.85 -0.64,-6.14 4.74,-20.31 7.08,-3.08 -2.67,-5.11 -3.95,1.83 -10.23,-3.11 -5.02,-8.85 -11.92,-12.75 5.05,-6.08 8.44,-7.16 1.4,-9.11 21.64,-16.93 0.99,-3.89 6.36,-2.71 5.31,-6.23 0.54,-8.08 8.53,4.13 4.49,-3.84 -0.71,-9.01 8.77,-10.12 6.55,1.73 5.3,1.5 10.08,8.7 6.69,9.05 5.6,-3.93 13.86,2.85 2.27,-6.66 7.3,-9.93 6.48,3.8 14.59,-8.66 4.87,-4.87 6.37,-2.17 2.9,-3.47 -2.07,-6.12 4.04,-3.86 2.64,-6.16 6.12,-4.24 -4.2,-10.69 -6.79,-4.13 -0.72,-4.44 2.44,-6.24 5.08,-7.54 6.4,-13.79 -3.87,-10.03 -5.25,-3.64 -5.96,4.4 -6.24,0.11 -7.83,5.29 -7.48,2.47 -1.85,-4.08 -6.28,1.16 -9.25,-1.56 -4.56,-5.15 -1.41,-8.39 2.41,-2.56 -0.65,-6.63 2.5,-3.8 6.25,-3.28 -9.45,-8.42 1.29,-8.56 -0.96,-8.25 3.14,-1.02 -0.4,-10.59 10.19,-10.22 1.91,-5.4 -5.82,-4.95 -8.11,3.15 -4.87,-3.06 -5.81,-7.32 -16.64,7.99 -8.4,-0.15 -3.79,2.46 -4.07,-2.21 -2.29,-12.92 7.18,-17.68 -2.86,-6.68 1.35,-3.06 -2.99,-5.27 -5.4,0.52 0.86,-6.24 -3.5,-3.74 4.35,-4.2 -1.63,-5.08 -4.75,-5.1 3.42,-7.2 -4.71,-2.63 1.24,-8.31 -3.21,-7.31 -3.31,-2.47 0.49,-8.69 -1.69,-5.4 8.51,0.98 4.92,-2.36 0.19,-7.37 -1.73,-13.9 -2.67,-7.33 2.19,-3.74 -1.54,-10.71 -7.33,-9.14 -6.69,-2.51 1,-10.18 -1.89,-5.64 0.13,-11.59 -7.49,-1.31 -0.07,-5.38 8.08,-13.05 -0.61,-9.26 2.24,-4.27 -4.16,-8.1 2.12,-4.77 3.9,-1.16 5.42,-5.96 -3.83,-3.97 1.17,-6.31 -7.6,2.24 -3.51,-1.91 -5.81,1.19 -10.28,-3.98 -5.65,4.64 -3.48,-4.03 -6.25,1.17 -2.96,-9.95 -6.16,-0.33 -4.01,4.11 -5.5,9.55 -4.45,2.99 -1.43,4.86 -10.71,1.52 -4.66,-0.98 -7.8,1.45 0.79,-5.66 4.03,-10.21 1.24,-9.86 5.85,-6.63 0.77,-7.01 2.57,-4.15 6.33,-3.7 -3.46,-2.71 0.02,-8.48 5.79,-6.86 0.96,-5.15 -3.03,-5.77 3.41,-3.43 10.58,-2.89 -0.55,-6.82 5.8,-6.43 6.4,-1.2 6.66,-4.33 7.58,3.28 1.64,-2.25 8.68,-0.49 6.62,-8.1 7.09,-6.64 3.94,-8.22 7.15,7.31 2.94,4.94 7.64,4.94 8.72,11.42 3.24,-0.09 1.99,7.39 8.48,10.1 6.42,10.36 6.33,6.87 18.72,14.14 3.63,0.22 1.98,4.74 11.64,9.49 18.9,13.77 16.27,11.01 V 1294 H 1 v -167.94 l 5.04,-1.08 0.03,-4.92 12.62,-3.11 8.26,-4.81 12.98,0.15 -0.38,12.5 -4.45,2.94 7.31,10.4 5.38,2.47 6.69,0.11 10.81,3.87 12.92,7.75 12.59,5.28 20.7,-9.45 14.1,-9.52 0.74,-3.25 10.3,-8.13 3.7,-1.08 8.92,-10.24 23.14,-31.06 9.26,-15.17 -0.73,-6.55 2.48,-9.13 -1.28,-4.47 2.39,-9.01 -1.01,-13.3 -12.73,-28.72 -6.16,-7 -0.74,-4.28 -4.73,-9.06 0.52,-8.31 5.53,-10.09 3.02,-12.01 -0.69,-10.47 -6,-6.2 -4.63,-11.42 -0.96,-12.62 -6.4,-19.3 -0.34,-8.59 z"
       id="M01999"
       style="fill:#808080;fill-opacity:1;stroke:#000000;stroke-width:2.1586;stroke-dasharray:none;stroke-opacity:1" />
    <path
       d="m 397.26,636.37 0.02,7.54 5.68,7.27 7.65,0.89 2.17,6.51 -4.35,8.39 -7.09,-2.11 -2.64,6.18 -4.91,4.79 -4.1,-2.25 -6.72,3.29 -5.29,-1.99 -6.52,3.33 -7.3,-2.08 1.41,10.39 -1.83,4.28 -10.69,-2.62 -1.43,3.94 -7.62,3.79 -17.32,-5.86 -5.35,4.52 0.2,4.16 -4.24,4.15 -9.52,-3.63 -5.16,-6.69 2.58,-4.44 -2.12,-9.97 -8.21,-10.52 -9.06,-4.42 2.1,-7.04 -7.07,-9.15 -3.36,0.13 -4.18,-4.41 -10.4,2.86 -0.6,-5.36 1.23,-10.73 -3.61,-24.25 -0.21,-9.72 5.11,-1.7 5.94,-8.31 1.7,-7.05 4.92,2.53 9.28,8.25 0.94,6.35 3.91,0.28 3.49,5.94 6.81,1.56 0.36,5.62 19.64,7.17 4.94,-0.91 8.91,1.43 9.11,6.59 4.08,-0.91 7.31,3.94 7.43,10.78 10.58,2.01 4.54,7.17 10.83,-3.23 2.07,-7.13 z"
       id="M01483"
       style="fill:#ffff80;fill-opacity:1;stroke:#000000;stroke-width:2.1586;stroke-dasharray:none;stroke-opacity:1" />
    <path
       d="m 148.13,532.25 2.98,4.84 -5.56,8.13 -8.74,1.42 -0.51,-3.37 z m 34.48,-2.11 1.02,6.36 -4.62,2.81 -7.64,-1.59 -2.59,-3.42 z m 214.65,106.23 -5.96,-0.45 -2.07,7.13 -10.83,3.23 -4.54,-7.17 -10.58,-2.01 -7.43,-10.78 -7.31,-3.94 -4.08,0.91 -9.11,-6.59 -8.91,-1.43 -4.94,0.91 -19.64,-7.17 -0.36,-5.62 -6.81,-1.56 -3.49,-5.94 -3.91,-0.28 -0.94,-6.35 -9.28,-8.25 -4.92,-2.53 2.94,-9.25 5.16,-5.7 0.89,-6.55 9.26,-11.65 3.79,-8.49 8.92,4.52 5.19,11.65 19.04,4.35 1.66,1.54 9.61,-4.2 3.57,-10.16 -1.74,-3.77 3.24,-3.16 14.38,-6.55 2.91,-3.14 12.09,4 0.84,4.86 8.47,10.56 2.65,11.52 1.63,12.54 6.65,2.99 1.6,4.74 4.05,0.65 4.41,4.12 -2.52,4.66 1.8,5.77 -1.96,2.93 2.49,5.08 -10.27,6.54 2.83,7.25 6.47,6.74 3.03,9.9 z"
       fill-rule="evenodd"
       id="M01484"
       style="fill:#ffff80;fill-opacity:1;stroke:#000000;stroke-width:2.1586;stroke-dasharray:none;stroke-opacity:1" />
    <path
       d="m 277.43,845.12 -1.35,5.02 3.4,13.97 -3.9,5.02 -10.24,-6.46 -5.87,1.69 -5.12,-1.76 -20.57,15.08 -5.02,5.06 -11.86,4.98 -4.78,4.43 -10.79,5.06 -3.93,-6.16 -10.39,-1.47 -2.48,-3.28 -4.99,-0.26 -1.2,-7.39 -3.1,-5.4 -4.08,0.09 -7.64,4.8 -11.77,-4.75 4.73,-8.35 3.71,-3.19 2.99,-7.73 0.55,-6.72 3.49,-5.07 26.29,-16.25 3.1,1.29 9.44,-1.52 5.65,-9.14 3.29,-1.8 6.28,3.41 3.2,-4.17 12.38,-5.87 5.3,-5.63 3.65,-9.07 5.85,1.88 7.84,8.59 5.28,3.47 -0.23,9.43 11.65,14.39 -0.75,4.24 z"
       id="M01481"
       style="fill:#ffff80;fill-opacity:1;stroke:#000000;stroke-width:2.1586;stroke-dasharray:none;stroke-opacity:1" />
    <path
       d="m 439.29,234.14 -2.76,6.57 4.89,0.1 -1.97,8.01 -3.89,5.16 2.01,9.35 3.52,4.91 -1.29,5.41 -8.52,9.01 1.35,4.65 -1.47,6.88 -3.49,2.05 -1.35,6.95 2.19,4.2 -4.29,2.06 -8.6,-1.58 -9.25,-0.12 -5.76,1.53 -8.18,-0.16 -0.48,-3.22 -2.47,-2.82 -5.8,6.39 -3.9,-2.75 -1.24,-6.22 -5.17,2.44 -2.87,4.25 -4.69,2.19 -1.4,-6.25 -13.65,0.79 -0.09,-6.07 -11.45,-3.86 0.18,-8.85 -1.92,-11.52 -5.58,-10.97 -7.78,1.72 -4.43,-1.53 -8.4,0.54 -12.05,4.52 -5.93,6.86 -3.99,1.25 -5.57,5.55 8.13,35.75 -1.32,1.83 0.2,-3.65 -6.67,-21.65 -7.06,-19.83 -11.9,-30.1 4.08,-8.69 20.51,-15.08 4.98,-0.53 5.76,3.31 1.24,8.1 12.42,4.41 11.05,-1.34 11.12,-16.65 4.76,3.13 5.38,0.57 12.22,-3.24 5.49,4.14 7.51,1.55 4.16,-5.23 4.44,0.32 3.71,-5.31 10.97,4.7 5.05,9.53 4.22,-2.23 4.98,-8.51 8.05,-3.76 10.56,6.02 0.54,5.82 z"
       id="M01520"
       style="fill:#ffff80;fill-opacity:1;stroke:#000000;stroke-width:2.1586;stroke-dasharray:none;stroke-opacity:1" />
    <path
       d="m 405.12,723.45 -1.64,8.37 -6.4,10.49 -0.83,4.71 -7.14,-2.99 -8.47,-0.09 -3.39,6.06 -12.9,-2.8 -6.21,7.78 0.11,9.5 -10.41,3.23 -2.15,5.44 -3.5,1.04 -8.91,-10.36 -6.22,-1.13 -2.48,3.32 -4.65,-1.45 -8.1,2.32 -5.35,10.42 -3.74,2.67 -9.96,0.18 -3.03,-4.86 -10.41,-8.29 -8.85,-3.24 -3.85,-6.15 -4.76,-3.78 -1.08,-4.08 3.09,-7.03 0.82,-7.26 -0.06,-26.6 -3.09,-31.03 1.77,-9.35 -0.74,-22.89 10.4,-2.86 4.18,4.41 3.36,-0.13 7.07,9.15 -2.1,7.04 9.06,4.42 8.21,10.52 2.12,9.97 -2.58,4.44 5.16,6.69 9.52,3.63 4.24,-4.15 -0.2,-4.16 5.35,-4.52 17.32,5.86 7.62,-3.79 1.43,-3.94 10.69,2.62 1.83,-4.28 -1.41,-10.39 7.3,2.08 6.52,-3.33 5.29,1.99 6.72,-3.29 4.1,2.25 4.91,-4.79 2.64,-6.18 7.09,2.11 -0.02,9.13 -1.62,12.9 -6.38,7.3 3.42,12.55 2.65,4.32 -4.53,6.56 z"
       id="M01482"
       style="fill:#ffff80;fill-opacity:1;stroke:#000000;stroke-width:2.1586;stroke-dasharray:none;stroke-opacity:1" />
    <path
       d="m 290.56,319.14 1.32,-1.83 -8.13,-35.75 5.57,-5.55 3.99,-1.25 5.93,-6.86 12.05,-4.52 8.4,-0.54 4.43,1.53 7.78,-1.72 5.58,10.97 1.92,11.52 -0.18,8.85 11.45,3.86 0.09,6.07 13.65,-0.79 1.4,6.25 4.69,-2.19 2.87,-4.25 5.17,-2.44 1.24,6.22 3.9,2.75 5.8,-6.39 2.47,2.82 -3.07,4.35 -5.62,1.11 -1.32,6.81 -3.47,4.66 6.28,8.75 -3.33,9.51 2.46,7.22 -1.36,8.76 -3.57,10.35 -14.73,2.14 -3.06,3.8 -11.35,2.09 -4.08,-3.51 -3.96,-15.53 -2.81,-4.24 -3.31,-10.39 -4.36,3.76 -7.72,2.56 -23.71,5.58 -5.63,-24.19 z"
       id="M01487"
       style="fill:#ffff80;fill-opacity:1;stroke:#000000;stroke-width:2.1586;stroke-dasharray:none;stroke-opacity:1" />
    <path
       d="m 360.97,527.92 -2.91,3.14 -14.38,6.55 -3.24,3.16 1.74,3.77 -3.57,10.16 -9.61,4.2 -1.66,-1.54 -19.04,-4.35 -5.19,-11.65 -8.92,-4.52 4.71,-19.29 1.3,-18.66 -0.41,-9.83 1.5,-12.13 5.21,-7.79 1.72,-7.34 1.71,-27.46 6.47,2.42 7.86,13.3 5.07,-0.28 8.47,5.58 8.61,-1.79 8.31,1.78 2.84,2.73 -2.04,7.73 2.65,3.2 0.22,9.04 -1.69,4.19 1.06,11.33 -5.49,2.51 -5.53,10.02 5.29,2.87 -2.1,3.36 0.83,7.26 7.83,4.24 z"
       id="M01485"
       style="fill:#ffff80;fill-opacity:1;stroke:#000000;stroke-width:2.1586;stroke-dasharray:none;stroke-opacity:1" />
    <path
       d="m 393.3,574.39 -6.65,-2.99 -1.63,-12.54 -2.65,-11.52 -8.47,-10.56 -0.84,-4.86 -12.09,-4 -2.38,-4.09 -7.83,-4.24 -0.83,-7.26 2.1,-3.36 -5.29,-2.87 5.53,-10.02 5.49,-2.51 -1.06,-11.33 1.69,-4.19 -0.22,-9.04 -2.65,-3.2 2.04,-7.73 -2.84,-2.73 -8.31,-1.78 -8.61,1.79 -8.47,-5.58 -5.07,0.28 -7.86,-13.3 -6.47,-2.42 -0.15,-9.13 -3.18,-32.58 -2.61,-18.35 -4.13,-20.6 23.71,-5.58 7.72,-2.56 4.36,-3.76 3.31,10.39 2.81,4.24 3.96,15.53 4.08,3.51 11.35,-2.09 3.06,-3.8 14.73,-2.14 -0.39,9.18 -4.62,7.55 2.83,8.36 3.7,4.32 -0.5,6.84 2.62,2.36 -4.39,7.36 2.99,5.27 0.41,7.83 3.94,2.47 -2.3,3.94 0.05,10.51 3.77,2.35 -2.29,6.65 2.77,6.44 8.6,3.33 2.43,12.62 2.81,3.92 -5.09,10.48 11.21,16.78 4.57,3.47 7.8,0.17 2.38,6.87 0.1,4.55 -3.51,12.88 -5.98,0.06 -11.84,14.53 -6.47,3.93 -5,5.12 3.6,6.17 z"
       id="M01486"
       style="fill:#ffff80;fill-opacity:1;stroke:#000000;stroke-width:2.1586;stroke-dasharray:none;stroke-opacity:1" />
    <path
       d="m 120,209.77 3.57,-22.91 -2.11,-1.41 -3.21,-15.08 -9.05,-4.37 -6.32,-8.5 -10.61,-1.97 -6,-6.8 2.44,-5.26 4.99,-1.65 6.53,-9.07 4.04,0.3 9.28,5.91 2.28,5.1 6.86,-0.64 3.78,2.54 5.18,-0.6 0.94,3.94 7.38,4.28 7.33,15.29 1.69,17.05 -7.75,7.47 0.54,1.88 -7.82,7.65 z"
       id="M01519"
       style="fill:#ffff80;fill-opacity:1;stroke:#000000;stroke-width:2.1586;stroke-dasharray:none;stroke-opacity:1" />
    <path
       d="m 428.51,307.39 -2.19,-4.2 1.35,-6.95 3.49,-2.05 1.47,-6.88 -1.35,-4.65 8.52,-9.01 11.03,1.01 12.94,-11.85 6.03,-2.98 1.88,-6.03 4.2,-0.39 4.36,-4.65 8.3,-1.58 2.05,2.62 11.64,3.37 5.43,-1.15 4.25,3.72 5.26,-1.35 3.25,6.94 -0.08,6.58 6.23,2.76 2.66,14.01 1.96,3.39 -1.93,8.33 -2.69,2.24 -0.88,6.99 -5.17,10.21 0.56,4.44 -5.68,1.57 -2.51,3.77 -4.76,-2.75 -7.89,7.89 -3.17,4.86 0.16,4.72 -5.4,4.56 -0.71,9.59 3.05,5.67 -3.52,8.13 -5.73,-5.07 -4.21,-0.12 -0.82,-16.54 -6.2,2.42 -12.65,-2.83 -6.24,0.93 -1.34,6.37 -4.9,4.41 -6.08,0.56 -4.29,-3.08 -0.85,-4.02 2.5,-5.27 -1.36,-6.54 1.29,-7.7 -5.25,-3.81 3.31,-4.88 -2.78,-7.71 z"
       id="M01513"
       style="fill:#ffff80;fill-opacity:1;stroke:#000000;stroke-width:2.1586;stroke-dasharray:none;stroke-opacity:1" />
    <path
       d="m 674.95,412.7 -3.94,8.22 -7.09,6.64 -6.62,8.1 -8.68,0.49 -1.64,2.25 -7.58,-3.28 -6.66,4.33 -6.4,1.2 -5.8,6.43 0.55,6.82 -10.58,2.89 -3.41,3.43 -1.79,-3.53 -6.79,1.17 -4.59,-1.55 -5.26,2.05 -10.16,-3.22 -2.44,-7.27 -7.29,0.24 -4.32,2.77 -4.78,12.59 -5.27,2.37 -0.82,-5.29 -5.32,-3.5 0.45,-4.64 -3.64,-6.81 -3.57,1.81 -7.82,-2.05 -1.46,-3.66 -6.35,-4.31 -2.75,-5.85 2.32,-8.36 2.19,-3.9 -8.06,-13.2 -6.59,-0.52 -6.06,-4.06 -5.64,1.97 -5.28,-2 -1.08,-8.13 -7.54,-10.36 3.26,-14.69 3.52,-8.13 -3.05,-5.67 0.71,-9.59 5.4,-4.56 -0.16,-4.72 3.17,-4.86 7.89,-7.89 4.76,2.75 2.51,-3.77 5.68,-1.57 -0.56,-4.44 5.17,-10.21 0.88,-6.99 2.69,-2.24 1.93,-8.33 -1.96,-3.39 -2.66,-14.01 3.5,-2.17 1.23,-4.87 4.95,-3.41 5.84,4.52 6.42,-12.9 4.52,-3.42 -7.16,-12.78 2.18,-2.43 9.48,-3.44 -1.43,4.65 2.62,5.22 8.47,6.37 -0.15,7.28 4.59,12.93 5.55,4.17 5.93,7.82 0.53,6.85 3.63,3.95 -1.24,8.87 7.51,10.76 8.56,5.82 0.98,5.45 3.71,5.03 4.77,12.76 5.25,2.35 2.94,6.76 6.63,7.79 -0.12,4.34 6.04,5.38 6.4,12.3 12.12,11.33 7.08,10.16 13.84,12.83 z"
       id="M01514"
       style="fill:#ffff80;fill-opacity:1;stroke:#000000;stroke-width:2.1586;stroke-dasharray:none;stroke-opacity:1" />
    <path
       d="m 439.29,234.14 -10.96,-9.2 -0.54,-5.82 -10.56,-6.02 -8.05,3.76 -4.98,8.51 -4.22,2.23 -5.05,-9.53 -10.97,-4.7 -6.5,-7.37 0.35,-7.61 10.81,-9.74 -2.48,-5.28 -2.14,-13.12 -9.41,-11.38 5.01,-3.6 3.35,-6.12 -1.94,-6.02 3.16,-7.09 -4.35,-3.72 0.55,-7.78 -1.31,-6.28 -8.19,-3.61 -0.28,-5.47 2.89,-6.9 -5.38,-8.7 0.87,-4 5.12,-4.89 16.79,-5.43 1.02,-4.34 5.52,-1.28 2.17,-12.85 4.54,4.31 35.77,25.5 9.1,13.42 12.08,16.04 12.61,18.33 7.4,9.72 20.98,25.13 -8.86,7.04 -8.03,-6.16 -15.66,-9.42 -4.3,5.95 -7.2,2.38 -4.7,-1.72 -6.62,8.99 0.15,7.37 -5.92,2.35 1.16,4.98 6.07,6.07 2.67,17.79 -4.06,1.89 -2.07,6.81 0.99,4.96 z"
       id="M01511"
       style="fill:#ffff80;fill-opacity:1;stroke:#000000;stroke-width:2.1586;stroke-dasharray:none;stroke-opacity:1" />
    <path
       d="m 439.8,273.65 1.29,-5.41 -3.52,-4.91 -2.01,-9.35 3.89,-5.16 1.97,-8.01 -4.89,-0.1 2.76,-6.57 6.4,-1.62 -0.99,-4.96 2.07,-6.81 4.06,-1.89 -2.67,-17.79 -6.07,-6.07 -1.16,-4.98 5.92,-2.35 -0.15,-7.37 6.62,-8.99 4.7,1.72 7.2,-2.38 4.3,-5.95 15.66,9.42 8.03,6.16 8.86,-7.04 21.5,26.68 13.97,14.49 12.28,14.69 7.71,0.67 -9.48,3.44 -2.18,2.43 7.16,12.78 -4.52,3.42 -6.42,12.9 -5.84,-4.52 -4.95,3.41 -1.23,4.87 -3.5,2.17 -6.23,-2.76 0.08,-6.58 -3.25,-6.94 -5.26,1.35 -4.25,-3.72 -5.43,1.15 -11.64,-3.37 -2.05,-2.62 -8.3,1.58 -4.36,4.65 -4.2,0.39 -1.88,6.03 -6.03,2.98 -12.94,11.85 z m 51.37,-77.57 10.27,5.76 1.47,-6.5 -1.82,-3.56 -8.5,-7.61 h -5.02 z m -14.53,-8.32 3.2,-4.15 6.24,-3.18 -6.21,-6.05 -6.92,6.52 z"
       fill-rule="evenodd"
       id="M01512"
       style="fill:#ffff80;fill-opacity:1;stroke:#000000;stroke-width:2.1586;stroke-dasharray:none;stroke-opacity:1" />
    <path
       d="m 23.43,30.35 5.82,9.91 4.65,4.36 5.15,0.97 12.58,-8.78 6.08,13.99 -3.62,6.92 0.82,28.21 -3.33,5.39 2.54,10.54 -4.06,11.96 0.52,8.39 -7.31,2.07 -3.02,-4.69 3.47,-6.28 -2.23,-8.23 L 36.65,99.41 34.24,86 28.4,70.32 32.35,51.89 26.37,38.35 23.16,35.67 Z"
       id="M01517"
       style="fill:#ffff80;fill-opacity:1;stroke:#000000;stroke-width:2.1586;stroke-dasharray:none;stroke-opacity:1" />
    <path
       d="m 86.27,148.73 6,6.8 10.61,1.97 6.32,8.5 9.05,4.37 3.21,15.08 2.11,1.41 -3.57,22.91 -14.44,-6.5 -3.91,-5.29 -4.63,-1.68 -4.98,-4.65 -1.5,-4.53 -7.1,-7.66 -4.08,-10.95 3.97,-2.39 -2.88,-11.95 z"
       id="M01518"
       style="fill:#ffff80;fill-opacity:1;stroke:#000000;stroke-width:2.1586;stroke-dasharray:none;stroke-opacity:1" />
    <path
       d="m 383.96,213.37 -3.71,5.31 -4.44,-0.32 -4.16,5.23 -7.51,-1.55 -5.49,-4.14 -12.22,3.24 -5.38,-0.57 -4.76,-3.13 -11.12,16.65 -11.05,1.34 -12.42,-4.41 -1.24,-8.1 -5.76,-3.31 -4.98,0.53 -20.51,15.08 -4.08,8.69 -4.98,-11.87 -20.2,-44.98 -4.46,-14.46 7.6,0.37 -1.26,-12.64 12.66,-4.42 7.97,-6.44 0.59,-5.66 8.27,-2.92 5.11,-0.08 5.92,4.53 6.33,-3.74 2.32,-8.1 -1.18,-4.81 9.99,-4.44 1.37,7.42 5.79,11.83 -4.85,3.44 10.05,13.92 7.91,-2.96 0.44,6.03 3.35,2.88 4.91,-2.76 5.84,1.91 -0.12,6.53 13.56,-0.25 -0.08,-6.83 4.2,-6.19 10.53,-11.31 7.11,0.56 11.19,-5.34 1.94,6.02 -3.35,6.12 -5.01,3.6 9.41,11.38 2.14,13.12 2.48,5.28 -10.81,9.74 -0.35,7.61 z"
       id="M01516"
       style="fill:#ffff80;fill-opacity:1;stroke:#000000;stroke-width:2.1586;stroke-dasharray:none;stroke-opacity:1" />
    <path
       d="m 503.01,1035.09 3.45,-9.15 3.24,-2.16 -3.4,-20.15 8.68,-1.27 30.78,19.82 -6.04,9.41 11.1,7.23 14.51,-1.01 11.85,5.91 0.28,4.94 -8.8,2.16 -2.85,3.01 -4.46,-2.54 -10.48,1.73 -10.9,0.55 -4.69,-3.05 -5.16,8.04 -11.86,-7.64 -12.91,-5.68 -3.03,-5.46 z"
       id="M01461"
       style="fill:#ffff80;fill-opacity:1;stroke:#000000;stroke-width:2.1586;stroke-dasharray:none;stroke-opacity:1" />
    <path
       d="m 490.94,1202.87 -6.45,-1.03 -9.16,-7.69 -1.72,-8.09 -4.67,-4.05 -2.1,-6.16 0.52,-5.62 6.11,-8.72 -3.2,-7.37 3.33,-7.41 2.6,-10.36 4.68,-4.41 -1.32,-17.89 5.25,3.16 8.6,10.41 2.07,8.11 -0.8,11.26 11.5,3.12 6.52,-3.14 -0.89,-7.07 4.6,-0.87 3.32,-8.25 -0.27,-4.17 7.36,-0.06 6.12,2.38 2.32,8.6 4.02,4.45 8.92,1.51 8.65,-4.19 8.41,-6.59 2.23,1.84 11.28,1.5 4.05,-3.42 4.43,0.07 6.44,-8.17 10.29,-2.76 3.58,-6.86 4.08,-1.07 3.9,-7.68 -2.99,-3.2 5.18,-6.96 0.02,-10.86 -6.8,-6.74 -1.21,-5.2 -3.35,-1.07 -5.34,-9.24 1.14,-3.56 6.8,-3.31 -0.51,-3.47 6.55,-10.09 -0.61,-7.79 1.32,-1.79 11.92,12.75 5.02,8.85 10.23,3.11 3.95,-1.83 2.67,5.11 -7.08,3.08 -4.74,20.31 0.64,6.14 3.56,11.85 -4.57,5.25 2.85,3.97 -2.91,3.05 2.29,10.29 7.98,5.82 1.5,9.61 4.01,3.23 -5.03,5.55 0.9,15.01 -10.54,16.64 2.41,3.68 -5.63,4.78 7.45,12.39 1.51,7.3 0.32,11.05 -4.87,3.95 -4.37,-2.38 -6.41,-7.25 -4.95,-1.55 -7.65,-6.8 -10.08,-13.33 -6.82,-4.16 -9.91,0.32 -1.78,-5.18 2.07,-6.71 -9.76,-4.75 -5.38,-6.27 -6.17,-2.47 -6.91,-0.27 -4.57,7.51 -4.76,1.71 0.97,4.53 -3.43,3.55 -5.15,0.43 -2.71,4.22 -5.5,1.76 -5.83,-4.93 -7.03,2.18 -5.99,-5.43 -4.98,1.78 -6.83,-2.71 -0.8,5.33 -5.18,2.69 -1.05,11.03 -4.71,1.8 z"
       id="M01462"
       style="fill:#ffff80;fill-opacity:1;stroke:#000000;stroke-width:2.1586;stroke-dasharray:none;stroke-opacity:1" />
    <path
       d="m 620.79,1026.82 -5.05,6.08 -1.32,1.79 -4.37,2.48 -8.2,1.26 -8.14,5.73 -6.87,-4.68 -9.66,4.24 -11.85,-5.91 -14.51,1.01 -11.1,-7.23 6.04,-9.41 -30.78,-19.82 5.78,-2.37 -0.21,-12.24 1.46,-2.04 0.09,-16.48 7.77,1.59 5.93,-1.93 9.85,12.73 3.98,2.57 9.46,2.01 5.34,-4.48 7.49,3.78 8.58,-4.67 9.25,7.63 -0.92,6.78 6.26,8.24 8.68,3.84 8.23,10.99 z"
       id="M01460"
       style="fill:#ffff80;fill-opacity:1;stroke:#000000;stroke-width:2.1586;stroke-dasharray:none;stroke-opacity:1" />
    <path
       d="m 537.79,691.97 -4.87,8.67 -8.36,11.69 -10.54,3.32 -2.86,-4.51 -4.65,10.53 -4.42,-0.35 -9.43,7.2 -3.36,-1.38 -11.62,0.15 2.1,-6.16 -4.41,-10.63 0.38,-4.72 4.04,-2.19 -0.28,-8.65 -2.08,-5.04 3.76,-12.83 0.2,-7.17 5.62,-8.45 6.9,-1.95 0.05,5.34 7.14,4.41 4.08,9.91 20.03,-3.81 -1.07,11.39 7.91,4.22 z"
       id="M01465"
       style="fill:#ffff80;fill-opacity:1;stroke:#000000;stroke-width:2.1586;stroke-dasharray:none;stroke-opacity:1" />
    <path
       d="m 635.21,1221.46 -6.04,7.64 -7.26,2.8 -3.97,-1.4 -4.14,4.18 -11.93,-2.04 -6.28,6.25 -9.31,3.42 -5.56,11.39 0.67,4.94 -4.51,6.86 -4.87,2.95 -8.56,-5.88 -6.38,4.42 -5.77,-4.51 -4.02,4.13 -3.16,-1.16 -7.71,2.73 -6.66,-8.21 -8.9,-1.31 1.88,8.19 -7.95,12.76 -7.25,-1.95 -7.37,3.63 -5.13,-3.29 2.81,-8.56 -7.09,-4.52 -3.66,-10.71 -8.05,-1.44 -1.77,-5.82 3.31,-4.61 -1.15,-7.25 5.59,-16.18 9.52,-4.98 2.42,-2.87 -3.38,-7.14 -2.64,-1.05 2.97,-4.38 4.71,-1.8 1.05,-11.03 5.18,-2.69 0.8,-5.33 6.83,2.71 4.98,-1.78 5.99,5.43 7.03,-2.18 5.83,4.93 5.5,-1.76 2.71,-4.22 5.15,-0.43 3.43,-3.55 -0.97,-4.53 4.76,-1.71 4.57,-7.51 6.91,0.27 6.17,2.47 5.38,6.27 9.76,4.75 -2.07,6.71 1.78,5.18 9.91,-0.32 6.82,4.16 10.08,13.33 7.65,6.8 4.95,1.55 z"
       id="M01463"
       style="fill:#ffff80;fill-opacity:1;stroke:#000000;stroke-width:2.1586;stroke-dasharray:none;stroke-opacity:1" />
    <path
       d="m 477.68,727.29 11.62,-0.15 3.36,1.38 9.43,-7.2 4.42,0.35 4.65,-10.53 2.86,4.51 10.54,-3.32 8.36,-11.69 4.87,-8.67 5.33,5.33 -1.58,3.57 2.29,6.31 3.68,4.11 2.22,7.98 0.18,7.79 -1.86,10.27 1.1,3.33 -2.38,9.39 6.32,8.4 -1.41,9.43 -7.58,-4.4 -6.11,-0.96 -3.74,3.07 -1.86,6.67 -3.72,1.78 -3.06,-4.75 -15.73,-2.4 -1.88,-2.14 -10.27,2.2 -7.33,-0.43 -2.4,6.65 -5.72,0.08 -1.88,2.74 -11.61,-5.11 -1.53,-2.94 2.8,-5.04 0.08,-7.23 -5.85,-18.78 7.91,-7.64 z"
       id="M01464"
       style="fill:#ffff80;fill-opacity:1;stroke:#000000;stroke-width:2.1586;stroke-dasharray:none;stroke-opacity:1" />
    <path
       d="m 673.64,670.9 1.69,5.4 -0.49,8.69 3.31,2.47 3.21,7.31 -1.24,8.31 4.71,2.63 -3.42,7.2 4.75,5.1 1.63,5.08 -4.35,4.2 3.5,3.74 -0.86,6.24 5.4,-0.52 2.99,5.27 -1.35,3.06 2.86,6.68 -7.18,17.68 -4.46,1.22 -2.28,3.9 -4.14,-0.99 -7.02,7.05 -0.04,3.91 -4.93,3.31 -6.21,-0.57 -0.82,-2.94 -7.53,-3.73 -6.25,-5.76 -6.11,-9.04 -1.57,-7.34 -2.6,-1.29 -1.71,-7.39 -4.96,-3.14 -9.03,-9.44 -13,4.62 -11.55,-9.18 -8.34,3.56 0.53,2.98 -8.82,3.9 -5.34,0.15 -4.72,6.79 -4.87,0.02 -2.16,3.39 -7.78,5.02 -6.32,-8.4 2.38,-9.39 -1.1,-3.33 1.86,-10.27 -0.18,-7.79 -2.22,-7.98 -3.68,-4.11 -2.29,-6.31 1.58,-3.57 -5.33,-5.33 -5.74,-1.01 -7.91,-4.22 1.07,-11.39 -20.03,3.81 -4.08,-9.91 -7.14,-4.41 -0.05,-5.34 -6.9,1.95 -5.62,8.45 -0.2,7.17 -3.76,12.83 2.08,5.04 0.28,8.65 -4.04,2.19 -0.38,4.72 4.41,10.63 -2.1,6.16 -5.48,1.96 -7.91,7.64 -9.13,-7.13 -1.23,1.31 -10.29,-8.1 -0.93,-6.09 2.16,-4.54 0.23,-11.57 5.07,-6.73 2.91,-6.81 -5.53,-7.62 -3.05,-9.12 3.48,-4.39 -1.23,-8.95 -4.75,-3.77 9.33,-7.15 2.18,-7.3 2.09,-12.97 -3.68,-3.27 -5.37,4.04 -3.73,-6.38 7.16,-11.93 4.3,3.75 2.17,-8.44 9.18,-0.08 3.17,4.58 15.01,7.08 0.9,4.47 5.89,-2.26 -0.41,-3.07 43.05,-0.16 2.35,8.43 10.69,0.12 3.66,7.09 2.31,9.12 7.59,6.76 2.01,9.73 6.58,-2.24 8.04,2.82 1.33,3.87 8.41,2.7 7.73,-1.11 2.8,1.69 5.69,3.37 8.95,-3.28 1.21,-4.82 9.56,-1.71 1.17,6.65 8.24,-7.74 8.39,-1.99 5.14,5.28 4.54,1.14 5.66,8.98 1.61,5.76 4.18,3.29 6.71,-5.92 z"
       id="M01220"
       style="fill:#ffff80;fill-opacity:1;stroke:#000000;stroke-width:2.1586;stroke-dasharray:none;stroke-opacity:1" />
    <path
       d="m 586.03,530.75 -0.79,5.66 -6.27,6.5 -2.45,5.06 4.45,20.53 2.34,5.89 -1.54,11.09 -1.62,2.92 -6.27,2.26 -7.19,15.1 20.46,2.42 0.67,9.25 3.98,3.77 -1.15,5.81 10.02,15.45 -1.03,4.18 5.19,3.45 -4.3,3.94 0.08,6.03 -3.87,3.21 -2.8,-1.69 -7.73,1.11 -8.41,-2.7 -1.33,-3.87 -8.04,-2.82 -6.58,2.24 -2.01,-9.73 -7.59,-6.76 -2.31,-9.12 -3.66,-7.09 -10.69,-0.12 -2.35,-8.43 -43.05,0.16 -6.5,-8.92 -1.28,-6.19 -3.59,-1.96 10.17,-9.82 0.2,-8.4 5.31,-4.18 -0.82,-15.86 -2.33,-8.15 0.35,-2.47 -3.81,-13.4 10.19,-8.34 7.88,-1.85 7.65,-5.02 3.6,-0.41 3.69,-6 6.03,-0.4 0.62,4.95 5.4,0.83 13.51,-2.04 6.37,10.52 10.26,3.81 15.97,-2.47 z"
       id="M01221"
       style="fill:#ffff80;fill-opacity:1;stroke:#000000;stroke-width:2.1586;stroke-dasharray:none;stroke-opacity:1" />
    <path
       d="m 639.48,899.38 9.48,-7.06 12.43,-0.9 8.91,5.63 11.63,-5.26 6.25,0.77 0.35,3.72 -3.27,5.11 2.55,4.38 6.71,-1.98 3.13,2.57 -3.14,3.4 -6.5,11.35 -5.57,5.98 -6.53,-0.25 -2.04,5.22 -5.99,-6.19 -3.49,2.46 -16.93,1.46 -12.35,-1.66 -13.27,-3.03 -5.24,1.49 -15.47,0.47 -13.51,-10.28 -10.57,-3.56 -6.01,-9.19 -8.46,-6.34 -15.9,-6.3 1.11,-20.49 6.09,-3.88 11.05,2.9 8.14,8.48 14.01,5 10.97,-1.79 6.47,8.97 7.88,1.61 6.92,6.04 8.03,1.45 2.77,-1.65 z"
       id="M01458"
       style="fill:#ffff80;fill-opacity:1;stroke:#000000;stroke-width:2.1586;stroke-dasharray:none;stroke-opacity:1" />
    <path
       d="m 506.3,1003.63 -0.56,-3.83 4.4,-5.84 -1.27,-3.99 -6.58,-5.65 -2.95,0.23 -1.84,-7.29 -3.9,-5.78 0.44,-5.28 2.49,-9.37 -1.73,-5.97 6.06,-5.12 0.09,-5.62 3.54,-6.6 4.87,-3.39 3.25,1.63 5.04,-4.62 -0.5,-6.02 3.64,-3.47 -1.28,-7.58 2.54,-1.77 8.97,1.47 5.86,6.56 0.99,5.68 8.2,7.49 4.8,0.17 16.78,-2.41 9.54,-2.55 5.3,-2.01 9.34,4.85 9.3,-0.49 15.47,-0.47 5.24,-1.49 13.27,3.03 12.35,1.66 16.93,-1.46 3.49,-2.46 5.99,6.19 2.04,-5.22 6.53,0.25 5.57,-5.98 6.5,-11.35 3.14,-3.4 1.63,7.21 -4.5,14.83 -0.36,11.39 -2.59,8.24 1.27,7.57 -6.55,-1.73 -8.77,10.12 0.71,9.01 -4.49,3.84 -8.53,-4.13 -0.54,8.08 -5.31,6.23 -6.36,2.71 -0.99,3.89 -21.64,16.93 -1.4,9.11 -8.44,7.16 -8.79,-8.51 -8.23,-10.99 -8.68,-3.84 -6.26,-8.24 0.92,-6.78 -9.25,-7.63 -8.58,4.67 -7.49,-3.78 -5.34,4.48 -9.46,-2.01 -3.98,-2.57 -9.85,-12.73 -5.93,1.93 -7.77,-1.59 -0.09,16.48 -1.46,2.04 0.21,12.24 -5.78,2.37 z"
       id="M01459"
       style="fill:#ffff80;fill-opacity:1;stroke:#000000;stroke-width:2.1586;stroke-dasharray:none;stroke-opacity:1" />
    <path
       d="m 567.9,750.02 4.72,-6.79 5.34,-0.15 8.82,-3.9 -0.53,-2.98 8.34,-3.56 11.55,9.18 13,-4.62 9.03,9.44 4.96,3.14 1.71,7.39 2.6,1.29 1.57,7.34 6.11,9.04 6.25,5.76 -5.55,6.91 -11.38,-4.26 -7.19,3.36 -0.94,6.04 2.84,3.52 -4.45,21.95 2.28,3.91 -7.48,7.43 -7.15,-9.83 -4.05,-16.67 -4.55,-0.2 -1.2,4.05 -6.76,-2.01 -13.68,-1.33 -3.33,-2.99 -5.22,0.21 -6.37,-4.17 4.1,-7.69 -7.37,-7.83 -3.94,-6.63 -0.39,-6.01 7.36,-3.9 -0.79,-4.69 4.09,-3.02 z"
       id="M01456"
       style="fill:#ffff80;fill-opacity:1;stroke:#000000;stroke-width:2.1586;stroke-dasharray:none;stroke-opacity:1" />
    <path
       d="m 688.8,769.44 2.29,12.92 4.07,2.21 3.79,-2.46 8.4,0.15 16.64,-7.99 5.81,7.32 4.87,3.06 8.11,-3.15 5.82,4.95 -1.91,5.4 -10.19,10.22 0.4,10.59 -3.14,1.02 0.96,8.25 -1.29,8.56 9.45,8.42 -6.25,3.28 -2.5,3.8 0.65,6.63 -2.41,2.56 1.41,8.39 4.56,5.15 9.25,1.56 6.28,-1.16 1.85,4.08 7.48,-2.47 7.83,-5.29 6.24,-0.11 5.96,-4.4 5.25,3.64 3.87,10.03 -6.4,13.79 -5.08,7.54 -2.44,6.24 0.72,4.44 6.79,4.13 4.2,10.69 -6.12,4.24 -2.64,6.16 -4.04,3.86 2.07,6.12 -2.9,3.47 -6.37,2.17 -4.87,4.87 -14.59,8.66 -6.48,-3.8 -7.3,9.93 -2.27,6.66 -13.86,-2.85 -5.6,3.93 -6.69,-9.05 -10.08,-8.7 -5.3,-1.5 -1.27,-7.57 2.59,-8.24 0.36,-11.39 4.5,-14.83 -1.63,-7.21 -3.13,-2.57 -6.71,1.98 -2.55,-4.38 3.27,-5.11 -0.35,-3.72 -6.25,-0.77 -11.63,5.26 -8.91,-5.63 -12.43,0.9 -9.48,7.06 -1.63,-7.21 2.12,-6.89 -3.52,-3.55 1.07,-5.21 -7.54,-8.48 -3.99,-12.51 -0.48,-6.5 -6.4,-14.19 0.39,-5.38 7.48,-7.43 -2.28,-3.91 4.45,-21.95 -2.84,-3.52 0.94,-6.04 7.19,-3.36 11.38,4.26 5.55,-6.91 7.53,3.73 0.82,2.94 6.21,0.57 4.93,-3.31 0.04,-3.91 7.02,-7.05 4.14,0.99 2.28,-3.9 z"
       id="M01457"
       style="fill:#ffff80;fill-opacity:1;stroke:#000000;stroke-width:2.1586;stroke-dasharray:none;stroke-opacity:1" />
    <path
       d="m 434.09,792.5 -3.34,-6.54 -5.94,-7.19 -2.64,-10.69 -3.4,-4.53 2.56,-5.77 -7.54,-18.08 -0.83,-7.09 2.2,-7.4 -10.04,-1.76 -3.17,-3.72 4.53,-6.56 -2.65,-4.32 -3.42,-12.55 6.38,-7.3 1.62,-12.9 0.02,-9.13 4.35,-8.39 -2.17,-6.51 -7.65,-0.89 -5.68,-7.27 -0.02,-7.54 7.97,-3.6 -3.03,-9.9 -6.47,-6.74 -2.83,-7.25 10.27,-6.54 -2.49,-5.08 1.96,-2.93 -1.8,-5.77 2.52,-4.66 -4.41,-4.12 -4.05,-0.65 -1.6,-4.74 -0.15,-10.66 -3.6,-6.17 5,-5.12 6.47,-3.93 11.84,-14.53 5.98,-0.06 3.51,-12.88 -0.1,-4.55 10.31,-1.94 7.93,2.47 8.65,6.65 1.31,3.69 7.63,0.87 5.45,11.74 16.62,14.74 2.94,1.34 8.26,-5.08 2.33,8.15 0.82,15.86 -5.31,4.18 -0.2,8.4 -10.17,9.82 3.59,1.96 1.28,6.19 6.5,8.92 0.41,3.07 -5.89,2.26 -0.9,-4.47 -15.01,-7.08 -3.17,-4.58 -9.18,0.08 -2.17,8.44 -4.3,-3.75 -7.16,11.93 3.73,6.38 5.37,-4.04 3.68,3.27 -2.09,12.97 -2.18,7.3 -9.33,7.15 4.75,3.77 1.23,8.95 -3.48,4.39 3.05,9.12 5.53,7.62 -2.91,6.81 -5.07,6.73 -0.23,11.57 -2.16,4.54 0.93,6.09 10.29,8.1 1.23,-1.31 9.13,7.13 5.85,18.78 -0.08,7.23 -2.8,5.04 -2.73,3.59 -10.11,-0.14 -3.22,1.82 -6.36,9.6 -3.12,1.23 z"
       id="M01472"
       style="fill:#ffff80;fill-opacity:1;stroke:#000000;stroke-width:2.1586;stroke-dasharray:none;stroke-opacity:1" />
    <path
       d="m 442.48,358.42 6.08,-0.56 4.9,-4.41 1.34,-6.37 6.24,-0.93 12.65,2.83 6.2,-2.42 0.82,16.54 4.21,0.12 5.73,5.07 -3.26,14.69 7.54,10.36 1.08,8.13 5.28,2 5.64,-1.97 6.06,4.06 6.59,0.52 8.06,13.2 -2.19,3.9 -7.07,2.56 -6.62,-5.04 -8.22,1.56 -6.76,4.87 -5.81,1.25 -6.52,-1.39 -6.15,1.79 -4.77,8.69 -3.99,2.75 -8.98,-0.16 -5.08,6.89 1.1,5.43 -8.35,1.49 -1.89,-10.71 -5.17,-2.52 -1.55,-9.68 -6.01,-7.9 4,-13.06 -6.84,-3.3 2.68,-9.42 6.32,-4.33 -7.27,-3.93 6.66,-13.9 -0.82,-7.98 z"
       id="M01470"
       style="fill:#ffff80;fill-opacity:1;stroke:#000000;stroke-width:2.1586;stroke-dasharray:none;stroke-opacity:1" />
    <path
       d="m 399.59,60.79 -2.17,12.85 -5.52,1.28 -1.02,4.34 -16.79,5.43 -5.12,4.89 -0.87,4 5.38,8.7 -2.89,6.9 0.28,5.47 8.19,3.61 1.31,6.28 -0.55,7.78 4.35,3.72 -3.16,7.09 -11.19,5.34 -7.11,-0.56 -10.53,11.31 -4.2,6.19 0.08,6.83 -13.56,0.25 0.12,-6.53 -5.84,-1.91 -4.91,2.76 -3.35,-2.88 -0.44,-6.03 -7.91,2.96 -10.05,-13.92 4.85,-3.44 -5.79,-11.83 -1.37,-7.42 -9.99,4.44 1.18,4.81 -2.32,8.1 -6.33,3.74 -5.92,-4.53 -5.11,0.08 -8.27,2.92 -0.59,5.66 -7.97,6.44 -12.66,4.42 1.26,12.64 -7.6,-0.37 -3.23,-10.89 1.74,-20 12.17,-16.57 3.81,-11.35 -1.54,-7.64 2.49,-1.48 7.4,-10.06 4.56,-12.51 -0.06,-5.29 -6.55,-10.56 -1.32,-14.49 2.05,-8.99 2.62,-5.12 7.73,8.88 2.51,10.16 8.89,2.66 1.33,4.21 11.77,-2.11 1.89,-6.07 8.69,4.62 8.63,-1.28 14.88,-7.72 8.75,-8.6 5.13,-10.63 -1.65,-4.36 2.13,-6.27 -0.19,-6.06 4.99,-7.13 6.63,-4.26 8.34,-2.69 8.65,6.18 2.9,13.86 8.02,9.87 9.03,4.5 1.91,8.34 3.77,3.56 -0.57,4.77 z"
       id="M01214"
       style="fill:#ffff80;fill-opacity:1;stroke:#000000;stroke-width:2.1586;stroke-dasharray:none;stroke-opacity:1" />
    <path
       d="m 391.95,305.9 0.48,3.22 8.18,0.16 5.76,-1.53 9.25,0.12 8.6,1.58 4.29,-2.06 6.54,8.02 2.78,7.71 -3.31,4.88 5.25,3.81 -1.29,7.7 1.36,6.54 -2.5,5.27 0.85,4.02 4.29,3.08 -4.14,8.72 0.82,7.98 -6.66,13.9 7.27,3.93 -6.32,4.33 -2.68,9.42 6.84,3.3 -4,13.06 6.01,7.9 1.55,9.68 5.17,2.52 1.89,10.71 -3.46,9.66 9.11,9.26 -1.77,6.12 3.83,11.35 3.27,2.28 0.08,11.78 -5.06,1.92 -0.77,9.15 -4.32,8.28 -8.65,-6.65 -7.93,-2.47 -10.31,1.94 -2.38,-6.87 -7.8,-0.17 -4.57,-3.47 -11.21,-16.78 5.09,-10.48 -2.81,-3.92 -2.43,-12.62 -8.6,-3.33 -2.77,-6.44 2.29,-6.65 -3.77,-2.35 -0.05,-10.51 2.3,-3.94 -3.94,-2.47 -0.41,-7.83 -2.99,-5.27 4.39,-7.36 -2.62,-2.36 0.5,-6.84 -3.7,-4.32 -2.83,-8.36 4.62,-7.55 0.39,-9.18 3.57,-10.35 1.36,-8.76 -2.46,-7.22 3.33,-9.51 -6.28,-8.75 3.47,-4.66 1.32,-6.81 5.62,-1.11 z"
       id="M01471"
       style="fill:#ffff80;fill-opacity:1;stroke:#000000;stroke-width:2.1586;stroke-dasharray:none;stroke-opacity:1" />
    <path
       d="m 607.1,460.22 3.03,5.77 -0.96,5.15 -5.79,6.86 -0.02,8.48 3.46,2.71 -6.33,3.7 -2.57,4.15 -0.77,7.01 -5.85,6.63 -1.24,9.86 -4.03,10.21 -6.97,-2.07 -15.97,2.47 -10.26,-3.81 -6.37,-10.52 -13.51,2.04 -5.4,-0.83 -0.62,-4.95 -6.03,0.4 -3.69,6 -3.6,0.41 -7.65,5.02 -7.88,1.85 -10.19,8.34 3.81,13.4 -0.35,2.47 -8.26,5.08 -2.94,-1.34 -16.62,-14.74 -5.45,-11.74 -7.63,-0.87 -1.31,-3.69 4.32,-8.28 0.77,-9.15 5.06,-1.92 -0.08,-11.78 -3.27,-2.28 -3.83,-11.35 1.77,-6.12 -9.11,-9.26 3.46,-9.66 8.35,-1.49 -1.1,-5.43 5.08,-6.89 8.98,0.16 3.99,-2.75 4.77,-8.69 6.15,-1.79 6.52,1.39 5.81,-1.25 6.76,-4.87 8.22,-1.56 6.62,5.04 7.07,-2.56 -2.32,8.36 2.75,5.85 6.35,4.31 1.46,3.66 7.82,2.05 3.57,-1.81 3.64,6.81 -0.45,4.64 5.32,3.5 0.82,5.29 5.27,-2.37 4.78,-12.59 4.32,-2.77 7.29,-0.24 2.44,7.27 10.16,3.22 5.26,-2.05 4.59,1.55 6.79,-1.17 z"
       id="M01469"
       style="fill:#ffff80;fill-opacity:1;stroke:#000000;stroke-width:2.1586;stroke-dasharray:none;stroke-opacity:1" />
    <path
       d="m 585.24,536.41 7.8,-1.45 4.66,0.98 10.71,-1.52 1.43,-4.86 4.45,-2.99 5.5,-9.55 4.01,-4.11 6.16,0.33 2.96,9.95 6.25,-1.17 3.48,4.03 5.65,-4.64 10.28,3.98 5.81,-1.19 3.51,1.91 7.6,-2.24 -1.17,6.31 3.83,3.97 -5.42,5.96 -3.9,1.16 -2.12,4.77 4.16,8.1 -2.24,4.27 0.61,9.26 -8.08,13.05 0.07,5.38 7.49,1.31 -0.13,11.59 1.89,5.64 -1,10.18 6.69,2.51 7.33,9.14 1.54,10.71 -2.19,3.74 2.67,7.33 1.73,13.9 -0.19,7.37 -4.92,2.36 -8.51,-0.98 -5.85,1.38 -6.71,5.92 -4.18,-3.29 -1.61,-5.76 -5.66,-8.98 -4.54,-1.14 -5.14,-5.28 -8.39,1.99 -8.24,7.74 -1.17,-6.65 -9.56,1.71 -1.21,4.82 -8.95,3.28 -5.69,-3.37 3.87,-3.21 -0.08,-6.03 4.3,-3.94 -5.19,-3.45 1.03,-4.18 -10.02,-15.45 1.15,-5.81 -3.98,-3.77 -0.67,-9.25 -20.46,-2.42 7.19,-15.1 6.27,-2.26 1.62,-2.92 1.54,-11.09 -2.34,-5.89 -4.45,-20.53 2.45,-5.06 z"
       id="M01468"
       style="fill:#ffff80;fill-opacity:1;stroke:#000000;stroke-width:2.1586;stroke-dasharray:none;stroke-opacity:1" />
    <path
       d="m 479.56,1114.07 -0.63,-8.52 3.63,-12.59 -0.98,-4.53 -4.64,-4.17 2.95,-11.7 5.49,-3.83 -2.44,-6.28 0.99,-3.7 13.3,-9.5 6.85,-3.42 -3.02,-3.32 1.95,-7.42 -0.69,4.69 3.03,5.46 12.91,5.68 11.86,7.64 5.16,-8.04 4.69,3.05 10.9,-0.55 10.48,-1.73 4.46,2.54 2.85,-3.01 8.8,-2.16 -0.28,-4.94 9.66,-4.24 6.87,4.68 8.14,-5.73 8.2,-1.26 4.37,-2.48 0.61,7.79 -6.55,10.09 0.51,3.47 -6.8,3.31 -1.14,3.56 5.34,9.24 3.35,1.07 1.21,5.2 6.8,6.74 -0.02,10.86 -5.18,6.96 2.99,3.2 -3.9,7.68 -4.08,1.07 -3.58,6.86 -10.29,2.76 -6.44,8.17 -4.43,-0.07 -4.05,3.42 -11.28,-1.5 -2.23,-1.84 -8.41,6.59 -8.65,4.19 -8.92,-1.51 -4.02,-4.45 -2.32,-8.6 -6.12,-2.38 -7.36,0.06 0.27,4.17 -3.32,8.25 -4.6,0.87 0.89,7.07 -6.52,3.14 -11.5,-3.12 0.8,-11.26 -2.07,-8.11 -8.6,-10.41 z"
       id="M01229"
       style="fill:#ffff80;fill-opacity:1;stroke:#000000;stroke-width:2.1586;stroke-dasharray:none;stroke-opacity:1" />
    <path
       d="m 567.19,796.52 6.37,4.17 5.22,-0.21 3.33,2.99 13.68,1.33 6.76,2.01 1.2,-4.05 4.55,0.2 4.05,16.67 7.15,9.83 -0.39,5.38 6.4,14.19 0.48,6.5 3.99,12.51 -6.54,4.11 -8.69,-0.59 -4.8,-5.49 -10.19,1.13 -3.79,-4.54 -12.64,-0.07 -3.87,-1.66 -1.87,-8.16 -5.02,2.52 -4.13,-5.38 h -5.34 l -21.86,-25.34 12.84,-8.36 4.47,-9.14 5.98,-9.35 z"
       id="M01454"
       style="fill:#ffff80;fill-opacity:1;stroke:#000000;stroke-width:2.1586;stroke-dasharray:none;stroke-opacity:1" />
    <path
       d="m 532.39,772.26 1.86,-6.67 3.74,-3.07 6.11,0.96 7.58,4.4 1.41,-9.43 7.78,-5.02 2.16,-3.39 4.87,-0.02 2.35,6.73 -4.09,3.02 0.79,4.69 -7.36,3.9 0.39,6.01 3.94,6.63 7.37,7.83 -4.1,7.69 -2.66,1.2 -5.98,9.35 -4.47,9.14 -12.84,8.36 -1.92,-7.84 -0.4,-11.23 -2.7,-17.68 -2.7,-4.84 1.24,-4.4 z"
       id="M01455"
       style="fill:#ffff80;fill-opacity:1;stroke:#000000;stroke-width:2.1586;stroke-dasharray:none;stroke-opacity:1" />
    <path
       d="m 480.4,775.99 1.88,-2.74 5.72,-0.08 2.4,-6.65 7.33,0.43 10.27,-2.2 1.88,2.14 15.73,2.4 3.06,4.75 -7.7,10.84 -2.65,9.83 0.28,11.28 -7.93,8.25 7.85,8.2 -13.07,7.2 -9.2,9.18 -6.12,10.12 -5.15,0.74 -2.53,-20.16 2.24,-2.74 -2.27,-6.47 -2.82,-0.83 3.53,-11.5 -3,-0.71 -3.66,-9.7 1.53,-6.52 -1.02,-4.72 4.15,-4.44 z"
       id="M01452"
       style="fill:#ffff80;fill-opacity:1;stroke:#000000;stroke-width:2.1586;stroke-dasharray:none;stroke-opacity:1" />
    <path
       d="m 546.68,891.39 15.9,6.3 8.46,6.34 6.01,9.19 10.57,3.56 13.51,10.28 -9.3,0.49 -9.34,-4.85 -5.3,2.01 -1.24,-7.54 -18.89,2.91 -2.29,1.29 -21.52,-20.15 -8.55,-4.87 -6.47,-15.78 4.06,-4.3 6.01,4.17 9.98,4.29 z"
       id="M01453"
       style="fill:#ffff80;fill-opacity:1;stroke:#000000;stroke-width:2.1586;stroke-dasharray:none;stroke-opacity:1" />
    <path
       d="m 342.19,774.19 1.49,3.76 -2.7,4.54 6.47,11.92 -1.42,3.44 -6.31,2.37 -4.01,4.84 -2.81,9.89 0.09,5.69 -9.99,2.14 0.23,4.97 -5.88,-1.09 -5.7,3.77 3.26,5.29 -0.77,6.95 -11.65,8.06 1.62,3.94 -2.85,9.69 -6.6,-7.53 -2.42,-6.6 -7.62,-4.75 -7.19,-0.36 -1.99,-9.54 0.75,-4.24 -11.65,-14.39 0.23,-9.43 -5.28,-3.47 -7.84,-8.59 -5.85,-1.88 6.58,-8.62 2.28,-10.56 4.22,-13.66 1.92,-10.98 1.08,4.08 4.76,3.78 3.85,6.15 8.85,3.24 10.41,8.29 3.03,4.86 9.96,-0.18 3.74,-2.67 5.35,-10.42 8.1,-2.32 4.65,1.45 2.48,-3.32 6.22,1.13 z"
       id="M01212"
       style="fill:#ffff80;fill-opacity:1;stroke:#000000;stroke-width:2.1586;stroke-dasharray:none;stroke-opacity:1" />
    <path
       d="m 494.04,966.2 -7.16,-3.67 -0.8,-5.74 -3.9,-5.04 -1.58,-14.6 2.79,-3.49 0.63,-9.58 -4.85,-9.63 -7.64,-4.14 -5.05,4.1 -7.59,1.3 -7.17,4.03 -1.74,-6.25 -5.9,-9.13 0.23,-12.22 1.3,-8.27 -3.16,-2.54 0.82,-4.73 8.29,-1.85 -0.85,-9.81 7.79,-9.28 2.88,-10.3 4.22,-1.65 -10.88,-18.64 4.06,-8.82 -3.31,-5.19 -13.49,-1.08 -4.48,-2.9 0.98,-8.31 -4.39,-6.27 7.63,-8.46 3.12,-1.23 6.36,-9.6 3.22,-1.82 10.11,0.14 2.73,-3.59 1.53,2.94 11.61,5.11 0.73,5.9 -4.15,4.44 1.02,4.72 -1.53,6.52 3.66,9.7 3,0.71 -3.53,11.5 2.82,0.83 2.27,6.47 -2.24,2.74 2.53,20.16 5.15,-0.74 6.12,-10.12 9.2,-9.18 13.07,-7.2 -7.85,-8.2 7.93,-8.25 -0.28,-11.28 2.65,-9.83 7.7,-10.84 3.72,-1.78 2.37,6.32 -1.24,4.4 2.7,4.84 2.7,17.68 0.4,11.23 1.92,7.84 21.86,25.34 h 5.34 l 4.13,5.38 5.02,-2.52 1.87,8.16 3.87,1.66 12.64,0.07 3.79,4.54 10.19,-1.13 4.8,5.49 8.69,0.59 6.54,-4.11 7.54,8.48 -1.07,5.21 3.52,3.55 -2.12,6.89 1.63,7.21 -9.36,-1.35 -2.77,1.65 -8.03,-1.45 -6.92,-6.04 -7.88,-1.61 -6.47,-8.97 -10.97,1.79 -14.01,-5 -8.14,-8.48 -11.05,-2.9 -6.09,3.88 -1.11,20.49 -8.4,-6.66 -9.98,-4.29 -6.01,-4.17 -4.06,4.3 6.47,15.78 8.55,4.87 21.52,20.15 2.29,-1.29 18.89,-2.91 1.24,7.54 -9.54,2.55 -16.78,2.41 -4.8,-0.17 -8.2,-7.49 -0.99,-5.68 -5.86,-6.56 -8.97,-1.47 -2.54,1.77 1.28,7.58 -3.64,3.47 0.5,6.02 -5.04,4.62 -3.25,-1.63 -4.87,3.39 -3.54,6.6 -0.09,5.62 -6.06,5.12 1.73,5.97 z"
       id="M01204"
       style="fill:#ffff80;fill-opacity:1;stroke:#000000;stroke-width:2.1586;stroke-dasharray:none;stroke-opacity:1" />
  </g>
</svg>
