<?xml version="1.0" encoding="UTF-8" standalone="no"?>
<svg
   version="1.2"
   width="648.69897"
   height="600"
   viewBox="0 0 648.69898 600"
   stroke-linecap="round"
   stroke-linejoin="round"
   id="svg7002"
   sodipodi:docname="dn.svg"
   inkscape:version="1.2 (dc2aedaf03, 2022-05-15)"
   xmlns:inkscape="http://www.inkscape.org/namespaces/inkscape"
   xmlns:sodipodi="http://sodipodi.sourceforge.net/DTD/sodipodi-0.dtd"
   xmlns="http://www.w3.org/2000/svg"
   xmlns:svg="http://www.w3.org/2000/svg">
  <defs
     id="defs7006" />
  <sodipodi:namedview
     id="namedview7004"
     pagecolor="#505050"
     bordercolor="#eeeeee"
     borderopacity="1"
     inkscape:showpageshadow="0"
     inkscape:pageopacity="0"
     inkscape:pagecheckerboard="0"
     inkscape:deskcolor="#505050"
     showgrid="false"
     inkscape:zoom="1.1202703"
     inkscape:cx="297.24969"
     inkscape:cy="301.7129"
     inkscape:window-width="1920"
     inkscape:window-height="1009"
     inkscape:window-x="-8"
     inkscape:window-y="-8"
     inkscape:window-maximized="1"
     inkscape:current-layer="svg7002" />
  <g
     id="dn"
     transform="matrix(0.81165312,0,0,0.81165312,-0.31165476,-0.31165313)"
     style="fill:#ffff80;fill-opacity:1;stroke:#000000;stroke-width:1.23205;stroke-dasharray:none;stroke-opacity:1">
    <path
       d="m 509.11,37.66 0.8,-3.08 3.17,-3.6 -1.52,-2 -5.65,5.45 -16.69,1.48 -3.22,-1.95 -7.72,-7.77 -4.83,1.28 -2.86,-2.04 -5.45,-0.33 -3.25,1.59 0.22,4.09 -6.52,5.37 -7.2,-1.76 -3.36,1.33 -2.49,-4.39 -3.58,-1.87 -4.51,-6.94 -6.79,-4.52 -6.45,-0.09 -4.81,-3.33 -7.61,3.09 -3.38,-0.74 -6.42,11.12 -11.94,0.01 -4.27,3.74 -6.84,-2.66 -3.44,-4.5 -8.57,1.33 -2.09,2.64 -1.47,-5.09 -3.5,-0.68 -1.84,-2.57 -8.87,1.15 -1.37,8.78 4.08,4.44 -2.31,7.41 -3.8,0.24 -0.8,8.19 -5.69,2.59 -2.19,6.76 -2.48,2.12 -3.34,-0.33 -4.67,-4.75 -9.7,-3.14 -10.09,3.28 -5.94,-3.76 -3.09,2.57 -2.14,-1.55 -1.28,-7.65 -4.61,-4.6 -4.03,-1.05 -2.96,2.21 -9.81,-3 -1.89,-2.51 -12.76,-0.84 -2,-4.09 4.76,-6.66 -1.64,-3.51 -8.99,0.7 -2.9,-2.42 -10.04,1.51 -13.3,2.96 -4.23,-2.47 -6.39,-0.7 -3.14,0.78 1.31,-3.22 6.89,-4.62 -0.18,-2.92 L 220.7,6.83 222.67,1 H 799 v 106.83 l -7.26,6.7 -7,0.38 -10.11,7.54 -4.16,-0.42 -6.92,6.2 -15.68,15.65 -1.96,1.2 -8.86,10.41 -9.98,13.69 0.68,3.18 -4.03,1.02 -9.07,10.21 -4.54,6.24 -1.67,8.85 -2.87,3.02 -11.35,-4.47 -2.88,0.77 -4.34,-5.61 -6.16,-1.09 -1.04,-3.57 -3.05,-3.4 -0.81,-3.93 7.91,-3.97 3.15,3.19 4.41,1.88 0.31,4.79 2.85,2.49 3.46,-1.83 -1.31,-9.65 11.27,-2.24 -2.57,-1.84 -9.03,1.55 0.83,-4.65 -19.4,-4.07 -8.16,-3.33 -3.54,-4.39 -1.45,-13.9 -1.56,-8.04 -2.41,-6.8 -6.43,-13 -4.49,-6.8 -3.19,-2.22 -9.26,-2.72 -5.35,-4.59 -3.61,-4.68 -5.24,-3.1 -3.57,-4.63 -6.43,-0.58 -2.2,-9.72 -2.89,-2.55 2.65,-3.8 -3.21,-6.91 -4.78,-5.84 -5.66,-3.41 -5.96,-6.83 -4.01,-3.3 -4.72,-0.19 -0.76,-4.29 -5.57,-2.28 -11.02,0.24 -3.05,-0.78 -5.84,1.55 -4.17,-0.24 -11.1,4.66 -9.17,2.55 -3.68,3.23 -5.39,-2.04 -1.91,-2.51 -5.18,-1.69 z m 154.92,-20.05 -0.48,-3.01 -6.6,-6.81 -6.17,-3.54 -3.07,-0.1 -3.46,3.54 -2.67,-0.09 -2.64,-2.97 -3.86,-1.25 -6.4,6.6 -0.45,4.94 -5.63,4.52 -2.68,4.66 -4.33,4 4.26,18.73 4.67,3.22 9.9,-0.18 4.54,1.26 5.44,4.14 7.28,-0.59 2.53,-4.2 3.23,-0.25 2.58,-3.54 3.19,-0.48 2.02,-5.5 3.14,-2.35 3.55,-6.75 -0.06,-5.8 -4.46,-6.16 z m -15.61,8.36 1.11,3.78 -1.14,4.72 -5.52,1.12 -7.31,-5.09 -0.42,-3.1 4.32,-3.44 4.24,-0.82 z"
       fill-rule="evenodd"
       id="M01999"
       style="fill:#808080;fill-opacity:1;stroke:#000000;stroke-width:1.23205;stroke-dasharray:none;stroke-opacity:1" />
    <path
       d="m 433.45,494.25 -2.08,0.8 -1.65,5.8 1.23,4.7 -0.97,5.9 -3.58,3.09 3.82,4.24 -0.24,3.12 -2.7,2.95 -1.57,6.08 -6.4,1.23 -0.89,2.56 -5.7,-1.38 -1.85,3.45 -2.48,10.6 -1.03,7.11 -2.86,3.77 -3.23,1.76 0.1,4.55 -0.18,1.64 -10.21,4.18 -3.66,6.26 -5.59,4.52 -4.22,-0.26 -4.93,5.42 -5.53,-1.46 -2.77,4.05 0.67,6.39 -0.74,4.74 -2.62,1.41 -1.74,4.18 -3.31,1.12 -4.9,6.01 -5.96,-3.86 -4.95,1.36 -3.49,-0.75 -5.24,4.1 -3.11,-5.27 -4.73,-3.99 -3.39,1.18 -12.08,-1.28 -1.53,-7.78 -4.27,-1.92 -3.86,-4.78 -2.08,-5.26 -3.81,-2.5 -5.78,1.66 -5.76,-1.79 -2.19,1.08 2.2,-6.47 -0.78,-3.1 2.4,-2.7 0.79,-13.22 1.77,-4.19 -0.06,-4.77 6.43,-8.53 2.68,-6.38 4.16,-3.95 4.27,-8.48 2.29,-2.01 5.03,-9.68 2.31,-8.86 0.18,-13.13 -1.37,-3.23 5.89,-2.79 5.96,0.73 4.56,1.83 2.7,-3.09 3.31,-8.45 4.86,5.66 8.85,0.68 6.87,1.93 6.98,-0.83 3.53,1.29 6.83,-1.18 4.45,-4.58 0.16,-8.12 -2.41,-3.29 -4.53,-3.35 1.61,-6.2 6.41,1.4 7.74,5.79 1.81,-1.76 3.14,3.12 4.89,1.56 5.79,5.6 3.69,-0.14 4.88,8.25 5.43,2.82 4.33,5.21 3.41,-1.32 5.17,1.57 z"
       id="M01362"
       style="fill:#ffff80;fill-opacity:1;stroke:#000000;stroke-width:1.23205;stroke-dasharray:none;stroke-opacity:1" />
    <path
       d="m 433.45,494.25 -5.43,-7.63 -5.17,-1.57 -3.41,1.32 -4.33,-5.21 -5.43,-2.82 -4.88,-8.25 -3.69,0.14 -5.79,-5.6 -4.89,-1.56 -3.14,-3.12 -1.81,1.76 -7.74,-5.79 -6.41,-1.4 -0.78,-5.62 5.75,-4.11 3.58,-5.34 -0.26,-2.68 -7.16,-1.9 -4.79,-0.33 -2.65,-2.19 -6.9,-1.53 -6.51,-5.46 -5.54,-0.4 1.81,-4.57 -1.19,-3.83 8.85,-1.7 7.86,2.67 6.6,-3.12 3.3,0.37 3.34,-7.15 5.11,-0.31 0.48,-4.73 2.7,-1.79 0.27,-5.84 3.68,-1.23 0.64,-3.24 2.94,-3.66 2.19,-2.92 -1.04,-3.15 3.21,-2.32 -2.15,-7.65 -1.64,-10.19 4.03,-3.05 -0.54,-1.96 3.95,-9.72 3.21,-1.66 4.49,0.33 2.09,-1.86 3.63,0.49 4.2,6.37 4.3,-1.92 5.01,1.46 3.33,3.76 3.61,-1.47 0.39,-2.8 7.55,0.2 3.97,7.57 5.3,2.73 9.86,-0.18 2.16,1.21 10.33,6.41 7.25,10.49 -2.78,4.16 v 5.86 l 2.05,6.07 0.62,6.38 -4.34,1.19 -1.41,3.94 -5.87,4.32 4.11,4.27 -1.08,4.81 3.64,6.01 6.16,5.6 -2.13,10.37 -1.81,2.29 -1.54,8.46 -5.32,1.15 5.46,5.98 -0.23,3.65 -8.26,3.55 -5.33,3.85 -0.29,3.8 2.99,5.6 -1.72,4.03 -3.76,-2.99 -5.41,0.14 -4.59,4.17 -4.22,-1.3 -4.17,1.4 -2.66,6.38 z"
       id="M01363"
       style="fill:#ffff80;fill-opacity:1;stroke:#000000;stroke-width:1.23205;stroke-dasharray:none;stroke-opacity:1" />
    <path
       d="m 371.33,454.52 -1.61,6.2 4.53,3.35 2.41,3.29 -0.16,8.12 -4.45,4.58 -6.83,1.18 -3.53,-1.29 -6.98,0.83 -6.87,-1.93 -8.85,-0.68 -4.86,-5.66 1.05,-7.78 0.38,-9.25 -2.67,-6.43 4.72,-3.18 1.08,-8.37 2.15,-4.01 -1.23,-6.61 2.12,-4.95 -0.57,-8.23 -2.98,-13.46 3.36,-4.03 12.35,-1.6 5.73,3.48 5.26,-1.42 11.27,-4.85 4.37,0.21 8.57,-5.75 3.37,0.55 -2.94,3.66 -0.64,3.24 -3.68,1.23 -0.27,5.84 -2.7,1.79 -0.48,4.73 -5.11,0.31 -3.34,7.15 -3.3,-0.37 -6.6,3.12 -7.86,-2.67 -8.85,1.7 1.19,3.83 -1.81,4.57 5.54,0.4 6.51,5.46 6.9,1.53 2.65,2.19 4.79,0.33 7.16,1.9 0.26,2.68 -3.58,5.34 -5.75,4.11 z"
       id="M01361"
       style="fill:#ffff80;fill-opacity:1;stroke:#000000;stroke-width:1.23205;stroke-dasharray:none;stroke-opacity:1" />
    <path
       d="m 96.09,231.57 0.8,3.76 -0.28,7.47 -4.05,5.83 -0.12,4.76 -2.29,3.9 -5.05,3.57 -5.15,6.66 -1.87,5.33 -0.22,9.69 2.56,3.05 -2.06,6.28 0.74,2.82 -1.87,4.3 -1.35,6.88 -2.51,6.06 -0.42,5.68 -3.54,5.52 -0.18,2.88 -4.57,5.07 -11.7,3.27 -3.05,4.29 -10.14,-5.98 -2.22,0.12 1.79,-9.13 -0.94,-4.34 0.91,-3.3 -3.19,-7.98 2.17,-8.29 0.08,-4.01 -3.01,-6.2 -1.36,-5.19 -3.15,-4.62 2.53,-3.26 -1.99,-4.67 8,-10.99 -0.07,-4.16 4.38,-6.4 2.7,-0.82 8.79,0.93 4.15,-3.53 27.14,-6.32 5.47,-3.24 z"
       id="M01367"
       style="fill:#ffff80;fill-opacity:1;stroke:#000000;stroke-width:1.23205;stroke-dasharray:none;stroke-opacity:1" />
    <path
       d="m 400.47,345.87 -3.95,9.72 0.54,1.96 -4.03,3.05 1.64,10.19 2.15,7.65 -3.21,2.32 1.04,3.15 -2.19,2.92 -3.37,-0.55 -8.57,5.75 -4.37,-0.21 -11.27,4.85 -5.26,1.42 -5.73,-3.48 -12.35,1.6 -3.36,4.03 -2.48,-5.12 2.56,-7.59 -2.32,-2.71 -2.35,-11.48 -1.08,-2.31 -6.7,-2.15 1.1,-3.07 -2.43,-4.36 -1.7,-6.87 -4.17,-3.75 -0.96,-3.63 -5.07,-4.88 -0.62,-3.21 3.1,-0.95 3.83,-3.51 7.04,-2.88 1.93,1 11.87,1.19 4.27,-1.94 3.49,4.72 8.6,-3.16 7.63,0.87 0.2,-6.36 2.16,-4.48 5.84,-0.39 3.83,-2.87 3.03,4.51 -3.61,3.69 10.89,7.51 0.87,2.84 3.99,0.66 6.61,3.06 z"
       id="M01364"
       style="fill:#ffff80;fill-opacity:1;stroke:#000000;stroke-width:1.23205;stroke-dasharray:none;stroke-opacity:1" />
    <path
       d="m 464.07,482.34 1.72,-4.03 -2.99,-5.6 0.29,-3.8 5.33,-3.85 8.26,-3.55 0.23,-3.65 -5.46,-5.98 5.32,-1.15 1.54,-8.46 1.81,-2.29 2.13,-10.37 -6.16,-5.6 -3.64,-6.01 1.08,-4.81 -4.11,-4.27 5.87,-4.32 1.41,-3.94 4.34,-1.19 -0.62,-6.38 -2.05,-6.07 v -5.86 l 2.78,-4.16 5.55,3.25 6.48,-0.42 4.5,1.92 1.96,-1.38 1.07,-4.52 3.76,-0.14 7.34,2.83 1.14,3.65 -0.6,4.34 6.32,-1.46 3.25,2.63 1.22,3.6 5.99,3.88 4.9,-0.76 2.31,4.89 3.72,-0.14 2.68,5.91 -0.98,8.78 1.92,1.92 6.11,1.27 6.41,4.9 7.74,1.46 0.88,7.88 2.85,5.32 -2.92,1.77 0.74,8.08 4.33,-1.09 1.09,3.46 -0.65,6.1 1.88,5.06 3.47,-3.83 3.3,-0.85 -0.96,5.37 2.59,9.08 5.67,7.58 -4.19,4.69 -3.31,-3.9 -8.18,-3.29 -7.31,-0.59 -4.24,0.67 -8.42,3.67 -5.29,5.36 -1.98,5.65 1.11,4.35 -3,5.6 -0.63,5.17 -3.24,3.38 0.27,3.57 -1.35,7.66 -8.72,3.13 -1.44,3.27 -6.66,1.85 -2.66,2.99 -4.14,-7 1.9,-5.5 -9.33,-4.34 -9.04,-10.68 -5.03,-1.02 -2.96,-3.35 -7.67,-3.22 -2.37,-2.48 -5.84,0.73 -6.46,-4.74 v -4.28 z"
       id="M01236"
       style="fill:#ffff80;fill-opacity:1;stroke:#000000;stroke-width:1.23205;stroke-dasharray:none;stroke-opacity:1" />
    <path
       d="m 207.42,22.93 3.14,-0.78 6.39,0.7 4.23,2.47 13.3,-2.96 10.04,-1.51 2.9,2.42 8.99,-0.7 1.64,3.51 -4.76,6.66 2,4.09 12.76,0.84 1.89,2.51 9.81,3 2.96,-2.21 4.03,1.05 4.61,4.6 1.28,7.65 2.14,1.55 -0.45,6.15 -6.55,5.14 -1.71,2.68 -8.49,4.22 -3.5,4.86 -4.79,3.66 0.77,5.88 5.09,3.8 2.65,5.43 0.27,4 -4.02,7.83 -1.99,1.17 -0.35,4.42 -2.61,1.04 -0.87,4.67 -3.36,4.29 -0.45,7.63 -8.62,5.81 -4.12,-1.59 -2.36,1.01 8.36,7.6 4.28,1.13 3.04,3.43 -2.95,6.53 -0.2,5.77 2.37,3.56 2.72,10.89 -0.95,4.15 2.35,3.34 1.73,7.63 4.2,4.32 1.98,4.92 1.31,8.85 6.6,7.71 4.16,0.29 2.69,6.11 3.88,3.09 -1.51,4.87 3.37,6.24 1.53,7.86 -3.29,1.58 -6.01,-0.76 -2.72,1.63 -2.84,4.46 0.32,4.41 -5.03,3.17 -5.46,-1.86 -4.02,-2.8 -2.72,0.85 -4.91,7.34 -3.35,0.94 -2.66,3.55 -0.17,8.97 -3.78,8.25 0.7,7.74 -3.32,2.49 -3.33,-7.01 -0.59,-3.4 -3.17,-6.87 -3.66,-5.24 -0.52,-5.05 -5.34,-4.07 -0.69,-9.61 -7.13,-6.4 -4.37,1.47 -2.28,-2.01 -4.59,-0.19 -4.88,-2.2 -4.91,0.78 -0.78,-3.59 -5.22,0.1 -2.69,-2.62 -2.01,-6.04 -3.98,-3.92 -1.83,-6.31 4.21,-4.63 0.36,-2.81 -5.88,-14.78 -1.98,-0.93 0.92,-9.01 2.34,-4.53 -1.06,-1.84 3.66,-13.41 6.39,-1.97 2.65,-5.61 5.18,-4.75 0.69,-3.85 5.32,-7.01 3.01,-6.94 4.25,-15.38 -0.68,-6.5 1.35,-7.12 2.23,-5.47 -2.75,-7.86 1.02,-7.96 -2.64,-10.51 1.68,-8.02 -2.79,-8.15 -1.6,-7.54 -0.05,-5.88 -1.27,-6.2 -1.84,-1.99 -0.69,-6.02 -1.61,-3.99 0.79,-2.75 z"
       id="M01371"
       style="fill:#ffff80;fill-opacity:1;stroke:#000000;stroke-width:1.23205;stroke-dasharray:none;stroke-opacity:1" />
    <path
       d="m 294.77,55.82 3.09,-2.57 5.94,3.76 10.09,-3.28 9.7,3.14 4.67,4.75 3.34,0.33 2.48,-2.12 2.19,-6.76 5.69,-2.59 0.8,-8.19 3.8,-0.24 2.31,-7.41 -4.08,-4.44 1.37,-8.78 8.87,-1.15 1.84,2.57 3.5,0.68 1.47,5.09 1,4.28 -0.75,5.24 5.05,3.15 4.39,4.88 7.2,-0.16 1.45,3.92 5.5,-1.66 1.77,1.84 -0.53,5.66 7.68,4.18 -4.49,11.13 -6.75,8.01 -1.58,8.25 -4.34,8.25 -6.18,5.48 1.66,5.85 0.66,11.39 4.16,7.6 1.98,1.59 -2.32,3.89 2.37,8.23 2.41,3.55 -3.01,1.93 0.41,2.92 -5.98,1.33 -12.61,7.78 -7.21,3.17 -4.15,0.7 -3.14,6.98 -2.24,2.11 -5.89,-0.83 -3.6,8.45 -2.94,-0.69 -8.4,1.24 -5.11,4.19 2.82,3 -0.96,3.11 1.79,4.79 -3.16,0.66 -1.8,4.05 1.37,3.48 -7.49,5.81 -4.2,6.73 -3.15,1.17 -4.22,-3.72 -5.86,0.86 -1.87,5.15 -3.27,0.51 -4.16,-0.29 -6.6,-7.71 -1.31,-8.85 -1.98,-4.92 -4.2,-4.32 -1.73,-7.63 -2.35,-3.34 0.95,-4.15 -2.72,-10.89 -2.37,-3.56 0.2,-5.77 2.95,-6.53 -3.04,-3.43 -4.28,-1.13 -8.36,-7.6 2.36,-1.01 4.12,1.59 8.62,-5.81 0.45,-7.63 3.36,-4.29 0.87,-4.67 2.61,-1.04 0.35,-4.42 1.99,-1.17 4.02,-7.83 -0.27,-4 -2.65,-5.43 -5.09,-3.8 -0.77,-5.88 4.79,-3.66 3.5,-4.86 8.49,-4.22 1.71,-2.68 6.55,-5.14 z"
       id="M01370"
       style="fill:#ffff80;fill-opacity:1;stroke:#000000;stroke-width:1.23205;stroke-dasharray:none;stroke-opacity:1" />
    <path
       d="m 481.15,377 -7.25,-10.49 -10.33,-6.41 1.71,-2.67 -0.94,-3.24 1.37,-7.56 -1.16,-8.89 -3.47,-6.07 0.78,-5.65 1.53,-1.2 -3.63,-6 0.41,-3.7 -3.09,-6.62 -8.55,-5.23 1.85,-6.09 6.16,-9.48 5.97,-6.96 3.03,-0.11 2.12,-3.22 5.17,-0.69 2.42,-4.09 2.54,6.06 5.42,4.69 3.31,1.17 6.01,4.76 7,10.33 6.3,4.24 2.53,0.29 6.66,4.8 11.95,2.72 15.16,-3.79 16.56,-7.6 4.37,-0.26 10.03,1.54 6.84,-6.53 4.45,0.41 4.46,4.88 7.59,4.54 6.37,1.77 1.34,1.71 2.19,9.52 -5.86,2.26 -7.47,9.2 -5.37,2.29 -14.59,1.47 -4.68,4.33 9.34,31.49 -5.65,3.29 -7.16,0.96 -5,-1.84 -4.92,1.91 -5.2,0.65 -5.77,-1.03 -1.64,-2.81 -8.25,4.68 -4.24,3.56 0.87,2.9 -5.29,5.91 1.12,5.83 2.56,2.25 -5.99,-3.88 -1.22,-3.6 -3.25,-2.63 -6.32,1.46 0.6,-4.34 -1.14,-3.65 -7.34,-2.83 -3.76,0.14 -1.07,4.52 -1.96,1.38 -4.5,-1.92 -6.48,0.42 z"
       id="M01345"
       style="fill:#ffff80;fill-opacity:1;stroke:#000000;stroke-width:1.23205;stroke-dasharray:none;stroke-opacity:1" />
    <path
       d="m 568.36,337.43 4.68,-4.33 14.59,-1.47 5.37,-2.29 7.47,-9.2 5.86,-2.26 3.57,7.56 5.14,3.97 6.12,0.04 0.79,4.95 -0.38,5.96 3.57,3.93 1.21,5.01 2.91,4.54 9.16,6.73 4.21,5 4.88,2.39 -9.42,8.87 -1.24,3.87 0.14,9.7 1.16,4.1 -4.66,6.73 -2.1,-1.76 -3.11,5.13 -7.31,6.62 -1.79,3.81 -4.41,-2.78 -1.1,-2.63 -0.55,-8.83 1.58,-5.57 0.21,-6.49 -1.09,-6.46 -7.6,-10.29 h -4.9 l -9.33,-3.29 3.49,-4.04 -2.84,-3.35 -2.44,-12.12 -1.61,1.2 -8.76,-5.27 z"
       id="M01343"
       style="fill:#ffff80;fill-opacity:1;stroke:#000000;stroke-width:1.23205;stroke-dasharray:none;stroke-opacity:1" />
    <path
       d="m 577.95,460.68 0.96,-5.37 -3.3,0.85 -3.47,3.83 -1.88,-5.06 0.65,-6.1 -1.09,-3.46 -4.33,1.09 -0.74,-8.08 2.92,-1.77 -2.85,-5.32 -0.88,-7.88 -7.74,-1.46 -6.41,-4.9 -6.11,-1.27 -1.92,-1.92 0.98,-8.78 -2.68,-5.91 -3.72,0.14 -2.31,-4.89 -4.9,0.76 -2.56,-2.25 -1.12,-5.83 5.29,-5.91 -0.87,-2.9 4.24,-3.56 8.25,-4.68 1.64,2.81 5.77,1.03 5.2,-0.65 4.92,-1.91 5,1.84 7.16,-0.96 5.65,-3.29 -9.34,-31.49 11.47,7.68 8.76,5.27 1.61,-1.2 2.44,12.12 2.84,3.35 -3.49,4.04 9.33,3.29 h 4.9 l 7.6,10.29 1.09,6.46 -0.21,6.49 -1.58,5.57 0.55,8.83 1.1,2.63 -1.93,8.48 0.35,3.06 -3.51,5.68 -3.37,13.43 -10.03,5.21 -3.19,4.03 -1.28,4.44 -6.57,2.68 z"
       id="M01337"
       style="fill:#ffff80;fill-opacity:1;stroke:#000000;stroke-width:1.23205;stroke-dasharray:none;stroke-opacity:1" />
    <path
       d="m 463.57,360.1 -2.16,-1.21 -9.86,0.18 -5.3,-2.73 -3.97,-7.57 -7.55,-0.2 -0.39,2.8 -3.61,1.47 -3.33,-3.76 -5.01,-1.46 -4.3,1.92 -4.2,-6.37 -3.63,-0.49 -2.09,1.86 -4.49,-0.33 -3.21,1.66 -2.94,-3.25 -6.61,-3.06 -3.99,-0.66 -0.87,-2.84 -10.89,-7.51 3.61,-3.69 -3.03,-4.51 -3.83,2.87 -5.84,0.39 -2.16,4.48 -0.2,6.36 -7.63,-0.87 -8.6,3.16 -3.49,-4.72 -4.27,1.94 -11.87,-1.19 -1.93,-1 -7.04,2.88 -3.83,3.51 -3.1,0.95 -1.57,-5.61 -3.05,-3.38 -0.99,-3.85 -6.71,-9.23 -7.53,-8.97 -5.33,-3.51 -5.21,-0.8 -2.99,-3.21 -7.65,-0.17 -3.94,-1.43 -6.81,0.71 -11.17,-3.49 3.32,-2.49 -0.7,-7.74 3.78,-8.25 0.17,-8.97 2.66,-3.55 3.35,-0.94 4.91,-7.34 2.72,-0.85 4.02,2.8 5.46,1.86 5.03,-3.17 -0.32,-4.41 2.84,-4.46 2.72,-1.63 6.01,0.76 3.29,-1.58 -1.53,-7.86 -3.37,-6.24 1.51,-4.87 -3.88,-3.09 -2.69,-6.11 3.27,-0.51 1.87,-5.15 5.86,-0.86 4.22,3.72 3.15,-1.17 4.2,-6.73 7.49,-5.81 -1.37,-3.48 1.8,-4.05 3.16,-0.66 -1.79,-4.79 0.96,-3.11 -2.82,-3 5.11,-4.19 8.4,-1.24 2.94,0.69 3.6,-8.45 5.89,0.83 2.24,-2.11 3.14,-6.98 4.15,-0.7 7.21,-3.17 12.61,-7.78 5.98,-1.33 -2.72,1.31 -0.13,4.26 3.77,3.02 9.97,0.01 6.38,-4.04 4.67,1.83 4.96,5.03 -4.06,14.63 -3.15,16.47 -0.88,14.65 0.46,8.84 3.5,13.23 4.71,7.02 4.83,3.71 5.81,1.52 5.21,3.24 6.37,2.46 9.5,1.05 2.88,-0.91 4.3,1.33 4.81,3.79 4.84,8.3 5.96,4.31 3.94,1.44 3.78,6.2 5.96,1.92 -2.42,4.09 -5.17,0.69 -2.12,3.22 -3.03,0.11 -5.97,6.96 -6.16,9.48 -1.85,6.09 8.55,5.23 3.09,6.62 -0.41,3.7 3.63,6 -1.53,1.2 -0.78,5.65 3.47,6.07 1.16,8.89 -1.37,7.56 0.94,3.24 z"
       id="M01346"
       style="fill:#ffff80;fill-opacity:1;stroke:#000000;stroke-width:1.23205;stroke-dasharray:none;stroke-opacity:1" />
    <path
       d="m 361.84,28.61 2.09,-2.64 8.57,-1.33 3.44,4.5 6.84,2.66 4.27,-3.74 11.94,-0.01 6.42,-11.12 3.38,0.74 7.61,-3.09 4.81,3.33 6.45,0.09 6.79,4.52 4.51,6.94 3.58,1.87 2.49,4.39 3.36,-1.33 7.2,1.76 6.52,-5.37 -0.22,-4.09 3.25,-1.59 5.45,0.33 2.86,2.04 4.83,-1.28 7.72,7.77 3.22,1.95 16.69,-1.48 5.65,-5.45 1.52,2 -3.17,3.6 -0.8,3.08 -8.88,-1.07 -2.16,2.89 -7.49,0.25 -7.35,-3.02 -3.84,2.24 -10.73,10.13 -11.37,12.35 -6.63,8.13 -11.02,16.15 -6.48,10.96 -12.13,24.18 -8.25,20.12 -6.3,18.46 -4.96,-5.03 -4.67,-1.83 -6.38,4.04 -9.97,-0.01 -3.77,-3.02 0.13,-4.26 2.72,-1.31 -0.41,-2.92 3.01,-1.93 -2.41,-3.55 -2.37,-8.23 2.32,-3.89 -1.98,-1.59 -4.16,-7.6 -0.66,-11.39 -1.66,-5.85 6.18,-5.48 4.34,-8.25 1.58,-8.25 6.75,-8.01 4.49,-11.13 -7.68,-4.18 0.53,-5.66 -1.77,-1.84 -5.5,1.66 -1.45,-3.92 -7.2,0.16 -4.39,-4.88 -5.05,-3.15 0.75,-5.24 z"
       id="M01347"
       style="fill:#ffff80;fill-opacity:1;stroke:#000000;stroke-width:1.23205;stroke-dasharray:none;stroke-opacity:1" />
    <path
       d="m 582.02,482.03 4.19,-4.69 -5.67,-7.58 -2.59,-9.08 7.29,-1.42 6.57,-2.68 1.28,-4.44 3.19,-4.03 10.03,-5.21 3.37,-13.43 3.51,-5.68 -0.35,-3.06 1.93,-8.48 4.41,2.78 1.79,-3.81 7.31,-6.62 3.11,-5.13 2.1,1.76 4.66,-6.73 -1.16,-4.1 -0.14,-9.7 1.24,-3.87 9.42,-8.87 4.57,1.37 4.52,3.86 9.51,9.67 0.41,4.6 1.96,3.39 5.91,5.82 1.83,3.89 0.36,5.08 3.05,4.76 3.68,1.01 2,6.17 3,3.87 9.54,6.09 15.25,7.31 5.55,-2.12 5.64,1.1 4.34,2.11 8.96,2.12 2.03,2.18 10.26,4.04 11.44,9.58 4.15,0.59 2.72,2.52 -2.84,2.81 1.17,8.82 10.46,7.05 2.9,-0.62 4.03,6.78 -0.61,3.66 -4.9,3.67 -4.17,1.54 -3.61,4.88 -5.94,-0.28 -6.41,-2.21 -5.17,0.87 -2.73,1.98 -5.33,7.01 -2.91,5.69 -3.66,2.43 -2.14,8.13 -3.86,2.92 -5.62,1.91 -2.09,5.28 -4.82,-1.49 -5.81,4.82 -2.28,-1.86 -4.36,4.01 -6.2,-0.98 -9.97,3.99 -7.39,-3.01 -0.41,-3.62 -3.62,-4.9 -5.97,-4.49 -18.61,-7.85 -4.58,-0.61 -3.19,-2.56 -4.88,-1.19 -7.24,0.56 -5.42,-2.72 -14.05,-5.36 -6.4,-0.82 -4.92,0.48 -10.59,3.03 -4.86,4.03 -3.59,5.86 1.72,3.1 -7.68,3.15 -2,-1.73 -2.46,-6.18 -0.35,-5.97 5.64,-5.39 3.7,4.18 3.98,-4.03 1.04,-9.69 -3.1,-4.64 -3.34,-1.58 z"
       id="M01202"
       style="fill:#ffff80;fill-opacity:1;stroke:#000000;stroke-width:1.23205;stroke-dasharray:none;stroke-opacity:1" />
    <path
       d="m 372.58,586.34 4.93,-5.42 4.22,0.26 5.59,-4.52 3.66,-6.26 10.21,-4.18 0.18,-1.64 7.54,-0.21 3.29,1.14 4.31,4.51 6.28,0.41 3.95,-3.89 6.79,-2.76 4.6,-0.01 7.73,-2.72 7.06,5.42 8.5,3.2 4.35,-2.92 -2.37,29.55 0.08,18 0.81,6.9 2.34,2.17 0.19,6.03 -1.66,3.62 -10.36,14.08 0.07,-4.62 -4.9,-1.8 -5.1,-9.41 -4.97,0.9 -4.55,2.81 -0.08,5.23 -6.08,-0.74 -9.22,1.69 -4.12,-1.61 3.59,-7.06 0.12,-5.14 -7.35,-15.16 -0.26,-6.67 -4.59,-2.25 -1.87,1.25 -2.09,5.56 -9.27,4.74 -5.88,-1.81 -3.73,-2.5 -4.48,-6.32 -3.86,-0.16 -4.44,-5.71 -0.39,-5.61 2.6,-3.51 z"
       id="M01333"
       style="fill:#ffff80;fill-opacity:1;stroke:#000000;stroke-width:1.23205;stroke-dasharray:none;stroke-opacity:1" />
    <path
       d="m 401.37,564.58 -0.1,-4.55 3.23,-1.76 2.86,-3.77 1.03,-7.11 2.48,-10.6 1.85,-3.45 5.7,1.38 0.89,-2.56 6.4,-1.23 1.57,-6.08 2.7,-2.95 0.24,-3.12 -3.82,-4.24 3.58,-3.09 0.97,-5.9 -1.23,-4.7 1.65,-5.8 2.08,-0.8 5.81,-4.11 2.66,-6.38 4.17,-1.4 4.22,1.3 4.59,-4.17 5.41,-0.14 3.76,2.99 1.96,2.35 v 4.28 l 6.46,4.74 5.84,-0.73 2.37,2.48 7.67,3.22 2.96,3.35 5.03,1.02 9.04,10.68 9.33,4.34 -1.9,5.5 4.14,7 -2.75,1.11 -7.05,7.41 -2.33,4.1 -3.39,-0.61 -14.77,2.09 -9.28,0.31 -2.91,1.64 -5.64,7.57 -2.36,7.4 -0.72,5.16 -4.35,2.92 -8.5,-3.2 -7.06,-5.42 -7.73,2.72 -4.6,0.01 -6.79,2.76 -3.95,3.89 -6.28,-0.41 -4.31,-4.51 -3.29,-1.14 z"
       id="M01334"
       style="fill:#ffff80;fill-opacity:1;stroke:#000000;stroke-width:1.23205;stroke-dasharray:none;stroke-opacity:1" />
    <path
       d="m 199.4,732.31 4.81,3.56 -3.4,3.13 -3.65,-2.66 z M 3.92,642.35 l 4.84,1.13 7.19,-0.5 2.47,0.85 3.2,5.84 -0.17,2.56 -4.6,3.51 -5.38,0.44 -8.01,3.11 -0.74,-6.73 -1.72,-4.23 0.68,-4.11 z m 275.49,-59.37 2.19,-1.08 5.76,1.79 5.78,-1.66 3.81,2.5 2.08,5.26 3.86,4.78 4.27,1.92 1.53,7.78 12.08,1.28 3.39,-1.18 4.73,3.99 3.11,5.27 5.24,-4.1 3.49,0.75 4.95,-1.36 5.96,3.86 0.71,3.18 4.1,5.78 -1.61,8.91 4.14,3.61 -2.67,6.9 -2.87,1.17 0.6,6.66 -0.92,2.47 2.4,2.8 1.82,5.55 2.43,3.25 -1.41,8.14 3.95,2.09 4.23,5.44 -0.57,4.75 -2.59,3.84 2.46,3.39 0.49,3.56 3.2,1.46 -0.98,2.95 1.64,6.34 -2.81,2.71 1.32,2.55 -2.1,3.61 -2.46,-0.07 -5.55,-3.14 -9.08,-10.17 -6.84,-3.64 -3.43,0.67 -3.05,-1.96 -6.01,2.16 -8.96,1.21 -1.02,2.3 -6.42,-2.09 -0.94,-2.38 -10.63,-9.85 -2.96,-0.68 -5.56,-8.49 0.62,-6.03 -2.71,-6.3 -3.11,-4.73 0.79,-3.72 -3.14,-5.79 -0.93,-5.54 -2.27,-3 -1.72,-8.68 -2.67,-1.92 -2.92,-9.88 0.88,-1.93 -1.93,-20.42 0.53,-5.11 2,-3.73 z"
       fill-rule="evenodd"
       id="M01331"
       style="fill:#ffff80;fill-opacity:1;stroke:#000000;stroke-width:1.23205;stroke-dasharray:none;stroke-opacity:1" />
    <path
       d="m 351.64,612.78 4.9,-6.01 3.31,-1.12 1.74,-4.18 2.62,-1.41 0.74,-4.74 -0.67,-6.39 2.77,-4.05 5.53,1.46 1.37,2.86 -2.6,3.51 0.39,5.61 4.44,5.71 3.86,0.16 4.48,6.32 3.73,2.5 5.88,1.81 9.27,-4.74 2.09,-5.56 1.87,-1.25 4.59,2.25 0.26,6.67 7.35,15.16 -0.12,5.14 -3.59,7.06 4.12,1.61 9.22,-1.69 6.08,0.74 0.08,-5.23 4.55,-2.81 4.97,-0.9 5.1,9.41 4.9,1.8 -0.07,4.62 -1.84,-1.33 -8.16,2.32 -4.45,-0.84 -9.07,2.47 -3.3,4.02 -3.61,-1.14 -5.47,4 -9.66,4.78 -3.25,0.08 -9.17,3.1 -5.59,3.17 -0.92,8.14 -4.02,1.8 -1.24,5.53 -2.12,1.63 -0.62,4.8 -6.87,9.04 -1.99,8.57 -4.75,3.04 -1.32,-2.55 2.81,-2.71 -1.64,-6.34 0.98,-2.95 -3.2,-1.46 -0.49,-3.56 -2.46,-3.39 2.59,-3.84 0.57,-4.75 -4.23,-5.44 -3.95,-2.09 1.41,-8.14 -2.43,-3.25 -1.82,-5.55 -2.4,-2.8 0.92,-2.47 -0.6,-6.66 2.87,-1.17 2.67,-6.9 -4.14,-3.61 1.61,-8.91 -4.1,-5.78 z"
       id="M01332"
       style="fill:#ffff80;fill-opacity:1;stroke:#000000;stroke-width:1.23205;stroke-dasharray:none;stroke-opacity:1" />
  </g>
</svg>
