<?xml version="1.0" encoding="UTF-8" standalone="no"?>
<svg
   version="1.2"
   width="690"
   height="600"
   viewBox="0 0 690 600"
   stroke-linecap="round"
   stroke-linejoin="round"
   id="svg7566"
   sodipodi:docname="do.svg"
   inkscape:version="1.2 (dc2aedaf03, 2022-05-15)"
   xmlns:inkscape="http://www.inkscape.org/namespaces/inkscape"
   xmlns:sodipodi="http://sodipodi.sourceforge.net/DTD/sodipodi-0.dtd"
   xmlns="http://www.w3.org/2000/svg"
   xmlns:svg="http://www.w3.org/2000/svg">
  <defs
     id="defs7570" />
  <sodipodi:namedview
     id="namedview7568"
     pagecolor="#505050"
     bordercolor="#eeeeee"
     borderopacity="1"
     inkscape:showpageshadow="0"
     inkscape:pageopacity="0"
     inkscape:pagecheckerboard="0"
     inkscape:deskcolor="#505050"
     showgrid="false"
     inkscape:zoom="1.2066958"
     inkscape:cx="333.14113"
     inkscape:cy="296.67793"
     inkscape:window-width="1920"
     inkscape:window-height="1009"
     inkscape:window-x="-8"
     inkscape:window-y="-8"
     inkscape:window-maximized="1"
     inkscape:current-layer="svg7566" />
  <g
     id="do"
     transform="matrix(0.86340852,0,0,0.86340852,-0.36341035,3.4191734)"
     style="fill:#ffff80;fill-opacity:1;stroke:#000000;stroke-width:1.1582;stroke-dasharray:none;stroke-opacity:1">
    <path
       d="m 13.35,456.83 4.97,-0.04 2.21,1.29 12.17,-2.34 6.21,0.9 -1.63,5.31 1.04,2.13 6.66,0.44 6.1,2.87 3.65,-0.6 5.8,5.86 3.1,1.96 5.26,-1.71 5.06,1.64 2.44,2.47 3.03,-0.93 1.15,-3.53 2.96,-1.35 3.61,-8.26 -2.13,-2.32 0.72,-4.58 4.62,-0.6 2.8,3.42 6.69,-0.52 4.99,3.12 2.23,-1.96 h 6.23 l 3.35,-5.8 5.73,-1.23 5.87,1.79 3.54,2.36 5.52,6.88 5.51,0.23 3.4,-2.8 -0.11,-2.14 8.55,-0.26 5.71,5.07 8.7,-0.77 3.38,-3 -1.71,4.68 -4.63,-0.55 -5.03,1.64 -3.84,-1.58 -7.6,6.45 -9.39,10.69 -9.13,14.14 -6.32,12.62 -7.43,19.21 -3.93,17.15 -0.22,12.25 1.83,6.91 2.46,3.66 11.59,5.7 8.7,0.77 5.03,6.31 5.17,3 1.97,3.23 3.45,1.58 0.98,2.59 7.69,5.54 3.66,5.38 8.08,4.87 6.23,1.42 7.91,-1.97 8.64,-3.97 7.51,0.67 3.57,-3.41 12.63,6.94 1.71,6.88 3.98,4.11 3.18,0.02 0.22,5.69 4.01,7.04 6.98,6.11 4.93,1.97 7.31,7.06 1.24,4.16 3.08,3.04 1.15,4.68 3.51,3.01 2.61,5.24 4.97,3.18 7.96,3.82 2.89,-1.11 9.89,2.78 6.4,3.25 5.97,4.99 3.59,1.62 -1.44,2.71 H 80 l -1.2,-6.84 2.47,-1.66 1.68,-6.46 0.46,-6.03 -1.88,-11.8 -1.26,-2.19 0.12,-5.37 -1.78,-7.19 -2.93,-2.73 -2.15,-5.86 -5.32,-6.4 -3.25,-8.37 -7.43,-9.5 -7.06,-3.92 -9.6,-0.46 -5.1,-1.07 -6.33,-12.5 -3.06,-4.76 -0.36,-5.02 -3.72,-3.34 -2.28,0.77 -9.1,-3.76 -2.72,0.05 -4.53,-6.56 -0.95,-3.29 2.38,-3.89 -4.1,-8.19 1.15,-8.03 1.91,-7 3.33,-1.02 4.08,-5.41 4.71,-9.29 2.22,-8.02 -0.35,-3.39 1.86,-6.57 -1.43,-4.1 0.53,-4.16 -1.38,-5.48 0.88,-4.18 -2.29,-8.19 -0.69,-6.3 -2.16,-6.26 z m 771.75,135.25 -5.64,-2.2 -7.05,1.38 -3.71,-3.93 -4.31,-1.95 -2.16,1.24 -4.66,-3.76 -2.9,-8.31 -4.5,-1.26 -3.98,-5.19 0.28,-3.44 -7.02,-2.41 -2.32,-7.55 -6.4,-1.55 -0.5,-3.16 -4.55,-3.67 -1.54,-4.62 -1.89,-0.04 -3.09,-5.35 -3.28,-1.71 -2.26,-5.54 -2.19,-0.6 -4.34,-5.4 -0.76,-3.15 -3.68,-3.73 -0.7,-3.83 -4.89,-2.04 -4.54,0.75 -1.19,-5.2 -3.66,-5.11 1.95,-6.66 -1.25,-2.68 -3.1,-0.47 -3.34,-4.28 1.7,-8.42 -7.84,-2.17 -0.73,-6.61 -2.91,-2.01 -5.07,-12.67 -3.87,-0.51 -0.72,-4.54 -2.85,-2.44 -0.69,-5.66 2.16,-6.32 -1.32,-11.16 -4.74,0.19 -4.17,-5.04 -4.45,-0.14 -1.75,-3.54 2.36,-5.15 4.85,-2.45 0.09,-8.57 2,-4.55 0.63,-4.9 2.55,-3.44 6.29,-1.17 3.43,-3.66 -3.64,-2.71 -1.86,-6.18 -1.49,-1.51 4.83,-8.37 -1.24,-3.27 -2.84,-1.8 -2.18,-6.74 2.72,-3.87 0.33,-3.56 -7.88,-6.07 -3.81,4.77 -4.6,1.77 -2.52,-0.88 -2.62,2.65 -7.57,-1.3 -3.98,3.97 -5.9,2.16 -3.53,7.23 0.43,3.13 -2.86,4.35 -3.09,1.87 -5.43,-3.72 -4.04,2.8 -3.66,-2.86 -9.44,3.61 -4.22,-5.21 -5.64,-0.82 1.19,5.19 -1.74,4.24 -4.01,4.11 -3.89,-1.49 -4.67,2.3 -3.25,-2.09 1.78,-5.42 -4.49,-2.87 -2.32,-6.79 -5.11,-0.92 -1.12,-3.69 2.1,-2.92 -0.73,-4.6 3.54,-10.27 7.57,-4.97 -2.14,-4.53 -5.77,-1.32 -5.8,-4.88 -1.09,-5.13 -2.96,-2.57 -1,-7.47 3.87,-5.53 -2.03,-4.68 2.11,-4.7 1.65,-6.57 2.97,-2.79 -1.17,-8.33 -0.07,-8.43 2.3,-7.98 -0.61,-2.87 -2.95,-2.65 1.87,-7.42 3.48,-2.43 -0.92,-6.32 8.44,-6.03 4.34,-2.17 -2.07,-4.35 2.23,-2.81 1.34,-5.46 2.06,-1.37 -2.51,-15.21 2.79,-3.7 -0.81,-2.53 -4.17,-3.58 -5.51,-8.15 0.28,-3.34 -4.53,-2.34 -0.52,-3.64 -2.46,-3.19 -1.01,-9.26 1.77,-2.21 0.4,-6.08 -3.08,-6.11 -4.84,-2.63 -4.09,2.56 -6.49,1.87 -3.08,-2.41 -3.74,-5.79 0.97,-12.99 -1.48,-4.61 5.25,-1.18 -0.53,-6.22 4.93,-5.89 1.83,-6.53 2.67,-1.05 -6.9,-11.82 2.58,-5.59 -2.1,-3.29 -8.55,-0.69 -2.84,-1.84 0.62,-5.27 -2.87,-2 -2.03,-6.12 -3.76,-4.56 -1.68,-6.78 -2.16,-2.88 1.63,-3.66 -4.78,-11.47 -0.53,-4.49 1.4,-4.7 -6.35,-1.14 -2.74,9.11 -4.63,6.22 -2.8,-2.25 -5.37,-0.05 -2.15,3.84 -8.17,-1.78 -3.94,4.93 0.07,6.03 -6.6,2.05 -4.35,9.37 4.1,7.57 -0.9,2.17 -4,1.51 -2.55,3.07 -1.77,6.27 -0.01,3.72 -6.27,1.25 -7.2,4.85 2.07,3.36 -0.49,4.4 -7.38,5.11 1.02,2.5 -1.8,6.15 -4.19,-4.77 -1.53,-4.19 -4.83,-3.02 -4.56,-0.22 -0.85,3.18 2.15,8.86 -2.47,3.18 -6.5,-4.09 -3.71,1.07 -3.25,-1.12 -13.04,9.57 -3.19,3.21 -7.44,2.16 -0.02,0.8 -6.99,5.13 -0.59,2.16 -4.83,-4.98 -6.59,-0.93 -4.74,-2.25 -0.76,-4.68 -1.96,-3.43 -2.59,0.05 -4.84,3.05 -7.46,-3.01 2.99,-5.3 2.35,-2.02 1.9,-4.91 0.35,-4.25 2.21,-3.22 16.67,-10.31 1.97,0.82 5.98,-0.96 3.58,-5.8 2.08,-1.14 3.99,2.16 2.03,-2.65 7.85,-3.72 3.36,-3.57 4.29,-9.21 2.19,-2.01 4.12,-15.36 1.17,-8.1 2,-3.32 0.53,-4.61 L 418.73,12.46 417.74,1 H 799 v 515.67 l -6.8,14.01 -6.57,15.72 0.1,5.39 -3.73,10.21 -0.4,5.24 2.76,5.98 -0.39,3.22 3.73,3.22 -0.61,8.09 z"
       fill-rule="evenodd"
       id="M01999"
       style="fill:#808080;fill-opacity:1;stroke:#000000;stroke-width:1.1582;stroke-dasharray:none;stroke-opacity:1" />
    <path
       d="m 230.19,392.64 -10.91,10.08 -0.68,2.99 -4.1,-0.08 -1.6,1.99 -0.36,5.98 -1.47,4 1.69,1.98 6.82,0.42 1.3,4.6 -2.57,3.46 -3.4,-1.94 -10.21,-0.54 -4.8,2.66 -7.6,0.37 -4.93,-1.28 -4.74,1.15 -6.35,-2.89 4.32,-7.59 -0.08,-3.21 4.34,-8.35 -0.09,-4.6 2.7,-2.7 4.23,0.44 -1.96,-7.39 -0.61,-8.76 4.74,-5.91 2.03,-0.24 4.45,3.82 6.8,13.1 3.42,-2.23 0.31,-4.45 z"
       id="M01395"
       style="fill:#ffff80;fill-opacity:1;stroke:#000000;stroke-width:1.1582;stroke-dasharray:none;stroke-opacity:1" />
    <path
       d="m 218.31,428.06 2.57,-3.46 -1.3,-4.6 -6.82,-0.42 -1.69,-1.98 1.47,-4 0.36,-5.98 1.6,-1.99 4.1,0.08 0.68,-2.99 10.91,-10.08 22.83,16.36 -10.1,1.63 -10.66,12.3 0.9,7.84 -8.05,1.21 -1.28,8.23 -0.12,2.3 -4.9,0.4 v -6.03 l 1.58,-4.19 z"
       id="M01396"
       style="fill:#ffff80;fill-opacity:1;stroke:#000000;stroke-width:1.1582;stroke-dasharray:none;stroke-opacity:1" />
    <path
       d="m 172.44,459.83 -3.38,3 -8.7,0.77 -5.71,-5.07 -8.55,0.26 0.11,2.14 -3.4,2.8 -5.51,-0.23 -5.52,-6.88 -3.54,-2.36 -5.87,-1.79 -5.73,1.23 -3.35,5.8 h -6.23 l -2.23,1.96 -4.99,-3.12 3.41,-2.11 -1.45,-2.44 1.58,-3.92 -3.53,-5.04 -1.41,-4.52 1.42,-6 -1.77,-5.36 -2.68,-3.56 6.12,-7.3 6.35,6.44 2.53,-4.58 7.7,3.32 -1.64,-9.81 1.14,-3.89 4.32,2.31 7.98,-0.87 2.53,0.94 -1.03,4.14 1.05,2.72 6.43,7.74 0.73,1.88 7.84,0.87 2.14,2.52 5.53,1.97 6.1,-2.85 4.31,0.46 -0.99,4.1 2.53,7.88 4.56,1.71 3.41,5.04 -5.03,6.75 z"
       id="M01393"
       style="fill:#ffff80;fill-opacity:1;stroke:#000000;stroke-width:1.1582;stroke-dasharray:none;stroke-opacity:1" />
    <path
       d="m 380.93,132.99 0.59,-2.16 6.99,-5.13 2.48,2.94 7.46,0.81 3.25,1.18 3.3,3.5 0.37,2.37 8.7,3.48 9.44,-4.45 0.46,-2.19 5.07,-4.14 4.72,0.11 0.88,2.64 9.07,5.53 9.52,1.87 4.08,-0.29 3.88,2.67 1.08,2.45 0.06,6.29 4.82,6.14 0.39,7.88 -0.97,4.67 2.85,4.79 -0.55,3.21 2.74,7 -5.38,-0.34 0.71,3.04 4.03,-1.51 -0.41,3.86 -4.83,4.11 -1.37,2.74 0.56,5.05 -1.3,5.36 -0.63,-5.21 -3.06,-5.16 -3.56,-2.29 -7.24,2.53 -4.57,-4.9 -3.92,-2.62 -1.93,4.47 -5.51,4.56 -2.46,-4.67 -7.24,-4.19 -2.38,0.62 -2.71,-5.08 -1.84,0.5 -6.35,-8.63 0.75,-4.14 -2.67,-5.61 -4.39,-3 -2.24,-7.2 -5.54,-6.54 -7.29,-5.7 -4.17,-8.91 z"
       id="M01432"
       style="fill:#ffff80;fill-opacity:1;stroke:#000000;stroke-width:1.1582;stroke-dasharray:none;stroke-opacity:1" />
    <path
       d="m 193.87,377.52 -4.74,5.91 0.61,8.76 1.96,7.39 -4.23,-0.44 -2.7,2.7 0.09,4.6 -4.34,8.35 0.08,3.21 -4.32,7.59 1.62,10.27 1.69,5.48 -4.54,8.79 -3.41,-5.04 -4.56,-1.71 -2.53,-7.88 0.99,-4.1 -4.31,-0.46 -6.1,2.85 -5.53,-1.97 -2.14,-2.52 -7.84,-0.87 -0.73,-1.88 -6.43,-7.74 -1.05,-2.72 1.03,-4.14 1.76,-1.97 1.91,-12.99 -2.75,-9.97 0.06,-6.08 -2.05,-3.54 4.21,-5.99 0.71,-2.51 3.84,-1.61 8.12,1.76 4.79,-1.68 5.47,2.87 2.88,-3.24 3.56,0.44 1.98,3.47 3.32,-0.72 4.58,1.54 4.25,-0.75 3.22,3.33 6.27,0.08 4.23,0.44 z"
       id="M01394"
       style="fill:#ffff80;fill-opacity:1;stroke:#000000;stroke-width:1.1582;stroke-dasharray:none;stroke-opacity:1" />
    <path
       d="m 484.81,137.68 -3.29,-1.01 -7.05,3.14 -0.33,-4.64 0.94,-7.31 -2.6,-5.68 1.31,-2.78 -1.7,-5.01 13.81,-1.06 3.47,8.32 -1.82,3.25 2.11,4.88 2.4,2.03 z"
       id="M01433"
       style="fill:#ffff80;fill-opacity:1;stroke:#000000;stroke-width:1.1582;stroke-dasharray:none;stroke-opacity:1" />
    <path
       d="m 272.37,344.7 3.4,6.24 8.63,3.88 -4.22,10.53 1.3,9.71 -1.15,-0.15 -9.39,14.25 1.14,7.35 -2.76,2.1 -4.06,-0.33 -7.5,1.02 -5.35,-1.35 -2.26,-1.81 -5.18,-1.25 -14.78,-2.25 10.15,-13.78 -1.85,-3.49 4.15,-7.39 0.67,-3.71 2.81,-2.4 4.2,1.59 4.27,-1.84 1.34,-3.39 -1.73,-4.03 4.74,-3.82 2.05,-3.29 8.05,-0.81 z"
       id="M01399"
       style="fill:#ffff80;fill-opacity:1;stroke:#000000;stroke-width:1.1582;stroke-dasharray:none;stroke-opacity:1" />
    <path
       d="m 440.97,232.71 -13.38,3.32 -1.74,4.27 -6.19,6.93 1.93,6.46 -4.57,0.36 -7.56,0.78 -1.95,-1.9 -0.58,-5.56 -1.63,-3.14 0.71,-3.85 -4.83,-6.03 2.92,-2.9 0.05,-6.1 5.28,-3.15 4.75,-4.59 4.02,-6.01 9.46,-9.35 4.33,-0.84 2.38,3.89 -2.7,2.62 3.44,4.42 -0.51,3.9 2.28,4.58 2.92,0.9 3.43,4.06 -2.76,5.4 z"
       id="M01430"
       style="fill:#ffff80;fill-opacity:1;stroke:#000000;stroke-width:1.1582;stroke-dasharray:none;stroke-opacity:1" />
    <path
       d="m 433.2,197.85 5.51,-4.56 1.93,-4.47 3.92,2.62 4.57,4.9 7.24,-2.53 3.56,2.29 3.06,5.16 0.63,5.21 -3.56,1.69 -3.58,7.95 -2.29,3.23 -0.53,3.59 -4.81,3.06 -6.18,1.7 -1.7,5.02 -0.5,-1.53 2.76,-5.4 -3.43,-4.06 -2.92,-0.9 -2.28,-4.58 0.51,-3.9 -3.44,-4.42 2.7,-2.62 -2.38,-3.89 z"
       id="M01431"
       style="fill:#ffff80;fill-opacity:1;stroke:#000000;stroke-width:1.1582;stroke-dasharray:none;stroke-opacity:1" />
    <path
       d="m 223.83,440.21 1.28,-8.23 8.05,-1.21 -0.9,-7.84 10.66,-12.3 10.1,-1.63 6.25,5.08 15.79,11.76 -4.34,7.08 -0.28,2.77 -4.83,3.8 -5.21,-3.96 -5.38,-1.31 -6.36,0.24 -7.3,-3.54 -3.36,4.09 -6.74,2.33 -2.88,2.47 z"
       id="M01397"
       style="fill:#ffff80;fill-opacity:1;stroke:#000000;stroke-width:1.1582;stroke-dasharray:none;stroke-opacity:1" />
    <path
       d="m 253.02,409 -22.83,-16.36 14.78,2.25 5.18,1.25 2.26,1.81 5.35,1.35 7.5,-1.02 4.06,0.33 2.76,-2.1 -1.14,-7.35 9.39,-14.25 1.15,0.15 13.17,0.5 0.54,4.28 -1.61,8.03 1.38,4.47 -1.65,1.46 -4.88,-1.28 -1.47,4.71 4.75,4.29 0.81,3.77 -2.03,4.25 0.3,4.22 -2.15,4.51 -6.45,2.59 -0.62,5.19 -6.51,-0.21 -15.79,-11.76 z"
       id="M01398"
       style="fill:#ffff80;fill-opacity:1;stroke:#000000;stroke-width:1.1582;stroke-dasharray:none;stroke-opacity:1" />
    <path
       d="m 99.84,458.34 -6.69,0.52 -2.8,-3.42 -4.62,0.6 -0.72,4.58 2.13,2.32 -3.61,8.26 -2.96,1.35 -1.15,3.53 -3.03,0.93 -2.44,-2.47 -5.06,-1.64 -5.26,1.71 -3.1,-1.96 -5.8,-5.86 -3.65,0.6 -6.1,-2.87 -6.66,-0.44 -1.04,-2.13 1.63,-5.31 -6.21,-0.9 -12.17,2.34 -2.21,-1.29 -4.97,0.04 4.28,-4.09 2.65,-4.31 3.06,-7.35 6.6,-4.25 5.92,-2.52 6.9,0.04 7.16,-1.22 2.84,1.67 6.1,-0.38 7.36,-5 1.29,-5.68 11.01,-6.86 5.61,-2.5 0.6,-4.99 3.04,-7.05 2.75,-3.54 8.12,7.43 -0.35,2.82 3.1,3.51 0.14,5.53 -6.12,7.3 2.68,3.56 1.77,5.36 -1.42,6 1.41,4.52 3.53,5.04 -1.58,3.92 1.45,2.44 z"
       id="M01391"
       style="fill:#ffff80;fill-opacity:1;stroke:#000000;stroke-width:1.1582;stroke-dasharray:none;stroke-opacity:1" />
    <path
       d="m 132.44,411.95 -2.53,-0.94 -7.98,0.87 -4.32,-2.31 -1.14,3.89 1.64,9.81 -7.7,-3.32 -2.53,4.58 -6.35,-6.44 -0.14,-5.53 -3.1,-3.51 0.35,-2.82 -8.12,-7.43 3.03,-6.1 3.91,5.18 3.76,1.1 3.6,4.07 1.73,7.24 4.48,0.22 8.41,-3 1.24,-5.31 -1.41,-5.3 1.14,-5.48 8.32,-8.02 2.64,-6 2.05,3.54 -0.06,6.08 2.75,9.97 -1.91,12.99 z"
       id="M01392"
       style="fill:#ffff80;fill-opacity:1;stroke:#000000;stroke-width:1.1582;stroke-dasharray:none;stroke-opacity:1" />
    <path
       d="m 486.43,193.89 10.75,1.19 2.56,6.91 4.77,5.16 4.67,1.3 -4.24,4.22 -4.59,-0.76 -4.17,2.22 -9.11,2.66 2.43,-6.36 -0.07,-6.28 -3.24,-1.73 -5.03,2.13 6.74,-6.8 -6.63,-1.41 0.77,-2.59 z"
       id="M01425"
       style="fill:#ffff80;fill-opacity:1;stroke:#000000;stroke-width:1.1582;stroke-dasharray:none;stroke-opacity:1" />
    <path
       d="m 400.57,337.78 -2.44,-4.73 -0.96,-3.24 2.31,-4.35 3.19,-1.61 -1.32,-6.55 18.86,-13.2 7.84,11.34 -0.49,4.33 -5.03,3.45 -0.81,4.02 -2.77,3.91 -3.11,0.43 -8.56,7.88 -3.43,1.89 z"
       id="M01423"
       style="fill:#ffff80;fill-opacity:1;stroke:#000000;stroke-width:1.1582;stroke-dasharray:none;stroke-opacity:1" />
    <path
       d="m 463.62,206.47 1.3,-5.36 16.24,3.44 5.03,-2.13 3.24,1.73 0.07,6.28 -2.43,6.36 9.11,-2.66 4.17,-2.22 4.59,0.76 -0.67,6.43 -3.93,-5.21 -2.77,0.15 -5.18,7.03 -2.96,1 -3.49,5.95 -5.22,-2.19 -2.21,0.8 -4.18,-5.03 -2.1,0.37 -10.18,-2.6 -0.33,1.62 -7.53,-1.65 2.29,-3.23 3.58,-7.95 z"
       id="M01424"
       style="fill:#ffff80;fill-opacity:1;stroke:#000000;stroke-width:1.1582;stroke-dasharray:none;stroke-opacity:1" />
    <path
       d="m 479.46,309.84 -4.79,2.22 0.42,5.64 -0.67,5.98 -2.05,3.87 1.79,6.6 -1.29,2.05 2.54,6.17 4.71,-0.94 2.18,1.6 1.13,12.7 3.04,1.23 0.46,7.51 -1.95,2.15 -2.18,-0.95 -4.24,4.19 -2.61,-0.67 -2.02,-3.53 -3.91,-2.53 -0.85,-3.69 -4.37,-3.73 0.67,-2.58 -4.16,-9.37 -9.53,-7.7 -2.37,-3.87 -2.57,2.13 -5.04,-3.41 -0.65,-4.73 0.69,-4.64 -2.6,-3.85 6.04,-3.37 6.66,-4.78 2,-0.08 6.55,-6.35 3.38,-1.9 4.01,1.95 4.23,3.83 z"
       id="M01429"
       style="fill:#ffff80;fill-opacity:1;stroke:#000000;stroke-width:1.1582;stroke-dasharray:none;stroke-opacity:1" />
    <path
       d="m 409.46,254.83 7.56,-0.78 -1.2,5.8 3.5,3.11 -1.17,3.56 2.98,4.99 -4.05,2.21 1.08,2.36 -2.86,2.54 -7.81,11.63 2.63,1.62 -9.78,1.07 -0.53,-4.56 -2.14,-19.87 3.7,-4.47 4.58,-7.23 z"
       id="M01304"
       style="fill:#ffff80;fill-opacity:1;stroke:#000000;stroke-width:1.1582;stroke-dasharray:none;stroke-opacity:1" />
    <path
       d="m 441.15,326.18 0.65,4.73 5.04,3.41 2.57,-2.13 2.37,3.87 9.53,7.7 4.16,9.37 -0.67,2.58 4.37,3.73 0.85,3.69 3.91,2.53 2.02,3.53 2.61,0.67 4.24,-4.19 2.18,0.95 5.99,2.92 4.33,12.22 4.27,-1.11 3.25,1.32 -4.46,3.91 -3.73,1.35 -2.37,-1.36 -3.39,3.61 -3.97,-1.75 -1.73,-3.35 -3.82,-8.58 -4.32,-2.16 -0.15,-2.38 -7.87,-4.46 -2.46,-2.78 -3.87,-3.31 -5.26,1.69 -8.2,-0.47 -7.85,-7.29 -0.22,-5.32 -1.9,-2.41 1.83,-5.21 0.26,-5.36 -1.74,-3.7 z"
       id="M01427"
       style="fill:#ffff80;fill-opacity:1;stroke:#000000;stroke-width:1.1582;stroke-dasharray:none;stroke-opacity:1" />
    <path
       d="m 400.57,337.78 3.28,3.57 3.43,-1.89 8.56,-7.88 3.11,-0.43 2.77,-3.91 0.81,-4.02 5.03,-3.45 0.49,-4.33 7.18,0.54 4.01,1.71 2.6,3.85 -0.69,4.64 -3.55,6.46 1.74,3.7 -0.26,5.36 -1.83,5.21 1.9,2.41 0.22,5.32 0.19,2.59 -3.51,6.41 -6.81,2.5 -2.02,5.83 -4.12,-4.6 -3.93,7.8 -2.48,-1.19 -0.18,-5.29 1.72,-1.75 -1.85,-4.13 0.27,-4.63 -3.39,-2.64 -0.91,-5.64 -2.57,-4.4 -5.67,-0.35 z"
       id="M01428"
       style="fill:#ffff80;fill-opacity:1;stroke:#000000;stroke-width:1.1582;stroke-dasharray:none;stroke-opacity:1" />
    <path
       d="m 403.91,163.65 4.39,3 2.67,5.61 -0.75,4.14 6.35,8.63 1.84,-0.5 2.71,5.08 2.38,-0.62 7.24,4.19 2.46,4.67 -1.21,3.56 -4.33,0.84 -9.46,9.35 -4.02,6.01 -4.75,4.59 -5.28,3.15 -0.05,6.1 -2.92,2.9 4.83,6.03 -0.71,3.85 1.63,3.14 0.58,5.56 1.95,1.9 -3.51,1.98 -4.58,7.23 -3.7,4.47 2.14,19.87 -27.97,3.04 -11.04,-4.31 1.34,-3.79 3.78,-3.11 -0.84,-7.58 -1.23,-3.37 4.62,-4.47 3.75,2.14 5.67,-4.63 5.87,-12.89 4.66,-3.12 2.53,-9.3 v -8.87 l 1.97,-9.5 3.08,-4.89 -0.51,-5.05 1.32,-6.75 -1.87,-1.7 -0.59,-11.84 -4.44,-1.82 -2.27,-3.81 0.42,-5.28 -4.15,-7.07 1.35,-3.15 7.92,0.75 2.08,2.14 6.23,-1.08 z"
       id="M01303"
       style="fill:#ffff80;fill-opacity:1;stroke:#000000;stroke-width:1.1582;stroke-dasharray:none;stroke-opacity:1" />
    <path
       d="m 230.19,392.64 -19.31,-5.12 -0.31,4.45 -3.42,2.23 -6.8,-13.1 -4.45,-3.82 -2.03,0.24 -1.07,-2.69 -4.23,-0.44 3.41,-6.19 2.82,-1.26 5.62,-0.19 3.26,-2.46 4.77,0.22 2.9,-1.45 3.3,-4.02 -0.02,-6.82 2.57,-4.33 2.02,-0.61 2.17,-9.41 0.99,-1.17 5.58,0.54 3.11,2.78 4.96,-0.78 3.46,3.1 3.5,6.45 8.67,-0.87 2.54,6.28 1.73,4.03 -1.34,3.39 -4.27,1.84 -4.2,-1.59 -2.81,2.4 -0.67,3.71 -4.15,7.39 1.85,3.49 z"
       id="M01400"
       style="fill:#ffff80;fill-opacity:1;stroke:#000000;stroke-width:1.1582;stroke-dasharray:none;stroke-opacity:1" />
    <path
       d="m 658.95,441.63 0.69,5.66 2.85,2.44 0.72,4.54 3.87,0.51 5.07,12.67 2.91,2.01 0.73,6.61 7.84,2.17 -1.7,8.42 3.34,4.28 3.1,0.47 1.25,2.68 -1.95,6.66 -2.99,0.75 -0.47,3.39 -7.58,0.91 -6.13,4.01 -5.65,1.17 -0.36,6.04 2.53,3.67 -1.03,2.76 2.11,3.33 -6.2,11.99 0.71,5.59 -3.93,5.46 0.04,2.71 -3.37,5.04 0.79,2.35 -8.79,8.47 -3.51,0.26 -3.08,2.19 0.5,2.41 -4.05,1.66 -0.9,2.62 -4.57,-4.06 -2.86,-0.79 -6.67,-5.34 -9.12,-2.31 -8.02,-4.81 -2.65,0.44 -4.28,-2.59 -8.23,-9.56 -7.08,-0.66 -7.95,-4.7 -1.81,-2.82 -6.11,-3.36 2.45,-3.53 6.18,-3.8 9.92,-7.72 2.12,-3.87 5.29,-5.88 5.14,-2.97 3.49,-8.95 3.22,-3.54 6.92,-2.56 3.01,-2.91 0.4,-3.76 3,-2.81 -1.34,-4.49 1.19,-2.25 -2.28,-3.57 3.73,-10.19 -0.14,-3.47 6.83,-2.1 3.8,0.24 1.33,-2.5 7.67,-6.74 2.91,-4.82 5.12,-2.34 4.29,0.53 4.54,-2.45 z"
       id="M01610"
       style="fill:#ffff80;fill-opacity:1;stroke:#000000;stroke-width:1.1582;stroke-dasharray:none;stroke-opacity:1" />
    <path
       d="m 272.37,344.7 -3.33,1.58 -8.05,0.81 -2.05,3.29 -4.74,3.82 -2.54,-6.28 -8.67,0.87 -3.5,-6.45 -3.46,-3.1 -1.57,-1.77 -1.55,-6.83 -4.61,-6.06 -6.16,-2.53 -1.58,-2.87 0.36,-7.85 3.5,-3.19 4.21,-0.13 3.61,-3.84 2.6,1.2 3.61,1.64 3.71,-3.39 7.04,-1.95 6.03,-0.46 2.5,0.86 4.48,-1.19 10.3,1.37 -0.79,3.07 1.8,2.39 -0.63,3.69 3.6,6.72 6.2,4.05 -0.02,2.84 -4.15,4.63 -3.33,0.82 -4.37,2.96 1.95,3.26 -1.57,5.48 z"
       id="M01409"
       style="fill:#ffff80;fill-opacity:1;stroke:#000000;stroke-width:1.1582;stroke-dasharray:none;stroke-opacity:1" />
    <path
       d="m 281.48,375.06 -1.3,-9.71 4.22,-10.53 -8.63,-3.88 -3.4,-6.24 -1.17,-2.54 1.57,-5.48 -1.95,-3.26 4.37,-2.96 3.33,-0.82 4.15,-4.63 0.02,-2.84 2.97,-2.33 2.5,-7.11 -1.67,-3.39 3.05,-4.51 3.47,-0.5 6.22,2.53 5.01,5.07 3.31,1.83 3.18,-3.1 3.2,-6.25 2.56,-2.46 -2.36,-3.76 7.41,-5.38 3.7,1.87 2.09,-2.13 7.77,7.64 6.48,-3.84 4.54,-0.7 3.53,-3.28 2.05,-4.94 6.55,0.75 3.89,-4.86 -1.34,3.79 11.04,4.31 -0.54,2.05 1.77,6.39 -0.28,4.46 -2.05,5.71 2.83,2.31 3.67,-0.81 -0.52,8.02 6.55,5.59 0.92,9.1 -4.04,-0.75 -2.1,7.47 0.7,1.49 -3.07,5.99 -0.99,6.8 -1.7,3.1 -8.35,10 1,4.88 -1.03,0.93 -10.24,-0.89 -2.74,4.51 -5.07,1.85 -3.12,-0.73 -3.8,-4.26 -3.71,3.96 -6.55,2.77 -0.07,4.85 -2.99,2.57 -1.61,5.6 -3.63,4.17 2.66,4.69 -7.08,2.19 -2.68,-0.57 -5.79,1.63 -4.5,-2.52 -1.58,-4.41 -8.8,-5.76 1.65,-1.46 -1.38,-4.47 1.61,-8.03 -0.54,-4.28 z"
       id="M01100"
       style="fill:#ffff80;fill-opacity:1;stroke:#000000;stroke-width:1.1582;stroke-dasharray:none;stroke-opacity:1" />
    <path
       d="m 182.52,311.67 -4.44,1.25 -6.31,6.99 0.01,3.14 -2.58,4.45 -0.23,4.48 -3.61,-0.83 -3.88,-10.11 -2.07,-3.43 -4.56,-3.87 -1.3,-4.88 -3.07,-4.14 3.09,-2.07 2.2,-6.54 4.54,2.68 3.59,0.11 2.09,-3.52 5.52,-3.13 1.31,0.67 2.54,13.29 3.04,-0.62 2.81,2.24 z"
       id="M01403"
       style="fill:#ffff80;fill-opacity:1;stroke:#000000;stroke-width:1.1582;stroke-dasharray:none;stroke-opacity:1" />
    <path
       d="m 171.51,292.25 -5.52,3.13 -2.09,3.52 -3.59,-0.11 -4.54,-2.68 -2.2,6.54 -3.09,2.07 -5.12,-8.12 -13.9,-10.55 -4.58,-9.41 -2.97,-2.88 2.08,-7.59 -0.39,-4.07 2.51,-4.98 -1.61,-1.77 3.3,1.4 2.38,4.04 2.69,7.35 3.26,0.47 8.18,3.92 2.25,-2.66 3.55,-0.86 2.97,-2.66 1.37,5.45 2.68,3.12 8.32,1.66 0.9,-0.65 2.63,4.12 -2.36,4.59 z"
       id="M01404"
       style="fill:#ffff80;fill-opacity:1;stroke:#000000;stroke-width:1.1582;stroke-dasharray:none;stroke-opacity:1" />
    <path
       d="m 188.57,374.39 -6.27,-0.08 -3.22,-3.33 -4.25,0.75 -4.58,-1.54 -0.87,-26.28 -1.76,-3.05 1.33,-2.14 0.02,-6.74 0.23,-4.48 2.58,-4.45 -0.01,-3.14 6.31,-6.99 4.44,-1.25 5.07,5.26 4.4,-0.48 2.16,1.82 4.61,0.09 5.31,7.08 2.82,2.43 6.2,7.76 3.37,1.42 5.92,-0.35 -0.99,1.17 -2.17,9.41 -2.02,0.61 -2.57,4.33 0.02,6.82 -3.3,4.02 -2.9,1.45 -4.77,-0.22 -3.26,2.46 -5.62,0.19 -2.82,1.26 z"
       id="M01401"
       style="fill:#ffff80;fill-opacity:1;stroke:#000000;stroke-width:1.1582;stroke-dasharray:none;stroke-opacity:1" />
    <path
       d="m 170.25,370.19 -3.32,0.72 -1.98,-3.47 -3.56,-0.44 -2.88,3.24 -5.47,-2.87 -4.79,1.68 -8.12,-1.76 -3.84,1.61 7.72,-10.75 5.9,-3.04 6.7,-4.89 10.13,-6.25 0.88,-3.11 1.76,3.05 z"
       id="M01402"
       style="fill:#ffff80;fill-opacity:1;stroke:#000000;stroke-width:1.1582;stroke-dasharray:none;stroke-opacity:1" />
    <path
       d="m 236.03,339.24 -4.96,0.78 -3.11,-2.78 -5.58,-0.54 -5.92,0.35 -3.37,-1.42 -6.2,-7.76 -2.82,-2.43 -5.31,-7.08 -4.61,-0.09 -2.16,-1.82 1.12,-6.96 4.03,-3.09 -1.66,-3.29 1.47,-2.64 -1.34,-4.61 4.32,-0.92 4.3,2.74 3.94,-0.86 4.65,-3.83 13.1,-4.32 3.18,5.87 0.2,2.84 5.45,4.53 0.09,3.46 -2.6,-1.2 -3.61,3.84 -4.21,0.13 -3.5,3.19 -0.36,7.85 1.58,2.87 6.16,2.53 4.61,6.06 1.55,6.83 z"
       id="M01407"
       style="fill:#ffff80;fill-opacity:1;stroke:#000000;stroke-width:1.1582;stroke-dasharray:none;stroke-opacity:1" />
    <path
       d="m 255.23,301.21 -6.03,0.46 -7.04,1.95 -3.71,3.39 -3.61,-1.64 -0.09,-3.46 -5.45,-4.53 -0.2,-2.84 -3.18,-5.87 -13.1,4.32 -4.65,3.83 -3.94,0.86 -4.3,-2.74 -4.32,0.92 0.77,-10.3 4.13,0.25 4.76,-3.67 -4.26,-8.19 5.34,-4.71 0.36,-4.44 3.79,0.49 4.89,4.68 4.19,2.21 4.08,0.54 -0.27,6.64 3.3,2.37 5.34,0.25 6.53,-1.97 0.3,3.74 4.49,6.88 3.69,-0.74 8.87,4.91 z"
       id="M01408"
       style="fill:#ffff80;fill-opacity:1;stroke:#000000;stroke-width:1.1582;stroke-dasharray:none;stroke-opacity:1" />
    <path
       d="m 168.35,275.93 -0.9,0.65 -8.32,-1.66 -2.68,-3.12 -1.37,-5.45 -2.97,2.66 -3.55,0.86 -2.25,2.66 -8.18,-3.92 -3.26,-0.47 -2.69,-7.35 -2.38,-4.04 -3.3,-1.4 2.4,-1.1 1.73,-4.91 1.04,-9.07 4.79,0.67 6.03,-1.02 3.32,1.18 4.88,-2.08 2.92,-2.59 1.91,-6.38 3.24,-3.15 4.55,1.67 1.78,3.91 3.09,-0.45 11.77,14.65 2.41,0.69 3.75,3.79 5.1,0.27 -6.94,6.92 -1.39,5.34 -3.36,3.4 -7.85,2.75 -3.3,2.91 z"
       id="M01405"
       style="fill:#ffff80;fill-opacity:1;stroke:#000000;stroke-width:1.1582;stroke-dasharray:none;stroke-opacity:1" />
    <path
       d="m 182.52,311.67 -1.31,-3.84 -2.81,-2.24 -3.04,0.62 -2.54,-13.29 -1.31,-0.67 -2.89,-7.61 2.36,-4.59 -2.63,-4.12 0.02,-3.18 3.3,-2.91 7.85,-2.75 3.36,-3.4 1.39,-5.34 6.94,-6.92 1.41,6.02 2.16,3.65 11.93,3.7 -0.36,4.44 -5.34,4.71 4.26,8.19 -4.76,3.67 -4.13,-0.25 -0.77,10.3 1.34,4.61 -1.47,2.64 1.66,3.29 -4.03,3.09 -1.12,6.96 -4.4,0.48 z"
       id="M01406"
       style="fill:#ffff80;fill-opacity:1;stroke:#000000;stroke-width:1.1582;stroke-dasharray:none;stroke-opacity:1" />
    <path
       d="m 483.17,384.38 1.73,3.35 3.97,1.75 3.39,-3.61 2.37,1.36 3.73,-1.35 4.46,-3.91 2.18,0.78 3.83,-4.01 2.15,1.34 2.57,4.11 2.86,0.98 -0.57,4.76 2.13,7.08 -2.48,2.95 -2.66,7.81 -3.3,2.9 -2.64,6.21 -3.38,2.54 -0.74,4.23 -2.26,0.6 -6.45,5.29 -2.29,4.16 0.59,7.22 1.53,4.09 -1.19,3.1 -6.28,1.23 -6.56,-1.65 -3.57,4.64 0.23,3.05 -7.09,3.45 -3.05,3.29 -0.32,2.66 -14.72,-7.23 -2.47,2.52 3.54,-6.84 0.14,-12.54 3.07,-2.1 -0.81,-7.55 0.09,-3.97 4.87,-5.63 0.18,-3.45 2.42,-2.99 0.54,-4.38 2.52,-0.7 4.84,-8.21 4.54,-4.17 3.34,-8.57 1.73,0.02 z"
       id="M01581"
       style="fill:#ffff80;fill-opacity:1;stroke:#000000;stroke-width:1.1582;stroke-dasharray:none;stroke-opacity:1" />
    <path
       d="m 554.89,346.22 0.73,4.6 -2.1,2.92 1.12,3.69 5.11,0.92 2.32,6.79 4.49,2.87 -1.78,5.42 -2.55,2.83 1.09,4.81 -2.98,6.91 1.61,5.26 -1.01,1.82 -0.45,8.46 -1.44,5.33 -7.39,4.23 -2.75,3.52 -7.27,0.8 -1.67,6.19 -4.95,1.12 -0.89,5.84 -4.09,2.48 -4.06,9.43 -2.09,1.48 -0.21,3.67 -3.35,7.44 -0.84,7.74 -6.27,3.36 -1.44,2.17 -5.22,0.46 -2.96,3.82 -2.76,2.49 -4.88,1.79 -6.61,0.25 -3.42,5.02 -6.85,-7.09 -3.81,-2.35 -3.26,-5.21 -5.95,-2.72 0.32,-2.66 3.05,-3.29 7.09,-3.45 -0.23,-3.05 3.57,-4.64 6.56,1.65 6.28,-1.23 1.19,-3.1 -1.53,-4.09 -0.59,-7.22 2.29,-4.16 6.45,-5.29 2.26,-0.6 0.74,-4.23 3.38,-2.54 2.64,-6.21 3.3,-2.9 2.66,-7.81 2.48,-2.95 -2.13,-7.08 0.57,-4.76 -2.86,-0.98 -2.57,-4.11 5.84,-7.59 0.76,-6.31 7.68,-3.95 -0.23,-6.26 3.95,-0.55 3.31,-2.63 2.04,2.38 4.06,-0.61 4,-4.43 3.43,-1.82 3.66,2.28 1.59,-4.72 z"
       id="M01586"
       style="fill:#ffff80;fill-opacity:1;stroke:#000000;stroke-width:1.1582;stroke-dasharray:none;stroke-opacity:1" />
    <path
       d="m 237.68,461.74 1.05,-4.37 4.32,0.27 -4.85,2.01 z m -18.87,-18.83 4.9,-0.4 0.12,-2.3 4.55,-0.4 2.88,-2.47 6.74,-2.33 3.36,-4.09 7.3,3.54 6.36,-0.24 5.38,1.31 5.21,3.96 -1.51,7.88 -0.6,0.98 -8.66,-1.17 -3.27,6.95 -3.71,-5.2 -3.22,-1.85 -3.41,1.8 -4.78,-2.25 -3.34,3.44 -0.24,2.58 -6.59,6.88 2.22,9.77 2.44,1.68 4.37,0.19 -0.99,6.8 -1.79,-0.28 -6.34,3.57 -3.43,3.32 0.97,-2.56 -4.17,-6.66 -7.25,-6.19 7.24,-6.62 -3.54,-5.53 -2.03,-7.22 4.59,-4.3 z"
       fill-rule="evenodd"
       id="M01584"
       style="fill:#ffff80;fill-opacity:1;stroke:#000000;stroke-width:1.1582;stroke-dasharray:none;stroke-opacity:1" />
    <path
       d="m 464.55,364.02 2.46,2.78 7.87,4.46 0.15,2.38 4.32,2.16 3.82,8.58 -3.29,4.61 -1.73,-0.02 -3.34,8.57 -4.54,4.17 -4.84,8.21 -2.52,0.7 -0.54,4.38 -2.42,2.99 -0.18,3.45 -4.87,5.63 -0.09,3.97 -6.7,0.68 -10.28,-9.53 -2.69,-5.19 1.77,-2.57 -0.44,-10.01 7.39,-10.67 -2.58,-2.84 5.54,-2.62 -0.99,-2.37 1.92,-5.38 -0.63,-2.69 3.42,-5.01 6.74,-4.53 6.71,-2.99 z"
       id="M01585"
       style="fill:#ffff80;fill-opacity:1;stroke:#000000;stroke-width:1.1582;stroke-dasharray:none;stroke-opacity:1" />
    <path
       d="m 439.37,354.64 7.85,7.29 8.2,0.47 5.26,-1.69 3.87,3.31 -0.56,1.3 -6.71,2.99 -6.74,4.53 -3.42,5.01 0.63,2.69 -1.92,5.38 0.99,2.37 -5.54,2.62 2.58,2.84 -7.39,10.67 -7.96,5.2 -12.69,-1.84 -9.77,1.29 -7.11,8.55 -6.49,-2.1 -3.16,1.19 -9.02,-0.75 -5.87,-1.78 -2.15,-2.44 -2.82,0.99 -6.19,-0.86 0.45,12.37 -2.03,1.56 -3.61,7.33 -3.06,0.06 -2.79,3.09 -4.41,-1 -6.37,0.21 -2.42,-2.71 -9.19,-6.17 -3.27,4.71 -7.53,-0.74 -4.03,4.45 -0.64,-7.54 -3.03,-6.26 -0.34,-5.82 4.02,-5.28 1.67,-4.7 7.08,-2.19 -2.66,-4.69 3.63,-4.17 1.63,1.67 6.27,1.76 1.39,1.7 3.95,-3.14 8.89,0.86 5.84,2.73 6.5,-4.04 11.64,0.46 4.95,-1.29 6.2,-3.09 7.56,-0.71 4.65,1.49 3.74,-2.05 5.73,-7.03 3.03,-1.44 9.7,-19.45 1.85,4.13 -1.72,1.75 0.18,5.29 2.48,1.19 3.93,-7.8 4.12,4.6 2.02,-5.83 6.81,-2.5 3.51,-6.41 z m -93.9,45.17 -3.65,4.68 -2.32,5.67 -6.27,-0.78 -3.66,1.59 -1.38,4.15 3.43,6.64 -1.01,2.08 6.64,5.38 2.25,0.23 5.28,-4.37 2.53,-3.94 3.14,-1.63 5.23,0.32 7.01,-2.3 -1.38,-4.38 0.33,-3.83 -9.61,-8 z"
       fill-rule="evenodd"
       id="M01224"
       style="fill:#ffff80;fill-opacity:1;stroke:#000000;stroke-width:1.1582;stroke-dasharray:none;stroke-opacity:1" />
    <path
       d="m 504.64,234.42 2.65,4.59 -3.87,8.35 3.64,4.78 3.62,1.58 -0.49,3.96 2.67,1.43 5.46,14.27 2.31,0.77 6.51,-2.66 1.57,1.46 -1.22,2.18 -0.84,6.83 -5,1.06 -2.65,5.01 -4.39,2.64 -5.37,0.16 -6.91,6.37 -3.39,-8.94 -4.22,0.32 -4.33,-3.96 -11.01,-4.39 -4.25,-2.24 -4.45,3.98 -6.01,-2.63 -6.64,0.57 -3.57,-1.53 -0.28,-6.53 -4.89,-0.9 1.51,-7.8 4.01,2.28 2.42,-3.01 5.2,-0.24 6,-5.75 0.53,-1.96 6.34,-2.55 4.87,1.67 2.85,-3.14 8.25,-2.61 4.19,-6.1 -0.14,-3.41 3.24,-6.31 z"
       id="M01222"
       style="fill:#ffff80;fill-opacity:1;stroke:#000000;stroke-width:1.1582;stroke-dasharray:none;stroke-opacity:1" />
    <path
       d="m 314.98,435.03 4.03,-4.45 7.53,0.74 3.27,-4.71 9.19,6.17 2.42,2.71 6.37,-0.21 4.41,1 -3.09,0.7 -1.53,9.11 1.27,4.87 4.19,4.17 6.07,4.08 2.03,4.39 4.28,2.37 -0.43,2.3 -17.32,11.31 -5.12,4.99 -7.98,5.39 -16.39,14.66 -3.71,0.24 -1.5,-1.22 -4.55,-12.07 0.54,-7.47 -9.05,-0.3 0.1,-4.31 -5.27,-4.96 -3.16,-0.08 -0.02,-7.41 1.81,-4.71 11.79,-8.31 -0.51,-4.7 2.42,-1.4 1.59,-6.78 z"
       id="M01578"
       style="fill:#ffff80;fill-opacity:1;stroke:#000000;stroke-width:1.1582;stroke-dasharray:none;stroke-opacity:1" />
    <path
       d="m 545.79,142.78 4.09,-2.56 4.84,2.63 3.08,6.11 -0.4,6.08 -1.77,2.21 1.01,9.26 2.46,3.19 0.52,3.64 4.53,2.34 -0.28,3.34 5.51,8.15 4.17,3.58 0.81,2.53 -2.79,3.7 2.51,15.21 -2.06,1.37 -1.34,5.46 -2.23,2.81 2.07,4.35 -4.34,2.17 -8.44,6.03 0.92,6.32 -3.48,2.43 -1.87,7.42 2.95,2.65 0.61,2.87 -2.3,7.98 0.07,8.43 -4.88,1.18 -3,2.69 -5.89,0.31 -6.16,1.45 -6,-5.16 -1.57,-1.46 -6.51,2.66 -2.31,-0.77 -5.46,-14.27 -2.67,-1.43 0.49,-3.96 -3.62,-1.58 -3.64,-4.78 3.87,-8.35 -2.65,-4.59 2.28,-5.86 -2.11,-2.75 -0.54,-6.71 0.67,-6.43 4.24,-4.22 -1.31,-4.83 0.06,-7.17 2.93,-4.12 2.49,0.24 4.03,-0.03 1.73,-5.66 5.79,-4.62 1.15,-3.71 -1.82,-2.58 -8.65,-0.9 4.73,-5.82 -0.68,-3.19 0.21,-10.35 -2.58,-5.09 1.01,-2.85 3.93,-1.59 4.17,1.32 5.02,-0.54 8.68,1.75 5.21,-2.46 z"
       id="M01216"
       style="fill:#ffff80;fill-opacity:1;stroke:#000000;stroke-width:1.1582;stroke-dasharray:none;stroke-opacity:1" />
    <path
       d="m 420.21,304.1 -18.86,13.2 1.32,6.55 -3.19,1.61 -2.31,4.35 0.96,3.24 -9.82,2.63 -4.12,-1.44 -0.92,-9.1 -6.55,-5.59 0.52,-8.02 -3.67,0.81 -2.83,-2.31 2.05,-5.71 0.28,-4.46 -1.77,-6.39 0.54,-2.05 27.97,-3.04 0.53,4.56 9.78,-1.07 3,1.69 z"
       id="M01217"
       style="fill:#ffff80;fill-opacity:1;stroke:#000000;stroke-width:1.1582;stroke-dasharray:none;stroke-opacity:1" />
    <path
       d="m 425.85,240.3 1.74,-4.27 13.38,-3.32 1.7,-5.02 6.18,-1.7 4.81,-3.06 0.53,-3.59 7.53,1.65 0.33,-1.62 10.18,2.6 2.1,-0.37 4.18,5.03 2.21,-0.8 5.22,2.19 3.49,-5.95 2.96,-1 5.18,-7.03 2.77,-0.15 3.93,5.21 0.54,6.71 2.11,2.75 -2.28,5.86 -6.08,-2.4 -3.24,6.31 0.14,3.41 -4.19,6.1 -8.25,2.61 -2.85,3.14 -4.87,-1.67 -6.34,2.55 -0.53,1.96 -6,5.75 -5.2,0.24 -2.42,3.01 -4.01,-2.28 -3.6,-6.81 -8.29,-9.12 z"
       id="M01215"
       style="fill:#ffff80;fill-opacity:1;stroke:#000000;stroke-width:1.1582;stroke-dasharray:none;stroke-opacity:1" />
    <path
       d="m 518.27,147.77 -1.01,2.85 2.58,5.09 -0.21,10.35 0.68,3.19 -4.73,5.82 8.65,0.9 1.82,2.58 -1.15,3.71 -5.79,4.62 -1.73,5.66 -4.03,0.03 -0.06,-3.09 -3.7,-7.52 -5.6,-3.41 -12.01,4.12 -4.15,-3.78 0.57,-7.5 3.75,-7.55 -0.21,-4.54 5.06,-4.98 5.85,-3.03 2.4,2.1 2.84,-3.27 2.77,-0.39 0.88,-3.85 4.28,-1.23 z"
       id="M01218"
       style="fill:#ffff80;fill-opacity:1;stroke:#000000;stroke-width:1.1582;stroke-dasharray:none;stroke-opacity:1" />
    <path
       d="m 291.58,474.45 3.16,0.08 5.27,4.96 -0.1,4.31 9.05,0.3 -0.54,7.47 4.55,12.07 1.5,1.22 -5.22,3.89 -2.17,-0.21 -11.79,11.39 -5.65,6.06 -5.2,7.15 0.32,1.72 -2.24,-1.29 -3.91,-14.18 -3.29,-3.57 0.79,-4.54 -5.45,-1.85 -2.11,-2.09 1.45,-6.52 -3.26,-1.76 -0.46,-9.89 5.39,-2.13 6.2,0.23 3.82,-1.96 2.79,-3.26 3.49,-0.17 -0.85,-4.52 z"
       id="M01230"
       style="fill:#ffff80;fill-opacity:1;stroke:#000000;stroke-width:1.1582;stroke-dasharray:none;stroke-opacity:1" />
    <path
       d="m 404.11,345.15 5.67,0.35 2.57,4.4 0.91,5.64 3.39,2.64 -0.27,4.63 -9.7,19.45 -3.03,1.44 -5.73,7.03 -3.74,2.05 -4.65,-1.49 -7.56,0.71 -6.2,3.09 -4.95,1.29 -11.64,-0.46 -6.5,4.04 -5.84,-2.73 -8.89,-0.86 -3.95,3.14 -1.39,-1.7 -6.27,-1.76 -1.63,-1.67 1.61,-5.6 2.99,-2.57 0.07,-4.85 6.55,-2.77 3.71,-3.96 3.8,4.26 3.12,0.73 5.07,-1.85 2.74,-4.51 10.24,0.89 1.03,-0.93 7.92,-2.98 3.24,1.25 7.18,-6.26 5.94,0.1 6.16,-3.45 0.87,-2.65 4.07,-3.02 3.41,-8.97 z"
       id="M01231"
       style="fill:#ffff80;fill-opacity:1;stroke:#000000;stroke-width:1.1582;stroke-dasharray:none;stroke-opacity:1" />
    <path
       d="m 398.13,333.05 2.44,4.73 3.54,7.37 0.32,2.09 -3.41,8.97 -4.07,3.02 -0.87,2.65 -6.16,3.45 -5.94,-0.1 -7.18,6.26 -3.24,-1.25 -7.92,2.98 -1,-4.88 8.35,-10 1.7,-3.1 0.99,-6.8 3.07,-5.99 -0.7,-1.49 2.1,-7.47 4.04,0.75 4.12,1.44 z"
       id="M01234"
       style="fill:#ffff80;fill-opacity:1;stroke:#000000;stroke-width:1.1582;stroke-dasharray:none;stroke-opacity:1" />
    <path
       d="m 347.16,116.81 7.46,3.01 4.84,-3.05 2.59,-0.05 1.96,3.43 0.76,4.68 4.74,2.25 6.59,0.93 4.83,4.98 3.74,2.31 4.17,8.91 7.29,5.7 5.54,6.54 2.24,7.2 -2.42,5.42 -6.23,1.08 -2.08,-2.14 -7.92,-0.75 -1.35,3.15 4.15,7.07 -0.42,5.28 2.27,3.81 4.44,1.82 0.59,11.84 1.87,1.7 -1.32,6.75 0.51,5.05 -3.08,4.89 -1.97,9.5 v 8.87 l -2.53,9.3 -4.66,3.12 -5.87,12.89 -5.67,4.63 -3.75,-2.14 -4.62,4.47 1.23,3.37 0.84,7.58 -3.78,3.11 -3.89,4.86 -6.55,-0.75 -2.05,4.94 -3.53,3.28 -4.54,0.7 -6.48,3.84 -7.77,-7.64 9.78,-7.9 -0.42,-4.34 8.89,-9.67 14.66,-19.7 5.87,-9.62 -0.45,-4.15 1.57,-5.79 -0.82,-2.83 1.52,-5.72 -0.64,-8.43 -8.07,-18.22 -3.91,-4.44 -3.47,-8.47 0.34,-5.27 3.5,-6.39 1.92,-7.62 -0.44,-6.64 -3.81,-3.93 -2.93,-7.25 -0.61,-8 -4.05,-12.24 -0.22,-5.45 z"
       id="M01235"
       style="fill:#ffff80;fill-opacity:1;stroke:#000000;stroke-width:1.1582;stroke-dasharray:none;stroke-opacity:1" />
    <path
       d="m 222.76,484.58 3.43,-3.32 6.34,-3.57 1.79,0.28 11.45,3.27 5.48,-1.57 2.44,-1.98 5.79,0.09 3.97,1.93 2.65,5.14 0.18,4.32 0.46,9.89 3.26,1.76 -1.45,6.52 2.11,2.09 -2.48,5.18 0.93,2.88 -7.69,6.88 -3.41,-0.24 -5.45,2.5 -1.49,-10.6 -4.61,-10.33 -4.01,-4.71 -4.83,-1.42 -9.27,-8.86 -3.35,-0.31 z m 42.85,-45.09 4.83,-3.8 0.28,-2.77 4.34,-7.08 6.51,0.21 0.62,-5.19 6.45,-2.59 2.15,-4.51 -0.3,-4.22 2.03,-4.25 -0.81,-3.77 -4.75,-4.29 1.47,-4.71 4.88,1.28 8.8,5.76 1.58,4.41 4.5,2.52 5.79,-1.63 2.68,0.57 -1.67,4.7 -4.02,5.28 0.34,5.82 3.03,6.26 0.64,7.54 -6.32,6.11 -1.59,6.78 -2.42,1.4 0.51,4.7 -11.79,8.31 -1.81,4.71 -2.98,-3.36 -5.79,-1.26 -3.68,0.78 -0.92,-5.8 -14.09,-10.03 z"
       fill-rule="evenodd"
       id="M01233"
       style="fill:#ffff80;fill-opacity:1;stroke:#000000;stroke-width:1.1582;stroke-dasharray:none;stroke-opacity:1" />
    <path
       d="m 509.18,208.45 -4.67,-1.3 -4.77,-5.16 -2.56,-6.91 -10.75,-1.19 0.16,-2.65 3.76,-2.75 1.63,-5.82 12.01,-4.12 5.6,3.41 3.7,7.52 0.06,3.09 -2.49,-0.24 -2.93,4.12 -0.06,7.17 z"
       id="M01227"
       style="fill:#ffff80;fill-opacity:1;stroke:#000000;stroke-width:1.1582;stroke-dasharray:none;stroke-opacity:1" />
    <path
       d="m 500.43,37.01 4.63,-6.22 2.74,-9.11 6.35,1.14 -1.4,4.7 0.53,4.49 4.78,11.47 -1.63,3.66 2.16,2.88 1.68,6.78 3.76,4.56 2.03,6.12 2.87,2 -0.62,5.27 2.84,1.84 8.55,0.69 2.1,3.29 -2.58,5.59 6.9,11.82 -2.67,1.05 -1.83,6.53 -4.93,5.89 0.53,6.22 -5.25,1.18 1.48,4.61 -0.97,12.99 3.74,5.79 3.08,2.41 6.49,-1.87 -0.51,3.47 -5.21,2.46 -8.68,-1.75 -5.02,0.54 -4.17,-1.32 -3.93,1.59 -2.25,-3.12 -4.28,1.23 -4.13,3.3 -4.43,-1.28 -4.78,0.18 -4.22,-4.11 -9.37,-6.29 7.25,-5.87 -2.4,-2.03 -2.11,-4.88 1.82,-3.25 -3.47,-8.32 7.54,-0.34 1.93,-14.61 0.74,-6.62 4.83,-0.87 0.91,-2.96 7.48,-4.08 2.63,-6.97 -1.56,-1.2 -3.29,-7.54 -7.76,-7.54 -1.14,-7.16 1.96,-7.75 -0.84,-4.91 z"
       id="M01228"
       style="fill:#ffff80;fill-opacity:1;stroke:#000000;stroke-width:1.1582;stroke-dasharray:none;stroke-opacity:1" />
    <path
       d="m 468.87,177.16 0.55,-3.21 -2.85,-4.79 0.97,-4.67 -0.39,-7.88 0.16,-4.96 2.23,-2.45 4.45,0.71 -1.28,-4.8 1.76,-5.3 7.05,-3.14 3.29,1.01 9.37,6.29 4.22,4.11 4.78,-0.18 4.43,1.28 4.13,-3.3 -0.88,3.85 -2.77,0.39 -2.84,3.27 -2.4,-2.1 -5.85,3.03 -5.06,4.98 0.21,4.54 -3.75,7.55 -6.81,-0.66 -2.96,3.07 -5.22,1.36 -1.71,4.11 z"
       id="M01225"
       style="fill:#ffff80;fill-opacity:1;stroke:#000000;stroke-width:1.1582;stroke-dasharray:none;stroke-opacity:1" />
    <path
       d="m 464.92,201.11 -0.56,-5.05 1.37,-2.74 4.83,-4.11 0.41,-3.86 -4.03,1.51 -0.71,-3.04 5.38,0.34 -2.74,-7 2.83,2.11 1.71,-4.11 5.22,-1.36 2.96,-3.07 6.81,0.66 -0.57,7.5 4.15,3.78 -1.63,5.82 -3.76,2.75 -0.16,2.65 -4.39,-0.14 -0.77,2.59 6.63,1.41 -6.74,6.8 z"
       id="M01226"
       style="fill:#ffff80;fill-opacity:1;stroke:#000000;stroke-width:1.1582;stroke-dasharray:none;stroke-opacity:1" />
    <path
       d="m 757.57,582.86 4.66,3.76 2.16,-1.24 4.31,1.95 3.71,3.93 7.05,-1.38 5.64,2.2 -1.61,11.09 0.98,2.83 -2.89,9.83 0.9,7.64 -3.99,3.39 -1.13,4.49 -2.86,1.54 -3.64,5.6 -3.35,11.13 -0.56,11.7 -5.82,-7.26 -4.42,-2.12 -6.99,-7.19 -0.59,-4.17 -5.88,-9.21 -8.55,-6.58 -6.09,-3.28 2.74,-3.61 2.95,-1.36 7.45,1.27 7.13,-1.05 2.56,-2.02 1.14,-3.67 5.84,-2.53 -5.75,-2.57 -1.27,-2.32 4.03,-5.02 -3.95,-9.76 1.3,-3.91 z"
       id="M01609"
       style="fill:#ffff80;fill-opacity:1;stroke:#000000;stroke-width:1.1582;stroke-dasharray:none;stroke-opacity:1" />
    <path
       d="m 687.67,500.75 3.66,5.11 1.19,5.2 4.54,-0.75 4.89,2.04 0.7,3.83 3.68,3.73 0.76,3.15 4.34,5.4 2.19,0.6 2.26,5.54 3.28,1.71 3.09,5.35 1.89,0.04 1.54,4.62 4.55,3.67 0.5,3.16 6.4,1.55 2.32,7.55 -3.78,3.75 -5.38,1.28 -1.64,4.16 -3.24,0.84 -5.61,-1.19 -8.32,4.89 -2.72,-0.38 -5.14,2.46 -6.25,1.17 -2.81,3.71 -4.41,2.1 -2.81,5.56 0.9,1.87 -3.62,3.44 -0.99,3.29 -10.88,-1.67 -2.9,-2.58 -5.72,-2.88 -3.19,-4.26 -5.29,-0.67 -2.84,-2.22 -5.46,-0.5 -1.41,-1.54 -4.93,-0.22 -4.7,-5.13 0.9,-2.62 4.05,-1.66 -0.5,-2.41 3.08,-2.19 3.51,-0.26 8.79,-8.47 -0.79,-2.35 3.37,-5.04 -0.04,-2.71 3.93,-5.46 -0.71,-5.59 6.2,-11.99 -2.11,-3.33 1.03,-2.76 -2.53,-3.67 0.36,-6.04 5.65,-1.17 6.13,-4.01 7.58,-0.91 0.47,-3.39 z"
       id="M01607"
       style="fill:#ffff80;fill-opacity:1;stroke:#000000;stroke-width:1.1582;stroke-dasharray:none;stroke-opacity:1" />
    <path
       d="m 739.45,562.25 7.02,2.41 -0.28,3.44 3.98,5.19 4.5,1.26 2.9,8.31 -4.79,2.1 -1.3,3.91 3.95,9.76 -4.03,5.02 1.27,2.32 5.75,2.57 -5.84,2.53 -1.14,3.67 -2.56,2.02 -7.13,1.05 -7.45,-1.27 -2.95,1.36 -2.74,3.61 -1.35,-1.25 -11.66,-5.29 -2.34,-3.27 -4.39,-2.28 -2.7,-4.77 -12.57,-4.28 -7.3,-0.03 -2.67,-1.14 0.99,-3.29 3.62,-3.44 -0.9,-1.87 2.81,-5.56 4.41,-2.1 2.81,-3.71 6.25,-1.17 5.14,-2.46 2.72,0.38 8.32,-4.89 5.61,1.19 3.24,-0.84 1.64,-4.16 5.38,-1.28 z"
       id="M01608"
       style="fill:#ffff80;fill-opacity:1;stroke:#000000;stroke-width:1.1582;stroke-dasharray:none;stroke-opacity:1" />
    <path
       d="m 485.93,482.15 3.42,-5.02 6.61,-0.25 4.88,-1.79 2.76,-2.49 2.56,2.96 -1.79,2.5 3.3,1.89 2.26,-1.2 6.86,5.49 8.42,-6.64 2.68,-3.83 3.84,-1.45 1.15,-3.68 3.94,-5.84 3.22,-1.65 2.86,-5.39 3.12,-1.7 8.19,0.11 2.81,-4 1.87,-0.07 3.01,3.88 5.74,2.39 3.88,-1.3 3.13,1.62 2.81,-1.8 8.45,-0.4 4.1,-0.97 7.32,3.14 2.7,-2.24 2.36,4.99 -3.76,2.9 -4.98,5.98 -4.54,2.96 -5.66,0.01 -5.14,6.75 -6.59,-1.2 -5.42,1.07 1.31,3.79 -3.6,3.19 -3.49,5.63 0.84,5.36 -3,8.25 -4.7,5.8 -6.39,2.77 -5.06,1.15 -3.1,-2.64 -3.07,-4.89 -7.43,-4.03 -9.59,-2.23 -8.37,-0.32 -1.77,-2.28 -9.65,-2.29 -2.61,-4.23 -7.38,-5.03 z m 90.66,-107.44 4.01,-4.11 1.74,-4.24 -1.19,-5.19 5.64,0.82 4.22,5.21 9.44,-3.61 3.66,2.86 4.04,-2.8 5.43,3.72 3.09,-1.87 2.86,-4.35 -0.43,-3.13 3.53,-7.23 5.9,-2.16 3.98,-3.97 7.57,1.3 2.62,-2.65 2.52,0.88 4.6,-1.77 3.81,-4.77 7.88,6.07 -0.33,3.56 -2.72,3.87 2.18,6.74 2.84,1.8 1.24,3.27 -4.83,8.37 1.49,1.51 1.86,6.18 3.64,2.71 -3.43,3.66 -6.29,1.17 -2.55,3.44 -0.63,4.9 -2,4.55 -0.09,8.57 -4.85,2.45 -2.36,5.15 -6.18,-0.2 -3.52,-1.53 -3.13,-4.84 -10.41,-6.18 -2.95,-7.07 -4.18,0.8 -8.05,4.57 -1.14,4.75 -2.3,1.91 -9.23,1.36 -1.89,-2.89 -9.35,-2.81 -2.77,0.99 -2.35,-2.96 3.14,-6.98 1.11,-4.73 -0.32,-4.92 -3.7,-0.74 -1.89,-6.52 z"
       fill-rule="evenodd"
       id="M01601"
       style="fill:#ffff80;fill-opacity:1;stroke:#000000;stroke-width:1.1582;stroke-dasharray:none;stroke-opacity:1" />
    <path
       d="m 644.68,415.62 1.75,3.54 -0.65,3.8 -4,0.47 -12.86,-1.08 -1.58,-2.75 -4.58,0.35 -3.51,2.47 -2.16,6.35 -2.47,0.59 -1.24,4.09 1.03,5 -1.71,2.28 0.75,8.15 -3.23,2.17 -6.9,-0.74 -3.29,4.11 -2.7,2.24 -7.32,-3.14 -4.1,0.97 -8.45,0.4 -2.81,1.8 -3.13,-1.62 -3.88,1.3 -5.74,-2.39 -3.01,-3.88 -1.87,0.07 -2.81,4 -8.19,-0.11 -3.12,1.7 -2.86,5.39 -3.22,1.65 -3.94,5.84 -1.15,3.68 -3.84,1.45 -2.68,3.83 -8.42,6.64 -6.86,-5.49 -2.26,1.2 -3.3,-1.89 1.79,-2.5 -2.56,-2.96 2.96,-3.82 5.22,-0.46 1.44,-2.17 6.27,-3.36 0.84,-7.74 3.35,-7.44 0.21,-3.67 2.09,-1.48 4.06,-9.43 4.09,-2.48 0.89,-5.84 4.95,-1.12 1.67,-6.19 7.27,-0.8 2.75,-3.52 7.39,-4.23 1.44,-5.33 0.45,-8.46 1.01,-1.82 -1.61,-5.26 2.98,-6.91 -1.09,-4.81 2.55,-2.83 3.25,2.09 4.67,-2.3 3.89,1.49 -1.02,2.92 1.89,6.52 3.7,0.74 0.32,4.92 -1.11,4.73 -3.14,6.98 2.35,2.96 2.77,-0.99 9.35,2.81 1.89,2.89 9.23,-1.36 2.3,-1.91 1.14,-4.75 8.05,-4.57 4.18,-0.8 2.95,7.07 10.41,6.18 3.13,4.84 3.52,1.53 z"
       id="M01602"
       style="fill:#ffff80;fill-opacity:1;stroke:#000000;stroke-width:1.1582;stroke-dasharray:none;stroke-opacity:1" />
    <path
       d="m 646.43,419.16 4.45,0.14 4.17,5.04 4.74,-0.19 1.32,11.16 -2.16,6.32 -3.2,-1.11 -4.54,2.45 -4.29,-0.53 -5.12,2.34 -2.91,4.82 -7.67,6.74 -1.33,2.5 -3.8,-0.24 -6.83,2.1 0.14,3.47 -3.73,10.19 2.28,3.57 -1.19,2.25 1.34,4.49 -3,2.81 -0.4,3.76 -3.01,2.91 -6.92,2.56 -3.22,3.54 -3.49,8.95 -5.14,2.97 -5.29,5.88 -2.12,3.87 -9.92,7.72 -6.18,3.8 -2.45,3.53 -12.73,-9.3 -2.37,-4.29 -9.65,-9.56 5.06,-1.15 6.39,-2.77 4.7,-5.8 3,-8.25 -0.84,-5.36 3.49,-5.63 3.6,-3.19 -1.31,-3.79 5.42,-1.07 6.59,1.2 5.14,-6.75 5.66,-0.01 4.54,-2.96 4.98,-5.98 3.76,-2.9 -2.36,-4.99 3.29,-4.11 6.9,0.74 3.23,-2.17 -0.75,-8.15 1.71,-2.28 -1.03,-5 1.24,-4.09 2.47,-0.59 2.16,-6.35 3.51,-2.47 4.58,-0.35 1.58,2.75 12.86,1.08 4,-0.47 z"
       id="M01604"
       style="fill:#ffff80;fill-opacity:1;stroke:#000000;stroke-width:1.1582;stroke-dasharray:none;stroke-opacity:1" />
    <path
       d="m 388.51,125.7 0.02,-0.8 5.09,1.76 3.26,-1.61 3.03,-4.49 3.44,-0.44 8.77,-3.94 8.06,0.79 7.11,-2.85 0.26,1.98 9.37,1.39 6.22,1.88 10.52,5.96 6.41,-3.28 5.95,-0.45 6.46,0.58 2.6,5.68 -0.94,7.31 0.33,4.64 -1.76,5.3 1.28,4.8 -4.45,-0.71 -2.23,2.45 -0.16,4.96 -4.82,-6.14 -0.06,-6.29 -1.08,-2.45 -3.88,-2.67 -4.08,0.29 -9.52,-1.87 -9.07,-5.53 -0.88,-2.64 -4.72,-0.11 -5.07,4.14 -0.46,2.19 -9.44,4.45 -8.7,-3.48 -0.37,-2.37 -3.3,-3.5 -3.25,-1.18 -7.46,-0.81 z"
       id="M01436"
       style="fill:#ffff80;fill-opacity:1;stroke:#000000;stroke-width:1.1582;stroke-dasharray:none;stroke-opacity:1" />
    <path
       d="m 388.53,124.9 7.44,-2.16 3.19,-3.21 13.04,-9.57 3.25,1.12 3.71,-1.07 6.5,4.09 2.47,-3.18 -2.15,-8.86 0.85,-3.18 4.56,0.22 4.83,3.02 1.53,4.19 4.19,4.77 1.8,-6.15 -1.02,-2.5 7.38,-5.11 0.49,-4.4 -2.07,-3.36 7.2,-4.85 6.27,-1.25 3.29,6.34 -0.64,6.64 1.19,0.89 -1,8.44 5.86,1.89 -0.63,4.6 2.03,2.13 1.7,5.01 -1.31,2.78 -6.46,-0.58 -5.95,0.45 -6.41,3.28 -10.52,-5.96 -6.22,-1.88 -9.37,-1.39 -0.26,-1.98 -7.11,2.85 -8.06,-0.79 -8.77,3.94 -3.44,0.44 -3.03,4.49 -3.26,1.61 z"
       id="M01437"
       style="fill:#ffff80;fill-opacity:1;stroke:#000000;stroke-width:1.1582;stroke-dasharray:none;stroke-opacity:1" />
    <path
       d="m 485.9,113.33 -13.81,1.06 -2.03,-2.13 0.63,-4.6 8.6,-9.5 6.25,-3.18 6.04,-1.53 3.79,4.93 -1.93,14.61 z"
       id="M01434"
       style="fill:#ffff80;fill-opacity:1;stroke:#000000;stroke-width:1.1582;stroke-dasharray:none;stroke-opacity:1" />
    <path
       d="m 170.73,464.51 1.71,-4.68 -2.42,-2.95 5.03,-6.75 4.54,-8.79 -1.69,-5.48 -1.62,-10.27 6.35,2.89 4.74,-1.15 4.93,1.28 7.6,-0.37 4.8,-2.66 10.21,0.54 3.4,1.94 2.08,4.63 -1.58,4.19 v 6.03 l -0.24,2.59 -4.59,4.3 2.03,7.22 3.54,5.53 -7.24,6.62 -3.37,-0.97 -3.3,-3.43 -7.34,-0.28 -5.23,0.68 -10.57,3.77 -1.92,1.68 -6.51,-3.26 z"
       id="M01571"
       style="fill:#ffff80;fill-opacity:1;stroke:#000000;stroke-width:1.1582;stroke-dasharray:none;stroke-opacity:1" />
    <path
       d="m 461.99,83.46 0.01,-3.72 1.77,-6.27 2.55,-3.07 4,-1.51 0.9,-2.17 -4.1,-7.57 4.35,-9.37 6.6,-2.05 -0.07,-6.03 3.94,-4.93 8.17,1.78 2.15,-3.84 5.37,0.05 2.8,2.25 -1.1,3.77 0.84,4.91 -1.96,7.75 1.14,7.16 7.76,7.54 3.29,7.54 1.56,1.2 -2.63,6.97 -7.48,4.08 -0.91,2.96 -4.83,0.87 -0.74,6.62 -3.79,-4.93 -6.04,1.53 -6.25,3.18 -8.6,9.5 -5.86,-1.89 1,-8.44 -1.19,-0.89 0.64,-6.64 z"
       id="M01438"
       style="fill:#ffff80;fill-opacity:1;stroke:#000000;stroke-width:1.1582;stroke-dasharray:none;stroke-opacity:1" />
    <path
       d="m 251.57,454.13 3.27,-6.95 8.66,1.17 0.6,-0.98 14.09,10.03 0.92,5.8 3.68,-0.78 5.79,1.26 2.98,3.36 0.02,7.41 -4.46,2.91 0.85,4.52 -3.49,0.17 -2.79,3.26 -3.82,1.96 -6.2,-0.23 -5.39,2.13 -0.18,-4.32 -2.65,-5.14 -3.97,-1.93 -5.79,-0.09 -2.44,1.98 -5.48,1.57 -11.45,-3.27 0.99,-6.8 6,2.53 3.8,-0.31 6.01,-4.41 4.55,-7.62 -0.03,-3.03 z m -13.89,7.61 0.52,-2.09 4.85,-2.01 0.34,5.21 z"
       fill-rule="evenodd"
       id="M01575"
       style="fill:#ffff80;fill-opacity:1;stroke:#000000;stroke-width:1.1582;stroke-dasharray:none;stroke-opacity:1" />
    <path
       d="m 454.81,431.04 0.81,7.55 -3.07,2.1 -0.14,12.54 -3.54,6.84 -3.33,-3.25 -5.35,-2.31 -9.47,-1.98 -9.42,-0.13 -3.16,-0.79 -7.76,0.04 -9.06,1.97 -11.89,3.28 -14.86,6.09 -9.58,5.28 0.43,-2.3 -4.28,-2.37 -2.03,-4.39 -6.07,-4.08 -4.19,-4.17 -1.27,-4.87 1.53,-9.11 3.09,-0.7 2.79,-3.09 3.06,-0.06 3.61,-7.33 2.03,-1.56 -0.45,-12.37 6.19,0.86 2.82,-0.99 2.15,2.44 5.87,1.78 9.02,0.75 3.16,-1.19 6.49,2.1 7.11,-8.55 9.77,-1.29 12.69,1.84 7.96,-5.2 0.44,10.01 -1.77,2.57 2.69,5.19 10.28,9.53 z"
       id="M01213"
       style="fill:#ffff80;fill-opacity:1;stroke:#000000;stroke-width:1.1582;stroke-dasharray:none;stroke-opacity:1" />
    <path
       d="m 417.02,254.05 4.57,-0.36 -1.93,-6.46 6.19,-6.93 13.06,6.92 8.29,9.12 3.6,6.81 -1.51,7.8 4.89,0.9 0.28,6.53 3.57,1.53 6.64,-0.57 6.01,2.63 4.45,-3.98 4.25,2.24 11.01,4.39 4.33,3.96 4.22,-0.32 3.39,8.94 -2.46,1.65 3.01,8.94 -1.78,2.49 -4,0.79 -3.89,-2.55 -3.42,3.52 -1.72,-2.4 -8.61,0.2 -7.35,-2.85 -4.23,-3.83 -4.01,-1.95 -3.38,1.9 -6.55,6.35 -2,0.08 -6.66,4.78 -6.04,3.37 -4.01,-1.71 -7.18,-0.54 -7.84,-11.34 -7.09,-10.54 -3,-1.69 -2.63,-1.62 7.81,-11.63 2.86,-2.54 -1.08,-2.36 4.05,-2.21 -2.98,-4.99 1.17,-3.56 -3.5,-3.11 z"
       id="M01210"
       style="fill:#ffff80;fill-opacity:1;stroke:#000000;stroke-width:1.1582;stroke-dasharray:none;stroke-opacity:1" />
    <path
       d="m 270.66,509.43 5.45,1.85 -0.79,4.54 3.29,3.57 3.91,14.18 2.24,1.29 -2.07,0.47 -7.1,8.58 -2.37,6.19 -12.9,-5.42 -2.56,-5.69 4.13,-2.07 7.4,5.49 -0.43,-8.78 -10.11,-2.12 -4.26,-1.74 -1.93,-3.14 5.45,-2.5 3.41,0.24 7.69,-6.88 -0.93,-2.88 z"
       id="M01205"
       style="fill:#ffff80;fill-opacity:1;stroke:#000000;stroke-width:1.1582;stroke-dasharray:none;stroke-opacity:1" />
    <path
       d="m 282.69,322.17 -6.2,-4.05 -3.6,-6.72 0.63,-3.69 -1.8,-2.39 0.79,-3.07 -10.3,-1.37 -4.48,1.19 -2.5,-0.86 0.68,-6.41 -8.87,-4.91 -3.69,0.74 -4.49,-6.88 -0.3,-3.74 2.4,-2.11 4.57,0.63 4.94,-1.86 3.24,0.19 1.09,-3.6 8,-1.98 5.24,-3.05 8.22,0.1 -0.23,7.93 -2.83,1.86 4.64,6.6 3.41,1.57 4.24,0.06 6.85,2.46 8.19,4.92 7.99,3.34 13.11,-5.99 8.95,-6.04 3.83,-5.1 2.7,4.71 -9.78,7.9 -2.09,2.13 -3.7,-1.87 -7.41,5.38 2.36,3.76 -2.56,2.46 -3.2,6.25 -3.18,3.1 -3.31,-1.83 -5.01,-5.07 -6.22,-2.53 -3.47,0.5 -3.05,4.51 1.67,3.39 -2.5,7.11 z"
       id="M01203"
       style="fill:#ffff80;fill-opacity:1;stroke:#000000;stroke-width:1.1582;stroke-dasharray:none;stroke-opacity:1" />
    <path
       d="m 554.64,272.48 1.17,8.33 -2.97,2.79 -1.65,6.57 -2.11,4.7 2.03,4.68 -3.87,5.53 1,7.47 2.96,2.57 1.09,5.13 5.8,4.88 5.77,1.32 2.14,4.53 -7.57,4.97 -3.54,10.27 -3.82,-0.35 -1.59,4.72 -3.66,-2.28 -3.43,1.82 -4,4.43 -4.06,0.61 -2.04,-2.38 -3.31,2.63 -3.95,0.55 0.23,6.26 -7.68,3.95 -0.76,6.31 -5.84,7.59 -2.15,-1.34 -3.83,4.01 -2.18,-0.78 -3.25,-1.32 -4.27,1.11 -4.33,-12.22 -5.99,-2.92 1.95,-2.15 -0.46,-7.51 -3.04,-1.23 -1.13,-12.7 -2.18,-1.6 -4.71,0.94 -2.54,-6.17 1.29,-2.05 -1.79,-6.6 2.05,-3.87 0.67,-5.98 -0.42,-5.64 4.79,-2.22 8.61,-0.2 1.72,2.4 3.42,-3.52 3.89,2.55 4,-0.79 1.78,-2.49 -3.01,-8.94 2.46,-1.65 6.91,-6.37 5.37,-0.16 4.39,-2.64 2.65,-5.01 5,-1.06 0.84,-6.83 1.22,-2.18 6,5.16 6.16,-1.45 5.89,-0.31 3,-2.69 z"
       id="M01209"
       style="fill:#ffff80;fill-opacity:1;stroke:#000000;stroke-width:1.1582;stroke-dasharray:none;stroke-opacity:1" />
  </g>
</svg>
