<?xml version="1.0" encoding="UTF-8" standalone="no"?>
<svg
   version="1.2"
   width="690"
   height="600"
   viewBox="0 0 690 600.00001"
   stroke-linecap="round"
   stroke-linejoin="round"
   id="svg745"
   sodipodi:docname="dt.svg"
   inkscape:version="1.2 (dc2aedaf03, 2022-05-15)"
   xmlns:inkscape="http://www.inkscape.org/namespaces/inkscape"
   xmlns:sodipodi="http://sodipodi.sourceforge.net/DTD/sodipodi-0.dtd"
   xmlns="http://www.w3.org/2000/svg"
   xmlns:svg="http://www.w3.org/2000/svg">
  <defs
     id="defs749" />
  <sodipodi:namedview
     id="namedview747"
     pagecolor="#505050"
     bordercolor="#eeeeee"
     borderopacity="1"
     inkscape:showpageshadow="0"
     inkscape:pageopacity="0"
     inkscape:pagecheckerboard="0"
     inkscape:deskcolor="#505050"
     showgrid="false"
     inkscape:zoom="1.345576"
     inkscape:cx="344.83375"
     inkscape:cy="317.33623"
     inkscape:window-width="1920"
     inkscape:window-height="1009"
     inkscape:window-x="-8"
     inkscape:window-y="-8"
     inkscape:window-maximized="1"
     inkscape:current-layer="svg745" />
  <g
     id="dt"
     transform="matrix(0.86340852,0,0,0.86340852,-0.36340853,41.409148)"
     style="fill:#ffff80;fill-opacity:1;stroke:#000000;stroke-width:1.1582;stroke-dasharray:none;stroke-opacity:1">
    <path
       d="m 42.22,154.73 -1.42,2.96 -4.93,5.3 -6.44,-0.2 -4.7,1.99 -2.09,2.31 0.2,2.46 -3.81,1.04 -1.22,1.23 0.74,3.93 -2.08,2.46 -0.01,3.06 -1.96,3.79 -0.27,2.52 -2.11,2.39 -0.44,3.55 -1.74,5.7 8.34,-0.71 5.54,-7.74 2.21,0.12 1.07,3.58 3.5,1.03 2.03,-1.67 3.7,1.43 3.36,0.26 3.69,2.89 -4.12,4.28 1.5,2.91 -0.59,4.86 -2.91,4.7 0.03,1.93 2.69,0.47 0.64,6.2 -0.36,3.66 2.41,0.91 2.63,3.28 1.12,3.43 -1.35,1.77 0.96,2.64 0.55,7.65 -4.4,0.13 v 5.43 l 2.35,3.52 -0.45,2.99 1.7,0.94 -1.24,2.59 2.3,3.67 -1.56,1.51 2.89,3.4 1.62,5.4 -2.87,7.3 1.53,0.77 -0.42,2.93 5.85,-0.03 5.99,-2.88 3.84,3.74 2.92,-1.14 2.27,2.44 -4.53,4.96 0.14,3.81 -1.25,6.41 3.41,3.03 -3.15,2.55 -0.64,3.3 0.51,3.02 1.64,1.85 6.26,1.61 5.5,-2.79 2.25,-0.04 2.15,-1.58 1.88,1.31 1.39,3.61 -1.44,3.24 0.46,1.61 -1.32,0.11 -2.7,4.95 2.7,3.09 1.51,3.84 -2.2,1.53 -2.41,3.6 0.75,2.2 -5.09,3.78 -5.25,3.12 -2.33,-1.37 -2.63,3.57 -0.82,2.4 -4.98,-1.03 -2.02,1.41 -2.4,-3.25 -4.22,-3.47 -3.68,-0.82 -3.15,3.64 0.26,3.24 -1.62,1.38 -3.07,-1.48 -0.19,2.9 -4.56,4.61 -7.79,6.09 -0.5,3.28 -3.96,3.12 0.58,3.32 2.81,2.91 1.81,3.18 6.07,2.3 -2.55,1.11 -1.71,7.3 1.51,6.47 -1.64,1.89 0.8,6.23 2.87,2.09 0.5,12.02 -3.79,5.98 -1.16,3.04 2.68,4.46 0.66,6.6 -1.69,1.38 2.82,2.67 -1.73,4.21 1.24,3.82 2.32,2.88 -2.74,4.75 1.89,4.36 1.77,0.57 -1.65,3.04 -3.57,0.66 -1.44,1.95 -1.49,5.36 -0.05,4.86 -2.76,1.39 -1.36,2.99 0.69,1.85 2.85,0.17 2.37,2.86 2.69,-0.11 0.05,5.3 1,1.18 -1.37,2.58 0.23,4.06 1.62,1.38 0.41,2.58 2.2,0.29 2.87,7.18 1.68,1.22 0.39,3.67 4.45,1.23 -0.96,4.78 4.36,4.21 -1.11,3.77 2.08,2.9 0.67,2.95 2.58,-0.42 2.78,1.15 0.39,2.17 4.99,6.97 1.24,0.34 1.28,3.14 1.87,0.97 3.7,5.68 2.58,2.08 0.28,1.79 3.63,0.88 1.32,4.28 3.98,1.37 -0.15,1.95 2.26,2.94 1.63,-0.08 2.25,5.19 2.96,2.45 3.67,0.41 2.11,2.22 4,-0.78 3.2,1.25 -0.91,6.28 0.47,1.78 H 58.04 l -0.31,-0.93 -7.13,-2.43 -4.14,-0.02 -4.37,-1.39 -3.33,-0.2 -4.89,-3.1 -1.81,-2.41 -4.61,-1.64 -6.7,-1.28 -5.26,-5.22 -5.41,-3.47 L 4.9,574.6 1,572.13 V 93 l 2.45,1.77 -0.06,2.62 1.65,4.66 4.14,4.31 1.49,3.88 -0.44,3.19 2.7,3.87 3.08,2.09 3.4,8.36 1.89,0.85 5.58,8.73 2.3,4.42 4.36,4.08 2.55,3.65 z"
       id="M01999"
       style="fill:#808080;fill-opacity:1;stroke:#000000;stroke-width:1.1582;stroke-dasharray:none;stroke-opacity:1" />
    <path
       d="m 61.96,554.2 -1.24,-0.34 -4.99,-6.97 -0.39,-2.17 -2.78,-1.15 -2.58,0.42 -0.67,-2.95 -2.08,-2.9 1.11,-3.77 -4.36,-4.21 0.96,-4.78 -4.45,-1.23 -0.39,-3.67 2.99,-1.3 3.75,1.49 3.9,0.12 2.1,1.36 1.89,-2.59 4.5,-1.1 3.2,0.71 2.39,-2.15 2.23,0.43 1.95,1.63 5.22,-0.43 2.34,1.15 11.14,0.11 2.1,0.52 0.19,3.15 4.97,1.68 4.44,2.36 4.96,-2.13 3.84,1.8 1.08,3.57 9.33,-3.11 -5.08,-5.79 -1.08,-4.78 -4.14,-0.71 -0.87,-2.73 0.98,-2.56 -0.24,-3.41 2.7,-0.66 2.86,-4.74 2.45,2.09 1.42,2.92 2.91,2.55 5.38,5.89 1.66,4.15 -10.01,14.25 -6.94,12.59 -4,-3.14 -0.89,0.5 -8.31,-2.7 -9.55,0.73 -1.73,1.83 -4.89,0.44 -3.87,1.69 -5.81,-0.68 -1.57,-0.85 -4.09,2.86 0.15,2.2 z"
       id="M01641"
       style="fill:#ffff80;fill-opacity:1;stroke:#000000;stroke-width:1.1582;stroke-dasharray:none;stroke-opacity:1" />
    <path
       d="m 140.26,337.68 0.8,2.63 -1.84,2.84 -3.2,0.39 -2.62,1.56 -3.33,-0.64 -1.35,1.79 -0.54,4.07 -1.7,3.11 -1.6,-0.16 -3.81,3.13 -1.07,3.64 -4.93,-3.01 -3.11,-3.63 -3.18,-0.97 -2.15,1 -2.82,-1.86 -2.49,1.78 -2.06,0.01 -4.55,-2.14 -3.26,1.4 -1.27,-0.66 0.05,-3.45 -2.1,-1.58 -2.94,-0.28 -1.56,-1.57 1.78,-2.25 0.1,-2.85 5.48,-2.93 2.9,0.19 3.35,-1.96 8.78,2.29 4.76,-2.94 1.53,-1.88 2.32,0.37 1.97,-5.14 2.87,-0.94 4.07,0.08 3.77,-2.24 0.9,-4.39 2.12,-0.67 5.07,-3.66 4.83,0.77 4.27,-3.15 0.69,8.9 1.11,2.86 -0.86,2.32 0.93,3.99 -4.59,1.96 -2.57,2.84 z"
       id="M01550"
       style="fill:#ffff80;fill-opacity:1;stroke:#000000;stroke-width:1.1582;stroke-dasharray:none;stroke-opacity:1" />
    <path
       d="m 102.53,589.94 -3.2,-1.25 -4,0.78 -2.11,-2.22 -3.67,-0.41 -2.96,-2.45 -2.25,-5.19 -1.63,0.08 -2.26,-2.94 0.15,-1.95 -3.98,-1.37 -1.32,-4.28 -3.63,-0.88 -0.28,-1.79 -2.58,-2.08 -3.7,-5.68 -1.87,-0.97 -1.28,-3.14 4.09,-4.51 -0.15,-2.2 4.09,-2.86 1.57,0.85 5.81,0.68 3.87,-1.69 4.89,-0.44 1.73,-1.83 9.55,-0.73 8.31,2.7 0.89,-0.5 4,3.14 -4.05,8.31 -3.73,8.91 0.06,3.06 -2.11,5.79 -0.24,2.97 1.58,3.39 -0.23,1.83 2.12,1.82 -0.35,4.59 z"
       id="M01642"
       style="fill:#ffff80;fill-opacity:1;stroke:#000000;stroke-width:1.1582;stroke-dasharray:none;stroke-opacity:1" />
    <path
       d="m 135.52,284.12 -1.79,-3 1.93,-0.97 -0.2,-3.41 2.68,-1.05 3.64,0.34 3.29,-3.05 6.16,-1.46 3.16,-7.51 0.45,-10.16 3.92,2.43 1.38,1.74 3.06,0.05 4.44,-1.86 3.84,1.62 4,-0.04 3.4,2.27 2.04,-0.98 2.01,1.04 -2.53,4.33 0.75,4.13 -1.72,0.97 -1.29,3.21 -1.56,0.39 -4.77,4.99 -1.83,0.76 -6.31,-1.85 -2.41,0.66 -2.75,5.39 -3.11,-0.56 0.39,4.28 1.02,1.94 -3.77,3.4 -0.98,3.8 -2.41,0.56 -3.85,-5.77 -2.28,-2.1 -1.74,-3.68 -2.68,1.44 -1.6,-2.46 z"
       id="M01552"
       style="fill:#ffff80;fill-opacity:1;stroke:#000000;stroke-width:1.1582;stroke-dasharray:none;stroke-opacity:1" />
    <path
       d="m 74.86,404.54 -0.41,1.46 2.77,7.35 -0.53,2.84 4.12,5 -9.46,-2.41 -4.27,16.44 2.84,1.42 0.85,8.77 -6.13,-4.07 -6.64,-5.7 -4.36,-5.99 -0.49,-2.98 -0.46,-7.12 5.55,-6.48 2.3,-5.92 -1.94,-2.66 0.92,-1.77 -0.73,-4.32 2.27,-5.51 2.15,-0.84 0.46,-2.06 -1.63,-3.38 3.94,-7.33 2.79,1.89 2.67,-0.77 2.65,1.23 4.15,6.29 1.71,4.69 -2.99,3 -0.4,4.18 z"
       id="M01634"
       style="fill:#ffff80;fill-opacity:1;stroke:#000000;stroke-width:1.1582;stroke-dasharray:none;stroke-opacity:1" />
    <path
       d="m 31.25,445.05 -0.66,-6.6 -2.68,-4.46 1.16,-3.04 3.79,-5.98 -0.5,-12.02 -2.87,-2.09 -0.8,-6.23 1.64,-1.89 -1.51,-6.47 1.71,-7.3 2.55,-1.11 -6.07,-2.3 -1.81,-3.18 -2.81,-2.91 -0.58,-3.32 3.96,-3.12 0.5,-3.28 7.79,-6.09 4.56,-4.61 0.19,-2.9 3.07,1.48 1.62,-1.38 -0.26,-3.24 3.15,-3.64 3.68,0.82 4.22,3.47 2.4,3.25 2.02,-1.41 4.98,1.03 -0.39,2.39 1.6,1.09 1.07,3.54 1.7,2.52 -1.71,3.38 -0.74,4.86 0.76,4.97 -3.94,7.33 1.63,3.38 -0.46,2.06 -2.15,0.84 -2.27,5.51 0.73,4.32 -0.92,1.77 1.94,2.66 -2.3,5.92 -5.55,6.48 0.46,7.12 -1.55,0.36 0.34,4.32 -4.16,0.92 1.16,3.01 -4.99,1.48 0.66,1.37 -2.72,2.74 -3.2,0.39 -4.76,3.44 z"
       id="M01635"
       style="fill:#ffff80;fill-opacity:1;stroke:#000000;stroke-width:1.1582;stroke-dasharray:none;stroke-opacity:1" />
    <path
       d="m 80.81,421.19 -4.12,-5 0.53,-2.84 -2.77,-7.35 0.41,-1.46 19.68,5.04 -0.55,1.06 13.54,2.23 1.13,1.96 2.36,0.33 -0.22,7.86 3.2,4.51 -3.61,5.07 -5.34,1.11 -1.91,-2.25 -0.68,-3.78 -9.23,-1.53 -1.09,6.74 -4.78,-0.77 1.76,-6.39 -0.56,-2.57 z"
       id="M01632"
       style="fill:#ffff80;fill-opacity:1;stroke:#000000;stroke-width:1.1582;stroke-dasharray:none;stroke-opacity:1" />
    <path
       d="m 63.69,356.53 0.82,-2.4 2.63,-3.57 2.33,1.37 5.25,-3.12 5.09,-3.78 3.82,0.05 1.56,1.57 2.94,0.28 2.1,1.58 -0.05,3.45 1.27,0.66 -1.1,3.01 1.49,5.76 -1.28,1.02 -2.15,7.8 3.17,3.5 1.79,8.96 3.72,0.72 1.37,3.69 3.41,3.35 -0.74,3.02 8.63,1.37 3.78,3.1 -1.24,7.37 1.11,0.1 -0.99,1.96 -1.4,7.81 -2.36,-0.33 -1.13,-1.96 -13.54,-2.23 0.55,-1.06 -19.68,-5.04 1.7,-4.75 0.4,-4.18 2.99,-3 -1.71,-4.69 -4.15,-6.29 -2.65,-1.23 -2.67,0.77 -2.79,-1.89 -0.76,-4.97 0.74,-4.86 1.71,-3.38 -1.7,-2.52 -1.07,-3.54 -1.6,-1.09 z"
       id="M01633"
       style="fill:#ffff80;fill-opacity:1;stroke:#000000;stroke-width:1.1582;stroke-dasharray:none;stroke-opacity:1" />
    <path
       d="m 277.5,316.22 -0.28,3.46 1.56,9.99 -10.54,8.45 -0.86,1.73 -3.45,-1.62 -2.64,4.34 -2.79,1.5 -2.8,-2.11 -2.27,0.2 -1.45,-3.2 -0.73,-4.22 -3.31,-0.95 -0.57,-3.1 1.07,-1.35 -0.64,-3.27 1.65,-9.15 1.82,-0.14 -0.71,-11.2 1.62,-1.84 5.15,-0.43 -0.5,-7.69 7.39,-0.48 0.99,8.63 3.79,2.07 z"
       id="M01546"
       style="fill:#ffff80;fill-opacity:1;stroke:#000000;stroke-width:1.1582;stroke-dasharray:none;stroke-opacity:1" />
    <path
       d="m 40.1,520.48 -1.68,-1.22 -2.87,-7.18 -2.2,-0.29 -0.41,-2.58 -1.62,-1.38 -0.23,-4.06 1.37,-2.58 3.59,-1.71 4.4,1.18 3.72,-1.38 0.75,3.5 -0.51,5.7 5.17,4.45 2.32,-2.04 5.34,1.33 3.64,-1.09 2.54,-1.72 2.47,-0.29 3.02,-3.89 3.34,-5.67 -1.19,-1.43 3.19,-3.36 2.66,-1.42 2.55,1.53 2.37,-1.97 4.79,1.37 -0.74,4.26 -0.96,0.55 -2.52,5.29 -4.29,7.51 -4.73,3.61 -6.33,1.95 -2.23,-0.43 -2.39,2.15 -3.2,-0.71 -4.5,1.1 -1.89,2.59 -2.1,-1.36 -3.9,-0.12 -3.75,-1.49 z"
       id="M01638"
       style="fill:#ffff80;fill-opacity:1;stroke:#000000;stroke-width:1.1582;stroke-dasharray:none;stroke-opacity:1" />
    <path
       d="m 256.83,295.62 0.5,7.69 -5.15,0.43 -1.62,1.84 0.71,11.2 -1.82,0.14 -1.65,9.15 0.64,3.27 -1.07,1.35 -3.06,-2.46 -3.55,-0.82 -4.77,1.6 -2.65,-1.91 -4.71,-1.04 -0.03,-0.29 4.19,-2.68 2.85,-10.52 0.46,-3.08 -1.16,-3.08 1.21,-5.95 4.4,-6.58 0.76,-4.98 -1.01,-2.19 -4.16,-0.88 -3.6,-3.26 4.41,1.68 10.27,2.76 9.22,1.55 z"
       id="M01547"
       style="fill:#ffff80;fill-opacity:1;stroke:#000000;stroke-width:1.1582;stroke-dasharray:none;stroke-opacity:1" />
    <path
       d="m 89.8,520.43 -2.1,-0.52 -11.14,-0.11 -2.34,-1.15 -5.22,0.43 -1.95,-1.63 6.33,-1.95 4.73,-3.61 4.29,-7.51 2.52,-5.29 0.96,-0.55 2.08,-1.42 4.06,1.03 1.05,-4.04 4.53,1.17 -2.91,13.05 0.99,1.32 4.13,0.56 -0.88,6.5 -2.71,0.68 z"
       id="M01639"
       style="fill:#ffff80;fill-opacity:1;stroke:#000000;stroke-width:1.1582;stroke-dasharray:none;stroke-opacity:1" />
    <path
       d="m 214.34,344.37 1.85,7.49 0.12,3.84 -1.43,2.11 -3.95,-0.15 -1.19,1.93 -2.15,-2.51 -2.67,-1.01 -2.67,3.32 -4.87,-0.52 -1.35,2.31 0.82,1.83 -1.51,2.76 -5.7,2.39 -2.69,-0.67 -4.89,-1.35 -1.26,-2.26 -2.53,-3.02 -0.22,-2.78 -3.83,-2.05 -1.52,1.6 -6.51,-5.46 -1.49,-4.3 -3.53,-2.04 -2.27,-5.6 0.54,-3.41 5.21,-0.52 1.71,-3 -2.22,-1.53 0.42,-1.85 4.67,-4.61 5.14,0.79 1.88,-5.02 3.68,1.77 6.89,-1.4 1.73,0.27 5.52,-6.55 3.41,2.49 1.65,2.62 0.37,3.07 3.78,6.14 -1.01,6.25 2.15,3.86 3.78,0.24 2.42,3.13 z"
       id="M01544"
       style="fill:#ffff80;fill-opacity:1;stroke:#000000;stroke-width:1.1582;stroke-dasharray:none;stroke-opacity:1" />
    <path
       d="m 35.13,469.69 -1.77,-0.57 -1.89,-4.36 2.74,-4.75 -2.32,-2.88 -1.24,-3.82 1.73,-4.21 -2.82,-2.67 1.69,-1.38 2.68,-0.35 4.76,-3.44 3.2,-0.39 2.72,-2.74 -0.66,-1.37 4.99,-1.48 -1.16,-3.01 4.16,-0.92 -0.34,-4.32 1.55,-0.36 0.49,2.98 4.36,5.99 6.64,5.7 0.38,3.78 -3.67,0.38 0.78,8.17 -4.66,0.47 3.95,4.99 -3.41,0.56 -2.17,2.65 0.67,2.03 -4.06,3.99 2.65,2.85 -2.01,3.58 -2.89,-1.89 -1.38,0.95 -5.37,-1.03 -5.57,-4.08 z"
       id="M01636"
       style="fill:#ffff80;fill-opacity:1;stroke:#000000;stroke-width:1.1582;stroke-dasharray:none;stroke-opacity:1" />
    <path
       d="m 277.5,316.22 -8.5,-10.38 -3.79,-2.07 -0.99,-8.63 -7.39,0.48 -0.39,-7.06 6.21,0.64 7.23,0.15 10.49,-1.05 6.32,-1.58 1.21,-1.84 3.07,-1.2 2.32,-4.21 3.96,-2.05 4.3,-3.93 2.37,-5.71 1.54,0.17 3.98,-4.45 3.63,-2.68 0.28,-2.37 4.18,-2.84 9.56,-7.85 0.99,-1.7 8.1,-5.13 2.17,-3.57 2.08,-5.66 6.95,-7.38 0.69,-2.22 2.48,-1.66 0.92,-3.64 3,-1.42 -1.49,2.78 0.35,2.81 -1.41,3.85 -0.39,5.19 -1.59,1.02 -3.08,7.98 1.06,1.13 -1.67,5.58 -3.42,0.59 -3.36,3.05 -4.43,1.62 -2.72,4.43 -1.34,-0.05 -1.32,3.71 -2.3,2.78 -0.97,2.97 -3.24,2.37 -3.71,1.29 -1.03,5.01 -2.93,0.31 -3.86,6.66 1,3.63 -4.78,4.31 -5.25,1.02 -3.71,5.65 -2.08,1.22 3.47,1.78 0.08,2.81 -3.52,3.19 -1.73,3.48 0.54,2.41 -1.07,2.07 -2.62,-1.94 -2.78,0.24 -0.7,3.63 -1.71,2.04 -4.04,0.98 z"
       id="M01545"
       style="fill:#ffff80;fill-opacity:1;stroke:#000000;stroke-width:1.1582;stroke-dasharray:none;stroke-opacity:1" />
    <path
       d="m 26.93,485.56 0.05,-4.86 1.49,-5.36 1.44,-1.95 3.57,-0.66 1.65,-3.04 2.75,-0.95 5.57,4.08 5.37,1.03 1.38,-0.95 2.89,1.89 2.01,-3.58 -2.65,-2.85 4.06,-3.99 -0.67,-2.03 2.17,-2.65 3.41,-0.56 -3.95,-4.99 4.66,-0.47 -0.78,-8.17 3.67,-0.38 -0.38,-3.78 6.13,4.07 3.08,1.07 3.29,4.35 1.27,2.94 2,1.95 -2.11,-0.37 -1.99,1.68 -0.72,2.31 0.56,5.84 4.28,0.45 -3.43,6.23 -5.68,7.82 -1.88,1.67 -6.48,3.4 -2.13,1.67 -6.84,8.28 -1.81,-0.43 -3.07,-2.65 0.09,-1.73 -7.5,-1.02 -2.98,-1.52 -4.21,0.23 -1.68,-2.06 -2.85,0.89 z"
       id="M01637"
       style="fill:#ffff80;fill-opacity:1;stroke:#000000;stroke-width:1.1582;stroke-dasharray:none;stroke-opacity:1" />
    <path
       d="m 140.26,337.68 -1.05,-1.03 2.57,-2.84 4.59,-1.96 -0.93,-3.99 0.86,-2.32 -1.11,-2.86 -0.69,-8.9 2.9,1.04 1.96,-1.32 12.24,-1.1 0.9,9.71 -1.69,4.87 3.33,4.79 2.22,1.53 -1.71,3 -5.21,0.52 -0.54,3.41 -1.91,1.11 -2.39,-0.47 -0.32,-2.8 -5.16,-0.7 -2,2.35 -2.77,-0.18 -2.35,-2.22 z"
       id="M01549"
       style="fill:#ffff80;fill-opacity:1;stroke:#000000;stroke-width:1.1582;stroke-dasharray:none;stroke-opacity:1" />
    <path
       d="m 127.56,519.97 -1.66,-4.15 -5.38,-5.89 -2.91,-2.55 -1.42,-2.92 -2.45,-2.09 -2.86,4.74 -2.7,0.66 -3.83,-3.5 -1.32,-4.36 1.08,-5.06 1.63,-2.69 0.16,-7.62 5.69,-6.06 -0.87,-9.02 6.75,-0.63 5.82,-0.39 7.63,-3.04 4.3,4.32 -3.3,3.67 2.25,5.81 2.35,1.75 -0.93,9.12 0.59,3.67 1.64,4.55 6.27,-1.03 2,0.42 2.32,-1.43 -7.39,7.33 -6.77,7.77 z"
       id="M01645"
       style="fill:#ffff80;fill-opacity:1;stroke:#000000;stroke-width:1.1582;stroke-dasharray:none;stroke-opacity:1" />
    <path
       d="m 114,427.53 -3.2,-4.51 0.22,-7.86 1.4,-7.81 0.99,-1.96 8.25,0.76 4.95,1.83 2.21,-0.56 3.63,4.35 2.2,0.81 9.86,-6.35 0.86,1.48 3.76,2.05 0.86,1.82 2.72,1.47 1.91,-1.57 4.14,-0.39 2.4,1.32 -1.96,2.92 0.63,3.26 -1.79,0.78 -3.06,-0.23 -3,1.97 -2.22,0.13 -4.96,3.29 -3.53,3.06 -3.96,2.02 -0.31,1.4 -3.29,0.9 -1.67,2.7 -6.17,2.98 -5.13,-3.67 -1.85,-2.46 z"
       id="M01646"
       style="fill:#ffff80;fill-opacity:1;stroke:#000000;stroke-width:1.1582;stroke-dasharray:none;stroke-opacity:1" />
    <path
       d="m 108.18,507.77 0.24,3.41 -0.98,2.56 0.87,2.73 4.14,0.71 1.08,4.78 5.08,5.79 -9.33,3.11 -1.08,-3.57 -3.84,-1.8 -4.96,2.13 -4.44,-2.36 -4.97,-1.68 -0.19,-3.15 6.42,-3.04 2.71,-0.68 0.88,-6.5 -4.13,-0.56 -0.99,-1.32 2.91,-13.05 -4.53,-1.17 1.21,-1.43 1.27,-4.99 -4.37,-1.12 1.59,-3.73 -3.08,-1.35 0.9,-2.06 -3.17,-1.39 1.91,-3.79 0.9,-8.15 -1.46,-0.99 1.96,-3.05 0.08,-1.88 2.07,-1.67 4.53,-0.25 2.83,1.85 1.89,-1.93 6.7,-1.13 0.59,2.17 5.86,5.53 2.19,4.08 -6.75,0.63 0.87,9.02 -5.69,6.06 -0.16,7.62 -1.63,2.69 -1.08,5.06 1.32,4.36 z"
       id="M01643"
       style="fill:#ffff80;fill-opacity:1;stroke:#000000;stroke-width:1.1582;stroke-dasharray:none;stroke-opacity:1" />
    <path
       d="m 105.05,433.71 5.34,-1.11 3.61,-5.07 4.89,3.93 1.85,2.46 5.13,3.67 6.17,-2.98 0.65,4.24 3.24,3.73 -1.98,4.91 0.96,4.01 -2.25,2.32 1.53,2.74 0.15,3.09 -3.42,5.75 -7.63,3.04 -5.82,0.39 -2.19,-4.08 -5.86,-5.53 -0.59,-2.17 -6.7,1.13 0.59,-4.62 5.19,-1.13 1.03,-3.68 -1.97,-5.39 -2.33,-8.09 z"
       id="M01644"
       style="fill:#ffff80;fill-opacity:1;stroke:#000000;stroke-width:1.1582;stroke-dasharray:none;stroke-opacity:1" />
    <path
       d="m 148.41,496.25 -2.32,1.43 -2,-0.42 -6.27,1.03 -1.64,-4.55 -0.59,-3.67 0.93,-9.12 -2.35,-1.75 -2.25,-5.81 3.3,-3.67 -4.3,-4.32 3.42,-5.75 -0.15,-3.09 -1.53,-2.74 2.25,-2.32 -0.96,-4.01 1.98,-4.91 -3.24,-3.73 -0.65,-4.24 1.67,-2.7 3.29,-0.9 0.31,-1.4 3.96,-2.02 3.53,-3.06 4.96,-3.29 2.22,-0.13 3,-1.97 3.06,0.23 0.87,1.5 -0.83,3.83 -1.67,1.98 0.13,6.4 -5.66,6.87 -0.92,6.75 2.6,1.29 3.37,3.13 1.97,2.99 -0.58,2.96 1.9,7.96 7.66,5.6 3.87,3.59 -6.19,6.53 -2.99,2.61 z"
       id="M01649"
       style="fill:#ffff80;fill-opacity:1;stroke:#000000;stroke-width:1.1582;stroke-dasharray:none;stroke-opacity:1" />
    <path
       d="m 91.45,352.62 3.26,-1.4 4.55,2.14 2.06,-0.01 2.49,-1.78 2.82,1.86 2.15,-1 3.18,0.97 3.11,3.63 4.93,3.01 -0.92,10.42 11.2,-2.15 4.36,1.82 3.51,-3.21 5.87,2.42 2.07,2.6 2.49,0.12 2.75,-1.46 1.23,1.14 -0.69,3.95 -2,4.11 -4.08,1.19 -1.51,3.13 2.23,1.02 0.61,2.34 4.17,0.02 1.59,-2.21 2.65,-0.46 2.23,-3.58 2.76,-1.3 2.67,-4.32 -0.93,-1.44 3.1,-5.93 -1.18,-1.71 4,-3.59 1.67,1.89 3.12,0.83 7.83,-1.8 1.26,2.26 4.89,1.35 0.69,5.14 2.71,1.14 0.42,2.86 -2.65,6.3 -5.26,2.33 -4.13,4.15 -1.52,-0.49 -3.12,2.76 -1.94,3.09 -2.14,0.72 -2.18,3 -2.51,-1.11 0.17,4.97 -3.13,2.31 -1.55,5.51 0.35,2.24 -2.4,-1.32 -4.14,0.39 -1.91,1.57 -2.72,-1.47 -0.86,-1.82 -3.76,-2.05 -0.86,-1.48 -9.86,6.35 -2.2,-0.81 -3.63,-4.35 -2.21,0.56 -4.95,-1.83 -8.25,-0.76 -1.11,-0.1 1.24,-7.37 -3.78,-3.1 -8.63,-1.37 0.74,-3.02 -3.41,-3.35 -1.37,-3.69 -3.72,-0.72 -1.79,-8.96 -3.17,-3.5 2.15,-7.8 1.28,-1.02 -1.49,-5.76 z"
       id="M01647"
       style="fill:#ffff80;fill-opacity:1;stroke:#000000;stroke-width:1.1582;stroke-dasharray:none;stroke-opacity:1" />
    <path
       d="m 120,360.04 1.07,-3.64 3.81,-3.13 1.6,0.16 1.7,-3.11 0.54,-4.07 1.35,-1.79 3.33,0.64 2.62,-1.56 3.2,-0.39 1.84,-2.84 -0.8,-2.63 1.74,-0.36 2.35,2.22 2.77,0.18 2,-2.35 5.16,0.7 0.32,2.8 2.39,0.47 1.91,-1.11 2.27,5.6 3.53,2.04 1.49,4.3 6.51,5.46 1.52,-1.6 3.83,2.05 0.22,2.78 2.53,3.02 -7.83,1.8 -3.12,-0.83 -1.67,-1.89 -4,3.59 1.18,1.71 -3.1,5.93 0.93,1.44 -2.67,4.32 -2.76,1.3 -2.23,3.58 -2.65,0.46 -1.59,2.21 -4.17,-0.02 -0.61,-2.34 -2.23,-1.02 1.51,-3.13 4.08,-1.19 2,-4.11 0.69,-3.95 -1.23,-1.14 -2.75,1.46 -2.49,-0.12 -2.07,-2.6 -5.87,-2.42 -3.51,3.21 -4.36,-1.82 -11.2,2.15 z"
       id="M01648"
       style="fill:#ffff80;fill-opacity:1;stroke:#000000;stroke-width:1.1582;stroke-dasharray:none;stroke-opacity:1" />
    <path
       d="m 677,104.56 -1.41,1.9 -6.7,-0.78 -4.8,2.39 -3.44,0.74 -5.17,-3.26 -1.99,-2.63 -0.17,-3.86 -5.06,-0.42 -3.93,1.94 -4.69,5.91 -0.73,3.72 3.12,2.4 0.56,2.1 -5.28,8.7 -0.17,2.06 -5.82,6.57 -4.3,0.58 -2.48,2.29 -1.25,3.28 -2.97,0.23 -3.62,2.52 -2.74,0.99 -3.35,2.5 -3.16,4.17 -2.93,1.25 -3.59,5.68 -0.84,2.54 -2.23,1.63 -2.2,3.91 -1.8,6.46 -2.22,1.2 -3.14,3.53 -2.09,0.17 -4.63,2.09 -2.77,-0.11 -2.91,-1.43 -4.3,2.32 -5.86,6.52 -2.84,5.01 -2.74,7.91 -4.52,3.32 -4.91,-0.49 -4.52,-1.88 -1.69,-2.28 2.27,-8.31 2.58,-3.59 3.03,-0.67 1.92,-1.72 2.19,-3.88 -2.76,-4.24 0.39,-4.5 1.35,-3.89 1.7,5.87 2.25,2.89 1.77,0.51 4.35,-4.12 0.92,-3.59 -0.07,-3.44 -3.66,-2.96 3.06,-1.19 4.11,1.46 1.58,2.95 4.26,-0.79 2.73,-1.87 4.34,-5.37 1.81,-0.94 1.92,-4.64 0.74,-4.85 -1.26,-4.07 -6.3,-0.51 -3.28,-1.98 -1.58,-3.89 0.79,-3.65 3.18,-1.35 4.63,1.94 2.91,3.8 4.41,-0.95 2.13,-1.3 3.49,-11.06 7.62,-2.91 6.16,-3.93 4.5,-4.74 4.28,-5.91 4.43,-3.24 3.56,-1.29 -0.67,-4.83 1.53,-4.07 0.99,-6.65 -0.65,-2.43 3.07,-1.87 4.92,4.65 3.98,0.28 1.97,1.12 6.42,-3.43 1.03,-1.67 -0.73,-5.13 1.89,-5.8 1.79,-1.36 0.99,0.3 23.49,25.37 z"
       id="M01698"
       style="fill:#ffff80;fill-opacity:1;stroke:#000000;stroke-width:1.1582;stroke-dasharray:none;stroke-opacity:1" />
    <path
       d="m 677,104.56 0.19,-10.05 -23.49,-25.37 -0.99,-0.3 1.7,-3.6 3.87,-0.22 1.69,-2.48 2.17,0.16 3.77,-1.66 1.39,1.68 2.04,-0.62 3.42,-6.99 -1.91,-2.44 0.75,-5.54 -1.94,-4.44 -0.95,-8.24 3.52,-7.09 3.37,-4.16 2.65,-1.39 4.54,4.54 0.93,5.15 1.86,5.81 2.1,2.4 -0.7,1.4 4.28,10.42 5.07,2.05 8.43,0.46 11.62,-1.53 7.75,-1.89 6.33,-2.68 0.69,0.87 0.22,9.4 2,1.08 -5.24,0.9 -3.61,1.85 -3.93,4.13 -2.96,0.82 -5.11,4.59 -0.84,1.58 -3.14,0.39 -8.5,6.07 -4.09,4.66 -1.49,3.42 -1.74,0.31 -4.11,5.27 -3.44,5.89 -5.77,2.48 z"
       id="M01699"
       style="fill:#ffff80;fill-opacity:1;stroke:#000000;stroke-width:1.1582;stroke-dasharray:none;stroke-opacity:1" />
    <path
       d="m 70.77,445.41 -0.85,-8.77 -2.84,-1.42 4.27,-16.44 9.46,2.41 7.75,1.97 0.56,2.57 -1.76,6.39 4.78,0.77 1.09,-6.74 9.23,1.53 0.68,3.78 1.91,2.25 -0.41,1.56 2.33,8.09 1.97,5.39 -1.03,3.68 -5.19,1.13 -0.59,4.62 -1.89,1.93 -2.83,-1.85 -4.53,0.25 -5.94,-0.35 -6.53,-2.44 -2,-1.95 -1.27,-2.94 -3.29,-4.35 z"
       id="M01631"
       style="fill:#ffff80;fill-opacity:1;stroke:#000000;stroke-width:1.1582;stroke-dasharray:none;stroke-opacity:1" />
    <path
       d="m 353.04,417.59 -1.57,-5.03 -3.82,-1.57 -1.94,-2.64 -2.66,1.02 -2.6,2.64 -3.76,-8.87 2.96,0.17 -0.3,-2.23 2.85,-1.26 2.42,-2.75 -0.85,-5.08 6.28,0.08 0.51,2.31 -0.42,4.46 2.88,-0.35 3.95,1.09 3.45,2.57 4.75,-0.38 2.09,-2.82 5.89,1.95 2.65,2.77 0.91,2.89 1.99,-0.74 -2.76,-4.7 -0.52,-2.72 3.41,-4.65 4.14,-2.35 4.19,-5.02 3.04,-1.36 3.43,-4.88 5.9,1.34 2.94,0.1 4.35,-2.71 3.7,2.17 2.82,-0.3 -0.95,4.45 -5.72,4.01 -4.87,0.35 -4.94,2.95 -4.77,-0.24 -3.6,1.82 -1.65,4.56 -3.58,1.01 -1.16,2.94 -1.68,8.31 -1.63,0.41 -0.42,4.11 -3.26,2.03 -3.24,-2.42 -6.43,0.17 -5.96,0.87 z m 70.32,-49.58 1.21,2.28 3.76,-0.04 2.69,4.4 -3.75,-0.59 -2.37,0.57 z m 26.39,2.4 -1.75,4.87 -3.09,0.58 -1.8,2.3 -2.74,-1.47 3.96,-1.96 3.85,-0.82 -0.54,-1.61 z m 4.53,-17.39 3.26,2.42 4.49,1.2 -2.37,4.49 1.16,3.15 -7.9,3.71 -2.2,-4.54 -2.19,-2.1 -2.05,-3.55 1.32,-2.18 4.49,-1.19 z m 22.16,-17.72 1.93,2.13 3.03,0.15 0.58,3.57 -6.07,-0.54 -1.81,-1.43 2.06,-1.82 z"
       fill-rule="evenodd"
       id="M01223"
       style="fill:#ffff80;fill-opacity:1;stroke:#000000;stroke-width:1.1582;stroke-dasharray:none;stroke-opacity:1" />
    <path
       d="m 131.93,230.9 -1.8,1.93 -4.28,2.59 -5.14,7.53 -4.56,3.09 -2.81,4.67 0.78,5.86 -0.74,0.57 -2.43,-1.78 -1.68,0.47 -0.97,2.68 -6.87,7.41 -3.85,2.99 -3.6,-1.22 -5.75,4.32 -4,0.55 -1.68,3.7 -4.85,-1.95 1.13,-3.08 -0.68,-5.93 0.57,-3.22 2.31,-3 -2.37,-7.5 2.96,-2.46 2.21,-6.62 2.61,-2.14 -0.18,-4.16 -4.47,-2.02 -3.83,-4.59 -2,-1.2 -2.06,-3.49 2.32,-0.8 0.85,-3.94 2.36,-0.13 2.1,-2.75 6.05,-0.62 0.48,-2.51 4.41,-0.53 0.44,-2.42 3.49,-3.24 0.13,-2.98 8.04,5.03 2.04,2.16 1.06,3.89 5.79,4.89 6.79,3.96 z"
       id="M01219"
       style="fill:#ffff80;fill-opacity:1;stroke:#000000;stroke-width:1.1582;stroke-dasharray:none;stroke-opacity:1" />
    <path
       d="m 258.5,344.07 2.79,-1.5 2.64,-4.34 3.45,1.62 0.86,-1.73 10.54,-8.45 5.65,-2.88 4.01,1.19 2.24,-1.43 6.11,2.21 1.2,2.89 16.76,8.07 5.37,-2.43 2.21,2.17 -2.51,3.76 6.59,7.22 -6.17,3.12 -3.37,0.06 -3.46,1.85 3.22,3.55 -0.8,1.71 -6.67,6.12 -2.81,-0.14 -2.41,1.34 -4.17,-4.52 -1.54,1.14 -10.49,0.45 -3.75,-0.35 -2.35,-2.02 -1.31,1.12 -9.56,-10.54 -6.79,-4.06 -4.43,-1.09 z"
       id="M01692"
       style="fill:#ffff80;fill-opacity:1;stroke:#000000;stroke-width:1.1582;stroke-dasharray:none;stroke-opacity:1" />
    <path
       d="m 278.78,329.67 -1.56,-9.99 0.28,-3.46 5.22,0.76 4.04,-0.98 1.71,-2.04 0.7,-3.63 2.78,-0.24 2.62,1.94 1.07,-2.07 -0.54,-2.41 1.73,-3.48 3.52,-3.19 -0.08,-2.81 -3.47,-1.78 9.48,-4.33 4.51,1.74 4.39,4.19 5.3,1.3 4.07,-0.15 -2.16,7.29 -2.53,2.24 -0.24,3.47 1.23,6.53 3.44,5.22 4.44,8.37 0.54,2.81 2.65,2.13 11.02,4.49 0.01,0.23 -6.1,-1.56 0.26,2.58 -2.92,0.76 -0.77,3.25 -4.41,3.57 -2.6,0.02 -6.59,-7.22 2.51,-3.76 -2.21,-2.17 -5.37,2.43 -16.76,-8.07 -1.2,-2.89 -6.11,-2.21 -2.24,1.43 -4.01,-1.19 z"
       id="M01693"
       style="fill:#ffff80;fill-opacity:1;stroke:#000000;stroke-width:1.1582;stroke-dasharray:none;stroke-opacity:1" />
    <path
       d="m 343.77,391.99 0.85,5.08 -2.42,2.75 -2.85,1.26 0.3,2.23 -2.96,-0.17 -3.49,-0.14 -2.25,2.56 -3.33,1.67 -7.14,-1.5 -2.78,1.78 -1.09,2.08 -2.79,0.71 -3.48,-3.07 -4.77,-2.51 -3.87,0.65 -0.65,-2.14 -4.9,-4.25 -1.18,0.83 -4.94,-3.66 -6.83,-1.06 -5.73,-3.61 -3.28,-3.29 -3.28,-1.17 -0.75,-5.07 -3.17,-6.5 0.39,-3.05 1.34,-1.76 3.32,0.8 8.29,-7.57 1.31,-1.12 2.35,2.02 3.75,0.35 10.49,-0.45 1.54,-1.14 4.17,4.52 2.41,-1.34 2.81,0.14 6.67,-6.12 0.8,-1.71 -3.22,-3.55 3.46,-1.85 3.37,-0.06 6.17,-3.12 2.6,-0.02 4.41,-3.57 0.77,-3.25 2.92,-0.76 3.11,7.03 -0.21,1.59 2.43,4.36 2.62,16.25 1.94,6.27 2.37,5.04 3.25,4.9 -5.11,-2.07 -5.42,0.26 -0.97,3.65 z m -0.82,-50.17 -0.01,-0.23 7.09,1.89 3.19,1.43 1.25,1.1 0.99,1.64 -0.1,3.8 -2.73,1.36 -2.54,-0.26 0.34,-2.34 3.41,0.38 1.02,-1.48 0.01,-1.34 -0.73,-1.83 -3.48,-1.85 -3.07,1.48 -1.97,-3.17 z"
       fill-rule="evenodd"
       id="M01691"
       style="fill:#ffff80;fill-opacity:1;stroke:#000000;stroke-width:1.1582;stroke-dasharray:none;stroke-opacity:1" />
    <path
       d="m 68.9,289.81 -2.27,-2.44 -2.92,1.14 -3.84,-3.74 -5.99,2.88 -5.85,0.03 0.42,-2.93 -1.53,-0.77 2.87,-7.3 -1.62,-5.4 -2.89,-3.4 1.56,-1.51 -2.3,-3.67 1.24,-2.59 -1.7,-0.94 0.45,-2.99 -2.35,-3.52 v -5.43 l 4.4,-0.13 -0.55,-7.65 -0.96,-2.64 1.35,-1.77 3.9,-0.08 1.37,2.4 4.12,-0.08 4.87,-3.13 0.52,-4.4 8.77,-5.24 3.93,0.39 2.06,3.49 2,1.2 3.83,4.59 4.47,2.02 0.18,4.16 -2.61,2.14 -2.21,6.62 -2.96,2.46 2.37,7.5 -2.31,3 -0.57,3.22 0.68,5.93 -1.13,3.08 -3.7,1.35 1.48,6.16 -1.6,2.44 -3.96,3.57 z"
       id="M01560"
       style="fill:#ffff80;fill-opacity:1;stroke:#000000;stroke-width:1.1582;stroke-dasharray:none;stroke-opacity:1" />
    <path
       d="m 423.67,258.46 -2.47,4.26 -2.01,7.05 -2.82,-0.2 -2.72,3.09 -2.46,5.82 -0.23,5.34 -1.32,2.94 -1.68,-0.06 -5.49,3.19 -6,1.42 -1.77,-0.93 -2.62,1.46 -1.77,3.31 -2.5,2.66 -1.66,-0.21 -1.94,4.86 -0.76,8.17 0.33,2.77 -1.44,9.33 -0.76,9.31 -2.42,-0.07 1.95,-10.39 -2.97,-0.72 -4.43,0.34 -7.26,2.09 -1.91,-5.34 0.99,-4.92 -2.22,-7.01 -1.21,-1.27 1.03,-2.52 4.25,-1.39 2.82,-6.72 1.21,-1.62 7.61,-3.99 -0.08,-1.28 2.95,-2.1 4.19,-1.91 0.48,-2.74 7.62,-6.28 2.67,-1.35 0.18,-2.41 7.27,-3.71 1.4,-2.94 3.58,-0.42 1.27,-5.36 1.72,-2.99 4.8,-0.32 5.79,1.56 z"
       id="M01696"
       style="fill:#ffff80;fill-opacity:1;stroke:#000000;stroke-width:1.1582;stroke-dasharray:none;stroke-opacity:1" />
    <path
       d="m 96.53,204.98 -0.13,2.98 -3.49,3.24 -0.44,2.42 -4.41,0.53 -0.48,2.51 -6.05,0.62 -2.1,2.75 -2.36,0.13 -0.85,3.94 -2.32,0.8 -3.93,-0.39 -1.6,-3.43 -1.91,-1.17 -1.27,-4.49 0.95,-1.78 -0.12,-3.75 -2.67,-4.41 -3.17,1.26 -2.28,-0.63 -4.32,1.6 -1.83,-1.84 -3.87,-0.94 -3.23,-6.44 1.79,0.18 3.94,-3.71 2.79,1.95 1.99,-0.77 2.84,1.49 2.93,0.02 3.97,-3.13 2.68,1.71 0.95,-1.76 4.13,-2.17 1.89,-4.32 14.22,10.03 1.6,0.33 0.85,2.94 z"
       id="M01561"
       style="fill:#ffff80;fill-opacity:1;stroke:#000000;stroke-width:1.1582;stroke-dasharray:none;stroke-opacity:1" />
    <path
       d="m 423.67,258.46 -0.81,-2.2 -5.79,-1.56 -4.8,0.32 -1.72,2.99 -1.27,5.36 -3.58,0.42 -0.39,-7.04 1.24,-0.89 4.23,-6.88 3.76,-2.95 4.68,-6.27 0.73,-3.08 3.1,-4.94 6.24,-5.42 1.36,-0.09 5.17,-6.91 1.55,-3.05 1.21,-6.18 -0.5,-1.53 5.63,-6.52 2.61,-5.76 1.24,-4.14 5.96,-5.93 3.73,-0.66 3.07,1.17 1.87,2.4 3.43,1.62 1.69,4.68 2.03,0.63 3.44,3.03 3.7,1.03 3.11,1.96 7.49,-0.8 5.02,0.54 8.88,-1.31 4.62,-1.87 0.73,1.74 -2.1,5.72 -0.12,2.47 -4.03,2.57 -1.35,2.04 -4.65,-4.05 -3.35,0.42 -4.78,2.68 -2.8,3.7 -0.61,3.18 -7.4,6.02 -0.75,1.74 -7.42,0.88 -1.5,-0.38 -10.18,1.45 -2.18,-0.34 -2.69,1.22 -4.5,4.44 -1.47,2.56 -1.9,6.24 -7.71,2.59 -1.75,2.78 -2.6,-0.02 -4.9,5.58 z"
       id="M01697"
       style="fill:#ffff80;fill-opacity:1;stroke:#000000;stroke-width:1.1582;stroke-dasharray:none;stroke-opacity:1" />
    <path
       d="m 296.8,296.29 2.08,-1.22 3.71,-5.65 5.25,-1.02 4.78,-4.31 -1,-3.63 3.86,-6.66 2.93,-0.31 1.03,-5.01 3.71,-1.29 3.24,-2.37 0.97,-2.97 2.3,-2.78 1.32,-3.71 1.34,0.05 2.72,-4.43 4.43,-1.62 3.36,-3.05 3.42,-0.59 1.67,-5.58 -1.06,-1.13 3.08,-7.98 1.59,-1.02 0.39,-5.19 1.41,-3.85 -0.35,-2.81 1.49,-2.78 1.39,8.17 2.2,5.27 -2.38,4.04 0.11,3.19 -1.34,1.63 -1.1,3.89 -5.75,7.46 -2.37,1.81 -2.98,8.53 0.63,3.64 -2.81,5.42 -2.21,1.36 -3.36,5.15 -2.88,2.99 -3.15,5.63 -1.38,4.62 -3.12,5.82 0.58,5.04 -4.07,0.15 -5.3,-1.3 -4.39,-4.19 -4.51,-1.74 z"
       id="M01694"
       style="fill:#ffff80;fill-opacity:1;stroke:#000000;stroke-width:1.1582;stroke-dasharray:none;stroke-opacity:1" />
    <path
       d="m 541.72,294.47 2.22,0.81 5.41,6.22 3.06,1.84 -2.32,1.58 -1.1,2.77 -3.84,0.81 -2.37,-0.57 -2.08,1.47 1.05,1.73 -4.43,0.81 -1.29,1.28 -0.2,3.51 -3.39,1.59 -3.32,0.29 -1.52,2.48 -2.47,-2.28 -2.32,2.33 0.46,2.53 -1.33,1.95 -3.45,-0.54 -2.28,-1.75 -1.46,-3.48 -3.32,-3.08 1.93,-1.62 -2.83,-6.02 3.11,-3.05 2.21,0.3 4.35,-1.7 2.44,0.47 5.08,-2.04 -0.2,-1.29 3.63,-2.31 2.97,-3.09 2.47,1.19 3.65,0.43 -0.5,-3.37 z"
       id="M01695"
       style="fill:#ffff80;fill-opacity:1;stroke:#000000;stroke-width:1.1582;stroke-dasharray:none;stroke-opacity:1" />
    <path
       d="m 235.64,312.57 -2.85,10.52 -4.19,2.68 -7.32,-0.35 -2.52,-3.86 -0.89,-3.75 0.34,-2.35 -3.63,-6.04 -1.67,-4.43 -2.7,-3.65 0.82,-1.36 -7.53,-3.23 -2.29,2.71 -2.35,-1.18 -1.43,-3.5 -3.77,-0.41 1.38,-5.88 2.32,-3.05 5.6,0.34 2.19,-0.74 2.29,4.21 2.09,-0.69 -0.22,-5.18 2.78,-1.54 1.68,3.91 1.29,0.59 4.9,11.28 5.27,-0.74 -0.44,-3.6 9.58,3.98 0.56,4.64 -1.95,0.64 -0.07,3.32 z"
       id="M01564"
       style="fill:#ffff80;fill-opacity:1;stroke:#000000;stroke-width:1.1582;stroke-dasharray:none;stroke-opacity:1" />
    <path
       d="m 46.42,235.04 -1.12,-3.43 -2.63,-3.28 -2.41,-0.91 0.36,-3.66 -0.64,-6.2 -2.69,-0.47 -0.03,-1.93 2.91,-4.7 0.59,-4.86 -1.5,-2.91 4.12,-4.28 1.27,0.08 3.23,6.44 3.87,0.94 1.83,1.84 4.32,-1.6 2.28,0.63 3.17,-1.26 2.67,4.41 0.12,3.75 -0.95,1.78 1.27,4.49 1.91,1.17 1.6,3.43 -8.77,5.24 -0.52,4.4 -4.87,3.13 -4.12,0.08 -1.37,-2.4 z"
       id="M01562"
       style="fill:#ffff80;fill-opacity:1;stroke:#000000;stroke-width:1.1582;stroke-dasharray:none;stroke-opacity:1" />
    <path
       d="m 43.38,198.41 -3.69,-2.89 -3.36,-0.26 -3.7,-1.43 -2.03,1.67 -3.5,-1.03 -1.07,-3.58 -2.21,-0.12 -5.54,7.74 -8.34,0.71 1.74,-5.7 0.44,-3.55 2.11,-2.39 0.27,-2.52 1.96,-3.79 0.01,-3.06 2.08,-2.46 -0.74,-3.93 1.22,-1.23 3.81,-1.04 -0.2,-2.46 2.09,-2.31 4.7,-1.99 6.44,0.2 4.93,-5.3 1.42,-2.96 3.63,4.4 2.75,1.78 12.66,16.56 13.29,10.51 -1.89,4.32 -4.13,2.17 -0.95,1.76 -2.68,-1.71 -3.97,3.13 -2.93,-0.02 -2.84,-1.49 -1.99,0.77 -2.79,-1.95 -3.94,3.71 -1.79,-0.18 z"
       id="M01563"
       style="fill:#ffff80;fill-opacity:1;stroke:#000000;stroke-width:1.1582;stroke-dasharray:none;stroke-opacity:1" />
    <path
       d="m 83.48,325.71 -0.46,-1.61 1.44,-3.24 -1.39,-3.61 -1.88,-1.31 -2.15,1.58 -2.25,0.04 -5.5,2.79 -6.26,-1.61 -1.64,-1.85 -0.51,-3.02 0.64,-3.3 3.15,-2.55 -3.41,-3.03 1.25,-6.41 -0.14,-3.81 4.53,-4.96 1.02,-1.98 3.96,-3.57 1.6,-2.44 -1.48,-6.16 3.7,-1.35 4.85,1.95 1.68,-3.7 4,-0.55 5.75,-4.32 3.6,1.22 3.85,-2.99 6.87,-7.41 0.97,-2.68 1.68,-0.47 2.43,1.78 10.24,4.38 0.57,-2.21 3.19,-0.02 2.17,-1.21 3.82,0.08 1.56,1.54 -1.15,2.4 -0.14,6.28 -1.56,2.16 0.51,4.66 2.87,1.54 0.2,3.41 -1.93,0.97 1.79,3 -0.41,4.18 0.35,4.58 -2.18,2.99 -0.53,3.68 0.87,2.18 -5.45,1.77 -1.94,3.62 -3.16,0.84 -4.46,-0.58 -2.44,2.39 -7.18,1.4 -3.11,2.98 -5.48,2.47 -2.25,-0.7 -2.42,2.9 -2.39,1.39 0.3,4.98 -3.38,2.27 z"
       id="M01555"
       style="fill:#ffff80;fill-opacity:1;stroke:#000000;stroke-width:1.1582;stroke-dasharray:none;stroke-opacity:1" />
    <path
       d="m 154.84,253.85 -0.45,10.16 -3.16,7.51 -6.16,1.46 -3.29,3.05 -3.64,-0.34 -2.68,1.05 -2.87,-1.54 -0.51,-4.66 1.56,-2.16 0.14,-6.28 1.15,-2.4 -1.56,-1.54 -3.82,-0.08 -2.17,1.21 -3.19,0.02 -0.57,2.21 -10.24,-4.38 0.74,-0.57 -0.78,-5.86 2.81,-4.67 4.56,-3.09 5.14,-7.53 4.28,-2.59 1.8,-1.93 16.55,7.73 10.65,4.1 -0.02,0.64 -5.68,-1.07 -1.41,-1.26 -6.26,0.6 2.03,3.72 2.64,2.2 1.75,6.28 z"
       id="M01559"
       style="fill:#ffff80;fill-opacity:1;stroke:#000000;stroke-width:1.1582;stroke-dasharray:none;stroke-opacity:1" />
    <path
       d="m 336.69,403.14 3.76,8.87 2.6,-2.64 2.66,-1.02 1.94,2.64 3.82,1.57 1.57,5.03 -3.65,0.13 -6.05,2.37 -2.93,2.9 -2.95,1.02 -4.07,-2.45 -2.94,0.96 -2.94,2.1 -1.55,4.96 0.72,3.29 -3.6,3.44 -0.12,3.3 -3.24,0.86 -3.76,2.01 -0.69,4.72 -3.61,1.16 0.04,-2.71 -2.18,-5.21 -0.66,-4.22 2.31,-2.35 -0.89,-4.26 2.92,-3.59 -4.99,-3.31 -5.45,-4.47 2.71,-3.38 -1.33,-1.09 2.14,-2.65 -3.33,-2.71 -1.25,-3.04 3.87,-0.65 4.77,2.51 3.48,3.07 2.79,-0.71 1.09,-2.08 2.78,-1.78 7.14,1.5 3.33,-1.67 2.25,-2.56 z"
       id="M01663"
       style="fill:#ffff80;fill-opacity:1;stroke:#000000;stroke-width:1.1582;stroke-dasharray:none;stroke-opacity:1" />
    <path
       d="m 259.55,348.18 4.43,1.09 6.79,4.06 9.56,10.54 -8.29,7.57 -3.32,-0.8 -1.34,1.76 -0.39,3.05 3.17,6.5 0.75,5.07 0.2,5.49 4.05,5.4 4.47,2.43 1.41,2.11 1.16,5.25 -0.52,2.94 5.77,3.01 1.85,4.22 -4.81,-2.38 -3.26,-0.46 -2.61,1.95 0.1,1.95 -5.19,2.88 -3.8,-0.3 0.93,5.12 1.46,2.78 -2.37,0.51 -3.54,7.33 -4.89,1.63 -2.85,4.12 -2.54,-1.47 1.06,-1.6 -1.8,-8.04 -2.46,-4.03 -3.39,-0.71 -4.07,0.11 -7.82,1.35 0.72,-1.49 3.49,-1.97 1.9,-4.26 -2.42,-4.95 1.89,-4.12 -2.09,-5.21 -3.01,-1.89 -4.1,-4.55 -0.79,-8.6 -4.5,-6.23 -4.04,-0.78 -0.85,-1.08 1.64,-3.29 -2.1,-5.5 -4.07,-2.8 -2.28,-2.48 2.76,2 4.92,1.23 3.49,1.66 3.08,-0.38 2.97,5.27 2.86,0.83 4.06,-2.65 1.2,-2.98 8.47,3.13 2.35,3.15 0.64,-3.58 3.44,-2.03 0.37,-5.03 2.09,-2.24 -0.56,-6.29 2.56,-0.14 -2.67,-5.49 -2.42,-3.74 z"
       id="M01664"
       style="fill:#ffff80;fill-opacity:1;stroke:#000000;stroke-width:1.1582;stroke-dasharray:none;stroke-opacity:1" />
    <path
       d="m 237.45,428.61 7.82,-1.35 4.07,-0.11 3.39,0.71 2.46,4.03 1.8,8.04 -1.06,1.6 2.54,1.47 0.8,1.06 -0.62,4.33 1.29,1.83 8.12,1.08 8.65,-2.43 1.78,-1.76 -1.06,3.84 7.46,7.59 -6.65,0.01 -6.69,-0.82 -5.68,-2.11 -6.85,0.13 -2.92,0.64 -2.78,-0.76 -5.44,2.01 -0.64,-3.99 -8.05,-6.64 -2.34,-1.24 2.79,-2.46 0.35,-2.27 -0.96,-4.25 -1.99,-1.93 z"
       id="M01661"
       style="fill:#ffff80;fill-opacity:1;stroke:#000000;stroke-width:1.1582;stroke-dasharray:none;stroke-opacity:1" />
    <path
       d="m 270.91,387.02 3.28,1.17 3.28,3.29 5.73,3.61 6.83,1.06 4.94,3.66 1.18,-0.83 4.9,4.25 0.65,2.14 1.25,3.04 3.33,2.71 -2.14,2.65 1.33,1.09 -2.71,3.38 5.45,4.47 4.99,3.31 -2.92,3.59 0.89,4.26 -2.31,2.35 0.66,4.22 2.18,5.21 -0.04,2.71 -2.74,2.08 -5.91,-1.41 -5.66,0.89 -5.35,-6.75 -0.29,-1.67 1.98,-1.97 1.58,2.74 4.04,2.09 2.29,-1.83 2,0.4 1.55,-3.06 -3.08,-3.49 -8.17,-1.98 -0.62,3.15 -5.75,-0.34 -3.2,1.34 -3.89,4.65 -1.95,3.91 -1.78,1.76 -8.65,2.43 -8.12,-1.08 -1.29,-1.83 0.62,-4.33 -0.8,-1.06 2.85,-4.12 4.89,-1.63 3.54,-7.33 2.37,-0.51 -1.46,-2.78 -0.93,-5.12 3.8,0.3 5.19,-2.88 -0.1,-1.95 2.61,-1.95 3.26,0.46 4.81,2.38 -1.85,-4.22 -5.77,-3.01 0.52,-2.94 -1.16,-5.25 -1.41,-2.11 -4.47,-2.43 -4.05,-5.4 z"
       id="M01662"
       style="fill:#ffff80;fill-opacity:1;stroke:#000000;stroke-width:1.1582;stroke-dasharray:none;stroke-opacity:1" />
    <path
       d="m 232.54,282.57 3.6,3.26 4.16,0.88 1.01,2.19 -0.76,4.98 -4.4,6.58 -1.21,5.95 1.16,3.08 -0.46,3.08 -2.73,-6.71 0.07,-3.32 1.95,-0.64 -0.56,-4.64 -9.58,-3.98 0.44,3.6 -5.27,0.74 -4.9,-11.28 -1.29,-0.59 -1.68,-3.91 0.01,-5.27 2.97,-2.18 -4.14,-0.78 -2.49,1.54 -2.7,6.11 -2.23,1.7 -0.55,2.82 -5.6,-0.34 -2.32,3.05 -2.85,0.73 -2.24,-8.03 3.21,-1.67 0.74,-2.79 -0.96,-3.58 -1.91,-0.94 2.28,-4.17 -0.47,-3.82 4.62,-6.44 0.62,-1.96 4.33,-1.07 7.03,1.81 -0.64,1.19 -7.46,1.45 -1.55,9.44 0.06,2.84 3.58,1.33 2.56,-0.77 3.73,-2.9 1.56,-2.85 0.55,-3.1 -0.7,-6.48 3.22,0.42 4.04,-1.27 0.89,4.22 -0.64,4.18 0.35,3.79 4.26,3.71 -0.26,2.43 1.67,3.92 z"
       id="M01211"
       style="fill:#ffff80;fill-opacity:1;stroke:#000000;stroke-width:1.1582;stroke-dasharray:none;stroke-opacity:1" />
    <path
       d="m 170.75,474.22 -3.87,-3.59 -7.66,-5.6 -1.9,-7.96 0.58,-2.96 -1.97,-2.99 -3.37,-3.13 -2.6,-1.29 0.92,-6.75 5.66,-6.87 -0.13,-6.4 7.02,0.3 1.16,3.41 2.85,1.62 6.05,0.52 1.57,2.72 3.03,3.13 -1.7,1.91 0.54,2.74 -2.49,2.43 0.49,2.61 3.76,4.71 2.13,-0.22 3.11,2.59 3.76,5.7 -9.51,6.91 z m 16.2,-106.73 2.69,0.67 5.7,-2.39 1.51,-2.76 -0.82,-1.83 1.35,-2.31 4.87,0.52 2.67,-3.32 2.67,1.01 2.15,2.51 1.19,-1.93 3.95,0.15 2.29,2.56 -1.47,6.93 1.14,2.11 0.07,3.04 -3.13,2.91 -2.05,3.28 -2.04,1.52 -0.63,2.53 -2.03,1.56 -1.78,7.63 -1.95,0.48 0.13,3.23 2.15,1.78 1.73,3.71 4.72,3.51 2.39,5.32 1.99,5.85 2.4,4.05 -0.3,2.96 3.32,8.27 1.38,2.05 4.06,1.08 0.76,-1.39 9.01,2.08 1.99,1.93 0.96,4.25 -0.35,2.27 -2.79,2.46 2.34,1.24 8.05,6.64 0.64,3.99 -4.43,-0.74 -9.48,-4.05 -0.36,-3.11 -1.49,-1.65 -2.41,0.24 -8.29,-1.7 -5.72,1.13 -1.86,-1.59 1.18,-3.73 -7.03,-2.38 -1.39,-3.01 -1.92,0.84 -5.42,-1.26 -2.19,-5.93 -0.07,-3.53 -4.86,-2.74 -1.09,-1.65 0.4,-3.24 -2.4,-2.47 -2.59,-0.71 -1.33,-8.03 -2.53,-3.14 -0.41,-2.83 1.04,-3.51 2.12,-1.4 0.78,-2.7 2,-0.22 1.55,-3.22 1.37,-5.7 -2.93,-2.68 2.65,-6.3 -0.42,-2.86 -2.71,-1.14 z m 13.23,-1.22 -2.92,2.86 1.35,3.56 4.52,-0.08 -1.8,-3.27 1.54,-3 z"
       fill-rule="evenodd"
       id="M01206"
       style="fill:#ffff80;fill-opacity:1;stroke:#000000;stroke-width:1.1582;stroke-dasharray:none;stroke-opacity:1" />
    <path
       d="m 228.6,325.77 0.03,0.29 -3.37,2.31 -3.18,1.04 -2.56,5.53 -4.01,4.25 -1.17,5.18 -3.72,-1.4 -2.42,-3.13 -3.78,-0.24 -2.15,-3.86 1.01,-6.25 -3.78,-6.14 -0.37,-3.07 -1.65,-2.62 -3.41,-2.49 -5.52,6.55 -1.73,-0.27 -6.89,1.4 -3.68,-1.77 0.74,-2.15 2.76,-1.68 -0.2,-1.92 4.12,-0.41 0.08,-2.31 2.54,-3.58 2.42,-6.02 -0.15,-2.24 1.7,-2.48 3.98,-2.63 -0.58,-1.29 3.77,0.41 1.43,3.5 2.35,1.18 2.29,-2.71 7.53,3.23 -0.82,1.36 2.7,3.65 1.67,4.43 3.63,6.04 -0.34,2.35 0.89,3.75 2.52,3.86 z"
       id="M01543"
       style="fill:#ffff80;fill-opacity:1;stroke:#000000;stroke-width:1.1582;stroke-dasharray:none;stroke-opacity:1" />
    <path
       d="m 32.46,501.19 -1,-1.18 -0.05,-5.3 -2.69,0.11 -2.37,-2.86 -2.85,-0.17 -0.69,-1.85 1.36,-2.99 2.76,-1.39 3.05,0.85 2.85,-0.89 1.68,2.06 4.21,-0.23 2.98,1.52 7.5,1.02 -0.09,1.73 3.07,2.65 1.81,0.43 6.84,-8.28 2.13,-1.67 6.48,-3.4 1.88,-1.67 5.68,-7.82 3.43,-6.23 -4.28,-0.45 -0.56,-5.84 0.72,-2.31 1.99,-1.68 2.11,0.37 6.53,2.44 5.94,0.35 -2.07,1.67 -0.08,1.88 -1.96,3.05 1.46,0.99 -0.9,8.15 -1.91,3.79 3.17,1.39 -0.9,2.06 3.08,1.35 -1.59,3.73 4.37,1.12 -1.27,4.99 -1.21,1.43 -1.05,4.04 -4.06,-1.03 -2.08,1.42 0.74,-4.26 -4.79,-1.37 -2.37,1.97 -2.55,-1.53 -2.66,1.42 -3.19,3.36 1.19,1.43 -3.34,5.67 -3.02,3.89 -2.47,0.29 -2.54,1.72 -3.64,1.09 -5.34,-1.33 -2.32,2.04 -5.17,-4.45 0.51,-5.7 -0.75,-3.5 -3.72,1.38 -4.4,-1.18 z"
       id="M01207"
       style="fill:#ffff80;fill-opacity:1;stroke:#000000;stroke-width:1.1582;stroke-dasharray:none;stroke-opacity:1" />
    <path
       d="m 79.81,345.03 -0.75,-2.2 2.41,-3.6 2.2,-1.53 -1.51,-3.84 -2.7,-3.09 2.7,-4.95 1.32,-0.11 6.78,1.75 3.38,-2.27 -0.3,-4.98 2.39,-1.39 2.42,-2.9 2.25,0.7 5.48,-2.47 3.11,-2.98 7.18,-1.4 2.44,-2.39 4.46,0.58 3.16,-0.84 1.94,-3.62 5.45,-1.77 -0.87,-2.18 0.53,-3.68 2.18,-2.99 -0.35,-4.58 0.41,-4.18 1.98,-0.17 1.6,2.46 2.68,-1.44 1.74,3.68 2.28,2.1 3.85,5.77 2.41,-0.56 0.98,-3.8 3.77,-3.4 -1.02,-1.94 -0.39,-4.28 3.11,0.56 2.75,-5.39 2.41,-0.66 6.31,1.85 1.83,-0.76 4.77,-4.99 1.56,-0.39 1.29,-3.21 1.72,-0.97 -0.75,-4.13 2.53,-4.33 -2.01,-1.04 2.47,-5.62 -0.94,-2.97 13.12,2.76 3.96,-0.32 2.88,1.82 -4.33,1.07 -0.62,1.96 -4.62,6.44 0.47,3.82 -2.28,4.17 1.91,0.94 0.96,3.58 -0.74,2.79 -3.21,1.67 2.24,8.03 2.85,-0.73 -1.38,5.88 0.58,1.29 -3.98,2.63 -1.7,2.48 0.15,2.24 -2.42,6.02 -2.54,3.58 -0.08,2.31 -4.12,0.41 0.2,1.92 -2.76,1.68 -0.74,2.15 -1.88,5.02 -5.14,-0.79 -4.67,4.61 -0.42,1.85 -3.33,-4.79 1.69,-4.87 -0.9,-9.71 -12.24,1.1 -1.96,1.32 -2.9,-1.04 -4.27,3.15 -4.83,-0.77 -5.07,3.66 -2.12,0.67 -0.9,4.39 -3.77,2.24 -4.07,-0.08 -2.87,0.94 -1.97,5.14 -2.32,-0.37 -1.53,1.88 -4.76,2.94 -8.78,-2.29 -3.35,1.96 -2.9,-0.19 -5.48,2.93 -0.1,2.85 -1.78,2.25 z m 80.79,-101.33 15.56,5 -1.28,0.69 z"
       fill-rule="evenodd"
       id="M01208"
       style="fill:#ffff80;fill-opacity:1;stroke:#000000;stroke-width:1.1582;stroke-dasharray:none;stroke-opacity:1" />
    <path
       d="m 733.37,59.29 -2,-1.08 -0.22,-9.4 -0.69,-0.87 1.13,-2.75 6.39,-3.71 5.24,-4.57 1.95,-4.17 2.46,-1.71 -1.2,-2.46 1.98,-3.65 3.25,-2.07 1.06,-2.71 4.54,-1.9 2.66,-5.61 3.58,-0.34 4.04,-3.11 V 6.72 l 1.58,-2.64 7.31,-0.75 6.91,-2.33 5.68,0.34 5.73,2.19 4.13,4.04 0.12,5.51 -2.01,2.2 -5.34,2.7 -0.4,5.54 2.97,1.59 2.8,3.95 0.1,1.69 -2.37,3.62 -1.77,5.47 -5.35,0.32 -2.87,2.18 -4.6,-2.65 -14.77,1.18 -3.33,2.24 -2.7,0.32 -7.02,6.46 -1.53,0.24 -0.53,3.17 -7.35,1.33 -5.07,3.79 z"
       id="M01700"
       style="fill:#ffff80;fill-opacity:1;stroke:#000000;stroke-width:1.1582;stroke-dasharray:none;stroke-opacity:1" />
    <path
       d="m 216.84,369.41 2.28,2.48 4.07,2.8 2.1,5.5 -1.64,3.29 0.85,1.08 4.04,0.78 4.5,6.23 0.79,8.6 4.1,4.55 3.01,1.89 2.09,5.21 -1.89,4.12 2.42,4.95 -1.9,4.26 -3.49,1.97 -0.72,1.49 -0.41,6.25 -9.01,-2.08 -0.76,1.39 -4.06,-1.08 -1.38,-2.05 -3.32,-8.27 0.3,-2.96 -2.4,-4.05 -1.99,-5.85 -2.39,-5.32 -4.72,-3.51 -1.73,-3.71 -2.15,-1.78 -0.13,-3.23 1.95,-0.48 1.78,-7.63 2.03,-1.56 0.63,-2.53 2.04,-1.52 2.05,-3.28 3.13,-2.91 z"
       id="M01667"
       style="fill:#ffff80;fill-opacity:1;stroke:#000000;stroke-width:1.1582;stroke-dasharray:none;stroke-opacity:1" />
    <path
       d="m 158.04,419.37 1.79,-0.78 -0.63,-3.26 1.96,-2.92 -0.35,-2.24 1.55,-5.51 3.13,-2.31 -0.17,-4.97 2.51,1.11 2.18,-3 2.14,-0.72 1.94,-3.09 3.12,-2.76 1.52,0.49 4.13,-4.15 5.26,-2.33 2.93,2.68 -1.37,5.7 -1.55,3.22 -2,0.22 -0.78,2.7 -2.12,1.4 -1.04,3.51 0.41,2.83 2.53,3.14 1.33,8.03 2.59,0.71 2.4,2.47 -0.4,3.24 1.09,1.65 4.86,2.74 0.07,3.53 2.19,5.93 5.42,1.26 1.92,-0.84 1.39,3.01 7.03,2.38 -1.18,3.73 1.86,1.59 -5.9,1.61 -4.63,1.92 -6.94,4.12 -1.09,-0.15 -5.19,2.7 -4.26,2.89 -3.76,-5.7 -3.11,-2.59 -2.13,0.22 -3.76,-4.71 -0.49,-2.61 2.49,-2.43 -0.54,-2.74 1.7,-1.91 -3.03,-3.13 -1.57,-2.72 -6.05,-0.52 -2.85,-1.62 -1.16,-3.41 -7.02,-0.3 1.67,-1.98 0.83,-3.83 z"
       id="M01668"
       style="fill:#ffff80;fill-opacity:1;stroke:#000000;stroke-width:1.1582;stroke-dasharray:none;stroke-opacity:1" />
    <path
       d="m 247.37,330.69 0.57,3.1 3.31,0.95 0.73,4.22 1.45,3.2 2.27,-0.2 2.8,2.11 1.05,4.11 -3.1,3.95 2.42,3.74 2.67,5.49 -2.56,0.14 0.56,6.29 -2.09,2.24 -0.37,5.03 -3.44,2.03 -0.64,3.58 -2.35,-3.15 -8.47,-3.13 -1.2,2.98 -4.06,2.65 -2.86,-0.83 -2.97,-5.27 -3.08,0.38 -3.49,-1.66 -4.92,-1.23 -2.76,-2 -1.14,-2.11 1.47,-6.93 -2.29,-2.56 1.43,-2.11 -0.12,-3.84 -1.85,-7.49 1.17,-5.18 4.01,-4.25 2.56,-5.53 3.18,-1.04 3.37,-2.31 4.71,1.04 2.65,1.91 4.77,-1.6 3.55,0.82 z m 8.84,12.32 -3.35,0.88 -1.97,2.31 0.16,5.64 2.94,0.03 1,-3.16 3.7,-2.98 z m -33.8,-8.51 -2.88,8.39 2.22,4.04 5.53,1.9 1.98,2.45 1.65,-3.87 -0.22,-3.36 1.52,-1.98 -0.07,-2.84 2.85,-3.46 3.62,0.18 0.03,-3.59 -6.73,-1.09 -5.22,0.74 -0.91,1.52 z m 2.59,2.19 2.49,2.18 -1.94,2.15 -2.69,-3.05 z"
       fill-rule="evenodd"
       id="M01665"
       style="fill:#ffff80;fill-opacity:1;stroke:#000000;stroke-width:1.1582;stroke-dasharray:none;stroke-opacity:1" />
  </g>
</svg>
