<?xml version="1.0" encoding="UTF-8" standalone="no"?>
<svg
   version="1.2"
   width="596.2702"
   height="600"
   viewBox="0 0 596.2702 600"
   stroke-linecap="round"
   stroke-linejoin="round"
   id="svg7755"
   sodipodi:docname="eh.svg"
   inkscape:version="1.2 (dc2aedaf03, 2022-05-15)"
   xmlns:inkscape="http://www.inkscape.org/namespaces/inkscape"
   xmlns:sodipodi="http://sodipodi.sourceforge.net/DTD/sodipodi-0.dtd"
   xmlns="http://www.w3.org/2000/svg"
   xmlns:svg="http://www.w3.org/2000/svg">
  <defs
     id="defs7759" />
  <sodipodi:namedview
     id="namedview7757"
     pagecolor="#505050"
     bordercolor="#eeeeee"
     borderopacity="1"
     inkscape:showpageshadow="0"
     inkscape:pageopacity="0"
     inkscape:pagecheckerboard="0"
     inkscape:deskcolor="#505050"
     showgrid="false"
     inkscape:zoom="1.0012422"
     inkscape:cx="297.63027"
     inkscape:cy="299.62779"
     inkscape:window-width="1920"
     inkscape:window-height="1009"
     inkscape:window-x="-8"
     inkscape:window-y="-8"
     inkscape:window-maximized="1"
     inkscape:current-layer="svg7755" />
  <g
     id="eh"
     transform="matrix(0.74595268,0,0,0.74595268,-0.24598804,-0.24596111)"
     style="fill:#ffff80;fill-opacity:1;stroke:#000000;stroke-width:1.34057;stroke-dasharray:none;stroke-opacity:1">
    <path
       d="m 546,32.06 3.79,2.73 -2.33,4.2 -7.32,0.54 0.81,-6.12 z m -5.48,-19.43 6.16,11.04 v 3.1 l -6.28,5.35 -5.85,1.01 -3.08,1.88 -1.43,-8.92 0.8,-5.01 5.12,-7.44 z m 19.75,13.36 0.98,6.32 -2.17,0.85 0.16,5.53 -4.23,1.5 -0.38,-5.34 1.17,-5.09 z m 16.96,-20.27 3.57,8.39 -4.73,6.1 -3.08,0.48 -5.74,4.81 2.62,7.79 -3.06,2.72 -3.38,-0.43 -0.24,-5.28 1.96,-5.18 -2.14,-0.87 -0.4,-5.31 5.4,-4.69 3.17,-4.21 z m -27.35,3.61 6.54,9.37 0.09,6.19 -3.67,1.57 -2.7,-1.29 -0.59,-6.92 -2.68,-6.41 z m 65.82,58.85 1.55,1.73 7.2,0.94 0.09,3.21 -5.18,1.19 z m -17.79,-9.3 1.86,8.98 -5.16,-1.04 0.17,-6.46 z"
       fill-rule="evenodd"
       id="M38356"
       style="fill:#ffff80;fill-opacity:1;stroke:#000000;stroke-width:1.34057;stroke-dasharray:none;stroke-opacity:1" />
    <path
       d="m 542.98,318.26 1.61,10.71 -10.24,9.2 2.28,6.36 -9.22,3.63 -2.92,5.6 1.09,8.37 -2.38,7.99 -4.72,2.01 -7.62,-0.67 -7.53,4.14 -3.73,16.13 5.93,7.96 -4.63,4.34 -6,2.75 -3.93,6.55 -1.17,5.59 7.44,7.91 -0.98,4.23 1.13,5 -1.65,3.83 -10.16,7.06 0.14,4.07 -1.91,4.3 -3.87,3.81 -2.62,5.21 -3.49,3.17 0.94,5.54 -13.65,4.6 h -3.84 l -9.19,3.79 -3.82,-0.16 -3.56,-3.08 -7.29,1.94 -6.6,0.53 -6.97,-1.55 -2.25,-3.26 2.4,-5.9 -2.4,-6.58 2.06,-3.34 0.1,-6.23 4.45,-1.91 5.59,-9.15 -2.06,-4.46 2.14,-7.87 2.26,-3.04 -5.33,-4.41 -2.05,-4.69 -2.68,0.29 -3.75,-6.23 -7.84,-2.68 -6.62,1.5 -5.23,-3.24 -4.67,-0.13 -1.11,-7.39 2.45,-0.6 3.64,-7.52 -2.76,-6.35 -6.85,-4.64 -2.93,-2.46 2.29,-4.9 -1.74,-1.2 1.66,-6.52 -4.88,-2.3 -1.63,-5.5 4.84,-3.94 8.02,-0.8 3.69,-8.82 6.95,-7.61 1.99,-6.12 1.4,3.1 7.37,1.69 1.13,-2.48 8.59,-1.48 9.05,-3.82 9.83,-0.32 0.01,-4.4 6.41,-3.3 6.64,4.2 5.87,-8.4 -0.07,-2.72 6.29,1.76 7.18,-1.69 1.66,-2.24 3.63,-0.29 11.58,4.34 5.19,-0.08 3.14,-1.64 4.02,1.36 5.78,-1.18 3.25,-2.15 1.07,-4.11 3.06,-1.97 3.79,3.68 3.35,-0.4 4.76,1.8 z"
       id="M38386"
       style="fill:#ffff80;fill-opacity:1;stroke:#000000;stroke-width:1.34057;stroke-dasharray:none;stroke-opacity:1" />
    <path
       d="m 303.51,715.65 6.49,6.36 3.22,4.52 0.34,4.91 -1.51,4 0.72,6.47 4.64,7.82 -2.55,2.01 4.85,11.55 -3.85,5.96 0.5,7.73 -3,3.77 -8.42,0.27 -3.92,1.9 1.82,3.91 -0.7,3.71 -3.61,-1.32 -7.86,2.36 -15.24,6.47 -6.21,-12.51 0.55,-2.42 -7.35,-4.19 -9.82,-0.54 -1.55,1.28 0.77,6.9 -4.69,-1.95 -0.99,-6.24 -12.06,-1.72 -3.97,4.05 5.14,0.88 0.5,5.33 -9.06,7.24 3.7,2.72 7.36,-2.89 2.65,3.46 -5.07,5.96 -7.67,-1.3 -4.8,1.89 -6.14,-1.4 -1.4,-10.69 -2.27,-9.39 6.17,0.96 4.35,-1.02 4.36,-4.88 1.42,-4.29 -6.19,-1.92 -3.33,-2.83 -1.96,-4.21 3.78,-0.94 0.75,-4.14 3.57,-2.88 2.46,3.55 -0.59,8.21 7.45,-0.76 0.61,3.16 10.01,-1.88 6.2,4.18 1.71,-1.94 -7.95,-4.76 -2.28,-2.87 -3.59,1.15 -1.91,-2.62 -4.7,-0.31 -0.87,-3.64 -4.22,-6.09 2.61,-6.36 -4.8,-4.09 -5.3,0.83 -0.32,-7.8 -1.35,-2.06 2.12,-8.13 -2.61,-4.16 -2.7,1.73 -4.22,-1.89 -2.83,2.01 -8.19,-1.07 -5.18,-1.65 -6.75,-4.04 -5.03,1.81 1.06,5.14 -2.7,6.43 0.31,3.16 -5.33,5.22 -7.2,-1.67 7.06,0.12 2.93,-3.59 3.19,-8.72 -1.33,-6.87 3.21,-2.22 5.85,0.16 5.63,4.41 3.18,-0.93 5.21,1.29 8.91,-2.27 5.3,1.41 6.07,4.9 6.09,3.12 6,-1.42 6.87,3.35 5.54,-4.39 8.71,1.87 6.33,-1.6 10.16,-6.79 10.07,2.13 8.91,-7.12 6.84,3.72 z"
       id="M38506"
       style="fill:#ffff80;fill-opacity:1;stroke:#000000;stroke-width:1.34057;stroke-dasharray:none;stroke-opacity:1" />
    <path
       d="m 365.5,595.62 -3.41,-4.19 -3.69,-1.56 -5.43,8.77 -5.27,1.61 -3.44,-1.45 -4.01,4.32 -3.02,5.96 -4.32,-1.57 -2.69,2.46 -2.41,-2.43 -13.86,4.08 0.06,5.7 -5.46,3.97 -4.57,4.82 -10.65,0.81 -0.84,2.71 -4.31,2.79 -6.41,-0.19 1.25,-9.42 -1.07,-9.44 -5.21,-9.06 3.06,-5.48 5.35,-1.77 0.45,-7.83 7.69,0.25 0.62,1.38 7.82,0.32 2.76,-4.91 2.98,1.64 3.58,-1.8 -3.31,-10.6 0.76,-11.99 -5.35,-5.29 2.61,-9.52 7.62,-0.63 12.01,1.19 5.09,1.75 2.87,-3.36 3.4,3.58 3.54,0.88 11.65,-1.99 7.11,-2.51 3.33,-2.92 1.88,5.33 3.08,1.75 5.92,0.25 8.63,-7.99 1.98,-9.12 7.04,-2.64 6.14,-6.07 1.66,3.23 1.68,8.1 11.38,3.5 3.04,2.77 4.93,7.89 1.39,7.79 -2.08,3.26 -0.21,5.58 -6.51,4.35 -5.98,1.25 -7.07,6.72 -15.95,6.27 -3.27,-0.92 -8.16,4.77 -3.54,0.38 z"
       id="M38488"
       style="fill:#ffff80;fill-opacity:1;stroke:#000000;stroke-width:1.34057;stroke-dasharray:none;stroke-opacity:1" />
    <path
       d="m 303.98,626.11 4.57,-4.82 5.46,-3.97 -0.06,-5.7 13.86,-4.08 2.41,2.43 2.69,-2.46 4.32,1.57 3.02,-5.96 4.01,-4.32 3.44,1.45 5.27,-1.61 5.43,-8.77 3.69,1.56 3.41,4.19 0.09,2.55 -4.6,6.32 -0.06,3.09 -2.72,2.9 1.43,4.04 -1.8,4.4 2.3,10.24 -3.83,2.93 -4.08,0.9 -5.24,-1.02 -3.76,1.26 -1.06,3.12 1.67,3.48 -1.95,4.34 -5.76,7.94 -2.99,0.85 -1.14,3.95 -3.17,3.84 -5.72,3.86 -1.33,5.04 -4.28,1.56 -6.38,-8.64 -5.36,-2.54 -1.3,-3.2 -6.21,-6.77 -3.81,-1 -2.06,-2.96 1.27,-3.42 9.55,-5.7 5.54,-5.76 z"
       id="M38484"
       style="fill:#ffff80;fill-opacity:1;stroke:#000000;stroke-width:1.34057;stroke-dasharray:none;stroke-opacity:1" />
    <path
       d="m 542.98,318.26 -11.4,-7.88 -4.76,-1.8 -3.35,0.4 -3.79,-3.68 -3.06,1.97 -1.07,4.11 -3.25,2.15 -5.78,1.18 -4.02,-1.36 -3.14,1.64 -5.19,0.08 -11.58,-4.34 -3.63,0.29 -2.9,-3.05 -0.56,-6.55 3.1,-2.05 -2.8,-9.15 -2.14,-2.68 -0.05,-5.33 -5.7,-2.19 -7.16,2.75 -3.16,-8.03 -3.01,-2.4 -0.21,-4.78 -2.38,-4.68 3.21,-5.02 -2.86,-7.88 -3.19,-1.61 -2.43,-7.37 1.79,-6.1 -0.22,-4.41 5.04,-1.44 2.41,-3.4 -0.31,-14.05 1.84,-3.02 -0.09,-4.44 5.89,-4.96 8.06,1.27 4.77,-3.95 7.71,0.63 3.6,-9.86 5.11,-2.22 6.97,-0.71 0.64,4.23 2.86,4.55 5.34,5.75 0.56,5.27 3.69,-0.01 3.48,4.44 3.14,-4.09 5.54,3.86 0.35,2.49 6.18,5.43 3.38,-0.32 19.33,-8.08 -1.03,-3.28 3.67,-1.07 1.32,2.98 21.78,-4.48 0.89,2.98 -1.02,5.28 3.2,-0.33 3.24,11.06 -3.65,5.11 5.41,9.44 -0.32,2.8 2.33,4.36 -0.68,2.66 -3.75,1.39 3.53,6.08 6.42,2.97 2.89,6.24 2.19,9.79 -3.89,3.05 -4.05,8.37 0.81,3.61 -2.53,6.31 -9.7,6.41 -2.54,-0.71 -5.63,2.04 -7.73,-8.24 -5.25,0.55 -1.09,5.85 -3.87,6.99 0.65,1.92 -6.14,6.1 -3,0.68 z"
       id="M38206"
       style="fill:#ffff80;fill-opacity:1;stroke:#000000;stroke-width:1.34057;stroke-dasharray:none;stroke-opacity:1" />
    <path
       d="m 600.2,271.84 -2.19,-9.79 -2.89,-6.24 -6.42,-2.97 -3.53,-6.08 3.75,-1.39 0.68,-2.66 -2.33,-4.36 0.32,-2.8 -5.41,-9.44 3.65,-5.11 -3.24,-11.06 -3.2,0.33 1.02,-5.28 -0.89,-2.98 7.15,-4.97 -0.28,-8.23 3.45,-3.34 3.89,6.25 6.23,-6.25 4.26,0.26 11.59,-2.2 5.05,-5.86 6.06,2.05 6.19,0.12 4.92,6.51 7.02,-0.9 8.51,-2.93 -2.26,8.26 -2.1,0.76 -1.97,5.99 -2.14,2.59 -2.13,10.62 1.23,8.93 -2.11,11.22 -6.76,7.36 1.29,4.64 4.3,2.51 4.64,0.88 9.32,-2.35 3.64,-4.6 11.35,-0.56 3.36,-1.7 7.37,2.13 0.63,5.4 2.52,5.46 -2.27,1.49 3.51,10 0.28,6.83 -3.32,1.65 -7.46,-0.5 -3.64,-2.5 -6.15,0.07 -5.37,1.68 -4.38,6.79 -10.85,-2.82 -6.33,-2.89 -4.88,5.49 -5.89,2.03 -3.34,3.77 -7.68,-0.65 -7.91,-7.38 -4.56,-1.78 z m 43.19,-101.97 0.63,7.9 -8.77,-1.38 0.13,-3.14 z"
       fill-rule="evenodd"
       id="M38205"
       style="fill:#ffff80;fill-opacity:1;stroke:#000000;stroke-width:1.34057;stroke-dasharray:none;stroke-opacity:1" />
    <path
       d="m 153.38,530.57 6.52,1.28 -0.25,3.49 -4.15,-0.22 z m 75.71,-39.82 -6.7,4.31 -2.65,9.54 -3.34,4.71 3.33,5.28 -4.13,0.54 -10.79,3.71 -2.13,-3.86 -4.91,-1.13 -2.74,1.02 -3.65,-5.51 -6.12,5.2 -0.64,5.53 -5.43,6.43 -9.18,1.65 0.27,-1.72 8.2,-5.35 -3.34,-4.18 2.1,-5.04 -3.68,-3.78 4.42,-5.48 2.27,2.11 3.9,-6.3 0.2,-7.97 4.23,-3.04 -7.34,-2.09 -7,0.07 1.29,-5.13 4.61,1.56 0.95,-3.13 -5.57,-3.38 -3.6,1.48 -2.51,7.21 -2.69,-4.57 2.47,-4.25 -0.05,-7.98 -3.52,-4.37 -1.33,-4.92 -4.51,-4.96 2.09,0.03 7.85,-5.89 6.09,-1.76 2.09,-3.99 8.2,-4.77 2.78,-0.13 3.39,-3.97 1.93,0.36 -0.6,6.33 4.42,3.53 4.42,-1.09 4.02,2.55 5.17,-2.12 2.07,5.16 4.3,1.4 -0.26,10.21 -5.56,2.15 -2.45,7.75 3.66,3.77 1.9,-1.04 6.79,1.28 -0.54,3.16 5.87,4.66 -1.26,3.45 z"
       fill-rule="evenodd"
       id="M38204"
       style="fill:#ffff80;fill-opacity:1;stroke:#000000;stroke-width:1.34057;stroke-dasharray:none;stroke-opacity:1" />
    <path
       d="m 114.99,642.83 6.27,7.57 6.1,-2.67 1.58,3.63 -12.9,0.73 -1.47,-2.91 z m 53.2,-21.16 3.68,5.64 -10.44,5.41 3.59,-6.59 4.12,-2 z m 135.32,93.98 -2.89,0.07 -6.84,-3.72 -8.91,7.12 -10.07,-2.13 -10.16,6.79 -6.33,1.6 -8.71,-1.87 -5.54,4.39 -6.87,-3.35 -6,1.42 -6.09,-3.12 -6.07,-4.9 -5.3,-1.41 -8.91,2.27 -5.21,-1.29 -3.18,0.93 -5.63,-4.41 -5.85,-0.16 -3.21,2.22 1.33,6.87 -3.19,8.72 -2.93,3.59 -7.06,-0.12 8.39,-3.12 4.22,-10.87 -3.71,-5.65 3.91,-2.01 0.27,-5 3.67,-1.57 -0.33,5.25 5.76,-2.39 1.58,6.03 4.46,1.06 3.07,-1.31 6.03,0.19 2.66,-3.32 8.38,3.48 3.44,-6.21 -2.62,-5.18 -5.25,-4.04 -0.92,-3.51 5.49,-3.38 -4.3,-2.13 2.02,-4.39 -3.46,-1.83 -0.3,-4.29 6.49,-1.09 1.36,-2.87 3.74,2.56 4,-3.98 0.23,-5.67 -8.69,-0.74 -4.15,1.56 -2.98,-3.13 -7.37,5.37 -4.7,-3.51 0.44,-6.14 -8.49,-3.8 4.19,-1.78 1.21,-6.43 2.69,0.98 3.89,-2.22 3.11,1.96 3.51,-1.13 -3.09,-4.96 -5.05,-3.21 0.39,-4.14 -4.4,-0.8 -3.63,-5.61 -5.27,-3.05 -2.63,2.53 -5.29,-0.77 0.6,3.16 4.93,5.39 -3.75,0.55 -3.02,2.73 -2.58,-1.43 1.48,-4.49 -1.66,-6.44 7.88,-0.13 5.26,-2.55 6.62,2.94 6.99,1.98 2.96,3.14 0.45,7.17 5.73,4.53 4.42,-3.54 1.95,0.99 -3.04,6.34 4.59,3.06 4.78,-3.91 6.24,-2.69 0.42,-5.46 -3.38,-9.82 3.98,-6.03 7.34,-0.38 5.49,-5 6.03,-1.77 -0.59,-4.67 -5.38,-0.69 -3.88,-6.02 -3.63,0.32 0.07,-4.48 8.44,-3.29 -2.93,-3.65 -13.46,3.08 -1.39,-4.79 -4.8,-1.75 -2.31,0.99 -2.87,-3.16 0.07,-8.45 3.03,-2.84 10.99,-5.6 5.65,0.11 1.13,-4.92 -6.9,-3.5 -6.63,4.04 v -0.05 0 l 1.58,-8.26 2.69,-4.86 6,-1.68 7.65,5.42 8.64,2.26 7.55,-1.13 3.12,-1.83 3.24,1.38 8.79,0.24 4.05,-2.89 8.84,0.4 7.52,2.16 6.3,-2.9 5.35,5.29 -0.76,11.99 3.31,10.6 -3.58,1.8 -2.98,-1.64 -2.76,4.91 -7.82,-0.32 -0.62,-1.38 -7.69,-0.25 -0.45,7.83 -5.35,1.77 -3.06,5.48 5.21,9.06 1.07,9.44 -1.25,9.42 6.41,0.19 4.31,-2.79 0.84,-2.71 10.65,-0.81 4.76,5.11 -5.54,5.76 -9.55,5.7 -8.44,2.22 0.02,4.24 -2.22,2.39 8.35,11.46 -1.95,8.28 4.43,1.35 4.38,9.61 3.48,2.95 4.61,0.81 2.77,9.48 -1.26,6.8 1.35,5.31 z m -66.25,-104.75 3.32,1.05 3.9,6.18 -0.23,1.84 -5.48,1.75 -5.41,-3.46 0.16,-2.56 z"
       fill-rule="evenodd"
       id="M38203"
       style="fill:#ffff80;fill-opacity:1;stroke:#000000;stroke-width:1.34057;stroke-dasharray:none;stroke-opacity:1" />
    <path
       d="m 406.79,60.45 4.22,3.47 5.66,0.33 -0.98,3.88 -3.55,-0.58 -2.52,4.53 -7.38,-7.68 z m 24.21,-2.88 2.35,3.88 0.44,7.33 -3.82,-0.83 -1.25,-8.44 z m 68.29,126.77 -6.97,0.71 -5.11,2.22 -3.6,9.86 -7.71,-0.63 -4.77,3.95 -8.06,-1.27 -5.89,4.96 0.09,4.44 -1.84,3.02 0.31,14.05 -2.41,3.4 -5.04,1.44 -4.85,-3.1 -4.03,0.69 -2.21,2.85 -5.42,-2.09 0.58,-4.87 -1.15,-9.27 -3.88,-4.02 -13.89,-8.01 -1.08,-5.89 2.3,-15.75 -4.39,-4.42 -7.33,0.91 -3.47,-0.69 -7.76,-5.21 -3.71,3.54 -5.62,-2.67 -2.24,-4.94 -4.42,-3.96 7.56,-4.67 2.99,-3.95 3.29,0.01 1.38,-3.8 4.64,-3.48 2.61,0.07 0.95,-5.01 13.58,-2.27 6.26,-4.64 8.39,1.79 2.79,-6.36 0.24,-4.82 3.61,-3.15 0.58,-3.43 -2.49,-8.74 -11.08,-2.22 6.26,-4.24 3.6,2.63 2.2,-4.22 3.37,-1.24 1.79,-7.08 3.49,-0.11 3.24,8.13 5.85,2.94 1.85,5.32 3.9,-3.94 3.51,10.85 3.43,3.84 1.69,5.4 5.46,9.08 2.84,-0.77 4.83,2.69 1.19,7.29 5.74,6.86 7.03,17.97 z m -32.86,-101.66 2.71,2.71 -3.42,2.35 -3.09,-2.5 z M 472.95,1 l 8.52,4.02 2.85,4.52 0.41,4.7 5.74,10.35 4.36,0.45 -2.63,10.68 0.29,7.29 2.95,3.79 -4.03,3.77 -8.45,3.27 -5.85,-1.53 -9.47,1.05 -3.66,4.31 -5.05,1.08 -6.24,3.61 -5.07,0.94 -3.51,-3.16 -2.25,-6.84 3.05,-6.74 5.67,-3.48 8.19,1.68 4.13,-0.46 2.27,-12.81 -3,-3.18 1.67,-2.7 -2.75,-3.54 -7.3,3.13 -3.18,-3.56 2.66,-3.61 6.83,0.38 0.82,-2.96 -2.74,-6.86 2.56,-2.59 4.37,1.18 z m 12.33,60.54 8.26,1.98 6.69,0.02 3.43,3.19 0.2,5.36 3.43,4.36 7.51,-3.22 5.31,1.4 -1.03,3.85 -3.09,3.94 -7.02,1.06 -3.71,6.95 -5.14,4.89 -3.48,1.35 -3.51,6.62 -3.9,1.47 -1.35,4.21 -3.66,3.15 -10.72,-1.79 4.24,-5.63 -1.88,-3.69 0.52,-7.09 -1.72,-1.5 4.36,-4.26 7.36,-2.42 0.21,-3.69 -3.02,-7.02 -3.55,-0.4 -2.65,-3.25 3.24,-4.11 1.28,-4.67 z m 24.44,0.24 2.43,4.05 -5.22,1.25 z m 9.17,-27.05 1.62,4.43 -1.04,6.61 4.58,3.44 4.54,0.07 1.74,2.19 -5.57,3.58 2.8,4.12 -0.94,3.02 -8.91,-0.28 -1.84,-4.72 -2.82,-0.98 -5.83,6.22 -2.68,-1.11 -3.58,-7.67 -4.93,1.37 -2.76,-3.33 5.68,-2.69 -3.16,-5.65 1.1,-3.52 3.55,-1.86 4.7,3.41 7.03,-4.71 3.88,1.56 z"
       fill-rule="evenodd"
       id="M38202"
       style="fill:#ffff80;fill-opacity:1;stroke:#000000;stroke-width:1.34057;stroke-dasharray:none;stroke-opacity:1" />
    <path
       d="m 252.03,210.06 -6.91,6.48 -4.26,0.34 -0.43,-4.54 5.82,0.46 z m -17.7,-30 4.67,0.38 -1.34,3.88 -3.42,0.74 0.11,3.37 -3.69,0.87 -4.53,-3.03 3.63,-5.13 z m 24.07,-2 -3.22,4.67 -0.52,3.99 -5.52,5.69 -1.39,4.45 -3.66,-4.55 3.39,-2.94 -3.11,-7.29 5.03,-3.05 2.94,1.12 4.09,-3.21 z m 39.51,-14.22 2.85,2.83 -5.32,5.87 -0.09,5.68 1.99,6.71 -6.43,2.66 1.47,3.66 3.03,0.14 0.43,8.01 -4.16,1.59 -4.06,-2.24 -3.64,0.04 -5.72,4.02 -2.05,4.57 -4.92,-5.5 -1.86,-5.89 0.37,-4.22 8.37,-8.2 2.63,-5.38 5.9,0.07 5.1,-5.83 5.72,-4.06 z m 21.78,52.93 1.75,5.12 -2.18,2.48 1.45,4.47 -9.37,2.66 -0.7,4.67 4.49,7.49 -1.34,2.45 -7.99,0.92 3.07,-12.85 -3.55,-4.04 -0.77,-4.06 6.66,0.62 3.22,-2.55 -0.47,-4.27 3.96,-0.21 z m -13.27,-26.75 3.37,1.61 1.12,6.94 -4.44,1.15 -3.44,3 -3.43,-3.76 1.33,-5.83 z m 12.55,-2.47 3.72,6.57 -5.48,0.14 z m 88.63,143.57 -1.99,6.12 -6.95,7.61 -3.69,8.82 -8.02,0.8 -3.84,-4.22 0.26,-5.12 -1.47,-2.43 2.01,-4.4 -3.48,-5.54 -0.42,-4.29 -5.13,-5.48 -0.84,-6.47 -2.97,-1.36 -2.02,-5.3 2.18,-12.17 -4.34,-0.27 -9.29,-5.28 -5.14,-3.58 -5.16,-2.05 -10.34,0.1 -3.87,-1.73 -6.59,1.59 -9.54,0.3 3.45,-6.85 -0.42,-7.42 -2.28,-2.5 6.02,-6.9 -1.79,-3.41 6.81,-1.2 1.02,-2.72 -2.38,-9.02 -3.64,-1.29 0.31,-5.33 2,-1.81 2.85,-10.15 10.18,2.22 7.3,-1.64 3.83,-3.25 0.69,-7.23 5.58,-14.11 1.58,-9.48 -0.9,-6.59 2.04,-5.97 -1.62,-5.82 3.14,-4.06 4.25,-3.1 7,-0.85 3.74,-4.7 4.42,3.96 2.24,4.94 5.62,2.67 3.71,-3.54 7.76,5.21 3.47,0.69 7.33,-0.91 4.39,4.42 -2.3,15.75 1.08,5.89 13.89,8.01 3.88,4.02 1.15,9.27 -0.58,4.87 -2.24,4.68 -6.99,4.75 -2.53,-0.48 -7.61,5.03 -2.32,3.58 -2.08,6.56 4.09,9.42 -4.5,7.7 -4.18,11.86 -0.6,3.95 -11.43,5.64 -4.2,0.31 -3.67,4.11 v 2.24 l 7.5,1.49 -1.93,2.32 7.94,12.75 3.86,4.24 2.09,5.62 z"
       fill-rule="evenodd"
       id="M38201"
       style="fill:#ffff80;fill-opacity:1;stroke:#000000;stroke-width:1.34057;stroke-dasharray:none;stroke-opacity:1" />
    <path
       d="m 159.78,452.96 4.51,4.96 1.33,4.92 3.52,4.37 0.05,7.98 -2.47,4.25 -3.77,-5.8 -5.48,-2.32 -1.41,6.52 -6.14,-1.43 -6.03,1.18 -0.46,4.21 -2.86,5 -2.78,-3.02 -2.42,-6.36 -3.23,-0.79 -2.23,5.61 -3.15,0.37 -0.5,3.87 -2.55,2.04 -0.76,3.93 -5.57,0.53 -6.51,2.79 -8.72,9.09 -8.04,0.33 -8.34,5.74 -9.2,1.32 -8.32,8.89 -6.29,4.7 -0.48,7.46 -3.51,0.11 -9.36,5.86 -10.51,2.02 0.26,-6.59 6.56,0.41 -2.66,-3.81 4,-1.08 -0.8,-5.54 -11.87,2.01 -4.69,4.1 -7.54,2.13 -4.96,4.67 -3.11,4.48 -5.23,4.65 -7.06,4.57 2.04,-7.03 3.36,-2.58 7.57,-8.37 12.73,-7.34 2.35,-5.44 11.25,-5.95 2.01,-3.77 5.71,-2.94 5.81,7.86 1.04,-8.35 4.43,2.9 2.73,5.1 5.68,-2.24 2.14,-4.41 -2.4,-2.97 -6.4,-3.81 2.41,-4.13 6.37,6.14 3.36,-0.54 -2.29,-9.72 5.24,-2.02 5.44,3.69 0.12,-5.14 2.49,-2.93 5.42,6.13 3.36,-1.23 3.2,1.74 0.54,-8.39 3.46,-1.69 8.55,2.67 4.25,4.3 2.43,-3.73 0.13,-6.96 3.66,-5.14 3.28,1.46 7.55,-7.09 5.63,-0.02 0.43,-3.03 4.9,-0.31 7.68,-6.21 8.85,-3.61 z"
       id="M38442"
       style="fill:#ffff80;fill-opacity:1;stroke:#000000;stroke-width:1.34057;stroke-dasharray:none;stroke-opacity:1" />
    <path
       d="m 478.96,311.02 -1.66,2.24 -7.18,1.69 -6.29,-1.76 0.07,2.72 -5.87,8.4 -6.64,-4.2 -6.41,3.3 -0.01,4.4 -9.83,0.32 -9.05,3.82 -8.59,1.48 -1.13,2.48 -7.37,-1.69 -1.4,-3.1 -4.62,-6.51 -2.09,-5.62 -3.86,-4.24 -7.94,-12.75 1.93,-2.32 -7.5,-1.49 v -2.24 l 3.67,-4.11 4.2,-0.31 11.43,-5.64 0.6,-3.95 4.18,-11.86 4.5,-7.7 -4.09,-9.42 2.08,-6.56 2.32,-3.58 7.61,-5.03 2.53,0.48 6.99,-4.75 2.24,-4.68 5.42,2.09 2.21,-2.85 4.03,-0.69 4.85,3.1 0.22,4.41 -1.79,6.1 2.43,7.37 3.19,1.61 2.86,7.88 -3.21,5.02 2.38,4.68 0.21,4.78 3.01,2.4 3.16,8.03 7.16,-2.75 5.7,2.19 0.05,5.33 2.14,2.68 2.8,9.15 -3.1,2.05 0.56,6.55 z"
       id="M38215"
       style="fill:#ffff80;fill-opacity:1;stroke:#000000;stroke-width:1.34057;stroke-dasharray:none;stroke-opacity:1" />
    <path
       d="m 417.6,463.38 2.4,6.58 -2.4,5.9 2.25,3.26 -7.92,-1.53 -1.47,1.18 -7.91,-0.79 -8.14,-3.93 -3.4,2.56 -8.36,1.02 -1.93,3.67 -3.77,0.28 -1.95,3.03 0.55,3.97 8.82,4.73 0.58,4.18 -2.1,4.86 0.73,3.96 4.36,1.6 -1.15,6.48 1.83,4.7 2.69,1.58 6.44,-0.24 -0.7,5.78 -6.14,6.07 -7.04,2.64 -1.98,9.12 -8.63,7.99 -5.92,-0.25 -3.08,-1.75 -1.88,-5.33 -3.33,2.92 -7.11,2.51 -11.65,1.99 -3.54,-0.88 -3.4,-3.58 -2.87,3.36 -5.09,-1.75 -12.01,-1.19 -7.62,0.63 -2.61,9.52 -6.3,2.9 -7.52,-2.16 -8.84,-0.4 -4.05,2.89 -8.79,-0.24 -3.24,-1.38 -3.12,1.83 -7.55,1.13 -8.64,-2.26 -7.65,-5.42 -6,1.68 -2.69,4.86 -1.58,8.26 -1.2,-5.78 -9.38,2.22 -4.35,-0.31 -2.17,4.62 -5.06,0.92 -5.48,-1.29 -5.17,-4.56 -2.32,3.32 -0.85,5.27 -10.78,-2.88 -0.78,-4.16 -7.89,-2.67 -5.69,1.47 2.79,-10.61 7.51,-1.49 3.88,-4.22 5.47,0.46 -1.17,-3.96 4.86,-0.62 -1.64,-4.38 -2.72,-1.22 2.28,-10.23 -11.93,9.58 -0.49,-3.85 -3.3,-6.69 -1.59,-0.69 9.18,-1.65 5.43,-6.43 0.64,-5.53 6.12,-5.2 3.65,5.51 2.74,-1.02 4.91,1.13 2.13,3.86 10.79,-3.71 4.13,-0.54 -3.33,-5.28 3.34,-4.71 2.65,-9.54 6.7,-4.31 6.38,-1.34 6.31,1.33 0.7,2.76 4.49,3.83 6.54,0.99 9.59,-9.65 8.12,10.94 4.98,-2.27 4.74,1.52 2.38,-2.12 8.28,-0.07 10.26,8.99 9.59,2.41 3.32,-4.16 4.24,4.07 3.77,-1.1 3.4,1.27 3.14,-3.95 1.41,-5.78 -0.68,-7.87 1.32,-2.99 6.25,0.34 2.19,4.44 6.22,-3.7 2.38,-8.25 0.4,-6.3 6.25,-5.6 4.41,2.33 7.33,-1.87 2.64,-4.17 3.74,-1.43 1.1,-3.58 4.45,-1.45 2.7,3.7 3.77,-2.21 2.31,-4.77 0.33,-3.95 2.71,-1.53 3.32,5.64 9.31,4.67 -0.08,1.95 z"
       id="M38214"
       style="fill:#ffff80;fill-opacity:1;stroke:#000000;stroke-width:1.34057;stroke-dasharray:none;stroke-opacity:1" />
    <path
       d="m 685.26,268.38 -0.28,-6.83 -3.51,-10 2.27,-1.49 -2.52,-5.46 -0.63,-5.4 -7.37,-2.13 -3.36,1.7 -11.35,0.56 -3.64,4.6 -9.32,2.35 -4.64,-0.88 -4.3,-2.51 -1.29,-4.64 6.76,-7.36 2.11,-11.22 -1.23,-8.93 2.13,-10.62 2.14,-2.59 1.97,-5.99 2.1,-0.76 2.26,-8.26 2.15,-2.67 4.01,1.14 4.28,-1.21 1.8,2.69 7.48,-0.51 11.24,1.53 6.28,5.52 9.09,1.25 2.37,1.82 12.24,-3.59 7.93,-6.63 6.82,-1.19 2.43,-3.78 -5.19,-4.48 5.04,-5.58 6.65,-0.09 2.94,-3.81 3.95,-2.4 3,-6.11 2.13,0.58 3.6,-5.72 2.88,4.33 4.37,2.07 6.5,-3.15 6.02,6.84 7.92,-1.82 4.52,1.14 5.76,6.53 3.96,7.01 -4.43,6.44 3.66,9.3 -1.82,3.55 5.76,4.49 -2.5,4.11 2.6,6.54 -7.7,6.37 -0.38,3.79 4.76,0.38 1.11,5.45 -4.97,3.87 -1.46,3.67 1.64,5.82 -7.67,4.21 -0.56,2.29 -7.99,-0.7 -4.22,1.63 -3.8,4.71 -7.77,-5.03 -7.12,0.54 -1.59,2.57 -7.07,4.19 -5.95,-4 -4.11,-4.11 -3.45,0.1 -6.7,6.06 0.15,3.1 -4.71,2.3 -0.02,4.87 -3.95,3.64 -4.03,-0.53 -0.84,7.14 -4.04,3.82 -3.65,-1.81 -13.2,-1.23 z"
       id="M38213"
       style="fill:#ffff80;fill-opacity:1;stroke:#000000;stroke-width:1.34057;stroke-dasharray:none;stroke-opacity:1" />
    <path
       d="m 345.61,388.78 -3.91,2.22 -4.37,-0.62 -2.96,6.73 -5.95,2.72 -16.01,-7.22 -4.19,0.46 -3.06,2.32 -4.88,-4 1.45,-3.18 0.28,-5.86 -1.28,-7.61 -6.15,-1.5 -3.53,2.77 -4.32,-0.32 -6.41,7.14 -3.36,6.68 0.44,1.99 -6.34,-0.23 -4.21,-1.7 -2.65,4.92 -7.23,9.07 -3.1,-2.17 -0.17,-5.14 -7.59,-8.07 -3.13,-5.13 20.33,-7.6 5.86,-1.55 11.3,-8.83 4,-4.66 4.13,-1.37 6.29,-6.17 3.26,-1.17 6.17,-6.53 1.84,-5.91 5.33,-9.51 2.67,-8.89 6.2,-3.75 3.42,-5 -0.74,-8.86 2.63,-0.25 2.82,3.77 2.88,-4.38 14.18,0.02 -0.03,-2.88 7.61,-1.82 4.53,-2.61 1.71,1.2 -1.01,6.11 -4.71,3.94 -0.33,4.08 -2.27,1.81 -7.29,1.88 2.4,5.25 -4.96,6.72 3.46,1.96 0.6,4.67 4.14,-0.26 6.88,13.26 4.13,1.81 1.53,4.05 -2.69,3.91 1.1,3.85 -1.52,5.55 -3.62,4.85 -1.49,8.76 -3.05,-0.05 z"
       id="M38210"
       style="fill:#ffff80;fill-opacity:1;stroke:#000000;stroke-width:1.34057;stroke-dasharray:none;stroke-opacity:1" />
    <path
       d="m 229.09,490.75 -2.94,-6.76 1.26,-3.45 -5.87,-4.66 0.54,-3.16 -6.79,-1.28 -1.9,1.04 -3.66,-3.77 2.45,-7.75 5.56,-2.15 0.26,-10.21 -4.3,-1.4 -2.07,-5.16 -5.17,2.12 -4.02,-2.55 -4.42,1.09 -4.42,-3.53 0.6,-6.33 -1.93,-0.36 4,-4.6 -0.07,-5.12 4.15,-2.86 3.02,-5.48 3.57,-3.12 0.47,-3.78 8.47,-6.89 1.83,-5.59 5.57,-0.42 8.59,-7.36 3.67,0.76 7.44,-4.97 3.13,5.13 7.59,8.07 0.17,5.14 3.1,2.17 7.23,-9.07 2.65,-4.92 4.21,1.7 6.34,0.23 5.14,5.68 1.61,9.05 2.87,1.93 1.04,4.85 3.11,5.11 -3.66,2.87 4.06,2.46 0.82,6.3 2.26,2.02 -0.4,6.47 -3.3,4.84 -0.33,7.57 6.15,3.19 -0.29,4.51 2.29,2.55 3.53,-1.96 3.26,1.72 3.15,6.44 4.3,-5.47 4.56,-3.78 8.21,-1.5 4.78,0.14 7.06,-6.28 3.66,-0.09 4.8,-5.2 7.58,-1.6 1.97,-3.92 4.84,-0.3 3.65,5.83 7.95,-3.73 1.72,-4.16 5.33,-0.98 2,-2.41 6.71,10.08 2.72,5.83 -2.71,1.53 -0.33,3.95 -2.31,4.77 -3.77,2.21 -2.7,-3.7 -4.45,1.45 -1.1,3.58 -3.74,1.43 -2.64,4.17 -7.33,1.87 -4.41,-2.33 -6.25,5.6 -0.4,6.3 -2.38,8.25 -6.22,3.7 -2.19,-4.44 -6.25,-0.34 -1.32,2.99 0.68,7.87 -1.41,5.78 -3.14,3.95 -3.4,-1.27 -3.77,1.1 -4.24,-4.07 -3.32,4.16 -9.59,-2.41 -10.26,-8.99 -8.28,0.07 -2.38,2.12 -4.74,-1.52 -4.98,2.27 -8.12,-10.94 -9.59,9.65 -6.54,-0.99 -4.49,-3.83 -0.7,-2.76 -6.31,-1.33 z"
       id="M38207"
       style="fill:#ffff80;fill-opacity:1;stroke:#000000;stroke-width:1.34057;stroke-dasharray:none;stroke-opacity:1" />
    <path
       d="m 386.95,354.47 -4.84,3.94 1.63,5.5 4.88,2.3 -1.66,6.52 1.74,1.2 -2.29,4.9 2.93,2.46 -0.59,3.2 -5.31,3.17 -5.66,0.73 -7.84,5.54 -3.47,-0.95 -5.18,4.55 -5.77,2.99 -3.32,-7.72 -4.49,-3.97 -2.1,-0.05 5.06,-10.33 3.05,0.05 1.49,-8.76 3.62,-4.85 1.52,-5.55 -1.1,-3.85 2.69,-3.91 -1.53,-4.05 -4.13,-1.81 -6.88,-13.26 -4.14,0.26 -0.6,-4.67 -3.46,-1.96 4.96,-6.72 -2.4,-5.25 7.29,-1.88 2.27,-1.81 0.33,-4.08 4.71,-3.94 1.01,-6.11 -1.71,-1.2 -0.06,-2.96 9.29,5.28 4.34,0.27 -2.18,12.17 2.02,5.3 2.97,1.36 0.84,6.47 5.13,5.48 0.42,4.29 3.48,5.54 -2.01,4.4 1.47,2.43 -0.26,5.12 z"
       id="M38402"
       style="fill:#ffff80;fill-opacity:1;stroke:#000000;stroke-width:1.34057;stroke-dasharray:none;stroke-opacity:1" />
    <path
       d="m 316.96,286.77 9.54,-0.3 6.59,-1.59 3.87,1.73 10.34,-0.1 5.16,2.05 5.14,3.58 0.06,2.96 -4.53,2.61 -7.61,1.82 0.03,2.88 -14.18,-0.02 -2.88,4.38 -2.82,-3.77 -2.63,0.25 -2.88,-10.63 z"
       id="M38401"
       style="fill:#ffff80;fill-opacity:1;stroke:#000000;stroke-width:1.34057;stroke-dasharray:none;stroke-opacity:1" />
    <path
       d="m 389.34,381.29 6.85,4.64 2.76,6.35 -3.64,7.52 -2.45,0.6 1.11,7.39 4.67,0.13 5.23,3.24 6.62,-1.5 7.84,2.68 3.75,6.23 2.68,-0.29 2.05,4.69 5.33,4.41 -2.26,3.04 -2.14,7.87 2.06,4.46 -5.59,9.15 -4.45,1.91 -0.1,6.23 -2.06,3.34 -14.5,-1.56 0.08,-1.95 -9.31,-4.67 -3.32,-5.64 -2.72,-5.83 -6.71,-10.08 -2,2.41 -5.33,0.98 -1.72,4.16 -7.95,3.73 -3.65,-5.83 -4.84,0.3 -1.97,3.92 -7.58,1.6 -4.8,5.2 -3.66,0.09 -7.06,6.28 -4.78,-0.14 -8.21,1.5 -4.56,3.78 -4.3,5.47 -3.15,-6.44 -3.26,-1.72 -3.53,1.96 -2.29,-2.55 0.29,-4.51 -6.15,-3.19 0.33,-7.57 3.3,-4.84 0.4,-6.47 -2.26,-2.02 -0.82,-6.3 -4.06,-2.46 3.66,-2.87 -3.11,-5.11 -1.04,-4.85 -2.87,-1.93 -1.61,-9.05 -5.14,-5.68 -0.44,-1.99 3.36,-6.68 6.41,-7.14 4.32,0.32 3.53,-2.77 6.15,1.5 1.28,7.61 -0.28,5.86 -1.45,3.18 4.88,4 3.06,-2.32 4.19,-0.46 16.01,7.22 5.95,-2.72 2.96,-6.73 4.37,0.62 3.91,-2.22 2.1,0.05 4.49,3.97 3.32,7.72 5.77,-2.99 5.18,-4.55 3.47,0.95 7.84,-5.54 5.66,-0.73 5.31,-3.17 z"
       id="M38422"
       style="fill:#ffff80;fill-opacity:1;stroke:#000000;stroke-width:1.34057;stroke-dasharray:none;stroke-opacity:1" />
  </g>
</svg>
