<?xml version="1.0" encoding="UTF-8" standalone="no"?>
<svg
   version="1.2"
   width="690"
   height="600"
   viewBox="0 0 690 600"
   stroke-linecap="round"
   stroke-linejoin="round"
   id="svg1151"
   sodipodi:docname="fi.svg"
   inkscape:version="1.2 (dc2aedaf03, 2022-05-15)"
   xmlns:inkscape="http://www.inkscape.org/namespaces/inkscape"
   xmlns:sodipodi="http://sodipodi.sourceforge.net/DTD/sodipodi-0.dtd"
   xmlns="http://www.w3.org/2000/svg"
   xmlns:svg="http://www.w3.org/2000/svg">
  <defs
     id="defs1155" />
  <sodipodi:namedview
     id="namedview1153"
     pagecolor="#505050"
     bordercolor="#eeeeee"
     borderopacity="1"
     inkscape:showpageshadow="0"
     inkscape:pageopacity="0"
     inkscape:pagecheckerboard="0"
     inkscape:deskcolor="#505050"
     showgrid="false"
     inkscape:zoom="1.1905465"
     inkscape:cx="345.2196"
     inkscape:cy="292.30273"
     inkscape:window-width="1920"
     inkscape:window-height="1009"
     inkscape:window-x="-8"
     inkscape:window-y="-8"
     inkscape:window-maximized="1"
     inkscape:current-layer="svg1151" />
  <g
     id="fi"
     transform="matrix(0.86340852,0,0,0.86340852,-0.36340861,7.7362177)"
     style="fill:#ffff80;fill-opacity:1;stroke:#000000;stroke-width:1.1582;stroke-dasharray:none;stroke-opacity:1">
    <path
       d="m 545.27,120.36 -0.84,6.27 3.24,1.83 4.17,10.29 -9.17,8.35 12.24,4.65 11.32,3.36 5.14,0.63 0.77,4.24 -3.93,10.9 1.7,2.87 -2,4.91 -3.7,2.52 -7.1,-1.92 -3.38,-2.47 -9.97,-1.37 -3.39,0.56 -9.77,9.66 -9.56,-2.16 -5.87,-11.72 -6.77,3.32 -4.94,0.41 -3.24,4.54 -10.08,-3.38 -6.25,-7.1 -1.1,-9.01 -1.68,-3.85 6.22,-3.38 -2.96,-2.8 -4.13,-7.34 0.32,-7.55 -6.18,-0.35 6.58,-6.73 2.27,-4.34 7.72,5.73 -1.4,3.03 5.8,2.53 9.62,0.72 0.88,-2.82 6.6,-4.08 4.45,0.82 6.8,-4 2.78,-7.55 6.61,-1.88 2.36,2.96 5.18,-0.71 z"
       id="M18322"
       style="fill:#ffff80;fill-opacity:1;stroke:#000000;stroke-width:1.1582;stroke-dasharray:none;stroke-opacity:1" />
    <path
       d="m 253.87,495.75 -3.98,-2.73 -4.23,9.86 -2.7,-2.67 -2.57,3.16 4.38,6.44 0.22,4.18 -2.85,1.16 2.53,5.6 6.61,2.99 3.86,-2.66 4.45,1.01 2.4,-3.28 -3.46,-4.77 3.13,-2.49 -1.12,-4.67 -4.01,-2.65 -2.56,-8.46 8.02,-3.73 1.95,1.84 1.88,4.38 -0.53,3.47 4.15,2.89 3.29,4.33 6.35,-0.24 4.95,3.98 1.4,8.61 2.05,4.96 -0.74,2.72 4.47,7.1 0.95,10.5 -4.19,4.16 -4.26,-0.05 -0.94,6.66 -2.77,6.28 -1.95,7.33 -4.36,4.36 -0.34,6.87 -3.28,3.93 0.76,2.71 -1.01,7.54 -1.8,5.27 0.98,11.75 -6.61,1.89 -5.61,6.79 0.32,6.46 -1.72,5.35 -5.93,1.82 -2.73,2.27 -6.37,2.11 -5.88,-4.5 0.74,-5.85 -1.44,-1.77 2.4,-4.13 1.09,-10.58 -5.85,-7.11 -4.7,0.7 -6.77,-5.05 -5.51,-1.75 -2.5,-4.25 0.19,-3.54 -3.2,-2.97 1.03,-6.78 -5.79,-3.06 -2.83,-6.86 5.35,-0.81 3.33,1.27 6.65,6.57 12.29,-5.06 -1.39,-6.19 1.73,-4.51 -2.26,-7.81 -5.43,-6.74 10.13,-10.53 1.01,-2.62 -4.14,-5.79 -12.67,-7.45 -4.06,-8.48 3.48,-1.48 3.82,3.7 0.06,3.2 6.79,0.61 1.8,-5.59 3.11,0.11 0.12,-4.72 5.17,-3.04 -2.22,-15.1 -4.24,1.21 -1.81,-4.38 -5.08,1.95 -4.26,-3.39 7.01,-7.62 -9.15,-5.97 -0.63,-6.25 -5.19,1.82 0.91,-5.19 3.44,0.57 7.85,4.98 3.86,0.97 -0.59,4.32 9.24,13.6 8.47,4.61 2.03,-4.22 4.28,0.11 z"
       id="M18501"
       style="fill:#ffff80;fill-opacity:1;stroke:#000000;stroke-width:1.1582;stroke-dasharray:none;stroke-opacity:1" />
    <path
       d="m 584.37,266.25 -2.81,4.99 -9.75,3.5 -0.68,5.41 -2.92,3.35 0.25,5.34 3.64,2.03 0.34,5.76 -3.92,4.27 1.1,3.41 -4.23,5.91 4.58,6.56 -4.19,6.02 -2.84,6.16 1.94,6.56 -2.21,1.75 0.18,5.59 5.38,4.18 -0.75,6.57 -4.87,3.24 -3.96,7.77 -4.11,1.52 -5.03,-6.45 -6.14,0.95 -0.31,-2.67 -7.1,-2.41 -7.27,4.98 -4.03,0.96 -3.39,-6.81 1.32,-3.21 -4.08,-4.48 1.75,-4 -5.27,-7.05 -5.47,1.76 -3.29,-2.61 -3.34,4.15 -10.12,-7.68 -9.39,6 -7.3,-2.37 -3,0.93 -5.69,-2.02 1.03,-8.81 -2.15,-3.18 5.89,-4.56 4.11,-8.69 3.98,-3.47 3.3,0.79 4.69,-1.61 7.14,-7.82 -0.8,-1.86 3.86,-4.83 -1.52,-5.79 3.54,-8.89 -2.99,-4.4 2.16,-4.58 6.09,0.25 5.37,-3.5 0.1,-2.7 4.47,-2.95 5.02,-1.07 1.17,-5.73 3.51,-3.7 5.03,-0.25 4.87,-2.72 8.03,-0.42 6.3,2.86 3.74,-0.5 9.39,7.26 3.64,0.34 6.05,4.33 -0.65,3.17 7.84,4.53 z"
       id="M18382"
       style="fill:#ffff80;fill-opacity:1;stroke:#000000;stroke-width:1.1582;stroke-dasharray:none;stroke-opacity:1" />
    <path
       d="m 508.68,65.24 -5.11,2.1 -2.12,4.2 -6.47,3.39 -0.25,2.56 -4.47,4.06 -6.93,3.29 -4.93,-2.21 -8.38,-0.5 -6.12,-5.01 -8.3,1.13 -1.12,-4.51 -3.96,-5.13 -7.56,3.49 -10.84,0.91 -9.39,-1.25 -4.46,-4.22 1.57,-8.93 -5.01,-0.94 4.61,-6.58 4.14,-1.61 1.42,-6.37 5.74,-0.66 -0.4,-5 4.05,-3.75 -3.01,-3.66 -3.81,1.17 -3.45,-1.53 0.17,-4.23 19.72,-13.06 13.5,-10.95 4.91,-0.44 5.39,1.75 -1.38,6.74 3.08,4.69 3.89,2.93 12.24,6.34 7.29,2.07 3.64,7.66 3.97,0.67 0.8,7.73 9.08,3.94 -1.96,3.78 1.25,4.24 -1.91,6.06 z"
       id="M18208"
       style="fill:#ffff80;fill-opacity:1;stroke:#000000;stroke-width:1.1582;stroke-dasharray:none;stroke-opacity:1" />
    <path
       d="m 511.19,260.46 -5.29,-0.63 -2.78,-4.3 -3.14,-1.12 -3.03,-3.9 -11.39,-1.81 -4.31,2.51 -18.26,0.15 -0.84,-5.03 -4.71,0.21 -4.95,5.26 -3.71,1.74 -0.6,5.36 -4.5,1.11 -9.14,0.31 -0.73,-1.28 -12.43,0.33 -1.58,-4.63 -14.67,0.68 -5.57,-1.33 -3.25,3.45 -4.64,-5.16 -1.22,-3.99 2.73,-2.24 1.97,-5.85 3.51,-5.16 -0.32,-3.88 9.12,-9.18 0.69,-6.99 3.06,-3.28 3.11,0.45 5.82,-2.54 2.2,3.82 8.56,2.63 6.77,3.6 -1.5,7.47 6.55,-3.68 5.02,-7.16 4.77,-0.16 3.92,5.15 9.04,2.95 2.8,-0.78 6.78,1.74 2.14,4.15 4.46,0.29 4.33,-1.6 5.77,3.82 2.15,3 4.74,-1.2 3.09,1.82 3.22,8.35 7.57,0.32 -2.59,6.05 1.38,2.56 z"
       id="M18207"
       style="fill:#ffff80;fill-opacity:1;stroke:#000000;stroke-width:1.1582;stroke-dasharray:none;stroke-opacity:1" />
    <path
       d="m 567.91,178.66 2,-4.91 -1.7,-2.87 3.93,-10.9 -0.77,-4.24 -5.14,-0.63 -11.32,-3.36 -12.24,-4.65 9.17,-8.35 -4.17,-10.29 -3.24,-1.83 0.84,-6.27 3.8,-0.05 4.33,-2.4 10.66,-3.8 2.09,1.12 6.15,-1.93 0.45,-1.82 4.86,-2.38 4.44,3.14 4.59,-1.17 3.23,-5.35 10.39,-9.81 2.19,0.72 3.01,6.05 8.59,2.43 5.53,-3.65 2.97,2.33 14.48,-4.85 4.81,1.35 1.59,4.75 7.78,2.96 3.11,4.22 5.06,3.65 2.83,-0.61 4.63,2.95 0.59,4.12 4.53,3.83 1.42,6.09 4.29,1.31 5.83,5.04 5.66,0.96 5.35,4.17 3.16,5.47 -1.07,4.87 2.15,5.89 -12.2,5.55 -3.36,5.89 -3.44,1.14 -2.45,4 -4.41,1.3 -2.06,4.21 -6.38,0.2 -6.43,3.77 -5.53,6.42 -4.19,1.5 -1.89,7.88 -3.73,1.63 -5.47,-2.5 -4.75,3.65 -5.58,-4.88 -6.29,-3.12 -11.75,-0.91 -3.6,-4.19 -15.07,-1.65 -2.18,6.43 -5.17,1.56 -7.14,-3.98 -2.57,-7.37 z"
       id="M18206"
       style="fill:#ffff80;fill-opacity:1;stroke:#000000;stroke-width:1.1582;stroke-dasharray:none;stroke-opacity:1" />
    <path
       d="m 558.65,364.62 3.96,-7.77 4.87,-3.24 0.75,-6.57 -5.38,-4.18 -0.18,-5.59 2.21,-1.75 -1.94,-6.56 2.84,-6.16 4.19,-6.02 -4.58,-6.56 4.23,-5.91 -1.1,-3.41 3.92,-4.27 -0.34,-5.76 -3.64,-2.03 -0.25,-5.34 2.92,-3.35 0.68,-5.41 9.75,-3.5 2.81,-4.99 1.8,-3.72 -4.66,-2.02 4.91,-2.99 -1.26,-8.52 2,-4.33 -5.19,-2.66 -1.08,-3.02 1.05,-7.47 -2.41,-3.49 0.12,-3.79 -2.05,-4.34 4.31,-4.53 -2.7,-3.57 1.81,-2.9 -3.34,-6.54 5.14,-4.52 5.17,-1.56 2.18,-6.43 15.07,1.65 3.6,4.19 11.75,0.91 6.29,3.12 5.58,4.88 4.75,-3.65 5.47,2.5 3.73,-1.63 1.89,-7.88 4.19,-1.5 5.53,-6.42 6.43,-3.77 6.38,-0.2 2.06,-4.21 4.41,-1.3 2.45,-4 3.44,-1.14 3.36,-5.89 12.2,-5.55 2.08,1.35 6.9,0.28 2.47,-2.36 9.86,-2.79 1.99,0.4 4.65,-4.05 4.74,-1.79 5.45,-0.21 8.11,1.4 3.75,-3.4 5.18,-0.81 5.65,8.64 0.11,4.65 -3.03,0.43 -3.62,3.36 -4.79,1.74 -5.22,8.6 0.19,11.12 -1.46,3.45 0.69,4.64 -3.18,8.3 0.3,5.64 -1.34,4.17 13.05,3.36 2.1,9.05 0.09,7.18 -2.68,3.24 2.32,5.1 11.11,4.44 2.62,-0.68 7.16,1.8 2.5,5.52 -5.49,9.37 1.52,3.91 7.48,1.41 3.67,5.3 4.55,1.4 5.81,12.94 -2.05,9.52 3.34,3.43 3.67,12.21 -0.74,4.01 -3.44,4.57 -5.58,2.04 -7.6,-1.06 -3.7,24.9 -3.79,6.85 -3.41,0.94 -5.35,-1.38 0.14,-4.72 -6.04,-2.8 -5.45,0.98 -7.72,5.81 -5.03,-3.92 -4.54,-1.11 -2.27,5.64 -6.08,5.82 -5.78,-1.52 -5.92,3.48 -10.24,-1.44 -3.41,4.39 -4.89,1.18 -1.93,-1.71 -1.04,-9.14 -4.23,-5.77 -4.04,6.65 -6.97,1.48 0.94,3.09 -2.72,2.35 -6.68,-0.73 -7.1,-6.93 -5.28,2.05 -2.26,2.94 -0.06,5.05 -7.89,4.54 -12.49,-2.16 -3.12,1.69 -8.45,-3.87 -3.12,-2.72 -7.66,11.43 1.12,3.75 -1.15,5.73 -4.93,5.48 -3.63,-7.03 -0.33,-3.4 -6.89,-6.83 -5.76,1.7 -4.05,-0.33 -3.46,-3.92 -5.8,1.47 -3.31,2.67 -2.65,-1.62 -6.05,0.11 z"
       id="M18205"
       style="fill:#ffff80;fill-opacity:1;stroke:#000000;stroke-width:1.1582;stroke-dasharray:none;stroke-opacity:1" />
    <path
       d="m 211.87,514.43 4.06,8.48 12.67,7.45 4.14,5.79 -1.01,2.62 -10.13,10.53 5.43,6.74 2.26,7.81 -1.73,4.51 1.39,6.19 -12.29,5.06 -6.65,-6.57 -3.33,-1.27 -5.35,0.81 2.83,6.86 5.79,3.06 -1.03,6.78 3.2,2.97 -0.19,3.54 2.5,4.25 5.51,1.75 6.77,5.05 4.7,-0.7 5.85,7.11 -1.09,10.58 -2.4,4.13 -1.99,0.67 -6.53,-2.57 -3.65,1.4 -3.09,-1.71 -7.78,1.19 -1.41,2.49 -1.87,17.07 -9.6,-0.91 -2.98,-3.33 -6.9,-1.55 -3.31,-7.33 -2.41,-0.79 -4.78,-5.2 -11.21,-2.63 -4.9,1.51 -4.82,-0.62 -3.37,3.76 -11.56,-0.6 -6.53,-5.9 -5.56,0.57 -3.94,5.36 -6.53,-3.86 -6.26,-0.65 -1.43,-5.55 -5.31,-1.45 -2.91,3.69 -3.4,-0.42 -3.23,5.29 -6.27,-0.97 -3.3,-2.31 -0.22,-4 -5.49,-3.82 2.16,-3.15 3.98,0.03 4.15,-4.23 5.43,0.32 4.3,-3.7 4.8,0.45 8.84,-3.88 -3.2,-4.2 0.8,-4.9 2.94,-1.27 -1.7,-9.83 5.29,-1.29 3.43,-8.28 8.77,3.21 9.39,-0.1 4.9,-3.59 4.32,2.09 3.75,4.69 3.13,-1.29 0.21,-4.31 4.17,-0.45 2.04,-2.42 3.88,0.53 1.81,-5.85 5.82,-10.49 0.74,-10.36 6.61,0.72 -0.05,-4.63 -3.07,-0.76 -4.31,1.79 -7.74,0.6 -2.93,6.98 -2.81,2.74 -5.27,1.33 -0.82,-4.04 1.09,-7.41 -1.01,-3.48 -8.02,-2.52 -4.86,1.15 -2.54,-4.33 7.79,-6.61 2.36,-4.4 4.3,-4.04 7.83,0.67 4.13,-1.64 5.34,5 3.29,-0.95 1.16,5.38 -1.57,1.71 2.26,6.86 2.8,2.43 12.03,-5.49 2.98,5.2 2.09,8.2 4.48,3.76 5.58,-4.2 3.5,3.18 2.58,-3.84 6.24,-0.23 3.76,-1.85 -3.66,-5.4 -1.62,-6.44 -7.46,-4.56 0.67,-3.1 -4.52,-0.65 -1.04,-2.89 z"
       id="M18204"
       style="fill:#ffff80;fill-opacity:1;stroke:#000000;stroke-width:1.1582;stroke-dasharray:none;stroke-opacity:1" />
    <path
       d="m 405.33,424.88 -0.05,4.69 -9.1,15.14 1.73,3.37 5.96,1.82 1.49,2.6 0.66,7.52 4.75,9.46 0.05,6.91 4.06,4.69 6.12,16.79 -6.37,8.75 2.23,8.21 -11.23,-1.27 -4.35,1.23 -2.68,-3.21 -3.39,0.81 -6.48,-1.16 -5.41,-2.61 0.22,4.56 -2.14,4.41 0.7,5.61 -2.69,2.75 2.29,7.31 -3.25,10.43 -5.9,-4.92 -5.96,-2.28 -3.77,4.35 0.2,2.76 -4.51,3.05 -4.92,-3.99 -7.14,-1.89 -12.59,3.57 0.65,-9.24 -2.17,-2.64 0.72,-3.58 -1,-6.94 3.62,-5.77 -1.98,-12.09 -9.81,-0.19 -2.77,-6.65 1.31,-1.02 1.54,-8.34 -1.81,-3.26 0.14,-6.77 1.52,-5.93 -1.84,-3.43 -1.27,-7.05 -3.19,-4.15 8.6,-9.22 -2.14,-3.91 -0.21,-5.14 2.24,-4.4 -1.25,-6.6 -0.34,-10.71 1.98,-6.39 -0.6,-5.43 -4.2,-3.59 -13.8,4.06 -7.5,-0.83 -2.19,-3.28 2.23,-3.56 7.3,1.43 1.96,-4.71 5.95,-6.35 3.66,-0.87 10.87,-9.81 3.45,6.29 2.5,1.15 -1.24,11.27 4.77,5.51 -0.36,6.11 3.46,10.72 -0.44,5.2 -5.48,4.97 -3.5,5.79 0.62,3.13 9.42,6.83 3.14,8.83 4.46,0.27 9.14,-2.84 1.41,-4.78 v -7.57 l 6.85,-5.18 -2.74,-2.72 -1.66,-10.23 8.02,-5.32 -0.85,-4.19 4.39,-6.67 -1.46,-2.25 -0.85,-9.03 3.1,-3.2 0.74,-8.16 -1.68,-5.05 8.35,-0.12 2.81,5.47 0.52,4.18 2.95,2.45 5.18,7.87 0.55,8.81 -0.91,1.61 9.69,8.56 -0.96,8.09 z"
       id="M18202"
       style="fill:#ffff80;fill-opacity:1;stroke:#000000;stroke-width:1.1582;stroke-dasharray:none;stroke-opacity:1" />
    <path
       d="m 474.38,135.27 6.18,0.35 -0.32,7.55 4.13,7.34 2.96,2.8 -6.22,3.38 1.68,3.85 1.1,9.01 6.25,7.1 10.08,3.38 3.24,-4.54 4.94,-0.41 6.77,-3.32 5.87,11.72 9.56,2.16 9.77,-9.66 3.39,-0.56 9.97,1.37 3.38,2.47 7.1,1.92 3.7,-2.52 5.2,7.83 2.57,7.37 7.14,3.98 -5.14,4.52 3.34,6.54 -1.81,2.9 2.7,3.57 -4.31,4.53 2.05,4.34 -0.12,3.79 2.41,3.49 -1.05,7.47 1.08,3.02 5.19,2.66 -2,4.33 1.26,8.52 -4.91,2.99 4.66,2.02 -1.8,3.72 -4.77,-0.64 -7.84,-4.53 0.65,-3.17 -6.05,-4.33 -3.64,-0.34 -9.39,-7.26 -3.74,0.5 -6.3,-2.86 -8.03,0.42 -4.87,2.72 -5.03,0.25 -3.51,3.7 -1.17,5.73 -5.02,1.07 -4.47,2.95 0.12,-7.6 -1.38,-2.56 2.59,-6.05 -7.57,-0.32 -3.22,-8.35 -3.09,-1.82 -4.74,1.2 -2.15,-3 -5.77,-3.82 -4.33,1.6 -4.46,-0.29 -2.14,-4.15 -6.78,-1.74 -2.8,0.78 -9.04,-2.95 -3.92,-5.15 -4.77,0.16 -5.02,7.16 -6.55,3.68 1.5,-7.47 -6.77,-3.6 -8.56,-2.63 -2.2,-3.82 -5.82,2.54 -3.11,-0.45 -3.06,3.28 -8.11,0.06 -7.55,-8.33 -4.19,2.02 -6.08,-0.85 -7.95,-2.68 -2.36,-4.77 -6.17,-4.47 -10.48,-6.3 -3.64,0.6 -1.29,8.46 -4.33,7.69 -8.45,5.21 -3.34,-0.28 -2.64,-5.84 -6.25,-6.18 -3.48,3.02 -1.86,9.37 -0.14,7.5 -6.65,2.51 -2.98,-3.53 -9.07,-2.91 -3.16,-4.03 2.17,-2.45 10.08,-5.69 6.91,-7.32 4.3,-7.4 3.24,-2.71 -0.59,-6.98 4.03,-4.68 2.72,-15.18 5.24,-10.78 0.26,-5.05 2.9,-6.67 7.38,-5.39 -0.04,-4.99 3.32,-2.93 0.29,-4.91 4.18,-1.4 8.39,-6.13 9.68,-10.56 -1.72,-5.22 5.57,-8.84 15.01,7.24 2.88,-0.77 9.73,0.31 2.12,-2.5 5.97,5.8 1.45,7.11 2.12,4.1 4.02,2.64 1.6,4.1 8.06,2.33 1.12,4.75 2.43,1.63 6.69,0.73 12.2,-0.22 1.86,1.52 5.22,-1.47 1.54,1.79 4.89,-3.89 0.81,7.5 -1.05,4.75 z"
       id="M18201"
       style="fill:#ffff80;fill-opacity:1;stroke:#000000;stroke-width:1.1582;stroke-dasharray:none;stroke-opacity:1" />
    <path
       d="m 287.97,550.74 4.19,-4.16 -0.95,-10.5 -4.47,-7.1 0.74,-2.72 -2.05,-4.96 -1.4,-8.61 -4.95,-3.98 -6.35,0.24 -3.29,-4.33 -4.15,-2.89 0.53,-3.47 -1.88,-4.38 -1.95,-1.84 -8.02,3.73 -0.1,-0.02 -3.73,-6.51 -4.28,-0.11 -2.03,4.22 -8.47,-4.61 -9.24,-13.6 0.59,-4.32 -3.86,-0.97 -7.85,-4.98 -3.44,-0.57 4.72,-1.36 2.81,3.78 3.88,1.66 6.76,0.72 -1.48,6.3 3.17,2.73 3.74,-1.36 2.15,9.67 6.29,1.97 3.74,-1.44 1.89,-4.3 3,-1.04 3.68,4.17 2.35,-1.08 -0.66,-4.64 2.57,-2.81 5.2,-0.26 -0.16,5.7 3.43,4.95 7.08,-0.53 8.08,-3.96 3.02,-5.74 5.51,-3.78 4.48,4.71 6.88,-1.6 6.13,-8.37 0.41,-4.76 -10.83,-11.72 0.82,-10.34 2.75,-2.34 2.63,-6.51 -1.23,-8.23 -2.73,-4.2 0.31,-5.42 -3.28,0.75 0.67,6.56 -4.08,-0.22 -0.13,-10.56 -2.9,-2.45 2.51,-4.89 3.37,-2.21 2.19,3.28 7.5,0.83 13.8,-4.06 4.2,3.59 0.6,5.43 -1.98,6.39 0.34,10.71 1.25,6.6 -2.24,4.4 0.21,5.14 2.14,3.91 -8.6,9.22 3.19,4.15 1.27,7.05 1.84,3.43 -1.52,5.93 -0.14,6.77 1.81,3.26 -1.54,8.34 -1.31,1.02 2.77,6.65 9.81,0.19 1.98,12.09 -3.62,5.77 1,6.94 -0.72,3.58 2.17,2.64 -0.65,9.24 1.34,4.31 -3.07,2.97 -1.96,5.21 -2.41,-0.27 -2.44,5.27 -0.03,5.12 -2.9,4.11 -9.9,-0.61 -4.94,4.25 -4.79,-9.51 -5.81,-0.87 -6.21,-7.02 z m -32.02,-64.83 -4.12,1.89 1.5,6.53 3.58,-0.36 1.31,-4.5 z"
       fill-rule="evenodd"
       id="M18442"
       style="fill:#ffff80;fill-opacity:1;stroke:#000000;stroke-width:1.1582;stroke-dasharray:none;stroke-opacity:1" />
    <path
       d="m 545.27,120.36 -4.64,-1.41 -5.18,0.71 -2.36,-2.96 -6.61,1.88 -2.78,7.55 -6.8,4 -4.45,-0.82 -6.6,4.08 -0.88,2.82 -9.62,-0.72 -5.8,-2.53 1.4,-3.03 -7.72,-5.73 -2.27,4.34 -6.58,6.73 -9.42,-1.74 1.05,-4.75 -0.81,-7.5 -4.89,3.89 -1.54,-1.79 -5.22,1.47 -1.86,-1.52 -12.2,0.22 -6.69,-0.73 -2.43,-1.63 -1.12,-4.75 -8.06,-2.33 -1.6,-4.1 -4.02,-2.64 -2.12,-4.1 -1.45,-7.11 -5.97,-5.8 -2.12,2.5 -9.73,-0.31 -2.88,0.77 -15.01,-7.24 8.3,-14.16 3.83,2.2 3.81,-0.34 -0.63,-6.32 -2.73,-1.59 5.88,-9.14 1.55,-4.89 -0.88,-5.48 -4.45,-7.02 3.1,-2.57 -4.3,-5.89 7.56,-0.3 2.7,-1.7 7.36,-0.42 4.69,2.6 12.21,-5.61 -0.17,4.23 3.45,1.53 3.81,-1.17 3.01,3.66 -4.05,3.75 0.4,5 -5.74,0.66 -1.42,6.37 -4.14,1.61 -4.61,6.58 5.01,0.94 -1.57,8.93 4.46,4.22 9.39,1.25 10.84,-0.91 7.56,-3.49 3.96,5.13 1.12,4.51 8.3,-1.13 6.12,5.01 8.38,0.5 4.93,2.21 6.93,-3.29 4.47,-4.06 0.25,-2.56 6.47,-3.39 2.12,-4.2 5.11,-2.1 4.37,8.03 0.37,5.06 3.76,7.68 6.34,2.97 1.65,2.64 4.59,-0.73 1.72,-2.63 12.59,1.65 4.03,-2.14 6.71,-1.22 2.28,3.77 -0.94,4.92 1.53,2.47 5.72,1.46 4.37,7.94 3.5,0.82 1.48,3.55 -0.45,1.82 -6.15,1.93 -2.09,-1.12 -10.66,3.8 -4.33,2.4 z"
       id="M18210"
       style="fill:#ffff80;fill-opacity:1;stroke:#000000;stroke-width:1.1582;stroke-dasharray:none;stroke-opacity:1" />
    <path
       d="m 511.19,260.46 -0.1,2.7 -5.37,3.5 -6.09,-0.25 -2.16,4.58 2.99,4.4 -3.54,8.89 1.52,5.79 -3.86,4.83 0.8,1.86 -7.14,7.82 -4.69,1.61 -3.3,-0.79 -3.98,3.47 -4.11,8.69 -5.89,4.56 -3.89,-2.4 -3.01,0.7 -11.6,-8.17 -8.83,-1.04 -3.25,-1.42 -3.84,1.39 -8.29,0.6 -3.96,4.61 -0.54,4.89 -8.81,6.66 -0.63,5.49 -2.68,6.64 -5.83,3.4 -4.88,1.46 -2.7,-10.5 0.96,-2.29 -2.95,-10.78 -6.74,-2.62 -4.32,3.02 -4.17,-1.24 -10.06,0.58 -3.26,-4.6 -4.53,1.2 -8.05,-1.42 -0.73,-3.92 -6.57,-4.23 -1.18,-3.36 -10.4,-5.6 -1.62,-3.27 0.27,-11.07 4.8,-4.05 7.89,-2.68 1.07,-6.28 2.37,-3.16 4.93,-1.46 2.9,1.53 6.88,-1.41 2.92,-4.61 5.4,1.8 4.5,9.11 17.25,-4.12 1.8,-6.16 3.42,-5.8 3.25,-3.45 5.57,1.33 14.67,-0.68 1.58,4.63 12.43,-0.33 0.73,1.28 9.14,-0.31 4.5,-1.11 0.6,-5.36 3.71,-1.74 4.95,-5.26 4.71,-0.21 0.84,5.03 18.26,-0.15 4.31,-2.51 11.39,1.81 3.03,3.9 3.14,1.12 2.78,4.3 z"
       id="M18209"
       style="fill:#ffff80;fill-opacity:1;stroke:#000000;stroke-width:1.1582;stroke-dasharray:none;stroke-opacity:1" />
    <path
       d="m 466.27,322.12 2.15,3.18 -1.03,8.81 5.69,2.02 3,-0.93 7.3,2.37 9.39,-6 10.12,7.68 3.34,-4.15 3.29,2.61 5.47,-1.76 5.27,7.05 -1.75,4 4.08,4.48 -1.32,3.21 3.39,6.81 -5,4.84 -0.95,2.69 -10.87,0.81 -3.63,6.98 -1.88,10.19 3.83,4.49 -0.57,2.99 1.68,6.36 -3.71,6.1 1.25,5.2 -5.54,1.94 -1.3,5.14 -3.52,2.94 -4.11,6.94 -3.38,0.98 0.09,4.49 4.05,3.74 -5.64,5.04 0.72,4.19 -5.7,3.23 -6.45,-5.29 -6.86,-1.82 -4.1,-3.53 -3.31,1.75 -5.91,-6.16 -3.88,1.41 -4.74,-2.76 -4.42,1.36 -2.18,-3.73 -5.5,-1.34 -3.13,-7.95 -4.5,-2.11 -10.69,1.08 -0.42,3.52 -5.36,-2.21 -3.7,1.88 -1.86,-1.1 0.96,-8.09 -9.69,-8.56 0.91,-1.61 -0.55,-8.81 -5.18,-7.87 -2.95,-2.45 -0.52,-4.18 -2.81,-5.47 -8.35,0.12 0.87,-9.9 -5.58,-8.52 -1.42,-4.8 -6.51,-9.81 -3.52,-9.38 -5.04,-3.46 -9.2,-9.5 -3.98,-5.36 -15.88,-15.53 4.88,-4.7 1.62,3.27 10.4,5.6 1.18,3.36 6.57,4.23 0.73,3.92 8.05,1.42 4.53,-1.2 3.26,4.6 10.06,-0.58 4.17,1.24 4.32,-3.02 6.74,2.62 2.95,10.78 -0.96,2.29 2.7,10.5 4.88,-1.46 5.83,-3.4 2.68,-6.64 0.63,-5.49 8.81,-6.66 0.54,-4.89 3.96,-4.61 8.29,-0.6 3.84,-1.39 3.25,1.42 8.83,1.04 11.6,8.17 3.01,-0.7 z"
       id="M18404"
       style="fill:#ffff80;fill-opacity:1;stroke:#000000;stroke-width:1.1582;stroke-dasharray:none;stroke-opacity:1" />
    <path
       d="m 408.15,215.09 -0.69,6.99 -9.12,9.18 0.32,3.88 -3.51,5.16 -1.97,5.85 -2.73,2.24 1.22,3.99 4.64,5.16 -3.42,5.8 -1.8,6.16 -17.25,4.12 -4.5,-9.11 -5.4,-1.8 -2.92,4.61 -6.88,1.41 -2.9,-1.53 -4.93,1.46 -2.37,3.16 -1.07,6.28 -7.89,2.68 -4.8,4.05 -0.27,11.07 -4.88,4.7 -7.9,-8.64 -1.47,-5.6 1.65,-7.57 -1.55,-6.62 1.41,-7.87 -0.51,-8.94 -5.92,-5.8 0.14,-3.58 -3.18,-3.87 -6.74,-5.7 -1.46,-5.18 -4.9,-4.6 -0.47,-4.03 4.39,-7.28 -0.54,-3.96 3.16,4.03 9.07,2.91 2.98,3.53 6.65,-2.51 0.14,-7.5 1.86,-9.37 3.48,-3.02 6.25,6.18 2.64,5.84 3.34,0.28 8.45,-5.21 4.33,-7.69 1.29,-8.46 3.64,-0.6 10.48,6.3 6.17,4.47 2.36,4.77 7.95,2.68 6.08,0.85 4.19,-2.02 7.55,8.33 z"
       id="M18423"
       style="fill:#ffff80;fill-opacity:1;stroke:#000000;stroke-width:1.1582;stroke-dasharray:none;stroke-opacity:1" />
    <path
       d="m 91.29,572.17 -1.57,-2.68 4.1,-8.77 -4.7,-5.31 2.41,-2.32 6.47,-1.17 1.02,-5.46 7.74,-7.81 5.72,-2.92 8.04,-2.35 4.84,2.53 -3.28,4.72 3.48,0.73 1.84,6.02 -4.19,-0.55 -3.98,-3.51 -6.02,3.72 -5.48,4.85 4.2,8.49 -3.25,2.08 -4.57,8.58 -7.15,-0.4 z m 22.44,8.26 1.7,9.83 -2.94,1.27 -0.8,4.9 3.2,4.2 -8.84,3.88 -4.8,-0.45 -4.3,3.7 -5.43,-0.32 -4.15,4.23 -3.98,-0.03 -2.16,3.15 5.49,3.82 0.22,4 3.3,2.31 6.27,0.97 3.23,-5.29 3.4,0.42 2.91,-3.69 5.31,1.45 1.43,5.55 6.26,0.65 6.53,3.86 3.94,-5.36 5.56,-0.57 6.53,5.9 11.56,0.6 3.37,-3.76 4.82,0.62 4.9,-1.51 11.21,2.63 4.78,5.2 2.41,0.79 3.31,7.33 6.9,1.55 2.98,3.33 0.61,3.91 -7.39,5.38 -0.81,5.37 -7.72,6.66 -5.3,1.47 -6.38,-3.18 -4.48,5.52 -6.56,-0.42 -3.51,-2.52 -3.54,1.57 -1.2,3.6 -5.62,3.05 -13.78,-4.35 -5.14,-5.12 -3.96,0.51 -5.14,-2.54 -5.81,-4.8 -3.31,2.13 -7.6,-4.38 -9.47,-1.14 -7.62,0.72 -3.33,1.58 -4.9,-4.69 -4.55,0.43 -3.4,-2.16 -4.07,0.6 -12.58,-0.14 -5.45,-2.51 0.71,-7.44 1.65,-1.47 -3.71,-7.28 2.75,-3.79 -1.7,-7.07 -3.59,-3.2 -6.15,-1.06 -2.57,2.5 -5.97,-3.91 2.96,-4.35 -1.56,-3.54 -3.92,-0.71 -2.83,-7.12 5.19,-0.79 8.64,-8.06 3.58,-1.36 4.94,5.21 6.61,-2.99 5.77,0.44 8.69,-1.82 1.04,-2.28 9.85,-3.05 3.18,2 5.3,-1.07 5.98,-11.1 8.96,-1.62 3.29,3.18 3.09,-0.68 z"
       fill-rule="evenodd"
       id="M18483"
       style="fill:#ffff80;fill-opacity:1;stroke:#000000;stroke-width:1.1582;stroke-dasharray:none;stroke-opacity:1" />
    <path
       d="m 89.12,555.41 4.7,5.31 -4.1,8.77 1.57,2.68 -0.61,4.66 -5.98,11.1 -5.3,1.07 -3.18,-2 -9.85,3.05 -1.04,2.28 -8.69,1.82 -5.77,-0.44 -6.61,2.99 -4.94,-5.21 -3.58,1.36 -8.64,8.06 -5.19,0.79 -3.02,0.37 -6.08,-4.54 -6.86,-10.19 2.33,-7.05 7.98,-7.71 -2.15,-8.15 2.11,-3.06 -5.53,-2.84 -9.65,-8.02 -0.04,-4.57 2.47,-6.87 3.17,-4.61 0.49,-3.57 3.67,-2.45 8.48,-3.27 -1.71,3.84 -0.36,6.37 -5.6,7.58 7.14,-2.77 0.89,3.82 -2.47,3.14 1.73,2.55 3.83,-0.62 0.67,-4.43 8.06,3.07 0.1,-6.06 3.72,-2.58 -4.59,-2.26 -1.08,-5.27 2.45,-1.39 8.45,-0.09 -2.41,9.84 1.47,6.84 -1.86,7.39 -2.63,2.47 -0.92,4.61 6.77,8.45 9.87,3.49 5.76,-3.97 5.74,2.76 4.85,0.17 6.01,-2.16 3.43,-3.42 6.4,-2.99 z"
       id="M18481"
       style="fill:#ffff80;fill-opacity:1;stroke:#000000;stroke-width:1.1582;stroke-dasharray:none;stroke-opacity:1" />
  </g>
</svg>
