<?xml version="1.0" encoding="UTF-8" standalone="no"?>
<svg
   version="1.2"
   width="690"
   height="600"
   viewBox="0 0 690 600"
   stroke-linecap="round"
   stroke-linejoin="round"
   id="svg1039"
   sodipodi:docname="fs.svg"
   inkscape:version="1.2 (dc2aedaf03, 2022-05-15)"
   xmlns:inkscape="http://www.inkscape.org/namespaces/inkscape"
   xmlns:sodipodi="http://sodipodi.sourceforge.net/DTD/sodipodi-0.dtd"
   xmlns="http://www.w3.org/2000/svg"
   xmlns:svg="http://www.w3.org/2000/svg">
  <defs
     id="defs1043" />
  <sodipodi:namedview
     id="namedview1041"
     pagecolor="#505050"
     bordercolor="#eeeeee"
     borderopacity="1"
     inkscape:showpageshadow="0"
     inkscape:pageopacity="0"
     inkscape:pagecheckerboard="0"
     inkscape:deskcolor="#505050"
     showgrid="false"
     inkscape:zoom="1.1207642"
     inkscape:cx="289.9807"
     inkscape:cy="309.61016"
     inkscape:window-width="1920"
     inkscape:window-height="1009"
     inkscape:window-x="-8"
     inkscape:window-y="-8"
     inkscape:window-maximized="1"
     inkscape:current-layer="svg1039" />
  <g
     id="fs"
     transform="matrix(0.86340852,0,0,0.86340852,-0.36340995,25.8678)"
     style="fill:#ffff80;fill-opacity:1;stroke:#000000;stroke-width:1.1582;stroke-dasharray:none;stroke-opacity:1">
    <path
       d="m 371.36,343.85 2.03,2.14 17.42,6.34 10.42,0.92 7.58,10.38 5.85,-0.22 7.18,7.84 18.71,8.31 7.3,0.64 17.53,6.88 8.62,2.01 2.66,-1.41 6.15,4.51 8.13,0.11 -3.15,6.12 -4.15,5.65 -7.11,-0.79 -1.69,2.42 -16.26,0.19 -4.72,-2.7 -8.18,-1.47 -4.61,-4.37 -8.98,-4.72 -3.6,2.04 -9.63,-1.6 -3.48,-5.16 -6.21,-3.11 -10.91,4.48 0.08,4.73 -4.15,1.59 -2.81,7.17 -4.77,1.31 -0.23,7.48 -13.66,2.05 -9.1,4.87 -15.16,-2.65 -6.96,-2.73 -7.59,-7.62 1.76,-7.84 6.1,-5.72 1.2,-6.69 -2.64,-7.42 6.2,0.02 -0.79,-5.23 6.88,-7.61 0.6,-5.57 3.43,-5.84 4.71,-2.38 5.5,-10.21 z"
       id="M07344"
       style="fill:#ffff80;fill-opacity:1;stroke:#000000;stroke-width:1.1582;stroke-dasharray:none;stroke-opacity:1" />
    <path
       d="m 487.79,398.42 3.15,-6.12 4.81,-3.02 0.13,-4.11 5.37,-11.27 16.64,7.24 -4.05,7.12 7.37,4.35 1.98,12.22 -11.33,1.02 -4.63,-3.3 -4.38,4.33 -5.33,-2.38 -5.22,3.18 z"
       id="M07342"
       style="fill:#ffff80;fill-opacity:1;stroke:#000000;stroke-width:1.1582;stroke-dasharray:none;stroke-opacity:1" />
    <path
       d="m 175.07,359.46 2.31,11.51 6.35,4.38 -0.13,10.69 -2.97,3.05 2.05,5.03 -0.81,10.54 4.61,7.83 4.66,0.41 4.43,-10.93 13.74,-1.05 1.03,-5.04 6.35,-3.78 14.18,-4.19 20.61,3.02 -0.87,6.47 12.59,2.27 2.14,-2.64 8.43,-1.32 1.32,4.32 5.56,3.09 4.78,-0.15 4.38,9.8 3.68,4.06 -0.35,5.14 -8.09,7.33 14.16,15.71 -2.26,3.41 -12.41,3.83 -7.05,9.32 2.53,3.95 -1.11,12.53 -13,-2.92 -4.29,0.99 -10.69,9.72 -17.73,1.15 -4.45,4.82 -3.6,-1.69 -6.52,3.09 -5,8.63 -12.46,4.61 -10.21,9.62 -5.5,0.93 -7.14,-1.52 -1,5.3 -10.66,6.62 -4.14,0.86 -5.1,4.85 -7.48,2.09 -8.86,5.27 -4.23,-3.99 -10.37,3.07 -7.01,-5.88 2.31,-16.26 -4.59,-7.08 -9.07,-7.27 1.73,-5.53 -2.67,-11.44 -5.86,-0.55 -7.84,-5.84 2.12,-13.52 -5.45,-5.69 8.92,-2.53 5.43,-6.29 5.45,1.51 4.84,-3.34 0.98,-4.41 9.57,-6.13 0.43,-9.66 4.41,-2.64 5.41,-15.21 4.29,-3.38 -4.85,-8.25 1.46,-9.38 2.81,-3.29 -7.16,-16.36 8.17,-2 10.55,-5.8 4.13,-5.67 10.88,3.22 1.89,3 z"
       id="M07368"
       style="fill:#ffff80;fill-opacity:1;stroke:#000000;stroke-width:1.1582;stroke-dasharray:none;stroke-opacity:1" />
    <path
       d="m 175.07,359.46 -7.31,4.42 -1.89,-3 -10.88,-3.22 -4.13,5.67 -10.55,5.8 -8.17,2 7.16,16.36 -2.81,3.29 -1.46,9.38 4.85,8.25 -4.29,3.38 -5.41,15.21 -4.41,2.64 -0.43,9.66 -9.57,6.13 -0.98,4.41 -4.84,3.34 -5.45,-1.51 -5.43,6.29 -8.92,2.53 -6.98,1.75 -6.26,-3.32 -4.18,-18.25 4.29,-5.39 -3.85,-3.88 -3.71,1.94 -17.04,3.91 -10.47,-10.76 -1.63,-10.61 -6.42,3.67 -1.82,3.8 -8.51,-11.55 -2.02,5.26 -6.96,3 -0.82,-5.31 L 1.49,399.7 1,395.83 l 4.22,-9.03 15.99,-15.95 1.44,-11.98 2.73,-3.4 -1.8,-10.16 6.69,-5.12 1.88,-15.68 -2.71,-7.72 -6.95,-2.08 -7.07,-11.64 4.12,-2.16 -0.36,-6.34 6.58,-10.54 6.15,1.85 5.84,-3.9 3.28,2.88 11.73,-2.77 16.98,-5.43 8.23,1.13 7.11,-5.19 2.54,2.44 12.32,2.98 2.14,8.12 -4.17,4.45 -0.34,6.86 -6.05,5.74 1.51,5.99 -2.69,8.38 -4.33,1.98 7.17,14.77 7.47,-4.58 3.42,8.66 7.92,3.62 1.49,3.72 7.85,-0.63 6.12,-6.67 5.35,-0.07 9.79,-11.94 7.84,-5.15 4.44,7.56 7.22,0.99 3.61,9.88 -1.65,4.5 10.77,7.77 z"
       id="M07367"
       style="fill:#ffff80;fill-opacity:1;stroke:#000000;stroke-width:1.1582;stroke-dasharray:none;stroke-opacity:1" />
    <path
       d="m 90.15,460.49 5.45,5.69 -2.12,13.52 7.84,5.84 5.86,0.55 2.67,11.44 -1.73,5.53 9.07,7.27 4.59,7.08 -2.31,16.26 7.01,5.88 -1.39,8.41 -9.45,6.37 -3.21,9.41 -6.25,-1.83 -5.55,3.99 -2.48,4.94 -8.57,-4.04 -8.65,1.4 -4.42,-6.25 -6.32,1.56 -9.54,-0.65 -4.36,-4.6 -5.57,1.77 -5.74,-3.96 -11.76,4.84 -4.49,-5.68 5.03,-4.73 3.97,-6.89 -1.32,-4.99 2.44,-10.07 -1.18,-7.6 -3.25,-5.59 2.2,-8.39 4.68,-6.6 -0.94,-6.73 -4.39,-7.91 0.73,-5.63 -4.29,-4.87 -1.39,-12.48 3.37,-7.05 1.01,-9.43 3.11,-8.74 -4.16,-4.87 0.58,-5.73 -2.85,-3.58 1.82,-3.8 6.42,-3.67 1.63,10.61 10.47,10.76 17.04,-3.91 3.71,-1.94 3.85,3.88 -4.29,5.39 4.18,18.25 6.26,3.32 z"
       id="M07364"
       style="fill:#ffff80;fill-opacity:1;stroke:#000000;stroke-width:1.1582;stroke-dasharray:none;stroke-opacity:1" />
    <path
       d="m 361.36,351.2 -4.71,2.38 -3.43,5.84 -0.6,5.57 -6.88,7.61 0.79,5.23 -6.2,-0.02 2.64,7.42 -1.2,6.69 -6.1,5.72 -1.76,7.84 7.59,7.62 6.96,2.73 -9.47,11.74 1.75,10.1 -1.15,4.1 -11.68,-0.23 -7.42,3.25 -9.22,-3 -7.26,3.8 -4.8,-0.58 -14.16,-15.71 8.09,-7.33 0.35,-5.14 -3.68,-4.06 -4.38,-9.8 -4.78,0.15 -5.56,-3.09 -1.32,-4.32 -8.43,1.32 -2.14,2.64 -12.59,-2.27 0.87,-6.47 -20.61,-3.02 3.13,-9.83 7.66,-3.51 5.75,-6.69 7.33,4.05 7.13,1.49 5.78,-3.55 0.05,-8.21 8.21,-2.32 7.46,-7.04 2.98,-5.98 -1.44,-6.39 7.03,-1.09 1.6,-5.04 9.37,-3.02 3.84,3.89 0.74,5.88 7.79,-4.75 6.98,14.09 5.03,0.75 6.61,-2.21 1.45,-4.38 16.31,4.8 3.83,-1.87 z"
       id="M07362"
       style="fill:#ffff80;fill-opacity:1;stroke:#000000;stroke-width:1.1582;stroke-dasharray:none;stroke-opacity:1" />
    <path
       d="m 238.11,218.32 3.89,2.51 8.17,1.45 1.63,2.84 -3.15,7.84 7.4,5.07 0.74,9.78 -0.97,4.96 2.45,5.58 -4.86,12.67 -8.02,4.32 1.17,11.53 7.5,7.87 -2.52,3.85 3.09,9.27 -5.51,8.67 -0.06,9 -7.99,6.01 -5.99,-1.84 -13.19,7.93 -9.06,-0.45 -9.41,-10.67 4.69,-2.29 3.65,-7.32 2.84,-1.55 -5.17,-7.32 2.34,-6.56 -1.09,-7.46 11.95,-16.02 -2.68,-7.7 5.26,1.13 8.43,-1.14 -1.63,-5.11 -7.74,-6.73 -9.49,-0.76 -8.17,-2.28 -7.24,2.5 -12.73,1.92 -2.96,-3.08 0.23,-5.7 4.25,0.83 12.2,-1.45 5.77,2.91 8.67,-1.3 1.21,-5.99 7.05,-1.01 -1.11,-6.02 8.05,-23 z"
       id="M07423"
       style="fill:#ffff80;fill-opacity:1;stroke:#000000;stroke-width:1.1582;stroke-dasharray:none;stroke-opacity:1" />
    <path
       d="m 316.42,211.97 -4.66,3.13 -0.06,8.45 4.35,1.46 -1.36,7.11 -12.4,-0.68 -0.59,2.18 -5.09,-5.6 1.18,-6.13 -0.9,-9.47 5.43,-0.65 5.92,-3.49 7.08,-0.13 z"
       id="M07422"
       style="fill:#ffff80;fill-opacity:1;stroke:#000000;stroke-width:1.1582;stroke-dasharray:none;stroke-opacity:1" />
    <path
       d="m 256.79,247.81 -0.74,-9.78 -7.4,-5.07 3.15,-7.84 -1.63,-2.84 -8.17,-1.45 -3.89,-2.51 1.86,-5.99 -3.87,-5 3.79,2.04 7.43,-4.61 14.68,3.14 1.58,-3.48 -2.14,-9.31 4.1,-10.4 6.67,-1.88 3.2,7.12 -5.03,-0.04 1.16,6.12 12.51,3.98 6.24,7.19 7.01,2.04 -0.41,3.18 0.9,9.47 -1.18,6.13 5.09,5.6 -2.25,6.83 -8.91,-0.34 -6.42,-0.87 -8,1.99 -8.97,0.24 -7.8,7.5 z"
       id="M07421"
       style="fill:#ffff80;fill-opacity:1;stroke:#000000;stroke-width:1.1582;stroke-dasharray:none;stroke-opacity:1" />
    <path
       d="m 576.11,254.56 -4.7,10.05 -10.54,-0.15 -1.62,1.97 -7.54,0.77 -15.35,-2.92 -4.87,1.85 -2.77,-4.15 -6.35,6.72 -7.67,3.14 -9.15,0.34 -3.13,-4.64 -3.63,5.15 -7.47,-4.13 v -15.63 l 6.98,-0.73 5.68,-4.2 5.16,1.69 10.75,-4.08 4.89,-5.07 7.18,-1.12 1.9,-3.35 6.65,-7.69 5.4,6.42 4.61,-0.3 4.53,6.61 3.8,-0.73 12.23,3.69 -1.03,4.59 z"
       id="M07214"
       style="fill:#ffff80;fill-opacity:1;stroke:#000000;stroke-width:1.1582;stroke-dasharray:none;stroke-opacity:1" />
    <path
       d="m 651.22,93.77 -6.8,8.6 2.58,9.19 7.68,5.71 8.96,-1.21 2.04,5.34 -9.95,0.92 -1.77,2.82 -7.6,1.61 -5.71,10.4 -3.26,11.02 -7.26,-5.41 -5.24,0.94 -9.1,-2.05 -7.41,7.49 -2.53,5.88 -7.26,-7.3 -2.09,-5.94 -8.37,2.86 -1.46,-2.06 3.24,-14.48 3.17,-2 5.28,-9.61 -6.92,-2.6 -8.65,2.53 -4.84,-9.69 0.66,-6 -2.71,-4.17 1.34,-4.26 -7.56,-4.53 -5.72,0.92 1.26,-7.79 20.85,-4.21 9.59,-5.41 -0.4,-6.57 5.79,-0.01 2.71,-4.65 4.67,0.42 -3,-8.68 3.72,-4.67 -1.15,-4 2.43,-5.52 7.36,-3.84 4.94,8.46 7.37,1.95 6.51,-2.93 2.97,3.14 9.17,3.19 -2.46,8.11 4.29,9.16 -2.52,7.96 -3.16,2.9 z"
       id="M07213"
       style="fill:#ffff80;fill-opacity:1;stroke:#000000;stroke-width:1.1582;stroke-dasharray:none;stroke-opacity:1" />
    <path
       d="m 785.95,137.55 -0.04,17.92 1.05,6.09 3.64,6.88 -1.42,3.71 2.16,7.88 -0.52,14.72 1.82,6.48 -0.92,10.58 2.37,29.28 1.59,8.12 -14.52,3.26 -7.75,-4.02 -9.69,-1.85 -11.4,-6.77 -5.87,1.72 -1.82,4.77 -7.6,-1.39 -7.3,-4.09 -2.01,-8.89 -12.82,-6.81 -0.42,-12.86 -1.41,-5.31 -4.82,-3.73 -1.74,-5.56 -4.06,-2.7 4.06,-0.14 3.73,-8.03 -5.26,-13.69 1.74,-7.84 -4.82,-2.79 2.62,-3.83 1.28,-10.04 -4.12,-3.22 12.71,-8.01 -1.29,-6.41 17.77,-6.69 7.98,3.87 5.52,-2.76 4.6,4.06 3.92,-4.36 8.76,0.67 14.66,5.65 5.42,5.58 z"
       id="M07212"
       style="fill:#ffff80;fill-opacity:1;stroke:#000000;stroke-width:1.1582;stroke-dasharray:none;stroke-opacity:1" />
    <path
       d="m 711.3,276.98 4.18,3.42 3.48,18.19 2.07,7.91 0.51,10.47 -3.42,1.89 -0.48,5.74 -6.7,-1.29 -8.25,-3.81 -8.56,0.77 -16.97,-6.42 -5.29,-0.4 -1,-3.97 -5.16,-1.9 -5.72,3.93 0.37,4.28 -6.78,7.88 2.08,3.86 -1.58,5.38 7.46,12.29 1.94,7.85 -11.73,2.43 -2.76,14.82 -9.22,-0.05 -2.05,4.89 -6.81,0.91 -4.06,-5.86 -0.38,-8.69 5.32,-10.11 -3.07,-9.33 -18.78,-3.77 -6.14,-3.53 -5,-6.6 -4.7,0.36 -7.68,-4.75 -2.36,-5.64 -7.34,-2.89 0.08,-6.9 -5.64,-7.58 5.42,-1.13 -1.1,-5.7 4.17,-10.08 -8.75,-3.55 3.67,-5.38 3.76,0.14 0.32,-7.02 6.89,1.78 2.74,5.35 6.99,-10.52 -1.9,-8.91 6.32,-4.29 4.61,-0.35 10,-5.95 6.06,0.71 7.39,-3.42 3.1,-4.72 4.33,-1.42 5.49,2.14 5.26,-2.32 6,6.54 4,1.36 -5.65,10.67 4.44,0.73 12.16,6.36 9.65,2.5 7.51,7.15 3.56,-1.87 5.08,3.71 3.22,-2.1 6.02,1.06 2.56,3.62 z"
       id="M07211"
       style="fill:#ffff80;fill-opacity:1;stroke:#000000;stroke-width:1.1582;stroke-dasharray:none;stroke-opacity:1" />
    <path
       d="m 576.11,254.56 -6.06,-5.9 1.03,-4.59 -12.23,-3.69 -3.8,0.73 -4.53,-6.61 -4.61,0.3 -5.4,-6.42 -6.65,7.69 -3.62,-2.2 -3.91,-9.1 -9.98,-1.64 -7.73,3.33 -4.78,-11.09 -5.61,-5.93 3.52,-4.41 0.83,-7.29 -5.74,-2.22 -17.88,-3.7 -1.88,-2.83 -1.71,-8.43 6.98,-1.93 14.12,-1.54 13.2,0.3 6.99,-1.95 5.96,2.39 4.56,-0.69 5.3,2.98 29.92,-4.47 -1.2,4.76 13.13,4.26 15.39,-4.9 2.39,-4.15 5.63,6.36 7.53,13.2 7.87,3.15 6.71,-0.88 4.23,2.08 5.17,18.1 7.97,-6.68 6.11,-1.32 3.93,4.36 -4.43,10.46 4.94,6.72 -1.08,2.4 -0.76,2.55 -5.26,2.32 -5.49,-2.14 -4.33,1.42 -3.1,4.72 -7.39,3.42 -6.06,-0.71 -10,5.95 -4.61,0.35 -6.32,4.29 -5.79,-5.3 -6.89,6.71 z"
       id="M07210"
       style="fill:#ffff80;fill-opacity:1;stroke:#000000;stroke-width:1.1582;stroke-dasharray:none;stroke-opacity:1" />
    <path
       d="m 665.68,121.4 -2.04,-5.34 -8.96,1.21 -7.68,-5.71 -2.58,-9.19 6.8,-8.6 7.29,1.4 4.88,4.37 1.69,5.94 4.7,-3.09 15.81,2.91 5.16,3.77 3.03,-3.97 -9.33,-8.16 1.04,-4.81 15.21,5.75 17.41,0.17 2.63,-4.06 -1.81,-9.95 0.22,-11.07 12.64,-1.04 10.58,1.56 5.15,2.65 10.49,-0.84 5.78,-2.09 0.23,4.59 11.34,4.99 0.72,24.63 1.21,5.43 7.26,9.72 1.4,14.98 -4.22,-0.55 -5.42,-5.58 -14.66,-5.65 -8.76,-0.67 -3.92,4.36 -4.6,-4.06 -5.52,2.76 -7.98,-3.87 -17.77,6.69 -4.21,-6.16 -13.35,-5.8 -12.63,-2.76 -5.68,5.01 z m 103.24,-37.87 0.29,3.76 -3.21,14.6 7.08,5.13 1.65,-21.84 z"
       fill-rule="evenodd"
       id="M07209"
       style="fill:#ffff80;fill-opacity:1;stroke:#000000;stroke-width:1.1582;stroke-dasharray:none;stroke-opacity:1" />
    <path
       d="m 316.42,211.97 -1.1,-3.82 -7.08,0.13 -5.92,3.49 -5.43,0.65 0.41,-3.18 -7.01,-2.04 -6.24,-7.19 -12.51,-3.98 -1.16,-6.12 5.03,0.04 -3.2,-7.12 -6.67,1.88 -4.1,10.4 2.14,9.31 -1.58,3.48 -14.68,-3.14 -7.43,4.61 -3.79,-2.04 -6.99,-11.82 -4.14,-0.58 -3.67,4.84 -5.66,-1.76 2.82,-5.85 -0.83,-5.32 10.88,-2.62 1.39,-7.5 3,-2.24 0.14,-11.76 -1.98,-9.95 3.67,-7.16 0.99,-9.87 8.71,-19.07 -2.16,-8.92 1.77,-6.13 3.64,-1.16 -3.26,-7.9 -3.85,-3.62 5.52,-4.33 17.47,-6.32 9.23,13.86 3.9,1.22 3.53,-4.29 7.11,-1.46 7.5,-6.01 3.28,0.58 6.96,7.9 9.54,-1.93 9.76,-0.25 3.03,-8.19 12.56,12.69 -0.85,5.46 3.03,6.36 4.88,5.41 -0.3,4.03 6.17,4.06 1.24,9.35 -1.32,5.05 2.76,3.5 -3.32,3.77 -6.58,1.1 -4.15,10.91 -2.41,-0.79 -5.51,8.4 -5.23,0.95 -7.95,12.4 0.86,6.12 6.7,-3.19 10.01,0.03 3.67,4.73 9.61,5.76 2.82,5.12 1.32,9.13 -5.42,-1.92 -5.49,0.85 -7.64,8.86 -11.61,6.34 z"
       id="M07208"
       style="fill:#ffff80;fill-opacity:1;stroke:#000000;stroke-width:1.1582;stroke-dasharray:none;stroke-opacity:1" />
    <path
       d="m 490.94,392.3 -8.13,-0.11 -6.15,-4.51 -2.66,1.41 -8.62,-2.01 -17.53,-6.88 -7.3,-0.64 -18.71,-8.31 -7.18,-7.84 -5.85,0.22 -7.58,-10.38 3.54,-0.34 6.71,-7.85 1.77,2.39 7.35,-0.87 9.31,-7.15 0.06,-5.25 6.53,-7.96 3.58,6.35 9.3,0.78 -0.22,3.53 8.12,7.92 14.58,-0.78 1.51,1.13 14.31,-4.14 7.36,0.82 8.92,-1.58 2.39,2.2 9.62,-2.01 -0.58,7.37 6.26,4.07 21.92,8.71 5.75,-0.6 8.59,7.73 14.09,4.11 6.23,7.94 5.22,1.86 -5.08,1.1 -1.56,3.85 -3.51,4.23 -8.51,1.18 -2.43,11.51 -11.78,0.57 -4.11,-2.65 -9.39,0.26 -1.04,-6.63 -10.58,-3.08 -4.25,0.64 -7.37,-4.35 4.05,-7.12 -16.64,-7.24 -5.37,11.27 -0.13,4.11 z"
       id="M07207"
       style="fill:#ffff80;fill-opacity:1;stroke:#000000;stroke-width:1.1582;stroke-dasharray:none;stroke-opacity:1" />
    <path
       d="m 398.34,394.01 -0.08,-4.73 10.91,-4.48 6.21,3.11 3.48,5.16 9.63,1.6 3.6,-2.04 8.98,4.72 4.61,4.37 8.18,1.47 4.72,2.7 16.26,-0.19 4.59,1.61 4.88,10.14 -3.58,5.4 -1.98,-1.5 -15.34,1.25 -7.5,4.52 10.9,6.61 5.55,1.8 -3.05,9.41 11.07,3.93 1.25,6.11 8.31,4.22 9.88,-1.18 6.62,2.73 7.01,-2.42 7.17,-2.24 9.29,5.15 1.26,4.8 -12.2,9.39 -4.36,5.14 -7.87,3.89 -1.4,5.73 1.39,6.94 -6.05,-1.3 -10.45,4.97 -0.05,11.87 -8.51,0.02 -8.3,3.11 -3.82,5.91 -6.63,-3.19 -1.05,-8.88 -10.32,1.1 -2.09,2.82 -8.7,-5.27 0.22,-10.26 -3.88,-4.78 1.02,-4.7 -8.6,-2.53 -6.15,-5.5 -3.22,-7.33 7.27,-1.79 -0.16,-4.39 6.41,-1.44 3.52,-7.77 -0.41,-4.02 4.59,-5.58 4.27,-9.92 -3.67,-4.43 -7.12,-3.78 0.93,-4.54 -7.16,-4.53 -10.44,-10.51 -6.06,-2.34 z"
       id="M07205"
       style="fill:#ffff80;fill-opacity:1;stroke:#000000;stroke-width:1.1582;stroke-dasharray:none;stroke-opacity:1" />
    <path
       d="m 648.99,370.3 2.76,-14.82 11.73,-2.43 2.26,6.02 6.26,5.99 9.72,-0.95 5.29,1.28 0.57,4.41 5.59,1.76 -2.36,9.31 8.33,7.05 3.28,0.93 9.69,-5.02 6.54,1.48 2.63,-8.12 7.75,-1.57 -4.38,9.4 3.21,3.49 1.47,6.65 -4.67,6.83 3.39,3.74 10.99,0.26 1.28,3.24 13.59,10.03 8.82,5.14 5.01,-1.74 13.58,2.93 -0.4,6.33 1.6,10.3 -1.8,7.53 0.12,14.68 -7.04,11.46 -3.77,18.18 -0.48,17.3 3.62,14.95 -5.62,5.54 -1.25,7.64 -6.65,7.05 -5.07,2.01 -5.08,6.22 -4.41,2.44 -3.2,-4.79 -11.55,9.42 -3.8,-0.08 -7.35,4.11 -5.72,5.64 -6.04,-1.71 -4.23,2.31 -9.34,12.34 -3.5,12.33 -3.93,-2.89 -4.41,3.1 -11.19,-7.44 -11.2,1.45 -5.07,-5.67 -7.87,-3.78 -15.44,-5.51 -4.3,1.82 -9.59,-3.69 -7.08,-10.91 -5.08,-10.76 -1.64,-10.8 -5.14,-5.08 -1.79,-5.65 4.57,-3.58 9.65,-6.77 3.14,-5.05 5.98,-2.92 1.43,-14.53 7.93,-4.92 -1.01,-6.47 7.5,-4.06 -2.19,-4.62 4.82,-3.21 -1.02,-5.3 -8.11,-17.16 -12.81,-13.13 -1.26,-6.26 -3.67,-4.92 2.89,-4.9 -0.38,-8.45 2.89,-0.8 14.21,-6.49 6.47,-5.65 2.28,1.44 6.38,-4.76 1.18,-18.09 3.51,-5.01 z"
       id="M07204"
       style="fill:#ffff80;fill-opacity:1;stroke:#000000;stroke-width:1.1582;stroke-dasharray:none;stroke-opacity:1" />
    <path
       d="m 401.23,353.25 -10.42,-0.92 -17.42,-6.34 -2.03,-2.14 6.28,-10.09 1.16,-5.63 -2.96,-12.16 1.9,-13.6 5.14,-7.64 3.33,-1.34 2.9,5.61 12.77,1.28 3.2,2.82 4.14,-2.54 8.32,-8.91 3.83,-8.09 0.43,-6.62 8.98,2.07 2.78,3.6 6.89,1.21 1.39,-6.43 -3.74,-6.81 2.45,-5.89 -4.93,-6.07 1.09,-7.69 -4.83,-1.44 -5.48,-7.59 10.84,-9.35 0.51,-4.83 7.59,-4.67 3.6,4.28 4.15,-0.3 4.43,-9.34 -0.18,-9.33 4.43,-4.88 5.31,-1.55 10,-12.94 1.88,2.83 -0.8,11.42 -4.03,9.24 4.3,10.52 -0.89,3.83 4.64,5 3.2,13.1 5.83,3.33 0.11,4.67 v 15.63 l 7.47,4.13 3.63,-5.15 3.13,4.64 9.15,-0.34 7.67,-3.14 6.35,-6.72 2.77,4.15 4.87,-1.85 15.35,2.92 7.54,-0.77 -4.46,14.94 2.79,5.09 -1.69,6.54 -5.29,-3.29 -4.82,1.8 -0.92,4.79 -6.37,-2.31 -0.19,5.22 5.09,2.3 4.95,8.38 -3.46,4.46 4.03,3.2 10.43,-2.09 -0.32,9.6 4.27,0.74 2.6,-9.47 10.83,-1.09 7.34,2.89 2.36,5.64 7.68,4.75 -2.28,2.19 -7.05,15.02 9.91,10.04 -0.83,9.97 -1.69,2.42 1.01,9.59 -5.12,0.41 -4.6,3.47 -5.22,-1.86 -6.23,-7.94 -14.09,-4.11 -8.59,-7.73 -5.75,0.6 -21.92,-8.71 -6.26,-4.07 0.58,-7.37 -9.62,2.01 -2.39,-2.2 -8.92,1.58 -7.36,-0.82 -14.31,4.14 -1.51,-1.13 -14.58,0.78 -8.12,-7.92 0.22,-3.53 -9.3,-0.78 -3.58,-6.35 -6.53,7.96 -0.06,5.25 -9.31,7.15 -7.35,0.87 -1.77,-2.39 -6.71,7.85 z"
       id="M07203"
       style="fill:#ffff80;fill-opacity:1;stroke:#000000;stroke-width:1.1582;stroke-dasharray:none;stroke-opacity:1" />
    <path
       d="m 371.36,343.85 -4.5,-2.86 -5.5,10.21 -5.87,-4.22 -3.83,1.87 -16.31,-4.8 -1.45,4.38 -6.61,2.21 -5.03,-0.75 -6.98,-14.09 -7.79,4.75 -0.74,-5.88 -3.84,-3.89 5.52,-7.68 14.98,-8.74 1.24,-3.96 -5.4,-8.97 -3.31,-14.74 -0.46,-9.22 -11.75,-0.68 -5.49,1.97 -5.41,-15.67 -4.95,-5.38 4.41,-14.76 -1.75,-2.84 8.91,0.34 2.25,-6.83 0.59,-2.18 12.4,0.68 1.36,-7.11 -4.35,-1.46 0.06,-8.45 4.66,-3.13 8.83,2.23 0.4,0.22 0.64,0.14 3.96,3.9 5.19,0.91 2.5,6.16 13.19,2.96 11.77,4.99 0.24,4.48 2.56,9.81 -1.58,5.65 2.8,4.5 3.11,10.88 6.16,1.92 -0.08,7.34 9.5,9.63 0.6,5.7 -3.33,1.34 -5.14,7.64 -1.9,13.6 2.96,12.16 -1.16,5.63 z"
       id="M07202"
       style="fill:#ffff80;fill-opacity:1;stroke:#000000;stroke-width:1.1582;stroke-dasharray:none;stroke-opacity:1" />
    <path
       d="m 565.22,80.9 -1.26,7.79 5.72,-0.92 7.56,4.53 -1.34,4.26 2.71,4.17 -0.66,6 4.84,9.69 8.65,-2.53 6.92,2.6 -5.28,9.61 -3.17,2 -3.24,14.48 1.46,2.06 1.07,18.25 5.82,2 2.85,6.97 -5.76,3.76 -2.39,4.15 -15.39,4.9 -13.13,-4.26 1.2,-4.76 -29.92,4.47 -5.3,-2.98 -4.56,0.69 -5.96,-2.39 -6.99,1.95 -13.2,-0.3 -14.12,1.54 -6.98,1.93 0.8,-6.76 -1.95,-4.07 -7.6,-2.71 -6.34,-4.94 -6.15,-1.68 2.47,-13.2 -3.08,-6.82 1.1,-7.34 4.88,-2.06 -2.59,-6.68 3.02,-6.42 4.5,-3.33 4.77,-7.83 4.3,-1.39 2.52,-8.85 7.05,-5.15 -3.49,-3.93 -9.27,-4.83 -2.83,-5.56 2.2,-7.13 -0.71,-8 1.83,-6.33 -2.12,-6.42 2.45,-2.43 -2.58,-8.33 6.25,-14.81 -3.41,-17.74 2.51,-4.82 10.64,3.49 6.12,5.93 5.14,-0.07 8.44,4.35 2.78,-4.15 12.96,2.23 V 6.76 l 5.5,-5.14 4.52,5.76 10.58,5.36 11.65,0.66 5.69,3.12 -3.15,4.83 0.88,10.74 6.22,8.8 -6.67,4 1.04,4.61 -5.16,6.47 0.04,4.45 6.83,5.67 -1.46,7.4 4.38,7.33 z"
       id="M07201"
       style="fill:#ffff80;fill-opacity:1;stroke:#000000;stroke-width:1.1582;stroke-dasharray:none;stroke-opacity:1" />
    <path
       d="m 302.91,330.78 -9.37,3.02 -1.6,5.04 -7.03,1.09 1.44,6.39 -2.98,5.98 -7.46,7.04 -8.21,2.32 -0.05,8.21 -5.78,3.55 -7.13,-1.49 -7.33,-4.05 -0.35,-6.64 -3.23,-7.83 -0.23,-5.52 -7.72,-8.97 -0.8,-9.22 5.99,1.84 7.99,-6.01 0.06,-9 5.51,-8.67 -3.09,-9.27 2.52,-3.85 -7.5,-7.87 -1.17,-11.53 8.02,-4.32 4.86,-12.67 -2.45,-5.58 0.97,-4.96 2.56,1.16 7.8,-7.5 8.97,-0.24 8,-1.99 6.42,0.87 1.75,2.84 -4.41,14.76 4.95,5.38 5.41,15.67 5.49,-1.97 11.75,0.68 0.46,9.22 3.31,14.74 5.4,8.97 -1.24,3.96 -14.98,8.74 z"
       id="M07447"
       style="fill:#ffff80;fill-opacity:1;stroke:#000000;stroke-width:1.1582;stroke-dasharray:none;stroke-opacity:1" />
    <path
       d="m 230.87,387.91 -14.18,4.19 -6.35,3.78 -1.03,5.04 -13.74,1.05 -4.43,10.93 -4.66,-0.41 -4.61,-7.83 0.81,-10.54 -2.05,-5.03 2.97,-3.05 0.13,-10.69 -6.35,-4.38 -2.31,-11.51 -0.25,-7.49 -10.77,-7.77 1.65,-4.5 -3.61,-9.88 -7.22,-0.99 -4.44,-7.56 5.03,-6.14 10.99,-1.15 6.41,3.59 12.96,-0.99 4.16,3.65 1.17,6 12.27,0.28 9.41,10.67 9.06,0.45 13.19,-7.93 0.8,9.22 7.72,8.97 0.23,5.52 3.23,7.83 0.35,6.64 -5.75,6.69 -7.66,3.51 z"
       id="M07446"
       style="fill:#ffff80;fill-opacity:1;stroke:#000000;stroke-width:1.1582;stroke-dasharray:none;stroke-opacity:1" />
    <path
       d="m 150.43,321.27 -7.84,5.15 -9.79,11.94 -5.35,0.07 -6.12,6.67 -7.85,0.63 -1.49,-3.72 -7.92,-3.62 -3.42,-8.66 -7.47,4.58 -7.17,-14.77 4.33,-1.98 2.69,-8.38 -1.51,-5.99 6.05,-5.74 0.34,-6.86 4.17,-4.45 -2.14,-8.12 3.76,-3.41 0.65,-14.05 2.69,-8.49 6.04,-3.18 4.48,0.56 7.75,-2.5 7.91,8.19 8.9,-5.35 7.25,2.11 2.68,-2.79 9.67,0.97 10.28,5.18 7.69,-5.65 4.22,1.43 -0.23,5.7 2.96,3.08 -5.04,14.97 8.25,6.22 2.52,4.65 -1.26,4.14 -10.06,7.26 4.77,19.52 -12.96,0.99 -6.41,-3.59 -10.99,1.15 z"
       id="M07445"
       style="fill:#ffff80;fill-opacity:1;stroke:#000000;stroke-width:1.1582;stroke-dasharray:none;stroke-opacity:1" />
    <path
       d="m 186.64,259.82 12.73,-1.92 7.24,-2.5 8.17,2.28 9.49,0.76 7.74,6.73 1.63,5.11 -8.43,1.14 -5.26,-1.13 2.68,7.7 -11.95,16.02 1.09,7.46 -2.34,6.56 5.17,7.32 -2.84,1.55 -3.65,7.32 -4.69,2.29 -12.27,-0.28 -1.17,-6 -4.16,-3.65 -4.77,-19.52 10.06,-7.26 1.26,-4.14 -2.52,-4.65 -8.25,-6.22 z"
       id="M07444"
       style="fill:#ffff80;fill-opacity:1;stroke:#000000;stroke-width:1.1582;stroke-dasharray:none;stroke-opacity:1" />
    <path
       d="m 475.37,180.56 1.71,8.43 -10,12.94 -5.31,1.55 -4.43,4.88 0.18,9.33 -4.43,9.34 -4.15,0.3 -3.6,-4.28 -7.59,4.67 -0.51,4.83 -10.84,9.35 5.48,7.59 4.83,1.44 -1.09,7.69 4.93,6.07 -2.45,5.89 3.74,6.81 -1.39,6.43 -6.89,-1.21 -2.78,-3.6 -8.98,-2.07 -2.87,-8.71 2.83,-6.44 -4.15,-5.88 -11.16,-2.51 -3.1,-2.43 1.92,-7.19 -1.8,-3.88 -12.11,-1.43 -8.06,0.65 -7.5,5.38 -0.23,2.6 -7.26,2.93 -2.61,-2.26 -2.56,-9.81 14.46,-2.9 -0.24,-3.48 -6.2,-4.01 5.37,-4.9 -2.36,-7.64 3.77,-9.04 5.77,-1.2 2.72,-5.56 -0.13,-3.15 10.69,-17.51 6.55,-4.54 9.1,-2.42 1.99,-3.8 3.51,-2.46 -1.77,-4.94 1.97,-9.84 5.59,-6.24 0.56,-9.59 4.67,-7 -0.02,-8.58 11.76,1.73 2.04,2.75 13.97,0.66 2.59,6.68 -4.88,2.06 -1.1,7.34 3.08,6.82 -2.47,13.2 6.15,1.68 6.34,4.94 7.6,2.71 1.95,4.07 z"
       id="M07408"
       style="fill:#ffff80;fill-opacity:1;stroke:#000000;stroke-width:1.1582;stroke-dasharray:none;stroke-opacity:1" />
    <path
       d="m 363.14,237.96 -0.24,-4.48 -11.77,-4.99 -13.19,-2.96 -2.5,-6.16 -5.19,-0.91 -3.96,-3.9 -0.64,-0.14 -0.4,-0.22 11.61,-6.34 7.64,-8.86 5.49,-0.85 5.42,1.92 2.34,1.51 8.24,-3.91 11.68,-2.79 8.76,4.35 -2.72,5.56 -5.77,1.2 -3.77,9.04 2.36,7.64 -5.37,4.9 6.2,4.01 0.24,3.48 z"
       id="M07407"
       style="fill:#ffff80;fill-opacity:1;stroke:#000000;stroke-width:1.1582;stroke-dasharray:none;stroke-opacity:1" />
    <path
       d="m 238.11,218.32 -8.11,-2.31 -8.05,23 1.11,6.02 -7.05,1.01 -1.21,5.99 -8.67,1.3 -5.77,-2.91 -12.2,1.45 -4.25,-0.83 -4.22,-1.43 2.32,-8.06 -5.12,-1.19 -3.54,-4.77 -1.11,-12.69 1.2,-8.99 -3.43,-11.04 -5.88,-5.23 1.55,-4.77 -2.6,-5.44 2.4,-4.26 -1.01,-6.58 8.15,-2.17 8.58,-7.57 5.21,-0.85 3.61,-8.29 8.03,-4.12 -2.8,-4.23 1.18,-4.58 13.92,-17.46 0.27,-7.61 9.49,-10.77 6.95,-5.41 13.51,-14.59 3.85,3.62 3.26,7.9 -3.64,1.16 -1.77,6.13 2.16,8.92 -8.71,19.07 -0.99,9.87 -3.67,7.16 1.98,9.95 -0.14,11.76 -3,2.24 -1.39,7.5 -10.88,2.62 0.83,5.32 -2.82,5.85 5.66,1.76 3.67,-4.84 4.14,0.58 6.99,11.82 3.87,5 z"
       id="M07405"
       style="fill:#ffff80;fill-opacity:1;stroke:#000000;stroke-width:1.1582;stroke-dasharray:none;stroke-opacity:1" />
    <path
       d="m 355.41,200.07 -1.32,-9.13 -2.82,-5.12 -9.61,-5.76 -3.67,-4.73 -10.01,-0.03 -6.7,3.19 -0.86,-6.12 7.95,-12.4 5.23,-0.95 5.51,-8.4 2.41,0.79 4.15,-10.91 6.58,-1.1 3.32,-3.77 -2.76,-3.5 1.32,-5.05 -1.24,-9.35 7.51,-2.85 11.59,-2.14 4.67,-5.95 6.86,6.05 1.88,5.32 7.54,-0.05 6.59,10.95 10.67,1.98 5.4,-2.96 2.52,-7.14 11.02,-1.78 0.02,8.58 -4.67,7 -0.56,9.59 -5.59,6.24 -1.97,9.84 1.77,4.94 -3.51,2.46 -1.99,3.8 -9.1,2.42 -6.55,4.54 -10.69,17.51 0.13,3.15 -8.76,-4.35 -11.68,2.79 -8.24,3.91 z m 18.1,-58.9 5.29,4.47 -0.8,11.42 -3.26,3.55 2.5,12.25 3.76,4.18 3.29,-5.08 -1.01,-12.07 -2.05,-7.62 1.16,-10.7 -3.86,-8.31 -5.16,4.37 z"
       fill-rule="evenodd"
       id="M07402"
       style="fill:#ffff80;fill-opacity:1;stroke:#000000;stroke-width:1.1582;stroke-dasharray:none;stroke-opacity:1" />
    <path
       d="m 474.84,405.7 1.69,-2.42 7.11,0.79 4.15,-5.65 4.51,9.26 5.22,-3.18 5.33,2.38 4.38,-4.33 4.63,3.3 11.33,-1.02 3.22,5.3 -2.58,5.12 5.34,10.89 -1.43,7.72 -6.04,-4.7 -5.06,-0.23 -8.58,10.37 -4.6,-1.1 -4.34,8.44 -7.79,-4.41 2.2,-6.14 -0.63,-4.98 -8.65,-4.26 -3.52,-4 3.58,-5.4 -4.88,-10.14 z"
       id="M07466"
       style="fill:#ffff80;fill-opacity:1;stroke:#000000;stroke-width:1.1582;stroke-dasharray:none;stroke-opacity:1" />
    <path
       d="m 513.45,458.33 -7.01,2.42 -6.62,-2.73 -0.7,-11.38 4.34,-8.44 4.6,1.1 8.58,-10.37 5.06,0.23 6.04,4.7 -14.47,15.14 z"
       id="M07465"
       style="fill:#ffff80;fill-opacity:1;stroke:#000000;stroke-width:1.1582;stroke-dasharray:none;stroke-opacity:1" />
    <path
       d="m 499.82,458.02 -9.88,1.18 -8.31,-4.22 -1.25,-6.11 -11.07,-3.93 3.05,-9.41 -5.55,-1.8 -10.9,-6.61 7.5,-4.52 15.34,-1.25 1.98,1.5 3.52,4 8.65,4.26 0.63,4.98 -2.2,6.14 7.79,4.41 z"
       id="M07464"
       style="fill:#ffff80;fill-opacity:1;stroke:#000000;stroke-width:1.1582;stroke-dasharray:none;stroke-opacity:1" />
    <path
       d="m 348.46,415.83 15.16,2.65 9.1,-4.87 13.66,-2.05 0.23,-7.48 4.77,-1.31 2.81,-7.17 4.15,-1.59 13.78,14.14 6.06,2.34 10.44,10.51 7.16,4.53 -0.93,4.54 7.12,3.78 3.67,4.43 -4.27,9.92 -4.59,5.58 0.41,4.02 -3.52,7.77 -6.41,1.44 0.16,4.39 -7.27,1.79 -5.85,-6.46 -3.81,1.22 -10.79,-8.99 -5.66,-0.29 -9.95,-3.07 -3.59,0.7 -4.44,-5.01 -9.61,-4.03 -4.21,1.53 -21.86,-4.45 -0.79,-2.57 1.15,-4.1 -1.75,-10.1 z"
       id="M07461"
       style="fill:#ffff80;fill-opacity:1;stroke:#000000;stroke-width:1.1582;stroke-dasharray:none;stroke-opacity:1" />
    <path
       d="m 601.2,527.4 -4.57,3.58 1.79,5.65 5.14,5.08 1.64,10.8 -7.63,4.21 -2.79,-3.76 -7.13,-2.4 -9.67,0.26 -9.68,-4.89 -11.71,-3.08 -8.91,-6.19 10.46,-12.1 -0.86,-5.47 -5.14,-4.71 -5.19,-9.95 -4.59,-8.26 -1.7,-8.15 1.8,-4.07 5.2,-2.36 7.21,0.04 9.72,-0.31 3.06,-3.43 4.09,2.63 5.03,7.27 4.27,3.28 4.99,-1.32 6.64,4.8 0.92,7.58 -1.74,2.92 3.03,7.25 -0.55,9.91 z"
       id="M07484"
       style="fill:#ffff80;fill-opacity:1;stroke:#000000;stroke-width:1.1582;stroke-dasharray:none;stroke-opacity:1" />
    <path
       d="m 552.14,514.38 5.14,4.71 0.86,5.47 -10.46,12.1 8.91,6.19 11.71,3.08 9.68,4.89 9.67,-0.26 7.13,2.4 2.79,3.76 -1.06,11.13 6.42,6.39 -0.59,4.39 5.92,8.66 -7.57,5.7 -12.77,5.82 -3.18,-0.33 -4.15,8.03 -5.54,-1.53 -4.35,-9.25 -9.78,-3.24 -0.5,-4.85 -7.66,-5.53 -3.34,0.36 -6.38,-15.56 -3.62,-4.63 -8.25,-2.56 0.83,5.71 -1.35,12.27 -6.55,7.29 -8.39,-4.19 -1.92,-4.33 -7.85,1.68 -5.31,-3.75 -3.58,-9.5 -11.57,-7.67 -6.31,-2.27 0.87,-4.8 10.38,-0.9 2.13,3.7 8.33,-1.37 10.23,-7.5 4.16,-9.1 11.13,8.3 2.53,-4.63 -0.76,-12.48 4.08,-1.96 -2.58,-5.74 4.39,-2.7 1.48,5.97 z"
       id="M07483"
       style="fill:#ffff80;fill-opacity:1;stroke:#000000;stroke-width:1.1582;stroke-dasharray:none;stroke-opacity:1" />
    <path
       d="m 479.17,554.96 6.31,2.27 11.57,7.67 3.58,9.5 5.31,3.75 7.85,-1.68 1.92,4.33 8.39,4.19 6.55,-7.29 1.35,-12.27 -0.83,-5.71 8.25,2.56 3.62,4.63 6.38,15.56 3.34,-0.36 7.66,5.53 0.5,4.85 9.78,3.24 4.35,9.25 5.54,1.53 -3.89,3.98 -1.01,5.09 -5.85,3.99 -5.95,0.17 0.11,4.97 -9.63,9.29 -5.61,-5.91 -5.89,-9.29 -3.63,1.69 -7.41,-7.86 -4.47,0.4 -10.96,-3.48 -2.82,-9.19 0.57,-7.94 -2.85,-7.51 -7.91,-0.37 -9.59,-4.42 -0.93,-7.68 -8.14,-10.23 -8.13,-4.36 z"
       id="M07482"
       style="fill:#ffff80;fill-opacity:1;stroke:#000000;stroke-width:1.1582;stroke-dasharray:none;stroke-opacity:1" />
    <path
       d="m 462.92,518.52 6.63,3.19 3.82,-5.91 8.3,-3.11 8.51,-0.02 0.05,-11.87 10.45,-4.97 6.05,1.3 -1.39,-6.94 1.4,-5.73 7.87,-3.89 4.22,3.99 8.23,-0.24 0.88,7.69 11.76,8.43 0.18,6.17 7.07,-2.18 5.19,9.95 -16.6,7.37 -1.48,-5.97 -4.39,2.7 2.58,5.74 -4.08,1.96 0.76,12.48 -2.53,4.63 -11.13,-8.3 -4.16,9.1 -10.23,7.5 -8.33,1.37 -2.13,-3.7 -10.38,0.9 -0.87,4.8 -2.57,2.89 -4.51,2.7 -13.75,-10.47 5.3,-6.97 -3.91,-5.43 3.01,-5.43 -4.57,-8.99 z"
       id="M07481"
       style="fill:#ffff80;fill-opacity:1;stroke:#000000;stroke-width:1.1582;stroke-dasharray:none;stroke-opacity:1" />
    <path
       d="m 588.13,144.64 8.37,-2.86 2.09,5.94 7.26,7.3 2.53,-5.88 7.41,-7.49 9.1,2.05 5.24,-0.94 7.26,5.41 -5.11,2.31 7.35,11.58 -1,10.91 1.65,14.04 3.59,4.86 9.33,8.14 8.17,2.14 3.41,4.32 -5.46,10.86 -5.14,-1.21 -6.41,15.05 -4.94,-6.72 4.43,-10.46 -3.93,-4.36 -6.11,1.32 -7.97,6.68 -5.17,-18.1 -4.23,-2.08 -6.71,0.88 -7.87,-3.15 -7.53,-13.2 -5.63,-6.36 5.76,-3.76 -2.85,-6.97 -5.82,-2 z"
       id="M07308"
       style="fill:#ffff80;fill-opacity:1;stroke:#000000;stroke-width:1.1582;stroke-dasharray:none;stroke-opacity:1" />
    <path
       d="m 610.43,37.6 -2.43,5.52 1.15,4 -3.72,4.67 3,8.68 -4.67,-0.42 -2.71,4.65 -5.79,0.01 -7.11,-1.99 -2.37,-6.08 -16.37,-5.74 -6.21,-5.56 0.25,-3.54 6.07,-2.55 5.79,0.59 2.56,-2.86 6.41,0.65 16.33,-3.71 7.02,4.47 z"
       id="M07303"
       style="fill:#ffff80;fill-opacity:1;stroke:#000000;stroke-width:1.1582;stroke-dasharray:none;stroke-opacity:1" />
    <path
       d="m 595.26,64.71 0.4,6.57 -9.59,5.41 -20.85,4.21 -4.35,-0.08 -4.38,-7.33 1.46,-7.4 -6.83,-5.67 -0.04,-4.45 5.16,-6.47 -1.04,-4.61 6.67,-4 1.58,0.91 -0.25,3.54 6.21,5.56 16.37,5.74 2.37,6.08 z"
       id="M07301"
       style="fill:#ffff80;fill-opacity:1;stroke:#000000;stroke-width:1.1582;stroke-dasharray:none;stroke-opacity:1" />
    <path
       d="m 711.3,276.98 -6.82,-1.13 -2.56,-3.62 -6.02,-1.06 -3.22,2.1 -5.08,-3.71 -3.56,1.87 -7.51,-7.15 -9.65,-2.5 -12.16,-6.36 -4.44,-0.73 5.65,-10.67 -4,-1.36 -6,-6.54 0.76,-2.55 7.44,-0.32 8.99,1.57 8.09,3.91 9.66,-2.87 7.67,0.11 3.29,3.25 6.98,-2.35 11.27,-0.15 5.17,-2.41 0.14,8.01 2.95,10.01 -1.08,4.61 -6.54,0.38 2.65,15.68 z"
       id="M07548"
       style="fill:#ffff80;fill-opacity:1;stroke:#000000;stroke-width:1.1582;stroke-dasharray:none;stroke-opacity:1" />
    <path
       d="m 702.45,194.98 4.06,2.7 1.74,5.56 4.82,3.73 1.41,5.31 0.42,12.86 12.82,6.81 2.01,8.89 7.3,4.09 7.6,1.39 1.82,-4.77 5.87,-1.72 11.4,6.77 9.69,1.85 7.75,4.02 14.52,-3.26 3.32,16.29 -2.32,9.03 -7.57,-2.07 -2.14,-2.66 -8.58,-0.89 -6.72,4.51 -8.44,3.56 -3.77,7.78 -9.89,2.2 -4.82,-3.22 -8.87,2.68 0.36,5.87 -5.89,1.59 -4.19,5.19 -7.2,-0.48 -3.48,-18.19 -4.18,-3.42 2.07,-3.98 -2.65,-15.68 6.54,-0.38 1.08,-4.61 -2.95,-10.01 -0.14,-8.01 -5.17,2.41 -11.27,0.15 -6.98,2.35 -3.29,-3.25 -7.67,-0.11 -9.66,2.87 -8.09,-3.91 -8.99,-1.57 -7.44,0.32 1.08,-2.4 6.41,-15.05 5.14,1.21 5.46,-10.86 -3.41,-4.32 14.97,-0.27 7.08,2.8 5.03,-1.46 4.73,3.26 8.83,-5.82 z"
       id="M07547"
       style="fill:#ffff80;fill-opacity:1;stroke:#000000;stroke-width:1.1582;stroke-dasharray:none;stroke-opacity:1" />
    <path
       d="m 736.24,292.29 -0.36,-5.87 8.87,-2.68 4.82,3.22 9.89,-2.2 3.77,-7.78 8.44,-3.56 6.72,-4.51 8.58,0.89 2.14,2.66 7.57,2.07 0.6,6.73 -1.33,14.39 -6.52,0.08 -5.82,-3.71 -5.27,7.58 -11.58,0.9 -10.17,-2.42 -14.96,-0.76 z"
       id="M07546"
       style="fill:#ffff80;fill-opacity:1;stroke:#000000;stroke-width:1.1582;stroke-dasharray:none;stroke-opacity:1" />
    <path
       d="m 721.54,316.97 -0.51,-10.47 -2.07,-7.91 7.2,0.48 4.19,-5.19 5.89,-1.59 5.39,5.03 14.96,0.76 10.17,2.42 11.58,-0.9 5.27,-7.58 5.82,3.71 6.52,-0.08 -0.62,11.26 0.94,17.51 -7.58,-2.01 -6.96,1.55 -10.1,-3.66 -21.75,1.08 -7.06,2.75 -9.23,-1.82 -4.59,-3.64 z"
       id="M07545"
       style="fill:#ffff80;fill-opacity:1;stroke:#000000;stroke-width:1.1582;stroke-dasharray:none;stroke-opacity:1" />
    <path
       d="m 663.48,353.05 -1.94,-7.85 -7.46,-12.29 1.58,-5.38 -2.08,-3.86 6.78,-7.88 -0.37,-4.28 5.72,-3.93 5.16,1.9 1,3.97 5.29,0.4 16.97,6.42 8.56,-0.77 8.25,3.81 6.7,1.29 0.48,-5.74 3.42,-1.89 7.46,1.7 4.59,3.64 9.23,1.82 -1.23,5.51 1.57,10.47 2.64,3.25 -4.95,3.71 -1.76,4.6 1.99,11.57 -7.85,4.09 0.54,3.46 -4.74,4.83 -7.75,1.57 -2.63,8.12 -6.54,-1.48 -9.69,5.02 -3.28,-0.93 -8.33,-7.05 2.36,-9.31 -5.59,-1.76 -0.57,-4.41 -5.29,-1.28 -9.72,0.95 -6.26,-5.99 z"
       id="M07544"
       style="fill:#ffff80;fill-opacity:1;stroke:#000000;stroke-width:1.1582;stroke-dasharray:none;stroke-opacity:1" />
    <path
       d="m 742.82,324.13 7.06,-2.75 21.75,-1.08 10.1,3.66 6.96,-1.55 7.58,2.01 0.55,5.1 -3.66,12.13 -1.28,8.6 1.22,4.48 -10.39,1.23 -3.85,4.06 -3.07,-3.19 -9.39,-3.99 -8.14,-1.33 -3.29,-6.64 -9.17,-1.51 -2.64,-3.25 -1.57,-10.47 z"
       id="M07543"
       style="fill:#ffff80;fill-opacity:1;stroke:#000000;stroke-width:1.1582;stroke-dasharray:none;stroke-opacity:1" />
    <path
       d="m 729.33,395.16 -1.47,-6.65 -3.21,-3.49 4.38,-9.4 4.74,-4.83 -0.54,-3.46 7.85,-4.09 -1.99,-11.57 1.76,-4.6 4.95,-3.71 9.17,1.51 3.29,6.64 8.14,1.33 9.39,3.99 3.07,3.19 3.85,-4.06 10.39,-1.23 -6.05,29.81 -0.33,10.41 -10.49,-1.16 -10.94,1.54 -9.79,-3.13 -8.69,1.37 -5.55,-2.72 -7.82,5.15 z"
       id="M07542"
       style="fill:#ffff80;fill-opacity:1;stroke:#000000;stroke-width:1.1582;stroke-dasharray:none;stroke-opacity:1" />
    <path
       d="m 781.32,425.59 -13.58,-2.93 -5.01,1.74 -8.82,-5.14 -13.59,-10.03 -1.28,-3.24 -10.99,-0.26 -3.39,-3.74 4.67,-6.83 4.11,0.84 7.82,-5.15 5.55,2.72 8.69,-1.37 9.79,3.13 10.94,-1.54 10.49,1.16 -0.32,6.79 -4.19,14.91 z"
       id="M07541"
       style="fill:#ffff80;fill-opacity:1;stroke:#000000;stroke-width:1.1582;stroke-dasharray:none;stroke-opacity:1" />
    <path
       d="m 533.86,236.07 -1.9,3.35 -7.18,1.12 -4.89,5.07 -10.75,4.08 -5.16,-1.69 -5.68,4.2 -6.98,0.73 -0.11,-4.67 -5.83,-3.33 -3.2,-13.1 -4.64,-5 0.89,-3.83 -4.3,-10.52 4.03,-9.24 0.8,-11.42 17.88,3.7 5.74,2.22 -0.83,7.29 -3.52,4.41 5.61,5.93 4.78,11.09 7.73,-3.33 9.98,1.64 3.91,9.1 z"
       id="M07322"
       style="fill:#ffff80;fill-opacity:1;stroke:#000000;stroke-width:1.1582;stroke-dasharray:none;stroke-opacity:1" />
    <path
       d="m 637.39,148.17 3.26,-11.02 5.71,-10.4 7.6,-1.61 1.77,-2.82 9.95,-0.92 11.55,-0.13 5.68,-5.01 12.63,2.76 13.35,5.8 4.21,6.16 1.29,6.41 -12.71,8.01 4.12,3.22 -1.28,10.04 -2.62,3.83 4.82,2.79 -1.74,7.84 5.26,13.69 -3.73,8.03 -4.06,0.14 -0.44,5.68 -8.83,5.82 -4.73,-3.26 -5.03,1.46 -7.08,-2.8 -14.97,0.27 -8.17,-2.14 -9.33,-8.14 -3.59,-4.86 -1.65,-14.04 1,-10.91 -7.35,-11.58 z"
       id="M07564"
       style="fill:#ffff80;fill-opacity:1;stroke:#000000;stroke-width:1.1582;stroke-dasharray:none;stroke-opacity:1" />
    <path
       d="m 763.79,73.21 -5.78,2.09 -10.49,0.84 -5.15,-2.65 -10.58,-1.56 -12.64,1.04 -1.54,-3.93 3.44,-3.78 0.89,-5.87 -2.61,-3.96 0.71,-8.81 5.91,-2.97 11.9,-3.54 1.26,2.88 12.71,0.79 0.96,8.39 3.28,9.91 5.46,5.55 z"
       id="M07561"
       style="fill:#ffff80;fill-opacity:1;stroke:#000000;stroke-width:1.1582;stroke-dasharray:none;stroke-opacity:1" />
    <path
       d="m 616.51,439.26 12.81,13.13 8.11,17.16 1.02,5.3 -4.82,3.21 2.19,4.62 -7.5,4.06 1.01,6.47 -7.93,4.92 -1.43,14.53 -5.98,2.92 -3.14,5.05 -9.65,6.77 -6.87,-5.19 0.55,-9.91 -3.03,-7.25 1.74,-2.92 -0.92,-7.58 -6.64,-4.8 -4.99,1.32 -4.27,-3.28 -5.03,-7.27 -4.09,-2.63 3.27,-4.09 -5.09,-9.19 5.35,-0.56 7.48,-4.86 3.34,-5.37 -2.09,-5.92 5.34,-3.77 -0.12,-5.53 7.68,0.4 3.37,-5.17 6.92,2.43 2.94,4.02 z"
       id="M07505"
       style="fill:#ffff80;fill-opacity:1;stroke:#000000;stroke-width:1.1582;stroke-dasharray:none;stroke-opacity:1" />
    <path
       d="m 514.61,480.57 4.36,-5.14 12.2,-9.39 -1.26,-4.8 3.57,-2.2 12.19,6.9 7.08,-0.42 2.12,16.11 -7.21,-0.04 -5.2,2.36 -1.8,4.07 1.7,8.15 4.59,8.26 -7.07,2.18 -0.18,-6.17 -11.76,-8.43 -0.88,-7.69 -8.23,0.24 z"
       id="M07504"
       style="fill:#ffff80;fill-opacity:1;stroke:#000000;stroke-width:1.1582;stroke-dasharray:none;stroke-opacity:1" />
    <path
       d="m 576.81,386.58 1.56,-3.85 5.08,-1.1 4.6,-3.47 5.12,-0.41 6.52,5.27 1.92,6.01 6.04,-1.88 4.76,4.6 -2.5,9.7 1.96,5.55 5.11,6.93 -2.89,0.8 0.38,8.45 -2.89,4.9 3.67,4.92 1.26,6.26 -10.47,1.02 -2.94,-4.02 -6.92,-2.43 -3.37,5.17 -7.68,-0.4 -2.95,-0.8 -3.15,-7.99 -4.52,0.28 -7.53,-9.72 7.61,-15.19 -2.31,-3.97 z"
       id="M07503"
       style="fill:#ffff80;fill-opacity:1;stroke:#000000;stroke-width:1.1582;stroke-dasharray:none;stroke-opacity:1" />
    <path
       d="m 523.19,404.83 -1.98,-12.22 4.25,-0.64 10.58,3.08 1.04,6.63 9.39,-0.26 4.11,2.65 11.78,-0.57 2.43,-11.51 8.51,-1.18 3.51,-4.23 -4.53,14.63 2.31,3.97 -7.61,15.19 -8.48,-5.27 -11.21,4.8 -7.39,0.38 -10.73,5.86 -5.34,-10.89 2.58,-5.12 z"
       id="M07502"
       style="fill:#ffff80;fill-opacity:1;stroke:#000000;stroke-width:1.1582;stroke-dasharray:none;stroke-opacity:1" />
    <path
       d="m 529.91,461.24 -9.29,-5.15 -7.17,2.24 -0.18,-9.33 14.47,-15.14 1.43,-7.72 10.73,-5.86 7.39,-0.38 11.21,-4.8 8.48,5.27 7.53,9.72 4.52,-0.28 3.15,7.99 2.95,0.8 0.12,5.53 -5.34,3.77 2.09,5.92 -3.34,5.37 -7.48,4.86 -5.35,0.56 5.09,9.19 -3.27,4.09 -3.06,3.43 -9.72,0.31 -2.12,-16.11 -7.08,0.42 -12.19,-6.9 z"
       id="M07501"
       style="fill:#ffff80;fill-opacity:1;stroke:#000000;stroke-width:1.1582;stroke-dasharray:none;stroke-opacity:1" />
    <path
       d="m 594.1,328.52 4.7,-0.36 5,6.6 6.14,3.53 18.78,3.77 3.07,9.33 -5.32,10.11 0.38,8.69 4.06,5.86 6.81,-0.91 2.05,-4.89 9.22,0.05 2.02,5.07 -3.51,5.01 -1.18,18.09 -6.38,4.76 -2.28,-1.44 -6.47,5.65 -14.21,6.49 -5.11,-6.93 -1.96,-5.55 2.5,-9.7 -4.76,-4.6 -6.04,1.88 -1.92,-6.01 -6.52,-5.27 -1.01,-9.59 1.69,-2.42 0.83,-9.97 -9.91,-10.04 7.05,-15.02 z"
       id="M07522"
       style="fill:#ffff80;fill-opacity:1;stroke:#000000;stroke-width:1.1582;stroke-dasharray:none;stroke-opacity:1" />
    <path
       d="m 559.25,266.43 1.62,-1.97 10.54,0.15 4.7,-10.05 4.58,2.59 6.89,-6.71 5.79,5.3 1.9,8.91 -6.99,10.52 -2.74,-5.35 -6.89,-1.78 -0.32,7.02 -3.76,-0.14 -3.67,5.38 8.75,3.55 -4.17,10.08 1.1,5.7 -5.42,1.13 5.64,7.58 -0.08,6.9 -10.83,1.09 -2.6,9.47 -4.27,-0.74 0.32,-9.6 -10.43,2.09 -4.03,-3.2 3.46,-4.46 -4.95,-8.38 -5.09,-2.3 0.19,-5.22 6.37,2.31 0.92,-4.79 4.82,-1.8 5.29,3.29 1.69,-6.54 -2.79,-5.09 z"
       id="M07521"
       style="fill:#ffff80;fill-opacity:1;stroke:#000000;stroke-width:1.1582;stroke-dasharray:none;stroke-opacity:1" />
  </g>
</svg>
