<?xml version="1.0" encoding="UTF-8" standalone="no"?>
<svg
   version="1.2"
   width="505.2215"
   height="599.99994"
   viewBox="0 0 505.2215 599.99994"
   stroke-linecap="round"
   stroke-linejoin="round"
   id="svg1481"
   sodipodi:docname="gi.svg"
   inkscape:version="1.2 (dc2aedaf03, 2022-05-15)"
   xmlns:inkscape="http://www.inkscape.org/namespaces/inkscape"
   xmlns:sodipodi="http://sodipodi.sourceforge.net/DTD/sodipodi-0.dtd"
   xmlns="http://www.w3.org/2000/svg"
   xmlns:svg="http://www.w3.org/2000/svg">
  <defs
     id="defs1485" />
  <sodipodi:namedview
     id="namedview1483"
     pagecolor="#505050"
     bordercolor="#eeeeee"
     borderopacity="1"
     inkscape:showpageshadow="0"
     inkscape:pageopacity="0"
     inkscape:pagecheckerboard="0"
     inkscape:deskcolor="#505050"
     showgrid="false"
     inkscape:zoom="0.87263158"
     inkscape:cx="250.96502"
     inkscape:cy="300.24125"
     inkscape:window-width="1920"
     inkscape:window-height="1009"
     inkscape:window-x="-8"
     inkscape:window-y="-8"
     inkscape:window-maximized="1"
     inkscape:current-layer="svg1481" />
  <g
     id="gi"
     transform="matrix(0.63185654,0,0,0.63185654,-0.13186451,-0.13186192)"
     style="fill:#ffff80;fill-opacity:1;stroke:#000000;stroke-width:1.58264;stroke-dasharray:none;stroke-opacity:1">
    <path
       d="m 454.86,657.4 5.51,2.1 -1.91,14.13 -7.44,13.95 -6.85,3.13 -1.45,6.18 6.45,4.67 2.58,6.89 7.35,0.87 12.35,6.21 -1.89,14.1 -0.08,0.66 -6.58,6.4 -11.48,-3.76 -10.95,5.62 -12.63,0.71 -2.94,4.28 -3.12,-7.26 -15.35,-8.64 -8.71,3.98 1.93,-15.54 12.15,-2.07 16.13,-10.92 -8.12,-15.31 -3.11,-0.02 0.33,-6.71 13.41,-13.96 7.51,-1.89 4.18,-9.66 4.58,2.59 z"
       id="M21211"
       style="fill:#ffff80;fill-opacity:1;stroke:#000000;stroke-width:1.58264;stroke-dasharray:none;stroke-opacity:1" />
    <path
       d="m 755.19,764.84 1.58,7.04 11.86,7.8 -0.2,9.63 2.63,7.96 -0.59,16.7 -6.39,0.39 -1.72,4.83 -15.95,10.04 -1.47,10.59 2.61,4.98 -10.83,5.1 -12.81,-2.64 -4.21,10.18 -10.2,7.78 -11.6,3.99 -8.39,8.74 -5.1,0.44 -6.57,4.83 -4.26,6.81 -5.69,-1.95 -4.71,-9.62 -4.57,3.91 -4.6,-4.75 -7.44,1.04 -2.91,-4.69 1.12,-8.53 -13.44,-1.61 -10.38,2.22 -2.41,-4.76 2.72,-6.53 -11.02,-4.79 -10.21,-7.61 11.67,-2.76 -1.18,-5.87 6.77,-7.31 1.76,-8.89 -3.64,-4.93 -20.96,1.75 2.04,-6.17 18.81,-26.14 6.31,-13.68 -2.25,-6.81 5.48,-10.75 -9.73,-5.67 -1.01,-9.33 -3.52,-2.32 -8.38,1.4 -6.92,-6.14 -2.68,-7.28 -5.42,8.43 -7.64,-1.77 -5.54,-8.72 -7.35,-0.48 2.18,-7.83 9.78,-14.55 9.1,-8.85 -4.16,-7.84 -6.21,-5.55 9.46,-3.04 8.9,-0.68 5.84,-2.96 7.42,0.63 10.5,-8.91 0.66,6.55 4.9,4.97 -1.78,13.74 11.94,5.96 13.43,-2.57 2.08,4.63 -3.25,6.55 1.88,7.73 10.79,2.2 4.12,-1.24 8.38,5.81 5.05,9.07 11.79,13.8 20.75,-0.79 -2.58,7.48 -5.24,2.3 -13.07,0.43 -9.99,2.86 -5.79,4.36 4.95,13.49 7.48,7.88 6.54,11.37 14.91,5.11 9.71,-7.44 17.27,-2.96 2.69,-4.34 8.4,-4.38 -0.08,-4.43 5.55,-4.91 z"
       id="M21210"
       style="fill:#ffff80;fill-opacity:1;stroke:#000000;stroke-width:1.58264;stroke-dasharray:none;stroke-opacity:1" />
    <path
       d="m 278.23,804.1 -14.89,32.19 -12.83,15.4 -5.92,13.8 -10.53,12.5 -11.99,-11.69 9.03,-8.56 2.62,-6.14 -2.85,-9.94 -4.16,-10.87 2.22,-7.89 9.37,-6.68 2.03,-12.79 -0.15,-4.63 6.64,-3.15 6.5,3.9 10.42,-3.77 2.12,5.56 z"
       id="M21209"
       style="fill:#ffff80;fill-opacity:1;stroke:#000000;stroke-width:1.58264;stroke-dasharray:none;stroke-opacity:1" />
    <path
       d="m 566.66,718.92 7.35,0.48 5.54,8.72 7.64,1.77 5.42,-8.43 2.68,7.28 6.92,6.14 8.38,-1.4 3.52,2.32 1.01,9.33 9.73,5.67 -5.48,10.75 2.25,6.81 -6.31,13.68 -18.81,26.14 -2.04,6.17 20.96,-1.75 3.64,4.93 -1.76,8.89 -6.77,7.31 1.18,5.87 -11.67,2.76 -14.61,2.45 -4.14,-2.07 3.06,-20.31 -21.1,-8.59 -0.91,-5.57 -13.75,-13.6 2.03,-7.73 -3.41,-17.55 -13.32,-7.26 -1.05,-5.36 7.85,-9.64 -4.3,-9.12 -0.29,-8.19 3.15,-14.68 6.46,-3.57 8.26,1.23 3.34,10.43 z"
       id="M21208"
       style="fill:#ffff80;fill-opacity:1;stroke:#000000;stroke-width:1.58264;stroke-dasharray:none;stroke-opacity:1" />
    <path
       d="m 408.74,611.16 0.2,10.11 -6.75,13.14 0.01,7.73 -6.82,7.37 2.62,8.15 -8.98,2.78 -7.74,13.26 -6.08,3.63 -10.86,-3.01 -4.56,11.75 -7.22,-4.99 -11.34,-4.88 -1.02,-7.96 -3.81,-7.7 -6.63,-2.86 -2.34,-8.61 5.21,-6.47 -3.44,-15.78 6.84,-12.48 1.2,-17.49 8.55,-0.87 -0.46,-7.4 5.92,-3.78 10.76,4.98 3.1,12.55 5.03,3.5 2.28,7.53 5.45,7.98 9.89,1.66 5.86,-11.57 11.83,-1.89 z"
       id="M21207"
       style="fill:#ffff80;fill-opacity:1;stroke:#000000;stroke-width:1.58264;stroke-dasharray:none;stroke-opacity:1" />
    <path
       d="m 755.19,764.84 -4.23,-2.27 -5.55,4.91 0.08,4.43 -8.4,4.38 -2.69,4.34 -17.27,2.96 -9.71,7.44 -14.91,-5.11 -6.54,-11.37 -7.48,-7.88 -4.95,-13.49 5.79,-4.36 9.99,-2.86 13.07,-0.43 5.24,-2.3 2.58,-7.48 -20.75,0.79 -11.79,-13.8 -5.05,-9.07 -8.38,-5.81 -4.12,1.24 -10.79,-2.2 -1.88,-7.73 3.25,-6.55 -2.08,-4.63 -13.43,2.57 -11.94,-5.96 1.78,-13.74 -4.9,-4.97 -0.66,-6.55 3.93,-10.75 12.17,-2.88 9.82,3.57 7.43,-8.15 -0.01,-4.28 -6.49,-11.4 3.07,-9.25 6.49,-4.39 4.91,-8.55 -1.25,-7.94 -5.69,-6.24 4.89,-7.19 -2.05,-3.46 -18.87,-7.78 -11.16,-16.18 -5.94,-0.89 -1.48,-8.18 -5.88,-2.57 -1.29,-21.54 3,-16.71 5.95,-6.67 9.34,-15.91 12.16,-3.81 6.14,1.94 4.73,16.6 6.47,-1.34 7.49,2.08 9.41,11.32 11.26,-2.04 3.01,3.6 0.46,9.02 3.07,5.71 8.35,7.93 0.48,13.74 7.34,6.63 -0.86,5.54 12.8,7.9 9.37,8.31 5.85,10.53 -4.22,9.11 -5.82,1.68 -3.2,11.85 -5.13,8.13 14.22,16.59 4.56,-1.75 11.2,1.57 2.9,3.68 -3.39,9.62 3.79,2.71 1.97,12.92 16.25,9.87 2.77,-2.03 14.12,17.59 -4.08,5.92 2.93,16.56 -0.68,7.19 -5.88,-0.35 -14.61,14.89 12.87,11.46 3.87,13.5 5.85,0.85 0.96,8.32 -8.87,5.2 -16.11,-1.34 z"
       id="M21206"
       style="fill:#ffff80;fill-opacity:1;stroke:#000000;stroke-width:1.58264;stroke-dasharray:none;stroke-opacity:1" />
    <path
       d="m 399.65,716.08 -1.93,15.54 -3.43,11.36 -3.06,0.89 -3.68,1.46 -14.98,-7.57 -6.74,-5.87 -13.35,1.13 2.13,-9.06 -9.1,-4.97 -5.6,0.87 -5.36,-4.38 -7.73,4.21 3.46,-25.93 2.59,-5.29 -4.41,-3.75 -8.22,-13 -6.42,-0.81 -3.19,-2.97 -0.31,-8.49 6.68,-8.93 -9.53,-9.23 -6.1,1.39 -2.52,-15.97 9.87,-11.16 -1.07,-32.71 -2.32,-3.38 -10.79,-5.21 -5.55,-0.29 -2.32,-11.24 -6.71,2.57 -9.9,-2.96 -3.55,-7 -7.12,-0.65 5.15,-12.17 -9.75,-5.07 -10.35,1.08 -5.25,-3.74 -3.17,-8.82 2.47,-18.22 -1.51,-8.4 -7.77,-4.63 -1.97,-4.95 3.43,-4.42 10.3,1.45 5.96,-3.51 5.81,1.53 6.12,-5.85 2.28,-5.68 9.63,5.07 7.77,-5.86 11.56,1.84 -0.14,4.75 8.78,0.47 3.07,10.44 7.35,-0.23 12.01,6.76 6.99,-0.76 -3.78,15.96 12.39,5.93 -0.86,15.78 -2.75,8.78 -5.24,7.86 9.03,11.9 2.62,9.21 6.71,4.44 4.96,9.18 -5.92,3.78 0.46,7.4 -8.55,0.87 -1.2,17.49 -6.84,12.48 3.44,15.78 -5.21,6.47 2.34,8.61 6.63,2.86 3.81,7.7 1.02,7.96 11.34,4.88 7.22,4.99 4.56,-11.75 10.86,3.01 6.08,-3.63 7.74,-13.26 8.98,-2.78 -2.62,-8.15 6.82,-7.37 -0.01,-7.73 6.75,-13.14 -0.2,-10.11 4.48,-2.86 -3.64,-16.08 18.93,-7.92 6.56,7.6 13.81,-5.78 3.75,-8.92 -3.51,-12.65 1.63,-9.6 7.14,4.64 10.06,3.31 1.05,4.06 9.6,-1.54 -1.6,15.56 -5.98,5.68 4.01,2.92 -0.97,10.12 -15.95,5.91 -6.17,21.4 2.85,6.45 7.74,9.76 -11.67,8.22 -4.15,6.69 -4.58,-2.59 -4.18,9.66 -7.51,1.89 -13.41,13.96 -0.33,6.71 -25.12,0.71 -1.12,5.76 3.12,8.8 3.96,3.26 -3.19,6.31 z"
       id="M21205"
       style="fill:#ffff80;fill-opacity:1;stroke:#000000;stroke-width:1.58264;stroke-dasharray:none;stroke-opacity:1" />
    <path
       d="m 505.47,781.21 7.96,14.99 -7.71,4.29 6.71,10.55 4.37,11.34 7.2,11.12 5.41,18.63 -6.02,5.01 -6.18,-8.45 -11.39,1.75 -8.27,-9.84 -17.75,-5.69 -1.22,6.47 -10.23,0.24 -0.89,-10.38 -4.42,0.09 -4.7,-9.98 5.17,-4.12 -6.52,-8.95 -6.88,3.32 -2.11,-3.74 2.08,-14.23 -1.3,-3.63 4.13,-2.97 0.23,-10.35 4.32,-6.26 7.94,4.8 1.77,8.11 9.01,2.45 6.12,-2.38 4.6,3.45 6.08,-10.91 z"
       id="M21204"
       style="fill:#ffff80;fill-opacity:1;stroke:#000000;stroke-width:1.58264;stroke-dasharray:none;stroke-opacity:1" />
    <path
       d="m 701.88,397.57 -5.78,-2.82 -16.23,-16.64 -2.78,-13.12 -6.96,-2.25 -3.28,-6.15 -9.75,1.67 -15.09,14.46 -7.39,2.1 0.62,-17.91 -7.51,-3.98 -3.82,-9 -3.95,-0.9 1.37,-8.78 -8.26,1.87 -1.77,3.54 -8.22,0.59 -10.73,5.19 -7.23,-2.04 -12.4,1.35 -8.58,-7.22 -7.01,-12.19 -0.37,-5.2 -14.21,-3.01 -14.28,-8.04 -14.71,11.39 -6.3,12.05 -10.29,5.77 -5.73,7.84 -2.31,9.24 -4.53,4.66 -0.9,7.46 8.09,5.18 -5.26,12.24 -5.71,4.15 -6.85,3.41 1.38,5.46 -1.61,10.67 -3.28,-0.46 -3.24,-9.72 -5.48,-3.41 -2.45,-12.06 2.15,-3.59 -6.49,-6.34 -5.44,-8.95 -5.23,4.84 -9.01,-4.97 -4.26,5.78 -4.85,1.07 -6.12,8.49 -8.64,15.59 -6.34,-5.1 0.3,-9.51 -2.34,-7.75 1.72,-5.9 -3.41,-3.58 -3.59,-11.92 -4.67,-0.87 -11.47,-13.36 -0.45,-5.33 -15.65,-9.01 -4.62,-6.77 -12.37,8.63 -16.97,5.23 -12.54,-1.06 -6.69,-3.52 -2.79,-9.23 -4.96,-4.06 1.69,-6.94 -3.92,-6.13 -10.4,-0.83 -5.3,-3.73 -2.21,-7.05 -0.1,-4.68 -5.87,-11.5 1.28,-6.41 5.1,-4.67 13.8,5.54 5.7,-5.83 5,0.38 6.28,8.8 15.26,-3.17 7.38,-5.54 7.34,2.25 15.75,-1.75 10.34,2.78 5.96,4.64 5.89,-7.76 -1.39,-4.92 12.31,-8.37 -3.48,-7.49 -5.8,-6.09 -0.35,-15.09 3.69,-4.75 4.63,-28.33 7.45,10.41 14.82,0.68 19.84,2.94 3.18,-4.74 10.59,1.04 7.29,-3.02 5.49,1.03 8.41,-12.34 9.51,-3.36 3.38,2.04 -0.21,9.65 4.22,9.84 4.69,4.83 8.44,-6.17 3.82,-6.57 6.39,0.39 3.59,-10.22 10.17,1.86 6.41,-7.45 7.94,4.64 1.79,-5.24 -5.33,-5.48 9.88,-7.96 0.03,-6.28 4.14,-4.43 11.16,1.11 1.83,-3.45 11.92,-5.94 8.13,-13.23 17.4,-0.13 12.93,-1.73 3.95,-7.56 16.32,2.11 4.28,-7.33 -0.82,-8.84 -5.57,-7.06 1.56,-4.49 -2.48,-7.87 3.47,-3.61 7.08,4.59 15.56,0.71 8.34,-5.32 -0.33,-7.56 2.85,-6.4 9.36,-1.35 4.71,2.88 15.7,-5.53 6.05,3.43 7.93,-8.36 14.72,0.63 9.79,-7.86 11.34,3.79 10.54,-3.97 5.52,2.42 -0.04,12.72 18.64,5.59 9.46,15.62 5.78,0.61 3.05,10.32 -2.22,22.31 0.56,5.33 -11.04,7.7 -8.18,11.12 -5.11,10.19 -5.56,4.18 -7.74,16.26 -5.83,1.43 1.24,10.46 3.44,6.17 8.21,3.57 -2.33,8.63 0.03,10.24 -13.54,7.73 -7.66,11.31 3.34,5.17 -5.58,14.8 12.48,15.3 11.87,5.5 2.34,3.67 6.63,-1.5 3.19,13.16 -8.94,11.8 1.1,10.5 -5.76,15.82 -9.06,7.79 -18.14,9.2 0.46,7.53 -6.8,7.72 -7.94,15.71 -7.73,-0.64 -4.54,8.47 z"
       id="M21203"
       style="fill:#ffff80;fill-opacity:1;stroke:#000000;stroke-width:1.58264;stroke-dasharray:none;stroke-opacity:1" />
    <path
       d="m 131.73,795.81 5.21,7.39 7.44,-1.25 7.07,10.55 -8.53,0.16 -8.1,8.01 9,14.46 -2.22,5.99 5.22,25.16 -8.14,5.05 -4.45,10.93 -13.45,-3.34 -1.44,3.43 -8.43,-1.81 -7.01,5.63 -7.57,9.11 -5.7,-9 -10.88,7.83 -18.83,-16.03 5.46,-6.28 2.55,-8.64 1.28,-13.54 -2.67,-6.58 6.69,-7.3 10.03,9.23 5.56,-8.87 15.04,-9.88 -0.1,-8.27 6.23,-13.05 3.57,0.77 5.17,-10.97 z m 48.4,-36.77 8.78,10.64 4.52,0.32 1.65,-8.43 6.99,0.54 -0.69,7.74 4.13,3.39 7.24,0.43 6.69,4.49 2.2,3.13 0.83,18.12 -3.31,8.87 -8.16,4.14 0.64,14.6 -12.1,8.08 -4.85,5.25 -7.64,-5.06 -1.81,-12.5 -3.73,-2.59 -5.52,-13.53 -10.04,-1.87 -2.39,-5.94 3.24,-4.77 -0.81,-8.02 -8.58,-5.47 1.44,-6.67 -1.57,-11.07 1.66,-3.27 8.23,-2.49 5.33,3.54 z m 60.05,39.76 0.15,4.63 -8.93,-0.86 -0.26,-14.34 10.3,0.28 z"
       fill-rule="evenodd"
       id="M21202"
       style="fill:#ffff80;fill-opacity:1;stroke:#000000;stroke-width:1.58264;stroke-dasharray:none;stroke-opacity:1" />
    <path
       d="m 263.74,795.78 -10.42,3.77 -6.5,-3.9 -6.64,3.15 1.26,-10.29 6.83,-8.56 2.04,-8.23 -7.35,-15.14 3.29,-7.11 -0.25,-18.31 -0.21,-11.15 -8.71,-8.96 1.61,-5.31 7.09,0.11 -3.36,-11.1 2.59,-7.66 -8.06,-4.69 3.98,-7.63 -3.77,-8.16 7.87,-3.75 7.1,7.48 5.09,8.56 6.69,2.12 4.38,6.87 6.09,-1.77 13.14,8.83 4.89,5.88 7.53,-0.74 4.8,4.17 7.25,-19.69 -0.91,-9.04 2.74,-4.62 6.42,0.81 8.22,13 4.41,3.75 -2.59,5.29 -3.46,25.93 7.73,-4.21 5.36,4.38 5.6,-0.87 9.1,4.97 -2.13,9.06 -5.76,5.73 -6.77,1.65 -0.74,6.42 -8.02,0.54 -1.75,-4.73 -11.26,3.14 -2.96,5.88 -2.72,22.17 -5.43,0.21 -10.19,-9.17 -9.96,4.87 -3.52,10.44 -10.54,10.65 z"
       id="M21201"
       style="fill:#ffff80;fill-opacity:1;stroke:#000000;stroke-width:1.58264;stroke-dasharray:none;stroke-opacity:1" />
    <path
       d="m 230.87,841.66 2.85,9.94 -2.62,6.14 -9.03,8.56 11.99,11.69 3.05,29.32 -6.28,7.85 -0.69,10.92 1.86,14.86 -3.87,8.06 -6.99,-14.14 -5.43,-3.38 -0.15,12.9 -17.7,-1.61 -1.76,-6.75 -9,-12.7 -6.87,-12.2 -6.21,-5.14 -7.4,-2.72 -2.86,-10.78 -5.73,-1.24 1.93,-6.74 -6.1,-6.47 -2,-6.54 9.75,-7.7 9.61,0.06 7.26,8.29 5.72,1.22 8.24,13.79 6.65,-8.6 4.38,-8.76 1.92,-9.14 12.96,-3.62 2.67,-4.27 -2.01,-7.63 z"
       id="M21221"
       style="fill:#ffff80;fill-opacity:1;stroke:#000000;stroke-width:1.58264;stroke-dasharray:none;stroke-opacity:1" />
    <path
       d="m 630.36,482 -9.34,15.91 -5.95,6.67 -3,16.71 1.29,21.54 -16.6,6.29 -1.12,4.83 -9.05,2.98 -9.87,-5.02 -10.68,6.27 -3.53,10.56 -14.55,-4.97 -7.83,3.08 -6.81,6.75 2.65,8.13 -5.52,6.17 -5.53,1.96 -5.04,5.71 -13.92,4.28 -3.23,4.54 -12.16,0.75 -4.19,2.14 -9.56,-3.02 -2.76,-4.56 0.97,-10.12 -4.01,-2.92 5.98,-5.68 1.6,-15.56 -9.6,1.54 -1.05,-4.06 -10.06,-3.31 -7.14,-4.64 0.33,-3.77 8.75,-3.22 1.36,-11.59 7.16,-4.08 9.04,-0.5 8.08,-5.71 7.71,-1.12 4.58,-3.65 -1.15,-12.76 0.94,-7.35 -2.34,-5.51 1.64,-19.54 -4.49,-20.97 3.8,-8.81 8.42,-3.56 6.81,3.91 5.52,-1.3 0.27,-9.54 -14.51,-16.02 -10.69,-20 -7.87,-2.77 -3.49,-8.02 5.71,-4.15 5.26,-12.24 -8.09,-5.18 0.9,-7.46 4.53,-4.66 2.31,-9.24 5.73,-7.84 10.29,-5.77 6.3,-12.05 14.71,-11.39 14.28,8.04 14.21,3.01 0.37,5.2 7.01,12.19 8.58,7.22 12.4,-1.35 7.23,2.04 10.73,-5.19 8.22,-0.59 1.77,-3.54 8.26,-1.87 -1.37,8.78 3.95,0.9 3.82,9 7.51,3.98 -0.62,17.91 7.39,-2.1 15.09,-14.46 9.75,-1.67 3.28,6.15 6.96,2.25 2.78,13.12 16.23,16.64 5.78,2.82 -0.88,9.51 -3.76,4.93 -9.76,3.1 -5.79,-2.56 -6.42,-8.72 -13.46,2.63 -19.53,6.43 -7.93,11.2 0.25,11.56 -6.28,12.85 -12.04,-1.06 -2.26,2.53 -3.55,20.46 3.65,2 2.3,7.52 10.12,-1.8 z"
       id="M21220"
       style="fill:#ffff80;fill-opacity:1;stroke:#000000;stroke-width:1.58264;stroke-dasharray:none;stroke-opacity:1" />
    <path
       d="m 408.74,611.16 -3.3,-1.62 -11.83,1.89 -5.86,11.57 -9.89,-1.66 -5.45,-7.98 -2.28,-7.53 -5.03,-3.5 -3.1,-12.55 -10.76,-4.98 -4.96,-9.18 -6.71,-4.44 -2.62,-9.21 -9.03,-11.9 5.24,-7.86 2.75,-8.78 0.86,-15.78 -12.39,-5.93 3.78,-15.96 -6.99,0.76 -12.01,-6.76 -7.35,0.23 -3.07,-10.44 3.84,-6.93 3.73,-25.05 7.64,1.07 5.62,-2.05 4.2,-8.63 -3.69,-12.28 -3.36,-3.45 2.06,-9.59 -5.84,-13.02 -8.27,-6.74 -7.53,-1.42 -1.53,-3.93 5.53,-9.43 -2.51,-5.55 -9.85,-1.12 -11.17,-4.47 0.35,-8.39 -2.2,-16.33 -13.13,-3.39 1.05,-9.86 3.2,-8.36 0.58,-19.32 5.25,-8.66 11.51,-5.56 2.21,7.05 5.3,3.73 10.4,0.83 3.92,6.13 -1.69,6.94 4.96,4.06 2.79,9.23 6.69,3.52 12.54,1.06 16.97,-5.23 12.37,-8.63 4.62,6.77 15.65,9.01 0.45,5.33 11.47,13.36 4.67,0.87 3.59,11.92 3.41,3.58 -1.72,5.9 2.34,7.75 -0.3,9.51 6.34,5.1 8.64,-15.59 6.12,-8.49 4.85,-1.07 4.26,-5.78 9.01,4.97 5.23,-4.84 5.44,8.95 6.49,6.34 -2.15,3.59 2.45,12.06 5.48,3.41 3.24,9.72 3.28,0.46 1.61,-10.67 -1.38,-5.46 6.85,-3.41 3.49,8.02 7.87,2.77 10.69,20 14.51,16.02 -0.27,9.54 -5.52,1.3 -6.81,-3.91 -8.42,3.56 -3.8,8.81 4.49,20.97 -1.64,19.54 2.34,5.51 -0.94,7.35 1.15,12.76 -4.58,3.65 -7.71,1.12 -8.08,5.71 -9.04,0.5 -7.16,4.08 -1.36,11.59 -8.75,3.22 -0.33,3.77 -1.63,9.6 3.51,12.65 -3.75,8.92 -13.81,5.78 -6.56,-7.6 -18.93,7.92 3.64,16.08 z"
       id="M21219"
       style="fill:#ffff80;fill-opacity:1;stroke:#000000;stroke-width:1.58264;stroke-dasharray:none;stroke-opacity:1" />
    <path
       d="m 227.24,489.76 1.97,4.95 7.77,4.63 1.51,8.4 -2.47,18.22 3.17,8.82 5.25,3.74 -0.5,18.89 -2.89,5.03 1.68,6.89 -2.32,9.31 -8.15,4.19 1.17,12.06 -6.8,8.41 2.25,11.46 -3.24,5.64 3.33,8.61 8.26,10.09 0.78,12.46 7.02,11.3 -7.87,3.75 3.77,8.16 -3.98,7.63 8.06,4.69 -2.59,7.66 3.36,11.1 -7.09,-0.11 -1.61,5.31 8.71,8.96 0.21,11.15 -11.35,5.13 1.39,14.71 -20.91,-2.33 -7.14,-4.34 0.78,-13.51 3.47,-1.01 4.69,-14.06 4.57,-7.92 2.2,-10.07 -3.59,-11 -8.19,-9.97 5.66,-3.48 -9.31,-14.3 5.92,-3.94 -9.01,-12.27 -12.27,-5.29 -12.75,0.58 -8.03,-2.15 -3.91,-4.06 -2.67,-10.49 1.82,-7.54 -2.91,-6.68 0.97,-5.3 -13.76,-11.78 0.73,-4.75 -9.48,-8.77 -3.22,-8.63 6.89,-8.75 4.89,-1.05 0.65,-6.36 -4.56,-13.24 3.72,-10.38 -3.31,-14.03 -9.26,-7.99 -1.02,-6.92 7.71,-11.49 11.64,6.63 3.14,-1.7 12.57,2.17 7.94,-4.57 0.06,-5.08 7.58,-5.02 7.14,6.97 6.72,0.74 1.79,-5.48 7.02,-1.48 4.07,-6.69 4.25,5.8 1.05,9.2 z"
       id="M21218"
       style="fill:#ffff80;fill-opacity:1;stroke:#000000;stroke-width:1.58264;stroke-dasharray:none;stroke-opacity:1" />
    <path
       d="m 734.71,53.06 -9.79,7.86 -14.72,-0.63 -7.93,8.36 -6.05,-3.43 -15.7,5.53 -4.71,-2.88 -9.36,1.35 -2.85,6.4 0.33,7.56 -8.34,5.32 -15.56,-0.71 -7.08,-4.59 -3.47,3.61 2.48,7.87 -1.56,4.49 5.57,7.06 0.82,8.84 -4.28,7.33 -16.32,-2.11 -3.95,7.56 -12.93,1.73 -17.4,0.13 -8.13,13.23 -11.92,5.94 -1.83,3.45 -11.16,-1.11 -4.14,4.43 -0.03,6.28 -9.88,7.96 5.33,5.48 -1.79,5.24 -7.94,-4.64 -6.41,7.45 -10.17,-1.86 -3.59,10.22 -6.39,-0.39 -3.82,6.57 -8.44,6.17 -4.69,-4.83 -4.22,-9.84 0.21,-9.65 -3.38,-2.04 -9.51,3.36 -8.41,12.34 -5.49,-1.03 -7.29,3.02 -10.59,-1.04 -3.18,4.74 -19.84,-2.94 -14.82,-0.68 -7.45,-10.41 -0.22,-5.39 4.01,-9.76 -3.63,-5.04 8.49,-20.39 5.2,-6.17 8.62,-9.19 7.2,0.16 10.86,-16.06 -1.65,-4.83 11.13,-1.12 8.54,-8.7 -1.92,-11.67 7.56,-14.47 -2.08,-1.94 11.8,-11.45 9.38,0.25 0.75,-11.13 3.34,0.14 5.57,-11.68 7.38,-4.84 10.48,-15.2 7.31,-4.32 2.81,-5.28 9.43,3.9 8.69,-2.88 2.23,6.05 10.72,6.26 10.55,-4.54 9.44,-12.78 5.09,7.82 4.39,-5.25 8.03,-4.63 11.94,4.74 4.81,-4.06 5.91,2.08 -1.69,13.96 -5.07,3.93 4.5,7.85 3.85,0.64 11.09,-6.81 11.25,-1.74 2.03,-9.93 16.02,-5.2 3.37,1.21 0.2,13.85 8.67,8.5 15.02,3.05 3.59,4.44 6.03,-1.28 4.79,2.73 7.64,-9.47 21.91,1.38 4.97,12.54 5.65,2.01 z"
       id="M21217"
       style="fill:#ffff80;fill-opacity:1;stroke:#000000;stroke-width:1.58264;stroke-dasharray:none;stroke-opacity:1" />
    <path
       d="m 219.44,778.16 -6.69,-4.49 -0.67,-11.64 -4.09,-17.7 7.14,4.34 20.91,2.33 6.92,5.58 7.35,15.14 -2.04,8.23 -6.83,8.56 -10.3,-0.28 -5.63,-2.92 z"
       id="M21216"
       style="fill:#ffff80;fill-opacity:1;stroke:#000000;stroke-width:1.58264;stroke-dasharray:none;stroke-opacity:1" />
    <path
       d="m 244.44,538.52 10.35,-1.08 9.75,5.07 -5.15,12.17 7.12,0.65 3.55,7 9.9,2.96 6.71,-2.57 2.32,11.24 5.55,0.29 10.79,5.21 2.32,3.38 1.07,32.71 -9.87,11.16 2.52,15.97 6.1,-1.39 9.53,9.23 -6.68,8.93 0.31,8.49 3.19,2.97 -2.74,4.62 0.91,9.04 -7.25,19.69 -4.8,-4.17 -7.53,0.74 -4.89,-5.88 -13.14,-8.83 -6.09,1.77 -4.38,-6.87 -6.69,-2.12 -5.09,-8.56 -7.1,-7.48 -7.02,-11.3 -0.78,-12.46 -8.26,-10.09 -3.33,-8.61 3.24,-5.64 -2.25,-11.46 6.8,-8.41 -1.17,-12.06 8.15,-4.19 2.32,-9.31 -1.68,-6.89 2.89,-5.03 z"
       id="M21215"
       style="fill:#ffff80;fill-opacity:1;stroke:#000000;stroke-width:1.58264;stroke-dasharray:none;stroke-opacity:1" />
    <path
       d="m 424.9,743.54 2.94,-4.28 12.63,-0.71 10.95,-5.62 11.48,3.76 5.13,5.95 4.62,-3.3 10.5,3.41 -0.78,9 15.3,2.64 16.59,11.6 -4.46,10.49 -4.33,4.73 -12.49,-5.27 -6.08,10.91 -4.6,-3.45 -6.12,2.38 -9.01,-2.45 -1.77,-8.11 -7.94,-4.8 -4.32,6.26 -0.23,10.35 -4.13,2.97 -7.92,-2.39 -3.31,-5.18 -15.19,-4.39 -1.67,-6.1 -4.5,-2.15 -2.43,-6.35 -5.07,-3.17 8.5,-12.66 z m 44.58,-13.25 0.08,-0.66 0.62,-2.64 11.16,-8.58 5.21,4.85 -7.38,7.78 -4.61,-3.99 z"
       fill-rule="evenodd"
       id="M21214"
       style="fill:#ffff80;fill-opacity:1;stroke:#000000;stroke-width:1.58264;stroke-dasharray:none;stroke-opacity:1" />
    <path
       d="m 352.48,733.02 13.35,-1.13 6.74,5.87 14.98,7.57 3.68,-1.46 2.65,10.92 4.67,-0.33 0.34,10.55 -15.44,8.21 -7.58,6.46 -20.84,1.18 -12.34,3.51 -2.13,3.01 -15.69,8.81 -17.43,-2.95 -5.91,-4.22 15.47,-7.21 -1.06,-3.43 -3.44,-4.56 2.72,-22.17 2.96,-5.88 11.26,-3.14 1.75,4.73 8.02,-0.54 0.74,-6.42 6.77,-1.65 z"
       id="M21213"
       style="fill:#ffff80;fill-opacity:1;stroke:#000000;stroke-width:1.58264;stroke-dasharray:none;stroke-opacity:1" />
    <path
       d="m 533.89,762.13 13.32,7.26 3.41,17.55 -2.03,7.73 13.75,13.6 0.91,5.57 21.1,8.59 -3.06,20.31 -7.62,3.85 -7.39,11.85 -3.69,0.01 -11.04,8.57 -7.73,-2.28 -6.57,5.85 -8.99,-1.87 -4.71,-4.48 -0.16,-7.1 6.02,-5.01 -5.41,-18.63 -7.2,-11.12 -4.37,-11.34 -6.71,-10.55 7.71,-4.29 -7.96,-14.99 4.33,-4.73 4.46,-10.49 10.59,4.59 z"
       id="M21212"
       style="fill:#ffff80;fill-opacity:1;stroke:#000000;stroke-width:1.58264;stroke-dasharray:none;stroke-opacity:1" />
    <path
       d="m 180.13,759.04 -7.63,1.6 -5.33,-3.54 -8.23,2.49 -14.84,-10.03 -3.43,-11.63 5.39,-18.27 14.76,-5.84 10.48,-0.02 2.41,6.98 10.97,1.08 4.47,8.46 -5.78,3.02 -3.32,9.89 z"
       id="M21404"
       style="fill:#ffff80;fill-opacity:1;stroke:#000000;stroke-width:1.58264;stroke-dasharray:none;stroke-opacity:1" />
    <path
       d="m 220.11,686.76 3.59,11 -2.2,10.07 -4.57,7.92 -4.69,14.06 -3.47,1.01 -0.78,13.51 4.09,17.7 -12.04,-14.08 -10.89,-17.63 -4.47,-8.46 8.38,-1.05 -1.14,-8.47 -6.87,-3.14 -0.52,-6.09 12.01,-3.95 13.24,-9.5 4.26,3.36 z"
       id="M21403"
       style="fill:#ffff80;fill-opacity:1;stroke:#000000;stroke-width:1.58264;stroke-dasharray:none;stroke-opacity:1" />
    <path
       d="m 138.72,506.14 9.26,7.99 3.31,14.03 -3.72,10.38 4.56,13.24 -0.65,6.36 -4.89,1.05 -6.89,8.75 3.22,8.63 9.48,8.77 -0.73,4.75 13.76,11.78 -0.97,5.3 2.91,6.68 -1.82,7.54 2.67,10.49 3.91,4.06 8.03,2.15 12.75,-0.58 12.27,5.29 9.01,12.27 -5.92,3.94 9.31,14.3 -5.66,3.48 8.19,9.97 -6.07,6.26 -4.26,-3.36 -13.24,9.5 -12.01,3.95 0.52,6.09 6.87,3.14 1.14,8.47 -8.38,1.05 -10.97,-1.08 -2.41,-6.98 -10.48,0.02 -14.76,5.84 -5.39,18.27 -5.43,4.41 -6.3,-1.47 -4.49,7.61 -10.46,5.7 -4.27,14.26 -11.28,3.94 -9.52,-8.09 -4.44,-8.64 -4.94,-4.05 4.11,-6.55 -1.83,-4.02 6.06,-10.51 -3.37,-12.89 -10.8,-2.64 -2.19,-7.84 -6.46,-5.33 0.56,-6.01 8.39,-11.72 -1.09,-12.01 -9.38,-2.14 -6.21,-18.78 -6.42,0.65 -3.4,13.25 -9.13,1.88 -2.1,-9.26 -8.84,4.22 -3.39,-8.27 3.77,-10.05 -0.61,-20.17 -1.53,-3.97 2.68,-9.08 -4.71,-4.92 -10.11,4.23 -5.58,-2.22 -5.45,-11.5 2.29,-5.04 -3.8,-5.53 7.32,-14.48 5.67,-5.07 -4.07,-3.76 20.35,-33.94 -1.13,-9.4 -3.84,-4.52 1.89,-10.25 3.65,-7.02 10.93,-0.82 0.95,-2.7 16.41,-10.85 13.63,4.16 5.06,6.49 5.88,-1.44 6.83,5.21 17.92,-2.64 3.48,3.94 9.87,-1.38 6.93,6.88 3.98,10.49 z"
       id="M21401"
       style="fill:#ffff80;fill-opacity:1;stroke:#000000;stroke-width:1.58264;stroke-dasharray:none;stroke-opacity:1" />
    <path
       d="m 246,731.16 0.25,18.31 -3.29,7.11 -6.92,-5.58 -1.39,-14.71 z"
       id="M21421"
       style="fill:#ffff80;fill-opacity:1;stroke:#000000;stroke-width:1.58264;stroke-dasharray:none;stroke-opacity:1" />
    <path
       d="m 620.72,553.58 5.94,0.89 11.16,16.18 18.87,7.78 2.05,3.46 -4.89,7.19 5.69,6.24 1.25,7.94 -4.91,8.55 -6.49,4.39 -20.01,-6.94 -6.5,1 -8.33,-3.89 -8.52,7.93 -5.34,1.4 -15.51,8.21 -11.33,-8.61 -2.29,-6.04 1.41,-11.42 5.84,-1.54 9.56,-8.21 -0.55,-5.46 5.76,-8.57 4.03,0.57 5.76,-5.48 3.72,-7.64 z"
       id="M21507"
       style="fill:#ffff80;fill-opacity:1;stroke:#000000;stroke-width:1.58264;stroke-dasharray:none;stroke-opacity:1" />
    <path
       d="m 619.47,659.34 -10.5,8.91 -7.42,-0.63 -5.84,2.96 -8.9,0.68 -9.46,3.04 -7.95,-2.86 -3.35,-5.65 -5.93,-2.63 -7.7,-7.41 -3.69,-0.51 -7.85,5.28 -4.62,-5.46 -7.76,0.41 -0.74,-5.35 -5.34,-9.12 -6.06,-3.05 -6.03,-10.14 -6.66,-1.84 8.82,-9.61 0.46,-3.34 -10.5,-3.73 0.28,-4.9 3.23,-4.54 13.92,-4.28 5.04,-5.71 5.53,-1.96 5.52,-6.17 -2.65,-8.13 6.81,-6.75 7.83,-3.08 14.55,4.97 3.53,-10.56 10.68,-6.27 9.87,5.02 9.05,-2.98 1.12,-4.83 16.6,-6.29 5.88,2.57 1.48,8.18 -13.63,7.93 -3.72,7.64 -5.76,5.48 -4.03,-0.57 -5.76,8.57 0.55,5.46 -9.56,8.21 -5.84,1.54 -1.41,11.42 2.29,6.04 11.33,8.61 15.51,-8.21 5.34,-1.4 8.52,-7.93 8.33,3.89 6.5,-1 20.01,6.94 -3.07,9.25 6.49,11.4 0.01,4.28 -7.43,8.15 -9.82,-3.57 -12.17,2.88 z"
       id="M21506"
       style="fill:#ffff80;fill-opacity:1;stroke:#000000;stroke-width:1.58264;stroke-dasharray:none;stroke-opacity:1" />
    <path
       d="m 469.56,729.63 1.89,-14.1 2.99,-2.62 -5.34,-7.25 1.14,-3.88 10.1,-0.42 3.43,-5.66 6.76,-4.84 6.9,-0.64 0.18,-6.26 -5.02,-2.18 6.59,-3.27 6.45,-13.14 4.7,-3.22 8.06,2.33 10.11,-9.01 7.76,-0.41 4.62,5.46 7.85,-5.28 3.69,0.51 7.7,7.41 5.93,2.63 3.35,5.65 7.95,2.86 6.21,5.55 4.16,7.84 -9.1,8.85 -9.78,14.55 -2.18,7.83 -9.35,4.31 -3.34,-10.43 -8.26,-1.23 -6.46,3.57 -6.16,-2.81 -14.14,4.68 -0.95,6.31 -4.41,3.87 -8.62,-2.01 -2.96,3.32 -11.19,-1 -4.27,-4.24 -5.21,-4.85 -11.16,8.58 z"
       id="M21505"
       style="fill:#ffff80;fill-opacity:1;stroke:#000000;stroke-width:1.58264;stroke-dasharray:none;stroke-opacity:1" />
    <path
       d="m 454.86,657.4 -8.15,0.73 4.15,-6.69 11.67,-8.22 -7.74,-9.76 -2.85,-6.45 6.17,-21.4 15.95,-5.91 2.76,4.56 9.56,3.02 4.19,-2.14 12.16,-0.75 -0.28,4.9 10.5,3.73 -0.46,3.34 -8.82,9.61 6.66,1.84 6.03,10.14 6.06,3.05 5.34,9.12 0.74,5.35 -10.11,9.01 -8.06,-2.33 -4.7,3.22 -6.45,13.14 -6.59,3.27 -8.29,-3.48 -1.57,-15.15 -17.11,-6.85 z"
       id="M21504"
       style="fill:#ffff80;fill-opacity:1;stroke:#000000;stroke-width:1.58264;stroke-dasharray:none;stroke-opacity:1" />
    <path
       d="m 471.45,715.53 -12.35,-6.21 -7.35,-0.87 -2.58,-6.89 -6.45,-4.67 1.45,-6.18 6.85,-3.13 7.44,-13.95 1.91,-14.13 -5.51,-2.1 10.76,-1.1 17.11,6.85 1.57,15.15 8.29,3.48 5.02,2.18 -0.18,6.26 -6.9,0.64 -6.76,4.84 -3.43,5.66 -10.1,0.42 -1.14,3.88 5.34,7.25 z"
       id="M21503"
       style="fill:#ffff80;fill-opacity:1;stroke:#000000;stroke-width:1.58264;stroke-dasharray:none;stroke-opacity:1" />
    <path
       d="m 416.7,687.76 3.11,0.02 8.12,15.31 -16.13,10.92 -12.15,2.07 -5.3,-3.48 3.19,-6.31 -3.96,-3.26 -3.12,-8.8 1.12,-5.76 z"
       id="M21502"
       style="fill:#ffff80;fill-opacity:1;stroke:#000000;stroke-width:1.58264;stroke-dasharray:none;stroke-opacity:1" />
    <path
       d="m 397.72,731.62 8.71,-3.98 15.35,8.64 3.12,7.26 -7.71,4.07 -16.75,2.32 -1.89,4.53 -4.67,0.33 -2.65,-10.92 3.06,-0.89 z"
       id="M21501"
       style="fill:#ffff80;fill-opacity:1;stroke:#000000;stroke-width:1.58264;stroke-dasharray:none;stroke-opacity:1" />
    <path
       d="m 131.73,795.81 -12,-1.11 -5.17,10.97 -3.57,-0.77 -6.23,13.05 0.1,8.27 -15.04,9.88 -5.56,8.87 -10.03,-9.23 5.58,-10.75 -0.64,-8.82 6.48,-14.56 -5.11,-8.25 -0.94,-7.06 14.51,-6.58 4.33,-7.34 11.28,-3.94 8.18,8.54 -1.15,2.7 7.73,8.19 8.71,-5.39 z"
       id="M21362"
       style="fill:#ffff80;fill-opacity:1;stroke:#000000;stroke-width:1.58264;stroke-dasharray:none;stroke-opacity:1" />
    <path
       d="m 151.45,812.5 -7.07,-10.55 -7.44,1.25 -5.21,-7.39 1.46,-13.33 -8.71,5.39 -7.73,-8.19 1.15,-2.7 -8.18,-8.54 4.27,-14.26 10.46,-5.7 4.49,-7.61 6.3,1.47 5.43,-4.41 3.43,11.63 14.84,10.03 -1.66,3.27 1.57,11.07 -1.44,6.67 8.58,5.47 0.81,8.02 -3.24,4.77 2.39,5.94 -3.85,6.2 z"
       id="M21361"
       style="fill:#ffff80;fill-opacity:1;stroke:#000000;stroke-width:1.58264;stroke-dasharray:none;stroke-opacity:1" />
    <path
       d="m 240.33,803.43 -2.03,12.79 -9.37,6.68 -2.22,7.89 -8.17,-0.48 -6.9,-3.29 -0.64,-14.6 8.16,-4.14 3.31,-8.87 -0.83,-18.12 -2.2,-3.13 6.07,7.15 5.63,2.92 0.26,14.34 z"
       id="M21383"
       style="fill:#ffff80;fill-opacity:1;stroke:#000000;stroke-width:1.58264;stroke-dasharray:none;stroke-opacity:1" />
    <path
       d="m 226.71,830.79 4.16,10.87 -11.86,3.47 2.01,7.63 -2.67,4.27 -12.96,3.62 -1.92,9.14 -10.15,-7.56 1.37,-21.88 4.85,-5.25 12.1,-8.08 6.9,3.29 z"
       id="M21382"
       style="fill:#ffff80;fill-opacity:1;stroke:#000000;stroke-width:1.58264;stroke-dasharray:none;stroke-opacity:1" />
    <path
       d="m 212.75,773.67 -7.24,-0.43 -4.13,-3.39 0.69,-7.74 -6.99,-0.54 -1.65,8.43 -4.52,-0.32 -8.78,-10.64 -0.08,-15.81 3.32,-9.89 5.78,-3.02 10.89,17.63 12.04,14.08 z"
       id="M21381"
       style="fill:#ffff80;fill-opacity:1;stroke:#000000;stroke-width:1.58264;stroke-dasharray:none;stroke-opacity:1" />
    <path
       d="m 146.82,866.28 -5.22,-25.16 2.22,-5.99 -9,-14.46 8.1,-8.01 8.53,-0.16 10.65,-1.5 3.85,-6.2 10.04,1.87 5.52,13.53 3.73,2.59 1.81,12.5 7.64,5.06 -1.37,21.88 10.15,7.56 -4.38,8.76 -6.65,8.6 -8.24,-13.79 -5.72,-1.22 -7.26,-8.29 -9.61,-0.06 -9.75,7.7 z"
       id="M21341"
       style="fill:#ffff80;fill-opacity:1;stroke:#000000;stroke-width:1.58264;stroke-dasharray:none;stroke-opacity:1" />
    <path
       d="m 462.9,736.69 6.58,-6.4 5.08,-3.24 4.61,3.99 7.38,-7.78 4.27,4.24 11.19,1 2.96,-3.32 8.62,2.01 4.41,-3.87 0.95,-6.31 14.14,-4.68 6.16,2.81 -3.15,14.68 0.29,8.19 4.3,9.12 -7.85,9.64 1.05,5.36 -9.04,8.45 -10.59,-4.59 -16.59,-11.6 -15.3,-2.64 0.78,-9 -10.5,-3.41 -4.62,3.3 z"
       id="M21521"
       style="fill:#ffff80;fill-opacity:1;stroke:#000000;stroke-width:1.58264;stroke-dasharray:none;stroke-opacity:1" />
    <path
       d="m 278.23,804.1 -12.37,-2.76 -2.12,-5.56 9.12,-4.96 10.54,-10.65 8.52,3.7 0.31,-6.07 12.32,3.99 2.66,-4 8.73,0.59 1.06,3.43 -15.47,7.21 -9.79,-2.44 -1.49,-0.08 -9.02,8.84 z"
       id="M21303"
       style="fill:#ffff80;fill-opacity:1;stroke:#000000;stroke-width:1.58264;stroke-dasharray:none;stroke-opacity:1" />
    <path
       d="m 283.4,780.17 3.52,-10.44 9.96,-4.87 10.19,9.17 5.43,-0.21 3.44,4.56 -8.73,-0.59 -2.66,4 -12.32,-3.99 -0.31,6.07 z"
       id="M21302"
       style="fill:#ffff80;fill-opacity:1;stroke:#000000;stroke-width:1.58264;stroke-dasharray:none;stroke-opacity:1" />
    <path
       d="m 392.94,185.13 -4.63,28.33 -3.69,4.75 0.35,15.09 5.8,6.09 3.48,7.49 -12.31,8.37 1.39,4.92 -5.89,7.76 -5.96,-4.64 -10.34,-2.78 -15.75,1.75 -7.34,-2.25 -7.38,5.54 -15.26,3.17 -6.28,-8.8 -5,-0.38 -5.7,5.83 -13.8,-5.54 4.38,-14.78 3.55,-2.46 1.23,-8.48 -8.56,-14.02 6.57,-3.99 5.31,0.16 6.94,-4.58 0.6,-6.29 6.53,-10.72 4.64,-3.52 1.35,-6.95 6.21,-4.98 0.35,-4.28 6.72,-9.5 3.8,-10.89 -9.79,-9.32 -11.01,-1.11 -4.98,-6.78 0.06,-5.64 -8.03,-11.22 6.9,-5.03 2.89,2.51 10.12,0.09 9.24,-22.12 -2.98,-10.13 16.12,-1.69 2.17,-10.26 4.18,2.27 0.29,10.01 7.87,0.94 10.09,-11.03 14.45,8.92 4.24,-0.53 8.85,7.11 5.17,14.5 4.25,2.67 -3.26,16.83 -4.21,10.45 9.91,2.39 -5.2,6.17 -8.49,20.39 3.63,5.04 -4.01,9.76 z"
       id="M21604"
       style="fill:#ffff80;fill-opacity:1;stroke:#000000;stroke-width:1.58264;stroke-dasharray:none;stroke-opacity:1" />
  </g>
</svg>
