<?xml version="1.0" encoding="UTF-8" standalone="no"?>
<svg
   version="1.2"
   width="571.40808"
   height="600"
   viewBox="0 0 571.40808 600"
   stroke-linecap="round"
   stroke-linejoin="round"
   id="svg1343"
   sodipodi:docname="gu.svg"
   inkscape:version="1.2 (dc2aedaf03, 2022-05-15)"
   xmlns:inkscape="http://www.inkscape.org/namespaces/inkscape"
   xmlns:sodipodi="http://sodipodi.sourceforge.net/DTD/sodipodi-0.dtd"
   xmlns="http://www.w3.org/2000/svg"
   xmlns:svg="http://www.w3.org/2000/svg">
  <defs
     id="defs1347" />
  <sodipodi:namedview
     id="namedview1345"
     pagecolor="#505050"
     bordercolor="#eeeeee"
     borderopacity="1"
     inkscape:showpageshadow="0"
     inkscape:pageopacity="0"
     inkscape:pagecheckerboard="0"
     inkscape:deskcolor="#505050"
     showgrid="false"
     inkscape:zoom="0.95952381"
     inkscape:cx="285.55831"
     inkscape:cy="300.14888"
     inkscape:window-width="1920"
     inkscape:window-height="1009"
     inkscape:window-x="-8"
     inkscape:window-y="-8"
     inkscape:window-maximized="1"
     inkscape:current-layer="svg1343" />
  <g
     id="gu"
     transform="matrix(0.71479714,0,0,0.71479714,-0.21480045,-0.21480833)"
     style="fill:#ffff80;fill-opacity:1;stroke:#000000;stroke-width:1.399;stroke-dasharray:none;stroke-opacity:1">
    <path
       d="m 404.93,476.13 -2.88,12.83 -3.87,5.65 0.14,5.73 -4.52,2.88 -6.83,-12.11 -4.11,-0.04 -2.24,4.47 -7.38,-5.57 1.88,-4.95 -0.57,-8.47 -11.1,-5.36 -7.03,2.09 -17.27,-6.64 -4.52,-4.74 17.39,-3.26 23.12,10.52 7.57,-2.11 5.61,2.11 2.45,7.85 6.52,-0.55 -0.53,-6.88 7.05,3.55 z"
       id="M10345"
       style="fill:#ffff80;fill-opacity:1;stroke:#000000;stroke-width:1.399;stroke-dasharray:none;stroke-opacity:1" />
    <path
       d="m 334.63,461.9 4.52,4.74 17.27,6.64 7.03,-2.09 11.1,5.36 0.57,8.47 -1.88,4.95 7.38,5.57 -0.01,6 -5.48,-3.29 -7.48,7.82 -11.86,1.09 -8.17,-13.66 -7.57,-4.39 -8.16,-9.96 -3.4,-0.56 -7.52,-6.67 -3.39,-0.37 4.65,-10.88 4.14,4.17 z"
       id="M10344"
       style="fill:#ffff80;fill-opacity:1;stroke:#000000;stroke-width:1.399;stroke-dasharray:none;stroke-opacity:1" />
    <path
       d="m 343.29,672.89 -18.58,4.63 -5.6,5.03 -1.27,4.55 -7.33,5.07 -3.89,4.73 -8.95,-1.37 -14.35,5.64 -1.59,2.02 -11.34,1.8 2.8,-15.91 4.6,-1.01 6.31,-6.09 1.31,-6.07 4.96,-6.06 10.9,0.38 2.81,-8.7 -1.28,-5.18 5.58,-4.39 8.41,-0.13 2.79,-9.29 8.96,-7.17 1.61,-9.75 5.65,-0.63 1.66,-3.46 6.59,-2.07 6.38,6.71 -0.48,6.23 2.96,17.29 3,6.12 -6.29,2.29 -3.9,6.45 z"
       id="M10384"
       style="fill:#ffff80;fill-opacity:1;stroke:#000000;stroke-width:1.399;stroke-dasharray:none;stroke-opacity:1" />
    <path
       d="m 231.59,703.1 -0.37,13.52 5.49,4.83 -0.97,3.2 -9.01,2.76 -9.4,7.97 -2.64,-3.81 -5.64,-1.72 -10.77,0.77 -3.29,2.18 -4.5,-2.97 -7.42,-1.53 -13.32,8.38 -5.37,0.49 -7.87,-2.4 -4.87,-3.66 -2.03,-7.47 -7.48,1.56 -13.49,-2.85 -3.1,-4.37 -1.51,-9.18 -3.91,-6.16 -4.27,-1.09 0.2,-10.37 8.77,7.87 6.44,1.1 4.99,-3.39 9.38,-2.07 5.87,-2.85 -4.82,-6.67 -4.16,-10.46 8.73,-5.71 3.32,4.32 11.83,-2.91 2.55,2.99 5.48,-0.91 4.79,2.58 5.66,-5.16 -0.87,-4.74 11.71,-4.15 18.16,10.43 0.43,7.12 7.43,-2.27 6.79,6.21 -0.17,8.54 3.68,5.08 z"
       id="M10383"
       style="fill:#ffff80;fill-opacity:1;stroke:#000000;stroke-width:1.399;stroke-dasharray:none;stroke-opacity:1" />
    <path
       d="m 273.19,689.08 -2.8,15.91 -6.39,6.44 -4.04,6.39 -4.36,2.96 -7.83,1.04 -9.81,-1.82 -4.38,-5.3 -1.99,-11.6 0.45,-6.97 -3.68,-5.08 0.17,-8.54 -6.79,-6.21 -7.43,2.27 -0.43,-7.12 -18.16,-10.43 -11.71,4.15 0.87,4.74 -5.66,5.16 -4.79,-2.58 -5.48,0.91 -2.55,-2.99 -11.83,2.91 -3.32,-4.32 -2.2,-9.19 -6.87,1.17 -6.51,-11.52 0.39,-8.96 -6.47,-6.68 2.37,-13.46 -1.5,-6.34 5.61,-8.34 11.34,-2.18 8.97,-4.73 5.37,-6.62 2.37,12.57 6.47,2.62 2.2,-3.37 7.59,5.91 5.59,-4.77 8.3,5.08 4.66,-4.78 3.95,1.11 13.16,-4.19 8.88,5.48 -0.74,11.75 11.04,12.89 7.91,18.87 8.52,0.37 11.99,-4.67 1.5,-3.39 13.91,-1.4 -2.59,11.09 -4.19,9.47 1.99,15.19 -2.62,7.76 z"
       id="M10382"
       style="fill:#ffff80;fill-opacity:1;stroke:#000000;stroke-width:1.399;stroke-dasharray:none;stroke-opacity:1" />
    <path
       d="m 235.74,724.65 0.97,-3.2 -5.49,-4.83 0.37,-13.52 1.99,11.6 4.38,5.3 9.81,1.82 7.83,-1.04 4.36,-2.96 6.98,-2.43 10.79,1.44 7.39,-3.21 5.42,-0.22 3.71,-3.5 6.72,8.68 8.17,-1.33 6.12,-3.66 4.06,0.72 6.97,-4.64 15.29,2.04 12.03,3.53 2.45,9.91 -2.3,6.24 -1.92,14.2 -7.38,8.71 -8.34,4.96 -9.52,-4.38 -11.57,2.4 -6.99,5.03 -14.04,5.5 -1.76,4.41 -9.71,3.71 -2.02,8.39 -6.67,6.28 -1.93,4.98 -10.58,-18.04 3.71,-10.92 -7.9,-3.49 -3.32,-5.82 -0.39,-5.55 -11.56,-4.14 -0.84,-15.66 -5.15,-1.54 z"
       id="M10367"
       style="fill:#ffff80;fill-opacity:1;stroke:#000000;stroke-width:1.399;stroke-dasharray:none;stroke-opacity:1" />
    <path
       d="m 156.51,734.77 7.87,2.4 5.37,-0.49 13.32,-8.38 7.42,1.53 4.5,2.97 3.29,-2.18 10.77,-0.77 5.64,1.72 2.64,3.81 9.4,-7.97 9.01,-2.76 0.14,5.77 5.15,1.54 0.84,15.66 11.56,4.14 0.39,5.55 3.32,5.82 7.9,3.49 -3.71,10.92 10.58,18.04 -0.39,3 -9.04,2.92 -7.45,0.22 -7.03,3.1 -6.49,-5.78 -7.21,-1.52 -9.24,3.32 -0.52,4.84 -6.15,14.11 -7.27,9.13 -9.64,4.21 -2.67,5.87 -13.64,-4.24 -2.28,-6.99 -3.83,-3.48 -0.82,-5.67 -11.32,-0.31 -0.17,-3.38 -9.67,-2.84 -0.72,-3.18 -8.39,-3.22 7.96,-16.52 -0.85,-14.88 -6.02,-9.42 -1.63,-8.11 9.13,-5.81 0.77,-8.36 -3.9,-6.04 z"
       id="M10366"
       style="fill:#ffff80;fill-opacity:1;stroke:#000000;stroke-width:1.399;stroke-dasharray:none;stroke-opacity:1" />
    <path
       d="m 692.73,613.13 -6.79,18.12 -3.71,2.56 -2.74,6.09 7.91,2.07 2.77,7.87 -5.33,2.72 -15.36,0.64 0.21,-2.38 -13.72,-2.57 -8.63,-11.27 4.48,-17.3 -3.24,-9.01 2.22,-6.02 6.51,-1.07 8.42,-0.65 6.52,6.77 -5.44,2.64 3.19,4.34 11.71,-0.39 z"
       id="M10525"
       style="fill:#ffff80;fill-opacity:1;stroke:#000000;stroke-width:1.399;stroke-dasharray:none;stroke-opacity:1" />
    <path
       d="m 651.82,619.68 -4.48,17.3 -3.36,5.55 -8.18,3.29 5.64,6.77 -0.94,5.68 -14.68,-7.43 -6.59,-7.97 -0.3,-11.42 4.3,-10.99 5.87,-2.24 4.58,-5.37 4.98,4.33 z"
       id="M10524"
       style="fill:#ffff80;fill-opacity:1;stroke:#000000;stroke-width:1.399;stroke-dasharray:none;stroke-opacity:1" />
    <path
       d="m 647.34,636.98 8.63,11.27 13.72,2.57 -0.21,2.38 -1.6,7.57 11.61,2.4 7.64,6.51 1.43,8.73 -11.94,2.1 -12.6,-1.51 -7.35,-5 -8.38,-8.14 -6.21,-2.32 -1.58,-5.27 0.94,-5.68 -5.64,-6.77 8.18,-3.29 z"
       id="M10523"
       style="fill:#ffff80;fill-opacity:1;stroke:#000000;stroke-width:1.399;stroke-dasharray:none;stroke-opacity:1" />
    <path
       d="m 688.56,678.41 -1.43,-8.73 -7.64,-6.51 13.89,1.01 6.51,-5.56 13.13,0.45 3.33,-3.47 4.57,2.71 11.43,0.79 5.16,-3.35 5.92,2.2 5.03,0.42 -0.66,5.91 -9.07,4.76 -11.75,2.63 -12.24,6.14 -8.81,1.33 -10.09,-1.83 z"
       id="M10522"
       style="fill:#ffff80;fill-opacity:1;stroke:#000000;stroke-width:1.399;stroke-dasharray:none;stroke-opacity:1" />
    <path
       d="m 747.8,664.28 0.66,-5.91 -5.03,-0.42 -0.8,-11.24 -3.43,-4.52 10.58,-7.31 21.66,-3.57 -7.61,-5.19 -7.8,-2.29 -7.09,-4.89 11.82,0.41 4.59,-4.32 11.28,2.66 1.65,6.5 -3.65,5.47 7.32,10.5 5.13,1.72 5.26,6.01 6.66,12.66 -6.02,0.18 -6.63,2.89 1.32,9.96 -8.94,0.91 -6.8,3.08 -0.86,4.84 -7.54,-5.22 -5.79,-7.53 z"
       id="M10521"
       style="fill:#ffff80;fill-opacity:1;stroke:#000000;stroke-width:1.399;stroke-dasharray:none;stroke-opacity:1" />
    <path
       d="m 314.15,390.23 2.51,4.96 5.74,-0.12 1.09,3.76 11.51,0.2 4.14,3.14 5.02,-2.82 -0.05,10.26 -1.96,5.2 -7.09,5.93 -4.61,7.43 -11.46,3.63 -7.7,5.41 -9.07,14.67 -7.3,1.3 -3.6,6.14 -7.72,-1.26 -13.43,1.55 -21.68,-2.88 -7.36,2.62 -2.56,-3.38 -8.37,-1.01 -5.07,2.33 -14.92,-1.2 -4.7,-3.61 -10.38,2.92 -5.65,4.25 -6.59,-0.35 -5.64,7.56 -4.93,0.95 -5.48,7.06 -4,1.42 -4.44,-5.98 -0.45,-5.37 -4.83,-3.71 3.1,-10.13 -2.39,-2.86 -0.62,-13.09 6.73,-13.02 3.78,2.59 4.88,-4.59 10.69,2.94 11.87,-11.69 8.28,0.36 5.45,-7.14 -1.12,-8.12 -3.92,-9.97 -4.78,-1.97 -10.22,0.39 -5.48,-4.89 v -8.63 l 9.8,-7.04 12.46,3.88 5.21,-1.88 3.42,-4.22 9.34,2.17 6.9,4.24 2.89,3.98 12.55,7.06 7.99,-4.97 7.03,2.07 10,-6.19 3.08,3.37 10.69,0.23 7.35,2.74 5.33,-1.57 8.89,6.87 3.3,4.63 z"
       id="M10429"
       style="fill:#ffff80;fill-opacity:1;stroke:#000000;stroke-width:1.399;stroke-dasharray:none;stroke-opacity:1" />
    <path
       d="m 369.85,325.54 3.67,6.21 -2.91,8.88 2.05,8.71 -0.54,13.05 3.98,4.72 -15.63,8.41 -7.12,-0.54 -7.23,-3.32 -4.52,0.77 -8.03,-2.21 -4.22,1.05 -6.78,-11.63 -5.35,-5.73 -5.32,-2.95 0.52,-6.3 -3.56,-15.46 0.21,-8.06 3.04,-5.31 10.65,-2.41 8.42,2.88 4.7,-4.46 15.96,6.56 6.25,-0.17 2.24,5.43 z"
       id="M10428"
       style="fill:#ffff80;fill-opacity:1;stroke:#000000;stroke-width:1.399;stroke-dasharray:none;stroke-opacity:1" />
    <path
       d="m 126.21,374.19 -7.65,2.97 -0.25,8.73 -4.78,-5.24 -7.04,-3.59 -3.78,-10.74 -11.46,-5.68 -1.4,-7.92 -3.72,-4.68 4,-10.92 -2.2,-5.82 -5.42,-2.56 -1.25,-8.31 6.05,-3.66 11.64,0.89 4.16,1.69 6.65,8.31 19.12,-1.3 7.56,3.56 7.21,8.05 3.65,11.55 -7.49,8.5 -6.54,3.23 h -8.26 l -1.19,3.56 z"
       id="M10426"
       style="fill:#ffff80;fill-opacity:1;stroke:#000000;stroke-width:1.399;stroke-dasharray:none;stroke-opacity:1" />
    <path
       d="m 81.26,320.43 1.25,8.31 5.42,2.56 2.2,5.82 -4,10.92 3.72,4.68 1.4,7.92 11.46,5.68 3.78,10.74 7.04,3.59 4.78,5.24 7.76,13.86 -2.95,4.35 2.62,12.59 -8.03,3.93 -7.67,-10.59 -5.01,4.44 1.31,16.96 5.36,9.9 0.73,5.95 -3.43,8.8 1.04,11.18 -0.77,6.49 6.86,2.92 -4.89,13.92 -1.24,10.77 -9.99,1.4 -9.03,11.63 -7.06,-0.15 -8,-3.74 -7,-5.4 -8.39,1.18 -1.94,9.61 -6.96,-2.75 -11.42,-0.23 -1.69,-12.08 -6.12,0.77 -3.51,-2.6 -25.18,-8.91 1.05,-14.27 -1.92,-7.09 2.06,-4.27 -2.38,-5.04 0.76,-6.33 -2.28,-7.13 5.58,-13.1 -2.02,-6.78 0.9,-4.69 6.1,-8.23 -1.59,-5.36 3.94,-2.91 6.98,-10.18 -0.26,-9.74 -5.1,-6.67 4.28,-8.62 1.07,-7.52 3.98,-1.83 4.02,-8.16 8.39,-2.49 3.52,-9.86 -0.95,-6.55 4.41,-1.55 4.39,-5.65 5.02,-0.94 5.63,3.17 11.3,-5.53 z"
       id="M10425"
       style="fill:#ffff80;fill-opacity:1;stroke:#000000;stroke-width:1.399;stroke-dasharray:none;stroke-opacity:1" />
    <path
       d="m 179.37,380.04 5.48,4.89 10.22,-0.39 4.78,1.97 3.92,9.97 1.12,8.12 -5.45,7.14 -8.28,-0.36 -11.87,11.69 -10.69,-2.94 -4.88,4.59 -3.78,-2.59 -6.73,13.02 0.62,13.09 2.39,2.86 -3.1,10.13 4.83,3.71 0.45,5.37 4.44,5.98 -7.46,11.27 2.41,9.81 -1.7,10.33 -4.56,-4.51 -6.6,1.34 -5.2,-4.03 -6.57,-1.96 -11.08,-0.55 -12.08,3.37 1.24,-10.77 4.89,-13.92 -6.86,-2.92 0.77,-6.49 -1.04,-11.18 3.43,-8.8 -0.73,-5.95 -5.36,-9.9 -1.31,-16.96 5.01,-4.44 7.67,10.59 8.03,-3.93 -2.62,-12.59 2.95,-4.35 -7.76,-13.86 0.25,-8.73 7.65,-2.97 4.62,4.5 7.48,3.24 1.14,5.73 11.19,4.65 6.82,-4.06 1.88,-4.53 12,-0.07 3.47,1.42 z"
       id="M10424"
       style="fill:#ffff80;fill-opacity:1;stroke:#000000;stroke-width:1.399;stroke-dasharray:none;stroke-opacity:1" />
    <path
       d="m 314.15,390.23 -8.55,-3.45 -3.3,-4.63 -8.89,-6.87 -5.33,1.57 -7.35,-2.74 -10.69,-0.23 -3.08,-3.37 -10,6.19 -7.03,-2.07 -7.99,4.97 -12.55,-7.06 -2.89,-3.98 -6.9,-4.24 -9.34,-2.17 -3.42,4.22 -5.21,1.88 -12.46,-3.88 -9.8,7.04 v 8.63 l -4.56,5.03 -3.47,-1.42 -12,0.07 -1.88,4.53 -6.82,4.06 -11.19,-4.65 -1.14,-5.73 -7.48,-3.24 -4.62,-4.5 -2.39,-9.38 1.19,-3.56 h 8.26 l 6.54,-3.23 7.49,-8.5 -3.65,-11.55 -7.21,-8.05 -7.56,-3.56 -19.12,1.3 -6.65,-8.31 -4.16,-1.69 -11.64,-0.89 -6.05,3.66 5.79,-11.74 -4.45,-1.98 -5.85,-6.41 1.32,-11.98 10.92,-5.13 3.89,-3.89 10.53,-2.43 9.07,-0.14 5.25,4.55 6.94,-9.77 5.24,1.22 5.3,4.43 3.86,-3.98 2.81,-6.7 5.22,0.53 11.81,-5.93 16.54,-2.99 4.3,-3.18 8.95,-2.59 5.56,1.35 4.88,-2.06 5.52,-8.2 -0.3,-7.48 3.53,-3.86 16.49,7.19 4.99,4.64 5.69,2.27 4.77,-1.21 7.19,2.22 6.9,12.64 1.58,7.79 6.41,3.41 7.27,9.44 -2.63,16.37 1.5,9.26 2.37,4.22 7.43,0.92 7.22,-2.19 6.44,0.79 6.46,-2.5 3.54,4.79 10.6,3.71 -3.04,5.31 -0.21,8.06 3.56,15.46 -0.52,6.3 5.32,2.95 5.35,5.73 6.78,11.63 -6.38,1.64 -3.52,-2.07 -4.33,2.63 -0.84,4.27 4.76,3.78 -1,7.54 z"
       id="M10421"
       style="fill:#ffff80;fill-opacity:1;stroke:#000000;stroke-width:1.399;stroke-dasharray:none;stroke-opacity:1" />
    <path
       d="m 464.49,567.77 1.68,12.75 2.34,5.83 7.8,6.75 4.02,10.74 6.46,8.25 -0.23,2.88 -4.69,-4.04 -17.42,0.38 -4.05,-3.87 -11.87,1.03 -8.82,-4.95 2.55,-8.42 -8.2,-10.14 3.34,-9.37 8.52,6.28 1.37,-8.44 11.09,-0.23 -4.05,-5.34 z"
       id="M10464"
       style="fill:#ffff80;fill-opacity:1;stroke:#000000;stroke-width:1.399;stroke-dasharray:none;stroke-opacity:1" />
    <path
       d="m 584.88,334.38 0.94,4.56 5.68,0.31 4.41,3.01 4.11,6.45 12.22,2.46 9.35,-0.03 7.54,7.66 8.57,-4.64 9.09,5.46 5.9,-0.47 5.5,-4.34 15.66,2.45 2.4,10.71 5.77,5.61 -0.26,4.04 -5.47,3.88 0.08,5 -5.28,2.43 -3.05,8.11 -6.05,2.76 -5.05,-4.89 -8.14,2.03 -9.75,15.35 -7.75,7.61 -8.92,-0.37 -7.38,7.03 -10.46,2.61 -0.3,9.1 -8.99,3.08 -6.5,3.99 -1.73,9.67 -7.04,5.9 -1.49,6.68 -8.36,2.75 -2.45,9.26 -3.78,2.17 -2.66,6.4 0.89,4.05 -4.9,2.66 5.31,4.66 -5.68,6.22 19.83,13.19 -0.9,15.14 -9.44,4.02 -11.91,-0.64 -4.09,3.55 -4.24,-7.4 0.82,-11.12 -10.95,-2.09 3.5,-9.89 9.51,-6.96 -0.11,-6.44 -6.59,-9.92 3.3,-5.65 -1.36,-6.21 -6.08,-6.36 -4.02,-0.53 -6.73,-5.47 -0.97,-9.2 8.89,-2.81 1.36,2.86 10.65,0.24 2.18,-4.35 7.06,-5.63 9.42,1.38 1.03,-4.43 -1.78,-7.91 -10.56,-5.72 6.39,-3.59 0.59,-5.94 3.67,-5.93 6.97,-6.26 4.31,-1.53 0.69,-10.08 1.88,-2.81 -6.35,-7.4 -0.75,-5.6 -5.13,-5.57 -1.07,-8.4 4.84,-16.29 4.24,-5.87 z"
       id="M10212"
       style="fill:#ffff80;fill-opacity:1;stroke:#000000;stroke-width:1.399;stroke-dasharray:none;stroke-opacity:1" />
    <path
       d="m 216.04,602.33 -13.16,4.19 -3.95,-1.11 -4.66,4.78 -8.3,-5.08 -5.59,4.77 -7.59,-5.91 -2.2,3.37 -6.47,-2.62 -2.37,-12.57 -3.49,-8.9 3.4,-7.71 -1.74,-6.04 -0.29,-15.86 1.45,-7.91 3,-4.88 -4.72,-7.82 1.58,-12.57 -2.37,-9.67 10.63,-3.42 2.65,0.69 8.49,-3.85 11.5,5.56 5.16,0.09 4.58,-5.31 6.17,2.66 15.85,4.27 15.6,11.59 26.88,11.11 2.42,3.07 5.76,-0.7 6.37,2.76 8.8,-2.65 18.36,6.66 18.18,12.05 7.1,-2 7.45,7.07 -1.2,7.93 4.54,5.12 6.15,16.54 -2.5,3.33 -6.74,-2.93 -6.79,1.15 -3.19,-3.34 -5.96,2.16 -7.65,7.12 0.58,5.35 -15.1,1.15 -12.84,8.91 -13.66,-2.38 -3.12,-4.18 -11.6,-7.24 -10.45,-2.61 -8.7,-4.06 -10.56,-1.49 -5.56,1.18 -9.85,7.16 z"
       id="M10211"
       style="fill:#ffff80;fill-opacity:1;stroke:#000000;stroke-width:1.399;stroke-dasharray:none;stroke-opacity:1" />
    <path
       d="m 344.05,619.46 -6.59,2.07 -1.66,3.46 -5.65,0.63 -1.61,9.75 -8.96,7.17 -2.79,9.29 -8.41,0.13 -5.58,4.39 1.28,5.18 -2.81,8.7 -10.9,-0.38 -4.96,6.06 -1.31,6.07 -6.31,6.09 -4.6,1.01 -1.55,-3.34 2.62,-7.76 -1.99,-15.19 4.19,-9.47 2.59,-11.09 -13.91,1.4 -1.5,3.39 -11.99,4.67 -8.52,-0.37 -7.91,-18.87 -11.04,-12.89 0.74,-11.75 -8.88,-5.48 0.28,-3.02 9.85,-7.16 5.56,-1.18 10.56,1.49 8.7,4.06 10.45,2.61 11.6,7.24 3.12,4.18 13.66,2.38 12.84,-8.91 15.1,-1.15 -0.58,-5.35 7.65,-7.12 5.96,-2.16 3.19,3.34 6.79,-1.15 6.74,2.93 0.02,11.35 -7.29,12.89 z"
       id="M10210"
       style="fill:#ffff80;fill-opacity:1;stroke:#000000;stroke-width:1.399;stroke-dasharray:none;stroke-opacity:1" />
    <path
       d="m 270.39,704.99 11.34,-1.8 1.59,-2.02 14.35,-5.64 8.95,1.37 3.89,-4.73 7.33,-5.07 1.27,-4.55 5.6,-5.03 18.58,-4.63 6.94,0.27 7.93,-3.64 9.03,-1.82 0.72,-5.92 5.06,-2.18 4.3,-5.73 8.05,2.03 4.78,-0.94 -0.14,-8.85 6.24,-10.21 -2.6,-10.15 5.93,-0.44 5.08,-7.75 5.37,0.93 4.28,-2.45 -0.09,-9.47 18.25,-5.18 7.29,2.13 8.82,4.95 -4.18,2.69 1.04,6.58 -3.07,4.53 4.31,2.33 2.19,2.22 -13.93,23.39 -4.55,10.53 -11.54,14.91 -0.18,7.7 -4.17,4.11 1.46,12.62 3.16,4.22 -2.01,5.12 -7.24,-0.12 -3.94,3.42 -1.08,9.7 0.88,5.5 -7.03,0.57 -2.89,-3.94 -6.88,-0.99 -8.57,6.79 -5.59,0.67 -4.61,6.91 -4.37,-0.34 -5.46,-6.39 -6.52,0.19 2.3,-6.24 -2.45,-9.91 -12.03,-3.53 -15.29,-2.04 -6.97,4.64 -4.06,-0.72 -6.12,3.66 -8.17,1.33 -6.72,-8.68 -3.71,3.5 -5.42,0.22 -7.39,3.21 -10.79,-1.44 -6.98,2.43 4.04,-6.39 z"
       id="M10209"
       style="fill:#ffff80;fill-opacity:1;stroke:#000000;stroke-width:1.399;stroke-dasharray:none;stroke-opacity:1" />
    <path
       d="m 404.93,476.13 -1.12,-3 -7.05,-3.55 0.53,6.88 -6.52,0.55 -2.45,-7.85 -5.61,-2.11 -7.57,2.11 -23.12,-10.52 -17.39,3.26 -8.26,2.94 -4.14,-4.17 -5.76,-2.22 -3.16,-5.98 -7.63,1.85 -3.46,-2.44 9.07,-14.67 7.7,-5.41 11.46,-3.63 4.61,-7.43 7.09,-5.93 1.96,-5.2 0.05,-10.26 -5.02,2.82 -4.14,-3.14 -11.51,-0.2 -1.09,-3.76 -5.74,0.12 -2.51,-4.96 3.89,-1.17 1,-7.54 -4.76,-3.78 0.84,-4.27 4.33,-2.63 3.52,2.07 6.38,-1.64 4.22,-1.05 8.03,2.21 4.52,-0.77 7.23,3.32 7.12,0.54 15.63,-8.41 5.67,6.76 7.26,-0.83 12.65,-3.86 9.34,3.18 4.43,-1.28 3.68,-0.43 3.94,5.65 3.96,-3.45 11.9,4.08 8.01,-1.19 8.99,3.71 6.29,-2.09 15.83,2.33 2.45,4.59 4.79,6.16 -4.29,4.89 -6.67,0.77 -9.39,12.68 -1.12,3.23 -10.82,6.68 -2.1,3.89 -8.46,2.78 -1.71,3.39 -13.88,14.51 -7.88,14.07 -6.69,6.03 -2.26,9.79 z"
       id="M10208"
       style="fill:#ffff80;fill-opacity:1;stroke:#000000;stroke-width:1.399;stroke-dasharray:none;stroke-opacity:1" />
    <path
       d="m 669.48,653.2 15.36,-0.64 5.33,-2.72 -2.77,-7.87 -7.91,-2.07 2.74,-6.09 3.71,-2.56 6.79,-18.12 12.81,-3.75 3.17,-2.96 11.56,6.95 3.22,-3.63 7.59,10.36 10.58,0.13 7.28,-1.29 7.09,4.89 7.8,2.29 7.61,5.19 -21.66,3.57 -10.58,7.31 3.43,4.52 0.8,11.24 -5.92,-2.2 -5.16,3.35 -11.43,-0.79 -4.57,-2.71 -3.33,3.47 -13.13,-0.45 -6.51,5.56 -13.89,-1.01 -11.61,-2.4 z"
       id="M10207"
       style="fill:#ffff80;fill-opacity:1;stroke:#000000;stroke-width:1.399;stroke-dasharray:none;stroke-opacity:1" />
    <path
       d="m 376.1,367.11 -3.98,-4.72 0.54,-13.05 -2.05,-8.71 2.91,-8.88 -3.67,-6.21 3.62,-6.03 4.81,1 7.01,-5.31 6.04,-7.43 2.52,-9.32 4.23,-3.23 -4.16,-16.46 1.78,-4.27 -5.01,-9.37 4.89,-7.36 -1.47,-2.54 5.79,-5.51 -4.96,-3.91 2.72,-7.71 -3.37,-6.83 0.26,-4.08 8.01,-2.26 0.48,-6.68 5.55,-4.94 7.66,-4.08 7.25,2.84 6.09,-0.4 17.28,-5.15 8.19,1.94 -2.96,11.91 -6.14,5.04 -8.73,11.01 -5.25,14.76 -0.89,8.44 1.57,7.41 -0.99,11.92 -2.5,2.31 2.6,12.16 -2.02,9.96 2.18,3.37 6.62,-4.02 5.88,2.03 2.72,-2.88 1.02,-9.93 5.47,0.98 6.25,-2.57 9.65,2.24 3.82,-1.49 7.82,-7.2 7.75,-1.36 0.43,-5.27 4.92,-4.64 8.3,-4.2 3.28,0.22 3.15,6.11 4.25,-11.84 3.86,-1.9 7.6,-12.26 4.46,1.11 8.52,-3.58 7.54,0.99 3.5,2.86 18.33,-14.57 9.03,-4.26 11.54,-3.66 -0.09,-2.82 9.79,-2.36 3.16,2.2 -1.4,7.96 2.79,2.51 0.5,7.67 8.91,4.31 -3.43,12.44 1.33,3.5 -4.51,6.14 -2.13,7.55 -12.18,11.71 1.47,10.8 -2.72,2.98 -0.25,6.91 -4.91,6.71 2.41,11.61 -1.5,6.91 -9.92,7.76 -4.24,5.87 -4.84,16.29 -5.8,4.27 -19.4,-1.62 -1.54,2.53 -8.42,0.35 -2.7,5.05 -8.47,5.22 -4.29,-0.5 -16.48,5.35 1.62,7.26 -3.3,0.88 -11.81,-2.65 -4.79,-6.16 0.75,-6.89 -2.5,-6.29 -5.89,-8.18 -4.14,-13.3 0.02,-6.24 -7.05,-6.62 -4.48,-11.98 1.65,-5.75 -6.4,-4.64 -5.27,1.69 -9.03,-0.57 -8.8,6 -4.56,1.45 -4.55,5.21 -2.34,8.63 -9.57,6.68 -2.34,9.28 4.35,7 0.61,7.24 4.49,4.08 -4.43,1.28 -9.34,-3.18 -12.65,3.86 -7.26,0.83 z"
       id="M10206"
       style="fill:#ffff80;fill-opacity:1;stroke:#000000;stroke-width:1.399;stroke-dasharray:none;stroke-opacity:1" />
    <path
       d="m 657.31,603.58 -6.51,1.07 -2.22,6.02 3.24,9.01 -13.16,-2.5 -4.98,-4.33 -4.58,5.37 -5.87,2.24 -4.3,10.99 0.3,11.42 -3.92,-5.17 -5.55,-1.79 -6.01,-5.07 -18.98,9.95 -8.04,3.05 -8.6,-2.46 -4.05,-2.96 -14.01,-4.4 -0.43,-5.44 1.02,-21.08 -11.18,-9.12 1.23,-6.25 6.1,0.33 1,-16.79 -4.57,-4.79 2.32,-6.83 4.79,-23.03 4.09,-3.55 11.91,0.64 9.44,-4.02 8.72,2.34 8.65,10.88 8.42,0.71 2.65,-3.67 7.11,-1.3 11.35,8.91 5.33,6.87 16.21,10.57 2.37,6.16 -7.34,0.02 0.53,6.58 6.9,9.28 10.55,7.99 z"
       id="M10205"
       style="fill:#ffff80;fill-opacity:1;stroke:#000000;stroke-width:1.399;stroke-dasharray:none;stroke-opacity:1" />
    <path
       d="m 486.56,614.97 0.23,-2.88 -6.46,-8.25 -4.02,-10.74 -7.8,-6.75 -2.34,-5.83 -1.68,-12.75 3.45,-0.12 5.95,-5.99 6.52,3.57 8.59,-11.78 7.41,-5.77 2.85,-9.98 7.12,-1.77 2.56,-12.13 5.36,-3.21 1.13,-5.27 5.73,-1.67 3.48,4.84 5.44,0.41 3.03,-6.61 6.37,-1.77 -3.5,9.89 10.95,2.09 -0.82,11.12 4.24,7.4 -4.79,23.03 -2.32,6.83 4.57,4.79 -1,16.79 -6.1,-0.33 -1.23,6.25 11.18,9.12 -1.02,21.08 0.43,5.44 -3.53,5.15 -8.23,-2.51 -10.3,-0.28 -8.44,-9.41 -7.44,1.53 -2.44,-4.77 -6.43,0.17 z"
       id="M10204"
       style="fill:#ffff80;fill-opacity:1;stroke:#000000;stroke-width:1.399;stroke-dasharray:none;stroke-opacity:1" />
    <path
       d="m 575.79,534.09 0.9,-15.14 -19.83,-13.19 5.68,-6.22 -5.31,-4.66 4.9,-2.66 -0.89,-4.05 2.66,-6.4 3.78,-2.17 2.45,-9.26 8.36,-2.75 1.49,-6.68 7.04,-5.9 1.73,-9.67 6.5,-3.99 8.99,-3.08 0.3,-9.1 10.46,-2.61 7.38,-7.03 8.92,0.37 7.75,-7.61 9.75,-15.35 8.14,-2.03 5.05,4.89 -7.4,-0.98 -1.89,10.07 2.27,9.89 -7.67,11.53 -3.76,1.48 -2.36,11.01 7.36,9.9 1.29,7.64 2.99,4.82 -5.42,5.36 -10.5,0.53 0.76,6.03 -4.59,4.46 -1.54,6.37 -5.11,2.02 -1.66,7.73 -3.68,2.17 -5.65,8.19 -0.88,8.35 -3.46,1.99 -5.62,10.97 3.35,3.32 2.52,10.4 -7.11,1.3 -2.65,3.67 -8.42,-0.71 -8.65,-10.88 z m -9.91,-169.79 1.07,8.4 5.13,5.57 0.75,5.6 6.35,7.4 -1.88,2.81 -0.69,10.08 -4.31,1.53 -6.97,6.26 -3.67,5.93 -0.59,5.94 -6.39,3.59 10.56,5.72 1.78,7.91 -1.03,4.43 -9.42,-1.38 -7.06,5.63 -2.18,4.35 -10.65,-0.24 -1.36,-2.86 -8.89,2.81 0.97,9.2 6.73,5.47 4.02,0.53 6.08,6.36 1.36,6.21 -3.3,5.65 6.59,9.92 0.11,6.44 -9.51,6.96 -6.37,1.77 -3.03,6.61 -5.44,-0.41 -3.48,-4.84 -1.22,-17.52 -7.32,-19.84 -1.17,-19.4 -5.8,-11.96 -3.42,-17.2 -4.81,-9.47 0.93,-9.35 3.17,-4.49 -1.59,-3.55 0.47,-8.66 -1.62,-7.26 16.48,-5.35 4.29,0.5 8.47,-5.22 2.7,-5.05 8.42,-0.35 1.54,-2.53 19.4,1.62 z"
       fill-rule="evenodd"
       id="M10203"
       style="fill:#ffff80;fill-opacity:1;stroke:#000000;stroke-width:1.399;stroke-dasharray:none;stroke-opacity:1" />
    <path
       d="m 448.53,608.47 11.87,-1.03 -7.45,11.39 -6.32,5.77 -4.31,-2.33 3.07,-4.53 -1.04,-6.58 z m -126.3,-147.8 -4.65,10.88 3.39,0.37 7.52,6.67 3.4,0.56 8.16,9.96 7.57,4.39 8.17,13.66 11.86,-1.09 7.48,-7.82 5.48,3.29 2.99,9.78 4.44,1.25 3.89,-5.41 4.83,4.25 1.46,9.6 -3.15,7.83 3.37,7.57 8.42,8.34 0.22,9.53 6.63,0.23 0.82,-3.38 7.86,2.53 3.61,6.53 1.58,8.85 9.82,6.55 -3.34,9.37 8.2,10.14 -2.55,8.42 -7.29,-2.13 -18.25,5.18 0.09,9.47 -4.28,2.45 -5.37,-0.93 -5.08,7.75 -5.93,0.44 2.6,10.15 -6.24,10.21 0.14,8.85 -4.78,0.94 -8.05,-2.03 -4.3,5.73 -5.06,2.18 -0.72,5.92 -9.03,1.82 -7.93,3.64 -6.94,-0.27 2.43,-8.34 3.9,-6.45 6.29,-2.29 -3,-6.12 -2.96,-17.29 0.48,-6.23 -6.38,-6.71 -3.81,-1.86 7.29,-12.89 -0.02,-11.35 2.5,-3.33 -6.15,-16.54 -4.54,-5.12 1.2,-7.93 -7.45,-7.07 -7.1,2 -18.18,-12.05 -18.36,-6.66 -8.8,2.65 -6.37,-2.76 -5.76,0.7 -2.42,-3.07 -26.88,-11.11 -15.6,-11.59 -15.85,-4.27 -6.17,-2.66 -4.58,5.31 -5.16,-0.09 -11.5,-5.56 -8.49,3.85 -2.65,-0.69 -10.63,3.42 -2.48,-3.09 1.7,-10.33 -2.41,-9.81 7.46,-11.27 4,-1.42 5.48,-7.06 4.93,-0.95 5.64,-7.56 6.59,0.35 5.65,-4.25 10.38,-2.92 4.7,3.61 14.92,1.2 5.07,-2.33 8.37,1.01 2.56,3.38 7.36,-2.62 21.68,2.88 13.43,-1.55 7.72,1.26 3.6,-6.14 7.3,-1.3 3.46,2.44 7.63,-1.85 3.16,5.98 z"
       fill-rule="evenodd"
       id="M10202"
       style="fill:#ffff80;fill-opacity:1;stroke:#000000;stroke-width:1.399;stroke-dasharray:none;stroke-opacity:1" />
    <path
       d="m 369.85,325.54 -9.52,-1.88 -2.24,-5.43 -6.25,0.17 -15.96,-6.56 -4.7,4.46 -8.42,-2.88 -10.65,2.41 -10.6,-3.71 -3.54,-4.79 -6.46,2.5 -6.44,-0.79 -7.22,2.19 -7.43,-0.92 -2.37,-4.22 -1.5,-9.26 2.63,-16.37 -7.27,-9.44 -6.41,-3.41 -1.58,-7.79 -6.9,-12.64 3.72,-10.39 6.86,-5.01 7.2,2.31 5.74,-8.38 -1.17,-2.73 2.91,-7.93 -0.37,-7.42 -4.62,-17.45 11.18,0.36 7.14,4.03 15.45,-5.14 2.47,-5.01 14.47,-1.67 16.6,-4.34 0.46,-3.81 -3.61,-7.62 -4.39,-1.34 3.18,-9.49 -3.1,-7.32 3.66,-10.21 5.13,-6.51 5.78,-2.69 8.35,-0.06 8.36,3.25 2.82,2.97 4.78,-3.07 0.35,-10.42 -3.34,-6.82 1.44,-6 -6.21,-7.85 -1.88,-17.25 1.44,-3.8 0.24,-16.67 2.11,-2.02 19.32,1.73 9.31,-7.13 9.3,3.6 10.92,-3.12 1.49,-5.65 14.69,-10.73 4.37,-0.09 6.71,-8.9 -1.48,-7.04 0.98,-12.57 4.15,-10.78 8.96,2.68 2.56,6.05 4.74,0.3 5.62,16.83 8.42,5.34 2.66,6.85 13.43,6.47 5.3,8.82 -2.64,13.47 3.19,7.13 -6.74,6.21 -1.6,3.96 -0.53,11.79 3.47,4.77 2.65,13.44 -2.25,4.71 -0.05,15.14 -4.74,2.39 -7.11,9.33 1.32,7.18 6.35,-1.14 18.71,7.34 -1.09,4.45 1.23,9.57 -7.94,0.71 -15.13,10.21 0.13,7.26 -5.73,6.1 -6.8,2.78 -3.66,-1.26 -7.6,8.57 -8.19,-1.94 -17.28,5.15 -6.09,0.4 -7.25,-2.84 -7.66,4.08 -5.55,4.94 -0.48,6.68 -8.01,2.26 -0.26,4.08 3.37,6.83 -2.72,7.71 4.96,3.91 -5.79,5.51 1.47,2.54 -4.89,7.36 5.01,9.37 -1.78,4.27 4.16,16.46 -4.23,3.23 -2.52,9.32 -6.04,7.43 -7.01,5.31 -4.81,-1 z"
       id="M10449"
       style="fill:#ffff80;fill-opacity:1;stroke:#000000;stroke-width:1.399;stroke-dasharray:none;stroke-opacity:1" />
    <path
       d="m 380.62,495.54 2.24,-4.47 4.11,0.04 6.83,12.11 4.52,-2.88 -0.14,-5.73 3.87,-5.65 2.88,-12.83 5.09,-2.98 2.26,-9.79 6.69,-6.03 7.88,-14.07 13.88,-14.51 1.71,-3.39 8.46,-2.78 2.1,-3.89 10.82,-6.68 1.12,-3.23 9.39,-12.68 6.67,-0.77 4.29,-4.89 11.81,2.65 3.3,-0.88 -0.47,8.66 1.59,3.55 -3.17,4.49 -0.93,9.35 4.81,9.47 3.42,17.2 5.8,11.96 1.17,19.4 7.32,19.84 1.22,17.52 -5.73,1.67 -1.13,5.27 -5.36,3.21 -2.56,12.13 -7.12,1.77 -2.85,9.98 -7.41,5.77 -8.59,11.78 -6.52,-3.57 -5.95,5.99 -3.45,0.12 -10.16,0.09 4.05,5.34 -11.09,0.23 -1.37,8.44 -8.52,-6.28 -9.82,-6.55 -1.58,-8.85 -3.61,-6.53 -7.86,-2.53 -0.82,3.38 -6.63,-0.23 -0.22,-9.53 -8.42,-8.34 -3.37,-7.57 3.15,-7.83 -1.46,-9.6 -4.83,-4.25 -3.89,5.41 -4.44,-1.25 -2.99,-9.78 z"
       id="M10201"
       style="fill:#ffff80;fill-opacity:1;stroke:#000000;stroke-width:1.399;stroke-dasharray:none;stroke-opacity:1" />
    <path
       d="m 480.5,384.28 -2.45,-4.59 -15.83,-2.33 -6.29,2.09 -8.99,-3.71 -8.01,1.19 -11.9,-4.08 -3.96,3.45 -3.94,-5.65 -3.68,0.43 -4.49,-4.08 -0.61,-7.24 -4.35,-7 2.34,-9.28 9.57,-6.68 2.34,-8.63 4.55,-5.21 4.56,-1.45 8.8,-6 9.03,0.57 5.27,-1.69 6.4,4.64 -1.65,5.75 4.48,11.98 7.05,6.62 -0.02,6.24 4.14,13.3 5.89,8.18 2.5,6.29 z"
       id="M10448"
       style="fill:#ffff80;fill-opacity:1;stroke:#000000;stroke-width:1.399;stroke-dasharray:none;stroke-opacity:1" />
    <path
       d="m 502.58,268.43 -8.3,4.2 -4.92,4.64 -0.43,5.27 -7.75,1.36 -7.82,7.2 -3.82,1.49 -9.65,-2.24 -6.25,2.57 -5.47,-0.98 -1.02,9.93 -2.72,2.88 -5.88,-2.03 -6.62,4.02 -2.18,-3.37 2.02,-9.96 -2.6,-12.16 2.5,-2.31 0.99,-11.92 -1.57,-7.41 0.89,-8.44 5.25,-14.76 8.73,-11.01 6.14,-5.04 2.96,-11.91 7.6,-8.57 3.66,1.26 4.5,10.72 4.26,2.44 4.51,7.87 -1.01,14.93 -3.68,3.18 -0.02,7.01 3.56,3.65 4.22,-3.19 5.01,0.77 6.3,6.71 7.33,0.79 -1.15,8.38 z"
       id="M10444"
       style="fill:#ffff80;fill-opacity:1;stroke:#000000;stroke-width:1.399;stroke-dasharray:none;stroke-opacity:1" />
    <path
       d="m 600.5,224.67 -3.16,-2.2 -9.79,2.36 0.09,2.82 -11.54,3.66 -9.03,4.26 -18.33,14.57 -3.5,-2.86 -7.54,-0.99 -8.52,3.58 -4.46,-1.11 -7.6,12.26 -3.86,1.9 -4.25,11.84 -3.15,-6.11 -3.28,-0.22 -2.43,-4.03 1.15,-8.38 -7.33,-0.79 -6.3,-6.71 -5.01,-0.77 -4.22,3.19 -3.56,-3.65 0.02,-7.01 3.68,-3.18 1.01,-14.93 -4.51,-7.87 -4.26,-2.44 -4.5,-10.72 6.8,-2.78 5.73,-6.1 -0.13,-7.26 15.13,-10.21 7.94,-0.71 -1.23,-9.57 1.09,-4.45 -18.71,-7.34 -6.35,1.14 -1.32,-7.18 7.11,-9.33 4.74,-2.39 0.05,-15.14 2.25,-4.71 -2.65,-13.44 -3.47,-4.77 0.53,-11.79 1.6,-3.96 6.74,-6.21 3.87,3.62 4.41,-0.89 7.48,4.01 8.29,-3.74 6.3,-0.39 5.69,11.66 -5,6.34 6.74,6.9 8.84,-2.24 4.24,-4.38 4.26,-0.53 8.47,5.85 8.22,-2.61 6.43,6.79 2.47,-0.9 11.6,1.87 9.33,-2.32 6.52,9.23 12.76,-2.06 6.38,5.49 6.26,0.48 0.39,5.9 -9.09,4.15 -5.51,6.58 0.79,5.32 -2.52,4.42 -6.06,3.9 -1.62,10.8 -4.34,4.61 2.46,2.73 7.02,1.38 1.66,4.13 12.67,5.12 6.69,0.65 5.87,6.07 -9.8,9.81 -1.54,7.18 -6.7,0.64 0.07,9.7 -2.33,6.1 -7.55,2.79 z"
       id="M10443"
       style="fill:#ffff80;fill-opacity:1;stroke:#000000;stroke-width:1.399;stroke-dasharray:none;stroke-opacity:1" />
  </g>
</svg>
