<?xml version="1.0" encoding="UTF-8" standalone="no"?>
<svg
   version="1.2"
   width="690"
   height="600"
   viewBox="0 0 690 600"
   stroke-linecap="round"
   stroke-linejoin="round"
   id="svg1236"
   sodipodi:docname="ho.svg"
   inkscape:version="1.2 (dc2aedaf03, 2022-05-15)"
   xmlns:inkscape="http://www.inkscape.org/namespaces/inkscape"
   xmlns:sodipodi="http://sodipodi.sourceforge.net/DTD/sodipodi-0.dtd"
   xmlns="http://www.w3.org/2000/svg"
   xmlns:svg="http://www.w3.org/2000/svg">
  <defs
     id="defs1240" />
  <sodipodi:namedview
     id="namedview1238"
     pagecolor="#505050"
     bordercolor="#eeeeee"
     borderopacity="1"
     inkscape:showpageshadow="0"
     inkscape:pageopacity="0"
     inkscape:pagecheckerboard="0"
     inkscape:deskcolor="#505050"
     showgrid="false"
     inkscape:zoom="1.6775"
     inkscape:cx="289.71684"
     inkscape:cy="267.66021"
     inkscape:window-width="1920"
     inkscape:window-height="1009"
     inkscape:window-x="-8"
     inkscape:window-y="-8"
     inkscape:window-maximized="1"
     inkscape:current-layer="svg1236" />
  <g
     id="ho"
     style="fill:#ffff80;fill-opacity:1;stroke:#000000;stroke-width:0.57868;stroke-dasharray:none;stroke-opacity:1"
     transform="matrix(0.86403509,0,0,0.86403509,-0.61403609,92.631579)">
    <path
       d="m 350.59,347.59 -6.69,9.52 -4.63,8.41 -3.27,-1.76 -5.55,-1.81 -6.38,0.49 -1.15,1.22 -5.86,1.43 -4.92,-1.02 -2.73,1.91 0.1,1.46 -2.74,3.02 -4.16,-4.88 -0.26,-1.46 -3.58,-0.48 -1.83,-3.91 0.74,-2.52 -2.92,-2.81 0.65,-3.19 -2.98,-0.82 -0.25,-2.45 1.99,-0.87 6.51,1.98 1.27,-1.73 5.14,-0.26 3.09,-1.15 1.29,1.09 13.9,0.9 0.12,2.11 6.29,2.69 3.31,-1.42 2.56,1.21 0.72,2.38 6.24,-2.08 -3.39,-3.87 -0.73,-3.19 -2.76,-0.47 -0.09,-5.81 1.81,-0.45 1.9,-3.16 2.59,3.34 5.54,5.64 z"
       id="M01641"
       style="fill:#ffff80;fill-opacity:1;stroke:#000000;stroke-width:0.57868;stroke-dasharray:none;stroke-opacity:1" />
    <path
       d="m 359.07,225.85 -0.7,3.66 -3.89,1.3 -2.22,-0.43 -1.26,3.91 -4.75,4.06 -0.71,2.43 -3.3,-2 -2.08,-2.43 -3.55,0.02 -1.89,-1.24 -3.03,1.19 -3.05,-1.43 -2.17,0.94 -0.82,-2.74 -4.41,-2.3 1.26,-3.4 3.66,-1.96 4.18,-1.18 5.86,1.53 5.75,-2.97 1.32,-3.44 4.63,-0.57 2.52,-1.49 0.6,-2.94 4.8,-2.89 3.22,0.51 2.85,-2.1 0.64,9.4 0.62,2.67 -3.07,1.31 z"
       id="M01550"
       style="fill:#ffff80;fill-opacity:1;stroke:#000000;stroke-width:0.57868;stroke-dasharray:none;stroke-opacity:1" />
    <path
       d="m 306.77,370.46 2.74,-3.02 -0.1,-1.46 2.73,-1.91 4.92,1.02 5.86,-1.43 1.15,-1.22 6.38,-0.49 5.55,1.81 3.27,1.76 -5.2,11.5 0.04,2.04 -1.57,5.85 0.9,3.49 1.41,1.22 -0.98,4.7 -4.81,-0.31 -1.41,-1.49 -4.22,-1.69 -1.09,-3.15 -1.71,-0.47 -1.41,-3.27 -2.65,-0.92 -0.89,-2.86 -2.42,-0.58 z"
       id="M01642"
       style="fill:#ffff80;fill-opacity:1;stroke:#000000;stroke-width:0.57868;stroke-dasharray:none;stroke-opacity:1" />
    <path
       d="m 123.53,318.79 -6.56,5.67 -0.69,3.78 3.23,0.91 -0.49,3.05 -5.15,-0.94 -1.82,1.01 -6.55,0.09 -2.41,-1.09 3.25,-7.25 2.6,-2.6 -0.98,-6.12 1.8,-2.24 2.46,1.36 2.57,4.96 1.42,-2.53 z"
       id="M01395"
       style="fill:#ffff80;fill-opacity:1;stroke:#000000;stroke-width:0.57868;stroke-dasharray:none;stroke-opacity:1" />
    <path
       d="m 119.02,332.2 0.49,-3.05 -3.23,-0.91 0.69,-3.78 6.56,-5.67 8.65,6.2 -3.83,0.61 -4.04,4.66 0.34,2.97 -3.05,0.46 -0.48,3.12 -1.91,1.02 0.6,-3.87 z"
       id="M01396"
       style="fill:#ffff80;fill-opacity:1;stroke:#000000;stroke-width:0.57868;stroke-dasharray:none;stroke-opacity:1" />
    <path
       d="m 355.9,190.08 -0.04,-4.92 4.22,-0.48 2.2,-2.04 4.11,-0.97 2.11,-5.02 0.3,-6.78 3.54,2.78 5.01,-1.21 2.57,1.08 6.3,0.84 -0.99,6.99 -5.09,5.74 -1.22,0.51 -4.22,-1.24 -1.61,0.44 -1.84,3.6 -2.07,-0.37 0.94,4.15 -4.78,5.19 -5.26,-7.72 -1.79,0.96 z"
       id="M01552"
       style="fill:#ffff80;fill-opacity:1;stroke:#000000;stroke-width:0.57868;stroke-dasharray:none;stroke-opacity:1" />
    <path
       d="m 86.48,326.1 v 2.6 l 2.72,3.65 2.97,0.32 2.9,1.71 2.32,-1.09 2.22,4.72 3.02,2.55 -0.99,3.68 -4.58,1.42 -2.17,-1.92 -3.24,0.1 -3.33,1.79 -2.09,-2.61 -3.57,-1.57 -2.18,0.46 -1.27,2.2 -3.2,0.74 -1.89,-1.18 1.34,-3.2 -1.87,-3.63 0.53,-2.27 -1.68,-3.38 2.32,-2.76 6.28,1.96 -0.62,-3.71 z"
       id="M01393"
       style="fill:#ffff80;fill-opacity:1;stroke:#000000;stroke-width:0.57868;stroke-dasharray:none;stroke-opacity:1" />
    <path
       d="m 213.35,229.4 -0.22,4.75 0.87,3.03 0.64,4.57 -2.35,2.59 0.21,1.92 -0.49,2.02 -0.24,-1.97 -2.51,-2.82 -2.74,0.96 -3.22,-2.85 -2.82,3.42 -0.93,-1.77 -3.65,-1.35 -4.13,-5.01 -0.73,-3.69 -1.66,-1.13 -0.85,-2.73 -4.86,-4.64 -3,-4.24 2.87,-2.77 0.94,1.12 4.06,0.75 1.39,2.23 3.3,1.31 3.58,-1.68 2.09,-2.4 5.56,3.14 5.16,0.59 1.88,1.94 0.02,2.38 z"
       id="M01432"
       style="fill:#ffff80;fill-opacity:1;stroke:#000000;stroke-width:0.57868;stroke-dasharray:none;stroke-opacity:1" />
    <path
       d="m 109.76,313.06 -1.8,2.24 0.98,6.12 -2.6,2.6 -3.25,7.25 1.26,5.96 -1.72,3.33 -3.02,-2.55 -2.22,-4.72 -2.32,1.09 -2.9,-1.71 -2.97,-0.32 -2.72,-3.65 v -2.6 l 1.38,-5.66 -1.79,-7.42 1.86,-3.22 4.54,0.06 4.98,-0.78 3.36,1.21 6.94,1.59 z"
       id="M01394"
       style="fill:#ffff80;fill-opacity:1;stroke:#000000;stroke-width:0.57868;stroke-dasharray:none;stroke-opacity:1" />
    <path
       d="m 220.04,222.23 -3.92,0.81 0.23,-4.53 -0.98,-2.15 -0.15,-2.95 5.24,-0.4 2.33,7 z"
       id="M01433"
       style="fill:#ffff80;fill-opacity:1;stroke:#000000;stroke-width:0.57868;stroke-dasharray:none;stroke-opacity:1" />
    <path
       d="m 139.52,300.63 1.29,2.37 3.27,1.47 -1.6,3.98 0.49,3.68 -4,5.34 -0.61,3.58 -4.38,0.26 -4.85,-1.67 -5.6,-0.85 3.85,-5.22 -0.71,-1.32 2.9,-5.11 3.21,-0.1 -0.15,-2.81 2.57,-2.69 z"
       id="M01399"
       style="fill:#ffff80;fill-opacity:1;stroke:#000000;stroke-width:0.57868;stroke-dasharray:none;stroke-opacity:1" />
    <path
       d="m 203.42,258.22 -5.07,1.26 -0.66,1.62 -2.34,2.62 -1,2.58 -2.87,0.3 -3.14,-7.76 1.13,-3.4 3.8,-2.94 5.11,-5.81 1.64,-0.32 -0.12,2.46 1.97,4.89 2.41,1.88 z"
       id="M01430"
       style="fill:#ffff80;fill-opacity:1;stroke:#000000;stroke-width:0.57868;stroke-dasharray:none;stroke-opacity:1" />
    <path
       d="m 200.48,245.02 2.82,-3.42 3.22,2.85 2.74,-0.96 2.51,2.82 0.24,1.97 -1.35,0.64 -2.22,4.24 -0.21,1.36 -4.16,1.8 -0.65,1.9 0.86,-2.62 -2.41,-1.88 -1.97,-4.89 0.12,-2.46 z"
       id="M01431"
       style="fill:#ffff80;fill-opacity:1;stroke:#000000;stroke-width:0.57868;stroke-dasharray:none;stroke-opacity:1" />
    <path
       d="m 121.12,336.81 0.48,-3.12 3.05,-0.46 -0.34,-2.97 4.04,-4.66 3.83,-0.61 8.36,6.38 -1.75,3.72 -1.84,1.44 -1.97,-1.5 -4.45,-0.4 -2.77,-1.34 -1.27,1.55 z"
       id="M01397"
       style="fill:#ffff80;fill-opacity:1;stroke:#000000;stroke-width:0.57868;stroke-dasharray:none;stroke-opacity:1" />
    <path
       d="m 132.18,324.99 -8.65,-6.2 5.6,0.85 4.85,1.67 4.38,-0.26 0.61,-3.58 4,-5.34 4.99,0.19 -0.51,6.91 -2.41,1.3 2.11,3.05 -1.47,4.91 -5.14,2.88 z"
       id="M01398"
       style="fill:#ffff80;fill-opacity:1;stroke:#000000;stroke-width:0.57868;stroke-dasharray:none;stroke-opacity:1" />
    <path
       d="m 74.76,328.43 -2.32,2.76 1.68,3.38 -0.53,2.27 1.87,3.63 -1.34,3.2 -2.25,0.55 -2.57,1.19 -2.92,4.98 -3.99,-1.2 -3.78,0.41 -1.59,-2.73 -6.22,-1.02 0.22,-2.82 -2.35,-0.34 -4.62,0.88 -2.72,-0.47 1.62,-1.55 2.17,-4.41 4.75,-2.57 5.33,-0.44 3.39,0.48 2.78,-1.89 0.49,-2.15 6.3,-3.55 2.42,-5.9 3.08,2.82 z"
       id="M01391"
       style="fill:#ffff80;fill-opacity:1;stroke:#000000;stroke-width:0.57868;stroke-dasharray:none;stroke-opacity:1" />
    <path
       d="m 86.48,326.1 -6.06,0.58 0.62,3.71 -6.28,-1.96 -1.1,-4.49 -3.08,-2.82 2.64,-0.34 2.79,1.95 0.65,2.74 4.89,-1.05 0.36,-6.09 3.16,-3.04 1,-2.27 1.79,7.42 z"
       id="M01392"
       style="fill:#ffff80;fill-opacity:1;stroke:#000000;stroke-width:0.57868;stroke-dasharray:none;stroke-opacity:1" />
    <path
       d="m 315.39,270.5 1.58,5.88 -0.36,1.9 2.75,3.35 -6.32,-1.62 -2.85,10.98 1.9,0.95 0.57,5.86 -4.1,-2.72 -4.43,-3.8 -2.92,-4 -0.32,-1.99 -0.31,-4.76 3.71,-4.33 1.53,-3.96 -1.16,-5.84 1.51,-3.67 1.74,-1.94 -1.09,-2.26 2.64,-4.89 1.86,1.26 3.55,0.31 2.78,4.19 1.14,3.14 -2,2 z"
       id="M01634"
       style="fill:#ffff80;fill-opacity:1;stroke:#000000;stroke-width:0.57868;stroke-dasharray:none;stroke-opacity:1" />
    <path
       d="m 309.46,253.64 -2.64,4.89 1.09,2.26 -1.74,1.94 -1.51,3.67 1.16,5.84 -1.53,3.96 -3.71,4.33 0.31,4.76 -0.81,3.12 -2,2.62 -3.33,0.99 -1.38,2.75 -2.13,0.26 -4.98,2.53 -0.44,-4.41 -1.79,-2.98 3.31,-6.02 -0.33,-8.03 -1.92,-1.4 -0.54,-4.15 1.1,-1.27 -1.01,-4.32 1.14,-4.88 -6.42,-7.46 1.22,-1.46 2.02,-1.72 0.34,-2.19 5.2,-4.06 3.04,-3.09 3.26,-1.87 -0.17,-2.16 2.11,-2.43 1.57,0.41 3.7,2.45 6.28,1.92 2.66,6.37 -1.64,5.5 z"
       id="M01635"
       style="fill:#ffff80;fill-opacity:1;stroke:#000000;stroke-width:0.57868;stroke-dasharray:none;stroke-opacity:1" />
    <path
       d="m 319.36,281.63 -2.75,-3.35 0.36,-1.9 -1.58,-5.88 21.82,5.57 2.33,1.53 -0.15,5.25 2.14,3.01 -2.41,3.38 -3.57,0.75 -1.73,-4.03 -6.16,-1.03 -0.73,4.51 -3.19,-0.52 1.17,-4.26 -0.37,-1.72 z"
       id="M01632"
       style="fill:#ffff80;fill-opacity:1;stroke:#000000;stroke-width:0.57868;stroke-dasharray:none;stroke-opacity:1" />
    <path
       d="m 321.24,230.79 4.41,2.3 0.82,2.74 -0.74,2.01 0.14,4.53 -1.43,5.21 2.12,2.33 1.19,5.99 2.49,0.48 0.91,2.46 2.28,2.24 -0.5,2.02 5.77,0.91 2.52,2.07 -0.09,4.99 -1.59,6.53 -2.33,-1.53 -21.82,-5.57 1.4,-5.96 2,-2 -1.14,-3.14 -2.78,-4.19 -3.55,-0.31 -1.86,-1.26 -0.51,-3.33 1.64,-5.5 -2.66,-6.37 2.3,-3.99 1.56,0.92 6.9,-4.61 z"
       id="M01633"
       style="fill:#ffff80;fill-opacity:1;stroke:#000000;stroke-width:0.57868;stroke-dasharray:none;stroke-opacity:1" />
    <path
       d="m 450.72,211.52 -0.19,2.31 1.04,6.67 -7.04,5.64 -2.87,0.08 -1.76,2.9 -1.87,1 -1.87,-1.41 -1.52,0.14 -1.45,-4.96 -2.21,-0.63 -0.38,-2.08 1.38,-9.19 1.22,-0.1 -0.47,-7.48 1.08,-1.23 3.44,-0.28 -0.33,-5.14 4.93,-0.32 0.66,5.77 2.53,1.38 z"
       id="M01546"
       style="fill:#ffff80;fill-opacity:1;stroke:#000000;stroke-width:0.57868;stroke-dasharray:none;stroke-opacity:1" />
    <path
       d="m 310.18,345.91 -3.09,1.15 -5.14,0.26 -1.27,1.73 -6.51,-1.98 -1.99,0.87 -1.13,-0.82 -1.92,-4.8 -1.47,-0.19 -1.61,-4.79 1.02,-2.29 2.4,-1.14 2.94,0.79 2.48,-0.93 0.16,6.15 3.45,2.98 1.56,-1.37 3.56,0.89 5.78,-2.07 4.24,-6.38 -0.79,-0.96 3.91,-3.2 3.29,-0.29 3.19,0.92 -0.49,2.84 -5.19,8.92 -3.16,2.41 z"
       id="M01638"
       style="fill:#ffff80;fill-opacity:1;stroke:#000000;stroke-width:0.57868;stroke-dasharray:none;stroke-opacity:1" />
    <path
       d="m 436.92,197.76 0.33,5.14 -3.44,0.28 -1.08,1.23 0.47,7.48 -1.22,0.1 -1.38,9.19 -4.41,-2.19 -3.19,1.07 -4.92,-1.97 -0.02,-0.19 2.8,-1.79 1.91,-7.03 -0.47,-4.11 0.81,-3.97 2.93,-4.4 -0.16,-4.79 -2.78,-0.58 -2.41,-2.18 9.81,2.96 6.16,1.04 z"
       id="M01547"
       style="fill:#ffff80;fill-opacity:1;stroke:#000000;stroke-width:0.57868;stroke-dasharray:none;stroke-opacity:1" />
    <path
       d="m 325.37,347.9 -13.9,-0.9 -1.29,-1.09 4.22,-1.3 3.16,-2.41 5.19,-8.92 4.1,-0.26 0.7,-2.7 3.03,0.79 -1.95,8.71 3.42,1.25 -0.59,4.35 z"
       id="M01639"
       style="fill:#ffff80;fill-opacity:1;stroke:#000000;stroke-width:0.57868;stroke-dasharray:none;stroke-opacity:1" />
    <path
       d="m 408.54,230.32 1.23,5 -0.87,3.98 -6.65,-1.17 -1.79,2.22 -3.25,-0.35 -1.36,4.61 -3.81,1.6 -1.79,-0.45 -3.27,-0.9 -0.84,-1.51 -1.83,-3.87 -3.58,-0.31 -4.35,-3.64 -0.99,-2.88 -2.36,-1.36 -1.52,-3.73 0.36,-2.28 3.48,-0.35 -0.34,-3.03 3.41,-4.31 3.42,0.53 1.26,-3.35 2.46,1.18 5.75,-0.75 3.69,-4.38 2.28,1.66 1.35,3.8 2.52,4.1 -0.67,4.18 1.43,2.58 2.53,0.15 1.62,2.09 z"
       id="M01544"
       style="fill:#ffff80;fill-opacity:1;stroke:#000000;stroke-width:0.57868;stroke-dasharray:none;stroke-opacity:1" />
    <path
       d="m 300.89,285.29 0.32,1.99 2.92,4 4.43,3.8 0.25,2.53 -2.44,0.25 0.52,5.46 -3.12,0.31 2.64,3.33 -2.28,0.38 -1,3.12 -2.71,2.67 1.77,1.9 -1.34,2.39 -6.44,-1.32 -3.72,-2.72 -1.83,0.63 -2.45,-3.29 1.83,-3.17 -2.37,-4.47 1.15,-2.82 -1.89,-1.78 1.13,-0.92 4.98,-2.53 2.13,-0.26 1.38,-2.75 3.33,-0.99 2,-2.62 z"
       id="M01636"
       style="fill:#ffff80;fill-opacity:1;stroke:#000000;stroke-width:0.57868;stroke-dasharray:none;stroke-opacity:1" />
    <path
       d="m 450.72,211.52 -5.68,-6.93 -2.53,-1.38 -0.66,-5.77 -4.93,0.32 -0.26,-4.71 8.97,0.52 7,-0.7 4.23,-1.05 2.86,-2.03 1.55,-2.81 5.51,-4 2.61,-3.7 5.09,-4.76 0.18,-1.58 9.18,-7.14 0.66,-1.14 5.41,-3.42 2.83,-6.17 6.76,-7.52 0.62,-2.43 2,-0.94 -3.02,10.44 -2.06,5.34 -0.41,4.48 -2.28,0.39 -2.25,2.04 -2.95,1.08 -5.13,7.26 -0.65,1.98 -4.64,2.45 -0.69,3.34 -1.96,0.21 -2.57,4.45 0.67,2.42 -3.2,2.88 -3.5,0.68 -3.87,4.59 2.32,1.19 0.05,1.87 -3.51,4.46 -3.96,1.86 -1.61,3.78 -2.69,0.66 z"
       id="M01545"
       style="fill:#ffff80;fill-opacity:1;stroke:#000000;stroke-width:0.57868;stroke-dasharray:none;stroke-opacity:1" />
    <path
       d="m 308.56,295.08 4.1,2.72 2.06,0.72 4.38,6.16 -3.22,2.42 0.37,3.9 2.86,0.3 -2.29,4.16 -3.79,5.23 -7.01,4.5 -4.57,5.53 -3.2,-3.22 -9.81,-1.54 -1.12,-1.37 -3.94,0.02 0.03,-3.24 1.96,-4.88 2.39,-0.45 1.1,-2.03 1.83,-0.63 3.72,2.72 6.44,1.32 1.34,-2.39 -1.77,-1.9 2.71,-2.67 1,-3.12 2.28,-0.38 -2.64,-3.33 3.12,-0.31 -0.52,-5.46 2.44,-0.25 z"
       id="M01637"
       style="fill:#ffff80;fill-opacity:1;stroke:#000000;stroke-width:0.57868;stroke-dasharray:none;stroke-opacity:1" />
    <path
       d="m 220.66,243.52 4.07,0.45 0.97,2.62 3.58,2.44 -1.61,1.6 -1.74,-0.29 -5.03,1.85 0.89,-4.78 -3.13,0.15 2.55,-2.58 z"
       id="M01425"
       style="fill:#ffff80;fill-opacity:1;stroke:#000000;stroke-width:0.57868;stroke-dasharray:none;stroke-opacity:1" />
    <path
       d="m 188.11,298.01 -0.92,-1.79 1.72,-3.48 -0.5,-2.48 7.14,-5 2.98,4.29 -3.45,5.95 -1.18,0.17 -4.55,3.7 z"
       id="M01423"
       style="fill:#ffff80;fill-opacity:1;stroke:#000000;stroke-width:0.57868;stroke-dasharray:none;stroke-opacity:1" />
    <path
       d="m 359.07,225.85 1.01,-2.58 3.07,-1.31 -0.62,-2.67 -0.64,-9.4 11.43,-0.92 0.6,6.48 -1.13,3.26 2.22,3.19 0.34,3.03 -3.48,0.35 -0.36,2.28 -3.08,-1.45 -3.45,-0.47 -1.34,1.57 z"
       id="M01549"
       style="fill:#ffff80;fill-opacity:1;stroke:#000000;stroke-width:0.57868;stroke-dasharray:none;stroke-opacity:1" />
    <path
       d="m 212.01,248.28 0.49,-2.02 6.16,1.3 3.13,-0.15 -0.89,4.78 5.03,-1.85 1.74,0.29 -0.25,2.44 -2.54,-1.92 -4.41,5.29 -2.82,-0.52 -1.58,-1.91 -7.63,-0.85 2.22,-4.24 z"
       id="M01424"
       style="fill:#ffff80;fill-opacity:1;stroke:#000000;stroke-width:0.57868;stroke-dasharray:none;stroke-opacity:1" />
    <path
       d="m 218.01,287.43 -1.81,0.84 -0.87,5.87 1.15,5.61 2.61,0.25 1.02,8.94 -2.43,1.22 -3.24,-2.55 -3.31,-7.33 -3.61,-2.92 -3.78,-1.95 -0.25,-1.79 -0.72,-3.21 9.34,-6.25 z"
       id="M01429"
       style="fill:#ffff80;fill-opacity:1;stroke:#000000;stroke-width:0.57868;stroke-dasharray:none;stroke-opacity:1" />
    <path
       d="m 191.48,266.6 2.87,-0.3 -0.46,2.2 2.01,4.41 -5.16,7.1 0.99,0.61 -3.71,0.41 -0.2,-1.73 -0.81,-7.52 3.14,-4.43 z"
       id="M01304"
       style="fill:#ffff80;fill-opacity:1;stroke:#000000;stroke-width:0.57868;stroke-dasharray:none;stroke-opacity:1" />
    <path
       d="m 226.86,157.39 0.01,1.82 3.72,3.52 -1.04,2.01 -1.71,-0.5 -1.81,2.63 -7.19,0.07 -0.11,3.53 -2.56,-0.63 -2.18,1.86 -4.16,-1.41 -2.26,3.08 -2.29,-0.87 -1.13,-5.07 -3.64,-5.28 -3.51,-3.23 -2.5,0.69 0.15,-3.86 -0.92,-8.16 1.23,-0.41 1.84,-3.69 3.41,2.59 3.73,4.74 4.72,1.72 3.32,0.13 4.93,2.31 1.79,2.59 2.54,0.48 1.09,1.73 z"
       id="M01483"
       style="fill:#ffff80;fill-opacity:1;stroke:#000000;stroke-width:0.57868;stroke-dasharray:none;stroke-opacity:1" />
    <path
       d="m 226.86,157.39 -4.53,2.39 -1.09,-1.73 -2.54,-0.48 -1.79,-2.59 -4.93,-2.31 -3.32,-0.13 -4.72,-1.72 -3.73,-4.74 -3.41,-2.59 2.16,-5.17 3.13,-4.83 2.15,1.08 1.24,2.8 4.58,1.04 2.71,-0.64 1.21,-4.1 4.16,-2.33 2.91,0.96 2.23,3.71 1.03,5.78 1.6,0.72 2.42,2.28 -0.05,4.43 -2.47,1.57 2.97,5.74 z"
       id="M01484"
       style="fill:#ffff80;fill-opacity:1;stroke:#000000;stroke-width:0.57868;stroke-dasharray:none;stroke-opacity:1" />
    <path
       d="m 203.49,293.62 0.25,1.79 3.78,1.95 3.61,2.92 3.31,7.33 3.24,2.55 2.43,-1.22 2.27,1.1 1.64,4.63 2.85,0.08 -5.29,2.84 -2.16,-1.93 -1.45,-3.25 -5.61,-4.46 -1.46,-1.25 -5.1,0.46 -2.98,-2.76 -0.8,-2.93 z"
       id="M01427"
       style="fill:#ffff80;fill-opacity:1;stroke:#000000;stroke-width:0.57868;stroke-dasharray:none;stroke-opacity:1" />
    <path
       d="m 183.54,217.69 -2.87,2.77 -1.84,-1.89 -4.29,-1.2 -1.03,-3.08 -2.82,1.18 -2.83,-1.14 2.03,-2.78 1.69,-4.69 6.32,-3.9 3.01,-0.05 1.36,-2.2 2.3,0.39 3.74,-2.41 2.15,-3.53 4.56,3.34 -0.05,2.27 2.8,3.46 0.3,3.31 0.49,4.56 -6.04,-0.37 -6.15,4.84 -2.82,0.82 z"
       id="M01481"
       style="fill:#ffff80;fill-opacity:1;stroke:#000000;stroke-width:0.57868;stroke-dasharray:none;stroke-opacity:1" />
    <path
       d="m 188.11,298.01 1.24,1.36 4.55,-3.7 1.18,-0.17 3.45,-5.95 4.24,0.86 0.72,3.21 -1.47,7.85 0.8,2.93 -1.26,3.41 -4.91,1.41 -2.54,-1.73 -2.51,-6.55 -2.15,-0.14 z"
       id="M01428"
       style="fill:#ffff80;fill-opacity:1;stroke:#000000;stroke-width:0.57868;stroke-dasharray:none;stroke-opacity:1" />
    <path
       d="m 189.38,232.07 1.66,1.13 0.73,3.69 4.13,5.01 3.65,1.35 0.93,1.77 -0.46,1.35 -1.64,0.32 -5.11,5.81 -3.8,2.94 -1.13,3.4 3.14,7.76 -1.33,0.75 -3.14,4.43 0.81,7.52 -10.6,1.16 -4.18,-1.64 0.5,-1.43 1.44,-1.18 -0.79,-4.15 3.17,-0.88 2.15,-1.75 2.23,-4.89 1.77,-1.18 0.96,-3.52 0.74,-6.95 1.17,-1.86 0.31,-4.47 -0.94,-5.12 -2.54,-2.14 -0.9,-5.86 6.15,0.68 z"
       id="M01303"
       style="fill:#ffff80;fill-opacity:1;stroke:#000000;stroke-width:0.57868;stroke-dasharray:none;stroke-opacity:1" />
    <path
       d="m 236.96,60.78 0.51,1.6 -1.41,3.16 1.02,4.73 -2.04,2.16 -0.67,5.94 -1.03,0.5 -7.76,-0.86 -1.98,0.86 -1.24,-2.15 -6.67,0.82 -2.78,-2.39 -0.41,-4.89 -1.35,-2.63 -4.95,0.17 -2.89,1.08 -3.73,3.29 1.96,8.58 -0.32,0.44 0.05,-0.87 -3.3,-9.97 -2.86,-7.23 0.98,-2.09 4.93,-3.62 2.58,0.67 0.3,1.95 2.98,1.06 2.66,-0.33 2.67,-4 2.44,0.89 2.93,-0.78 3.13,1.37 2.95,-2.45 2.64,1.13 1.21,2.29 4.15,-3.49 z"
       id="M01520"
       style="fill:#ffff80;fill-opacity:1;stroke:#000000;stroke-width:0.57868;stroke-dasharray:none;stroke-opacity:1" />
    <path
       d="m 194.5,159.61 2.5,-0.69 3.51,3.23 3.64,5.28 1.13,5.07 2.29,0.87 2.26,-3.08 4.16,1.41 2.18,-1.86 2.56,0.63 0.11,-3.53 7.19,-0.07 1.81,-2.63 1.71,0.5 -0.4,5.3 -1.53,1.75 1.46,4.05 -0.33,2.47 -1.03,3.44 -1.76,2.35 -3.09,-0.87 -0.82,1.46 -3.1,-0.68 -1.46,4.15 -3.86,2.34 -2.14,-2.49 -5.16,0.73 -2.18,3.15 -2.4,0.04 -3.23,-3.16 -2.12,-0.78 -2.33,-3.36 0.94,-3.43 -0.02,-6.39 -0.74,-7.46 z"
       id="M01482"
       style="fill:#ffff80;fill-opacity:1;stroke:#000000;stroke-width:0.57868;stroke-dasharray:none;stroke-opacity:1" />
    <path
       d="m 201.22,81.19 0.32,-0.44 -1.96,-8.58 3.73,-3.29 2.89,-1.08 4.95,-0.17 1.35,2.63 0.41,4.89 2.78,2.39 6.67,-0.82 1.24,2.15 1.98,-0.86 -2.08,1.31 -1.15,2.76 1.51,2.1 -0.21,4.02 -1.19,4.59 -7,1.93 -0.98,-0.84 -2.42,-7.25 -2.91,1.52 -5.69,1.34 z"
       id="M01487"
       style="fill:#ffff80;fill-opacity:1;stroke:#000000;stroke-width:0.57868;stroke-dasharray:none;stroke-opacity:1" />
    <path
       d="m 86.03,436.23 -1.53,7.25 -2.57,0.48 -2.24,6.17 -5.7,4.3 -4.14,5.22 -3.88,0.17 -1.55,-1.83 -3.06,-0.02 -3.08,-4.39 -2.71,0.19 1.25,-6.81 4.91,-7.71 0.5,-4.35 2.97,-0.68 1.19,-2.28 0.96,1.12 6.54,0.37 0.91,-2.51 -1.06,-2.54 6.62,3.08 2.9,3.22 z"
       id="M01362"
       style="fill:#ffff80;fill-opacity:1;stroke:#000000;stroke-width:0.57868;stroke-dasharray:none;stroke-opacity:1" />
    <path
       d="m 86.03,436.23 -2.77,-1.55 -2.9,-3.22 -6.62,-3.08 1.64,-3.51 -6.63,-2.33 0.12,-1.66 3.31,0.19 3.63,-2.01 2.11,-4.05 0.87,-1.66 -0.75,-3.53 1.47,-2.91 2.65,-0.53 3.33,1.91 6.49,1.44 3.48,3.33 -0.02,4.45 -2.3,1.86 2.54,4.09 -1.1,6.3 -2.69,1.47 0.19,2.65 -4.38,0.28 z"
       id="M01363"
       style="fill:#ffff80;fill-opacity:1;stroke:#000000;stroke-width:0.57868;stroke-dasharray:none;stroke-opacity:1" />
    <path
       d="m 218.14,131.34 -4.16,2.33 -1.21,4.1 -2.71,0.64 -4.58,-1.04 -1.24,-2.8 -2.15,-1.08 1.14,-4.64 0.57,-9.76 1.66,-3.63 0.41,-6.6 1.56,0.59 1.89,3.19 3.25,1.28 4.75,0.65 0.05,8.52 -2.65,3.01 0.97,3.24 z"
       id="M01485"
       style="fill:#ffff80;fill-opacity:1;stroke:#000000;stroke-width:0.57868;stroke-dasharray:none;stroke-opacity:1" />
    <path
       d="m 225.91,142.51 -1.6,-0.72 -1.03,-5.78 -2.23,-3.71 -2.91,-0.96 -2.45,-2 -0.97,-3.24 2.65,-3.01 -0.05,-8.52 -4.75,-0.65 -3.25,-1.28 -1.89,-3.19 -1.56,-0.59 -0.79,-10.01 -1.62,-9.36 5.69,-1.34 2.91,-1.52 2.42,7.25 0.98,0.84 7,-1.93 -1.2,4.02 2.08,5.26 -0.34,3.03 0.5,5.94 1.02,3.71 2.07,0.8 1.26,3.98 -1.22,2.51 2.69,4.03 2.97,0.88 0.58,1.65 -0.82,4.19 -1.44,0.01 -2.85,3.49 -2.75,2.17 z"
       id="M01486"
       style="fill:#ffff80;fill-opacity:1;stroke:#000000;stroke-width:0.57868;stroke-dasharray:none;stroke-opacity:1" />
    <path
       d="m 73.74,428.38 1.06,2.54 -0.91,2.51 -6.54,-0.37 -0.96,-1.12 1.5,-10 -0.7,-4.28 4.24,-0.43 6.49,-2.22 -2.11,4.05 -3.63,2.01 -3.31,-0.19 -0.12,1.66 6.63,2.33 z"
       id="M01361"
       style="fill:#ffff80;fill-opacity:1;stroke:#000000;stroke-width:0.57868;stroke-dasharray:none;stroke-opacity:1" />
    <path
       d="m 123.53,318.79 -7.32,-1.94 -1.42,2.53 -2.57,-4.96 -2.46,-1.36 -2.01,-1.18 1.29,-2.34 6.24,-1.4 2.36,-2.07 -0.01,-2.59 1.74,-1.87 1.2,-4 5.17,0.95 2.64,3.62 3.28,-0.33 0.97,2.38 0.15,2.81 -3.21,0.1 -2.9,5.11 0.71,1.32 z"
       id="M01400"
       style="fill:#ffff80;fill-opacity:1;stroke:#000000;stroke-width:0.57868;stroke-dasharray:none;stroke-opacity:1" />
    <path
       d="m 19.32,384.33 0.1,2.22 -3.66,5.93 0.2,4.32 -1.95,6.19 -3.82,2.49 -2.01,-1.18 -0.72,-4.86 0.44,-2.43 -1.38,-4.73 2.44,-4.26 8.46,-1.93 z"
       id="M01367"
       style="fill:#ffff80;fill-opacity:1;stroke:#000000;stroke-width:0.57868;stroke-dasharray:none;stroke-opacity:1" />
    <path
       d="m 79.51,406.91 -1.47,2.91 0.75,3.53 -0.87,1.66 -6.49,2.22 -4.24,0.43 -1.12,-5.77 -4.07,-6.31 2.77,-1.45 4.26,0.98 3.21,-0.45 0.47,-2.15 z"
       id="M01364"
       style="fill:#ffff80;fill-opacity:1;stroke:#000000;stroke-width:0.57868;stroke-dasharray:none;stroke-opacity:1" />
    <path
       d="m 160.23,54.92 0.86,-5.5 -1.28,-3.96 -3.69,-3.09 -3.99,-2.11 3.35,-3.84 9.55,5.01 1.76,3.67 0.41,4.09 -3.61,4.09 z"
       id="M01519"
       style="fill:#ffff80;fill-opacity:1;stroke:#000000;stroke-width:0.57868;stroke-dasharray:none;stroke-opacity:1" />
    <path
       d="m 350.59,347.59 -1.11,-2.77 -5.54,-5.64 -2.59,-3.34 -1.9,3.16 -1.81,0.45 -2.55,-2.34 -0.89,-2.92 1.81,-5.17 0.11,-5.09 3.8,-4.04 -0.59,-6.03 4.51,-0.42 3.89,-0.26 5.1,-2.03 2.87,2.89 -2.21,2.45 1.51,3.87 1.57,1.17 -0.62,6.1 1.49,5.49 7.07,-1.37 -4.93,4.9 z"
       id="M01645"
       style="fill:#ffff80;fill-opacity:1;stroke:#000000;stroke-width:0.57868;stroke-dasharray:none;stroke-opacity:1" />
    <path
       d="m 341.53,285.86 -2.14,-3.01 0.15,-5.25 1.59,-6.53 10.3,1.36 3.89,3.45 6.58,-4.24 5.48,4.55 4.04,-1.31 1.6,0.88 -2.08,4.65 -2.05,-0.16 -3.48,1.41 -5.67,4.24 -5.05,2.88 -1.11,1.8 -4.12,1.99 -3.43,-2.45 z"
       id="M01646"
       style="fill:#ffff80;fill-opacity:1;stroke:#000000;stroke-width:0.57868;stroke-dasharray:none;stroke-opacity:1" />
    <path
       d="m 337.64,339.45 0.09,5.81 2.76,0.47 0.73,3.19 3.39,3.87 -6.24,2.08 -0.72,-2.38 -2.56,-1.21 -3.31,1.42 -6.29,-2.69 -0.12,-2.11 6.09,-2.48 0.59,-4.35 -3.42,-1.25 1.95,-8.71 -3.03,-0.79 1.66,-4.28 -2.92,-0.75 1.06,-2.49 -3.57,-3.21 1.27,-2.53 0.6,-5.44 -0.97,-0.66 2.74,-4.41 6.18,-0.22 4.47,-0.75 0.4,1.44 3.91,3.7 1.46,2.72 -4.51,0.42 0.59,6.03 -3.8,4.04 -0.11,5.09 -1.81,5.17 0.89,2.92 z"
       id="M01643"
       style="fill:#ffff80;fill-opacity:1;stroke:#000000;stroke-width:0.57868;stroke-dasharray:none;stroke-opacity:1" />
    <path
       d="m 335.55,289.99 3.57,-0.75 2.41,-3.38 4.5,4.26 3.43,2.45 4.12,-1.99 0.43,2.84 2.17,2.49 -1.33,3.28 0.64,2.68 -1.5,1.55 1.12,3.89 -2.28,3.84 -5.1,2.03 -3.89,0.26 -1.46,-2.72 -3.91,-3.7 -0.4,-1.44 -4.47,0.75 0.4,-3.09 3.46,-0.76 0.69,-2.45 -2.87,-9 z"
       id="M01644"
       style="fill:#ffff80;fill-opacity:1;stroke:#000000;stroke-width:0.57868;stroke-dasharray:none;stroke-opacity:1" />
    <path
       d="m 234.37,78.37 0.67,-5.94 2.04,-2.16 2.65,0.24 5.01,-5.01 2.06,-1.21 8.88,1.35 0.76,3.25 1.49,0.66 1.11,4.18 -2.56,6.67 -2.98,1.69 -3.91,5.29 0.56,3.67 -0.85,1.95 -2.39,-1.25 -0.19,-3.97 -4.53,-0.1 -4.46,2.95 -1.24,-1.71 0.59,-4.68 -1.14,-3.94 z"
       id="M01513"
       style="fill:#ffff80;fill-opacity:1;stroke:#000000;stroke-width:0.57868;stroke-dasharray:none;stroke-opacity:1" />
    <path
       d="m 364.51,331.75 -7.07,1.37 -1.49,-5.49 0.62,-6.1 -1.57,-1.17 -1.51,-3.87 2.21,-2.45 -2.87,-2.89 2.28,-3.84 -1.12,-3.89 1.5,-1.55 -0.64,-2.68 1.33,-3.28 -2.17,-2.49 -0.43,-2.84 1.11,-1.8 5.05,-2.88 5.67,-4.24 3.48,-1.41 2.05,0.16 0.03,3.56 -1.12,1.32 0.09,4.27 -3.78,4.59 -0.62,4.51 3.99,2.95 2.2,9.29 7.7,6.14 z"
       id="M01649"
       style="fill:#ffff80;fill-opacity:1;stroke:#000000;stroke-width:0.57868;stroke-dasharray:none;stroke-opacity:1" />
    <path
       d="m 249.3,93 0.85,-1.95 -0.56,-3.67 3.91,-5.29 2.98,-1.69 2.56,-6.67 -1.11,-4.18 2.33,-2.51 1.41,1.09 2.62,-3.92 -1.72,-3.07 2.8,-1.41 0.29,2.37 2.04,1.53 1.06,4.85 2.76,2.88 0.7,4.73 3.86,3.98 2.28,5.58 1.26,0.57 5.26,8.78 4.61,5.16 4.1,3.51 -4.24,5.51 -4.3,-0.13 -3.14,1.33 -1.26,3.18 -3.36,1.52 -6.87,-1.22 -0.59,-1.74 -2.79,0.72 -1.15,3.02 -2.63,-2.65 -3.62,-1.7 -2.53,-3.32 0.56,-2 -1.41,-4.11 -5.67,-1.11 -2.07,-4.44 z"
       id="M01514"
       style="fill:#ffff80;fill-opacity:1;stroke:#000000;stroke-width:0.57868;stroke-dasharray:none;stroke-opacity:1" />
    <path
       d="m 236.96,60.78 -5.3,-5.06 -4.15,3.49 -1.21,-2.29 -2.64,-1.13 -1.47,-3.6 2.6,-2.34 -1.12,-4.42 -2.26,-2.74 1.55,-3.77 -0.47,-5.98 -1.97,-0.87 0.63,-2.97 -1.3,-2.09 1.44,-2.13 4.04,-1.31 1.57,-1.35 0.52,-3.08 9.69,7.16 9.9,13.81 5.04,6.04 -2.13,1.69 -5.7,-3.74 -1.03,1.43 -2.86,0.15 -2.7,5.69 1.46,1.46 0.64,4.28 -1.23,3.28 z"
       id="M01511"
       style="fill:#ffff80;fill-opacity:1;stroke:#000000;stroke-width:0.57868;stroke-dasharray:none;stroke-opacity:1" />
    <path
       d="m 326.47,235.83 2.17,-0.94 3.05,1.43 3.03,-1.19 1.89,1.24 3.55,-0.02 2.08,2.43 3.3,2 -0.62,6.97 7.48,-1.44 2.92,1.21 2.34,-2.14 3.92,1.62 1.38,1.73 4.32,-0.13 -1.8,5.38 -2.72,0.79 -1.01,2.1 1.89,2.24 2.79,0.02 6.16,-5.05 1.17,-3.84 3.95,-7.5 3.2,1.81 5.23,-1.2 0.84,1.51 3.27,0.9 0.46,3.43 2.09,2.67 -1.77,4.21 -7.29,4.01 -9.92,10.5 -0.8,5.18 -1.6,-0.88 -4.04,1.31 -5.48,-4.55 -6.58,4.24 -3.89,-3.45 -10.3,-1.36 0.09,-4.99 -2.52,-2.07 -5.77,-0.91 0.5,-2.02 -2.28,-2.24 -0.91,-2.46 -2.49,-0.48 -1.19,-5.99 -2.12,-2.33 1.43,-5.21 -0.14,-4.53 z"
       id="M01647"
       style="fill:#ffff80;fill-opacity:1;stroke:#000000;stroke-width:0.57868;stroke-dasharray:none;stroke-opacity:1" />
    <path
       d="m 237.08,70.27 -1.02,-4.73 1.41,-3.16 -0.51,-1.6 1.54,-0.39 1.23,-3.28 -0.64,-4.28 -1.46,-1.46 2.7,-5.69 2.86,-0.15 1.03,-1.43 5.7,3.74 2.13,-1.69 5.16,6.41 6.31,7 1.85,0.17 -2.8,1.41 1.72,3.07 -2.62,3.92 -1.41,-1.09 -2.33,2.51 -1.49,-0.66 -0.76,-3.25 -8.88,-1.35 -2.06,1.21 -5.01,5.01 z"
       id="M01512"
       style="fill:#ffff80;fill-opacity:1;stroke:#000000;stroke-width:0.57868;stroke-dasharray:none;stroke-opacity:1" />
    <path
       d="m 345.54,240.78 0.71,-2.43 4.75,-4.06 1.26,-3.91 2.22,0.43 3.89,-1.3 0.7,-3.66 4.57,1.36 1.34,-1.57 3.45,0.47 3.08,1.45 1.52,3.73 2.36,1.36 0.99,2.88 4.35,3.64 3.58,0.31 1.83,3.87 -5.23,1.2 -3.2,-1.81 -3.95,7.5 -1.17,3.84 -6.16,5.05 -2.79,-0.02 -1.89,-2.24 1.01,-2.1 2.72,-0.79 1.8,-5.38 -4.32,0.13 -1.38,-1.73 -3.92,-1.62 -2.34,2.14 -2.92,-1.21 -7.48,1.44 z"
       id="M01648"
       style="fill:#ffff80;fill-opacity:1;stroke:#000000;stroke-width:0.57868;stroke-dasharray:none;stroke-opacity:1" />
    <path
       d="m 137.03,11.82 1.4,2.38 2.35,1.29 3.02,-2.11 1.47,3.36 -0.87,1.66 V 29 l -2.5,2.75 -1.7,-3.34 -1.98,-6.98 0.95,-4.43 z"
       id="M01517"
       style="fill:#ffff80;fill-opacity:1;stroke:#000000;stroke-width:0.57868;stroke-dasharray:none;stroke-opacity:1" />
    <path
       d="m 152.13,40.26 3.99,2.11 3.69,3.09 1.28,3.96 -0.86,5.5 -3.47,-1.56 -3.25,-2.79 -2.06,-2.93 -0.72,-6.07 z"
       id="M01518"
       style="fill:#ffff80;fill-opacity:1;stroke:#000000;stroke-width:0.57868;stroke-dasharray:none;stroke-opacity:1" />
    <path
       d="m 223.66,55.79 -2.95,2.45 -3.13,-1.37 -2.93,0.78 -2.44,-0.89 -2.67,4 -2.66,0.33 -2.98,-1.06 -0.3,-1.95 -2.58,-0.67 -4.93,3.62 -0.98,2.09 -6.05,-13.65 -1.07,-3.48 1.52,-2.94 3.04,-1.07 2.06,-2.9 6.16,-0.53 0.27,-3.1 2.4,-1.07 1.72,4.63 -1.16,0.82 2.41,3.34 5.37,2.8 3.24,-1.7 3.54,-4.21 4.4,-1.14 -1.55,3.77 2.26,2.74 1.12,4.42 -2.6,2.34 z"
       id="M01516"
       style="fill:#ffff80;fill-opacity:1;stroke:#000000;stroke-width:0.57868;stroke-dasharray:none;stroke-opacity:1" />
    <path
       d="m 92.08,433.88 -0.19,-2.65 2.69,-1.47 1.1,-6.3 -2.54,-4.09 2.3,-1.86 0.02,-4.45 3.27,0.94 2.79,-0.63 3.43,3.29 2.69,1.95 -0.19,1.74 4.38,1.89 0.31,4.55 2.46,2.81 0.81,4.22 -4.56,-1.41 -2.71,1.79 -1.74,6.99 -3.86,2.22 -0.44,-2.47 -3.63,-2.97 -6,-2.78 z"
       id="M01236"
       style="fill:#ffff80;fill-opacity:1;stroke:#000000;stroke-width:0.57868;stroke-dasharray:none;stroke-opacity:1" />
    <path
       d="m 41.33,343.1 2.72,0.47 4.62,-0.88 2.35,0.34 -0.22,2.82 6.22,1.02 1.59,2.73 -0.09,1.21 -4.95,4.07 1.73,3.77 -4.4,7.29 2.82,10.56 1.48,3.57 2.13,1.58 1.97,5.57 -1.84,0.16 -2.03,2.7 -1.88,-0.92 -2.69,2.51 -1.3,5.42 -3.42,-8.15 -6.76,-2.38 -2.08,-3.73 0.91,-1.47 -1.56,-3.1 1.16,-5.69 1.26,-0.39 3.34,-5.57 1.41,-6.81 -0.53,-6.79 z"
       id="M01371"
       style="fill:#ffff80;fill-opacity:1;stroke:#000000;stroke-width:0.57868;stroke-dasharray:none;stroke-opacity:1" />
    <path
       d="m 58.61,349.6 3.78,-0.41 3.99,1.2 2.92,-4.98 2.57,-1.19 1.91,3.47 2.8,0.41 1.77,2.31 -4.62,8.13 0.46,3.4 1.7,4.92 -0.51,0.96 -5.93,2.56 -2.94,3.3 -2.24,0.11 -1.27,3.91 -2.04,3.17 -3.63,0.78 -2.13,-1.58 -1.48,-3.57 -2.82,-10.56 4.4,-7.29 -1.73,-3.77 4.95,-4.07 z"
       id="M01370"
       style="fill:#ffff80;fill-opacity:1;stroke:#000000;stroke-width:0.57868;stroke-dasharray:none;stroke-opacity:1" />
    <path
       d="m 292.18,347.94 0.25,2.45 2.98,0.82 -0.65,3.19 2.92,2.81 -0.74,2.52 -1.31,1.57 -2.88,0.35 -4.46,1.96 -0.14,2.28 1.37,3.7 -2.35,4.54 0.27,2.12 -2.75,5 -3.04,4.1 -1.33,0.1 -2.85,3.36 -5.35,-3.86 -3.45,-0.87 -5.67,-2.64 -3.12,-3.62 -2.68,-0.25 -6.02,-4.12 0.93,-1.33 6.1,-4.37 2.81,-3.69 1.95,-1.13 1.32,-3.39 3.85,-2.31 2.43,-3.59 -0.92,-3.9 1.36,-5.17 4.53,-1.66 5.95,-5.26 4.56,-0.31 1.61,4.79 1.47,0.19 1.92,4.8 z"
       id="M01610"
       style="fill:#ffff80;fill-opacity:1;stroke:#000000;stroke-width:0.57868;stroke-dasharray:none;stroke-opacity:1" />
    <path
       d="m 139.52,300.63 -4.32,0.91 -2.57,2.69 -0.97,-2.38 -3.28,0.33 -2.64,-3.62 -2.93,-5.54 -2.93,-2.05 0.13,-2.97 5.28,-2.26 7.73,-1.58 6.55,0.4 0.14,3.46 1.37,2.55 2.35,1.53 -1.58,2.83 -2.92,1.43 z"
       id="M01409"
       style="fill:#ffff80;fill-opacity:1;stroke:#000000;stroke-width:0.57868;stroke-dasharray:none;stroke-opacity:1" />
    <path
       d="m 142.97,312.13 -0.49,-3.68 1.6,-3.98 -3.27,-1.47 -1.29,-2.37 -0.59,-4.27 2.92,-1.43 1.58,-2.83 1.12,-0.88 1.48,-5.68 3.67,0.76 3.15,2.62 3.39,-4.48 -0.89,-1.42 2.8,-2.04 2.2,-0.1 2.95,2.9 4.17,-1.72 2.12,-3.11 2.48,0.28 1.47,-1.84 -0.5,1.43 4.18,1.64 0.47,3.19 -0.89,3.86 2.47,0.56 -0.2,3.04 2.48,2.12 0.35,3.44 -1.53,-0.28 -2.72,9.41 -3.16,3.79 0.38,1.85 -4.27,0.01 -1.04,1.71 -3.1,0.42 -1.44,-1.61 -3.89,2.55 -1.77,4.93 -3.06,4.19 -3.21,0.39 -2.3,-2.62 -3.34,-2.18 0.51,-6.91 z"
       id="M01100"
       style="fill:#ffff80;fill-opacity:1;stroke:#000000;stroke-width:0.57868;stroke-dasharray:none;stroke-opacity:1" />
    <path
       d="m 717.53,70.16 -0.95,1.27 -4.47,-0.52 -5.51,2.09 -3.45,-2.18 -1.44,-4.33 -3.38,-0.28 -2.62,1.3 -3.14,3.94 -0.49,2.49 2.46,3 -3.52,5.81 -0.12,1.38 -3.89,4.38 -2.87,0.39 -2.49,3.72 -1.98,0.15 -6.49,4.02 -2.11,2.78 -1.95,0.84 -5.92,9.19 -1.2,4.32 -3.58,3.15 -4.49,1.51 -3.79,-1.03 -2.87,1.55 -3.92,4.36 -1.89,3.34 -1.83,5.29 -3.02,2.21 -3.28,-0.33 -4.15,-2.77 1.52,-5.55 1.72,-2.4 2.02,-0.45 2.75,-3.74 -1.84,-2.83 0.26,-3 4.72,3.59 2.9,-2.75 0.57,-4.7 2.35,-1.79 1.05,1.97 4.67,-1.78 4.1,-4.21 1.78,-6.34 -0.84,-2.72 -4.21,-0.34 -2.19,-1.32 -1.05,-2.6 0.53,-2.44 2.12,-0.9 3.09,1.3 1.94,2.53 4.37,-1.5 2.33,-7.38 5.09,-1.95 4.11,-2.63 5.87,-7.1 5.33,-3.03 -0.44,-3.23 1.68,-7.16 1.62,-2.87 3.28,3.11 3.98,0.93 4.28,-2.29 0.2,-4.54 2.46,-4.78 0.66,0.19 15.69,16.95 z"
       id="M01698"
       style="fill:#ffff80;fill-opacity:1;stroke:#000000;stroke-width:0.57868;stroke-dasharray:none;stroke-opacity:1" />
    <path
       d="m 717.53,70.16 0.12,-6.71 -15.69,-16.95 -0.66,-0.19 1.14,-2.41 2.58,-0.14 1.13,-1.66 3.97,-1 2.28,0.71 2.29,-4.67 -1.27,-1.63 0.49,-3.7 -1.29,-2.97 -0.63,-5.5 2.35,-4.74 4.02,-3.7 3.03,3.03 0.62,3.44 5.04,13.38 3.38,1.36 5.63,0.31 7.76,-1.02 5.18,-1.26 4.23,-1.79 0.61,6.86 1.33,0.72 -5.91,1.84 -2.63,2.75 -1.97,0.55 -3.41,3.06 -2.66,1.32 -5.68,4.06 -7.63,9.12 -2.3,3.93 -3.85,1.66 z"
       id="M01699"
       style="fill:#ffff80;fill-opacity:1;stroke:#000000;stroke-width:0.57868;stroke-dasharray:none;stroke-opacity:1" />
    <path
       d="m 105.46,288.12 -4.08,3.12 -1.06,4.58 -1.37,-0.32 -1.47,-3.83 -2.51,-2.76 -1.66,-3.42 2.01,-3.26 3.08,1.06 2.88,-2.52 1.46,5.29 z"
       id="M01403"
       style="fill:#ffff80;fill-opacity:1;stroke:#000000;stroke-width:0.57868;stroke-dasharray:none;stroke-opacity:1" />
    <path
       d="m 101.28,280.77 -2.88,2.52 -3.08,-1.06 -2.01,3.26 -1.94,-3.07 -5.27,-4 -2.86,-4.65 0.98,-6.97 1.25,0.53 1.92,4.31 4.34,1.66 3.33,-2.34 1.53,3.25 3.5,0.38 z"
       id="M01404"
       style="fill:#ffff80;fill-opacity:1;stroke:#000000;stroke-width:0.57868;stroke-dasharray:none;stroke-opacity:1" />
    <path
       d="m 107.75,311.88 -6.94,-1.59 -0.33,-9.95 -0.67,-1.16 0.51,-3.36 1.06,-4.58 4.08,-3.12 3.59,1.82 2.56,0.72 5.44,6.54 3.52,0.41 -1.2,4 -1.74,1.87 0.01,2.59 -2.36,2.07 -6.24,1.4 z"
       id="M01401"
       style="fill:#ffff80;fill-opacity:1;stroke:#000000;stroke-width:0.57868;stroke-dasharray:none;stroke-opacity:1" />
    <path
       d="m 100.81,310.29 -3.36,-1.21 -4.98,0.78 -4.54,-0.06 2.93,-4.07 8.62,-5.37 0.33,-1.18 0.67,1.16 z"
       id="M01402"
       style="fill:#ffff80;fill-opacity:1;stroke:#000000;stroke-width:0.57868;stroke-dasharray:none;stroke-opacity:1" />
    <path
       d="m 125.74,298.56 -5.17,-0.95 -3.52,-0.41 -5.44,-6.54 -2.56,-0.72 1.95,-3.81 -0.58,-3.99 3.27,0.69 3.25,-1.78 4.97,-1.63 3.38,6.32 -5.28,2.26 -0.13,2.97 2.93,2.05 z"
       id="M01407"
       style="fill:#ffff80;fill-opacity:1;stroke:#000000;stroke-width:0.57868;stroke-dasharray:none;stroke-opacity:1" />
    <path
       d="m 312.66,297.8 -0.57,-5.86 -1.9,-0.95 2.85,-10.98 6.32,1.62 5.18,1.31 0.37,1.72 -1.17,4.26 3.19,0.52 0.73,-4.51 6.16,1.03 1.73,4.03 -0.27,1.04 2.87,9 -0.69,2.45 -3.46,0.76 -0.4,3.09 -6.18,0.22 -3.96,-0.23 -4.36,-1.64 -4.38,-6.16 z"
       id="M01631"
       style="fill:#ffff80;fill-opacity:1;stroke:#000000;stroke-width:0.57868;stroke-dasharray:none;stroke-opacity:1" />
    <path
       d="m 133.02,284.16 -7.73,1.58 -3.38,-6.32 -4.97,1.63 -3.25,1.78 -3.27,-0.69 0.29,-3.9 3.37,-1.3 -1.61,-3.1 2.16,-3.47 6.42,3 -0.1,2.52 3.27,0.99 2.48,-0.75 1.81,4.03 4.76,1.58 z"
       id="M01408"
       style="fill:#ffff80;fill-opacity:1;stroke:#000000;stroke-width:0.57868;stroke-dasharray:none;stroke-opacity:1" />
    <path
       d="m 100.09,274.59 -3.5,-0.38 -1.53,-3.25 -3.33,2.34 -4.34,-1.66 -1.92,-4.31 -1.25,-0.53 1.57,-2.28 0.39,-3.44 5.36,0.32 2.96,-1.77 1.95,-3.61 3.57,1.94 4.46,5.55 4.27,1.8 -2.63,2.62 -1.8,3.31 -2.98,1.04 z"
       id="M01405"
       style="fill:#ffff80;fill-opacity:1;stroke:#000000;stroke-width:0.57868;stroke-dasharray:none;stroke-opacity:1" />
    <path
       d="m 105.46,288.12 -2.72,-2.06 -1.46,-5.29 -1.19,-6.18 1.25,-2.31 2.98,-1.04 1.8,-3.31 2.63,-2.62 1.35,3.66 4.53,1.4 -2.16,3.47 1.61,3.1 -3.37,1.3 -0.29,3.9 0.58,3.99 -1.95,3.81 z"
       id="M01406"
       style="fill:#ffff80;fill-opacity:1;stroke:#000000;stroke-width:0.57868;stroke-dasharray:none;stroke-opacity:1" />
    <path
       d="m 219.42,315.66 2.16,1.93 5.29,-2.84 3.09,-0.72 2.06,1.93 0.59,4.48 -4.2,7.53 -4.86,4.8 -0.87,1.57 0.81,4.28 -2.84,1.64 -2.48,-0.62 -1.27,2.91 -2.69,1.31 -1.28,2.25 -5.57,-2.74 -0.94,0.96 1.34,-2.59 0.06,-4.75 0.85,-3.66 1.88,-3.63 1.19,-4.1 4.51,-4.95 1.27,-3.25 z"
       id="M01581"
       style="fill:#ffff80;fill-opacity:1;stroke:#000000;stroke-width:0.57868;stroke-dasharray:none;stroke-opacity:1" />
    <path
       d="m 255.15,245.31 7.4,4.76 -1.46,2.26 2.67,1.73 3.49,-0.24 2.85,1.42 -2.05,1.71 -6.89,0.66 -2.37,1.19 -5.96,-3.19 -0.56,-2.44 1.61,-2.72 -0.82,-4.84 z"
       id="M01461"
       style="fill:#ffff80;fill-opacity:1;stroke:#000000;stroke-width:0.57868;stroke-dasharray:none;stroke-opacity:1" />
    <path
       d="m 212.93,346.11 1.28,-2.25 2.69,-1.31 1.27,-2.91 2.48,0.62 2.84,-1.64 -0.81,-4.28 0.87,-1.57 4.86,-4.8 4.2,-7.53 -0.59,-4.48 -2.06,-1.93 2.22,-2.87 0.28,-2.39 2.92,-1.5 -0.09,-2.37 5.06,-0.53 2.82,-2.37 3.44,-0.79 -0.1,4.25 1.94,0.34 1.9,5.72 -1.68,5.51 0.06,5.88 -0.55,2.02 -3.84,2.94 -2.75,0.3 -4.4,5.92 -3.68,8.34 -0.32,2.93 -6.03,3.71 -2.89,1.63 -2.51,0.09 -1.29,1.9 z"
       id="M01586"
       style="fill:#ffff80;fill-opacity:1;stroke:#000000;stroke-width:0.57868;stroke-dasharray:none;stroke-opacity:1" />
    <path
       d="m 279.36,252.64 6.42,7.46 -1.14,4.88 1.01,4.32 -1.1,1.27 0.54,4.15 1.92,1.4 0.33,8.03 -3.31,6.02 1.79,2.98 0.44,4.41 -1.13,0.92 -1.09,-0.55 -4.57,-3.74 -2.42,-3.21 -4.02,-0.92 0.07,-2.85 -3.64,-2.65 -3.14,-0.66 -2.01,3.3 -4.03,2.4 -4.53,-1.97 -4.28,1.71 -0.25,2.64 -1.85,1.49 -3.75,-2.09 -1.91,-5.75 1.47,-2.1 -0.78,-1.77 2.56,-5.32 -0.45,-3.16 0.13,-1.14 3.33,3.26 0.3,4.65 h 4.33 l 1.63,-4.9 3.24,0.56 1.52,3.14 2.14,0.36 4.1,-2.59 3.25,0.8 3.58,-2.76 2.48,-0.67 1.84,-1.9 1.46,-4.29 0.01,-2.6 -4.02,-5.35 1.91,-1.65 1.31,-5.13 z"
       id="M01462"
       style="fill:#ffff80;fill-opacity:1;stroke:#000000;stroke-width:0.57868;stroke-dasharray:none;stroke-opacity:1" />
    <path
       d="m 119.21,337.83 1.91,-1.02 5.37,-1.97 1.27,-1.55 2.77,1.34 4.45,0.4 1.97,1.5 -0.57,2.99 -3.51,-0.07 -1.24,2.63 -2.63,-2.67 -3.1,-0.17 -3.85,4.88 0.84,3.7 2.58,0.71 -0.38,2.58 -4.38,2.5 -1.21,-3.49 -2.75,-2.34 2.74,-2.52 -2.11,-4.82 z"
       id="M01584"
       style="fill:#ffff80;fill-opacity:1;stroke:#000000;stroke-width:0.57868;stroke-dasharray:none;stroke-opacity:1" />
    <path
       d="m 280.58,251.18 -1.22,1.46 -0.31,0.43 -4.98,2.28 -1.65,-1.13 -2.32,1.02 -2.85,-1.42 -3.49,0.24 -2.67,-1.73 1.46,-2.26 -7.4,-4.76 1.39,-0.57 0.32,-7.39 3.29,-0.08 2.37,3.05 3.23,1.1 5.15,-1.29 2.22,1.84 1.28,3.61 2.09,0.92 z"
       id="M01460"
       style="fill:#ffff80;fill-opacity:1;stroke:#000000;stroke-width:0.57868;stroke-dasharray:none;stroke-opacity:1" />
    <path
       d="m 212.36,307.95 5.61,4.46 1.45,3.25 -1.9,1.74 -1.27,3.25 -4.51,4.95 -1.19,4.1 -1.88,3.63 -2.54,0.26 -3.89,-3.61 -0.52,-6.73 2.8,-4.04 1.24,-6.02 1.29,-1.9 z"
       id="M01585"
       style="fill:#ffff80;fill-opacity:1;stroke:#000000;stroke-width:0.57868;stroke-dasharray:none;stroke-opacity:1" />
    <path
       d="m 260.63,170.75 -3.18,4.89 -5.4,2.16 -2.26,1.73 -3.6,-0.3 -0.56,-4.03 1.06,-1.66 -0.56,-3.29 0.95,-4.8 1.35,-2.03 3.38,1.87 0.98,2.38 4.82,-0.91 -0.26,2.73 z"
       id="M01465"
       style="fill:#ffff80;fill-opacity:1;stroke:#000000;stroke-width:0.57868;stroke-dasharray:none;stroke-opacity:1" />
    <path
       d="m 250.35,311.52 -1.9,-5.72 -1.94,-0.34 0.1,-4.25 1.34,-3.89 2.87,-1.88 -1.45,-1.97 1.85,-1.49 0.25,-2.64 4.28,-1.71 4.53,1.97 4.03,-2.4 2.01,-3.3 3.14,0.66 3.64,2.65 -0.07,2.85 4.02,0.92 2.42,3.21 4.57,3.74 -1.45,1.84 -3.69,1.34 -2.87,-0.49 -3.75,2.32 -1.17,3.92 -2.26,2.36 -2.05,-1.41 -2.92,-0.02 -3.58,1.37 -1.6,-1.98 -3.87,4.82 z"
       id="M01463"
       style="fill:#ffff80;fill-opacity:1;stroke:#000000;stroke-width:0.57868;stroke-dasharray:none;stroke-opacity:1" />
    <path
       d="m 246.19,179.23 3.6,0.3 2.26,-1.73 5.4,-2.16 3.18,-4.89 2.34,4.64 0.57,3.79 -0.75,5.52 1.52,2.02 -0.34,2.26 -3.29,-1.29 -1.35,2.34 -0.89,0.43 -0.73,-1.14 -4.24,-1.09 -4.23,0.42 -2.4,2.28 -3.16,-1.93 0.7,-2.95 -1.41,-4.51 z"
       id="M01464"
       style="fill:#ffff80;fill-opacity:1;stroke:#000000;stroke-width:0.57868;stroke-dasharray:none;stroke-opacity:1" />
    <path
       d="m 95.46,413.06 -3.48,-3.33 -0.03,-6.98 -1.25,-3.22 -1.69,-1.03 2.76,-4.46 2.52,-1.6 4.81,5.34 5.42,2.38 6.27,-2.25 2.85,0.25 1.35,-1.29 4.79,2.63 0.43,1.88 -2.63,2.27 -4.87,1.6 1.84,6.22 -5.52,0.98 -1.46,-0.76 -2.47,1.63 -0.15,3.34 -3.43,-3.29 -2.79,0.63 z"
       id="M01345"
       style="fill:#ffff80;fill-opacity:1;stroke:#000000;stroke-width:0.57868;stroke-dasharray:none;stroke-opacity:1" />
    <path
       d="m 260.63,170.75 -3.28,-1.26 0.26,-2.73 -4.82,0.91 -0.98,-2.38 -3.38,-1.87 -1.35,2.03 -0.95,4.8 0.56,3.29 -1.06,1.66 0.56,4.03 -3.22,2.31 -4.96,-3.34 0.35,-5.34 1.92,-3.25 -2.07,-4.02 2.67,-10.7 -3.07,-1.35 3.27,-3.99 6.58,2.79 1.53,-0.21 10.35,-0.04 0.56,2.03 2.57,0.02 1.43,3.9 6.15,5.03 4.55,0.79 1.37,0.8 2.44,-1.94 6.57,-1.15 2.33,1.54 2.75,4.33 3.02,-1.75 0.28,3.38 1.57,2.35 0.01,4.36 1.54,2.44 1.97,6.89 -1.73,4.25 -2.61,0.99 -2.89,3.43 -3.49,-1.74 -1.51,-1.39 -2.88,-6.02 -3.36,-3.02 -3.12,1.11 -2.78,-2.2 -1.88,1.57 -3.4,0.97 -1.13,1.63 -3.56,2.03 -1.52,-2.02 0.75,-5.52 -0.57,-3.79 z"
       id="M01220"
       style="fill:#ffff80;fill-opacity:1;stroke:#000000;stroke-width:0.57868;stroke-dasharray:none;stroke-opacity:1" />
    <path
       d="m 112.71,405.25 4.87,-1.6 2.63,-2.27 2.94,2.29 1.6,4.82 3.61,2.79 -1.87,1.75 0.02,3.49 -4.63,3.51 -0.18,-5.92 -1.51,-2.04 -2.81,-0.65 -0.67,-3.61 z"
       id="M01343"
       style="fill:#ffff80;fill-opacity:1;stroke:#000000;stroke-width:0.57868;stroke-dasharray:none;stroke-opacity:1" />
    <path
       d="m 501.17,279.22 -1.05,-3.36 -3.84,-2.81 -3.52,2.44 -2.51,-5.92 5.3,-4.05 -0.57,-3.39 4.19,0.05 0.06,4.52 4.56,0.49 2.3,1.71 3.18,-0.25 1.39,-1.88 3.94,1.3 3.79,-4.77 2.77,-1.57 2.79,-3.35 2.04,-0.91 2.29,-3.26 5.9,0.96 2.9,-1.81 2.48,1.45 1.25,2.77 -3.82,2.68 -3.26,0.23 -3.3,1.97 -3.18,-0.16 -2.41,1.22 -1.1,3.05 -2.39,0.67 -1.9,7.51 -1.36,3.02 -2.18,1.35 -2.17,-1.61 -4.29,0.11 z m 46.96,-33.12 3.32,1.5 1.8,2.94 -4.09,-0.01 z m 20.65,-10 5.18,2.42 -1.59,2.99 0.78,2.11 -5.28,2.47 -4.3,-6.8 0.88,-1.46 z m 14.8,-11.84 3.31,1.52 0.39,2.39 -4.05,-0.36 z"
       fill-rule="evenodd"
       id="M01223"
       style="fill:#ffff80;fill-opacity:1;stroke:#000000;stroke-width:0.57868;stroke-dasharray:none;stroke-opacity:1" />
    <path
       d="m 202.82,304.4 2.98,2.76 5.1,-0.46 1.46,1.25 -5.31,3.34 -1.29,1.9 -1.24,6.02 -2.8,4.04 -3.02,1.97 -4.81,-0.7 -3.7,0.49 -2.7,3.24 -2.46,-0.8 -4.61,0.17 -6.46,-1.55 0.17,4.69 -2.14,3.36 -2.21,1.2 -4.09,-0.3 -4.4,-3.37 -1.24,1.79 -2.85,-0.28 -1.53,1.68 -1.52,-7.43 2.15,-3.77 3.06,-4.19 2.99,1.3 5.39,-0.22 2.22,1.03 2.46,-1.53 4.41,0.18 4.23,-1.66 6.05,-0.49 3.32,-3.2 3.68,-7.37 2.54,1.73 4.91,-1.41 z m -35.59,17.11 -2.27,3.92 -2.37,-0.3 -1.91,2.17 0.91,3.3 3.37,2.13 4.15,-3.76 4.64,-0.76 -0.4,-3.1 -3.64,-3.03 z"
       fill-rule="evenodd"
       id="M01224"
       style="fill:#ffff80;fill-opacity:1;stroke:#000000;stroke-width:0.57868;stroke-dasharray:none;stroke-opacity:1" />
    <path
       d="m 274.8,163.86 -4.55,-0.79 -6.15,-5.03 -1.43,-3.9 -2.57,-0.02 -0.56,-2.03 -10.35,0.04 -2.73,-4.1 2.44,-2.36 1.33,-3.02 -0.76,-5.77 -0.83,-3.81 2.45,-2.01 6.93,-3.28 1.45,1.39 3.24,-0.49 1.54,2.52 2.46,0.92 5.51,-0.1 -0.19,1.36 -2.09,2.78 1.63,6.34 -0.76,3.37 -1.51,0.54 -1.72,3.63 4.91,0.58 0.84,4.52 2.41,3.72 -0.01,4.22 z"
       id="M01221"
       style="fill:#ffff80;fill-opacity:1;stroke:#000000;stroke-width:0.57868;stroke-dasharray:none;stroke-opacity:1" />
    <path
       d="m 227.56,258.87 1,1.74 -1.46,3.16 2.75,2.41 2.9,7.44 3.93,-0.16 -0.78,3.41 -2.9,2.3 -3.7,1.06 -2.62,2.41 -1.28,-3.38 -9.03,-3.89 -1.68,1.51 -6.15,-1.36 -1.96,-2.82 0.57,-2.95 4.41,-0.37 2.48,-2.92 8.45,-2.51 2.76,-5.99 z"
       id="M01222"
       style="fill:#ffff80;fill-opacity:1;stroke:#000000;stroke-width:0.57868;stroke-dasharray:none;stroke-opacity:1" />
    <path
       d="m 155.67,334.84 1.53,-1.68 2.85,0.28 1.24,-1.79 4.4,3.37 4.09,0.3 -1.18,0.26 -0.09,5.3 3.89,3.12 2.22,3.43 -6.56,4.29 -11.18,9.48 -1.41,0.09 -2.29,-5.03 0.2,-2.83 -3.43,-0.12 0.04,-1.63 -3.19,-1.91 -0.01,-2.8 0.69,-1.79 4.47,-3.15 1.32,-4.87 z"
       id="M01578"
       style="fill:#ffff80;fill-opacity:1;stroke:#000000;stroke-width:0.57868;stroke-dasharray:none;stroke-opacity:1" />
    <path
       d="m 285.07,220.57 2.28,-1.7 2.98,-0.21 2.14,1.35 2.8,-1.26 1.41,3.35 2.37,0.15 -3.66,4.98 -3.5,-0.3 -4.9,0.94 -6.16,-1.12 -4.98,0.47 -3.24,-2.47 -2.54,-0.86 -3.48,-3.73 -3.82,-1.51 0.26,-4.92 4.12,-0.24 1.96,2.04 3.37,1.2 2.63,-0.43 1.56,2.16 3.55,1.83 z"
       id="M01458"
       style="fill:#ffff80;fill-opacity:1;stroke:#000000;stroke-width:0.57868;stroke-dasharray:none;stroke-opacity:1" />
    <path
       d="m 297.95,234.07 -1.57,-0.41 -2.11,2.43 0.17,2.16 -3.26,1.87 -3.04,3.09 -5.2,4.06 -0.34,2.19 -2.02,1.72 -4.09,-4.68 -2.09,-0.92 -1.28,-3.61 -2.22,-1.84 -5.15,1.29 -3.23,-1.1 -2.37,-3.05 -3.29,0.08 -0.32,7.39 -1.39,0.57 -2.09,0.3 0.93,-2.32 -3.98,-5.4 0.11,-1.27 0.18,-3.68 2.33,-4.17 3.16,-1.53 1.06,-4.53 2.16,0.35 3.61,4.74 7.48,-1.15 5.75,0.57 4.98,-0.47 6.16,1.12 4.9,-0.94 3.5,0.3 3.66,-4.98 0.39,1.73 -1.79,8.27 z"
       id="M01459"
       style="fill:#ffff80;fill-opacity:1;stroke:#000000;stroke-width:0.57868;stroke-dasharray:none;stroke-opacity:1" />
    <path
       d="m 267.87,184.69 1.13,-1.63 3.4,-0.97 1.88,-1.57 2.78,2.2 3.12,-1.11 3.36,3.02 2.88,6.02 1.51,1.39 -1.34,1.66 -2.73,-1.02 -1.27,3.1 -1.07,5.27 -1.25,2.72 -4.08,-5.44 -4.91,-0.8 -3.58,-1.67 0.98,-1.85 -2.72,-3.47 2.47,-4.23 z"
       id="M01456"
       style="fill:#ffff80;fill-opacity:1;stroke:#000000;stroke-width:0.57868;stroke-dasharray:none;stroke-opacity:1" />
    <path
       d="m 307.93,238.44 -6.28,-1.92 -3.7,-2.45 -0.3,-1.82 1.79,-8.27 -0.39,-1.73 -2.37,-0.15 -1.41,-3.35 -2.8,1.26 -2.14,-1.35 -2.98,0.21 -2.28,1.7 -0.47,-5.49 -1.82,-2.04 -2.51,-9.27 1.25,-2.72 1.07,-5.27 1.27,-3.1 2.73,1.02 1.34,-1.66 3.49,1.74 2.89,-3.43 2.61,-0.99 0.55,3.1 3.91,-0.02 4,-1.92 2.56,2.49 3.47,0.87 -3.03,3.32 -0.74,6.82 2.28,2.02 -2.11,1.71 -0.08,4.22 1.09,1.24 4.18,1.07 6.61,-2.95 2.19,3.29 -0.65,3.24 -2.69,3.38 2.81,4.63 -3.07,3.42 0.49,1.47 -6.9,4.61 -1.56,-0.92 z"
       id="M01457"
       style="fill:#ffff80;fill-opacity:1;stroke:#000000;stroke-width:0.57868;stroke-dasharray:none;stroke-opacity:1" />
    <path
       d="m 114.6,429.6 -2.46,-2.81 -0.31,-4.55 -4.38,-1.89 0.19,-1.74 -2.69,-1.95 0.15,-3.34 2.47,-1.63 1.46,0.76 5.52,-0.98 -1.84,-6.22 4,2.56 0.67,3.61 2.81,0.65 1.51,2.04 0.18,5.92 -1.67,6.06 -2.87,2.7 z"
       id="M01337"
       style="fill:#ffff80;fill-opacity:1;stroke:#000000;stroke-width:0.57868;stroke-dasharray:none;stroke-opacity:1" />
    <path
       d="m 229.55,164.74 1.04,-2.01 -3.72,-3.52 -0.01,-1.82 1.92,-0.86 -2.97,-5.74 2.47,-1.57 0.05,-4.43 -2.42,-2.28 -0.9,-4.05 2.75,-2.17 2.85,-3.49 1.44,-0.01 0.82,-4.19 2.47,-0.47 3.99,2.19 2.15,1.1 1.3,2.82 4.71,3.86 1.98,-1.22 0.76,5.77 -1.33,3.02 -2.44,2.36 2.73,4.1 -1.53,0.21 -6.58,-2.79 -3.27,3.99 3.07,1.35 -2.67,10.7 2.07,4.02 -1.92,3.25 -0.35,5.34 4.96,3.34 1.41,4.51 -0.7,2.95 -3.86,1.26 -4.11,4.64 -2.23,-3.3 -1.45,-3.66 0.62,-1.38 -1.82,-4.35 0.33,-3.48 -2.41,-0.42 0.33,-2.47 -1.46,-4.05 1.53,-1.75 z"
       id="M01472"
       style="fill:#ffff80;fill-opacity:1;stroke:#000000;stroke-width:0.57868;stroke-dasharray:none;stroke-opacity:1" />
    <path
       d="m 227.67,250.63 1.61,-1.6 -0.47,-4.54 2.05,-1.47 4.38,-3.9 -1.74,-4.93 -0.77,-8.14 1.49,-0.6 6.77,0.96 2.17,-2.25 3.38,0.03 1.17,2.31 -0.82,3.14 1.51,6.1 1.72,0.88 -0.11,1.27 3.98,5.4 -0.93,2.32 0.82,4.84 -1.61,2.72 -1.38,3.4 -3.2,2.28 -1.68,6.13 1.35,2.09 -0.72,5.07 -0.13,1.14 -2.98,1.47 -4.57,0.67 -2.28,-1.96 -3.93,0.16 -2.9,-7.44 -2.75,-2.41 1.46,-3.16 -1,-1.74 0.86,-2.22 -1,-3.58 z"
       id="M01216"
       style="fill:#ffff80;fill-opacity:1;stroke:#000000;stroke-width:0.57868;stroke-dasharray:none;stroke-opacity:1" />
    <path
       d="m 195.55,285.26 -7.14,5 0.5,2.48 -1.72,3.48 -3.73,1 -1.56,-0.55 -0.35,-3.44 -2.48,-2.12 0.2,-3.04 -2.47,-0.56 0.89,-3.86 -0.47,-3.19 10.6,-1.16 0.2,1.73 3.71,-0.41 z"
       id="M01217"
       style="fill:#ffff80;fill-opacity:1;stroke:#000000;stroke-width:0.57868;stroke-dasharray:none;stroke-opacity:1" />
    <path
       d="m 237.73,90.63 4.46,-2.95 4.53,0.1 0.19,3.97 2.39,1.25 -0.78,3.53 2.07,4.44 5.67,1.11 1.41,4.11 -3.29,-0.6 -3.6,1.54 -4.44,0.4 -2.11,2.75 -2.16,-0.04 -2.96,3.32 -0.46,-2.58 -3.05,-4.82 0.96,-3.14 -1.65,-0.79 0.42,-4.25 1.6,-3.34 z"
       id="M01470"
       style="fill:#ffff80;fill-opacity:1;stroke:#000000;stroke-width:0.57868;stroke-dasharray:none;stroke-opacity:1" />
    <path
       d="m 227.42,19.14 -0.52,3.08 -1.57,1.35 -4.04,1.31 -1.44,2.13 1.3,2.09 -0.63,2.97 1.97,0.87 0.47,5.98 -4.4,1.14 -3.54,4.21 -3.24,1.7 -5.37,-2.8 -2.41,-3.34 1.16,-0.82 -1.72,-4.63 -2.4,1.07 -0.27,3.1 -6.16,0.53 -2.06,2.9 -3.04,1.07 -1.52,2.94 -0.78,-2.61 0.42,-4.81 2.92,-3.98 0.55,-4.56 2.37,-2.77 1.09,-4.28 -1.58,-2.53 -0.31,-3.48 1.12,-3.39 2.46,4.57 2.45,1.65 7.45,-1.16 3.58,-1.85 3.33,-4.62 0.07,-4.01 1.2,-1.71 3.6,-1.67 2.07,1.48 0.7,3.33 4.1,3.45 z"
       id="M01214"
       style="fill:#ffff80;fill-opacity:1;stroke:#000000;stroke-width:0.57868;stroke-dasharray:none;stroke-opacity:1" />
    <path
       d="m 225.58,78.01 7.76,0.86 1.03,-0.5 1.57,1.93 1.14,3.94 -0.59,4.68 1.24,1.71 -0.8,4.01 -1.6,3.34 -0.42,4.25 1.65,0.79 -0.96,3.14 3.05,4.82 0.46,2.58 -0.83,2.32 2.19,2.22 -0.43,1.47 1.71,3.28 -2.42,7.47 -3.99,-2.19 -2.47,0.47 -0.58,-1.65 -2.97,-0.88 -2.69,-4.03 1.22,-2.51 -1.26,-3.98 -2.07,-0.8 -1.02,-3.71 -0.5,-5.94 0.34,-3.03 -2.08,-5.26 1.2,-4.02 1.19,-4.59 0.21,-4.02 -1.51,-2.1 1.15,-2.76 z"
       id="M01471"
       style="fill:#ffff80;fill-opacity:1;stroke:#000000;stroke-width:0.57868;stroke-dasharray:none;stroke-opacity:1" />
    <path
       d="m 197.69,261.1 0.66,-1.62 5.07,-1.26 0.65,-1.9 4.16,-1.8 0.21,-1.36 7.63,0.85 1.58,1.91 2.82,0.52 4.41,-5.29 2.54,1.92 1,3.58 -0.86,2.22 -2.31,-0.91 -2.76,5.99 -8.45,2.51 -2.48,2.92 -4.41,0.37 -1.36,-2.58 -3.15,-3.45 z"
       id="M01215"
       style="fill:#ffff80;fill-opacity:1;stroke:#000000;stroke-width:0.57868;stroke-dasharray:none;stroke-opacity:1" />
    <path
       d="m 232.73,226.05 0.77,8.14 1.74,4.93 -4.38,3.9 -1.42,-4.02 -2.13,-1.29 -4.55,1.56 -1.57,-1.43 0.21,-2.84 1.35,-4.58 4.13,-3.03 3.04,-0.59 0.33,-1.46 z"
       id="M01218"
       style="fill:#ffff80;fill-opacity:1;stroke:#000000;stroke-width:0.57868;stroke-dasharray:none;stroke-opacity:1" />
    <path
       d="m 353.5,154.54 -4.06,3.02 -3.43,5.02 -3.05,2.07 -1.87,3.12 0.02,4.3 -1.62,-1.2 -6.36,7.06 -2.56,1.99 -2.41,-0.81 -3.84,2.89 -2.67,0.36 -1.13,2.47 -3.24,-1.3 0.76,-2.06 -0.46,-3.96 1.93,-4.15 -1.58,-5.01 1.98,-1.64 1.47,-4.43 1.74,-1.42 -0.12,-2.78 -2.98,-1.35 -5.27,-6.2 2.12,-3.16 2.98,-1.93 4.04,-0.41 0.32,-1.68 2.94,-0.35 2.63,-3.78 0.08,-1.99 5.37,3.36 2.07,4.03 3.87,3.27 z"
       id="M01219"
       style="fill:#ffff80;fill-opacity:1;stroke:#000000;stroke-width:0.57868;stroke-dasharray:none;stroke-opacity:1" />
    <path
       d="m 146.8,349.77 3.19,1.91 -0.04,1.63 3.43,0.12 -0.2,2.83 2.29,5.03 -2.8,1.39 -6.61,6.61 -1.85,3.36 -0.85,-0.49 -2.43,-8.44 -2.06,-0.7 -1.49,-3.93 -0.17,-3.74 4.39,-0.72 z"
       id="M01230"
       style="fill:#ffff80;fill-opacity:1;stroke:#000000;stroke-width:0.57868;stroke-dasharray:none;stroke-opacity:1" />
    <path
       d="m 189.45,300.8 2.15,0.14 2.51,6.55 -3.68,7.37 -3.32,3.2 -6.05,0.49 -4.23,1.66 -4.41,-0.18 -2.46,1.53 -2.22,-1.03 -5.39,0.22 -2.99,-1.3 1.77,-4.93 3.89,-2.55 1.44,1.61 3.1,-0.42 1.04,-1.71 4.27,-0.01 4.23,-0.66 2.72,-2.37 2.25,0.04 4.21,-3.46 z"
       id="M01231"
       style="fill:#ffff80;fill-opacity:1;stroke:#000000;stroke-width:0.57868;stroke-dasharray:none;stroke-opacity:1" />
    <path
       d="m 187.19,296.22 0.92,1.79 1.34,2.79 -1.17,4.19 -4.21,3.46 -2.25,-0.04 -2.72,2.37 -4.23,0.66 -0.38,-1.85 3.16,-3.79 2.72,-9.41 1.53,0.28 1.56,0.55 z"
       id="M01234"
       style="fill:#ffff80;fill-opacity:1;stroke:#000000;stroke-width:0.57868;stroke-dasharray:none;stroke-opacity:1" />
    <path
       d="m 180.67,220.46 3,4.24 4.86,4.64 0.85,2.73 -0.92,2.05 -6.15,-0.68 0.9,5.86 2.54,2.14 0.94,5.12 -0.31,4.47 -1.17,1.86 -0.74,6.95 -0.96,3.52 -1.77,1.18 -2.23,4.89 -2.15,1.75 -3.17,0.88 0.79,4.15 -1.44,1.18 -1.47,1.84 -2.48,-0.28 -2.12,3.11 -4.17,1.72 -2.95,-2.9 3.7,-2.99 -0.15,-1.64 3.37,-3.66 5.56,-7.46 2.22,-3.65 0.69,-7 -0.25,-3.19 -3.05,-6.9 -2.8,-4.89 0.13,-2 2.05,-5.3 -0.16,-2.52 -2.56,-4.23 -0.23,-3.03 -1.54,-4.64 0.53,-3.45 2.83,1.14 2.82,-1.18 1.03,3.08 4.29,1.2 z"
       id="M01235"
       style="fill:#ffff80;fill-opacity:1;stroke:#000000;stroke-width:0.57868;stroke-dasharray:none;stroke-opacity:1" />
    <path
       d="m 120.71,353.61 4.38,-2.5 4.34,1.23 3,-1.34 3.71,0.77 1.07,3.58 0.17,3.74 1.49,3.93 -0.59,3.05 -2.92,2.61 -3.35,0.85 -0.57,-4.01 -1.75,-3.91 -3.35,-2.32 z m 16.24,-17.08 1.84,-1.44 1.75,-3.72 5.14,-2.88 1.47,-4.91 -2.11,-3.05 2.41,-1.3 3.34,2.18 2.3,2.62 3.21,-0.39 -2.15,3.77 1.52,7.43 -2.4,2.32 -1.32,4.87 -4.47,3.15 -0.69,1.79 -1.13,-1.27 -3.59,-0.19 -0.35,-2.19 -5.34,-3.8 z"
       fill-rule="evenodd"
       id="M01233"
       style="fill:#ffff80;fill-opacity:1;stroke:#000000;stroke-width:0.57868;stroke-dasharray:none;stroke-opacity:1" />
    <path
       d="m 257.67,106.19 -0.56,2 2.53,3.32 3.62,1.7 2.63,2.65 1.15,-3.02 2.79,-0.72 0.59,1.74 6.87,1.22 0.49,2.62 -2.88,7.91 -1.41,1.59 -1.27,4.82 -5.51,0.1 -2.46,-0.92 -1.54,-2.52 -3.24,0.49 -1.45,-1.39 -6.93,3.28 -2.45,2.01 0.83,3.81 -1.98,1.22 -4.71,-3.86 -1.3,-2.82 -2.15,-1.1 2.42,-7.47 -1.71,-3.28 0.43,-1.47 -2.19,-2.22 0.83,-2.32 2.96,-3.32 2.16,0.04 2.11,-2.75 4.44,-0.4 3.6,-1.54 z"
       id="M01469"
       style="fill:#ffff80;fill-opacity:1;stroke:#000000;stroke-width:0.57868;stroke-dasharray:none;stroke-opacity:1" />
    <path
       d="m 438.03,230.12 1.87,-1 1.76,-2.9 2.87,-0.08 7.04,-5.64 3.78,-1.92 4.17,-0.16 4.09,1.47 0.79,1.93 11.2,5.4 3.58,-1.63 1.48,1.45 -1.68,2.51 4.41,4.83 -4.12,2.08 -4.56,1.27 1.61,3.51 -4.45,4.09 -3.49,0.81 -2.79,-3.02 -1.03,0.76 -7,0.3 -4.95,-0.84 -6.38,-7.04 -4.54,-2.71 -2.96,-0.73 z"
       id="M01692"
       style="fill:#ffff80;fill-opacity:1;stroke:#000000;stroke-width:0.57868;stroke-dasharray:none;stroke-opacity:1" />
    <path
       d="m 451.57,220.5 -1.04,-6.67 0.19,-2.31 3.49,0.51 2.69,-0.66 1.61,-3.78 3.96,-1.86 3.51,-4.46 -0.05,-1.87 -2.32,-1.19 6.33,-2.89 3.01,1.16 2.93,2.8 6.26,0.77 -1.44,4.86 -1.69,1.5 0.66,6.68 7.4,12.38 7.36,2.99 v 0.16 l -3.9,0.68 -5.41,5.06 -1.73,0.02 -4.41,-4.83 1.68,-2.51 -1.48,-1.45 -3.58,1.63 -11.2,-5.4 -0.79,-1.93 -4.09,-1.47 -4.17,0.16 z"
       id="M01693"
       style="fill:#ffff80;fill-opacity:1;stroke:#000000;stroke-width:0.57868;stroke-dasharray:none;stroke-opacity:1" />
    <path
       d="m 293.28,165.69 -3.02,1.75 -2.75,-4.33 -2.33,-1.54 -6.57,1.15 -2.44,1.94 -1.37,-0.8 0.93,-0.78 0.01,-4.22 -2.41,-3.72 -0.84,-4.52 -4.91,-0.58 1.72,-3.63 1.51,-0.54 0.76,-3.37 -1.63,-6.34 2.09,-2.78 5.57,-0.47 3.7,-5.17 2.19,2.47 3.7,-0.43 4.71,1.13 2.46,1.93 -2.75,2.86 1,1.94 -0.39,3.25 -1.94,3.14 1.82,1.6 0.18,6.59 3.37,2.79 0.74,2.29 0.11,8.06 z"
       id="M01468"
       style="fill:#ffff80;fill-opacity:1;stroke:#000000;stroke-width:0.57868;stroke-dasharray:none;stroke-opacity:1" />
    <path
       d="m 494.98,262.13 0.57,3.39 -5.3,4.05 -2.33,-0.09 -3.73,2.82 -4.76,-1 -2.59,2.58 -1.86,0.47 -5.51,-3.73 -2.59,0.44 -3.7,-4.27 -4.09,-1.89 -4.57,-0.71 -8.2,-5.39 -0.5,-3.38 -2.12,-4.34 1.16,-3.22 2.21,0.54 5.54,-5.06 4.95,0.84 7,-0.3 1.03,-0.76 2.79,3.02 3.49,-0.81 4.45,-4.09 -1.61,-3.51 4.56,-1.27 4.12,-2.08 1.73,-0.02 5.41,-5.06 3.56,8.67 1.75,10.85 2.88,7.55 -1.24,1.89 -3.63,0.18 -0.64,2.43 z"
       id="M01691"
       style="fill:#ffff80;fill-opacity:1;stroke:#000000;stroke-width:0.57868;stroke-dasharray:none;stroke-opacity:1" />
    <path
       d="m 296.92,189.36 1.73,-4.25 -1.97,-6.89 -1.54,-2.44 -0.01,-4.36 -1.57,-2.35 -0.28,-3.38 3.22,-0.33 -0.11,-8.06 2.61,-0.05 0.92,1.61 2.75,-0.06 3.25,-2.09 0.34,-2.94 5.86,-3.5 2.63,0.26 5.27,6.2 2.98,1.35 0.12,2.78 -1.74,1.42 -1.47,4.43 -1.98,1.64 1.58,5.01 -1.93,4.15 0.46,3.96 -0.76,2.06 -2.47,0.9 0.99,4.11 -4.39,5.34 -3.47,-0.87 -2.56,-2.49 -4,1.92 -3.91,0.02 z"
       id="M01560"
       style="fill:#ffff80;fill-opacity:1;stroke:#000000;stroke-width:0.57868;stroke-dasharray:none;stroke-opacity:1" />
    <path
       d="m 548.34,172.94 -1.65,2.85 -1.34,4.71 -1.88,-0.14 -1.83,2.07 -1.64,3.89 -0.15,3.56 -5.67,4.06 -6.94,1.3 -5.26,7.09 -0.28,7.3 -1.47,12.45 -1.62,-0.04 1.3,-6.94 -4.93,-0.26 -4.86,1.4 -1.27,-3.57 0.66,-3.28 -1.6,-7.21 2.84,-0.93 2.69,-5.57 5.08,-2.66 4.71,-3.54 0.33,-1.83 5.08,-4.19 1.91,-2.51 4.85,-2.48 0.94,-1.97 2.39,-0.28 2,-5.57 3.2,-0.22 3.87,1.04 z"
       id="M01696"
       style="fill:#ffff80;fill-opacity:1;stroke:#000000;stroke-width:0.57868;stroke-dasharray:none;stroke-opacity:1" />
    <path
       d="m 329.86,137.23 -0.08,1.99 -2.63,3.78 -2.94,0.35 -0.32,1.68 -4.04,0.41 -2.98,1.93 -2.12,3.16 -2.63,-0.26 -2.34,-3.07 -0.85,-3 0.56,-3.69 -1.79,-2.95 -6.52,1.49 -3.81,-1.86 -2.16,-4.3 3.83,-2.36 7.04,1.8 2.65,-2.09 5.19,-1.48 1.26,-2.89 9.5,6.7 1.63,2.19 z"
       id="M01561"
       style="fill:#ffff80;fill-opacity:1;stroke:#000000;stroke-width:0.57868;stroke-dasharray:none;stroke-opacity:1" />
    <path
       d="m 548.34,172.94 -0.54,-1.47 -3.87,-1.04 -3.2,0.22 -2,5.57 -2.39,0.28 -0.26,-4.7 3.65,-5.18 2.51,-1.98 3.13,-4.19 2.56,-5.35 5.07,-3.68 4.49,-6.65 0.47,-5.15 3.76,-4.35 2.57,-6.62 3.98,-3.96 2.49,-0.44 5.59,3.47 1.13,3.12 3.66,2.45 4.55,1.99 5,-0.53 3.35,0.36 9.51,-0.96 -1.49,5.47 -3.59,3.08 -3.11,-2.71 -5.43,2.07 -2.28,4.6 -4.94,4.02 -0.5,1.16 -5.95,0.33 -10.06,1.56 -3,2.97 -2.26,5.87 -5.14,1.73 -2.9,1.85 -3.28,3.72 z"
       id="M01697"
       style="fill:#ffff80;fill-opacity:1;stroke:#000000;stroke-width:0.57868;stroke-dasharray:none;stroke-opacity:1" />
    <path
       d="m 91.98,409.73 -6.49,-1.44 -3.33,-1.91 -2.65,0.53 -6.8,-4.4 -0.47,2.15 -3.21,0.45 -4.26,-0.98 -2.77,1.45 -3.92,-6.14 -2.68,-1.48 -5.84,-0.87 1.3,-5.42 2.69,-2.51 1.88,0.92 2.03,-2.7 1.84,-0.16 -1.97,-5.57 3.63,-0.78 2.04,-3.17 1.27,-3.91 2.24,-0.11 2.94,-3.3 5.93,-2.56 5.31,2.25 -1.42,6.15 -0.08,4.64 1.62,4 4.39,2.16 3.3,0.29 1.91,2.39 3.88,2.74 -2.52,1.6 -2.76,4.46 1.69,1.03 1.25,3.22 z"
       id="M01346"
       style="fill:#ffff80;fill-opacity:1;stroke:#000000;stroke-width:0.57868;stroke-dasharray:none;stroke-opacity:1" />
    <path
       d="m 463.61,198.21 3.87,-4.59 3.5,-0.68 3.2,-2.88 -0.67,-2.42 2.57,-4.45 1.96,-0.21 0.69,-3.34 4.64,-2.45 0.65,-1.98 5.13,-7.26 2.95,-1.08 2.25,-2.04 2.28,-0.39 0.41,-4.48 2.06,-5.34 3.02,-10.44 0.93,5.45 1.47,3.52 -1.59,2.7 0.07,2.13 -1.62,3.69 -5.42,6.19 -2,5.69 0.42,2.43 -1.87,3.62 -1.48,0.91 -4.17,5.44 -2.1,3.76 -3,6.97 0.38,3.37 -6.26,-0.77 -2.93,-2.8 -3.01,-1.16 z"
       id="M01694"
       style="fill:#ffff80;fill-opacity:1;stroke:#000000;stroke-width:0.57868;stroke-dasharray:none;stroke-opacity:1" />
    <path
       d="m 74.12,343.67 1.89,1.18 3.2,-0.74 1.27,-2.2 2.18,-0.46 3.57,1.57 2.09,2.61 3.33,-1.79 3.24,-0.1 2.17,1.92 4.58,-1.42 -0.65,1.77 -5.12,-0.19 -6.44,6.49 -3.46,5.36 -2.4,4.78 -2.88,7.62 -5.31,-2.25 0.51,-0.96 -1.7,-4.92 -0.46,-3.4 4.62,-8.13 -1.77,-2.31 -2.8,-0.41 -1.91,-3.47 z"
       id="M01347"
       style="fill:#ffff80;fill-opacity:1;stroke:#000000;stroke-width:0.57868;stroke-dasharray:none;stroke-opacity:1" />
    <path
       d="m 627.18,197 1.48,0.53 3.61,4.16 -0.23,4.13 -4.16,0.16 -0.69,2.14 -2.95,0.54 -1,3.2 -7.14,1.39 -1.55,1.56 -0.58,2.99 -3.83,-1.53 -3.79,-9.48 2.08,-2.04 6,-0.63 3.4,-1.36 4.27,-4.47 4.09,1.09 z"
       id="M01695"
       style="fill:#ffff80;fill-opacity:1;stroke:#000000;stroke-width:0.57868;stroke-dasharray:none;stroke-opacity:1" />
    <path
       d="m 229.28,249.03 -3.58,-2.44 -0.97,-2.62 -4.07,-0.45 2.1,-4.25 4.55,-1.56 2.13,1.29 1.42,4.02 -2.05,1.47 z"
       id="M01227"
       style="fill:#ffff80;fill-opacity:1;stroke:#000000;stroke-width:0.57868;stroke-dasharray:none;stroke-opacity:1" />
    <path
       d="m 422.77,209.08 -1.91,7.03 -2.8,1.79 -4.88,-0.24 -1.69,-2.58 -0.36,-4.07 -2.43,-4.03 -2.37,-6.31 -5.03,-2.15 -1.53,1.8 -2.52,-3.12 -2.52,-0.27 0.92,-3.93 1.55,-2.03 3.74,0.22 6.1,-2.63 1.98,3.01 3.27,7.53 3.52,-0.5 -0.29,-2.4 6.39,2.66 0.38,3.09 -1.35,2.65 z"
       id="M01564"
       style="fill:#ffff80;fill-opacity:1;stroke:#000000;stroke-width:0.57868;stroke-dasharray:none;stroke-opacity:1" />
    <path
       d="m 220.04,222.23 2.75,-2.22 -2.33,-7 2.85,-0.13 0.74,-5.53 0.28,-2.51 5.01,-2.99 0.99,-2.65 -1.83,-3.3 -2.94,-2.86 -0.44,-2.71 0.84,-6.23 1.76,-2.35 1.03,-3.44 2.41,0.42 -0.33,3.48 1.82,4.35 -0.62,1.38 1.45,3.66 2.23,3.3 1.9,4.2 3.24,0.26 -0.18,3.36 2.61,4.48 -3.57,5.1 0.2,2.35 -1.43,2.19 -0.37,4.92 2.59,3.11 2.46,-0.71 -2.17,2.25 -6.77,-0.96 -1.49,0.6 -2.48,-0.71 -1.56,1.25 -3.5,-0.42 z"
       id="M01228"
       style="fill:#ffff80;fill-opacity:1;stroke:#000000;stroke-width:0.57868;stroke-dasharray:none;stroke-opacity:1" />
    <path
       d="m 214,237.18 -0.87,-3.03 0.22,-4.75 0.06,-1.88 2.71,-4.48 3.92,-0.81 5.15,3.94 3.5,0.42 1.56,-1.25 -0.33,1.46 -3.04,0.59 -4.13,3.03 -1.35,4.58 -2.58,-0.25 z"
       id="M01225"
       style="fill:#ffff80;fill-opacity:1;stroke:#000000;stroke-width:0.57868;stroke-dasharray:none;stroke-opacity:1" />
    <path
       d="m 296.39,157.3 -0.74,-2.29 -3.37,-2.79 -0.18,-6.59 -1.82,-1.6 1.94,-3.14 0.39,-3.25 -1,-1.94 2.75,-2.86 0.85,0.05 2.16,4.3 3.81,1.86 6.52,-1.49 1.79,2.95 -0.56,3.69 0.85,3 2.34,3.07 -5.86,3.5 -0.34,2.94 -3.25,2.09 -2.75,0.06 -0.92,-1.61 z"
       id="M01562"
       style="fill:#ffff80;fill-opacity:1;stroke:#000000;stroke-width:0.57868;stroke-dasharray:none;stroke-opacity:1" />
    <path
       d="m 212.5,246.26 -0.21,-1.92 2.35,-2.59 -0.64,-4.57 4.82,-2.43 2.58,0.25 -0.21,2.84 1.57,1.43 -2.1,4.25 0.55,1.46 -2.55,2.58 z"
       id="M01226"
       style="fill:#ffff80;fill-opacity:1;stroke:#000000;stroke-width:0.57868;stroke-dasharray:none;stroke-opacity:1" />
    <path
       d="m 277.29,115.08 3.36,-1.52 1.26,-3.18 3.14,-1.33 4.3,0.13 4.24,-5.51 4.26,4.13 8.46,11.06 8.87,7.01 -1.26,2.89 -5.19,1.48 -2.65,2.09 -7.04,-1.8 -3.83,2.36 -0.85,-0.05 -2.46,-1.93 -4.71,-1.13 -3.7,0.43 -2.19,-2.47 -3.7,5.17 -5.57,0.47 0.19,-1.36 1.27,-4.82 1.41,-1.59 2.88,-7.91 z"
       id="M01563"
       style="fill:#ffff80;fill-opacity:1;stroke:#000000;stroke-width:0.57868;stroke-dasharray:none;stroke-opacity:1" />
    <path
       d="m 252.27,253.17 0.56,2.44 5.96,3.19 2.37,-1.19 6.89,-0.66 2.05,-1.71 2.32,-1.02 1.65,1.13 4.98,-2.28 -1.31,5.13 -1.91,1.65 4.02,5.35 -0.01,2.6 -1.46,4.29 -1.84,1.9 -2.48,0.67 -3.58,2.76 -3.25,-0.8 -4.1,2.59 -2.14,-0.36 -1.52,-3.14 -3.24,-0.56 -1.63,4.9 h -4.33 l -0.3,-4.65 -3.33,-3.26 0.72,-5.07 -1.35,-2.09 1.68,-6.13 3.2,-2.28 z"
       id="M01229"
       style="fill:#ffff80;fill-opacity:1;stroke:#000000;stroke-width:0.57868;stroke-dasharray:none;stroke-opacity:1" />
    <path
       d="m 323.43,390.83 4.22,1.69 1.41,1.49 4.81,0.31 -0.24,5.27 -1.09,3.73 0.34,2.89 -4.41,5.69 -1.27,4.21 -2.42,1.69 -4.32,-3.53 -2.45,-5.07 -5.55,-3.73 2.15,-1.89 5.53,0.09 1.4,-2.15 -0.44,-2.82 1.52,-1.9 -1.49,-3.69 z"
       id="M01609"
       style="fill:#ffff80;fill-opacity:1;stroke:#000000;stroke-width:0.57868;stroke-dasharray:none;stroke-opacity:1" />
    <path
       d="m 296.94,359.73 1.83,3.91 3.58,0.48 0.26,1.46 4.16,4.88 6.49,9.12 2.42,0.58 0.89,2.86 -3.48,1.91 -0.62,1.58 -3.35,-0.14 -3.16,1.85 -5.35,1.24 -2.73,2.2 -2.47,5.36 -4.13,-0.63 -4.47,-3.68 -7.56,-1.95 -1.78,-1.95 2.85,-3.36 1.33,-0.1 3.04,-4.1 2.75,-5 -0.27,-2.12 2.35,-4.54 -1.37,-3.7 0.14,-2.28 4.46,-1.96 2.88,-0.35 z"
       id="M01607"
       style="fill:#ffff80;fill-opacity:1;stroke:#000000;stroke-width:0.57868;stroke-dasharray:none;stroke-opacity:1" />
    <path
       d="m 316.57,383.02 2.65,0.92 1.41,3.27 1.71,0.47 1.09,3.15 -2.3,2.28 1.49,3.69 -1.52,1.9 0.44,2.82 -1.4,2.15 -5.53,-0.09 -2.15,1.89 -4.94,-2.48 -3.57,-3.91 -4.76,-1.62 -3.78,-0.44 2.47,-5.36 2.73,-2.2 5.35,-1.24 3.16,-1.85 3.35,0.14 0.62,-1.58 z"
       id="M01608"
       style="fill:#ffff80;fill-opacity:1;stroke:#000000;stroke-width:0.57868;stroke-dasharray:none;stroke-opacity:1" />
    <path
       d="m 115.41,433.82 -0.81,-4.22 2.74,-0.81 2.87,-2.7 1.67,-6.06 4.63,-3.51 -0.02,-3.49 1.87,-1.75 3.67,2.94 2.08,4.5 2.32,3.13 4.9,2.65 4.84,0.63 4.69,3.12 1.03,2.92 3.44,2.6 -2.63,2.72 -4,0.07 -2.78,4.6 -5.7,3.08 -3.2,0.59 -3.44,-3.16 -6.18,-2.41 -5.28,-1.49 -4.33,0.53 -2.85,3.19 -0.95,-2.74 2.63,-1.04 z"
       id="M01202"
       style="fill:#ffff80;fill-opacity:1;stroke:#000000;stroke-width:0.57868;stroke-dasharray:none;stroke-opacity:1" />
    <path
       d="m 220.47,352.69 1.29,-1.9 2.51,-0.09 2.89,-1.63 5.01,4.41 5.66,-4.51 1.93,-3.61 3.49,-3.31 3.1,0.04 1.77,-1.54 3.32,2.37 8.48,-1.07 3.8,0.34 0.89,1.89 -5.03,4.48 h -2.15 l -1.95,2.56 -2.49,-0.45 -4.25,5.18 0.32,2.03 -2.92,5.32 -4.34,1.48 -2.34,-2.85 -2.81,-1.52 -6.81,-0.97 -4.33,-1.73 z m 64.66,-54.21 1.89,1.78 -1.15,2.82 2.37,4.47 -1.83,3.17 2.45,3.29 -1.1,2.03 -2.39,0.45 -1.96,4.88 -0.03,3.24 -2.74,2.88 -3.68,-0.65 -1.18,-1.83 -3.95,-2.35 -1.12,-2.67 -4.63,2.03 -1.31,2.52 -4.21,-0.58 -5.49,-1.81 1.19,-2.64 0.31,-3.65 -1.41,-0.29 -0.33,-3.57 3.87,-4.82 1.6,1.98 3.58,-1.37 2.92,0.02 2.05,1.41 2.26,-2.36 1.17,-3.92 3.75,-2.32 2.87,0.49 3.69,-1.34 1.45,-1.84 z"
       fill-rule="evenodd"
       id="M01601"
       style="fill:#ffff80;fill-opacity:1;stroke:#000000;stroke-width:0.57868;stroke-dasharray:none;stroke-opacity:1" />
    <path
       d="m 227.16,349.07 6.03,-3.71 0.32,-2.93 3.68,-8.34 4.4,-5.92 2.75,-0.3 3.84,-2.94 0.55,-2.02 -0.06,-5.88 1.68,-5.51 4.48,0.48 0.33,3.57 1.41,0.29 -0.31,3.65 -1.19,2.64 5.49,1.81 4.21,0.58 1.31,-2.52 4.63,-2.03 1.12,2.67 3.95,2.35 1.18,1.83 3.68,0.65 0.67,1.34 -0.25,1.44 -10.06,-0.2 -2.22,4.18 0.02,5.84 -3.84,0.54 -1.24,1.56 -3.8,-0.34 -8.48,1.07 -3.32,-2.37 -1.77,1.54 -3.1,-0.04 -3.49,3.31 -1.93,3.61 -5.66,4.51 z"
       id="M01602"
       style="fill:#ffff80;fill-opacity:1;stroke:#000000;stroke-width:0.57868;stroke-dasharray:none;stroke-opacity:1" />
    <path
       d="m 355.86,185.16 0.04,4.92 -0.04,5.85 -1.45,2 0.22,3.91 -3.64,1.19 -1.29,2.41 -5.09,0.18 -1.63,1.59 -4.8,0.94 -2.08,1.99 -3.66,1.65 -1.5,-0.47 -3.21,2.87 0.2,3.32 -2.25,1.52 -4.53,-1.17 0.65,-3.24 -2.19,-3.29 -6.61,2.95 -4.18,-1.07 -1.09,-1.24 0.08,-4.22 2.11,-1.71 -2.28,-2.02 0.74,-6.82 3.03,-3.32 4.39,-5.34 -0.99,-4.11 2.47,-0.9 3.24,1.3 1.13,-2.47 2.67,-0.36 3.84,-2.89 2.41,0.81 2.56,-1.99 6.36,-7.06 1.62,1.2 6.85,2.92 0.37,-1.48 6.14,-0.77 0.18,6.83 -1.05,1.44 0.34,3.12 z"
       id="M01555"
       style="fill:#ffff80;fill-opacity:1;stroke:#000000;stroke-width:0.57868;stroke-dasharray:none;stroke-opacity:1" />
    <path
       d="m 287.07,335.05 -1.02,2.29 -4.56,0.31 -5.95,5.26 -4.53,1.66 -1.36,5.17 0.92,3.9 -2.43,3.59 -3.85,2.31 -1.32,3.39 -1.95,1.13 -2.81,3.69 -6.1,4.37 -0.93,1.33 -4.82,-3.52 -4.56,-5.25 4.34,-1.48 2.92,-5.32 -0.32,-2.03 4.25,-5.18 2.49,0.45 1.95,-2.56 h 2.15 l 5.03,-4.48 -0.89,-1.89 1.24,-1.56 3.84,-0.54 -0.02,-5.84 2.22,-4.18 10.06,0.2 0.25,-1.44 3.26,1.96 1.8,-0.07 z"
       id="M01604"
       style="fill:#ffff80;fill-opacity:1;stroke:#000000;stroke-width:0.57868;stroke-dasharray:none;stroke-opacity:1" />
    <path
       d="m 213.35,229.4 -1.83,-2.33 -0.02,-2.38 -1.88,-1.94 -5.16,-0.59 -5.56,-3.14 -2.09,2.4 -3.58,1.68 -3.3,-1.31 -1.39,-2.23 -4.06,-0.75 -0.94,-1.12 0.01,-0.3 1.93,0.67 2.38,-2.31 4.63,-1.66 5.85,-0.03 5.91,1.24 3.98,2.25 2.44,-1.24 4.7,0.05 0.98,2.15 -0.23,4.53 -2.71,4.48 z"
       id="M01436"
       style="fill:#ffff80;fill-opacity:1;stroke:#000000;stroke-width:0.57868;stroke-dasharray:none;stroke-opacity:1" />
    <path
       d="m 215.22,213.41 0.15,2.95 -4.7,-0.05 -2.44,1.24 -3.98,-2.25 -5.91,-1.24 -5.85,0.03 -4.63,1.66 -2.38,2.31 -1.93,-0.67 2.82,-0.82 6.15,-4.84 6.04,0.37 -0.49,-4.56 6.02,1.34 2.8,-1.93 -0.6,-2.94 5.1,-2.31 1.25,2.4 -0.17,6.04 2.22,0.72 z"
       id="M01437"
       style="fill:#ffff80;fill-opacity:1;stroke:#000000;stroke-width:0.57868;stroke-dasharray:none;stroke-opacity:1" />
    <path
       d="m 220.46,213.01 -5.24,0.4 -0.53,-2.55 3.26,-3.6 4.66,-1.78 1.44,1.87 -0.74,5.53 z"
       id="M01434"
       style="fill:#ffff80;fill-opacity:1;stroke:#000000;stroke-width:0.57868;stroke-dasharray:none;stroke-opacity:1" />
    <path
       d="m 368.8,169.87 -0.3,6.78 -2.11,5.02 -4.11,0.97 -2.2,2.04 -4.22,0.48 -1.92,-1.03 -0.34,-3.12 1.05,-1.44 -0.18,-6.83 -6.14,0.77 -0.37,1.48 -6.85,-2.92 -0.02,-4.3 1.87,-3.12 3.05,-2.07 3.43,-5.02 4.06,-3.02 11.05,5.16 7.12,2.74 -0.02,0.43 -4.73,-1.56 -4.18,0.4 3.12,3.95 1.17,4.2 z"
       id="M01559"
       style="fill:#ffff80;fill-opacity:1;stroke:#000000;stroke-width:0.57868;stroke-dasharray:none;stroke-opacity:1" />
    <path
       d="m 103.09,331.27 2.41,1.09 6.55,-0.09 1.82,-1.01 5.15,0.94 0.79,1.76 -0.6,3.87 -1.83,2.61 2.11,4.82 -2.74,2.52 -2.53,-1.67 -4.76,0.15 -4.74,2.06 -3.73,-2.31 0.65,-1.77 0.99,-3.68 1.72,-3.33 z"
       id="M01571"
       style="fill:#ffff80;fill-opacity:1;stroke:#000000;stroke-width:0.57868;stroke-dasharray:none;stroke-opacity:1" />
    <path
       d="m 490.25,269.57 2.51,5.92 3.52,-2.44 3.84,2.81 1.05,3.36 -2.44,0.09 -4.04,1.58 -3.92,2.62 -2.72,-1.64 -3.93,2.04 -1.03,3.32 0.47,2.19 -2.4,2.3 -0.08,2.2 -4.68,1.92 -0.46,3.15 -2.41,0.78 0.03,-1.81 -1.9,-6.3 1.55,-1.57 -0.6,-2.84 1.95,-2.4 -6.97,-5.2 2.35,-4.75 -3.06,-3.84 2.59,-0.44 5.51,3.73 1.86,-0.47 2.59,-2.58 4.76,1 3.73,-2.82 z"
       id="M01663"
       style="fill:#ffff80;fill-opacity:1;stroke:#000000;stroke-width:0.57868;stroke-dasharray:none;stroke-opacity:1" />
    <path
       d="m 213.63,190.5 3.86,-2.34 1.46,-4.15 3.1,0.68 0.82,-1.46 3.09,0.87 -0.84,6.23 0.44,2.71 2.94,2.86 1.83,3.3 -0.99,2.65 -5.01,2.99 -0.28,2.51 -1.44,-1.87 -4.66,1.78 -3.26,3.6 -2.22,-0.72 0.17,-6.04 -1.25,-2.4 0.68,-3.79 2.82,-2.55 -1.55,-2.87 z"
       id="M01438"
       style="fill:#ffff80;fill-opacity:1;stroke:#000000;stroke-width:0.57868;stroke-dasharray:none;stroke-opacity:1" />
    <path
       d="m 438.73,232.86 2.96,0.73 4.54,2.71 6.38,7.04 -5.54,5.06 -2.21,-0.54 -1.16,3.22 2.12,4.34 0.5,3.38 0.13,3.67 2.71,3.61 2.98,1.62 1.72,4.91 -0.65,4.9 -1.68,2.6 -3.46,1.93 -2.54,-0.2 0.62,3.41 -2.97,7.1 -3.27,1.09 -1.9,2.75 -2.19,-7.42 -1.64,-2.69 -4.99,-0.4 -5.22,0.9 2.82,-2.31 1.26,-2.85 -1.61,-3.3 1.26,-2.75 -1.4,-3.49 -4.75,-4.29 -0.52,-5.75 -3.01,-4.16 -3.27,-1.24 1.1,-2.2 -1.4,-3.67 -4.24,-3.53 1.84,1.34 5.62,1.93 2.06,-0.25 1.98,3.52 1.91,0.55 2.71,-1.77 0.8,-1.99 5.66,2.09 4.29,-1.64 0.25,-3.36 1.39,-1.5 -0.37,-4.2 1.71,-0.09 -3.4,-6.17 z"
       id="M01664"
       style="fill:#ffff80;fill-opacity:1;stroke:#000000;stroke-width:0.57868;stroke-dasharray:none;stroke-opacity:1" />
    <path
       d="m 423.97,286.58 5.22,-0.9 4.99,0.4 1.64,2.69 2.19,7.42 0.98,4.82 5.42,0.72 5.78,-1.62 1.19,-1.18 -0.7,2.57 4.97,5.07 -8.9,-0.54 -3.79,-1.41 h -8.39 l -3.63,1.35 -0.43,-2.67 -5.37,-4.43 -0.11,-6.83 -1.33,-1.28 z"
       id="M01661"
       style="fill:#ffff80;fill-opacity:1;stroke:#000000;stroke-width:0.57868;stroke-dasharray:none;stroke-opacity:1" />
    <path
       d="m 131.63,342.08 1.24,-2.63 3.51,0.07 5.34,3.8 0.35,2.19 3.59,0.19 1.13,1.27 0.01,2.8 -5.2,4.86 -4.39,0.72 -1.07,-3.58 -3.71,-0.77 -3,1.34 -4.34,-1.23 0.38,-2.58 3.71,0.84 2.28,-1.67 1.72,-2.89 z"
       id="M01575"
       style="fill:#ffff80;fill-opacity:1;stroke:#000000;stroke-width:0.57868;stroke-dasharray:none;stroke-opacity:1" />
    <path
       d="m 446.32,258.8 8.2,5.39 4.57,0.71 4.09,1.89 3.7,4.27 3.06,3.84 -2.35,4.75 6.97,5.2 -1.95,2.4 0.6,2.84 -1.55,1.57 1.9,6.3 -0.03,1.81 -1.83,1.39 -3.94,-0.94 -3.78,0.59 -3.57,-4.5 2.18,-0.61 2.7,1.4 2.86,-0.96 1.04,-2.04 -2.06,-2.33 -5.45,-1.32 -0.42,2.1 -3.84,-0.23 -2.14,0.9 -3.9,5.71 -1.19,1.18 -5.78,1.62 -5.42,-0.72 -0.98,-4.82 1.9,-2.75 3.27,-1.09 2.97,-7.1 -0.62,-3.41 2.54,0.2 3.46,-1.93 1.68,-2.6 0.65,-4.9 -1.72,-4.91 -2.98,-1.62 -2.71,-3.61 z"
       id="M01662"
       style="fill:#ffff80;fill-opacity:1;stroke:#000000;stroke-width:0.57868;stroke-dasharray:none;stroke-opacity:1" />
    <path
       d="m 267.7,195.86 3.58,1.67 4.91,0.8 4.08,5.44 2.51,9.27 -3.66,0.85 -1.15,-1.32 -7.32,-1.24 -3.94,-2.64 -5.25,-6.09 3.08,-2.01 z"
       id="M01454"
       style="fill:#ffff80;fill-opacity:1;stroke:#000000;stroke-width:0.57868;stroke-dasharray:none;stroke-opacity:1" />
    <path
       d="m 259.33,190.03 1.35,-2.34 3.29,1.29 0.34,-2.26 3.56,-2.03 0.56,1.62 -2.47,4.23 2.72,3.47 -0.98,1.85 -3.16,4.73 -3.08,2.01 -1.56,-11.05 z"
       id="M01455"
       style="fill:#ffff80;fill-opacity:1;stroke:#000000;stroke-width:0.57868;stroke-dasharray:none;stroke-opacity:1" />
    <path
       d="m 246.84,190.93 2.4,-2.28 4.23,-0.42 4.24,1.09 0.73,1.14 -1.85,2.61 -0.57,5.07 -1.91,1.98 1.89,1.97 -3.14,1.73 -3.68,4.63 -1.24,0.18 -2.04,-12.52 z"
       id="M01452"
       style="fill:#ffff80;fill-opacity:1;stroke:#000000;stroke-width:0.57868;stroke-dasharray:none;stroke-opacity:1" />
    <path
       d="m 262.77,218.65 3.82,1.51 3.48,3.73 2.54,0.86 3.24,2.47 -5.75,-0.57 -0.3,-1.81 -5.09,1.01 -5.17,-4.84 -2.06,-1.17 -1.55,-3.79 0.98,-1.03 z"
       id="M01453"
       style="fill:#ffff80;fill-opacity:1;stroke:#000000;stroke-width:0.57868;stroke-dasharray:none;stroke-opacity:1" />
    <path
       d="m 73.99,454.43 5.7,-4.3 4.23,1.16 4.56,-1.86 3.94,1.13 -0.47,5.84 0.35,7.25 -2.05,2.79 -1.96,-3.13 -1.9,1.76 -3.84,-0.12 0.73,-2.42 -2.41,-4.75 -2.62,2.28 -4.43,-3.26 z"
       id="M01333"
       style="fill:#ffff80;fill-opacity:1;stroke:#000000;stroke-width:0.57868;stroke-dasharray:none;stroke-opacity:1" />
    <path
       d="m 79.69,450.13 2.24,-6.17 2.57,-0.48 1.53,-7.25 1.67,-2.07 4.38,-0.28 0.39,1.31 6,2.78 3.63,2.97 0.44,2.47 -3.07,2.37 -4.75,0.48 -2.3,4.3 -3.94,-1.13 -4.56,1.86 z"
       id="M01334"
       style="fill:#ffff80;fill-opacity:1;stroke:#000000;stroke-width:0.57868;stroke-dasharray:none;stroke-opacity:1" />
    <path
       d="m 1.09,465.5 2.87,0.29 0.6,1.66 -3.56,1.4 z m 54.48,-11.73 2.71,-0.19 3.08,4.39 3.06,0.02 1.55,1.83 3.88,-0.17 1.45,4.25 -0.97,2.91 2.89,12.11 -1.99,0.08 -1.8,-2.01 -2.63,-0.97 -4.43,0.7 -3.98,-4.23 0.12,-1.19 -3.11,-7.84 -0.79,-6.37 z"
       fill-rule="evenodd"
       id="M01331"
       style="fill:#ffff80;fill-opacity:1;stroke:#000000;stroke-width:0.57868;stroke-dasharray:none;stroke-opacity:1" />
    <path
       d="m 69.85,459.65 4.14,-5.22 -0.17,2.37 4.43,3.26 2.62,-2.28 2.41,4.75 -0.73,2.42 3.84,0.12 1.9,-1.76 1.96,3.13 -2.86,0.03 -9.71,4.04 -1.76,4.33 -2.7,4.08 -2.89,-12.11 0.97,-2.91 z"
       id="M01332"
       style="fill:#ffff80;fill-opacity:1;stroke:#000000;stroke-width:0.57868;stroke-dasharray:none;stroke-opacity:1" />
    <path
       d="m 198.07,207.54 -0.3,-3.31 -2.8,-3.46 0.05,-2.27 -4.56,-3.34 1.59,-2.07 2.02,-8.46 2.33,3.36 2.12,0.78 3.23,3.16 2.4,-0.04 2.18,-3.15 5.16,-0.73 2.14,2.49 -0.29,1.99 1.55,2.87 -2.82,2.55 -0.68,3.79 -5.1,2.31 0.6,2.94 -2.8,1.93 z"
       id="M01212"
       style="fill:#ffff80;fill-opacity:1;stroke:#000000;stroke-width:0.57868;stroke-dasharray:none;stroke-opacity:1" />
    <path
       d="m 208.67,333.33 -0.85,3.66 -0.06,4.75 -1.34,2.59 -3.29,-2.11 -3.59,-0.75 -7.71,-0.33 -7.94,1.99 -9.27,4.3 -2.22,-3.43 -3.89,-3.12 0.09,-5.3 1.18,-0.26 2.21,-1.2 2.14,-3.36 -0.17,-4.69 6.46,1.55 4.61,-0.17 2.46,0.8 2.7,-3.24 3.7,-0.49 4.81,0.7 3.02,-1.97 0.52,6.73 3.89,3.61 z"
       id="M01213"
       style="fill:#ffff80;fill-opacity:1;stroke:#000000;stroke-width:0.57868;stroke-dasharray:none;stroke-opacity:1" />
    <path
       d="m 194.35,266.3 1,-2.58 2.34,-2.62 4.95,2.62 3.15,3.45 1.36,2.58 -0.57,2.95 1.96,2.82 6.15,1.36 1.68,-1.51 9.03,3.89 1.28,3.38 0.21,4.02 -8.88,0.77 -5.9,-3.27 -9.34,6.25 -4.24,-0.86 -2.98,-4.29 -3.82,-4.64 -0.99,-0.61 5.16,-7.1 -2.01,-4.41 z"
       id="M01210"
       style="fill:#ffff80;fill-opacity:1;stroke:#000000;stroke-width:0.57868;stroke-dasharray:none;stroke-opacity:1" />
    <path
       d="m 420.69,189.05 2.41,2.18 2.78,0.58 0.16,4.79 -2.93,4.4 -0.81,3.97 0.47,4.11 -1.83,-4.48 1.35,-2.65 -0.38,-3.09 -6.39,-2.66 0.29,2.4 -3.52,0.5 -3.27,-7.53 -1.98,-3.01 0.01,-3.52 -2.45,-0.95 -3.66,7.1 -3.74,-0.22 -1.55,2.03 -1.91,0.49 -1.49,-5.36 2.14,-1.12 -0.21,-10.22 3.5,-5.61 2.89,-0.71 4.27,2 -4.98,0.97 -1,8.2 2.39,0.89 4.2,-2.45 1.41,-3.98 -0.46,-4.33 4.84,-0.56 0.6,2.82 -0.2,5.32 2.85,2.47 0.94,4.25 z"
       id="M01211"
       style="fill:#ffff80;fill-opacity:1;stroke:#000000;stroke-width:0.57868;stroke-dasharray:none;stroke-opacity:1" />
    <path
       d="m 138.87,363.02 2.06,0.7 2.43,8.44 0.85,0.49 -3.47,3.43 -0.9,2.34 -4.89,-2.05 0.59,-2.94 -3.53,-3.9 3.35,-0.85 2.92,-2.61 z"
       id="M01205"
       style="fill:#ffff80;fill-opacity:1;stroke:#000000;stroke-width:0.57868;stroke-dasharray:none;stroke-opacity:1" />
    <path
       d="m 379.43,317.04 -7.7,-6.14 -2.2,-9.29 -3.99,-2.95 0.62,-4.51 3.78,-4.59 -0.09,-4.27 4.69,0.2 2.68,3.36 4.04,0.35 3.07,3.9 -2.11,6.47 2.51,3.15 3.5,1.59 2.51,3.8 -6.35,4.61 z m 10.82,-71.28 1.79,0.45 3.81,-1.6 1.36,-4.61 3.25,0.35 1.79,-2.22 6.65,1.17 1.53,1.7 -0.98,4.63 0.76,1.41 0.05,2.03 -4.82,5.15 -1.78,2.73 -2.41,7.58 2.59,3.67 3.15,2.34 2.93,7.46 1.61,2.7 -0.21,1.98 3.15,6.89 3.21,-0.21 6.02,1.4 1.33,1.28 0.11,6.83 5.37,4.43 0.43,2.67 -2.96,-0.5 -6.33,-2.7 -0.24,-2.08 -8.14,-2.07 -3.82,0.75 -0.46,-3.55 -6.9,-3.04 -3.62,-0.84 -1.51,-6.32 -3.25,-1.83 -0.46,-3.26 -3.33,-2.13 -0.89,-5.37 -1.69,-2.09 0.42,-4.23 3.28,-2.89 1.95,-5.96 -1.96,-1.79 1.77,-4.21 -2.09,-2.67 z m 8.83,-0.81 -1.95,1.91 0.9,2.38 3.02,-0.06 z"
       fill-rule="evenodd"
       id="M01206"
       style="fill:#ffff80;fill-opacity:1;stroke:#000000;stroke-width:0.57868;stroke-dasharray:none;stroke-opacity:1" />
    <path
       d="m 418.06,217.9 0.02,0.19 -4.37,2.24 -1.71,3.69 -2.68,2.84 -0.78,3.46 -2.48,-0.94 -1.62,-2.09 -2.53,-0.15 -1.43,-2.58 0.67,-4.18 -2.52,-4.1 -1.35,-3.8 -2.28,-1.66 -3.69,4.38 -5.75,0.75 -2.46,-1.18 4.96,-4.12 4.39,-11.11 2.28,-2.61 2.52,0.27 2.52,3.12 1.53,-1.8 5.03,2.15 2.37,6.31 2.43,4.03 0.36,4.07 1.69,2.58 z"
       id="M01543"
       style="fill:#ffff80;fill-opacity:1;stroke:#000000;stroke-width:0.57868;stroke-dasharray:none;stroke-opacity:1" />
    <path
       d="m 143.43,292.1 -2.35,-1.53 -1.37,-2.55 -0.14,-3.46 -6.55,-0.4 0.25,-2.42 -4.76,-1.58 -1.81,-4.03 5.74,-1.19 0.42,-1.36 5.01,-1.9 3.12,0.03 0.6,6.21 5.5,1.55 6.13,3.13 4.97,-2.27 3.39,-2.29 2.47,-0.15 -3.7,2.99 -2.2,0.1 -2.8,2.04 0.89,1.42 -3.39,4.48 -3.15,-2.62 -3.67,-0.76 -1.48,5.68 z"
       id="M01203"
       style="fill:#ffff80;fill-opacity:1;stroke:#000000;stroke-width:0.57868;stroke-dasharray:none;stroke-opacity:1" />
    <path
       d="m 258.44,190.46 0.89,-0.43 0.57,1.52 1.56,11.05 5.25,6.09 3.94,2.64 7.32,1.24 1.15,1.32 3.66,-0.85 1.82,2.04 0.47,5.49 -4.85,-0.28 -3.55,-1.83 -1.56,-2.16 -2.63,0.43 -3.37,-1.2 -1.96,-2.04 -4.12,0.24 -0.26,4.92 -5.86,-3.63 -0.98,1.03 1.55,3.79 2.06,1.17 5.17,4.84 5.09,-1.01 0.3,1.81 -7.48,1.15 -3.61,-4.74 -2.16,-0.35 -1.06,4.53 -3.16,1.53 -2.33,4.17 -0.18,3.68 -1.72,-0.88 -1.51,-6.1 0.82,-3.14 -1.17,-2.31 -3.38,-0.03 -2.46,0.71 -2.59,-3.11 0.37,-4.92 1.43,-2.19 -0.2,-2.35 3.57,-5.1 -2.61,-4.48 0.18,-3.36 -3.24,-0.26 -1.9,-4.2 4.11,-4.64 3.86,-1.26 3.16,1.93 -0.94,5.18 2.04,12.52 1.24,-0.18 3.68,-4.63 3.14,-1.73 -1.89,-1.97 1.91,-1.98 0.57,-5.07 z"
       id="M01204"
       style="fill:#ffff80;fill-opacity:1;stroke:#000000;stroke-width:0.57868;stroke-dasharray:none;stroke-opacity:1" />
    <path
       d="m 220.11,308.94 -1.02,-8.94 -2.61,-0.25 -1.15,-5.61 0.87,-5.87 1.81,-0.84 8.88,-0.77 -0.21,-4.02 2.62,-2.41 3.7,-1.06 2.9,-2.3 0.78,-3.41 2.28,1.96 4.57,-0.67 2.98,-1.47 0.45,3.16 -2.56,5.32 0.78,1.77 -1.47,2.1 1.91,5.75 3.75,2.09 1.45,1.97 -2.87,1.88 -1.34,3.89 -3.44,0.79 -2.82,2.37 -5.06,0.53 0.09,2.37 -2.92,1.5 -0.28,2.39 -2.22,2.87 -3.09,0.72 -2.85,-0.08 -1.64,-4.63 z"
       id="M01209"
       style="fill:#ffff80;fill-opacity:1;stroke:#000000;stroke-width:0.57868;stroke-dasharray:none;stroke-opacity:1" />
    <path
       d="m 322.75,333.28 0.49,-2.84 -3.19,-0.92 -3.29,0.29 -3.91,3.2 0.79,0.96 -4.24,6.38 -5.78,2.07 -3.56,-0.89 -1.56,1.37 -3.45,-2.98 -0.16,-6.15 -2.48,0.93 -2.94,-0.79 -2.4,1.14 -0.7,-4.33 -1.8,0.07 -3.26,-1.96 -0.67,-1.34 2.74,-2.88 3.94,-0.02 1.12,1.37 9.81,1.54 3.2,3.22 4.57,-5.53 7.01,-4.5 3.79,-5.23 2.29,-4.16 -2.86,-0.3 -0.37,-3.9 3.22,-2.42 4.36,1.64 3.96,0.23 -2.74,4.41 0.97,0.66 -0.6,5.44 -1.27,2.53 3.57,3.21 -1.06,2.49 2.92,0.75 -1.66,4.28 -0.7,2.7 z"
       id="M01207"
       style="fill:#ffff80;fill-opacity:1;stroke:#000000;stroke-width:0.57868;stroke-dasharray:none;stroke-opacity:1" />
    <path
       d="m 361.89,209.89 -2.85,2.1 -3.22,-0.51 -4.8,2.89 -0.6,2.94 -2.52,1.49 -4.63,0.57 -1.32,3.44 -5.75,2.97 -5.86,-1.53 -4.18,1.18 -3.66,1.96 -1.26,3.4 -2.55,-0.03 -0.49,-1.47 3.07,-3.42 -2.81,-4.63 2.69,-3.38 4.53,1.17 2.25,-1.52 -0.2,-3.32 3.21,-2.87 1.5,0.47 3.66,-1.65 2.08,-1.99 4.8,-0.94 1.63,-1.59 5.09,-0.18 1.29,-2.41 3.64,-1.19 -0.22,-3.91 1.45,-2 0.04,-5.85 2.39,1.53 1.79,-0.96 5.26,7.72 4.78,-5.19 -0.94,-4.15 2.07,0.37 1.84,-3.6 1.61,-0.44 4.22,1.24 1.22,-0.51 5.09,-5.74 0.99,-6.99 1.65,-3.75 -0.63,-1.99 8.76,1.85 2.65,-0.22 1.92,1.22 -2.89,0.71 -3.5,5.61 0.21,10.22 -2.14,1.12 1.49,5.36 1.91,-0.49 -0.92,3.93 -2.28,2.61 -4.39,11.11 -4.96,4.12 -1.26,3.35 -3.42,-0.53 -3.41,4.31 -2.22,-3.19 1.13,-3.26 -0.6,-6.48 z"
       id="M01208"
       style="fill:#ffff80;fill-opacity:1;stroke:#000000;stroke-width:0.57868;stroke-dasharray:none;stroke-opacity:1" />
    <path
       d="m 755.17,39.93 -1.33,-0.72 -0.61,-6.86 0.75,-1.83 4.27,-2.49 3.5,-3.05 3.46,-8.01 2.88,-3.18 3.03,-1.28 1.78,-3.74 2.39,-0.23 2.7,-2.08 1.05,-3.4 4.89,-0.5 4.61,-1.56 3.8,0.23 3.82,1.46 2.76,2.7 0.08,3.68 -4.91,3.27 -0.27,3.7 1.99,1.06 1.94,3.77 -2.77,6.07 -3.57,0.21 -1.92,1.46 -3.07,-1.77 -9.87,0.79 -4.02,1.71 -4.69,4.31 -1.38,2.28 -4.9,0.89 -3.39,2.53 z"
       id="M01700"
       style="fill:#ffff80;fill-opacity:1;stroke:#000000;stroke-width:0.57868;stroke-dasharray:none;stroke-opacity:1" />
    <path
       d="m 410.21,247.04 4.24,3.53 1.4,3.67 -1.1,2.2 3.27,1.24 3.01,4.16 0.52,5.75 4.75,4.29 1.4,3.49 -1.26,2.75 1.61,3.3 -1.26,2.85 -2.82,2.31 -0.27,4.18 -6.02,-1.4 -3.21,0.21 -3.15,-6.89 0.21,-1.98 -1.61,-2.7 -2.93,-7.46 -3.15,-2.34 -2.59,-3.67 2.41,-7.58 1.78,-2.73 4.82,-5.15 z"
       id="M01667"
       style="fill:#ffff80;fill-opacity:1;stroke:#000000;stroke-width:0.57868;stroke-dasharray:none;stroke-opacity:1" />
    <path
       d="m 370.94,280.41 2.08,-4.65 0.8,-5.18 9.92,-10.5 7.29,-4.01 1.96,1.79 -1.95,5.96 -3.28,2.89 -0.42,4.23 1.69,2.09 0.89,5.37 3.33,2.13 0.46,3.26 3.25,1.83 1.51,6.32 3.62,0.84 6.9,3.04 0.46,3.55 -7.04,2.35 -11.67,6.39 -2.51,-3.8 -3.5,-1.59 -2.51,-3.15 2.11,-6.47 -3.07,-3.9 -4.04,-0.35 -2.68,-3.36 -4.69,-0.2 1.12,-1.32 z"
       id="M01668"
       style="fill:#ffff80;fill-opacity:1;stroke:#000000;stroke-width:0.57868;stroke-dasharray:none;stroke-opacity:1" />
    <path
       d="m 430.6,221.18 0.38,2.08 2.21,0.63 1.45,4.96 1.52,-0.14 1.87,1.41 0.7,2.74 -2.07,2.64 3.4,6.17 -1.71,0.09 0.37,4.2 -1.39,1.5 -0.25,3.36 -4.29,1.64 -5.66,-2.09 -0.8,1.99 -2.71,1.77 -1.91,-0.55 -1.98,-3.52 -2.06,0.25 -5.62,-1.93 -1.84,-1.34 -0.76,-1.41 0.98,-4.63 -1.53,-1.7 0.87,-3.98 -1.23,-5 0.78,-3.46 2.68,-2.84 1.71,-3.69 4.37,-2.24 4.92,1.97 3.19,-1.07 z m 5.9,8.23 -2.24,0.59 -1.31,1.54 0.11,3.77 5.1,-4.08 z m -22.57,-5.68 -1.93,5.6 1.49,2.7 3.69,1.27 2.43,-0.95 0.82,-5.46 1.9,-2.32 2.42,0.13 0.02,-2.4 -4.5,-0.73 -3.48,0.49 z"
       fill-rule="evenodd"
       id="M01665"
       style="fill:#ffff80;fill-opacity:1;stroke:#000000;stroke-width:0.57868;stroke-dasharray:none;stroke-opacity:1" />
  </g>
</svg>
