<?xml version="1.0" encoding="UTF-8" standalone="no"?>
<svg
   version="1.2"
   width="464.18021"
   height="600"
   viewBox="0 0 464.18021 600"
   stroke-linecap="round"
   stroke-linejoin="round"
   id="svg1166"
   sodipodi:docname="ib.svg"
   inkscape:version="1.2 (dc2aedaf03, 2022-05-15)"
   xmlns:inkscape="http://www.inkscape.org/namespaces/inkscape"
   xmlns:sodipodi="http://sodipodi.sourceforge.net/DTD/sodipodi-0.dtd"
   xmlns="http://www.w3.org/2000/svg"
   xmlns:svg="http://www.w3.org/2000/svg">
  <defs
     id="defs1170" />
  <sodipodi:namedview
     id="namedview1168"
     pagecolor="#505050"
     bordercolor="#eeeeee"
     borderopacity="1"
     inkscape:showpageshadow="0"
     inkscape:pageopacity="0"
     inkscape:pagecheckerboard="0"
     inkscape:deskcolor="#505050"
     showgrid="false"
     inkscape:zoom="0.7794971"
     inkscape:cx="232.20099"
     inkscape:cy="300.19355"
     inkscape:window-width="1920"
     inkscape:window-height="1009"
     inkscape:window-x="-8"
     inkscape:window-y="-8"
     inkscape:window-maximized="1"
     inkscape:current-layer="svg1166" />
  <g
     id="ib"
     transform="matrix(0.58042636,0,0,0.58042636,-0.08043509,-0.0804366)"
     style="fill:#ffff80;fill-opacity:1;stroke:#000000;stroke-width:1.72287;stroke-dasharray:none;stroke-opacity:1">
    <path
       d="m 452.32,584.4 4.55,-3.4 4.91,1.5 19.13,9.92 1.36,5.17 -1.38,8.97 7.23,2.65 5.24,6.93 8.36,7.55 3.15,6.29 9.48,3.62 6.38,4.59 3.94,7.13 1.11,6.6 -3.96,1.98 -4.98,15.82 -1.49,9.44 -9.7,10.37 -9.34,4.44 -3.1,-7.91 -5.2,-7.77 -14.88,1.44 -6.8,-2.46 0.37,6.5 -7.97,3.4 -0.54,5.19 -7.2,-0.41 -4.47,-8.48 -7.62,-4.03 -4.21,-5.1 -6.82,0.79 1.46,-12.52 -0.67,-9.71 4.94,1.63 12.69,-3.64 -13.8,-11.14 -1.65,-7.25 -7.92,-0.66 -10.59,-8.62 -6.9,-2.61 -2.04,-6.69 5.98,-20.16 8.59,-0.56 2.8,-6.24 5.15,-2 -0.35,-6.72 5.77,-6.69 2.49,4.04 z"
       id="M08236"
       style="fill:#ffff80;fill-opacity:1;stroke:#000000;stroke-width:1.72287;stroke-dasharray:none;stroke-opacity:1" />
    <path
       d="m 277.21,825.76 0.13,12.67 5.13,9.45 12.34,7.82 -2.54,4.19 -5.71,-2.5 -5.68,3.44 -8.06,-2.38 -6.05,1.29 -5.48,5.03 -6.44,-0.4 -8.1,5.25 -10.86,-8.98 -6.1,-10.31 -11.58,-3.94 -4.15,-4.03 -12.81,-4.63 -4.95,-7.25 2.27,-2.76 -0.93,-15.91 6.67,1.42 6.81,-3.09 6.18,0.34 -7.24,-9.39 26.1,-18.44 -1.71,-10.12 7.56,5.43 3.27,-1.69 5.01,8.1 -3.24,9.89 0.08,6.62 3.8,3.19 9.96,-3.84 11.63,12.73 z"
       id="M08235"
       style="fill:#ffff80;fill-opacity:1;stroke:#000000;stroke-width:1.72287;stroke-dasharray:none;stroke-opacity:1" />
    <path
       d="m 516.84,669.72 4.98,-15.82 3.96,-1.98 -1.11,-6.6 -3.94,-7.13 -6.38,-4.59 -9.48,-3.62 -3.15,-6.29 4.19,-10.26 8.03,3.18 6.06,-9.14 4.23,8.57 6.02,-5.51 14.39,-2.84 11.57,-9.82 1.81,-16.74 10.67,1.04 9.17,-1.56 1.01,2.86 7.89,4.15 13.07,1.47 1.77,3.9 2.58,29.39 7.68,39.53 6.36,24.84 7.47,24.09 11.54,30.43 -10.27,1.78 -4.69,2.62 -1.3,5.37 -18.54,7.26 -2.75,-6.5 -9.59,-8.52 -1.58,-11.47 -4.53,-12.97 -1.33,-12.17 -6.68,-5.05 -1.17,5.73 -2.96,-0.21 -6.12,-8.75 -10.97,4.71 -18.96,3.11 -9.58,-6.68 -1.57,-4.81 5.4,-12.68 0.05,-5.98 -8.3,-1.66 z"
       id="M08234"
       style="fill:#ffff80;fill-opacity:1;stroke:#000000;stroke-width:1.72287;stroke-dasharray:none;stroke-opacity:1" />
    <path
       d="m 466.7,683.77 -0.37,-6.5 6.8,2.46 14.88,-1.44 5.2,7.77 3.1,7.91 9.34,-4.44 9.7,-10.37 1.49,-9.44 4.95,4.68 8.3,1.66 -0.05,5.98 -5.4,12.68 1.57,4.81 9.58,6.68 18.96,-3.11 10.97,-4.71 6.12,8.75 2.96,0.21 5.21,7.21 -3.08,6.33 4,2.35 -5.09,6.59 11.12,8.27 -0.18,9.46 -4.2,5.97 9.84,5.4 -2.75,5.77 10.11,7.47 -4.08,6.51 -5.98,2.3 12.34,6.33 -10.67,18.54 -4.05,6.36 -6.41,1.14 -0.79,-4.28 -12.01,-0.3 1.79,14.88 -0.56,4.71 -8.59,4.86 -7.76,-7.65 -9.89,-2.26 -5.53,-21.15 -3.14,-0.89 -7.13,-14.73 -12.77,-22.23 -9.12,-11.23 -3.18,-16.55 -8.07,-4.87 -1.88,-7.83 -3.01,-2.11 2.18,-7.94 -4.31,-9.52 -4.56,-3.4 -2.81,-6.77 -9.84,-9.5 z"
       id="M08233"
       style="fill:#ffff80;fill-opacity:1;stroke:#000000;stroke-width:1.72287;stroke-dasharray:none;stroke-opacity:1" />
    <path
       d="m 638.05,876.26 2.88,-0.81 2.61,-9.39 6.17,4.55 16.65,1.78 16.54,13.65 15.51,-11.43 7.02,-1 0.75,-11.64 0.16,-0.08 -0.79,11.83 -1.74,4.58 23.29,40.24 0.17,5.94 26.12,43.31 21.2,33.26 10.16,14.08 12.03,11.89 2.22,5.6 -16.57,0.38 -4.55,-1.76 -18.71,-14.36 -32.07,-22.71 -10.89,-13.26 -5.95,-18.72 -7.34,-11.47 -13.61,-9.79 -14.09,-4.62 -17.45,-2.73 -7.15,-2.31 -1.31,-4.71 -8.48,-14.23 -4.54,-16.23 2.25,-10.62 z m 29.87,-4.66 2.74,0.3 23.63,-3.85 -0.1,3.91 -11.73,8.24 z"
       fill-rule="evenodd"
       id="M08232"
       style="fill:#ffff80;fill-opacity:1;stroke:#000000;stroke-width:1.72287;stroke-dasharray:none;stroke-opacity:1" />
    <path
       d="m 343.59,470.99 3.04,10.89 -6.69,8.15 -0.62,12.45 -6.84,0.52 -0.56,6.43 -3.47,6.74 0.78,7.37 6.12,-0.27 6.72,10.22 -1.66,3.65 -6.48,-0.31 -11.37,4.52 -6.17,8.1 -1.31,6.98 5.91,9.47 -7.94,14.87 -4.47,2.58 0.66,6.12 -5.89,13.96 -11.32,10.44 -7.76,0.4 -4.81,3.57 -6.55,-1.17 -15.42,2.06 0.14,-7.68 1.89,-21.02 2.95,-14.15 -4.72,-2.87 -4.49,3.99 -3.21,-7.49 1.04,-15.17 2.1,-13.05 -2.49,-10.64 0.25,-6.89 -7.11,-11.38 5.08,-3.7 1.66,-4.78 -6.6,-2.6 0.59,-10.51 4.62,-0.31 10.64,-5.54 3.81,-5.98 -2.85,-9.98 2.18,-2.2 16.62,1.38 6.48,3.97 6.57,-0.89 -1.13,-7.92 3.11,-3.01 12.23,-3.52 9.13,2.72 7.66,11.64 6.48,-1.67 z"
       id="M08231"
       style="fill:#ffff80;fill-opacity:1;stroke:#000000;stroke-width:1.72287;stroke-dasharray:none;stroke-opacity:1" />
    <path
       d="m 445.88,702.12 4.93,4.5 5.04,0.71 11.05,5.84 12.96,10.72 -4.64,1.96 2.17,5.28 9.7,4.06 0.26,2.66 -8.71,8.75 -9.14,11.91 -16.34,-0.69 -5.77,1.83 -6.59,-1.18 -14.02,-5.95 -10.08,6.93 -9.71,-5.21 -8.57,-1.09 1.19,-15.25 -4.66,-6.23 7.3,-3.89 4.9,2.9 2.06,-12.38 -17.62,-6.65 -5.58,-4.52 -6.04,0.09 -12.08,-3.07 -18.43,-3.14 8.32,-10.15 -1.97,-10.77 -5.37,-7.24 -9.89,-2.2 -2.89,-5.9 4.71,-1.76 6.79,-6.82 9.65,-3.25 1.34,-5.32 10.41,-2.45 -8.88,-6.21 -0.89,-5.98 18.27,3.03 2.03,7.35 4.54,5.78 15.17,9.74 7.29,11.22 -3.96,3.16 -4.04,9.39 -5.94,4.39 -7.24,11 11.68,-1.39 19.6,1.65 5.55,-0.93 19.78,7.14 z"
       id="M08230"
       style="fill:#ffff80;fill-opacity:1;stroke:#000000;stroke-width:1.72287;stroke-dasharray:none;stroke-opacity:1" />
    <path
       d="m 294.81,855.7 -12.34,-7.82 -5.13,-9.45 -0.13,-12.67 2.39,8.32 -1.1,4.45 7.72,10.71 9.96,2.97 -0.88,-5.92 -3.7,-4.79 1.15,-10.53 0.46,9.52 2.86,5.75 0.75,4.46 4.01,5.44 0.35,5.03 4.37,1.89 3.72,-2.14 0.59,-5.33 -10.03,-7.55 -1.26,-0.82 -0.38,-1.87 -0.96,-1.02 -1.36,-2.55 -3.12,-10.9 2.31,-2.36 0.87,13.01 1.12,1.18 0.24,1.53 1.3,1.43 0.01,0.51 1.5,0.71 3.83,-0.94 1.11,5.43 12.43,6.69 3.87,0.65 3.33,-6.24 7.75,4.34 4.07,9.26 6,-8.74 2.35,-9.08 4.58,1.6 1.08,-7.32 14.18,6.85 7.57,6.05 9.84,-0.51 9.7,7.09 0.54,2.27 3.55,6.15 -5.31,2 -2.99,10.27 -0.36,8.01 -8.61,3.86 -8.97,8.43 -5.06,2.31 -0.06,4.41 -11.6,5.63 2.03,2.67 -3.72,1.98 -7.37,-10.74 -14.72,-1.66 -2.03,6.57 -18.6,-0.43 -4.73,-2.03 11.88,-9.35 5.03,-8.43 -16.53,-14.38 3.11,-13.76 -6.35,-4.61 z"
       id="M08208"
       style="fill:#ffff80;fill-opacity:1;stroke:#000000;stroke-width:1.72287;stroke-dasharray:none;stroke-opacity:1" />
    <path
       d="m 149.16,556.33 -0.92,9.54 4.64,6.64 -3.84,5.14 -2.23,8.74 -7.81,9.02 11.46,12.23 0.54,3.44 -6.58,9.53 -5.91,0.08 2.16,7.31 -3.89,2.16 -11.23,-6.33 -2.73,3.97 -6,-4.15 -1.47,5.58 -9.33,-5.55 -8.25,2.05 1.94,11.07 -6.03,-0.48 -4.52,-9.73 0.37,-7.34 4.17,-9.06 -0.64,-3.46 3.59,-6.72 3.48,-14.96 6.8,-10.49 -4.5,-12.38 2.99,-7.21 7.17,-9.88 4.77,1.11 10.76,-3.93 1.51,-6.92 5.33,2.96 -2.68,4.88 12.49,3.64 -1.62,6.69 z"
       id="M08207"
       style="fill:#ffff80;fill-opacity:1;stroke:#000000;stroke-width:1.72287;stroke-dasharray:none;stroke-opacity:1" />
    <path
       d="m 425.56,578.24 0.35,6.72 -5.15,2 -2.8,6.24 -8.59,0.56 -5.98,20.16 2.04,6.69 6.9,2.61 10.59,8.62 7.92,0.66 1.65,7.25 13.8,11.14 -12.69,3.64 -4.94,-1.63 0.67,9.71 -1.46,12.52 v 0 l 0.35,0.29 0.59,0.49 1.1,2.65 -0.55,5.28 7.37,4.08 2.75,-1.25 8.03,8.07 -1.63,7.38 -2.36,2.37 -19.78,-7.14 -5.55,0.93 -19.6,-1.65 -11.68,1.39 7.24,-11 5.94,-4.39 4.04,-9.39 3.96,-3.16 -7.29,-11.22 -15.17,-9.74 -4.54,-5.78 -2.03,-7.35 -18.27,-3.03 0.89,5.98 8.88,6.21 -10.41,2.45 -1.34,5.32 -9.65,3.25 -6.79,6.82 -4.71,1.76 -5.68,1 -7.82,-4.04 -9.49,2.95 -4.03,-2.97 -1.72,-5.83 -4.7,-6.17 1.81,-2.81 -1.47,-8.9 -4.64,-7.28 0.63,-4.71 -8.52,-12.12 11.32,-10.44 5.89,-13.96 -0.66,-6.12 4.47,-2.58 7.94,-14.87 -5.91,-9.47 1.31,-6.98 6.17,-8.1 11.37,-4.52 6.48,0.31 8.46,2.94 6.37,-3.81 7.09,4.19 6.99,10.9 1.04,7.28 8.83,9.99 7.32,0.06 7.86,10.4 6.36,3.47 3.97,-2.14 13.84,1.41 z"
       id="M08205"
       style="fill:#ffff80;fill-opacity:1;stroke:#000000;stroke-width:1.72287;stroke-dasharray:none;stroke-opacity:1" />
    <path
       d="m 93.06,606.73 0.64,3.46 -4.17,9.06 -0.37,7.34 4.52,9.73 6.03,0.48 -1.94,-11.07 8.25,-2.05 9.33,5.55 -0.18,6.13 6.47,6.61 1.99,5.61 -6.61,10.65 -3.86,14.98 4.08,8.75 -0.27,3.82 -17.65,-4.17 -0.92,9.21 -10.65,3.83 -5.25,-1.65 0.14,-10.67 -2.89,-3.94 -17.87,1.93 3.05,7.26 -0.38,9.53 -9.56,-1.31 -5.03,7.97 -8.71,-5 -17.83,-0.3 -7.18,-3.1 -9.66,-17.46 -3.6,-16.11 1.9,-14.02 -3.88,-7.23 3.86,-5.43 8.86,3.96 0.7,-7.67 13.82,4.26 1.02,3.04 13.27,-7.52 8.1,-6.96 z"
       id="M08204"
       style="fill:#ffff80;fill-opacity:1;stroke:#000000;stroke-width:1.72287;stroke-dasharray:none;stroke-opacity:1" />
    <path
       d="m 337.66,664.75 2.89,5.9 9.89,2.2 5.37,7.24 1.97,10.77 -8.32,10.15 18.43,3.14 12.08,3.07 6.04,-0.09 5.58,4.52 17.62,6.65 -2.06,12.38 -4.9,-2.9 -7.3,3.89 4.66,6.23 -1.19,15.25 -9.92,0.15 -5.72,-1.78 -4.21,-10.83 -9.06,-2.79 -3.22,4.99 1.8,17.14 1.49,4.19 -6.11,-0.18 -3.23,6.92 -6.75,5.75 -5.72,-0.55 -1.71,8.8 -10.81,-8.06 -3.61,12.58 -6.34,9.26 -9.86,-11.26 -4.19,-14.97 3.68,0.25 13.48,-14.91 5.86,-4.13 -10.71,-5.69 0.15,-12.5 -3.72,-2.35 3.9,-5.35 1.59,-9.07 -5.94,-4.2 -7.97,-0.21 -8,-8 0.31,-11.88 6.88,5.14 -1.73,-9.51 5.17,-5.68 -2.8,-10.45 -5.78,-5.55 5.02,-6.73 4.03,2.97 9.49,-2.95 7.82,4.04 z"
       id="M08203"
       style="fill:#ffff80;fill-opacity:1;stroke:#000000;stroke-width:1.72287;stroke-dasharray:none;stroke-opacity:1" />
    <path
       d="m 709.76,218.43 -1.55,15.92 1.28,9.88 -5.31,6.65 -2.94,-0.78 -7.15,9.54 -2.8,12.9 -0.18,7.54 -6.36,5.08 -6.13,14.68 -4.74,5.72 -2.74,10.85 -4.15,2.72 -6.94,20.41 1.23,6.38 -5.13,4.95 -3.66,14.79 -0.1,10.22 -8.65,19.56 -4.68,4.16 -6.73,-0.28 -8.94,-6.36 -0.39,-3.99 -9.31,-1.55 -7.45,1.35 -4.47,-0.3 3.29,-11.31 6.9,0.74 -0.7,-6.01 6.71,1.06 11.51,-7.41 1.08,-3.36 -3.32,-9.59 -4.68,-6.03 1.67,-8.6 -6.92,-10.13 0.64,-7.44 -3.65,-10.3 7.15,-18.09 -3.5,-11.9 -4.92,-2.96 -7.08,2.35 -19.18,1.76 -14.68,-25.81 9.84,-1.25 6.93,-2.99 -0.11,-9.81 6.12,-1.38 0.08,-9.57 -4.35,-2.32 -4.2,-13.67 3.65,-3.41 -1.26,-6.79 9.51,-3.8 10.87,4.35 4.47,3.6 15.16,0.83 5.77,2.85 2.31,-5.61 6.83,-2.99 10.18,8.11 11.29,-4.53 7.98,0.2 4.81,5.37 5.38,-0.55 8.14,2.98 5.58,-2.13 z"
       id="M08202"
       style="fill:#ffff80;fill-opacity:1;stroke:#000000;stroke-width:1.72287;stroke-dasharray:none;stroke-opacity:1" />
    <path
       d="m 501.61,417.41 1.28,4.98 6.63,5.81 15.67,-2.15 7.15,13.52 -3.17,10.28 4.94,10.72 8.92,9.79 6.44,-7.25 -0.25,6.39 3.43,2.03 -2.7,6.5 5.63,13.23 5.76,-6.75 9.33,9.25 7.74,4.56 12.51,2.77 7.83,4.43 5.61,6.74 9.19,4.87 6.84,6.66 -3.61,1.2 -4.44,6.83 -9.65,6.15 -1.39,5.83 -10.14,-4.93 -9.32,11.86 -7.09,-1.06 -9.41,4.88 -6.52,-4.21 -2.83,-12.26 -6.42,-2.09 -8.67,6.25 -19.98,-4.68 -11.99,4.37 -4.28,-13.19 -6.3,-6.84 -10.46,5.28 -6.11,5.85 3.57,11.46 -14.77,-0.56 -8.83,-3.58 -8.49,-5.76 -7.28,-13.61 -0.44,-3.7 5.94,-16.92 -3.88,-9.16 -9.7,-7.75 1.6,-8.68 9.64,-1.98 4.81,1.67 6.38,-4.94 -4.8,-17.64 -4.61,-1.45 -2.59,-5.82 4.85,-2.42 17.8,-0.23 2.79,4.89 6.24,-8.83 7.66,-1.35 0.69,-7.72 -6.34,-3.12 -3.23,-11.35 9.11,1.99 1.65,3.93 8.27,-0.59 z"
       id="M08201"
       style="fill:#ffff80;fill-opacity:1;stroke:#000000;stroke-width:1.72287;stroke-dasharray:none;stroke-opacity:1" />
    <path
       d="m 354.95,918.03 -2.03,-2.67 11.6,-5.63 0.06,-4.41 5.06,-2.31 8.97,-8.43 8.61,-3.86 6.85,6.98 6.53,-1.27 1.94,3.87 8.43,-1.78 -0.69,4.61 10.89,0.57 -1.37,6.06 6.86,-0.34 11.23,-3.38 2.64,-13.68 4.19,7.06 22.29,-12.48 5.42,-3.81 4.72,10.69 -10.51,3.19 -7.33,6.34 -3.23,7.43 -9.25,9.2 -8.21,5.39 -10.18,1.34 -15.31,-7.18 -6.77,-0.54 -7.27,3.62 -15.21,11.83 -7.6,1.09 -13.06,-6.71 2.59,-10.41 z"
       id="M08447"
       style="fill:#ffff80;fill-opacity:1;stroke:#000000;stroke-width:1.72287;stroke-dasharray:none;stroke-opacity:1" />
    <path
       d="m 325.3,798.74 6.34,-9.26 3.61,-12.58 10.81,8.06 1.71,-8.8 5.72,0.55 6.75,-5.75 3.23,-6.92 6.11,0.18 3.88,7.89 22.09,9.85 6.27,-0.34 7.71,28.77 -2.84,4.27 2.93,7.2 4.71,4.29 -16.65,0.49 -4.2,2.46 -5.01,-6.26 -10.46,4.8 -4.84,4.06 -7.3,-6.29 -6.06,12.59 -13.39,-8.45 -6.88,-6.59 0.32,-5.85 -2.76,-7.06 z"
       id="M08443"
       style="fill:#ffff80;fill-opacity:1;stroke:#000000;stroke-width:1.72287;stroke-dasharray:none;stroke-opacity:1" />
    <path
       d="m 414.33,826.15 -4.71,-4.29 -2.93,-7.2 2.84,-4.27 -7.71,-28.77 7.25,0.85 9.96,4.86 6.1,0.54 7.88,-3.54 6.22,4.64 3.42,-2.14 13.68,-0.93 9.07,11.91 7.33,5.16 2.32,6.33 -7.67,5.25 -4.95,0.89 0.81,-2.72 -19.62,-5.77 -4.25,5.76 -1.78,7.59 -7.3,6.36 -3.04,5.36 z"
       id="M08442"
       style="fill:#ffff80;fill-opacity:1;stroke:#000000;stroke-width:1.72287;stroke-dasharray:none;stroke-opacity:1" />
    <path
       d="m 387.22,890.72 0.36,-8.01 2.99,-10.27 5.31,-2 -3.55,-6.15 11.75,-4.78 -7.72,-29.04 -2.88,-1.37 4.2,-2.46 16.65,-0.49 12.92,5.87 3.04,-5.36 7.3,-6.36 1.78,-7.59 4.25,-5.76 19.62,5.77 -0.81,2.72 -6.29,2.81 11.87,6.62 18.16,1.29 4.99,-6.16 4.62,-0.98 24.68,11.09 3.32,7.3 16.44,9.59 8.87,0.51 4.93,3.95 5.53,-4.32 8.76,-0.66 -7.96,12.21 -1.68,8.95 -6.95,4.51 2.39,11.23 -4.2,4.89 -9.25,-8.57 -8.74,-5.81 -6.87,9.81 -21.03,7.36 -7.11,-2.42 -7.69,0.18 -12.07,5 -4.72,-10.69 -5.42,3.81 -22.29,12.48 -4.19,-7.06 -2.64,13.68 -11.23,3.38 -6.86,0.34 1.37,-6.06 -10.89,-0.57 0.69,-4.61 -8.43,1.78 -1.94,-3.87 -6.53,1.27 z"
       id="M08229"
       style="fill:#ffff80;fill-opacity:1;stroke:#000000;stroke-width:1.72287;stroke-dasharray:none;stroke-opacity:1" />
    <path
       d="m 98.4,690.82 0.92,-9.21 17.65,4.17 9.57,1.33 7.4,6.36 1.84,4.88 8.26,9.72 -0.06,2.59 7.62,5.79 17.04,18.17 5.14,1.36 -0.12,11.24 -2.14,5.1 8.33,10.6 7.23,3.01 0.19,5.26 -3.76,9.94 -3.81,0.32 -3.3,5.91 -15.78,5.43 -2.21,9.84 4.07,16.64 0.91,17.23 -4.79,0.1 -11.95,-6.12 -10.48,-9.64 -4.08,-16 -14.58,-18.6 -13.68,-9.95 -11.76,-13.72 7.29,-4.04 8.7,-1.15 4.16,-9.1 -6.29,-2.9 -1.4,-10.24 3.34,-7.11 -0.92,-13.81 1.56,-11.2 -4.39,-3.64 z"
       id="M08228"
       style="fill:#ffff80;fill-opacity:1;stroke:#000000;stroke-width:1.72287;stroke-dasharray:none;stroke-opacity:1" />
    <path
       d="m 244.57,490.79 -0.59,10.51 6.6,2.6 -1.66,4.78 -5.08,3.7 7.11,11.38 -0.25,6.89 2.49,10.64 -2.1,13.05 -1.04,15.17 3.21,7.49 4.49,-3.99 4.72,2.87 -2.95,14.15 -1.89,21.02 -5.14,5.53 4.46,13.11 -7.21,1.03 0.54,6.56 -9.2,3.76 -7.34,0.6 -2.95,-7.1 -4.47,3 -8.49,-3.57 0.6,-10.81 -3.57,-8.16 -3.66,0.79 -8.15,-3.69 -7.8,3.44 -1.58,6.25 -6.62,-6.99 -4.96,1.94 -5.6,-2.63 -2.29,-11.21 -7.99,0.71 -8.71,10.1 -6.64,0.95 0.14,-3.58 -0.54,-3.44 -11.46,-12.23 7.81,-9.02 2.23,-8.74 3.84,-5.14 -4.64,-6.64 0.92,-9.54 5.33,-2.19 -0.3,-7.37 2.77,-23.01 5.73,-4.17 8.61,-1.64 7.6,-4.87 12.63,-1.5 0.54,-14.16 6.4,-6.05 3.22,4.09 7.37,2.19 8.01,-0.73 7.74,-7.15 9.21,0.84 6.45,-2 z"
       id="M08227"
       style="fill:#ffff80;fill-opacity:1;stroke:#000000;stroke-width:1.72287;stroke-dasharray:none;stroke-opacity:1" />
    <path
       d="m 601.77,388.47 4.47,0.3 -11.28,7.7 -1.39,7.24 -5.84,9.74 2.1,5.41 -8.65,-3.43 -0.33,8.43 -8.13,2.7 -1.84,10.41 2.57,8.66 -6.51,1.11 0.95,5.72 -6.32,-0.87 -4.63,6.71 -7.47,4.81 -6.44,7.25 -8.92,-9.79 -4.94,-10.72 3.17,-10.28 -7.15,-13.52 -15.67,2.15 -6.63,-5.81 -1.28,-4.98 -4.48,-3.93 1.17,-12.13 -2.72,-4.56 -7.68,-4.92 5.01,-5.67 7.55,-2.55 -1.71,-8.99 5.72,-3.95 4.4,2.01 7.9,-2.4 16.08,5.03 6.62,5.5 8.8,4.04 4.93,4.43 6.99,-3.2 3.41,2.86 7.92,-8.03 9.48,0.2 4.03,2.74 4.83,-3.52 7.26,0.78 z"
       id="M08226"
       style="fill:#ffff80;fill-opacity:1;stroke:#000000;stroke-width:1.72287;stroke-dasharray:none;stroke-opacity:1" />
    <path
       d="m 532.85,375.35 -16.08,-5.03 -7.9,2.4 -4.4,-2.01 -5.72,3.95 1.71,8.99 -7.55,2.55 -5.01,5.67 -7.09,-9.48 -7.69,-17.01 -3.5,-5.6 -17.31,-13.49 -12.37,-5.09 -4.32,2.82 -2.59,8.68 -10.54,-0.23 -2.16,9.91 -4.62,-0.36 -7.29,3.81 -8.49,-7.46 -2.08,4.49 -6.44,1.78 -4.68,-10.37 -0.54,-11.61 3.15,-5.63 -5.35,-7.07 2.2,-4.05 -2.48,-14.63 3.97,-12.73 -0.51,-9.91 -9.7,-20.35 5.79,-1.66 -2.49,-7.73 1.26,-4.61 -8.01,-9.76 1.45,-6.74 -7.58,-14.64 8.94,-11.26 7.43,2.11 1.74,-3.85 h 14.56 l 2.23,-3.83 7.75,-1.19 6.79,-3.92 7.77,2.54 6.81,-3 2.29,-8.24 7.02,1.01 4.54,11.56 8.37,2.06 4.81,5.6 4.64,-0.89 10.58,9.59 12.26,3.91 4.73,-2.42 3.58,2.8 7.93,-0.76 0.9,-4.14 7.32,3.28 0.53,-8.16 4.54,-5.96 5.32,-1.07 1.42,8.12 4.98,1.53 -1.66,10.31 -4.61,4.21 6.71,7.31 -0.43,5.39 -4.27,5.48 -11.25,6.22 -3.36,-0.09 -5.5,6.95 -1.61,6.35 6.45,4.41 0.6,4.33 6.97,6.16 -0.07,6.86 -3,1.86 -2.18,10.25 5.14,14.43 3.81,4.02 -5.77,3.05 5.13,6.6 3.24,13.91 0.02,7.83 3.35,8.37 6.16,3.6 z"
       id="M08225"
       style="fill:#ffff80;fill-opacity:1;stroke:#000000;stroke-width:1.72287;stroke-dasharray:none;stroke-opacity:1" />
    <path
       d="m 196.3,830.48 4.95,7.25 12.81,4.63 4.15,4.03 11.58,3.94 -2.14,3.92 1.77,5.74 -2.3,9.16 -8.8,4.74 -5.63,14.45 -6.49,-4.46 -5.74,-6.72 -8.27,-3.43 -9.6,-8 -8.88,-3.78 -4.81,-8.69 4.4,-9.58 -2.76,-5.41 0.92,-5.66 4.3,-3.16 10.53,1.02 4.78,2.36 z"
       id="M08224"
       style="fill:#ffff80;fill-opacity:1;stroke:#000000;stroke-width:1.72287;stroke-dasharray:none;stroke-opacity:1" />
    <path
       d="m 560.77,833.22 8.59,-4.86 0.56,-4.71 -1.79,-14.88 12.01,0.3 0.79,4.28 6.41,-1.14 4.05,-6.36 10.38,3.75 12.02,11.32 5.47,7.03 -4.52,2.67 6.76,13.38 10.03,3.63 7.14,7.06 7.27,7.33 -2.4,4.04 -2.61,9.39 -2.88,0.81 -3.74,-0.14 -11.01,-6.36 -3.78,10.29 -2.97,2.43 -7.32,-6.48 -9.21,-5.72 -13.72,-6.76 -7.19,-7.78 -10.8,-9.26 -8.76,0.66 3.1,-5.78 z"
       id="M08223"
       style="fill:#ffff80;fill-opacity:1;stroke:#000000;stroke-width:1.72287;stroke-dasharray:none;stroke-opacity:1" />
    <path
       d="m 602.43,758.3 18.54,-7.26 1.3,-5.37 4.69,-2.62 10.27,-1.78 13.91,34 18.38,42.47 8.59,16.7 9.87,7.18 11.1,22.67 -2.17,2.42 -0.19,0.09 -2.43,1.25 -23.63,3.85 -2.74,-0.3 -1.56,0.79 -16.65,-1.78 -6.17,-4.55 2.4,-4.04 -7.27,-7.33 0.24,-9.75 -3.24,-4.56 -8.1,-5.4 5.42,-9.15 -2.95,-3.78 -5.8,-16.6 -7.78,-2.91 -0.62,-9.01 -5.34,-7.21 1.95,-8.22 -3.65,-3.17 -0.58,-9.4 -6.92,-4.15 z"
       id="M08222"
       style="fill:#ffff80;fill-opacity:1;stroke:#000000;stroke-width:1.72287;stroke-dasharray:none;stroke-opacity:1" />
    <path
       d="m 620.39,523.79 -6.84,-6.66 -9.19,-4.87 -5.61,-6.74 -7.83,-4.43 -12.51,-2.77 -7.74,-4.56 -9.33,-9.25 -5.76,6.75 -5.63,-13.23 2.7,-6.5 -3.43,-2.03 0.25,-6.39 7.47,-4.81 4.63,-6.71 6.32,0.87 -0.95,-5.72 6.51,-1.11 -2.57,-8.66 1.84,-10.41 8.13,-2.7 0.33,-8.43 8.65,3.43 1.67,10.02 4.7,-0.12 1.84,7.53 12.17,3.75 9.91,0.89 14.94,7.69 1.38,-2.35 5.55,0.09 0.01,4.94 -6.42,2.74 0.57,11.09 3.66,13.98 8.2,6.75 0.29,3.27 -4.3,15.01 -7.76,5.24 -1.94,6.42 -8.74,8.3 z"
       id="M08221"
       style="fill:#ffff80;fill-opacity:1;stroke:#000000;stroke-width:1.72287;stroke-dasharray:none;stroke-opacity:1" />
    <path
       d="m 277.21,825.76 -4.69,-12.8 -11.63,-12.73 -9.96,3.84 -3.8,-3.19 -0.08,-6.62 3.24,-9.89 -5.01,-8.1 -3.27,1.69 -7.56,-5.43 -7.51,-11.68 -6.99,-3.02 2.06,-7.08 -7.13,-16.41 6.11,-4.06 -5.76,-10.65 2.21,-5.28 0.05,-8.04 -4.38,-4.39 1.54,-6.36 3.74,-5.86 2.71,-24.67 11.87,-6.63 -3.58,-6.77 2.8,-5.98 8.89,-4.61 9.2,-3.76 -0.54,-6.56 7.21,-1.03 -4.46,-13.11 5.14,-5.53 -0.14,7.68 15.42,-2.06 6.55,1.17 4.81,-3.57 7.76,-0.4 8.52,12.12 -0.63,4.71 4.64,7.28 1.47,8.9 -1.81,2.81 4.7,6.17 1.72,5.83 -5.02,6.73 5.78,5.55 2.8,10.45 -5.17,5.68 1.73,9.51 -6.88,-5.14 -0.31,11.88 8,8 7.97,0.21 5.94,4.2 -1.59,9.07 -3.9,5.35 3.72,2.35 -0.15,12.5 10.71,5.69 -5.86,4.13 -13.48,14.91 -3.68,-0.25 4.19,14.97 -1.09,5.75 1.78,12.93 -5.65,0.28 -2.88,4.17 5.6,10.82 -6.29,2.18 -3.28,7.13 -8.57,-2.22 -2.31,2.36 v 0.09 l -1.15,10.53 3.7,4.79 0.88,5.92 -9.96,-2.97 -7.72,-10.71 1.1,-4.45 z"
       id="M08220"
       style="fill:#ffff80;fill-opacity:1;stroke:#000000;stroke-width:1.72287;stroke-dasharray:none;stroke-opacity:1" />
    <path
       d="m 392.33,864.29 -0.54,-2.27 -9.7,-7.09 -9.84,0.51 -7.57,-6.05 -14.18,-6.85 -1.08,7.32 -4.58,-1.6 -2.35,9.08 -6,8.74 -4.07,-9.26 -7.75,-4.34 -3.33,6.24 -3.87,-0.65 -12.43,-6.69 -1.11,-5.43 -3.83,0.94 -1.5,-0.71 -0.01,-0.51 -1.3,-1.43 -0.24,-1.53 -1.12,-1.18 -0.87,-13.01 8.57,2.22 3.28,-7.13 6.29,-2.18 -5.6,-10.82 2.88,-4.17 5.65,-0.28 -1.78,-12.93 1.09,-5.75 9.86,11.26 11.8,11.31 2.76,7.06 -0.32,5.85 6.88,6.59 13.39,8.45 6.06,-12.59 7.3,6.29 4.84,-4.06 10.46,-4.8 5.01,6.26 2.88,1.37 7.72,29.04 z"
       id="M08219"
       style="fill:#ffff80;fill-opacity:1;stroke:#000000;stroke-width:1.72287;stroke-dasharray:none;stroke-opacity:1" />
    <path
       d="m 229.79,850.33 6.1,10.31 10.86,8.98 8.1,-5.25 6.44,0.4 5.48,-5.03 6.05,-1.29 8.06,2.38 5.68,-3.44 5.71,2.5 2.54,-4.19 6.11,5.49 6.35,4.61 -3.11,13.76 16.53,14.38 -5.03,8.43 -11.88,9.35 -0.17,9.57 -16.8,-8.41 -10.08,-2.8 -9.51,6.3 -5.33,-3.62 -3.78,-6.11 -9.35,-3.32 -11.33,-7.36 -8.44,-8.04 -16.3,0.41 5.63,-14.45 8.8,-4.74 2.3,-9.16 -1.77,-5.74 z"
       id="M08217"
       style="fill:#ffff80;fill-opacity:1;stroke:#000000;stroke-width:1.72287;stroke-dasharray:none;stroke-opacity:1" />
    <path
       d="m 452.32,584.4 -18.5,-8.81 -2.49,-4.04 -5.77,6.69 -7.02,3.59 -13.84,-1.41 -3.97,2.14 -6.36,-3.47 -7.86,-10.4 -7.32,-0.06 -8.83,-9.99 -1.04,-7.28 -6.99,-10.9 -7.09,-4.19 -6.37,3.81 -8.46,-2.94 1.66,-3.65 -6.72,-10.22 -6.12,0.27 -0.78,-7.37 3.47,-6.74 0.56,-6.43 6.84,-0.52 0.62,-12.45 6.69,-8.15 -3.04,-10.89 5.06,-5.34 7.42,-13.85 -0.84,-10.34 12.09,-2.05 2.34,4.16 6.62,-7.55 3.57,6.65 11,0.47 2.78,-3.26 19.92,-2.08 3.22,-7.8 11.14,1.33 3.94,4.86 3.8,-1.41 12.68,9.83 2.59,5.82 4.61,1.45 4.8,17.64 -6.38,4.94 -4.81,-1.67 -9.64,1.98 -1.6,8.68 9.7,7.75 3.88,9.16 -5.94,16.92 0.44,3.7 7.28,13.61 8.49,5.76 8.83,3.58 -8.71,5.19 1.67,5.54 -6.75,19.36 -4.79,7.04 z"
       id="M08216"
       style="fill:#ffff80;fill-opacity:1;stroke:#000000;stroke-width:1.72287;stroke-dasharray:none;stroke-opacity:1" />
    <path
       d="m 721.23,170.25 -6.06,-2.87 -9.51,1.36 -5.06,-2.46 -7.77,3 -6.45,-5.68 -4.83,-1.03 -2.75,-5.97 -7.56,-6.16 -6.38,-0.55 -1.92,-8.16 10.05,-3 0.01,-3.79 5.05,-6.24 6.49,-3.67 -3.83,-5.68 -11.62,-3.03 -2.98,-7.03 -7.81,-9.48 -4.57,-3 -7.76,-9.73 -7.47,-1.66 -5.75,-7.21 -4.38,-12.98 -4.5,-1.99 0.98,-5.96 -9.59,-14.05 0.96,-7.13 -10.42,-10.37 3.37,-12.68 -2.13,-4.78 4.99,-4.66 8.21,-2.61 5.01,9.34 -0.63,6.74 3.5,1.22 11.49,17.71 15.55,5.99 6.96,-2.96 25.04,8.94 12.76,6.13 8.21,9.21 18.17,-2.36 3.69,3.73 6.68,1.46 7.77,6.89 7.15,-5.03 14.42,11.98 -0.67,9.25 3.61,2.87 2.31,7.06 -6,4.02 -3.94,-2.75 -12.45,5.84 -3.29,3.99 -6.38,14.9 -8.74,17.74 z"
       id="M08215"
       style="fill:#ffff80;fill-opacity:1;stroke:#000000;stroke-width:1.72287;stroke-dasharray:none;stroke-opacity:1" />
    <path
       d="m 709.76,218.43 -12.69,-5.5 -5.58,2.13 -8.14,-2.98 -5.38,0.55 -4.81,-5.37 -7.98,-0.2 -11.29,4.53 -10.18,-8.11 -6.83,2.99 -2.31,5.61 -5.77,-2.85 -15.16,-0.83 -4.47,-3.6 -10.87,-4.35 4.99,-17.92 -4.74,-9.38 1.72,-14.17 -8.04,-1.13 -5.8,-14 4.33,-4.82 -2.82,-10.59 0.71,-7.05 9.69,-18.31 3.79,-2.95 -0.35,-9.31 -2.66,-1.37 9.57,-14.91 -1.64,-2.92 8.97,-3.18 3.83,-5.4 4.02,0.2 4.5,1.99 4.38,12.98 5.75,7.21 7.47,1.66 7.76,9.73 4.57,3 7.81,9.48 2.98,7.03 11.62,3.03 3.83,5.68 -6.49,3.67 -5.05,6.24 -0.01,3.79 -10.05,3 1.92,8.16 6.38,0.55 7.56,6.16 2.75,5.97 4.83,1.03 6.45,5.68 7.77,-3 5.06,2.46 9.51,-1.36 6.06,2.87 -3.43,18.76 0.74,8.63 -4.6,6.87 z"
       id="M08214"
       style="fill:#ffff80;fill-opacity:1;stroke:#000000;stroke-width:1.72287;stroke-dasharray:none;stroke-opacity:1" />
    <path
       d="m 598.3,200.45 -9.51,3.8 1.26,6.79 -3.65,3.41 4.2,13.67 4.35,2.32 -0.08,9.57 -6.12,1.38 0.11,9.81 -6.93,2.99 -9.84,1.25 14.68,25.81 19.18,-1.76 7.08,-2.35 4.92,2.96 3.5,11.9 -7.15,18.09 3.65,10.3 -0.64,7.44 6.92,10.13 -1.67,8.6 4.68,6.03 3.32,9.59 -1.08,3.36 -11.51,7.41 -6.71,-1.06 0.7,6.01 -6.9,-0.74 -3.29,11.31 -4.65,-7.32 -7.26,-0.78 -4.83,3.52 -4.03,-2.74 -9.48,-0.2 -7.92,8.03 -3.41,-2.86 -6.99,3.2 -4.93,-4.43 -8.8,-4.04 -6.62,-5.5 -1.31,-8.97 -6.16,-3.6 -3.35,-8.37 -0.02,-7.83 -3.24,-13.91 -5.13,-6.6 5.77,-3.05 -3.81,-4.02 -5.14,-14.43 2.18,-10.25 3,-1.86 0.07,-6.86 -6.97,-6.16 -0.6,-4.33 -6.45,-4.41 1.61,-6.35 5.5,-6.95 3.36,0.09 11.25,-6.22 4.27,-5.48 0.43,-5.39 -6.71,-7.31 4.61,-4.21 1.66,-10.31 -4.98,-1.53 -1.42,-8.12 -3.93,-6.8 -4.82,-0.61 -4.22,-9.89 -3.64,-0.63 -2.51,-6.64 8.18,-2.33 5.98,1.14 3.94,4.02 5.75,-2.73 0.78,-6.49 -2.37,-6.05 9.16,-5.31 6.13,-5.6 -4.54,-23.03 0.4,-4.68 11.31,-7.08 6.23,-8.2 -0.18,-8.07 9.66,-0.27 9.47,-6.48 1.64,-8.27 6.5,-3.31 -0.26,-7.37 3.27,-1.4 3.52,-7.41 5.17,0.55 10.27,-4.5 4.89,0.14 1.64,2.92 -9.57,14.91 2.66,1.37 0.35,9.31 -3.79,2.95 -9.69,18.31 -0.71,7.05 2.82,10.59 -4.33,4.82 5.8,14 8.04,1.13 -1.72,14.17 4.74,9.38 z"
       id="M08212"
       style="fill:#ffff80;fill-opacity:1;stroke:#000000;stroke-width:1.72287;stroke-dasharray:none;stroke-opacity:1" />
    <path
       d="m 234.45,772.53 1.71,10.12 -26.1,18.44 7.24,9.39 -6.18,-0.34 -6.81,3.09 -6.67,-1.42 0.93,15.91 -2.27,2.76 -5.23,2.35 -4.78,-2.36 -10.53,-1.02 -4.3,3.16 -0.92,5.66 -7.15,-1.77 -0.91,-17.23 -4.07,-16.64 2.21,-9.84 15.78,-5.43 3.3,-5.91 3.81,-0.32 3.76,-9.94 -0.19,-5.26 -7.23,-3.01 -8.33,-10.6 2.14,-5.1 0.12,-11.24 -5.14,-1.36 -17.04,-18.17 -7.62,-5.79 0.06,-2.59 2.44,-4.09 -3.46,-4.99 5.36,-4.51 10.11,3.46 1.31,-10.97 2.38,10.26 10.54,-0.6 1.81,-2.55 8.47,-0.73 -0.04,-5.17 12.69,2.18 13.54,5.17 5.46,0.03 -1.54,6.36 4.38,4.39 -0.05,8.04 -2.21,5.28 5.76,10.65 -6.11,4.06 7.13,16.41 -2.06,7.08 6.99,3.02 z"
       id="M08211"
       style="fill:#ffff80;fill-opacity:1;stroke:#000000;stroke-width:1.72287;stroke-dasharray:none;stroke-opacity:1" />
    <path
       d="m 150.86,614.66 6.64,-0.95 8.71,-10.1 7.99,-0.71 2.29,11.21 5.6,2.63 4.96,-1.94 6.62,6.99 1.58,-6.25 7.8,-3.44 8.15,3.69 3.66,-0.79 3.57,8.16 -0.6,10.81 8.49,3.57 4.47,-3 2.95,7.1 7.34,-0.6 -8.89,4.61 -2.8,5.98 3.58,6.77 -11.87,6.63 -2.71,24.67 -3.74,5.86 -5.46,-0.03 -13.54,-5.17 -12.69,-2.18 0.04,5.17 -8.47,0.73 -1.81,2.55 -10.54,0.6 -2.38,-10.26 0.9,-10.06 -3.84,-2.8 6.41,-7.62 6.58,5.79 -3.44,2.53 -1,7.28 9.66,-1.81 2.42,-12.32 -6.75,-6.04 1.94,-12.95 -1.53,-4.39 -8.32,-0.03 -5.26,-11 1.05,-8.73 z"
       id="M08210"
       style="fill:#ffff80;fill-opacity:1;stroke:#000000;stroke-width:1.72287;stroke-dasharray:none;stroke-opacity:1" />
    <path
       d="m 115.35,629.23 1.47,-5.58 6,4.15 2.73,-3.97 11.23,6.33 3.89,-2.16 -2.16,-7.31 5.91,-0.08 6.58,-9.53 -0.14,3.58 7.76,10.16 -1.05,8.73 5.26,11 8.32,0.03 1.53,4.39 -1.94,12.95 6.75,6.04 -2.42,12.32 -9.66,1.81 1,-7.28 3.44,-2.53 -6.58,-5.79 -6.41,7.62 3.84,2.8 -0.9,10.06 -1.31,10.97 -10.11,-3.46 -5.36,4.51 3.46,4.99 -2.44,4.09 -8.26,-9.72 -1.84,-4.88 -7.4,-6.36 -9.57,-1.33 0.27,-3.82 -4.08,-8.75 3.86,-14.98 6.61,-10.65 -1.99,-5.61 -6.47,-6.61 z"
       id="M08521"
       style="fill:#ffff80;fill-opacity:1;stroke:#000000;stroke-width:1.72287;stroke-dasharray:none;stroke-opacity:1" />
    <path
       d="m 501.72,623.69 -8.36,-7.55 -5.24,-6.93 -7.23,-2.65 1.38,-8.97 -1.36,-5.17 -19.13,-9.92 -4.91,-1.5 -4.55,3.4 -0.32,-3.34 4.79,-7.04 6.75,-19.36 -1.67,-5.54 8.71,-5.19 14.77,0.56 -3.57,-11.46 6.11,-5.85 10.46,-5.28 6.3,6.84 4.28,13.19 11.99,-4.37 19.98,4.68 8.67,-6.25 6.42,2.09 2.83,12.26 6.52,4.21 9.41,-4.88 7.09,1.06 1.38,2.45 -6.26,14.25 -11.01,-0.35 -4.97,3.33 -10.42,-0.19 -9.16,3 -6.47,8.18 10.89,1.15 12.2,-1.42 -1.81,16.74 -11.57,9.82 -14.39,2.84 -6.02,5.51 -4.23,-8.57 -6.06,9.14 -8.03,-3.18 z"
       id="M08302"
       style="fill:#ffff80;fill-opacity:1;stroke:#000000;stroke-width:1.72287;stroke-dasharray:none;stroke-opacity:1" />
    <path
       d="m 49.96,703.77 5.03,-7.97 9.56,1.31 0.38,-9.53 -3.05,-7.26 17.87,-1.93 2.89,3.94 -0.14,10.67 5.25,1.65 10.65,-3.83 5.72,8.56 4.39,3.64 -1.56,11.2 0.92,13.81 -3.34,7.11 1.4,10.24 6.29,2.9 -4.16,9.1 -8.7,1.15 -7.29,4.04 -8.16,-11.28 -3.13,-14.03 -4.37,-8.11 -7.35,-6.6 -8.56,-6.16 z"
       id="M08546"
       style="fill:#ffff80;fill-opacity:1;stroke:#000000;stroke-width:1.72287;stroke-dasharray:none;stroke-opacity:1" />
    <path
       d="m 16.24,695.37 7.18,3.1 17.83,0.3 8.71,5 10.54,12.62 8.56,6.16 -6.07,4.73 -4.21,13.92 -4.21,1.55 -13.09,-5.68 -10.33,0.48 -2.39,-3.09 -1.32,-19.1 -8.82,-11.72 z"
       id="M08542"
       style="fill:#ffff80;fill-opacity:1;stroke:#000000;stroke-width:1.72287;stroke-dasharray:none;stroke-opacity:1" />
    <path
       d="m 521.27,208.92 -5.32,1.07 -4.54,5.96 -0.53,8.16 -7.32,-3.28 -0.9,4.14 -7.93,0.76 -3.58,-2.8 -4.73,2.42 -12.26,-3.91 -10.58,-9.59 -4.64,0.89 -4.81,-5.6 -8.37,-2.06 -4.54,-11.56 -7.02,-1.01 -2.29,8.24 -6.81,3 -7.77,-2.54 -3.38,-4.57 0.29,-6.36 -2.99,-7.54 -9.79,-6.85 -4.77,-5.32 -5,-10.27 4.21,-6.35 -5.09,-5.95 0.1,-7.87 8.7,-6.37 0.41,-7.29 -2.29,-10.14 2,-1.56 -0.64,-13.67 -2.9,-7.68 -4.47,-3.46 1.16,-5.33 -3.54,-3.75 3.56,-17.79 -2.64,-10.83 0.97,-4.72 -3.84,-15.28 -0.23,-10.74 3.51,-7.23 8.44,-2.96 5,2.57 8.96,-4.51 11.54,7.2 3.45,6.76 9.74,9.84 1.5,12.45 15.56,7.17 12.81,0.6 4.62,12.19 -2.29,2.67 1.37,10.22 2.98,3.82 1.59,11.09 6.84,3.23 10.92,2.41 7.25,-0.64 12.01,12.76 5.9,-2.74 9.54,15.07 5.94,5.22 1.22,4.58 -0.4,4.68 4.54,23.03 -6.13,5.6 -9.16,5.31 2.37,6.05 -0.78,6.49 -5.75,2.73 -3.94,-4.02 -5.98,-1.14 -8.18,2.33 2.51,6.64 3.64,0.63 4.22,9.89 4.82,0.61 z"
       id="M08364"
       style="fill:#ffff80;fill-opacity:1;stroke:#000000;stroke-width:1.72287;stroke-dasharray:none;stroke-opacity:1" />
    <path
       d="m 303.78,911.72 4.73,2.03 18.6,0.43 2.03,-6.57 14.72,1.66 7.37,10.74 3.72,-1.98 10.86,0.38 -2.59,10.41 -10.01,2.46 -8.6,6.25 -20.6,7.7 -7.08,-2.56 -8.42,-11.23 -4.9,-10.15 z"
       id="M08564"
       style="fill:#ffff80;fill-opacity:1;stroke:#000000;stroke-width:1.72287;stroke-dasharray:none;stroke-opacity:1" />
    <path
       d="m 501.61,417.41 -3.79,2.4 -8.27,0.59 -1.65,-3.93 -9.11,-1.99 3.23,11.35 6.34,3.12 -0.69,7.72 -7.66,1.35 -6.24,8.83 -2.79,-4.89 -17.8,0.23 -4.85,2.42 -12.68,-9.83 -3.8,1.41 -3.94,-4.86 -11.14,-1.33 -3.22,7.8 -19.92,2.08 -2.78,3.26 -11,-0.47 -3.57,-6.65 -6.62,7.55 -2.34,-4.16 -12.09,2.05 -0.48,-4.57 3.33,-7.14 -2.28,-6.82 9.47,-21.04 4.68,-2.31 4.25,-7.9 0.74,-10.37 7.49,-0.15 5.11,-3.87 -0.91,-6.35 8.66,-2.2 -3.88,-4.1 6.44,-1.78 2.08,-4.49 8.49,7.46 7.29,-3.81 4.62,0.36 2.16,-9.91 10.54,0.23 2.59,-8.68 4.32,-2.82 12.37,5.09 17.31,13.49 3.5,5.6 7.69,17.01 7.09,9.48 7.68,4.92 2.72,4.56 -1.17,12.13 z"
       id="M08310"
       style="fill:#ffff80;fill-opacity:1;stroke:#000000;stroke-width:1.72287;stroke-dasharray:none;stroke-opacity:1" />
    <path
       d="m 601.6,592.99 -1.77,-3.9 -13.07,-1.47 -7.89,-4.15 -1.01,-2.86 4.28,-4.88 2.26,-18.92 -1.18,-3.63 -1.38,-2.45 9.32,-11.86 10.14,4.93 1.39,-5.83 9.65,-6.15 4.44,-6.83 3.61,-1.2 5.17,0.31 -1.06,14.75 -4.07,6.55 -6.53,0.62 -3.1,6.87 -8.52,9.4 -1.42,5.47 z"
       id="M08309"
       style="fill:#ffff80;fill-opacity:1;stroke:#000000;stroke-width:1.72287;stroke-dasharray:none;stroke-opacity:1" />
    <path
       d="m 606.24,388.77 7.45,-1.35 9.31,1.55 0.39,3.99 8.94,6.36 6.73,0.28 -2.01,5.72 -1.81,19.68 1.32,7.25 11.75,1.8 -0.09,8.79 -11.84,-0.09 0.06,3.52 -1.38,2.35 -14.94,-7.69 -9.91,-0.89 -12.17,-3.75 -1.84,-7.53 -4.7,0.12 -1.67,-10.02 -2.1,-5.41 5.84,-9.74 1.39,-7.24 z"
       id="M08341"
       style="fill:#ffff80;fill-opacity:1;stroke:#000000;stroke-width:1.72287;stroke-dasharray:none;stroke-opacity:1" />
  </g>
</svg>
