<?xml version="1.0" encoding="UTF-8" standalone="no"?>
<svg
   version="1.2"
   width="689.99994"
   height="600"
   viewBox="0 0 689.99994 600"
   stroke-linecap="round"
   stroke-linejoin="round"
   id="svg7833"
   sodipodi:docname="ko.svg"
   inkscape:version="1.2 (dc2aedaf03, 2022-05-15)"
   xmlns:inkscape="http://www.inkscape.org/namespaces/inkscape"
   xmlns:sodipodi="http://sodipodi.sourceforge.net/DTD/sodipodi-0.dtd"
   xmlns="http://www.w3.org/2000/svg"
   xmlns:svg="http://www.w3.org/2000/svg">
  <defs
     id="defs7837" />
  <sodipodi:namedview
     id="namedview7835"
     pagecolor="#505050"
     bordercolor="#eeeeee"
     borderopacity="1"
     inkscape:showpageshadow="0"
     inkscape:pageopacity="0"
     inkscape:pagecheckerboard="0"
     inkscape:deskcolor="#505050"
     showgrid="false"
     inkscape:zoom="1.3"
     inkscape:cx="344.61538"
     inkscape:cy="266.92308"
     inkscape:window-width="1920"
     inkscape:window-height="1009"
     inkscape:window-x="-8"
     inkscape:window-y="-8"
     inkscape:window-maximized="1"
     inkscape:current-layer="svg7833" />
  <g
     id="ko"
     transform="matrix(0.86340852,0,0,0.86340852,-0.36344919,32.343365)"
     style="fill:#ffff80;fill-opacity:1;stroke:#000000;stroke-width:1.1582;stroke-dasharray:none;stroke-opacity:1">
    <path
       d="m 441.31,29.09 -1.72,1.69 -1.12,8.13 1.73,4.82 3.98,3.32 -3.7,3.48 -1.58,3.65 -10.27,5.94 -10.16,2.68 -4.99,0.31 -2.71,-1.62 -4.88,3.69 -5.12,0.24 -2.26,2.2 -8.99,0.79 -1.64,-9.66 -5.03,-3.63 2.62,-4.86 -4.21,-4.54 -6.1,-2.89 -4.02,-5.87 3.06,-3.44 5.38,-1.85 4.46,-5.03 5.79,2.65 9.92,2.58 4.01,-6.22 4.91,-1.53 5.62,-0.06 3.32,2.28 6.82,0.46 2.45,-1.37 12.94,1.93 z"
       id="M39364"
       style="fill:#ffff80;fill-opacity:1;stroke:#000000;stroke-width:1.1582;stroke-dasharray:none;stroke-opacity:1" />
    <path
       d="m 389.52,68.41 8.99,-0.79 2.26,-2.2 5.12,-0.24 4.88,-3.69 2.71,1.62 4.99,-0.31 10.16,-2.68 10.27,-5.94 1.58,-3.65 3.7,-3.48 -3.98,-3.32 -1.73,-4.82 1.12,-8.13 1.72,-1.69 5.64,0.25 3.69,-3.49 3.32,5.38 3.17,1.38 4.48,8.64 0.6,6.61 5.02,6.73 1.43,4.46 -1.11,7.08 7.15,5.71 2.56,0.06 3.32,5.54 -1.76,5.75 5.09,7.88 -0.24,3.33 -2.1,3.13 -8.19,3.76 2.65,5.57 -1.11,8.38 -5.75,1.49 -4.3,-0.92 -2.11,-6.83 -8.79,-2.09 -4.26,6.35 -14.17,-0.73 -3.83,5.02 -6.68,-5.58 -1.6,-6.62 -4.62,-4.75 -9.26,4.33 -7.86,2.62 2.05,-7.22 -1.89,-3 -5.97,-1.62 -0.99,-5.58 -5.1,-2.77 0.07,-3.83 -4.02,-4.01 1.54,-4.2 -1.7,-2.61 z"
       id="M39363"
       style="fill:#ffff80;fill-opacity:1;stroke:#000000;stroke-width:1.1582;stroke-dasharray:none;stroke-opacity:1" />
    <path
       d="m 328.21,147.28 -6.17,3.62 0.45,7.88 -2.4,7.64 -6,-2.49 -0.63,3.69 -6.03,1.73 1.94,4.34 -4.45,9.92 -5.64,3.11 -1.65,2.98 -4.42,3 1.5,7.31 -2.37,10.39 5.19,3.28 0.55,6.07 -3.59,3.14 -6.02,2.24 -5.11,0.22 -6.18,3.1 -4.1,3.86 -5.12,-4.54 -7.55,-0.47 -2.23,-6.91 -3.13,-1.7 -1.02,-5.63 -6.16,2.7 -4.51,-2.48 -8.35,-0.88 -0.86,-5.03 3.2,-2.89 2.39,-4.77 3.54,-3.49 1.62,-7.65 9.29,-6.46 1.51,-3.49 -1.04,-4.58 0.9,-3.86 -6.81,-7.23 1.08,-5.12 3.59,-5.99 5.49,-2.51 4.23,-3.97 -5.42,-7.28 3.41,-14.75 6.89,-3.78 6.96,0.61 4.32,-1.84 2.17,-7.3 -0.99,-7.66 2.67,-5.11 8.43,-3.33 -2.09,-5.81 9.37,-8.33 2.61,1.59 -0.38,4.03 3.43,6.89 11.09,6.93 3.19,0.73 2.33,3.63 6.07,1.71 1.67,3.84 -1.76,7.32 3.4,6.7 0.54,5.44 -5.17,3.67 0.54,9.79 z"
       id="M39387"
       style="fill:#ffff80;fill-opacity:1;stroke:#000000;stroke-width:1.1582;stroke-dasharray:none;stroke-opacity:1" />
    <path
       d="m 371.14,36.96 4.02,5.87 6.1,2.89 4.21,4.54 -2.62,4.86 5.03,3.63 1.64,9.66 -3.84,4.28 1.7,2.61 -1.54,4.2 4.02,4.01 -0.07,3.83 5.1,2.77 0.99,5.58 5.97,1.62 1.89,3 -2.05,7.22 7.86,-2.62 9.26,-4.33 4.62,4.75 1.6,6.62 -5.66,0.92 -3.87,2.95 -6.56,2.3 -5.27,5.17 -2.46,5.68 1.74,10.63 4.5,0.48 2.83,5.51 -2.95,1.75 -3.08,6.74 4.9,2.66 2.23,5.71 6.66,0.18 5.75,4.5 2.57,-2.53 4.66,-0.63 4.99,5.53 -2.91,4.63 -1.32,8.08 -3.88,3.09 0.89,4.69 -3.92,4.89 -5.47,2.28 -2.82,-6.7 -15.88,2.02 2.42,-7.23 0.73,-5.45 -15.78,-12.07 -0.05,-6 -3.83,1.11 0.49,7.33 -3.82,1.26 -2.93,-3.14 -3.91,3.52 -4.02,-6.54 -4.69,-1.59 -1.07,-2.63 -3.01,-6.86 -6.34,3.27 -4.96,-4.99 1.2,-3.57 -6.5,-5.76 -2.76,-0.29 -6.12,2.83 -3.31,3.13 -4.23,-1.53 -1.79,-4.23 -0.54,-9.79 5.17,-3.67 -0.54,-5.44 -3.4,-6.7 1.76,-7.32 -1.67,-3.84 -6.07,-1.71 -2.33,-3.63 -3.19,-0.73 -11.09,-6.93 -3.43,-6.89 0.38,-4.03 -2.61,-1.59 -1.48,-9.88 5.73,-3.81 5.61,-5.58 -0.6,-1.75 3.55,-6.4 0.99,-5.35 4.8,-0.5 7.07,7.53 7.47,-1.21 8.87,-5.86 2.31,-5.77 -0.74,-3.3 3.7,-7.65 6.58,-3.25 4.17,1.63 7.22,6.75 z"
       id="M39386"
       style="fill:#ffff80;fill-opacity:1;stroke:#000000;stroke-width:1.1582;stroke-dasharray:none;stroke-opacity:1" />
    <path
       d="m 610.68,41.62 -5.48,10.01 -3.17,1.35 0.3,4.87 -5.18,0.75 -4.84,5.9 0.27,3.6 -3.76,0.71 -3.34,5.32 -2.35,-2.68 -5.15,3.47 -6.3,9.61 -3.65,-0.49 -2.1,-4.24 -7.27,0.58 -7.89,5.51 -0.44,5.15 -19.51,14.87 -2.36,-0.35 -4.93,-6.76 -3.92,-1.97 -11.33,-10.72 -0.91,-5.22 2.3,-4.44 -1.99,-2.45 2.19,-6.31 -0.76,-4.26 -4.39,-5.86 -1.88,-6.17 4.26,-6.54 -1.53,-7.47 -3.25,-1.32 -1.18,-3.24 -4.37,-3.41 -5.95,0.09 -5.91,-4.28 -1.87,-3.7 -0.83,-6.25 1.31,-6.18 5.77,-6.41 6.51,-0.49 7.1,4.59 3.48,-4.3 3.86,-1.49 7.58,0.94 0.67,5.74 6.47,6.22 7.51,1.2 3.01,3.41 2.57,-0.99 5.2,1.26 4.15,-0.95 4.91,1.74 3.53,5.8 3.5,0.18 8.55,-3.09 4.79,0.77 0.82,2.42 12.78,-0.57 4.69,-3.91 4.47,-0.22 2.28,3.71 4.21,1.86 1.46,3.52 4.16,4.58 z"
       id="M39344"
       style="fill:#ffff80;fill-opacity:1;stroke:#000000;stroke-width:1.1582;stroke-dasharray:none;stroke-opacity:1" />
    <path
       d="m 483.67,94.4 0.24,-3.33 -5.09,-7.88 1.76,-5.75 -3.32,-5.54 -2.56,-0.06 -7.15,-5.71 1.11,-7.08 -1.43,-4.46 -5.02,-6.73 -0.6,-6.61 -4.48,-8.64 -3.17,-1.38 -3.32,-5.38 0.77,-6.53 3.69,0.49 3.61,-3.34 0.01,-4.45 4.31,-2.1 -0.14,-2.84 6.13,-5.53 3.15,-0.09 2.22,3.59 3.91,2.67 5.22,1.38 -1.31,6.18 0.83,6.25 1.87,3.7 5.91,4.28 5.95,-0.09 4.37,3.41 1.18,3.24 3.25,1.32 1.53,7.47 -4.26,6.54 1.88,6.17 4.39,5.86 0.76,4.26 -2.19,6.31 1.99,2.45 -2.3,4.44 0.91,5.22 -4.62,3.43 -10.81,6.23 -3.35,0.64 z"
       id="M39341"
       style="fill:#ffff80;fill-opacity:1;stroke:#000000;stroke-width:1.1582;stroke-dasharray:none;stroke-opacity:1" />
    <path
       d="m 587.28,194.4 -17.61,-0.88 -4.3,0.64 3.65,-4.71 1.55,-5.18 5.34,-7.79 3.41,-0.38 4.95,-3.63 3.07,-5.17 -1.29,-4.13 5.33,-4.58 6.15,3.53 9.24,-8.73 2.29,4.7 1,6.17 -1.49,4.53 -4.09,3.26 -1.46,7.05 0.23,4.22 -2.35,4.2 -6.15,3.64 -4.1,-1.34 z"
       id="M39307"
       style="fill:#ffff80;fill-opacity:1;stroke:#000000;stroke-width:1.1582;stroke-dasharray:none;stroke-opacity:1" />
    <path
       d="m 734.41,143.78 -4.47,10.18 -3.54,1.51 -7.33,-3.39 -6.61,-1.14 -5.33,3.95 0.86,3.33 -1.57,6.7 -3.53,2.04 -0.41,3.45 3.01,5.11 -3.51,2.3 -2.28,7.91 -3.39,2.59 -2.05,-2.34 -10.24,-3.94 -3,-0.28 -3.73,-4.03 2.08,-4.26 -4.19,-7.8 -3.74,1.01 -2.35,-4.66 1.34,-5.02 4.92,-2.33 0.6,-6.25 -4.2,-2.65 6.02,-14.61 7.93,-5.2 4.72,-0.45 -0.35,-2.82 6.85,-6.17 -3.35,-4.34 -4.63,-0.54 -2.24,-3.54 4.77,-6.02 3.62,1.27 14.7,-3.16 11.54,-0.66 9.75,5.35 6.7,-1.27 4.79,2.17 0.3,4.24 -2.85,2.72 2.8,4.82 -1.76,2.05 5.62,4.56 -5.97,3.71 -2.87,3.42 -6.02,2.58 2.04,3.97 z"
       id="M39306"
       style="fill:#ffff80;fill-opacity:1;stroke:#000000;stroke-width:1.1582;stroke-dasharray:none;stroke-opacity:1" />
    <path
       d="m 696.31,188.32 3.39,-2.59 2.28,-7.91 3.51,-2.3 -3.01,-5.11 0.41,-3.45 3.53,-2.04 1.57,-6.7 -0.86,-3.33 5.33,-3.95 6.61,1.14 7.33,3.39 3.54,-1.51 4.47,-10.18 7.17,1.1 -0.85,6.64 3.59,1.48 4.27,6.88 -0.34,2.78 3.32,3.69 0.19,4.16 1.16,4.7 -2.32,7.67 3.5,1.72 0.07,4.45 6.38,6.67 -2.09,3.74 -0.45,4.58 -5.45,-2.67 0.62,4.81 -1.73,2.71 -8.47,1.69 -2.74,2.65 -6.15,1.08 -4.91,4.76 -5.4,-3.32 -2.69,4.53 -5.69,4.3 -1.89,5.76 -4.98,-1.07 -7.65,1.53 -6.77,5.47 -6.36,-0.17 -8.6,-2.53 0.11,-2.72 -5.33,-1.95 2.91,-5.22 1.74,-23.12 5.31,-4.78 2.2,0.49 4.67,-4.57 4.54,-1.12 z"
       id="M39305"
       style="fill:#ffff80;fill-opacity:1;stroke:#000000;stroke-width:1.1582;stroke-dasharray:none;stroke-opacity:1" />
    <path
       d="m 677.29,177.73 3.73,4.03 3,0.28 10.24,3.94 2.05,2.34 -1.01,2.26 -4.54,1.12 -4.67,4.57 -2.2,-0.49 -5.31,4.78 -1.74,23.12 -5.71,1.96 -2.51,9.65 -5.36,0.97 -0.28,3.97 -8.68,-5.73 -6.38,-1.93 -1.19,-1.92 1.78,-5.87 3.65,-6.1 3.59,-0.76 2.25,-4.04 4.01,-17.64 4.77,-3.1 5.48,-10.96 z"
       id="M39304"
       style="fill:#ffff80;fill-opacity:1;stroke:#000000;stroke-width:1.1582;stroke-dasharray:none;stroke-opacity:1" />
    <path
       d="m 676.84,223.68 -2.91,5.22 5.33,1.95 -0.11,2.72 -8.21,9.56 -7.96,-2.9 0.28,-3.97 5.36,-0.97 2.51,-9.65 z"
       id="M39303"
       style="fill:#ffff80;fill-opacity:1;stroke:#000000;stroke-width:1.1582;stroke-dasharray:none;stroke-opacity:1" />
    <path
       d="m 679.15,233.57 8.6,2.53 6.36,0.17 6.77,-5.47 7.65,-1.53 4.98,1.07 -5.56,3.53 -0.01,3.85 -3.71,2.76 -0.16,5.68 -4.8,1.59 -4.32,9.15 -5.89,2.33 -2.16,2.89 -6.06,4.07 1.77,-7.39 -4,-11.45 -7.67,-4.22 z"
       id="M39302"
       style="fill:#ffff80;fill-opacity:1;stroke:#000000;stroke-width:1.1582;stroke-dasharray:none;stroke-opacity:1" />
    <path
       d="m 751.45,208.89 1.73,-2.71 -0.62,-4.81 5.45,2.67 0.45,-4.58 2.09,-3.74 -6.38,-6.67 -0.07,-4.45 -3.5,-1.72 2.32,-7.67 -1.16,-4.7 10.03,-3.53 8.67,7.68 13.79,-1.02 1.64,-3.03 5.91,0.44 7.2,3.09 -1.69,8.47 -2.8,0.07 -3.44,3.5 -0.83,5.03 2.71,0.51 -8.54,9.22 -12.38,20.42 -0.21,6.91 -2.76,4.53 -3.3,-4.59 -0.47,-5.27 -7.75,-5.67 -0.94,-3.92 z"
       id="M39301"
       style="fill:#ffff80;fill-opacity:1;stroke:#000000;stroke-width:1.1582;stroke-dasharray:none;stroke-opacity:1" />
    <path
       d="m 340.4,339.81 -2.89,2.55 2.87,4.05 -7.4,4.46 -1.83,6 0.36,3.68 -8.99,3.05 -2.07,4.51 3.7,8.76 0.56,5.43 -2.5,2.69 -4,-4.11 0.69,-3.01 -6.6,-1.25 -9.32,8.88 -2.9,7.91 -2.62,-1.5 -2.12,-4.45 5.66,-6.97 7.49,-11.69 -2.64,-3.24 -5.57,0.16 -11.26,11 -2.92,-0.4 -3.18,3.17 -4.52,1.6 -1.35,-2.46 -5.6,-0.68 -3.39,3.4 2.03,7.43 -7.33,-2.02 -2.47,3.19 -0.9,9.78 -5.32,2.81 -3.31,-2.54 2.41,-5.63 -9.8,-3.67 -5.37,-5.08 -4.95,2.15 -3.26,-0.61 -0.4,-4.53 -3.71,-2.21 -4.1,1.47 -5.22,-1.87 -4.19,6.76 -5.14,-0.67 -4.89,2.07 -2.11,4.05 -5.08,-0.75 -5.34,-2.53 -5.46,-0.19 -3.8,-4.45 -2.78,-0.47 -3.56,-3.83 1.78,-3.18 -1.08,-6.56 -7.19,1.2 -9.76,-5.96 -2.27,0.64 -6.53,-2.41 2.5,-7.6 -3,-3.82 2.34,-4.61 1.95,-7.88 -2.21,-0.96 -7.76,1.99 -2.07,-6.16 -5.72,-7.68 2.73,-6.59 3.24,-0.35 7.46,-4.36 2.99,0.84 14.58,-5.73 6.46,-6.15 5.47,-1.14 5.95,-3.98 1.4,-6.6 4.15,-0.03 7.76,2.25 5.12,4.37 5.08,0.65 3.29,7.05 4.99,7.2 4.06,1.29 0.51,-3.64 5.48,-3.83 2.72,-5.6 6.2,-0.74 4.96,1.99 2.66,-11.57 -1.5,-7.59 5.52,-2.2 4.32,-4.84 5.13,0.56 3.9,3.44 -6.51,3.17 0.5,4.91 7.89,-1.03 0.31,3.47 9.2,9.72 6.73,-3.7 3.8,5.51 8.19,1.74 9.86,-3.24 0.57,-3.2 3.42,-2.85 4.52,2.06 -1.36,4.51 3.87,3.21 2.95,8.35 0.91,8.3 -2.21,5.47 2.73,3.29 7.83,1.73 5.51,7.78 z"
       id="M39412"
       style="fill:#ffff80;fill-opacity:1;stroke:#000000;stroke-width:1.1582;stroke-dasharray:none;stroke-opacity:1" />
    <path
       d="m 235.01,212.4 8.35,0.88 4.51,2.48 6.16,-2.7 1.02,5.63 3.13,1.7 2.23,6.91 7.55,0.47 5.12,4.54 4.1,-3.86 6.18,-3.1 5.11,-0.22 6.02,-2.24 3.59,-3.14 3.3,1.61 5.01,-0.68 2.14,-3.85 5.92,-0.9 3.6,3.75 4.16,0.16 2.79,2.53 5.43,0.28 7.86,4.95 0.26,3.49 2.78,2.08 -3.08,4.27 -8.41,2.36 -6.49,-0.96 -3.98,1 -0.67,9.59 1.34,2.98 -6.17,3.61 -8.77,-0.43 -2.87,-4.91 0.37,-4.97 -5.04,-1.75 -3.63,2.8 -8.05,-2.9 -6.97,-0.37 -3.98,5.49 1.41,5.31 -1.86,7.47 -2.96,1.91 -0.04,4.15 -9.84,-7.3 -7.96,6.72 -3.58,7.82 0.49,2.66 -4.32,4.84 -5.52,2.2 -4.62,-1.5 -4.45,-4.43 -6.01,-4.11 1.29,-9.98 -5.01,-5.42 -7.06,4.67 -5.82,-9.4 3.05,-6.57 9.76,-1.16 -0.68,-5.02 4.33,-2.91 -3.13,-2.24 0.87,-3.05 3.66,-3.5 -1.79,-4.57 -0.06,-6.67 -1.5,-2.76 z"
       id="M39411"
       style="fill:#ffff80;fill-opacity:1;stroke:#000000;stroke-width:1.1582;stroke-dasharray:none;stroke-opacity:1" />
    <path
       d="m 364.24,161.05 1.07,2.63 4.69,1.59 4.02,6.54 3.91,-3.52 2.93,3.14 3.82,-1.26 -0.49,-7.33 3.83,-1.11 0.05,6 15.78,12.07 -0.73,5.45 -2.42,7.23 0.79,4.06 -6.65,0.17 -15.91,6.84 -3.56,-1.95 2.23,-2.48 0.2,-5.04 -5.82,-3.6 -0.06,-6.29 -5.01,-7.19 -0.98,-4.68 -5.35,1.87 -1.33,-7.66 0.38,-5.74 z"
       id="M39410"
       style="fill:#ffff80;fill-opacity:1;stroke:#000000;stroke-width:1.1582;stroke-dasharray:none;stroke-opacity:1" />
    <path
       d="m 240.75,284.76 1.5,7.59 -2.66,11.57 -4.96,-1.99 -6.2,0.74 -2.72,5.6 -5.48,3.83 -0.51,3.64 -4.06,-1.29 -4.99,-7.2 -3.29,-7.05 -5.08,-0.65 -5.12,-4.37 -7.76,-2.25 -4.15,0.03 -0.57,-8.6 -4.51,-7.22 -2.77,-2.53 -10.41,-3.2 -1.51,-5.06 -0.9,-10.58 -5.9,0.21 -4.13,-5.74 1.05,-5.93 -3.98,-1.46 -0.67,-3.62 1.92,-4.45 -0.53,-3.81 -8.07,-4.33 1.28,-6.4 3.45,-0.26 1.77,-3.35 7.64,-0.94 3.11,-2.34 7.44,3.6 7.24,0.72 5.61,-0.8 9.34,2.53 12.7,-2.25 3.26,2.82 3.49,0.14 8.4,-3.47 4.56,-0.5 1.5,2.76 0.06,6.67 1.79,4.57 -3.66,3.5 -0.87,3.05 3.13,2.24 -4.33,2.91 0.68,5.02 -9.76,1.16 -3.05,6.57 5.82,9.4 7.06,-4.67 5.01,5.42 -1.29,9.98 6.01,4.11 4.45,4.43 z"
       id="M39405"
       style="fill:#ffff80;fill-opacity:1;stroke:#000000;stroke-width:1.1582;stroke-dasharray:none;stroke-opacity:1" />
    <path
       d="m 298.08,219.75 -0.55,-6.07 -5.19,-3.28 2.37,-10.39 -1.5,-7.31 4.42,-3 1.65,-2.98 5.64,-3.11 4.45,-9.92 -1.94,-4.34 6.03,-1.73 0.63,-3.69 6,2.49 2.4,-7.64 -0.45,-7.88 6.17,-3.62 4.23,1.53 3.31,-3.13 6.12,-2.83 2.76,0.29 6.5,5.76 -1.2,3.57 4.96,4.99 6.34,-3.27 3.01,6.86 -4.61,-0.26 -0.38,5.74 1.33,7.66 -9.48,-2.15 -8.05,3.15 2.12,14.58 -2.85,0.06 -5.29,4.45 0.45,6.14 -2.35,1.01 -14.09,-5.89 0.35,3.57 -3.66,1.91 -4.27,10.62 0.99,4.29 -5.92,0.9 -2.14,3.85 -5.01,0.68 z"
       id="M39403"
       style="fill:#ffff80;fill-opacity:1;stroke:#000000;stroke-width:1.1582;stroke-dasharray:none;stroke-opacity:1" />
    <path
       d="m 341.33,233.17 -2.78,-2.08 -0.26,-3.49 -7.86,-4.95 -5.43,-0.28 -2.79,-2.53 -4.16,-0.16 -3.6,-3.75 -0.99,-4.29 4.27,-10.62 3.66,-1.91 -0.35,-3.57 14.09,5.89 2.35,-1.01 -0.45,-6.14 5.29,-4.45 2.85,-0.06 -2.12,-14.58 8.05,-3.15 9.48,2.15 5.35,-1.87 0.98,4.68 5.01,7.19 0.06,6.29 5.82,3.6 -0.2,5.04 -2.23,2.48 -5.72,6.29 1.86,4.11 -3.35,3.77 -4.87,2.38 -1.23,5.71 -8.1,6.58 -6.86,3.31 z"
       id="M39402"
       style="fill:#ffff80;fill-opacity:1;stroke:#000000;stroke-width:1.1582;stroke-dasharray:none;stroke-opacity:1" />
    <path
       d="m 340.4,339.81 -12.07,1.11 -5.51,-7.78 -7.83,-1.73 -2.73,-3.29 2.21,-5.47 -0.91,-8.3 -2.95,-8.35 -3.87,-3.21 1.36,-4.51 -4.52,-2.06 -3.42,2.85 -0.57,3.2 -9.86,3.24 -8.19,-1.74 -3.8,-5.51 -6.73,3.7 -9.2,-9.72 -0.31,-3.47 -7.89,1.03 -0.5,-4.91 6.51,-3.17 -3.9,-3.44 -5.13,-0.56 -0.49,-2.66 3.58,-7.82 7.96,-6.72 9.84,7.3 0.04,-4.15 2.96,-1.91 1.86,-7.47 -1.41,-5.31 3.98,-5.49 6.97,0.37 8.05,2.9 3.63,-2.8 5.04,1.75 -0.37,4.97 2.87,4.91 1.6,8.13 2.01,2.53 5.05,0.28 6.05,-2.32 2.26,1.95 6.03,-0.34 1.41,5.08 4.27,2.43 1.21,3.57 8.79,9.11 -3.39,4.06 -5.79,-0.35 -4.66,2.71 2.17,3.02 10.21,6.63 -3.19,0.96 -6.43,5.75 1.92,3.84 -0.34,7.01 4.15,-1.87 3.78,1.37 -2.08,3.6 1.26,4.85 2.56,2.01 -7.22,4.01 v 2.98 z"
       id="M39401"
       style="fill:#ffff80;fill-opacity:1;stroke:#000000;stroke-width:1.1582;stroke-dasharray:none;stroke-opacity:1" />
    <path
       d="m 508.28,86.11 11.33,10.72 3.92,1.97 4.93,6.76 2.36,0.35 19.51,-14.87 0.44,-5.15 7.89,-5.51 7.27,-0.58 2.1,4.24 3.65,0.49 6.3,-9.61 5.15,-3.47 2.35,2.68 3.34,-5.32 3.76,-0.71 -0.27,-3.6 4.84,-5.9 5.18,-0.75 -0.3,-4.87 3.17,-1.35 5.48,-10.01 9.83,1.87 2.23,4.21 5.13,1.57 5.3,-4.85 7.17,0.76 2.72,-2.41 2.3,-6.19 -0.71,-6.95 3.8,-3.15 8.45,-1.49 3.53,0.44 3.84,7.76 7.18,0.08 8.91,-3.51 1.84,4.27 -1.56,5.82 5.8,5.38 -0.31,4.78 4.14,2.79 1.52,4.22 0.07,8.25 -1.25,4.76 5.39,12.42 -1.48,4.68 -13.02,3.93 -3.54,-3.57 -3.35,3.35 -7.75,-0.04 -2.54,2.12 -2.39,7.85 -9.89,7.59 -3.43,6.84 -6.79,3.1 -4.32,4.96 -8.13,3.46 -3.09,-2.39 -3.58,0.78 -3.1,-3.67 -3.26,0.63 -4.72,-5.07 -8.19,2.32 -5.57,6.12 -3.07,0.68 0.48,5.39 -4.74,2.51 -4.19,4.27 -1.66,3.93 -8.79,7.27 -3.48,-8.37 -7.83,3.19 -9.73,7.25 -6.56,1.97 -4.43,-3.39 -6.88,0.72 -4.77,2.14 -4.29,7.6 -3.58,-2.67 -3.63,-12.33 -2.46,-1.1 1.87,-12.55 -0.78,-13.1 -6.17,2.29 -3.51,-1.05 -3.54,-4.17 -6.55,1.78 -2.06,-8.54 -3.57,-5.79 -2.47,-1.37 -1.97,-5.59 3.35,-0.64 10.81,-6.23 z"
       id="M39212"
       style="fill:#ffff80;fill-opacity:1;stroke:#000000;stroke-width:1.1582;stroke-dasharray:none;stroke-opacity:1" />
    <path
       d="m 606.77,153.39 -9.24,8.73 -6.15,-3.53 -5.33,4.58 1.29,4.13 -3.07,5.17 -4.95,3.63 -3.41,0.38 -5.34,7.79 -1.55,5.18 -3.65,4.71 -6.85,-2.48 0.68,-5.78 -3.01,-2.41 -4.75,-1.07 -10.83,0.11 -13.82,2.06 1.46,-5.44 -2.42,-11.26 2.09,-7.29 4.29,-7.6 4.77,-2.14 6.88,-0.72 4.43,3.39 6.56,-1.97 9.73,-7.25 7.83,-3.19 3.48,8.37 8.79,-7.27 1.66,-3.93 4.19,-4.27 4.74,-2.51 -0.48,-5.39 3.07,-0.68 5.57,-6.12 8.19,-2.32 4.72,5.07 -4.36,6.02 1.52,7.14 -3.22,5.24 1.48,3.06 -6.48,2.96 -2.05,2.98 z"
       id="M39211"
       style="fill:#ffff80;fill-opacity:1;stroke:#000000;stroke-width:1.1582;stroke-dasharray:none;stroke-opacity:1" />
    <path
       d="m 134.99,327.02 5.72,7.68 2.07,6.16 7.76,-1.99 2.21,0.96 -1.95,7.88 -2.34,4.61 3,3.82 -2.5,7.6 6.53,2.41 2.27,-0.64 9.76,5.96 7.19,-1.2 1.08,6.56 -1.78,3.18 3.56,3.83 2.78,0.47 3.8,4.45 5.46,0.19 5.34,2.53 5.08,0.75 2.11,-4.05 4.89,-2.07 5.14,0.67 4.19,-6.76 5.22,1.87 4.1,-1.47 3.71,2.21 0.4,4.53 3.26,0.61 4.95,-2.15 5.37,5.08 9.8,3.67 -2.41,5.63 -3.37,6.27 -6.04,0.26 -3.48,-1.95 -6.73,1.82 -4.22,5.87 -3.57,0.22 -2.46,5.45 -4.01,0.36 0.02,5.69 -4.4,10.65 -1.28,8.01 1.4,5.6 -4.74,5.53 3.69,8.26 6.05,2.19 1.91,5.61 4.8,6.18 3.65,-1.7 2.02,2.02 -3.78,7.31 -1,5.26 3.05,3.26 -2.31,7.5 1.4,4.78 4.79,5.51 -6.83,0.02 -5.06,-3.84 -8.27,1.99 -4.11,3.15 -7.16,-6.5 -3.34,-7.24 -5.03,0.27 -2.37,0.13 -8.63,-5.19 -7.13,2.73 -6.91,-2.85 -6.43,3.45 -7.11,-0.87 -1.35,-6.45 -2.28,-2.62 1.45,-10.08 -1.45,-4.06 0.22,-7.02 -1.97,-2.56 1.93,-6.59 -6.83,-6.08 0.42,-4 -3.91,-4.4 -4.74,2.51 -3.48,-2.24 -4.94,-0.48 -4.24,3.78 -7.24,-5.62 4.34,-9.38 -3.37,-2.5 -3.84,-0.16 -6.19,-2.49 -1.6,-5.55 -5.99,-1.58 -4.01,-3.02 -3.98,-0.74 -9.84,-6.81 -4.11,-0.66 -3.17,-2.7 -4.02,-8.79 -4.05,-1.23 1.79,-7.57 -7.63,-10.48 2,-6.06 7.1,-2.89 -0.54,3.98 5.36,3.62 5.69,6.2 1.19,2.92 4.89,2.32 5.84,7.91 3.91,-1.43 1.21,-4.61 5.24,-3.53 3.93,-7.12 2.75,-0.78 5.26,-7.26 1.78,-3.97 -0.55,-6.03 3.43,-1.15 4.8,0.93 7.22,-3.51 -2.1,-9.36 1.65,-4.02 -1.31,-3.7 2.54,-5.47 z"
       id="M39210"
       style="fill:#ffff80;fill-opacity:1;stroke:#000000;stroke-width:1.1582;stroke-dasharray:none;stroke-opacity:1" />
    <path
       d="m 250.76,400 3.31,2.54 5.32,-2.81 0.9,-9.78 2.47,-3.19 7.33,2.02 -2.03,-7.43 3.39,-3.4 5.6,0.68 1.35,2.46 4.52,-1.6 3.18,-3.17 2.92,0.4 11.26,-11 5.57,-0.16 2.64,3.24 -7.49,11.69 -5.66,6.97 2.12,4.45 2.62,1.5 -4.01,5.15 -0.43,3.59 -6.78,12.79 -8.87,4.01 -4.43,8.75 0.38,3.65 -4.17,2.36 -2.75,12.57 0.62,5.47 -5.81,-2.11 -3.8,-5.15 -12.28,-0.74 -4.19,1.31 -7.12,6.87 -4.51,7.25 -3.95,15.14 -3.65,1.7 -4.8,-6.18 -1.91,-5.61 -6.05,-2.19 -3.69,-8.26 4.74,-5.53 -1.4,-5.6 1.28,-8.01 4.4,-10.65 -0.02,-5.69 4.01,-0.36 2.46,-5.45 3.57,-0.22 4.22,-5.87 6.73,-1.82 3.48,1.95 6.04,-0.26 z"
       id="M39428"
       style="fill:#ffff80;fill-opacity:1;stroke:#000000;stroke-width:1.1582;stroke-dasharray:none;stroke-opacity:1" />
    <path
       d="m 153.77,495.21 7.11,0.87 6.43,-3.45 6.91,2.85 7.13,-2.73 8.63,5.19 2.37,-0.13 0.15,4.22 -4,5.08 1.67,4.09 -4.27,3.22 4.57,6.13 -0.07,6.32 -4.69,-0.58 -5.4,5.02 -6.52,-0.84 -2.72,3.03 -4.46,-0.75 -4.38,1.35 -1.69,3.31 -8.12,-3.02 -4.16,0.08 -3.3,-5.47 -4.44,-2.87 -2.23,3.29 -3.73,-1.31 -0.9,5.05 -1.53,-4.57 -6.2,-9.69 6.11,-6.78 1.19,2.23 9.62,2.1 -2.09,-7.23 7.2,-5.04 2.66,-0.57 0.9,-6.42 z"
       id="M39427"
       style="fill:#ffff80;fill-opacity:1;stroke:#000000;stroke-width:1.1582;stroke-dasharray:none;stroke-opacity:1" />
    <path
       d="m 192.35,497.81 5.03,-0.27 3.34,7.24 7.16,6.5 4.11,-3.15 8.27,-1.99 5.06,3.84 6.83,-0.02 -1.11,8.37 1.35,7.66 -3.23,0.75 -3.78,9.08 -4.42,-1.22 -9.75,-0.02 -0.77,2.42 -4.32,1.35 2.92,3.89 1.29,12.24 -3.77,3.07 3.05,7.71 3.57,3.52 4.31,0.48 1.92,2.3 10.06,3.41 -0.29,2.74 3.59,7.49 3.36,3.11 -1.62,3.48 3.46,13.44 -1.12,2.82 -8.37,0.44 -3.02,-4.46 -8.8,-0.69 -3.41,-2.99 2.47,-3.4 -0.92,-3.42 -6.69,-4.04 -3.68,-3.48 -2.65,-5.23 -3.74,-2.86 -8.25,-3.34 -6.19,0.43 -4.62,-1.92 -7.79,12.03 0.84,-9.41 -3.05,-1.95 -10.86,4.16 -1.87,6.5 -5.11,4.29 -3.2,-0.62 -0.4,4.47 -5.18,0.4 -0.8,2.44 -5.51,-0.92 -1.28,-3.81 0.03,-7.86 -2.39,-5.65 -3.32,-2.01 0.38,-3.37 -5.76,-4.06 3.97,-8.46 -2.84,-3.05 -0.36,-3.7 2.7,-2.61 7.01,-2.08 -2.63,-5.88 2.1,-8.78 0.9,-5.05 3.73,1.31 2.23,-3.29 4.44,2.87 3.3,5.47 4.16,-0.08 8.12,3.02 1.69,-3.31 4.38,-1.35 4.46,0.75 2.72,-3.03 6.52,0.84 5.4,-5.02 4.69,0.58 0.07,-6.32 -4.57,-6.13 4.27,-3.22 -1.67,-4.09 4,-5.08 z"
       id="M39209"
       style="fill:#ffff80;fill-opacity:1;stroke:#000000;stroke-width:1.1582;stroke-dasharray:none;stroke-opacity:1" />
    <path
       d="m 4.1,564.51 3.08,1.07 -0.46,3.88 -5.72,0.61 z m 25.52,27.22 4.97,5.91 5.51,3.79 -1.36,5.77 1.36,5.98 -11.83,5.82 -1.28,-1.7 4.56,-4.18 -0.92,-2.86 -4.46,-4.28 2.11,-2.57 1.8,-7.38 z m 51.26,-184.66 9.84,6.81 3.98,0.74 4.01,3.02 5.99,1.58 1.6,5.55 6.19,2.49 3.84,0.16 3.37,2.5 -4.34,9.38 7.24,5.62 4.24,-3.78 4.94,0.48 3.48,2.24 4.74,-2.51 3.91,4.4 -0.42,4 6.83,6.08 -1.93,6.59 1.97,2.56 -0.22,7.02 1.45,4.06 -1.45,10.08 2.28,2.62 1.35,6.45 -2.25,1.98 -0.9,6.42 -2.66,0.57 -7.2,5.04 2.09,7.23 -9.62,-2.1 -1.19,-2.23 -6.11,6.78 6.2,9.69 1.53,4.57 -2.1,8.78 2.63,5.88 -7.01,2.08 -2.7,2.61 -6.52,-4.63 -4.12,0.2 -0.15,-7.98 -3.2,0.68 -3.19,-8.94 -5.98,3.69 -5.8,-5.46 3.54,-7.69 6.5,-3.08 -2.47,-4.61 1.35,-2.99 -3.87,-9.04 -4.39,3.96 -3.84,-4.28 -4.78,3.48 -5.19,0.4 -4.33,-2.6 -1.89,-7.84 3.59,-1.73 7.69,-0.25 2.75,-3.45 -0.46,-7.07 3.52,-5.45 -4.43,-10.56 2.33,-1.84 -4.25,-7.15 -0.65,-5.92 1.07,-8.14 -8.88,-9.95 5.18,-7.38 -1.24,-4.85 1.15,-6.22 z"
       fill-rule="evenodd"
       id="M39208"
       style="fill:#ffff80;fill-opacity:1;stroke:#000000;stroke-width:1.1582;stroke-dasharray:none;stroke-opacity:1" />
    <path
       d="m 124.48,552.51 0.36,3.7 2.84,3.05 -3.97,8.46 5.76,4.06 -0.38,3.37 3.32,2.01 2.39,5.65 -0.03,7.86 -3.13,1.43 -5.35,-3.63 -3.95,4.27 -3.64,-4.03 -2.73,-6.32 -6.19,-3.1 -4.63,-9.51 -11.73,1.67 -0.5,2.93 -3.85,3.65 -6.16,-1.58 -8.2,3.58 -0.7,6.31 -3.15,-2.18 -2.78,-7.42 -0.88,-9.26 7.66,0.31 1.29,-2.84 -3.52,-3.96 -0.18,-3.01 2.78,-3.22 6.24,-3.46 -2.56,-2.8 4.06,-3.88 -3.14,-4.13 1.73,-3.5 7.28,-5.84 3.96,-1.88 0.84,-4.75 5.42,-2.14 -3.54,7.69 5.8,5.46 5.98,-3.69 3.19,8.94 3.2,-0.68 0.15,7.98 4.12,-0.2 z"
       id="M39424"
       style="fill:#ffff80;fill-opacity:1;stroke:#000000;stroke-width:1.1582;stroke-dasharray:none;stroke-opacity:1" />
    <path
       d="m 305.1,255.59 8.77,0.43 6.17,-3.61 -1.34,-2.98 0.67,-9.59 3.98,-1 6.49,0.96 8.41,-2.36 3.08,-4.27 5.77,0.58 6.86,-3.31 8.1,-6.58 3.84,14.17 4.3,-0.64 2.79,-3.47 8.47,-0.65 2.1,-4.83 4.59,-1.01 3.49,3.78 5.74,-6.14 5.68,-1.42 3.93,-4.46 6.39,2.45 2.92,-0.18 1.2,13.91 -3.68,-1.46 -1.04,-5.24 -4.62,3.61 -2.26,-2.35 -3.45,1.21 3.92,6.12 -8.57,3.14 -7.61,-1.5 -4.04,4.83 4.42,2.35 6.76,-2.43 2.48,2.15 2.8,-3.28 4.52,-2.29 3.44,-5.84 3.44,5.29 4.44,0.41 3.74,4.52 -9.6,3.59 -3.73,3.5 -8.36,2.18 -4.31,-0.4 -12.96,1.39 -3.6,-0.47 -3.12,4.46 -3.94,2.64 1.09,8.26 -4.62,1.55 1.29,-5.52 -10.94,0.18 -4.14,-2.25 -4.69,-0.2 0.76,3.6 -8.52,3.91 1.36,5.26 -1.96,6.02 1.58,3.7 -8.79,-9.11 -1.21,-3.57 -4.27,-2.43 -1.41,-5.08 -6.03,0.34 -2.26,-1.95 -6.05,2.32 -5.05,-0.28 -2.01,-2.53 z"
       id="M39206"
       style="fill:#ffff80;fill-opacity:1;stroke:#000000;stroke-width:1.1582;stroke-dasharray:none;stroke-opacity:1" />
    <path
       d="m 422.19,244.61 -3.74,-4.52 3.17,-5.85 7.27,6.14 -0.55,4.09 z m -21.49,-52.13 15.88,-2.02 2.82,6.7 3.57,7.08 5.25,3 2.14,3.82 -0.28,4.16 8.12,9.28 -8.88,4.92 -5.26,-1.66 -2.63,1.35 -1.71,5.17 -2.22,1.09 -1.2,-13.91 -2.92,0.18 -6.39,-2.45 -3.93,4.46 -5.68,1.42 -5.74,6.14 -3.49,-3.78 -4.59,1.01 -2.1,4.83 -8.47,0.65 -2.79,3.47 -4.3,0.64 -3.84,-14.17 1.23,-5.71 4.87,-2.38 3.35,-3.77 -1.86,-4.11 5.72,-6.29 3.56,1.95 15.91,-6.84 6.65,-0.17 z"
       fill-rule="evenodd"
       id="M39205"
       style="fill:#ffff80;fill-opacity:1;stroke:#000000;stroke-width:1.1582;stroke-dasharray:none;stroke-opacity:1" />
    <path
       d="m 474.92,115.24 1.11,-8.38 -2.65,-5.57 8.19,-3.76 2.1,-3.13 5.83,2.01 1.97,5.59 2.47,1.37 3.57,5.79 2.06,8.54 6.55,-1.78 3.54,4.17 3.51,1.05 6.17,-2.29 0.78,13.1 -1.87,12.55 2.46,1.1 3.63,12.33 3.58,2.67 -2.09,7.29 2.42,11.26 -1.46,5.44 -10.6,1.71 -24.62,5.87 0.53,-6.82 2.96,-7.01 6.08,-6.4 0.9,-5.16 -4.73,-0.04 -2.68,-6.55 -0.06,-5.51 -5.4,0.26 -4.23,-3.04 -4.49,-7.04 0.63,-2.92 -2.39,-5.3 5.66,-5.3 -2.88,-9.25 z"
       id="M39204"
       style="fill:#ffff80;fill-opacity:1;stroke:#000000;stroke-width:1.1582;stroke-dasharray:none;stroke-opacity:1" />
    <path
       d="m 587.28,194.4 3.37,-4.58 4.1,1.34 6.15,-3.64 2.35,-4.2 -0.23,-4.22 1.46,-7.05 4.09,-3.26 1.49,-4.53 -1,-6.17 -2.29,-4.7 -3.54,-3.92 2.05,-2.98 6.48,-2.96 -1.48,-3.06 3.22,-5.24 -1.52,-7.14 4.36,-6.02 3.26,-0.63 3.1,3.67 3.58,-0.78 3.09,2.39 8.13,-3.46 4.32,-4.96 6.79,-3.1 3.43,-6.84 9.89,-7.59 2.39,-7.85 2.54,-2.12 7.75,0.04 3.35,-3.35 3.54,3.57 13.02,-3.93 0.61,5.23 -3.66,9.72 -4.77,6.02 2.24,3.54 4.63,0.54 3.35,4.34 -6.85,6.17 0.35,2.82 -4.72,0.45 -7.93,5.2 -6.02,14.61 4.2,2.65 -0.6,6.25 -4.92,2.33 -1.34,5.02 2.35,4.66 3.74,-1.01 4.19,7.8 -2.08,4.26 -5.03,4.45 -5.48,10.96 -4.77,3.1 -4.01,17.64 -2.25,4.04 -3.59,0.76 -3.65,6.1 -1.78,5.87 -2.7,-2.15 -3.53,-6.87 1.17,-6.21 -3.34,-5.45 -6.18,-3.29 -18.35,-5.62 -10.43,-1.69 -5.79,-0.19 -3.47,-3.28 z"
       id="M39203"
       style="fill:#ffff80;fill-opacity:1;stroke:#000000;stroke-width:1.1582;stroke-dasharray:none;stroke-opacity:1" />
    <path
       d="m 713.51,230.34 1.89,-5.76 5.69,-4.3 2.69,-4.53 5.4,3.32 4.91,-4.76 6.15,-1.08 2.74,-2.65 8.47,-1.69 5.15,4.46 0.94,3.92 7.75,5.67 0.47,5.27 3.3,4.59 -0.29,2.32 -4.83,8.13 -5.13,11.31 0.95,6.33 -0.94,5.87 -2.84,4.9 -2.96,12.88 -0.07,7.18 -1.94,4.88 -0.71,6.92 -2.59,7.74 0.4,5.34 -2.62,17.24 -3.82,1.53 -2.25,-7.38 -7.66,-12.36 -6.15,-6.89 -6.77,-0.99 -3.94,2.69 -2.67,-15.18 -2.64,-3.57 -7.09,-3.67 -3.27,-3.09 -3.98,-7.86 -5.71,-5.66 -5.39,-1.91 -3.31,-3.31 6.06,-4.07 2.16,-2.89 5.89,-2.33 4.32,-9.15 4.8,-1.59 0.16,-5.68 3.71,-2.76 0.01,-3.85 z"
       id="M39202"
       style="fill:#ffff80;fill-opacity:1;stroke:#000000;stroke-width:1.1582;stroke-dasharray:none;stroke-opacity:1" />
    <path
       d="m 425.03,111.95 6.68,5.58 3.83,-5.02 14.17,0.73 4.26,-6.35 8.79,2.09 2.11,6.83 4.3,0.92 5.75,-1.49 6.55,6.85 2.88,9.25 -5.66,5.3 2.39,5.3 -0.63,2.92 4.49,7.04 4.23,3.04 5.4,-0.26 0.06,5.51 2.68,6.55 4.73,0.04 -0.9,5.16 -6.08,6.4 -2.96,7.01 -0.53,6.82 -10.59,4.94 -2.94,4.35 -3.47,-1.18 1.22,-14.19 2.65,-4.16 -4.77,-1.61 0.21,6.28 -5.61,2.59 -0.25,4.03 6.73,11.04 -8.05,4.95 -13.26,6.04 -4.19,3.99 -11.05,5.26 -8.12,-9.28 0.28,-4.16 -2.14,-3.82 -5.25,-3 -3.57,-7.08 5.47,-2.28 3.92,-4.89 -0.89,-4.69 3.88,-3.09 1.32,-8.08 2.91,-4.63 -4.99,-5.53 -4.66,0.63 -2.57,2.53 -5.75,-4.5 -6.66,-0.18 -2.23,-5.71 -4.9,-2.66 3.08,-6.74 2.95,-1.75 -2.83,-5.51 -4.5,-0.48 -1.74,-10.63 2.46,-5.68 5.27,-5.17 6.56,-2.3 3.87,-2.95 z"
       id="M39201"
       style="fill:#ffff80;fill-opacity:1;stroke:#000000;stroke-width:1.1582;stroke-dasharray:none;stroke-opacity:1" />
  </g>
</svg>
