<?xml version="1.0" encoding="UTF-8" standalone="no"?>
<svg
   version="1.2"
   width="690"
   height="600"
   viewBox="0 0 690 600"
   stroke-linecap="round"
   stroke-linejoin="round"
   id="svg7694"
   sodipodi:docname="kw.svg"
   inkscape:version="1.2 (dc2aedaf03, 2022-05-15)"
   xmlns:inkscape="http://www.inkscape.org/namespaces/inkscape"
   xmlns:sodipodi="http://sodipodi.sourceforge.net/DTD/sodipodi-0.dtd"
   xmlns="http://www.w3.org/2000/svg"
   xmlns:svg="http://www.w3.org/2000/svg">
  <defs
     id="defs7698" />
  <sodipodi:namedview
     id="namedview7696"
     pagecolor="#505050"
     bordercolor="#eeeeee"
     borderopacity="1"
     inkscape:showpageshadow="0"
     inkscape:pageopacity="0"
     inkscape:pagecheckerboard="0"
     inkscape:deskcolor="#505050"
     showgrid="false"
     inkscape:zoom="1.3754266"
     inkscape:cx="344.62035"
     inkscape:cy="252.28536"
     inkscape:window-width="1920"
     inkscape:window-height="1009"
     inkscape:window-x="-8"
     inkscape:window-y="-8"
     inkscape:window-maximized="1"
     inkscape:current-layer="svg7694" />
  <g
     id="kw"
     style="fill:#ffff80;fill-opacity:1;stroke:#000000;stroke-width:1.1582;stroke-dasharray:none;stroke-opacity:1"
     transform="matrix(0.86340852,0,0,0.86340852,-0.36342238,47.021299)">
    <path
       d="m 159.63,343.82 3.42,5.58 2.17,0.11 3.92,5.82 7.73,-3 -1.36,6.68 9.15,13.28 10.91,2.63 2.36,6.85 2.34,1.24 0.47,5.96 14.93,-0.99 4.24,3.03 6.15,-2.43 3.31,2.27 6.39,7.91 3.59,0.93 6.04,6.06 -0.71,7.41 -3.01,5.58 0.95,7.02 -2.76,7.53 1.59,3.42 5.21,-4.55 6.59,13.43 1.16,7.02 -0.46,6.47 1.28,3.67 -2.25,6.4 1.26,8 2.58,5.9 -1.54,6.54 3.37,11.24 0.67,7.79 -3.89,5.38 0.46,4.72 -16.61,6 -3.67,-0.86 -9.22,-9.97 -6.42,0.92 -2.54,4.93 -6.34,2.05 -3.83,2.62 -0.02,3.19 -6.03,7.94 -6.1,5.29 -7.9,4.3 -1.76,-7.86 -3.58,-4.14 -0.52,-14.1 -6.08,-13.92 -4.39,-1.33 -5.22,-4.06 -0.54,-6.17 -3.04,-11.31 1.17,-2.49 -2.8,-4.25 2.42,-5.19 -3.44,-8.85 -6.49,-5.39 -7.68,-3.21 -4.13,1.9 -10.13,-5.63 -6.14,-2.39 -1.55,-2.85 -1.4,-9.61 1.41,-5.46 -4.8,-5.39 -5.13,3.8 -8.7,-2.58 1.37,-6.99 -0.33,-7.86 -1.83,-2.31 3.41,-5.33 -0.73,-6.44 -4.06,0.27 -5.36,-9.76 -2.16,-9.72 -2.47,-1.98 -8.54,-3.13 -4.51,-6.58 -2.55,1.03 -4.19,-3.54 -0.92,-7.64 -4.01,-4.05 -3.11,0.71 -8.37,-4.55 -6.28,-5.79 -7.3,-0.8 3.68,-6.78 -5.01,-1.39 1.81,-4.75 -5.43,-3.66 -7.89,-0.27 6.96,-5.05 4.95,-0.12 0.96,2.61 6.95,2.37 4.09,-0.5 3.18,5.89 15.39,3.12 7.16,8.6 -0.78,4.42 5.74,4.73 3.75,-2.26 5.85,-1.24 13.24,6.47 5.81,-2.73 3.34,-4.69 6.2,-0.81 4.38,-6.34 2.34,4.1 -3.51,2.22 -1.88,8.02 3.7,6.37 2.5,-10.49 5.56,3.08 5.61,0.66 0.08,-3.99 5.71,0.1 3.12,2.87 5.22,-5.19 z m -29.67,-35.46 5.95,1.6 -0.7,5.87 -6.33,-2.57 z m -42.35,-13.41 3.91,1.55 0.89,3.83 -2.79,4.3 3.25,4.04 5.89,1.91 4.58,-2.77 -0.12,-2.71 10.49,-3.96 -3.42,6.79 2.25,4.38 -3.7,2.95 -7.57,-4.02 -2.55,2.05 -5.98,1 -3.27,7.95 -3.41,0.59 -1.61,4.84 -4.93,-3.12 1.94,-4.4 -1.52,-2.73 8.09,-5.89 0.57,-6.96 -5.36,-3.11 1.94,-6.15 z"
       fill-rule="evenodd"
       id="M37208"
       style="fill:#ffff80;fill-opacity:1;stroke:#000000;stroke-width:1.1582;stroke-dasharray:none;stroke-opacity:1" />
    <path
       d="m 596.33,413.7 3.86,-3.41 1.07,-4.38 -1.71,-3 3.16,-6.21 -4.73,-3.38 -3.21,-6.18 1.58,-3.35 7.19,-0.64 0.16,-5.94 11.41,-0.29 6.77,-3.77 2.41,-2.9 4.97,-0.96 5.86,-4.86 5.51,2 4.04,-1.21 6.92,5.28 2.28,-4.55 0.49,-9.03 -1.47,-10.1 6.58,-5.44 -5.29,-9.35 -0.48,-4.82 2.39,-4.81 5.1,-4.15 3.27,-5.56 1.22,-5.28 6.96,1.35 5.2,-1.83 3.41,-2.89 2.58,3.16 3.61,0.86 9.16,9.65 9.33,7.31 3.82,-0.11 1.74,3.91 5.5,2.69 4.4,0.42 4.32,-1.52 4.73,3.81 5.4,0.16 7.42,-4.17 -1.28,-6.06 1.82,-1.15 10.95,6.04 3.22,3.96 4.24,10.15 -1.92,2.87 9.38,0.82 4.36,3.21 -0.15,2.62 -4.47,1.45 -0.36,4.96 3.05,3.57 16.06,12.55 8.29,4.37 2.15,-0.26 0.4,7.89 -1.6,2.12 -0.79,8.83 -5.54,3.4 -2.06,3.04 1.2,4.64 2.63,0.19 0.2,9.78 -7.58,4.02 -4.89,8.2 -5.94,0.88 -1.19,-4.63 -3.51,-1.11 -2.84,-4.75 -3.6,-0.76 -5.59,4.45 -7.14,-1.63 -2.07,-7.44 -6.51,0.37 -6.09,-6.83 -9.35,-6.76 -7.12,-0.7 -1.55,1.53 -1.44,8.59 -1.94,3.55 -8.84,-3.34 -5.04,2.5 -12.11,-4.27 -5.58,6.82 -6.83,0.5 -3.63,-2.62 -3.37,-6.74 -4.44,-0.98 -8.74,3.79 -3.24,-4.91 -11.51,-2.56 -3.22,2.75 -8,2.35 -9.08,-1.82 -14.31,0.63 -4.06,3.67 z"
       id="M37207"
       style="fill:#ffff80;fill-opacity:1;stroke:#000000;stroke-width:1.1582;stroke-dasharray:none;stroke-opacity:1" />
    <path
       d="m 665.68,307.41 -1.22,5.28 -3.27,5.56 -5.1,4.15 -2.39,4.81 0.48,4.82 5.29,9.35 -6.58,5.44 1.47,10.1 -0.49,9.03 -2.28,4.55 -6.92,-5.28 -4.04,1.21 -5.51,-2 -5.86,4.86 -4.97,0.96 -2.41,2.9 -6.77,3.77 -11.41,0.29 -0.16,5.94 -7.19,0.64 -1.58,3.35 3.21,6.18 4.73,3.38 -3.16,6.21 1.71,3 -1.07,4.38 -3.86,3.41 -3.87,2.15 -5.24,-2.81 -2.82,3.67 -8.53,-2.52 -10.66,-1.62 -4.02,1.39 -4.6,4.96 -3.43,0.12 -3.38,3.08 0.59,-5.4 7.21,-12.05 0.59,-5.68 -0.79,-6.52 1.64,-3.67 -2.8,-5.72 0.9,-13.11 2.83,-3.65 1.64,-8.69 -3.39,-5.3 0.48,-3.28 3.46,-1.89 -1.5,-7.44 -4.15,-4.05 0.62,-4.68 2.79,-2.46 -3.75,-8.95 2.28,-4.97 3.13,-10.82 -5.85,0.11 -4.89,-5.48 0.05,-5.95 -1.72,-4.76 3.45,-4.64 1.81,-5.18 -1.64,-5.1 -3,-2.74 8.17,-12.31 0.82,-4.02 7.23,1.91 4.05,-2.6 -0.35,-5.85 5.9,-1.41 1.77,-6.26 -0.1,-6.93 -2.75,-0.51 -0.56,-5.46 6.08,2.07 1.97,6.19 4.52,-1.7 6.3,2.38 3.55,-2.12 4.01,-4.91 -2.87,-5.16 -0.22,-3.41 -3.06,-2.56 -1.74,-6.8 2.33,-2.98 3.77,0.52 0.32,3.71 4.29,3.84 1.5,12.98 5.25,3.22 1.65,4.95 5.05,2.96 7.66,-1.21 1.43,-4.12 6.76,-7.75 6.38,6.65 -0.77,5.99 1.68,3.2 6.44,0.01 0.48,4.07 -3.98,3.56 1.84,8.62 -3.45,3.47 -0.74,3.91 -6.83,3.06 -4.04,7.9 3.28,9.2 4.6,8.62 5.8,4.48 5.08,-5.36 3.1,-1.32 7.67,10.73 z"
       id="M37206"
       style="fill:#ffff80;fill-opacity:1;stroke:#000000;stroke-width:1.1582;stroke-dasharray:none;stroke-opacity:1" />
    <path
       d="m 104.69,424.65 8.7,2.58 5.13,-3.8 4.8,5.39 -1.41,5.46 1.4,9.61 1.55,2.85 6.14,2.39 10.13,5.63 4.13,-1.9 7.68,3.21 6.49,5.39 3.44,8.85 -2.42,5.19 2.8,4.25 -1.17,2.49 3.04,11.31 0.54,6.17 5.22,4.06 4.39,1.33 6.08,13.92 0.52,14.1 3.58,4.14 1.76,7.86 -6.52,5.58 -3.49,0.78 -5.18,8.12 -1.1,7.01 1.02,4.6 -1.45,3.33 -10.97,7.32 -7.42,-2.59 -10.27,5.72 -7.83,-0.15 -1.15,-5.97 -5.54,-2.7 -1.33,-3.53 -4.32,-3.18 -8.24,-2.07 -5.9,2.04 -4.2,-0.63 -4.35,1.9 -5.69,-5.52 -5.3,-6.96 -5.02,3.34 -6.83,2.41 -7.99,-3.78 -2.55,-7.72 8.77,-1.54 10.02,-4.97 4.32,-3.99 3.05,-7.35 2.26,-10.6 -2,-2.17 0.1,-8.37 3.14,-4.12 2.49,-8.69 -2,-2.83 1.02,-19.91 -6.16,-1.4 -1.67,-3.96 4.35,-0.41 5.43,-5.75 3.07,-25.47 -2.3,-5.45 4.7,-5.1 z M 1,453.95 l 3.22,0.29 2.01,3.86 7.52,4.03 -3.02,3.2 -4.65,-0.16 -4.01,-6.47 z"
       fill-rule="evenodd"
       id="M37205"
       style="fill:#ffff80;fill-opacity:1;stroke:#000000;stroke-width:1.1582;stroke-dasharray:none;stroke-opacity:1" />
    <path
       d="m 239.35,399.69 -3.59,-0.93 -6.39,-7.91 -3.31,-2.27 -6.15,2.43 -4.24,-3.03 -14.93,0.99 -0.47,-5.96 -2.34,-1.24 -2.36,-6.85 -10.91,-2.63 -9.15,-13.28 1.36,-6.68 5.95,-2.46 1.19,-4.56 3.58,-4.41 5.36,1.2 2.96,5.3 4.3,-3.17 -1.61,-5.96 9.63,-4.85 3.84,4 6.67,-2.4 -2.33,-6.73 1.66,-1.17 4.79,-2.53 1.13,4.27 3.19,0.6 8.11,-4.66 11.07,20.25 7.37,-1.65 2.26,4.34 -0.91,4.16 3.2,7.95 -3.7,-0.55 -3.06,3.72 -7.73,2.96 2.06,8.74 4.8,12.75 1.46,2.14 z"
       id="M37204"
       style="fill:#ffff80;fill-opacity:1;stroke:#000000;stroke-width:1.1582;stroke-dasharray:none;stroke-opacity:1" />
    <path
       d="m 257.28,180.33 3.41,5.51 -1.92,7.78 -6.39,-1.75 -2.37,-7.86 2.41,-2.42 z m -13.95,-33.82 3.89,6.89 -4.12,6.08 -3.88,-2.96 0.14,-4.19 -3.96,-3.64 z m 121.7,157.53 -5.38,10.12 -4.37,2.57 -2.05,-3.56 -6.3,4.62 -8.55,-0.16 -8.58,1.67 1.24,-5.01 -1.1,-3 -7.76,-2.36 -4.43,-16.86 -7.73,2.02 -9.06,5.39 -5.32,-0.08 -8.83,2.67 -8.73,5.75 -3.24,-9.97 -3.81,-3.79 4.31,-5.77 -1.77,-6.77 3.58,-7.21 -3.69,-4.75 -1.85,-4.84 -4.82,-4.21 -1.97,-4.05 -1.41,-2.82 -1.59,-12.03 -4.29,-0.47 1.07,-8.48 -1.27,-5.65 17.32,-9.92 0.13,4.91 -6.93,7.11 -2.94,1.78 -0.41,5.81 6.36,-3.84 10.87,-11.06 0.8,-3.95 7.28,2.67 0.96,4.6 -1.2,7.71 -8.59,7.3 -8.16,0.27 0.53,4.29 -7.52,1.36 2.42,3.89 0.97,5.01 10.58,-3.28 3.82,1.69 6.11,-0.29 -0.73,-4.24 4.39,-1.28 14.32,-13.62 3.21,0.74 7.42,-8.08 3.85,-3.06 -3.46,-4.59 1.51,-5.87 -4.08,-11.32 5.16,-7.69 4.16,1.1 1.52,3.91 6.1,-0.66 2.01,-3.93 6.83,5.48 2.93,-0.92 3.86,-6.6 1.99,-6.03 1.85,3.96 -0.78,9.05 3.1,0.75 2.76,6.51 0.99,10.12 -1.55,5.94 2.52,2.22 -0.26,5.29 5.16,1.93 2.65,8.51 5.16,3.37 1.08,3.33 -3.73,7.73 -6.16,-0.38 -0.67,3.02 -9.56,1.62 -4.52,5.2 3.11,3.49 2.72,6.46 5.74,6.05 -0.02,6.36 2.85,2.64 0.82,4.42 -1.6,5.6 z"
       fill-rule="evenodd"
       id="M37203"
       style="fill:#ffff80;fill-opacity:1;stroke:#000000;stroke-width:1.1582;stroke-dasharray:none;stroke-opacity:1" />
    <path
       d="m 162.14,176.21 6.23,3.05 -0.92,4.21 6.17,8.48 4.81,10.82 0.09,4.14 -6.91,8.29 -6.1,-2.07 -3.23,1.13 -2.77,6.32 0.09,4.37 -8.74,1.3 -3.02,-3.22 -7.04,-3.87 -2.46,-2.68 3.71,-4.76 -0.48,-4.02 1.94,-8.67 6.03,-0.98 1.88,-8.57 5.28,1.44 3.15,-1.98 -0.63,-6.87 z m -54.32,17.13 2.84,7.65 -4.24,1.84 -0.93,-3.38 z m 20.36,-28.87 2.21,3.41 -3.2,6.69 5.07,1.97 -0.53,6.51 -7.79,6.5 -5.91,-4.71 0.65,-7.04 -4.47,-6.05 -5,-3.42 1.37,-2.55 5.32,2.82 z m 130.1,195.38 -3.2,-7.95 0.91,-4.16 -2.26,-4.34 -7.37,1.65 -11.07,-20.25 -8.11,4.66 -3.19,-0.6 -1.13,-4.27 -4.79,2.53 -1.44,-3.91 1.59,-2.93 -3.05,-4.52 0.16,-5.08 -7.35,-12.88 3.38,-3.58 -0.91,-4.56 -4.52,-8.28 5.67,-4.12 6.09,7.73 2.96,-3.97 -2.02,-3.86 -3.74,-2.19 9.27,-4.95 6.11,12.68 6.07,-3.23 0.25,-4.52 8.15,-4.91 0.96,7.11 2.73,3.23 4.48,-4.07 5.74,3.98 1.13,4.29 11.25,9.48 3.81,3.79 3.24,9.97 8.73,-5.75 8.83,-2.67 5.32,0.08 9.06,-5.39 7.73,-2.02 4.43,16.86 7.76,2.36 1.1,3 -1.24,5.01 -0.68,7.16 -1.92,1.34 -2.48,6.83 -2.99,1.01 5.41,8.56 -2.7,3.56 1.06,16.39 -2.81,8.55 4.5,4.75 -2.39,2.73 -4.11,-1.84 -9.16,3.94 -12.31,1.94 -16.07,-2.23 0.68,-2.63 -7.83,-9.09 -8.39,-4.88 -5.92,-0.07 z m -34.95,-146.47 3.17,0.1 1.37,4.41 -6.05,3.92 -3.73,-0.32 -0.64,-5.76 2.78,-3.8 z m -3.39,-38.89 4.17,3.7 6.87,2.24 -0.5,3.55 3.81,1.82 -5.2,3.71 -5.63,6.38 -3.89,0.03 -4.8,3.66 -1.79,5.3 -5.89,3.69 -4.87,-1.14 -0.36,-5.63 2.59,-4.13 -2.89,-6.24 -3.47,-3.28 1.42,-5.42 -2.53,-1.58 0.93,-4.22 3.51,1.52 1.48,6.38 2.66,1.22 5.43,-2.4 z m 5.53,-6.49 4.45,3.75 -9.37,1.05 z"
       fill-rule="evenodd"
       id="M37202"
       style="fill:#ffff80;fill-opacity:1;stroke:#000000;stroke-width:1.1582;stroke-dasharray:none;stroke-opacity:1" />
    <path
       d="m 558.76,253.72 -0.82,4.02 -8.17,12.31 -5.33,-3.03 -13.81,-0.9 -2.9,-3.14 -4.56,7.77 1.34,6.32 -0.91,5.67 -3.06,1.25 0.22,5.92 -2.64,4.45 -4.09,20.24 -1.81,6.59 -0.86,14.06 -0.9,4.5 3.65,6.83 -2.99,3.62 -0.06,3.17 2.85,5.63 -2.02,5.02 -2.97,2.14 -2.68,5.41 -0.33,13.7 3.57,3.56 0.96,5.53 -0.63,10.2 4.01,2.76 -1.69,2.77 5.06,5.21 3.66,6.08 5.13,15.59 6.16,1.21 1.97,4.5 0.18,9.77 1.4,4.16 -5.8,4.78 -1.32,4.42 -7.72,6.95 -14.29,1.75 -2.62,2.24 -7.42,0.44 -11.28,-7.07 -1.76,0.16 -6.66,5.97 -0.89,2.92 -8.36,1.78 -2.63,-4.4 -4.31,-2.97 -3.08,0.63 -12.06,-12.17 -1.55,-6.13 -4.1,-5.36 -4.39,0.17 -3.23,-19.49 4.15,-3.1 -0.07,-4.93 2.34,-2.33 -0.44,-4.18 -3.12,-2.64 -0.75,-6.19 1.82,-7.95 -1.71,-2.23 -5.54,0.03 -3.62,-22.95 -3.54,-5.57 -3.95,-1.8 -9.1,-12.29 -0.83,-5.58 -3.37,-0.38 -3.49,-6.56 2.8,-11.59 4.44,-7.66 -0.96,-3.21 -4.03,1.38 -3.38,-4.39 -4.31,2.26 -7.4,0.81 -4.09,-2.66 -10.82,-3.47 -2.84,-2.34 -5.41,-0.79 0.03,-6.88 -2.65,-4.44 1.6,-5.6 -0.82,-4.42 -2.85,-2.64 0.02,-6.36 -5.74,-6.05 -2.72,-6.46 -3.11,-3.49 4.52,-5.2 9.56,-1.62 0.67,-3.02 6.16,0.38 3.73,-7.73 -1.08,-3.33 -5.16,-3.37 -2.65,-8.51 -5.16,-1.93 0.26,-5.29 -2.52,-2.22 1.55,-5.94 -0.99,-10.12 -2.76,-6.51 -3.1,-0.75 0.78,-9.05 -1.85,-3.96 3.68,1.41 1.74,3.99 4.38,4.09 -0.32,5.3 4.14,0.15 3.72,-5.66 10.25,3.44 3.48,7.8 0.39,5.61 6.75,-3.32 3.78,-5.29 2.13,0.68 2.1,5.84 9.11,6.57 1.6,4.37 5.28,2.11 3.07,-0.63 0.76,-4.25 3.61,1.56 1.68,3.28 8.68,1.83 5.12,-2.17 11.23,2.81 8.21,-3.38 2.23,3.23 9.15,1.69 -0.13,-3.38 3.49,-3.78 -0.72,-5.24 5.22,0.44 0.17,10.71 4.5,0.83 0.3,-11.13 3.98,2.68 -0.78,9.79 5.78,-3.28 4.75,-10.12 1.24,-6.75 -0.88,-3.4 1.02,-13.06 6.06,4.75 7.51,8.54 4.52,8.21 2,5.68 4.61,-0.6 -3.61,-13.59 -0.01,-4.19 5.63,-2.98 1.81,-6.3 3.38,-1.09 -2.37,-6.05 -3.23,2.38 -2.32,-5.6 1.21,-3.75 4.79,2.51 8.5,-4.6 5.76,2.87 7.77,6.01 6.75,3.04 3.59,6.88 -0.2,5.02 -4.57,10.49 -0.93,4.14 2.43,10.21 -1.82,3.91 -2.75,12.41 4.13,5.18 0.56,3.6 z m -147,-31.82 -3.91,-2.05 1.33,-5.46 4.99,3.63 z m 49.3,-56.26 2.66,12.49 -2.42,7.46 -4.74,0.93 -5.48,8.95 -3.76,1.86 -2.22,-4.1 1.45,-3.93 4.77,-6.07 1.17,-3.62 z m 7.93,-25.49 2.45,4.38 -0.91,7.33 -8.37,5.41 -0.8,-7.41 2.98,-8.06 z m 37.07,19.86 1.76,5.13 3.72,5.49 -3.39,3.4 -5.98,0.84 4.43,-7.22 -2.02,-6.4 z"
       fill-rule="evenodd"
       id="M37201"
       style="fill:#ffff80;fill-opacity:1;stroke:#000000;stroke-width:1.1582;stroke-dasharray:none;stroke-opacity:1" />
    <path
       d="m 329.8,319.3 8.58,-1.67 8.55,0.16 6.3,-4.62 2.05,3.56 4.37,-2.57 5.38,-10.12 -0.03,6.88 5.41,0.79 2.84,2.34 10.82,3.47 4.09,2.66 7.4,-0.81 4.31,-2.26 3.38,4.39 4.03,-1.38 0.96,3.21 -4.44,7.66 -2.8,11.59 3.49,6.56 3.37,0.38 0.83,5.58 9.1,12.29 3.95,1.8 3.54,5.57 3.62,22.95 5.54,-0.03 1.71,2.23 -1.82,7.95 0.75,6.19 3.12,2.64 0.44,4.18 -2.34,2.33 0.07,4.93 -4.15,3.1 3.23,19.49 -6.99,1.53 -4.76,-2.54 -0.93,-3.3 -5.54,-0.61 -4.72,-2.34 -3.98,2.12 -4.78,-3.55 -5.26,-7.37 -3.6,1.25 -2.26,-3.42 -6.65,-0.02 -5.47,-1.93 -7.47,0.29 -2.31,1.32 -2.63,-4.79 -0.49,-9.28 -4.05,-4.27 -2.93,-5.41 -4.32,-1.57 -0.59,-5.34 -5.43,-4.13 1.28,-2.69 -5.11,-3.37 -4.12,-0.93 -0.97,-3.25 -4.17,-0.5 -8.56,-4.32 -1.45,-4.85 -4.5,-4.75 2.81,-8.55 -1.06,-16.39 2.7,-3.56 -5.41,-8.56 2.99,-1.01 2.48,-6.83 1.92,-1.34 z"
       id="M37387"
       style="fill:#ffff80;fill-opacity:1;stroke:#000000;stroke-width:1.1582;stroke-dasharray:none;stroke-opacity:1" />
    <path
       d="m 264.82,256.46 1.97,4.05 4.82,4.21 1.85,4.84 3.69,4.75 -3.58,7.21 1.77,6.77 -4.31,5.77 -11.25,-9.48 -1.13,-4.29 -5.74,-3.98 -4.48,4.07 -2.73,-3.23 -0.96,-7.11 0.87,-2.96 6.95,-4.12 3.5,-3.91 4.77,-2.48 z m -7.29,-15.32 4.29,0.47 1.59,12.03 -4.34,0.6 -1.95,-10.34 z"
       fill-rule="evenodd"
       id="M37386"
       style="fill:#ffff80;fill-opacity:1;stroke:#000000;stroke-width:1.1582;stroke-dasharray:none;stroke-opacity:1" />
    <path
       d="m 549.77,270.05 3,2.74 1.64,5.1 -1.81,5.18 -3.45,4.64 1.72,4.76 -0.05,5.95 4.89,5.48 5.85,-0.11 -3.13,10.82 -2.28,4.97 3.75,8.95 -2.79,2.46 -0.62,4.68 4.15,4.05 1.5,7.44 -3.46,1.89 -0.48,3.28 3.39,5.3 -1.64,8.69 -2.83,3.65 -0.9,13.11 2.8,5.72 -1.64,3.67 0.79,6.52 -0.59,5.68 -7.21,12.05 -0.59,5.4 -8.48,2.35 -1.69,6.2 -7.47,7.51 -6.16,-1.21 -5.13,-15.59 -3.66,-6.08 -5.06,-5.21 1.69,-2.77 -4.01,-2.76 0.63,-10.2 -0.96,-5.53 -3.57,-3.56 0.33,-13.7 2.68,-5.41 2.97,-2.14 2.02,-5.02 -2.85,-5.63 0.06,-3.17 2.99,-3.62 -3.65,-6.83 0.9,-4.5 0.86,-14.06 1.81,-6.59 4.09,-20.24 2.64,-4.45 -0.22,-5.92 3.06,-1.25 0.91,-5.67 -1.34,-6.32 4.56,-7.77 2.9,3.14 13.81,0.9 z"
       id="M37341"
       style="fill:#ffff80;fill-opacity:1;stroke:#000000;stroke-width:1.1582;stroke-dasharray:none;stroke-opacity:1" />
    <path
       d="m 383.96,109.96 1.14,6.53 -1.75,1.76 -5.49,-0.51 -2,-6.44 4.97,0.51 z m -10.21,-16.87 3.87,6.44 -6.69,-1.9 z m 17.71,-36.5 1.19,7.31 -4.34,-0.49 -0.17,-3.6 z m -3.67,38.08 1.65,3.31 9.09,-2.65 0.7,3.87 4.82,4.54 9.4,7.08 0.29,6.48 4.64,2.22 5.84,-1.51 -2.42,7.05 -5.6,2.53 -15.95,-1.16 -4.13,-3.32 -2.87,0.42 -2.62,-4.33 1.1,-4.54 -4.04,-3.16 -2.64,-6.47 -0.99,-11.17 z m 2.18,-4.37 2.99,5.52 -3.78,0.41 z m 5.83,-15.48 3.79,6.42 -3.11,0.77 -2.44,-5.36 z m 30.57,55.87 -3.36,6.53 -2.82,0.56 -2.93,-4.84 3.53,-2.1 z m -8.48,-32.54 3.71,1.77 -3.82,9.82 -3.94,-0.47 -0.94,-8.05 z m 16.69,-35.37 -2.52,21.16 -1.39,6.67 -3.27,-1.28 -1.43,-5.72 -2.33,-0.51 -0.45,-7.44 1.23,-2.11 6.14,-2.17 0.4,-5.46 z"
       fill-rule="evenodd"
       id="M37364"
       style="fill:#ffff80;fill-opacity:1;stroke:#000000;stroke-width:1.1582;stroke-dasharray:none;stroke-opacity:1" />
    <path
       d="m 588.53,87.82 1.63,-5.99 19.06,-6.92 6.82,-9.29 1.32,-4.74 6.88,-3.79 4.01,2.99 4.59,-0.46 2.34,2.91 3.79,-0.31 0.74,-3.46 -4.37,-1.2 3.22,-7.3 3.23,0.37 -1.38,5.44 6.04,0.78 7.53,-3.77 3.61,1.41 0.37,-5.63 7.02,1.82 13.25,-0.37 2.82,-5.22 5.41,0.17 4.92,-16.84 2.12,-4.43 -0.54,-5.18 3.08,-5.7 5.28,-3.01 3.12,-7.64 3.82,0.87 6.92,-2.33 2.33,3.79 -1.17,3.44 6.89,0.3 2.14,-3.58 6.18,0.35 -0.3,2.96 -6.95,-0.03 -6.37,7.1 -0.26,4.8 -2.91,2.7 0.81,3.35 5.61,2.65 2.94,-0.46 4.42,10.34 -4.07,5.19 0.86,13.2 -1.92,4.07 -3.64,1.85 -2.37,6.05 2.88,2.28 0.58,5.84 -7.39,5.09 0.19,3.64 4.29,5.7 4.95,1.55 -2.05,5.2 1.31,2.78 -2.98,6.3 0.07,3.16 -8.1,10.82 -4.16,3.93 4.36,10.03 -2.25,5.21 -3.96,-2.3 -3.06,-5.96 0.17,-5.45 -9.02,-12.89 -6.64,2.59 -6.67,-2.35 -3.71,1.57 -0.27,3.86 -6.63,6.21 -6.9,1.22 2.45,-4.44 -2.23,-2.67 -1.44,-7.17 6.03,-3.47 9.53,2.77 5.76,-3.36 4.19,2.87 3.93,0.64 0.71,-5.46 -1.28,-6.6 -5.06,-6.83 -8.07,0.91 -4.05,-3.33 -3.21,4.15 -14.53,7.25 -7.35,1.18 -2.29,7.97 -4.76,6.27 2.69,5.04 -6.22,8.44 -3.68,2.87 -3.99,12.45 3.96,3.02 -4.9,5.96 -5.57,3.53 -7.17,-0.16 -1.84,-5.81 -3.86,-4.2 1.56,-2 5.71,-1.4 5.05,-4.51 -2.15,-6.19 -8.16,1.87 -2.94,-1.87 3.71,-4.52 5.9,-1.41 3.86,-7.05 -0.68,-5.87 3.38,-2.34 -1.06,-5.21 -4.07,-7.71 -5.72,1.76 -0.09,-3.75 3.48,-4.27 -4.43,-4.45 -5.74,2.15 -3.23,4.6 -5.28,-7.67 -4.15,-1.76 -2.77,2.42 z"
       id="M37324"
       style="fill:#ffff80;fill-opacity:1;stroke:#000000;stroke-width:1.1582;stroke-dasharray:none;stroke-opacity:1" />
    <path
       d="m 525.83,88.85 -2.22,5.93 -6.71,3.38 -8.46,-2.23 2.02,-4.77 8.42,-1.53 2.11,1.3 z m -36.95,-18.49 1.15,4.72 5.65,4.53 7.93,0.75 0.09,11.29 -8,6.51 -3.09,3.77 -0.59,3.87 -4.35,5.65 -2.65,1.32 -4.88,-3.2 -4.56,-5.58 -4.33,-3.27 -2.81,0.51 -9.22,-2.33 -7.08,-6.79 -4.75,-0.35 2.67,-4.54 0.48,-5.42 9.14,1.1 5.66,-0.78 9.32,-9.48 6.52,0.22 5.03,-3.42 z m 58.18,-22.59 -2.41,4.62 -4.15,-1.41 -0.03,-3.03 z m 157.38,-45.31 -3.12,7.64 -5.28,3.01 -3.08,5.7 0.54,5.18 -2.12,4.43 -4.92,16.84 -5.41,-0.17 -2.82,5.22 -13.25,0.37 -7.02,-1.82 -0.37,5.63 -3.61,-1.41 -7.53,3.77 -6.04,-0.78 1.38,-5.44 -3.23,-0.37 -3.22,7.3 4.37,1.2 -0.74,3.46 -3.79,0.31 -2.34,-2.91 -4.59,0.46 -4.01,-2.99 -6.88,3.79 -1.32,4.74 -6.82,9.29 -19.06,6.92 -1.63,5.99 -4.68,-2.17 -1.96,3.57 -6.48,2.11 -2.89,4.01 -4.97,-1.08 -4.12,3.2 -2.45,9.39 -4.76,2.56 -2.98,-1.3 -6.71,2.4 -3.72,-7.48 -5.37,-1.96 2.09,-2.76 0.86,-6.35 10.26,-14.04 9.26,-1.49 5.08,4.69 3.15,-2.67 -4.45,-3.04 -5.16,-5.93 0.95,-5.71 -4.98,-4.73 3.18,-1.95 2.04,-5.25 -1.47,-2.28 4.67,-7.95 7.13,9.15 5.96,2.01 5.57,-5.21 9.74,0.68 9.42,-3.08 9,-6.93 5.13,2.64 8.44,-3.28 2.07,-5.36 5.86,-4.89 6.77,-3.65 0.48,-5.11 4.96,-4.34 4.68,-1.52 0.68,4.29 3.62,2.01 19.47,0.92 8.29,-2.6 3.23,-5.73 5.56,-4.8 4.08,-0.76 8.43,-4.37 z"
       fill-rule="evenodd"
       id="M37322"
       style="fill:#ffff80;fill-opacity:1;stroke:#000000;stroke-width:1.1582;stroke-dasharray:none;stroke-opacity:1" />
    <path
       d="m 258.65,500.83 -3.37,-11.24 1.54,-6.54 -2.58,-5.9 -1.26,-8 2.25,-6.4 -1.28,-3.67 0.46,-6.47 -1.16,-7.02 -6.59,-13.43 -5.21,4.55 -1.59,-3.42 2.76,-7.53 -0.95,-7.02 3.01,-5.58 0.71,-7.41 2.06,4 5.17,3.3 6.06,0.19 4.29,-7.36 3.15,0.86 4.6,-4.53 -2.49,-4.48 -3.98,-11.07 2.34,-2.44 -3.3,-3.51 -4.19,0.4 -2.34,-2.3 0.05,-6.2 -5.29,-9.59 3.06,-3.72 3.7,0.55 3.41,5.47 5.92,0.07 8.39,4.88 7.83,9.09 -0.68,2.63 16.07,2.23 12.31,-1.94 9.16,-3.94 4.11,1.84 2.39,-2.73 1.45,4.85 8.56,4.32 4.17,0.5 0.97,3.25 4.12,0.93 5.11,3.37 -1.28,2.69 5.43,4.13 0.59,5.34 4.32,1.57 2.93,5.41 4.05,4.27 0.49,9.28 2.63,4.79 2.31,-1.32 7.47,-0.29 5.47,1.93 6.65,0.02 2.26,3.42 3.6,-1.25 5.26,7.37 4.78,3.55 3.98,-2.12 4.72,2.34 5.54,0.61 0.93,3.3 4.76,2.54 6.99,-1.53 4.39,-0.17 4.1,5.36 1.55,6.13 12.06,12.17 -4.63,3.86 -2.05,3.62 -1.92,9.98 -7.68,3.67 -4.92,5.8 1.9,4.71 -5.25,3.12 -9.92,-2.42 -7.19,6.22 -0.61,5.96 -6.61,2.75 -4.53,-2.38 -4.13,0.45 -6.18,-1.39 -3.41,2.89 -3.49,-8.68 -8.67,-1.31 -2.31,-5.92 -11,-6.74 0.47,-7.66 -4.25,-3.07 -1.69,-3.71 1.87,-7.09 -6.82,-1.18 -8.45,1.69 -9.37,10.55 -8.94,4.59 -7.41,-8.58 -6.95,3.76 -4.18,0.57 -5.42,3.12 -5.97,1.04 -3.55,-5.48 -7.15,1.24 -4.67,5.29 -6.41,4.42 -7.01,-2.93 z"
       id="M37406"
       style="fill:#ffff80;fill-opacity:1;stroke:#000000;stroke-width:1.1582;stroke-dasharray:none;stroke-opacity:1" />
    <path
       d="m 121.58,254.61 12.92,8.58 2.22,7.28 -2.21,4.67 -6.03,-0.51 -2.37,-1.72 -5.31,-9.35 -2.42,-7.69 z m -16.66,-9.49 -4.62,0.75 -0.75,-4.27 4.46,0.76 z m -21.2,-20.49 1.12,4.11 7.37,11.31 -3.77,8.05 -4.2,0.48 -2.31,-2.78 0.72,-8.95 -2.98,-9.61 z m 93.15,127.7 -7.73,3 -3.92,-5.82 -2.17,-0.11 -3.42,-5.58 3.76,-6.67 6.02,-6.34 13.58,-8.75 1.2,-3.96 -5.18,-6.49 0.21,-7.78 4.02,-2.5 6.97,9.77 -0.07,-5.92 -2.98,-4.79 5.6,-3.63 4.28,7.02 5.74,-3.55 -1.13,-3.21 3.35,-2.05 2.98,2.83 7.35,12.88 -0.16,5.08 3.05,4.52 -1.59,2.93 1.44,3.91 -1.66,1.17 2.33,6.73 -6.67,2.4 -3.84,-4 -9.63,4.85 1.61,5.96 -4.3,3.17 -2.96,-5.3 -5.36,-1.2 -3.58,4.41 -1.19,4.56 z"
       fill-rule="evenodd"
       id="M37404"
       style="fill:#ffff80;fill-opacity:1;stroke:#000000;stroke-width:1.1582;stroke-dasharray:none;stroke-opacity:1" />
    <path
       d="m 245.39,405.75 -6.04,-6.06 12.76,-10.08 -1.46,-2.14 -4.8,-12.75 -2.06,-8.74 7.73,-2.96 5.29,9.59 -0.05,6.2 2.34,2.3 4.19,-0.4 3.3,3.51 -2.34,2.44 3.98,11.07 2.49,4.48 -4.6,4.53 -3.15,-0.86 -4.29,7.36 -6.06,-0.19 -5.17,-3.3 z"
       id="M37403"
       style="fill:#ffff80;fill-opacity:1;stroke:#000000;stroke-width:1.1582;stroke-dasharray:none;stroke-opacity:1" />
  </g>
</svg>
