<?xml version="1.0" encoding="UTF-8" standalone="no"?>
<svg
   version="1.2"
   width="546.04193"
   height="599.99976"
   viewBox="0 0 546.04193 599.99976"
   stroke-linecap="round"
   stroke-linejoin="round"
   id="svg6324"
   sodipodi:docname="ky.svg"
   inkscape:version="1.2 (dc2aedaf03, 2022-05-15)"
   xmlns:inkscape="http://www.inkscape.org/namespaces/inkscape"
   xmlns:sodipodi="http://sodipodi.sourceforge.net/DTD/sodipodi-0.dtd"
   xmlns="http://www.w3.org/2000/svg"
   xmlns:svg="http://www.w3.org/2000/svg">
  <defs
     id="defs6328" />
  <sodipodi:namedview
     id="namedview6326"
     pagecolor="#505050"
     bordercolor="#eeeeee"
     borderopacity="1"
     inkscape:showpageshadow="0"
     inkscape:pageopacity="0"
     inkscape:pagecheckerboard="0"
     inkscape:deskcolor="#505050"
     showgrid="false"
     inkscape:zoom="0.91695108"
     inkscape:cx="273.73325"
     inkscape:cy="299.90695"
     inkscape:window-width="1920"
     inkscape:window-height="1009"
     inkscape:window-x="-8"
     inkscape:window-y="-8"
     inkscape:window-maximized="1"
     inkscape:current-layer="svg6324" />
  <g
     id="ky"
     transform="matrix(0.68301003,0,0,0.68301003,-0.18304927,-0.18306882)"
     style="fill:#ffff80;fill-opacity:1;stroke:#000000;stroke-width:1.46411;stroke-dasharray:none;stroke-opacity:1">
    <path
       d="m 577.69,686.38 -0.51,-7.31 -5.26,-4.19 0.28,-5.54 -5.11,-0.72 -1.72,-4.21 -4.59,0.17 -6.5,3.37 7.9,14.29 -10.05,1.79 -3.53,-0.98 -10.24,10.38 -3.49,-0.95 -7.26,3.58 -6.8,-4 -6.15,-0.23 -5.71,5.93 -9.4,-1.7 1.56,-4.97 4.91,-3.2 5.33,-15.53 -3.69,-10.09 7.14,-2.6 11.57,-1.02 -2.08,-4.18 0.54,-13.94 4.74,-2.89 0.43,-4.93 -6.87,-9.49 2.29,-3.53 -3.23,-6.1 -5.9,-7.02 -5.75,-2.04 -0.09,-10.95 3.04,-7.44 -2.13,-2.93 -6.93,1.36 -3.93,2.92 -1.97,-6.31 -6.33,-5.25 1.23,-5.68 3.99,-8.38 4.83,1.37 6.28,-3.85 -1.7,-6.14 -5.42,-6 -4.4,1.79 -3.36,-5.48 -0.87,-6.04 -8.91,-2.87 -1.55,-3.93 -4.92,4.02 -5.94,-7.63 2.24,-9.22 -0.5,-6.81 8.19,-10.17 -0.26,-1.87 6.3,-11.42 0.85,-3.6 4.66,-4.47 3.56,-6.03 0.09,-7.81 -4.52,-3.51 6.14,-7.06 6.38,-2.69 7.03,2.32 0.65,-6.27 6.36,-2.31 -0.55,-7.66 7.43,-10.36 7.95,-1.6 1.92,-2.59 23.1,6.5 18.79,-8.27 4.98,-0.21 0.42,-5.01 3.9,-5.1 -1.54,-4.61 4.57,-3.39 8.19,0.87 11.86,-2.35 5.78,4.46 4.47,-4.86 -2.52,-3.65 -0.13,-8.69 6.81,-2.34 5.01,-10.85 10.71,6.31 2.48,10.04 4.3,3.62 -0.9,4.71 6.38,11.72 3.33,2.18 10.02,-5.08 1.37,-4.65 6.06,2.46 -4.15,6.25 -1.37,5.2 -5.22,6.26 -4.76,19.42 -0.12,9.48 -4.33,2.61 0.15,10.08 7.22,16.82 -0.85,7.98 4.13,14.44 6.23,2.41 -2.36,10.82 -2.61,3.53 2.39,6.2 -1.65,11.2 -4.37,8.68 -0.22,6.03 -5.27,9.13 3.2,4.23 -1.01,5.76 -4.29,6.22 2.64,7.44 -0.67,5.53 -5.25,1.39 -7.39,5.28 -0.33,4.26 6.14,5.31 2.34,5.92 -1.13,3.88 5.4,1.25 0.63,7.95 -1.85,2.37 2.58,6.68 -6.06,8.24 9.89,0.96 4.65,-1.46 -0.1,5.64 5.1,3.92 -2.99,7.05 7.3,8.79 0.44,2.41 7.71,3.2 2.01,5.08 -10.55,-2.78 -2.11,-5.09 -5.04,0.14 -3.21,6.9 1.87,7.36 -3.48,3.18 -9.71,0.16 -0.49,6.45 -7.52,0.6 -4.87,-8.04 -8.78,1.64 -3.65,3.37 -1.59,10.9 -9.15,0.69 -10.15,6.56 -5.24,3.19 -3.57,-5.88 -4.96,5.37 -5.55,0.31 -8.27,5.13 -2.41,-0.91 2.76,5.18 0.91,2.91 0.75,1.07 4.09,2.29 2.67,5.61 -0.16,2.72 -5.83,-4.46 -5.53,-1.94 -2.34,-8.48 -5.85,-4.47 2.24,-7.66 5.11,-6.43 0.28,-10.63 -0.51,-5.34 z"
       id="M26100"
       style="fill:#ffff80;fill-opacity:1;stroke:#000000;stroke-width:1.46411;stroke-dasharray:none;stroke-opacity:1" />
    <path
       d="m 729.83,759.49 -7.36,4.42 -7.55,10.87 -8.17,-1.24 -2.66,5.37 -6.65,4.36 -5.18,-2.54 -2.04,4.96 -5.51,2.56 -11.68,2.25 -0.85,-6.29 -4.87,-3.65 -3.2,0.87 -4.42,-17.62 -3.82,-1.14 -1.44,-8.53 -2.51,-5.3 9.06,-4.69 3.76,-8.98 6.25,-1.55 3.12,-6.44 2.63,-0.53 9.86,6.83 4.88,2 v 4.71 l 7.31,3.33 6.53,-4.47 2.13,-5.38 7.54,-1.14 8.06,-5.48 3.44,5.63 1.63,9.71 -1.76,7.37 z"
       id="M26344"
       style="fill:#ffff80;fill-opacity:1;stroke:#000000;stroke-width:1.46411;stroke-dasharray:none;stroke-opacity:1" />
    <path
       d="m 664.11,781.43 3.2,-0.87 4.87,3.65 0.85,6.29 3.93,4.73 0.49,4.21 -12.58,2.17 -8.07,-0.52 -5.79,1.65 -1.87,3.05 -8.17,2.65 -8.4,1.23 -1.7,-5.03 2.66,-11.74 -7.45,-8.86 11.3,-0.45 4.55,-2.71 11.95,-0.65 z"
       id="M26343"
       style="fill:#ffff80;fill-opacity:1;stroke:#000000;stroke-width:1.46411;stroke-dasharray:none;stroke-opacity:1" />
    <path
       d="m 784.73,786.06 -0.72,3.41 -5.82,1.83 -5.59,10.66 0.7,3.05 7.29,3.5 0.24,7.47 7.32,2.33 -0.18,6.2 -2.65,5.69 0.58,7.24 5.29,-0.26 0.76,5.55 7.05,7.22 -5.32,5.06 -1.61,11.5 -6.76,5.18 -1.67,6.2 -8.64,-1.37 -0.79,-5.06 -4.97,-2.68 -3.67,3.53 -9.06,-1.89 -0.05,-8.95 -3.43,-8.78 -7.47,-2.75 1.51,-6.56 -1.59,-2.28 1.49,-7.91 3.48,-1 -0.25,-9.43 1.11,-6.21 -5.42,0.1 -2.22,-11.36 -4.59,0.85 -5.66,-2.93 1.31,-7.76 4.27,-2.72 5.48,1.61 2.93,-4.19 14.78,-9.61 11.55,3.15 4.79,-0.2 z"
       id="M26367"
       style="fill:#ffff80;fill-opacity:1;stroke:#000000;stroke-width:1.46411;stroke-dasharray:none;stroke-opacity:1" />
    <path
       d="m 632.57,809.67 1.91,3.41 0.24,12.17 2.76,8.2 -1.74,7.89 -12.74,1.89 -6.65,4.15 -0.66,4.17 8.88,-0.2 1,5 -7.72,3.37 -0.17,4.31 -15.57,-4.14 1.51,-6.21 -11.9,-10.04 -1.68,-2.87 3.26,-3.91 5.17,-0.51 4.29,-5.45 -1.18,-4.41 3.98,-8.22 7.74,-1.41 6.89,0.97 2.98,-7.23 z"
       id="M26366"
       style="fill:#ffff80;fill-opacity:1;stroke:#000000;stroke-width:1.46411;stroke-dasharray:none;stroke-opacity:1" />
    <path
       d="m 673.03,790.5 11.68,-2.25 5.51,-2.56 2.04,-4.96 5.18,2.54 6.65,-4.36 2.66,-5.37 8.17,1.24 7.55,-10.87 7.36,-4.42 7.31,-2.44 9.95,7.1 -0.39,6.15 4.21,0.02 11.36,-3.09 6.99,-0.69 -1.96,8.42 2.03,5.05 6.75,-0.04 8.16,3.9 0.49,2.19 -6.2,-2.57 -4.79,0.2 -11.55,-3.15 -14.78,9.61 -2.93,4.19 -5.48,-1.61 -4.27,2.72 -1.31,7.76 -0.54,4.6 -7.15,16.23 -7.99,-1.76 -6.18,3.7 -3.8,4.24 -8.63,-1.17 2.09,-5.78 -2.72,-4.83 -5.34,8.42 -6.79,-4.09 -3.48,-7.61 -4.68,-3.71 -1.94,-5.83 1.18,-6.18 -0.49,-4.21 z"
       id="M26365"
       style="fill:#ffff80;fill-opacity:1;stroke:#000000;stroke-width:1.46411;stroke-dasharray:none;stroke-opacity:1" />
    <path
       d="m 733.42,803.21 5.66,2.93 4.59,-0.85 2.22,11.36 5.42,-0.1 -1.11,6.21 0.25,9.43 -3.48,1 -1.49,7.91 1.59,2.28 -1.51,6.56 -2.51,-2.17 -5.16,1.87 -2.23,-6.01 -9.21,7.51 -5.77,1.13 -6.2,-5.64 3.83,-6.61 -4.57,-1.65 -3.41,0.59 -2.57,-8.74 3.8,-4.24 6.18,-3.7 7.99,1.76 7.15,-16.23 z"
       id="M26364"
       style="fill:#ffff80;fill-opacity:1;stroke:#000000;stroke-width:1.46411;stroke-dasharray:none;stroke-opacity:1" />
    <path
       d="m 569.9,713.65 -2.24,7.66 -6.45,5.38 -7.22,3.46 -2.32,-2.03 -3.05,-8.02 -4.38,-4.07 1.2,-3.11 5.76,-3.11 6.08,0.07 z"
       id="M26303"
       style="fill:#ffff80;fill-opacity:1;stroke:#000000;stroke-width:1.46411;stroke-dasharray:none;stroke-opacity:1" />
    <path
       d="m 651.92,748.84 2.51,5.3 -2.37,-1.25 z m -64.71,-8.18 0.16,-2.72 -2.67,-5.61 -4.09,-2.29 -0.75,-1.07 -0.91,-2.91 -2.76,-5.18 2.41,0.91 8.27,-5.13 5.55,-0.31 4.96,-5.37 3.57,5.88 5.24,-3.19 3.62,9.51 -4.22,2.41 -0.15,5.91 4.03,-0.04 0.85,9.61 -4.97,-0.03 0.15,4.83 -6.95,0.22 -1.04,-2.47 z"
       fill-rule="evenodd"
       id="M26322"
       style="fill:#ffff80;fill-opacity:1;stroke:#000000;stroke-width:1.46411;stroke-dasharray:none;stroke-opacity:1" />
    <path
       d="m 219.31,142.72 -0.55,7.17 -2.27,3.86 -3.96,12.48 3.15,3.3 -7.04,4.54 -4.33,-0.62 -1.88,5.82 3.78,3.27 -1.85,2.1 -2.67,-0.5 -4.48,-2.54 -6.09,5.7 0.41,6.29 3.29,0.52 2.89,6.66 4.44,4.37 7.02,-0.9 1,10.43 -3.35,5.69 -7.38,1.89 -0.2,6.95 -8.67,9.29 -0.42,6.72 -9.36,5.16 0.91,4.51 -9.75,4.98 -3,4.74 0.85,5.86 -8.42,5.69 -15.93,-0.83 -6.24,-3.2 -1.29,-2.78 -6.25,1.12 -2.99,-3.57 -2.89,-14.95 -3.94,-3.05 3.34,-3.8 1.35,-10.16 -6.5,-2.9 5.92,-5.04 1.12,-13.34 -4.52,-8.7 0.61,-5.46 11.17,4.61 9.79,-4.77 3.71,0.45 13.06,-9.65 14.1,-0.59 2.42,1.99 6.62,-8.53 2.11,-0.85 3.96,-11.86 2.36,-0.9 3.4,-8.54 6.37,-1.65 5.51,-4.82 -1.3,-2.16 4.93,-9 z"
       id="M26465"
       style="fill:#ffff80;fill-opacity:1;stroke:#000000;stroke-width:1.46411;stroke-dasharray:none;stroke-opacity:1" />
    <path
       d="m 281.52,92.76 -4.09,-5.61 0.44,-4.33 4.94,-2.73 0.64,-5.78 -6.74,-4.16 -9.92,5.01 -4.91,0.1 -4.15,3 -8.02,-3.5 -3.85,1.86 -4.98,-1.82 0.2,-3.34 -9.96,-3.43 -2.54,0.78 -4.14,-10.77 3.07,-2.11 -0.41,-4.59 4.39,-6.35 -1.43,-5.24 6.31,-3.36 0.69,-4.13 8.06,-4.22 8.85,-19.24 6.94,7.48 4.57,1.14 1.53,7.24 3.02,4.69 6.25,-0.24 4.79,4.03 -0.46,6.04 7.31,3.24 3.71,8.13 -1.4,8.86 7.65,5.88 5.08,1.21 1.43,4.47 -6.51,12.11 -0.23,4.46 3.24,8.6 -6.85,2.18 0.88,-8.28 -4.47,-4.14 -2.98,4.14 z"
       id="M26463"
       style="fill:#ffff80;fill-opacity:1;stroke:#000000;stroke-width:1.46411;stroke-dasharray:none;stroke-opacity:1" />
    <path
       d="m 632.57,809.67 8.4,-1.23 8.17,-2.65 1.87,-3.05 5.79,-1.65 8.07,0.52 12.58,-2.17 -1.18,6.18 1.94,5.83 4.68,3.71 3.48,7.61 6.79,4.09 5.34,-8.42 2.72,4.83 -2.09,5.78 8.63,1.17 2.57,8.74 3.41,-0.59 -3.95,0.87 -2.94,7.99 -5.83,8.89 -3.76,1.66 -4.81,17.4 -3.35,-3.39 -6.02,-0.21 -8.56,6.2 -9.53,0.22 -6.69,-4.73 -8.24,-1.51 -4.58,1.59 -10.75,-8.25 -7.82,-2.34 -9.23,1.27 0.17,-4.31 7.72,-3.37 -1,-5 -8.88,0.2 0.66,-4.17 6.65,-4.15 12.74,-1.89 1.74,-7.89 -2.76,-8.2 -0.24,-12.17 z"
       id="M26214"
       style="fill:#ffff80;fill-opacity:1;stroke:#000000;stroke-width:1.46411;stroke-dasharray:none;stroke-opacity:1" />
    <path
       d="m 629.07,376.48 -5.01,10.85 -6.81,2.34 0.13,8.69 2.52,3.65 -4.47,4.86 -5.78,-4.46 -11.86,2.35 -8.19,-0.87 -4.57,3.39 1.54,4.61 -3.9,5.1 -0.42,5.01 -4.98,0.21 -18.79,8.27 -23.1,-6.5 -1.92,2.59 -7.95,1.6 -7.43,10.36 0.55,7.66 -6.36,2.31 -0.65,6.27 -7.03,-2.32 -6.38,2.69 -6.14,7.06 4.52,3.51 -0.09,7.81 -3.56,6.03 -4.66,4.47 -0.85,3.6 -6.3,11.42 0.26,1.87 -8.19,10.17 0.5,6.81 -2.24,9.22 5.94,7.63 4.92,-4.02 1.55,3.93 8.91,2.87 0.87,6.04 3.36,5.48 4.4,-1.79 5.42,6 1.7,6.14 -6.28,3.85 -4.83,-1.37 -7.55,-3.92 -4.8,1.06 -6.48,-2.64 -4.83,4.18 -0.96,4.61 -6.21,4.5 1.03,8.24 2.5,3.61 -0.42,4.83 -5.55,2.24 -6.17,0.13 -8.31,3.38 -1.78,-3.31 -6.05,0.24 -6.12,-1.86 0.06,-4.71 -5.5,0.99 -8.85,-0.89 -4.87,-2.71 -3.09,4.7 1.39,4.86 -12.85,15.31 -8.05,4.13 -5.64,9.88 -5.74,-3.11 -18.59,3.04 -3.19,-3.87 -4.67,1.18 -2.75,-2.34 -1.36,-6.7 -5.87,-5.04 -1.68,-7.83 5.62,-4.87 -0.36,-4.21 6.99,-5.32 8.31,-2.9 0.77,-14.45 -6.05,-3.44 5.43,-5.43 7.99,-2.17 5.9,2.28 4.77,-8.04 -1.1,-3.63 7.48,-0.71 6.04,-5.79 0.96,-9.51 4.6,-6.01 -2.48,-6.38 4.52,-2.22 1.45,-7.87 3.46,-1.77 -2.84,-6.71 0.93,-6.91 -4.75,-1.54 -6.02,-5.07 7.39,-19.05 -0.59,-6.6 -3.01,-4.88 1.21,-12.31 7.53,-3.19 -1.97,-5.61 -3.84,-4.01 3.23,-19.07 7.82,-4.97 3.78,-5.61 -2.76,-4.87 4.01,-7.96 14.33,-8.85 -2.95,-7.44 0.54,-7.59 1.24,-4.59 3.61,-1.07 -3.55,-8.83 10.88,-3.97 3.62,-4.08 8.42,-1.28 0.07,-5.07 16.2,0.79 4.71,-0.7 3.93,2.51 5.26,-0.5 5.67,5.42 3.85,-1.82 8.8,-0.83 10.95,1.31 8.79,5.06 3.82,-2.46 6.73,5.55 5.94,2.94 4.57,-0.59 5.95,5.92 15.93,5.03 6.5,-3.53 1.38,-4.16 4.1,-1.81 4.06,2.91 7.57,0.49 5.19,-6.38 7.37,3.68 9.07,-1.29 -3.14,9.38 11.17,3.27 3.28,8.05 z"
       id="M26213"
       style="fill:#ffff80;fill-opacity:1;stroke:#000000;stroke-width:1.46411;stroke-dasharray:none;stroke-opacity:1" />
    <path
       d="m 219.31,142.72 -7.93,0.5 -4.93,9 1.3,2.16 -5.51,4.82 -6.37,1.65 -3.4,8.54 -2.36,0.9 -3.96,11.86 -2.11,0.85 -6.62,8.53 -2.42,-1.99 -14.1,0.59 -13.06,9.65 -3.71,-0.45 -9.79,4.77 -11.17,-4.61 -6.62,-2.27 -6.46,1.7 -6.34,3.55 -9.74,-0.55 -3.44,3.91 -4.15,0.89 -11.19,7.08 -1.22,4.34 -14.23,0.27 -8.04,2.07 -4.48,-3.8 -0.14,-4.41 -5.35,-4.94 2.78,-8.54 -2.99,-5.6 -7.8,-3.65 -1.5,-5.47 -13.23,-6.54 -3.53,-8.14 -6.47,-5.84 -2.23,-4.81 -5.8,-1.94 7.66,-8.28 1.27,-7.44 4.32,-10.45 -4.47,-12.43 -2.02,-12.75 4.26,-6.5 5.48,-0.94 4.62,3.45 -1.32,8.24 10.82,-1.57 6.17,2.68 9.46,-0.89 13.24,-5.11 13.27,-7.92 2.41,-3.46 -0.02,-7.61 4.09,-0.54 1.31,-5.84 4.67,-0.99 3.14,-6.12 8.59,0.95 2.43,-2.33 8.04,2.95 3.28,-1.71 6.63,0.43 -0.05,-4.59 4.7,-4.05 3.52,2.19 7.5,-3.78 8.38,-6.98 1.36,-4.38 4.09,-0.04 7.47,-6.34 1.7,-4.97 -1.84,-6.2 6.41,-2.97 4.09,1.37 5.03,-2.13 10.7,-1.47 7.23,-5.64 7.72,2.18 16.71,-6.13 1.86,-3.27 5.94,0.6 1.69,-3.2 6.75,-2.5 7.25,2.97 8.78,-5.37 0.65,-6.92 8,7.8 -8.85,19.24 -8.06,4.22 -0.69,4.13 -6.31,3.36 1.43,5.24 -4.39,6.35 0.41,4.59 -3.07,2.11 4.14,10.77 2.54,-0.78 9.96,3.43 -0.2,3.34 -4.2,2.78 -2.17,5.46 -3.83,4.01 4.67,8.19 -5.61,-0.28 -2.73,-4.06 -4.07,1.72 -4.4,-2.45 -0.57,8.83 -2.95,3.56 -7.49,0.98 -3.44,8.82 0.31,7.89 3.21,4.65 6.5,5.07 z m -192.48,-25.65 9.02,4.42 -8.1,14.92 6.85,6.02 1.07,-7.89 5.45,-2.7 2.31,-7.06 7.28,-3.11 -2.24,-5.8 -5.26,-2.69 -12.55,1.05 z"
       fill-rule="evenodd"
       id="M26212"
       style="fill:#ffff80;fill-opacity:1;stroke:#000000;stroke-width:1.46411;stroke-dasharray:none;stroke-opacity:1" />
    <path
       d="m 626.08,784.04 7.45,8.86 -2.66,11.74 1.7,5.03 -9.4,0.93 -2.98,7.23 -6.89,-0.97 -7.74,1.41 -3.98,8.22 1.18,4.41 -4.29,5.45 -5.17,0.51 -3.26,3.91 -2.24,-2.42 -3.15,-18.87 8.04,-8.42 3.94,-10.47 -10.35,-17.42 -5.21,-2.9 -3.05,-4.55 1.15,-6.36 4.84,-4.74 0.76,-4.03 16.06,1.14 5.94,10.86 10.41,2.3 5.58,3.62 z"
       id="M26211"
       style="fill:#ffff80;fill-opacity:1;stroke:#000000;stroke-width:1.46411;stroke-dasharray:none;stroke-opacity:1" />
    <path
       d="m 567.66,721.31 5.85,4.47 2.34,8.48 5.53,1.94 5.83,4.46 10.3,2.96 1.04,2.47 1.94,2.25 0.34,13.39 -16.06,-1.14 -0.76,4.03 -4.84,4.74 -1.15,6.36 -4.36,-6.69 -1.33,-5.35 -5.28,-4.15 -4.41,2.9 -2.68,-4.17 -0.38,-12.36 -5.68,-2.99 -1.76,-7.47 1.85,-5.29 7.22,-3.46 z"
       id="M26210"
       style="fill:#ffff80;fill-opacity:1;stroke:#000000;stroke-width:1.46411;stroke-dasharray:none;stroke-opacity:1" />
    <path
       d="m 527.61,696.06 7.26,-3.58 3.49,0.95 10.24,-10.38 3.53,0.98 10.05,-1.79 2.67,4.31 0.87,9.95 9.57,0.09 -0.28,10.63 -5.11,6.43 -12.62,-3.77 -6.08,-0.07 -5.76,3.11 -1.2,3.11 -4.03,1.21 -5.31,-4.6 -3.72,-0.16 0.02,-13.39 z"
       id="M26209"
       style="fill:#ffff80;fill-opacity:1;stroke:#000000;stroke-width:1.46411;stroke-dasharray:none;stroke-opacity:1" />
    <path
       d="m 562.18,682.24 -7.9,-14.29 6.5,-3.37 4.59,-0.17 1.72,4.21 5.11,0.72 -0.28,5.54 5.26,4.19 0.51,7.31 -2.91,4.87 0.51,5.34 -9.57,-0.09 -0.87,-9.95 z"
       id="M26208"
       style="fill:#ffff80;fill-opacity:1;stroke:#000000;stroke-width:1.46411;stroke-dasharray:none;stroke-opacity:1" />
    <path
       d="m 654.43,754.14 1.44,8.53 3.82,1.14 4.42,17.62 -10.23,-1.2 -11.95,0.65 -4.55,2.71 -11.3,0.45 -3.32,-5.53 -5.58,-3.62 -10.41,-2.3 -5.94,-10.86 -0.34,-13.39 -1.94,-2.25 6.95,-0.22 13.9,-0.98 5.44,3.01 8.46,-0.93 7.03,5.04 8.53,2.48 3.2,-1.6 z"
       id="M26207"
       style="fill:#ffff80;fill-opacity:1;stroke:#000000;stroke-width:1.46411;stroke-dasharray:none;stroke-opacity:1" />
    <path
       d="m 497.42,561.87 -3.99,8.38 -1.23,5.68 6.33,5.25 1.97,6.31 3.93,-2.92 6.93,-1.36 2.13,2.93 -3.04,7.44 0.09,10.95 5.75,2.04 5.9,7.02 3.23,6.1 -2.29,3.53 6.87,9.49 -0.43,4.93 -4.74,2.89 -0.54,13.94 2.08,4.18 -11.57,1.02 -7.14,2.6 -6.64,0.04 -9.39,3.2 -3.05,-6.45 -5.1,0.99 -4.07,3.37 0.2,4.78 4.76,2.82 0.14,3.72 -10.31,1.81 -0.85,12.95 1.89,3.86 4.83,-4.93 6.09,1.67 0.14,11.87 -9.24,5.02 -3.12,-1.22 -6.28,1.82 -11.56,-4.37 0.66,-3.75 -9.63,-3.88 -5.03,-5.4 -0.21,-5.54 -7.13,-2.09 -2.9,4.03 -6.18,-0.37 -1.38,-3.74 -5,-3.18 2.62,-3.48 -1.9,-8.69 4.35,-1.09 -3.53,-12.46 6.6,-4.73 -7.45,-6.09 -7.12,0.28 -7.57,-5.53 -5.28,-0.14 -3.45,-3.01 -7.08,-2.41 -8.92,5.13 -3.15,-0.9 -5.56,-6.77 -4.35,3.94 -3.85,-3.22 -10.63,0.22 -2.57,-8.37 2.92,-8.36 2.75,2.34 4.67,-1.18 3.19,3.87 18.59,-3.04 5.74,3.11 5.64,-9.88 8.05,-4.13 12.85,-15.31 -1.39,-4.86 3.09,-4.7 4.87,2.71 8.85,0.89 5.5,-0.99 -0.06,4.71 6.12,1.86 6.05,-0.24 1.78,3.31 8.31,-3.38 6.17,-0.13 5.55,-2.24 0.42,-4.83 -2.5,-3.61 -1.03,-8.24 6.21,-4.5 0.96,-4.61 4.83,-4.18 6.48,2.64 4.8,-1.06 z"
       id="M26206"
       style="fill:#ffff80;fill-opacity:1;stroke:#000000;stroke-width:1.46411;stroke-dasharray:none;stroke-opacity:1" />
    <path
       d="m 215.68,169.53 -3.15,-3.3 3.96,-12.48 2.27,-3.86 0.55,-7.17 -5.2,-12.75 -6.5,-5.07 -3.21,-4.65 -0.31,-7.89 3.44,-8.82 7.49,-0.98 2.95,-3.56 0.57,-8.83 4.4,2.45 4.07,-1.72 2.73,4.06 5.61,0.28 -4.67,-8.19 3.83,-4.01 2.17,-5.46 4.2,-2.78 4.98,1.82 3.85,-1.86 8.02,3.5 4.15,-3 4.91,-0.1 9.92,-5.01 6.74,4.16 -0.64,5.78 -4.94,2.73 -0.44,4.33 4.09,5.61 -4.55,0.37 -9.8,14.64 -4.72,15.18 -0.71,8.06 -6.18,3.47 -1.19,3.88 -5.56,6.9 -7.34,4.18 -5.73,12.16 -10.71,13.74 -2.02,7.82 0.54,8.05 3.34,5.89 6.2,2.13 4.67,-4.21 1.37,-4.28 -4.59,-6.02 2.42,-6.15 12.87,-5.7 2.08,-5.52 -1.47,-7.26 6.63,3.05 12.28,-13.9 -0.87,8.52 -4.8,0.48 -0.43,4.8 2.65,9.24 7.65,1.95 8.26,6.47 -9.16,5.31 -12.44,-5.35 -3.96,8.37 2.58,8.45 3.46,3.6 15.83,1.63 1.64,6.82 11.27,7.2 -0.66,13.71 -2.51,7.99 -5.06,-1.25 -7.01,-5.65 -3.59,-6.63 -4.18,-3.45 -8.29,2.59 -5.02,-3.15 -6.82,6.09 -3.56,8.91 -6.14,-0.25 -5.63,2.72 0.3,6.74 -5,6.21 -5.36,3.44 -0.77,6.11 -6.9,4.51 -10.03,1.28 -6.61,-2.96 -3.25,-5.43 -13.24,-3.38 -0.91,-4.51 9.36,-5.16 0.42,-6.72 8.67,-9.29 0.2,-6.95 7.38,-1.89 3.35,-5.69 -1,-10.43 -7.02,0.9 -4.44,-4.37 -2.89,-6.66 -3.29,-0.52 -0.41,-6.29 6.09,-5.7 4.48,2.54 2.65,2.19 8.51,-8.33 7.52,3.76 10.03,-15.12 -3.06,-3.37 -8.05,5.5 z"
       id="M26205"
       style="fill:#ffff80;fill-opacity:1;stroke:#000000;stroke-width:1.46411;stroke-dasharray:none;stroke-opacity:1" />
    <path
       d="m 606.19,713.67 10.15,-6.56 9.15,-0.69 1.59,-10.9 3.65,-3.37 8.78,-1.64 4.87,8.04 7.52,-0.6 0.49,-6.45 9.71,-0.16 3.48,-3.18 -1.87,-7.36 3.21,-6.9 5.04,-0.14 2.11,5.09 10.55,2.78 -1.61,3.42 2.6,7.09 -6.15,6.94 -1.1,4.75 1.42,8.32 -5.37,5.09 2.77,5.56 -0.44,3.85 -2.63,0.53 -3.12,6.44 -6.25,1.55 -3.76,8.98 -9.06,4.69 0.14,4.05 -3.2,1.6 -8.53,-2.48 -7.03,-5.04 -8.46,0.93 -5.44,-3.01 -13.9,0.98 -0.15,-4.83 4.97,0.03 -0.85,-9.61 -4.03,0.04 0.15,-5.91 4.22,-2.41 z"
       id="M26204"
       style="fill:#ffff80;fill-opacity:1;stroke:#000000;stroke-width:1.46411;stroke-dasharray:none;stroke-opacity:1" />
    <path
       d="m 430.81,359.37 -0.54,7.59 2.95,7.44 -14.33,8.85 -4.01,7.96 2.76,4.87 -3.78,5.61 -7.82,4.97 -3.23,19.07 3.84,4.01 1.97,5.61 -7.53,3.19 -1.21,12.31 3.01,4.88 0.59,6.6 -7.39,19.05 6.02,5.07 4.75,1.54 -0.93,6.91 2.84,6.71 -3.46,1.77 -1.45,7.87 -4.52,2.22 2.48,6.38 -4.6,6.01 -0.96,9.51 -6.04,5.79 -7.48,0.71 1.1,3.63 -4.77,8.04 -5.9,-2.28 -7.99,2.17 -5.43,5.43 -2.63,-0.92 1,-7.49 2.76,-1.77 -4.83,-8.35 3.42,-4.69 -5.99,-2.71 -6.33,0.69 -8.58,-2.61 -3.45,-3.67 -7.67,0.82 -3.86,-6.89 2.35,-4.55 -9.42,0.36 -15.59,5.28 -6.5,0.96 -9.22,-4.4 8.2,-11.71 -1.93,-9.07 -1.38,-1.2 -0.14,-10.99 -1.92,-2.38 1.62,-8.3 4.84,1.68 1.87,-11.19 -2.36,-5.8 4.18,-1.05 -7.09,-11.59 6.61,-0.57 2.99,-6.41 13.52,-9.59 -3.18,-15.5 9.19,2.23 4.12,-7.16 4.46,-1.73 4.06,-5.95 4.99,-2.3 5.63,0.06 1.7,-3.87 6.32,-5.01 3.56,-9.89 5.31,-2.45 5.63,-5.73 7.14,-1.75 3.39,-6.23 7.85,-6.23 18.7,-2.9 7.32,-0.14 5.24,1.78 7.26,-1.48 z"
       id="M26407"
       style="fill:#ffff80;fill-opacity:1;stroke:#000000;stroke-width:1.46411;stroke-dasharray:none;stroke-opacity:1" />
    <path
       d="m 455.1,330.48 -0.07,5.07 -8.42,1.28 -3.62,4.08 -10.88,3.97 3.55,8.83 -3.61,1.07 -1.24,4.59 -7.9,-2.87 -7.26,1.48 -5.24,-1.78 -7.32,0.14 -18.7,2.9 -7.85,6.23 -3.39,6.23 -7.14,1.75 -5.63,5.73 -5.31,2.45 -3.56,9.89 -6.32,5.01 -1.7,3.87 -5.63,-0.06 -4.99,2.3 -4.06,5.95 -4.46,1.73 -4.12,7.16 -9.19,-2.23 -4.79,3.6 -8.79,1 -4.24,2.29 -7.52,-1.76 -5.61,-3.36 -9.37,2.39 -7.7,4.01 -5.39,-0.84 -12.1,-10.34 -2.51,0.53 -9.43,-6.05 -1.34,-3.5 0.2,-10.15 -2.22,-5.99 -8.19,-2.41 5.48,-8.25 -2.8,-14.46 -3.44,-0.33 -7.54,-4.8 4.57,-6.29 4.37,-1.45 -0.78,-5.95 -7.49,-6.09 0.46,-2.98 9.43,1.98 10.23,-1.83 -0.58,-8.51 3.47,-7.95 5.53,-1.53 1.88,2.34 5.79,-0.3 0.71,-3.21 3.31,-1.68 10.95,2.3 3.33,-2.41 7.39,-0.96 2.83,2.66 8.76,-2.12 7.71,1.87 1.01,5.71 8.91,5.56 8.7,-3.85 2.64,1.08 8.65,-5.15 4.72,4.93 1.99,-4.97 5.55,-3.37 6.32,3.61 6.45,-1.32 4.1,11.41 5.15,-2.13 6.04,-6.07 5.65,-7.8 -3.66,-9.22 3.35,-14.02 7.45,1.62 4.08,-5.45 5.54,3.02 6.62,-2.34 12.38,-10.91 5.02,-7.69 7.03,5.25 3.51,-0.41 3.25,8.21 4.54,0.83 1.8,4.1 -3.42,5.02 6.9,4.52 2.96,-2.89 7.12,1.23 4.15,3.69 1.96,8.19 -3.18,4.37 4.3,8.43 -1.91,1.69 -0.83,8.61 z"
       id="M26203"
       style="fill:#ffff80;fill-opacity:1;stroke:#000000;stroke-width:1.46411;stroke-dasharray:none;stroke-opacity:1" />
    <path
       d="m 204.8,266.65 10.03,-1.28 6.9,-4.51 0.77,-6.11 5.36,-3.44 5,-6.21 -0.3,-6.74 5.63,-2.72 6.14,0.25 3.56,-8.91 6.82,-6.09 5.02,3.15 8.29,-2.59 4.18,3.45 3.59,6.63 7.01,5.65 5.06,1.25 2.51,-7.99 0.66,-13.71 14.64,3.25 8.59,-10.96 5.2,7.23 2.3,9.15 -1.74,8.61 -6.11,7.02 0.93,3.89 -3.21,6.68 -1.08,8.45 -4.66,4.38 1.64,4.62 9.44,-6.16 -0.35,-3.24 6.32,-7.06 4.94,-1.91 3.8,-9.47 9.62,-1.42 7.32,-2.93 4.75,4.79 -5.71,7.34 7.95,-1.43 6.33,-4.76 3.7,-8.36 -4.25,-4.18 -2.02,-7.38 3.21,-3.17 -4.65,-3.12 -2.81,3.92 -0.73,6.29 -7.4,-1.88 -11.66,3.19 -7.39,-10.64 3.71,-2.07 -6.95,-4.73 -1.73,-11.53 4.97,-5.6 5.31,0.18 3.64,-4.23 6.09,-1.55 8.6,-8.78 7.18,4.51 9.16,-4.3 6.33,-6.82 8.94,2.95 0.19,-7.05 5.04,-4.83 0.44,-6.06 9.93,-5.33 4.32,-4.4 3.24,1.28 -2.92,5.51 -0.65,5.88 -4.37,3.55 1.52,10.45 8.83,-2.86 6.17,11.76 -9.23,6.91 -0.56,4.13 -3.67,5.32 -2.85,7.95 0.04,5.29 11.16,9.28 6.39,3.27 -2.44,3.54 2.49,9.43 -9.22,8.91 -2.71,8.16 7.94,11.78 -5.02,7.69 -12.38,10.91 -6.62,2.34 -5.54,-3.02 -4.08,5.45 -7.45,-1.62 -3.35,14.02 3.66,9.22 -5.65,7.8 -6.04,6.07 -5.15,2.13 -4.1,-11.41 -6.45,1.32 -6.32,-3.61 -5.55,3.37 -1.99,4.97 -4.72,-4.93 -8.65,5.15 -2.64,-1.08 -8.7,3.85 -8.91,-5.56 -1.01,-5.71 -7.71,-1.87 -8.76,2.12 -2.83,-2.66 -7.39,0.96 -3.33,2.41 -10.95,-2.3 -3.31,1.68 -4.87,-4.46 -4.83,-8.98 -7.42,-1.43 0.8,-8.3 -6.06,-4.04 -7.51,-1.57 -6.59,2.63 -3.74,-1.77 1.43,-5.36 -2.84,-4.05 3.89,-5.71 z"
       id="M26202"
       style="fill:#ffff80;fill-opacity:1;stroke:#000000;stroke-width:1.46411;stroke-dasharray:none;stroke-opacity:1" />
    <path
       d="m 131.67,270.46 6.25,-1.12 1.29,2.78 6.24,3.2 15.93,0.83 8.42,-5.69 -0.85,-5.86 3,-4.74 9.75,-4.98 13.24,3.38 3.25,5.43 6.61,2.96 8.79,5.37 -3.89,5.71 2.84,4.05 -1.43,5.36 3.74,1.77 6.59,-2.63 7.51,1.57 6.06,4.04 -0.8,8.3 7.42,1.43 4.83,8.98 4.87,4.46 -0.71,3.21 -5.79,0.3 -1.88,-2.34 -5.53,1.53 -3.47,7.95 0.58,8.51 -10.23,1.83 -9.43,-1.98 -0.46,2.98 7.49,6.09 0.78,5.95 -4.37,1.45 -4.57,6.29 7.54,4.8 3.44,0.33 2.8,14.46 -5.48,8.25 8.19,2.41 2.22,5.99 -0.2,10.15 1.34,3.5 9.43,6.05 2.51,-0.53 12.1,10.34 5.39,0.84 7.7,-4.01 9.37,-2.39 5.61,3.36 7.52,1.76 4.24,-2.29 8.79,-1 4.79,-3.6 3.18,15.5 -13.52,9.59 -2.99,6.41 -6.61,0.57 7.09,11.59 -4.18,1.05 2.36,5.8 -1.87,11.19 -4.84,-1.68 -1.62,8.3 1.92,2.38 0.14,10.99 1.38,1.2 -3.07,1 -7.09,-4.93 -4.44,1.24 -11.6,-1.9 -8.36,1.39 -3.67,-0.92 -2.31,9.54 -4.28,2.35 -10.36,1.86 -8.85,-9.38 -4.08,0.13 1.92,-9.18 -2.28,-5.75 8.95,-4.32 -2.05,-6.13 -5.49,-3.11 -4.51,-7.48 -4.63,1.13 -2.78,-4.63 -5.27,0.14 -5.59,-5.4 4.76,-3.7 3.47,-9.42 -6.52,-15.11 -6.84,-2.26 -3.35,1.4 -4.8,-2.21 -3.91,3.49 -13.09,-4.56 -6,5.37 -3.79,-0.24 -6.16,5.58 -1.68,5.57 -5.45,2.56 -4.58,4.82 -2.36,-7.42 -4.21,-6.95 -0.72,-7.81 -4.98,2.06 -4.92,-1.73 -4.23,1.24 -16.88,-5.86 0.96,-8.81 -3.07,-4.15 -13.93,-5.73 -17.61,-4.36 -8.63,-4.92 -4.15,-3.94 -4.44,0.81 -6.37,-3.19 -2.26,-4.71 3.08,-3.56 1.42,-6.93 -1.65,-5.27 -5.59,-2.85 1.1,-8.16 3.07,-3.36 -3.02,-8.35 5.27,-10.67 -0.22,-6.77 -2.35,-4.36 6.2,-12.19 9.26,-6.03 5.86,3.95 2.67,-0.52 8.02,8.33 6.54,0.47 5.25,4.54 1.29,5.83 7.62,-1.1 2.27,-2.95 9.26,-2.84 2.9,-5.67 4.09,-3.71 0.21,-3.71 12.49,2.25 1,-5.16 -2.15,-8.39 z"
       id="M26201"
       style="fill:#ffff80;fill-opacity:1;stroke:#000000;stroke-width:1.46411;stroke-dasharray:none;stroke-opacity:1" />
  </g>
</svg>
