<?xml version="1.0" encoding="UTF-8" standalone="no"?>
<svg
   version="1.2"
   width="345.63013"
   height="600"
   viewBox="0 0 345.63013 600"
   stroke-linecap="round"
   stroke-linejoin="round"
   id="svg5820"
   sodipodi:docname="me.svg"
   inkscape:version="1.2 (dc2aedaf03, 2022-05-15)"
   xmlns:inkscape="http://www.inkscape.org/namespaces/inkscape"
   xmlns:sodipodi="http://sodipodi.sourceforge.net/DTD/sodipodi-0.dtd"
   xmlns="http://www.w3.org/2000/svg"
   xmlns:svg="http://www.w3.org/2000/svg">
  <defs
     id="defs5824" />
  <sodipodi:namedview
     id="namedview5822"
     pagecolor="#505050"
     bordercolor="#eeeeee"
     borderopacity="1"
     inkscape:showpageshadow="0"
     inkscape:pageopacity="0"
     inkscape:pagecheckerboard="0"
     inkscape:deskcolor="#505050"
     showgrid="false"
     inkscape:zoom="0.58027358"
     inkscape:cx="172.33251"
     inkscape:cy="299.85856"
     inkscape:window-width="1920"
     inkscape:window-height="1009"
     inkscape:window-x="-8"
     inkscape:window-y="-8"
     inkscape:window-maximized="1"
     inkscape:current-layer="svg5820" />
  <g
     id="me"
     transform="matrix(0.43186734,0,0,0.43186734,0.06811334,0.06812551)"
     style="fill:#ffff80;fill-opacity:1;stroke:#000000;stroke-width:2.31553;stroke-dasharray:none;stroke-opacity:1">
    <path
       d="m 389.53,962.71 -8.95,4.53 -4.83,-5.85 -4.77,-0.33 3.22,-8 -11.16,3.15 -0.27,10.62 -4.81,4.69 -8.36,1.43 -2.75,5.98 -10.5,-0.37 -9.88,13.35 -9.21,4.18 1.22,6.8 4,4.39 -6.05,7.67 2.68,7.68 8.74,3.44 -6.4,4.2 0.61,3.96 6.43,5.05 4.61,-5.27 6.69,4.41 -4.04,13.14 -2.32,-4.35 -14.33,-8.65 -3.25,3.13 -12.92,6.06 -2.37,3.38 -0.63,10.06 -4.64,-13.33 13.86,-8.78 5.78,-8.98 -6.61,-1.49 -5.72,4.07 -4.05,7.26 -7.01,5.21 -9.33,3.06 -2.26,3.02 6.63,11.18 -7.81,-4.88 -7.93,-0.86 -6.55,2.4 -11.5,-0.28 -7.64,-1.91 -9.62,0.77 -2.46,-14.57 -4.01,-1.12 -10.17,-9.66 -12.41,2.82 -8.55,-0.84 -9.72,3.48 -3.6,-5.63 6.51,-5.74 -4.82,-13.1 3.19,-2.27 -0.4,-7.8 6.71,-7.48 -1.97,-6.08 11.94,-1.65 2.87,4.22 11.26,-5.29 -0.66,-5.84 5.43,-8.37 3.11,1.53 26.04,-8.22 -2.89,-14.23 5.18,-9.46 7.06,1.53 2.17,-10.9 4.35,-1.72 3.2,-5.99 -0.45,-5.77 17.17,-2.17 -1.58,-7.16 8.76,-8.16 5.65,0.42 9.02,-8.97 13.73,2.3 8.49,8.3 -2.83,5.01 12.16,12.95 10.82,-0.78 8.92,2.59 13.69,0.48 3.78,8.41 8.15,7.42 0.92,10.51 -2.78,5.73 z"
       id="M24543"
       style="fill:#ffff80;fill-opacity:1;stroke:#000000;stroke-width:2.31553;stroke-dasharray:none;stroke-opacity:1" />
    <path
       d="m 311.46,893.46 -9.02,8.97 -5.65,-0.42 -8.76,8.16 1.58,7.16 -17.17,2.17 0.45,5.77 -3.2,5.99 -4.35,1.72 -2.17,10.9 -7.06,-1.53 -5.18,9.46 2.89,14.23 -26.04,8.22 -3.11,-1.53 -5.43,8.37 0.66,5.84 -11.26,5.29 -2.87,-4.22 -11.94,1.65 -4.81,-3.65 2.44,-12.19 -12.07,-4.73 3.65,-10.89 13.34,-7.54 2.44,-4.21 -1.07,-6.86 -4.95,-5.63 10.46,-10.79 4.19,-1.4 1.15,-8.14 -3.02,-4.29 -7.26,-3.55 0.96,-4.58 -4.42,-11.81 -11.63,-9.08 -2.18,-11.39 4.07,-3.69 8.41,0.47 13.32,-10.07 8.99,0.12 12.55,2.21 1.73,-6.95 5.75,-3.2 11.11,1.67 4.15,-10.39 -1.98,-5.01 6.72,-5 9.26,-4.11 5.5,1.74 19.52,-5.54 7.06,-0.89 6.49,-8.57 8.77,-3.4 -10.67,-12.62 4.38,-9.98 7.67,-11.89 7,-0.67 5.74,2.15 6.16,-2.6 9.9,0.99 8.86,2.85 3.45,-3.39 10.73,2.84 11.32,-2.92 14.55,4.35 0.83,-3.53 14.7,-8.32 6.89,-1.4 8.71,-1.67 10.17,3.49 14.87,-4.49 10.47,-6.7 -1.49,-4.69 15.79,-3.27 7.28,-3.17 -0.19,-4.57 6.43,-2.15 11.48,-7.03 5.05,0.94 16.23,-4.86 -0.81,5.55 4.58,2.8 0.08,4.65 -6.11,6.62 -8.97,-0.53 -4.51,2.91 -8.67,4.88 -11.89,-4.07 -3.46,3.26 0.74,8.29 -12.59,2 -6.25,5.73 -11.18,16.48 -6.47,1.21 1.34,7.04 -2.88,5.92 4.58,2.23 -3.32,8.23 -12.61,-10.18 4.1,-6.7 -2.61,-9.23 -4.32,-2.91 -14.88,8.39 9.83,7.66 -2.63,4.94 1.41,11.09 -4.5,8.83 -5.76,1.16 -6.88,5.36 -4.65,0.63 -11.2,6.26 -2.08,5.5 -10.43,8.4 -1.31,4.47 -14.31,3.03 -7.71,-2.68 -5.65,14.88 -8.88,5.01 -14.59,2.38 -3.46,5.2 -7.9,-0.66 -4.77,7.92 z"
       id="M24443"
       style="fill:#ffff80;fill-opacity:1;stroke:#000000;stroke-width:2.31553;stroke-dasharray:none;stroke-opacity:1" />
    <path
       d="m 602.75,629.53 -3.38,8.9 1.77,4.67 -8.31,5.16 -1.29,8.42 11.25,7.05 -0.18,7.53 -1.56,-0.58 -4.09,1.71 -1.29,-0.96 -0.77,-0.68 0.06,-0.22 -2.35,1.96 1.07,1.84 -0.42,0.73 -24.93,-1.54 -0.45,6.79 -4.62,4.74 -5.54,-0.74 -9.13,-2.51 2.77,-8.32 -2.54,-5.38 5.99,-3.94 0.74,-6.14 7.13,-13.17 2.06,-10.62 5.32,-0.86 -0.15,-6.27 -6.09,-2.48 2.58,-18.79 -4.8,-1.81 -1.12,-5.75 18.1,3.15 1.05,2.31 13.13,5.39 z"
       id="M24442"
       style="fill:#ffff80;fill-opacity:1;stroke:#000000;stroke-width:2.31553;stroke-dasharray:none;stroke-opacity:1" />
    <path
       d="m 522.55,734.36 -4.58,-2.8 0.81,-5.55 -16.23,4.86 -5.05,-0.94 -11.48,7.03 -6.43,2.15 0.19,4.57 -7.28,3.17 -15.79,3.27 1.49,4.69 -10.47,6.7 -14.87,4.49 -10.17,-3.49 -8.71,1.67 1.91,-12.13 5.32,-7.66 4.2,-2.02 -3.23,-9.35 1.98,-12.32 -7.95,-2.93 -0.48,-4.97 9,-2.05 8.32,-6.13 10.4,6.09 6.98,-9.78 18.67,2.28 8.94,-5.07 -0.9,-2.81 -8.76,-1.25 7.45,-11.45 4.99,-0.7 2,6.96 5.74,0.62 7.91,-5.37 14.99,0.51 12.4,-6.94 7.48,-7.25 17.48,-2.36 2.54,5.38 -2.77,8.32 9.13,2.51 -1.82,6.94 -11.5,11.42 -1.29,13.99 2.61,2.99 -4.35,8.89 0.53,4.72 -9.57,-0.67 z"
       id="M24441"
       style="fill:#ffff80;fill-opacity:1;stroke:#000000;stroke-width:2.31553;stroke-dasharray:none;stroke-opacity:1" />
    <path
       d="m 596.96,672.39 4.09,-1.71 1.56,0.58 0.18,-7.53 -11.25,-7.05 1.29,-8.42 8.31,-5.16 -1.77,-4.67 3.38,-8.9 4.78,7.22 16.01,6.39 4.39,3.82 16.25,2.31 27.73,17.86 9.05,10.14 8.59,4.19 8.73,-0.17 5.36,2.33 9.8,-1.57 5.3,10.55 0.03,10.31 -9.09,4.35 1.59,9.45 -3.74,9.35 -5.05,-0.15 -7.04,4.83 -2.39,7.57 2.1,18.13 2.36,2.41 -5.09,5.83 -5.8,-1.12 -10.06,5.83 -1.17,11.05 -4.75,12 -5.94,1.3 -13.74,-2.87 -4.94,-3.9 -3.4,3.1 -14.54,3.18 -0.79,-7.25 -9.71,-2.89 -4.77,3.98 -6.61,-2.4 -13.8,-1.56 -2.46,-1.81 0.06,-22.36 -7.98,-7.36 7.97,-7.18 1.2,-6.8 5.8,-3.66 -1.51,-5.29 0.08,-3.43 12.19,-12.12 -9.98,-6.73 2.67,-4.8 -7.08,-2.82 1.2,-7.64 -5.17,-5.62 2.23,-7.13 z"
       id="M24203"
       style="fill:#ffff80;fill-opacity:1;stroke:#000000;stroke-width:2.31553;stroke-dasharray:none;stroke-opacity:1" />
    <path
       d="m 530.28,177.24 6.54,9.53 20.99,4.83 5.99,2.27 7.5,-1.17 17.51,3.97 -1.04,5.41 3.3,6.89 9.63,4.15 -2.46,6.24 5.39,5.85 6.28,-5.19 2.99,10.17 -10.16,4.72 -6.43,7.06 -4.34,15.25 3.29,1.62 -3.63,17.17 -5.94,8.61 2.64,6.96 5.49,-7.35 10.93,1.29 2.79,7.65 -10.19,-0.33 -5.56,2.68 -0.55,12.46 1.41,15.04 -3.41,3.26 -5.94,-2.63 -26.19,-2.51 -3.88,-3.81 -9.57,-0.09 -2.79,-3.73 -12.8,0.17 -7.88,-6.34 -6.81,-2.01 -12.41,-6.7 -9.58,-7.66 -2.67,-8.14 -20.28,-9.02 -7.38,-11.17 -6.7,-6.49 -12.04,-6.33 -2.71,-3.13 -12.48,3.22 -7.25,-0.06 0.86,-6.83 3.59,-6.83 6.04,-1.49 11.81,0.81 7.19,2.87 5.89,6 9.2,-4.65 2.06,1.77 23.34,-4.59 4.97,1.96 3.8,-3.26 7.99,2.12 10.72,-3.15 -8.64,-10.52 2.28,-4.84 9.81,3.42 6.35,-19.93 -18.46,-1.47 -0.56,-4.87 4.04,-6.3 2.13,-9.27 -2.24,-9.14 z m 81.23,61.76 -8.14,2.8 11.71,5.48 -8.47,13.2 -11.56,-4.01 2,-13.2 8.18,-6.78 z"
       fill-rule="evenodd"
       id="M24202"
       style="fill:#ffff80;fill-opacity:1;stroke:#000000;stroke-width:2.31553;stroke-dasharray:none;stroke-opacity:1" />
    <path
       d="m 474.13,415.56 5.5,2.5 4.95,-5.93 7.03,-0.58 11.52,-4.91 1.73,3.79 22.2,-3.57 8.54,6.68 -11.54,15 -12.08,21.71 -5.53,15.73 -2.37,19.03 -5.27,24.77 1.71,12.13 9.5,4.34 9.87,8.6 -1.02,23.08 1.21,9.65 -10.34,-5.79 -2.57,-5.1 -24.25,-3.97 -10.43,5.53 -8.79,-3.19 -7.67,-0.6 -0.57,5.63 -7.54,4.69 -3.93,9.21 -5.89,-1.79 -6.99,-6.32 -5.77,4.54 -3.26,6.74 -12.18,8.85 -7.78,3.72 -0.7,13.83 -9.82,9.75 -0.86,8.51 -3.77,2.81 -1.64,7.85 -4.92,4.98 -1.79,7.47 -12.15,14.88 -4.82,2.71 8.27,20.12 -3.44,7.07 -6.98,8.37 -7.14,0.42 -0.26,9.78 -6.04,4.51 -1.46,5.43 -6.68,6.36 -8.85,-1.18 -5.39,6.34 -22.52,4.86 -2.76,2.2 -27.48,-2.03 -6.85,1.17 2.3,-16.61 4.03,-5.12 0.62,-7.63 9.66,-7.16 0.39,-5.12 -8.04,-2.07 -2.68,-3.89 3.81,-13.18 -7.33,-11.89 -12.18,5.02 -8.57,6.09 -10.74,-3.77 3.03,-12.58 -7.52,-12.2 6.74,-12.09 6.37,-5.94 12.09,1.42 9.9,-0.01 7.19,2.2 5.63,-13.23 18.6,-4.34 1.48,-6.29 4.6,-3.57 -6.68,-4.67 0.19,-17.93 -3.72,-9.6 4.47,-12.6 5.17,-1.39 2.52,-9.56 9.96,-6.57 -6.93,-9.38 5.25,-2.75 -1.11,-7.33 5.46,-4.66 8.28,-17.31 7.78,-6.71 6.19,-11.49 -8.91,-5.5 5.64,-8.32 9.67,-3.01 1.3,-6.48 4.71,-5.46 12.64,-7.94 -7.56,-16.11 -10.78,-0.46 -5.68,-13.31 1.8,-4 1.34,-5.3 6.14,0.39 0.32,-6.26 15.39,0.68 16.05,-4.09 7.94,2.16 9.68,-12.92 11.68,-3.14 2.57,-4.67 7.33,3.36 3.7,-4.38 9.14,4.19 -0.23,10.85 11.04,12.05 0.8,3.36 11.9,-1.14 12.64,4.88 z"
       id="M24201"
       style="fill:#ffff80;fill-opacity:1;stroke:#000000;stroke-width:2.31553;stroke-dasharray:none;stroke-opacity:1" />
    <path
       d="m 557.72,684.31 5.54,0.74 4.62,-4.74 0.45,-6.79 24.93,1.54 0.42,-0.73 -1.07,-1.84 2.35,-1.96 -0.06,0.22 0.77,0.68 1.29,0.96 -5.34,5.99 -2.23,7.13 5.17,5.62 -1.2,7.64 7.08,2.82 -2.67,4.8 9.98,6.73 -12.19,12.12 -0.08,3.43 -11.94,3.52 -7.78,0.7 -5.08,-5.72 -9.69,8.18 -14,-2.72 -5.09,0.63 -0.53,-4.72 4.35,-8.89 -2.61,-2.99 1.29,-13.99 11.5,-11.42 z"
       id="M24461"
       style="fill:#ffff80;fill-opacity:1;stroke:#000000;stroke-width:2.31553;stroke-dasharray:none;stroke-opacity:1" />
    <path
       d="m 343.11,411.44 -1.8,4 5.68,13.31 10.78,0.46 7.56,16.11 -12.64,7.94 -4.71,5.46 -1.3,6.48 -9.67,3.01 -5.64,8.32 8.91,5.5 -6.19,11.49 -7.78,6.71 -8.28,17.31 -5.46,4.66 1.11,7.33 -5.25,2.75 6.93,9.38 -9.96,6.57 -2.52,9.56 -5.17,1.39 -4.47,12.6 3.72,9.6 -0.19,17.93 6.68,4.67 -4.6,3.57 -1.48,6.29 -18.6,4.34 -5.63,13.23 -7.19,-2.2 -9.9,0.01 -3.57,-8.27 -3.94,-15.94 -3.15,-0.98 -1.46,-12.36 -2.33,-6.94 2.42,-9.96 -5.4,-5.74 -14.81,-11.1 0.76,-7.89 -6.92,-8.16 -1.1,-6.37 -10.61,-0.95 -5.39,-2.59 7.95,-7.23 -9.17,-5.51 -2.52,3.98 -0.96,9.53 -7.33,3.81 -3.06,-4.46 -11.24,-2.33 -2.71,-2.34 -5.24,-16.95 -11.29,-1.86 -4.29,-5.81 9.07,-3.29 3.51,-4.43 -2.26,-8.35 -11.38,-14.75 -10.06,-8.39 -0.85,-6.2 -5.91,0.29 -0.65,-8.09 2.97,-6.35 0.19,-6.92 -8.18,-2.61 v -8.58 l 4.34,0.99 9.5,-7.06 7.75,-0.58 15.98,-4.65 13.14,-7.28 3.41,-6.24 -5.69,-10.3 5.61,-8.84 6.95,-0.35 2.91,-11.14 6.79,-2.78 6.69,-5.57 -3.17,-9.75 -6.63,3.13 -10.7,-1.16 -8.88,-5.25 1.96,-5.58 9.08,-12.4 7.84,-5.22 2.97,8.84 11.37,8.2 3.66,-4.61 9.03,5.63 13.68,-5.34 10.35,1.91 4.7,6.72 8.2,7.75 22.19,8.08 5.63,-0.46 11.4,3.41 12.84,-6.13 0.75,-3.12 8.79,-4.66 2.26,2.49 -4.48,9.84 3.85,2.53 5.23,14.32 -8.52,5.44 -0.61,11.93 -4.15,5.83 4.82,4.51 11.38,-2.29 z"
       id="M24216"
       style="fill:#ffff80;fill-opacity:1;stroke:#000000;stroke-width:2.31553;stroke-dasharray:none;stroke-opacity:1" />
    <path
       d="m 664.7,793.74 5.94,-1.3 4.75,-12 1.17,-11.05 10.06,-5.83 5.8,1.12 5.09,-5.83 11.63,1.36 13.6,12.08 7.12,3.55 3.35,4.87 6.79,-3.6 1.65,-4.12 12.79,1.88 3.34,4.38 -2.35,5.72 3.7,6.57 4.59,11.94 -11.01,5.97 -10.79,-4.26 -6.96,4.66 -2.52,4.63 -8.47,-2.87 -2.18,6.41 4.83,4.68 10.87,-5.67 -0.6,-5.57 8.79,-3.15 -0.9,10.42 7.75,-4.14 10.01,6.88 12.97,-10.46 8.15,2.52 -1.43,6.58 -14.35,9.07 -3.06,9.09 0.82,9.14 10.02,11.17 -3.55,4.55 -1.7,9.6 6.47,4.12 2.95,5.56 -0.21,9.05 -7.48,0.42 -7.02,2.87 -6.16,-0.54 0.15,9.7 -12.81,0.86 -9.28,8.51 -15.79,1.47 -9.86,-3.43 -16.61,-3.24 -5.95,-2.47 -7.82,0.13 -2.72,-11.64 2.9,-4.19 14.45,-0.14 9.99,1.88 3.99,2.69 h 13.13 l 6.17,2.03 4.51,9.05 8.28,-7.83 3.8,1.14 1.83,-10.3 -11.46,8.24 -6.3,-4.74 1.45,-7.47 4.99,-6.44 0.96,-5.76 -7.29,0.13 -1.21,-4.84 15.96,-3.91 -6.65,-6.27 -2.85,5.69 -6.06,-0.1 -8.06,-4.03 -3.9,1.93 -8.21,-4.42 -3.64,6.93 5.05,1.68 3.4,7.15 -7.95,6.37 -8.37,1.41 -10.41,-6.49 2,-15.83 -9.84,0.64 2.2,5.94 -4.42,8.51 -6.54,3.72 -11.32,-8.33 -8.32,-1.8 -6.54,1.89 -2.74,-3.7 -7.67,0.26 1.96,-6.09 14.6,-3.22 16.1,-8.1 0.03,-6.25 7.78,-8.12 -6.11,-9.69 5.49,-10.9 -0.91,-3.75 -8,-9.84 z m 99.78,16.73 -2.74,7.6 -4.45,-4.63 z"
       fill-rule="evenodd"
       id="M24215"
       style="fill:#ffff80;fill-opacity:1;stroke:#000000;stroke-width:2.31553;stroke-dasharray:none;stroke-opacity:1" />
    <path
       d="m 530.28,177.24 -18.23,-5.58 -8.31,-5.36 1.06,-6.82 -11.58,-5.39 -4.38,1.71 -8.66,-3.23 -14.56,-1.22 -13.37,6.44 -12.41,-0.75 -2.44,-8.94 2.85,-13.2 -1.9,-5.27 6,-6.57 -9.23,-6.21 5.45,-7.66 2.31,-9.86 6.68,-2.32 -0.26,-8.2 -8.04,-9.38 -14.48,-11.69 -3.74,1.63 -7.46,-4.5 5,-16.26 -0.77,-12.19 11.78,-9.64 2.71,8.18 4.61,3.38 7.36,-6.74 2.36,-4.96 9,-7.23 10.82,2.33 1.84,-4.41 17.28,4.29 3.61,-3.44 2.1,-10.58 10.75,-6.6 4.09,2.04 4.65,13.16 7.83,8.3 -2.47,8.64 7.35,1.6 3.67,13.83 9.51,3.5 2.12,4.46 5.85,2.14 -0.37,5.35 7.2,6.99 -6.23,5.81 -6.42,2.98 -1.82,4.3 -1.15,18.16 6.89,11.18 0.81,5.85 5.56,4.52 2.41,6.69 -3.96,1.13 -12.81,23.25 -7.22,6.2 3.11,4.72 z"
       id="M24214"
       style="fill:#ffff80;fill-opacity:1;stroke:#000000;stroke-width:2.31553;stroke-dasharray:none;stroke-opacity:1" />
    <path
       d="m 185.64,1117.32 3.03,2.25 8.94,-0.43 5.43,-3.69 14.17,1.17 6.21,5.69 -0.59,6.07 -10.71,5.09 0.17,7.28 -3.4,3.05 2.79,20.02 2.22,7.21 9.07,7.4 12.41,0.6 1.34,-5.21 5.21,-3.32 11.05,10.99 12.12,1.76 3.93,-3.16 9.41,7.26 4.8,0.24 -6.17,1.38 -9.31,7.76 -5.81,-5.93 -9.47,3.92 -1.01,5.21 6.47,10.57 -9.84,6.55 -11.23,1.32 -0.8,-10.46 -3.49,-4.3 -10.16,-1.44 -2.3,4.24 5.54,5.37 -2.27,7.59 -5.39,0.18 -2.16,6.96 6.89,3.68 -10.98,10.93 -5.71,1.01 -2.67,-9.45 -5,-1.25 -3,8.87 -5.53,-1.04 -15.47,18.44 -6.85,10.67 -7.98,15.44 -1.5,-4.9 2.63,-6.83 -10.58,-8.62 -5.77,-0.09 -7.73,-12.27 2.06,-7.28 -2.2,-6.85 -12.64,-0.2 -7.39,3.02 -19.98,-0.78 -10.21,9.62 2.19,10.31 -6.25,8.96 -0.42,10.3 -16.91,1.07 -2.31,8.42 8.06,7.63 1.15,6.51 -2.87,4.19 -7.3,3.86 -5.94,7.8 4.11,10.27 -2.57,2.93 -6.38,-2.33 -14.03,8.78 -2.36,-8.32 -5.46,-10.39 -7.83,-1.15 -6.14,-5.42 -5.8,-1.31 -6.37,-8.86 2.29,-8.84 -2.38,-5.83 3.62,-11.02 -5.33,-7.97 6.52,-4.38 8.17,3.19 3.74,-4.89 -0.27,-6.04 14.79,1.43 2.75,-14.06 -6.12,-7.26 -1.54,11.24 -5.09,-5 2.76,-8.77 -5.27,-5.4 -1.41,-5.43 11.18,1.99 2.92,-5.8 0.21,-8.08 8.65,2.8 10.39,-1.2 -4.77,-4.71 1.28,-6.01 6.67,-2.74 1.19,-5.96 10.92,1.69 9.99,4.57 5.19,5.48 3.89,-1.49 4.31,-10.28 1.8,-8.98 -2.09,-8.25 1.83,-5.7 5.84,-1.42 4.48,3.15 4.25,7.34 12.06,-11.09 0.03,-4.5 -6.87,-10.32 -0.08,-5.45 -5.14,-5.39 7.31,-8.66 -2.5,-2.24 2.79,-8.87 5.68,-4.36 1.55,-8.03 4.43,-2.7 6.52,4.19 5.42,-4.19 17.44,3.82 7.66,-1.43 17.69,10.26 z"
       id="M24212"
       style="fill:#ffff80;fill-opacity:1;stroke:#000000;stroke-width:2.31553;stroke-dasharray:none;stroke-opacity:1" />
    <path
       d="m 697.51,758.85 -2.36,-2.41 -2.1,-18.13 2.39,-7.57 7.04,-4.83 5.05,0.15 3.74,-9.35 -1.59,-9.45 9.09,-4.35 3.26,0.65 6.29,-7.49 -3.25,-11.09 7.26,1.24 0.39,10.92 7.82,3.51 1.54,6.5 7.97,2.34 6.39,-2.87 3.85,6.5 0.46,8.75 -3.15,7.59 18.46,7.85 3.16,-5.89 13.34,1.25 6.17,15.02 -3.28,8.32 3.55,4.89 -5.72,17.09 -5.2,5.25 -1.52,10.04 3.81,3.33 -3.68,5.41 -6.81,-2.82 0.87,-7.44 -4.68,-2.12 -16.94,1.9 -3.7,-6.57 2.35,-5.72 -3.34,-4.38 -12.79,-1.88 -1.65,4.12 -6.79,3.6 -3.35,-4.87 -7.12,-3.55 -13.6,-12.08 z m 83.01,-104.15 3.59,8.34 -1.15,6.81 -5.91,-1.22 -6.14,6.35 -6.14,1.27 -14.56,7.98 -7.6,-5.02 7.89,-5.57 9.9,-1.38 2.85,-9.25 4.43,-0.41 z m 4.13,32.09 3.86,3.05 -3.78,8.27 -6.66,5.96 -9.14,1.88 -7.6,-1.78 3.99,-9.57 15.2,-4.02 z"
       fill-rule="evenodd"
       id="M24211"
       style="fill:#ffff80;fill-opacity:1;stroke:#000000;stroke-width:2.31553;stroke-dasharray:none;stroke-opacity:1" />
    <path
       d="m 474.13,415.56 -3.59,-4.1 -12.64,-4.88 -11.9,1.14 -0.8,-3.36 -11.04,-12.05 0.23,-10.85 -9.14,-4.19 -3.7,4.38 -7.33,-3.36 -2.57,4.67 -11.68,3.14 -9.68,12.92 -7.94,-2.16 -16.05,4.09 -15.39,-0.68 -0.32,6.26 -6.14,-0.39 -1.34,5.3 -13.75,-5.52 -11.38,2.29 -4.82,-4.51 4.15,-5.83 0.61,-11.93 8.52,-5.44 -5.23,-14.32 -3.85,-2.53 4.48,-9.84 3.98,0.66 11.9,-5.1 5.89,-4.95 0.23,-5.77 9.78,-1.51 9.75,-6.21 19.9,-8.67 -0.71,-6.98 1.98,-8.38 4.55,-1.71 -0.91,-16.8 11.2,-9.84 5.63,1.09 17.44,5.56 6.09,12.32 3.36,1.06 -0.67,7.75 8.14,5.86 6.17,8.63 8.93,2.26 13.78,-1.57 10.58,4.15 -1.96,8.27 3.02,5.59 -0.78,7.55 -3.83,2.37 5.01,9.32 -6.66,12.83 -1.59,14 4.5,8.77 -2.13,10.77 3.3,3.37 z"
       id="M24210"
       style="fill:#ffff80;fill-opacity:1;stroke:#000000;stroke-width:2.31553;stroke-dasharray:none;stroke-opacity:1" />
    <path
       d="m 188.21,1037.76 9.72,-3.48 8.55,0.84 12.41,-2.82 10.17,9.66 4.01,1.12 2.46,14.57 9.62,-0.77 7.64,1.91 11.5,0.28 6.55,-2.4 7.93,0.86 7.81,4.88 -19.15,8.17 -6.82,0.65 0.14,4.4 6.81,5.94 7.85,2.26 3.81,-2.12 11.19,1.6 2.26,6.96 -0.18,15.64 7.97,1.87 19.27,12.31 -13.09,10.8 5.87,4.34 -5.66,14.59 6.47,1.14 -1.98,6.5 0.9,8.82 -5.97,3.76 -7.65,-0.19 -2.64,-4.8 -7.29,3.59 -2.77,-10.26 9.36,-4.77 -15.79,-2.98 -9.84,-11.1 -1.12,5.16 2.39,10.86 -3.67,1.42 -6.4,9.45 1.39,5.77 11.33,-8.88 4.4,7 0.41,8.72 4.86,8.56 -4.8,-0.24 -9.41,-7.26 -3.93,3.16 -12.12,-1.76 -11.05,-10.99 -5.21,3.32 -1.34,5.21 -12.41,-0.6 -9.07,-7.4 -2.22,-7.21 -2.79,-20.02 3.4,-3.05 -0.17,-7.28 10.71,-5.09 0.59,-6.07 -6.21,-5.69 -14.17,-1.17 -5.43,3.69 -8.94,0.43 -3.03,-2.25 2.54,-1.08 -4.95,-16.07 -4.18,-3.01 3.62,-8.32 -2.36,-8.28 1.63,-17.76 14.83,4.13 -10.16,-12.84 4.1,-6.36 z m 111.72,23.43 0.63,-10.06 2.37,-3.38 12.92,-6.06 3.25,-3.13 14.33,8.65 2.32,4.35 -11.95,4.53 -9.45,9.88 -6.57,-12.86 -3.12,6.24 z"
       fill-rule="evenodd"
       id="M24209"
       style="fill:#ffff80;fill-opacity:1;stroke:#000000;stroke-width:2.31553;stroke-dasharray:none;stroke-opacity:1" />
    <path
       d="m 256.05,629.22 -12.09,-1.42 -6.37,5.94 -6.74,12.09 -4.62,-10.35 -6.63,3.57 -5.22,-3.15 -15.64,11.57 -3.73,0.03 -2.27,-9.05 -14.59,-0.76 -14.66,-9.45 -8.23,-1.53 0.36,-5.02 -8.23,-4.81 1.77,-11.58 -4.15,-6.79 6.9,-8.7 4.95,-8.87 4.77,-2.13 3.52,-10.68 -6.76,-16.19 4.52,-5.25 5.37,-0.91 5.94,-16.02 11.24,2.33 3.06,4.46 7.33,-3.81 0.96,-9.53 2.52,-3.98 9.17,5.51 -7.95,7.23 5.39,2.59 10.61,0.95 1.1,6.37 6.92,8.16 -0.76,7.89 14.81,11.1 5.4,5.74 -2.42,9.96 2.33,6.94 1.46,12.36 3.15,0.98 3.94,15.94 z"
       id="M24208"
       style="fill:#ffff80;fill-opacity:1;stroke:#000000;stroke-width:2.31553;stroke-dasharray:none;stroke-opacity:1" />
    <path
       d="m 419.88,249.85 7.25,0.06 12.48,-3.22 2.71,3.13 12.04,6.33 6.7,6.49 7.38,11.17 20.28,9.02 2.67,8.14 9.58,7.66 12.41,6.7 6.81,2.01 7.88,6.34 12.8,-0.17 2.79,3.73 9.57,0.09 3.88,3.81 26.19,2.51 5.94,2.63 -5.41,10.48 -2.61,10.22 -11.44,18.96 -0.54,3.28 -8.31,9.81 -11.11,16.16 -14.22,18.35 -8.54,-6.68 -22.2,3.57 -1.73,-3.79 -11.52,4.91 -7.03,0.58 -4.95,5.93 -5.5,-2.5 3.58,-7.06 -3.3,-3.37 2.13,-10.77 -4.5,-8.77 1.59,-14 6.66,-12.83 -5.01,-9.32 3.83,-2.37 0.78,-7.55 -3.02,-5.59 1.96,-8.27 -10.58,-4.15 -13.78,1.57 -8.93,-2.26 -6.17,-8.63 -8.14,-5.86 0.67,-7.75 -3.36,-1.06 -6.09,-12.32 -17.44,-5.56 5.88,-15.71 9.49,-10.6 z"
       id="M24207"
       style="fill:#ffff80;fill-opacity:1;stroke:#000000;stroke-width:2.31553;stroke-dasharray:none;stroke-opacity:1" />
    <path
       d="m 588.81,196.67 -17.51,-3.97 -7.5,1.17 -5.99,-2.27 2.67,-8.46 4.11,-3.12 0.77,-10.48 -5.44,-11.1 7.33,1.18 5.51,-9.68 -11.37,-6.01 -2.6,-10.93 -5.28,-2.5 -2.41,-6.69 -5.56,-4.52 -0.81,-5.85 -6.89,-11.18 1.15,-18.16 1.82,-4.3 6.42,-2.98 6.23,-5.81 5.93,2.64 1.85,8.69 5.76,8.29 2.27,8.65 6.5,3.1 4.64,-3.37 11.58,2.34 0.2,-16.55 6.98,4.34 4.36,10.8 11.11,18.54 14.02,3.89 14.07,17.71 3.91,20.49 4.66,16.91 12.9,23.04 5.17,2.52 -7.5,3.2 -9.27,6.45 -12.35,1.09 -7.75,2.92 -6.71,-10.06 -7.54,-6.28 -4.67,-7.09 -10.76,0.44 -7.61,4.69 z"
       id="M24205"
       style="fill:#ffff80;fill-opacity:1;stroke:#000000;stroke-width:2.31553;stroke-dasharray:none;stroke-opacity:1" />
    <path
       d="m 413.98,764.18 -6.89,1.4 -14.7,8.32 -0.83,3.53 -14.55,-4.35 -11.32,2.92 -10.73,-2.84 -3.45,3.39 -8.86,-2.85 -9.9,-0.99 -6.16,2.6 -5.74,-2.15 -7,0.67 -7.67,11.89 -4.38,9.98 10.67,12.62 -8.77,3.4 -6.49,8.57 -7.06,0.89 -19.52,5.54 -5.5,-1.74 -9.26,4.11 -6.72,5 1.98,5.01 -4.15,10.39 -11.11,-1.67 -5.75,3.2 -1.73,6.95 -12.55,-2.21 -8.99,-0.12 -5.43,-8.35 -9.69,-3.33 -5.12,-6.26 -0.22,-5.52 -3.98,-6.66 -0.9,-9.28 -7.03,-17.9 -5.92,-6.12 -6.6,-2.65 4.24,-8.16 1.16,-6.77 10.23,-9.2 -1.17,-11.46 5.37,-5.87 11.45,-0.44 5.05,-6.33 9.91,-2.17 9.62,3.63 5.38,-0.69 5.07,-6.46 15.1,3.15 7.49,-4.6 13.21,1.74 6.85,-1.17 27.48,2.03 2.76,-2.2 22.52,-4.86 5.39,-6.34 8.85,1.18 6.68,-6.36 1.46,-5.43 6.04,-4.51 0.26,-9.78 7.14,-0.42 6.98,-8.37 3.44,-7.07 -8.27,-20.12 4.82,-2.71 12.15,-14.88 1.79,-7.47 4.92,-4.98 1.64,-7.85 3.77,-2.81 0.86,-8.51 9.82,-9.75 0.7,-13.83 7.78,-3.72 12.18,-8.85 3.26,-6.74 5.77,-4.54 6.99,6.32 5.89,1.79 3.93,-9.21 7.54,-4.69 0.57,-5.63 7.67,0.6 8.79,3.19 10.43,-5.53 24.25,3.97 2.57,5.1 10.34,5.79 -4,11.59 -4.91,4.95 -4.27,0.01 -1.9,7.34 17.23,-3.96 9.28,4.55 6.25,-2 11.03,6.75 11.69,1.46 1.12,5.75 4.8,1.81 -2.58,18.79 6.09,2.48 0.15,6.27 -5.32,0.86 -2.06,10.62 -7.13,13.17 -0.74,6.14 -5.99,3.94 -17.48,2.36 -7.48,7.25 -12.4,6.94 -14.99,-0.51 -7.91,5.37 -5.74,-0.62 -2,-6.96 -4.99,0.7 -7.45,11.45 8.76,1.25 0.9,2.81 -8.94,5.07 -18.67,-2.28 -6.98,9.78 -10.4,-6.09 -8.32,6.13 -9,2.05 0.48,4.97 7.95,2.93 -1.98,12.32 3.23,9.35 -4.2,2.02 -5.32,7.66 z"
       id="M24204"
       style="fill:#ffff80;fill-opacity:1;stroke:#000000;stroke-width:2.31553;stroke-dasharray:none;stroke-opacity:1" />
    <path
       d="m 589.94,781.32 2.46,1.81 13.8,1.56 6.61,2.4 4.77,-3.98 9.71,2.89 0.79,7.25 14.54,-3.18 3.4,-3.1 4.94,3.9 13.74,2.87 -0.18,5.09 8,9.84 0.91,3.75 -5.49,10.9 6.11,9.69 -7.78,8.12 -0.03,6.25 -16.1,8.1 -14.6,3.22 -1.96,6.09 7.67,-0.26 2.74,3.7 -3.18,7.8 -9.43,0.71 -6.61,4.73 -0.45,-16.39 6.44,-15.92 9.15,-6.53 7.58,0.24 4.63,-11.63 -14.04,3.1 -6.57,-5.63 -3.25,9.28 -5.68,2.14 -4.15,-8.59 -14.96,-2.38 -3.35,5.57 10.27,1.9 1.67,9.76 -8.9,3.02 -8.52,6.25 -9.12,3.28 2.26,4.04 8.4,-4.29 7.95,1.51 1.72,-4.28 7.41,3.41 -6.98,4.92 -0.95,4.11 -7.65,4.75 0.99,8.79 -14.43,2.21 -0.39,8.03 -10.38,1.61 -6.16,4.11 -5.69,9.71 -14.49,1.04 -4.78,-10.4 -2.08,-8.41 15.27,-11.37 -19.91,1.85 -8.71,3.26 -3.95,4.04 1.24,9.5 -1.47,8.36 -5.45,7.04 -5.98,-6.87 3.73,-4.86 -1.54,-10.29 -8.64,3.86 -3.37,5.63 -8.98,-2.59 1.03,-7.57 -6.28,-0.57 0.06,13.14 1.99,10.74 -6.11,0.73 -2.05,6.73 -4.17,1.76 7.63,9.4 -14.96,10.73 0.65,-7.26 -10.94,-4.05 -5.84,-6.09 2.66,-7.14 3.63,-2.19 -2.03,-6.72 -9.37,10.77 1.22,9.83 -2.24,2.99 2.5,8.37 -18.45,1.56 -6.45,-5.89 -4.01,-10.27 2,-9.38 -1.48,-6.08 3.32,-9.79 5.05,-3.63 -6.94,-12.42 3.13,-2.96 7.39,2.44 9.4,-5.5 5.3,-0.65 0.3,-9.61 3.64,-6.77 -0.84,-9.84 4.71,-5.83 5.35,-1.84 15.93,2.7 5.76,-1.62 4.85,-9.14 4.41,-0.51 11.38,4.41 3.93,7.92 6.05,-0.54 3.42,4.38 7.5,0.98 12.88,-3.51 11.56,4.13 4.4,-10.28 7.86,0.65 2.13,-3.35 -2.32,-8.97 4.89,-7.17 -1.01,-4.22 6.27,-13.26 9.99,-3.36 4.38,-3.65 0.15,-8.33 -4.15,-1.19 z"
       id="M24472"
       style="fill:#ffff80;fill-opacity:1;stroke:#000000;stroke-width:2.31553;stroke-dasharray:none;stroke-opacity:1" />
    <path
       d="m 394.44,972.03 -0.03,-0.1 v -0.02 l -0.03,-0.1 z m -4.91,-9.32 -3.02,-6.33 2.78,-5.73 -0.92,-10.51 -8.15,-7.42 -3.78,-8.41 -13.69,-0.48 -8.92,-2.59 -10.82,0.78 -12.16,-12.95 2.83,-5.01 -8.49,-8.3 -13.73,-2.3 -4.26,-5.5 4.77,-7.92 7.9,0.66 3.46,-5.2 14.59,-2.38 8.88,-5.01 5.65,-14.88 7.71,2.68 14.31,-3.03 1.31,-4.47 10.43,-8.4 2.08,-5.5 11.2,-6.26 4.65,-0.63 6.88,-5.36 5.76,-1.16 4.5,-8.83 -1.41,-11.09 2.63,-4.94 -9.83,-7.66 14.88,-8.39 4.32,2.91 2.61,9.23 -4.1,6.7 12.61,10.18 3.32,-8.23 -4.58,-2.23 2.88,-5.92 -1.34,-7.04 6.47,-1.21 11.18,-16.48 6.25,-5.73 12.59,-2 -0.74,-8.29 3.46,-3.26 11.89,4.07 8.67,-4.88 5.79,19.18 -10.08,18.31 4.61,12.94 -7.74,4.37 2.39,12.91 -4.36,9.42 -1.39,10.79 -4.41,0.51 -4.85,9.14 -5.76,1.62 -15.93,-2.7 -5.35,1.84 -4.71,5.83 0.84,9.84 -3.64,6.77 -0.3,9.61 -5.3,0.65 -9.4,5.5 -7.39,-2.44 -3.13,2.96 6.94,12.42 -5.05,3.63 -3.32,9.79 1.48,6.08 -2,9.38 4.01,10.27 6.45,5.89 -3.37,4.78 -9.72,3.37 -3.09,3.71 -6.64,1.53 -8.22,-11.99 -2.14,9 -5.72,3.22 z"
       fill-rule="evenodd"
       id="M24471"
       style="fill:#ffff80;fill-opacity:1;stroke:#000000;stroke-width:2.31553;stroke-dasharray:none;stroke-opacity:1" />
    <path
       d="m 503.04,748.01 4.51,-2.91 8.97,0.53 6.11,-6.62 -0.08,-4.65 9.78,-1.77 9.57,0.67 5.09,-0.63 14,2.72 9.69,-8.18 5.08,5.72 7.78,-0.7 11.94,-3.52 1.51,5.29 -5.8,3.66 -1.2,6.8 -7.97,7.18 7.98,7.36 -0.06,22.36 -8.37,9.25 4.15,1.19 -0.15,8.33 -4.38,3.65 -9.99,3.36 -6.27,13.26 1.01,4.22 -4.89,7.17 2.32,8.97 -2.13,3.35 -7.86,-0.65 -4.4,10.28 -11.56,-4.13 -12.88,3.51 -7.5,-0.98 -3.42,-4.38 -6.05,0.54 -3.93,-7.92 -11.38,-4.41 1.39,-10.79 4.36,-9.42 -2.39,-12.91 7.74,-4.37 -4.61,-12.94 10.08,-18.31 z"
       id="M24470"
       style="fill:#ffff80;fill-opacity:1;stroke:#000000;stroke-width:2.31553;stroke-dasharray:none;stroke-opacity:1" />
    <path
       d="m 557.81,191.6 -20.99,-4.83 -6.54,-9.53 2.35,-11.44 -3.11,-4.72 7.22,-6.2 12.81,-23.25 3.96,-1.13 5.28,2.5 2.6,10.93 11.37,6.01 -5.51,9.68 -7.33,-1.18 5.44,11.1 -0.77,10.48 -4.11,3.12 z"
       id="M24324"
       style="fill:#ffff80;fill-opacity:1;stroke:#000000;stroke-width:2.31553;stroke-dasharray:none;stroke-opacity:1" />
    <path
       d="m 36.76,1337.33 14.03,-8.78 6.38,2.33 2.57,-2.93 -4.11,-10.27 5.94,-7.8 7.3,-3.86 2.87,-4.19 -1.15,-6.51 9.8,4.78 3.59,4.73 14.74,-1.62 4.26,2.64 5.36,9.28 0.37,7.25 6.41,5.6 -0.51,12.58 9.32,-1.12 9.85,5.55 -5.4,15.13 -4.44,22.28 -7.63,3.17 -18.5,-8.37 -7.69,0.83 3.07,9.56 -10.1,0.41 -13.12,-6.92 -4.47,-5.87 -0.79,-15.85 -7.84,2.01 -5.86,-4.25 -3.46,-7.41 -7.6,-1.31 z"
       id="M24562"
       style="fill:#ffff80;fill-opacity:1;stroke:#000000;stroke-width:2.31553;stroke-dasharray:none;stroke-opacity:1" />
    <path
       d="m 70.59,1295.32 -8.06,-7.63 2.31,-8.42 16.91,-1.07 0.42,-10.3 6.25,-8.96 -2.19,-10.31 10.21,-9.62 19.98,0.78 7.39,-3.02 12.64,0.2 2.2,6.85 -2.06,7.28 7.73,12.27 5.77,0.09 10.58,8.62 -2.63,6.83 1.5,4.9 -6.68,12.91 -3.84,10.91 -4.45,7.37 -10.79,29.99 -9.85,-5.55 -9.32,1.12 0.51,-12.58 -6.41,-5.6 -0.37,-7.25 -5.36,-9.28 -4.26,-2.64 -14.74,1.62 -3.59,-4.73 z"
       id="M24561"
       style="fill:#ffff80;fill-opacity:1;stroke:#000000;stroke-width:2.31553;stroke-dasharray:none;stroke-opacity:1" />
    <path
       d="m 669.37,203.04 -5.17,-2.52 -12.9,-23.04 -4.66,-16.91 -3.91,-20.49 12.83,7.19 7.9,10.32 5.75,4.76 1.84,8.22 1.01,17.02 5.56,13.94 8.84,12.13 -5.45,3.33 -5.75,-5.3 z"
       id="M24303"
       style="fill:#ffff80;fill-opacity:1;stroke:#000000;stroke-width:2.31553;stroke-dasharray:none;stroke-opacity:1" />
    <path
       d="m 612.9,230.19 -2.99,-10.17 -6.28,5.19 -5.39,-5.85 2.46,-6.24 6.84,-4.29 5.66,1.05 4.75,-4.97 0.3,-4.55 7.54,6.28 6.71,10.06 -2.42,4.68 2.16,7.91 -10.21,2.89 -1.18,-3.77 z"
       id="M24344"
       style="fill:#ffff80;fill-opacity:1;stroke:#000000;stroke-width:2.31553;stroke-dasharray:none;stroke-opacity:1" />
    <path
       d="m 600.7,213.12 -9.63,-4.15 -3.3,-6.89 1.04,-5.41 6.4,1.73 7.61,-4.69 10.76,-0.44 4.67,7.09 -0.3,4.55 -4.75,4.97 -5.66,-1.05 z"
       id="M24343"
       style="fill:#ffff80;fill-opacity:1;stroke:#000000;stroke-width:2.31553;stroke-dasharray:none;stroke-opacity:1" />
    <path
       d="m 512.05,171.66 2.24,9.14 -2.13,9.27 -4.04,6.3 0.56,4.87 18.46,1.47 -6.35,19.93 -9.81,-3.42 -2.28,4.84 8.64,10.52 -10.72,3.15 -7.99,-2.12 -3.8,3.26 -4.97,-1.96 -23.34,4.59 -2.06,-1.77 -9.2,4.65 -5.89,-6 -7.19,-2.87 -11.81,-0.81 -6.04,1.49 -3.14,-10.56 0.12,-7.61 3.11,-1.52 -3.61,-14.59 1.05,-11.12 5.12,-6.81 12.58,-8.87 -4.72,-14.36 5,-3.71 12.41,0.75 13.37,-6.44 14.56,1.22 8.66,3.23 4.38,-1.71 11.58,5.39 -1.06,6.82 z"
       id="M24341"
       style="fill:#ffff80;fill-opacity:1;stroke:#000000;stroke-width:2.31553;stroke-dasharray:none;stroke-opacity:1" />
  </g>
</svg>
