<?xml version="1.0" encoding="UTF-8" standalone="no"?>
<svg
   version="1.2"
   width="404.3772"
   height="600"
   viewBox="0 0 404.3772 600"
   stroke-linecap="round"
   stroke-linejoin="round"
   id="svg1369"
   sodipodi:docname="mz.svg"
   inkscape:version="1.2 (dc2aedaf03, 2022-05-15)"
   xmlns:inkscape="http://www.inkscape.org/namespaces/inkscape"
   xmlns:sodipodi="http://sodipodi.sourceforge.net/DTD/sodipodi-0.dtd"
   xmlns="http://www.w3.org/2000/svg"
   xmlns:svg="http://www.w3.org/2000/svg">
  <defs
     id="defs1373" />
  <sodipodi:namedview
     id="namedview1371"
     pagecolor="#505050"
     bordercolor="#eeeeee"
     borderopacity="1"
     inkscape:showpageshadow="0"
     inkscape:pageopacity="0"
     inkscape:pagecheckerboard="0"
     inkscape:deskcolor="#505050"
     showgrid="false"
     inkscape:zoom="0.67902275"
     inkscape:cx="203.23325"
     inkscape:cy="300.43176"
     inkscape:window-width="1920"
     inkscape:window-height="1009"
     inkscape:window-x="-8"
     inkscape:window-y="-8"
     inkscape:window-maximized="1"
     inkscape:current-layer="svg1369" />
  <g
     id="mz"
     transform="matrix(0.50548523,0,0,0.50548523,-0.00548561,-0.00548546)"
     style="fill:#ffff80;fill-opacity:1;stroke:#000000;stroke-width:1.9783;stroke-dasharray:none;stroke-opacity:1">
    <path
       d="m 262.98,724.81 -0.92,5.93 11,8 -5.11,8.39 -8.75,0.66 -11.72,-5.87 -6.42,0.27 -6.79,-4.54 -4.25,-6.35 -6.85,0.81 -19.46,28.94 -1.22,6.78 -10.51,2.64 -24.11,-7.59 -8.08,3.6 -15.7,0.21 -0.12,-0.17 -0.73,-18.28 6.49,-10.04 11.11,-2.78 7.02,-8.07 9.32,2.9 5.58,-4.29 -3.17,-14.77 10.15,-16.49 5.06,7.55 5.8,3.04 0.71,6.58 7.79,5.68 15.02,-6.85 9.26,0.78 7.93,-3.2 9.21,5.55 z"
       id="M45361"
       style="fill:#ffff80;fill-opacity:1;stroke:#000000;stroke-width:1.9783;stroke-dasharray:none;stroke-opacity:1" />
    <path
       d="m 385.87,690.02 -11.09,0.47 -11.05,5.78 -8.32,0.92 -0.55,-4.37 -6.93,-14.32 -11.21,5.9 -8.39,-3.52 -7.19,2.26 -5.12,-4.94 -1.73,-9.58 -7.59,-7.64 2.97,-7.86 -0.37,-12.53 6.55,-6.75 -0.12,-10.74 -4.21,-7 16.33,-9.12 -4.77,-9.44 -0.52,-11.14 -4.12,-15.09 5.66,1.18 6.86,-2.82 1.65,21.81 10.11,19.55 6.89,10.78 1.7,8.57 13.23,10.98 4.09,6.26 11.23,3.02 11.11,16.05 -0.56,16.78 z"
       id="M45383"
       style="fill:#ffff80;fill-opacity:1;stroke:#000000;stroke-width:1.9783;stroke-dasharray:none;stroke-opacity:1" />
    <path
       d="m 385.87,690.02 4.54,-6.55 0.56,-16.78 -11.11,-16.05 -11.23,-3.02 -4.09,-6.26 -13.23,-10.98 -1.7,-8.57 -6.89,-10.78 -10.11,-19.55 -1.65,-21.81 3.12,-0.51 7.62,8.38 8.96,-2.02 5.64,6.46 5.68,10.49 7.81,3.94 14.04,-0.47 6.08,13.13 6.21,6.32 18.88,11.07 4.67,-0.52 1.75,6.93 5.59,5.76 2.18,6.26 11.02,8.27 6.68,-0.15 9.86,6.68 8.82,0.76 -0.65,8.2 -6.38,8.86 2.31,3.93 -3.61,7.06 -2.15,12.23 -7.56,-7.04 -8.28,-3.58 -11.04,2.41 -3.59,10.33 -9.86,-0.72 -12.09,-10.3 -12.07,-3.3 z"
       id="M45382"
       style="fill:#ffff80;fill-opacity:1;stroke:#000000;stroke-width:1.9783;stroke-dasharray:none;stroke-opacity:1" />
    <path
       d="m 385.87,860.5 -0.49,10.6 -3.68,4.64 -2.26,10.49 -14.01,2.38 -5.05,13.75 -9.59,2.12 -9.99,7.5 -12.32,3.91 -10.94,10.75 -5.97,12.16 -10.25,1.97 -7.37,-6.84 -5.34,-0.53 -1.21,-6.76 -6.34,-10.4 -13.47,-9.36 3.2,-13.39 1.72,-14.88 3.74,-4.38 -3.66,-7.94 5.73,-8.44 10.41,1.58 6.61,6.69 0.34,4.07 6.87,4.61 1.36,8.16 14.89,3.62 8.6,-15.21 4.82,-3.66 9.81,-0.92 1.63,-7.84 8.49,-10.39 4.3,0.81 5.18,-11.95 4.13,-0.27 -1.5,12.11 2.35,3.68 15.21,-2.1 z"
       id="M45341"
       style="fill:#ffff80;fill-opacity:1;stroke:#000000;stroke-width:1.9783;stroke-dasharray:none;stroke-opacity:1" />
    <path
       d="m 170.94,582.57 8.82,27.47 -8.28,7.63 -5.11,7.76 -1.04,9.24 -8.08,3.93 -8.74,9.16 -4.15,-2.86 -17.52,1.46 -7.2,8.79 3.88,6.37 -3.76,20.14 7.33,1.03 2.6,7.73 -1.47,7.66 -10.35,6.15 -3.27,13.3 -6.3,10.57 -2.64,-3.3 -11.54,-3.74 -15.27,1.39 -8.68,-7.08 -7.33,-18.81 -7.01,-4.62 -3.75,-15.15 -1.23,-14.85 -10.49,-7.02 -2.03,-6.47 -7.48,-2.38 -8.1,-9.57 L 1.24,628.87 1,613.24 l 8.45,-6.82 3.14,-12.13 22.42,-2.12 4,5.32 5.09,-3.77 8.49,1.64 19.36,0.1 8.76,3.55 1.44,-3.86 10.95,-6 12.27,6.02 3.65,-1.68 4.74,-10.65 5.94,-4.83 13.04,-3.93 5.91,-6.12 7.03,6.73 7.56,2.2 3.47,4.91 7.87,-2.64 z"
       id="M45209"
       style="fill:#ffff80;fill-opacity:1;stroke:#000000;stroke-width:1.9783;stroke-dasharray:none;stroke-opacity:1" />
    <path
       d="m 465.57,660.45 -8.82,-0.76 -9.86,-6.68 -6.68,0.15 -11.02,-8.27 -2.18,-6.26 -5.59,-5.76 -1.75,-6.93 -4.67,0.52 -18.88,-11.07 -6.21,-6.32 -6.08,-13.13 -14.04,0.47 -7.81,-3.94 -5.68,-10.49 -5.64,-6.46 -8.96,2.02 -7.62,-8.38 -2.91,-6.65 5.54,-8.61 9.23,0.88 3.4,-13.84 6.69,-3.31 8.96,4.19 4.61,-2.49 6.74,2.67 7.36,-6.1 1.3,-4.9 9.33,-2.06 -9.73,-15 6.47,-2.5 -0.3,-7.41 -6.82,1.86 -9.3,-1.9 -8.8,-13.25 -1.98,-8.38 -10.88,-15.66 2.58,-11.57 -15.53,-15.92 0.74,-2.98 -8.26,-8.9 -10.93,-1.12 0.95,-11.86 4.68,-3.62 4.6,-9.29 5.9,0.71 8.57,8 8.39,4.88 7.67,-3.76 9.66,-0.33 9.4,10.36 16.55,5.66 15.04,13.14 12.44,13.8 6.05,-3.28 7.3,2.4 5.74,4.81 -3.93,6.11 5.05,15.93 9.72,9.1 15.79,20.37 2.71,13.25 9.64,10.24 0.94,11.11 4.34,2.31 8.4,11.9 11.4,3.85 -3.76,4.98 -1.02,5.54 -0.5,4.47 -8.23,10.24 -7.16,6.08 -1.94,10.44 3.53,4.87 -5.87,9.5 5.63,7.41 7.78,4.93 -5.28,2.67 -2.86,-4.89 -9.33,-5.81 -3.44,3.58 -11.09,22.45 z"
       id="M45208"
       style="fill:#ffff80;fill-opacity:1;stroke:#000000;stroke-width:1.9783;stroke-dasharray:none;stroke-opacity:1" />
    <path
       d="m 463.05,1079.69 3.86,6.67 -2.86,4.27 -14.65,6.86 1.09,12.97 3.6,3.29 1.79,12.31 -4.91,12.26 -5.54,0.98 -10.06,6.95 0.65,9.18 -6.59,0.46 -0.91,7.27 2.23,7.29 9.78,7.16 -0.64,4.02 -9.19,4.37 -8.37,-3.59 -4.84,-5.97 -1.07,-10.6 -3.53,-3.76 -8.36,4.41 -4.1,-3.19 -5.88,6.16 -13.5,1.52 -11.27,-5.37 -7.02,-15.03 0.79,-7.93 5.64,-4.59 -1.37,-4.29 -11.74,-4.78 -4.96,-6.58 -9.03,-5.96 0.93,-3.85 -16.99,-2.92 -3.3,5.35 -5.94,-6.32 -5.42,-1.59 2.93,-11.11 -0.79,-8.34 5.34,-7.97 0.71,-6.36 16.84,-7.6 2.66,-4.91 0.5,-10.68 -2.86,-6.18 -1.27,-10.72 -4.14,-3.9 8.46,-7.99 2.5,-10.17 -5.45,-12.22 -6.95,-6.64 -1.34,-5.24 2.83,-9.66 8.91,-11.77 7.62,2.74 1.66,6.06 5.67,3.38 6.14,-4.06 8.99,3.22 7.47,8.06 -1.8,20.91 4.43,7.28 6.06,1.31 2.7,6.16 -5.78,7.52 8.65,6.42 -0.54,10.04 8.63,8.06 -1.93,13.32 6.2,3.98 2.93,9.93 10.71,-0.2 6.86,-6.5 2.17,5.9 12.97,3.95 9.7,-3.21 4.98,2.4 z"
       id="M45207"
       style="fill:#ffff80;fill-opacity:1;stroke:#000000;stroke-width:1.9783;stroke-dasharray:none;stroke-opacity:1" />
    <path
       d="m 645.05,307.27 3.99,8.38 15.86,5.12 0.71,6.38 -8.67,1.11 4.44,7.71 -6.73,8.94 -8.22,-2.17 -4.93,3.66 -4.88,10.17 -3.89,12.68 2.21,7.87 -4.47,1.95 -4.67,10.3 3.7,4.76 -3.58,6.72 -7.54,5.94 -9.07,13.01 -4.22,9.55 -8.22,-2.36 -5.42,10.26 -7.28,-7.13 -3.93,-14.12 -4.47,-0.54 -15.06,7.32 -18.65,14.98 -8.87,-2.29 -1.27,-8.27 -8.83,-8.22 -8.31,7.6 -8.75,-3.27 -14.28,6 -10.53,-2.16 -3.02,-2.97 -8.41,-0.08 -8.11,-2.78 -8.09,0.19 0.39,-4.83 -14.04,-8.36 -5.18,2.18 -1.2,-6.52 3.04,-17.02 4.39,-6.29 5.01,0.56 13.7,8.87 12.94,-12.97 5.99,-15.11 14.7,0.38 5.37,-2.97 7.52,0.03 3.75,-5.17 13.28,-2.04 8.06,-11.7 -0.27,-9.66 -5.24,-12.14 2.92,-7.35 18.05,-2.97 4.42,6.32 8.29,3.59 12.49,1.51 10.07,-3.33 4.91,1.65 13.59,-18.52 2.86,-7.06 9.12,3.72 4.42,7.89 7.81,-2.72 5.36,4.05 z"
       id="M45206"
       style="fill:#ffff80;fill-opacity:1;stroke:#000000;stroke-width:1.9783;stroke-dasharray:none;stroke-opacity:1" />
    <path
       d="m 262.98,724.81 -12.46,-10.98 -9.21,-5.55 -7.93,3.2 -9.26,-0.78 -15.02,6.85 -7.79,-5.68 -0.71,-6.58 -5.8,-3.04 -5.06,-7.55 -10.15,16.49 3.17,14.77 -5.58,4.29 -9.32,-2.9 -7.02,8.07 -11.11,2.78 -6.49,10.04 0.73,18.28 -8.84,0.18 -15.38,-29.17 -8.56,-9.43 h -2.89 l 6.3,-10.57 3.27,-13.3 10.35,-6.15 1.47,-7.66 -2.6,-7.73 -7.33,-1.03 3.76,-20.14 -3.88,-6.37 7.2,-8.79 17.52,-1.46 4.15,2.86 8.74,-9.16 8.08,-3.93 1.04,-9.24 5.11,-7.76 8.28,-7.63 -8.82,-27.47 5.41,-3.73 8.88,-0.7 0.1,-12.72 12.22,-9.06 1.21,-8.05 6.37,-9.2 6.39,-3.9 3.77,3.63 13.16,-0.03 4.91,6.93 9.67,4.19 7.24,-2.91 17.73,5.86 8.65,-6.24 8.46,12.48 5.73,-1.75 3.04,8.05 10.67,0.36 6.66,-1.71 5.64,2.33 1.59,4.91 4.12,15.09 0.52,11.14 4.77,9.44 -16.33,9.12 4.21,7 0.12,10.74 -6.55,6.75 0.37,12.53 -2.97,7.86 7.59,7.64 1.73,9.58 5.12,4.94 7.19,-2.26 8.39,3.52 2.32,5.96 5.48,2.1 -2.55,11.58 -3.23,0.22 -5.02,9.79 4.12,9.44 -17.08,-3.83 -2.5,4.43 -9.23,-0.46 -4.75,-3.54 -11.7,-0.6 -21.2,11.08 -1.81,-5.32 z"
       id="M45205"
       style="fill:#ffff80;fill-opacity:1;stroke:#000000;stroke-width:1.9783;stroke-dasharray:none;stroke-opacity:1" />
    <path
       d="m 311.57,938.8 5.97,-12.16 10.94,-10.75 12.32,-3.91 9.99,-7.5 9.59,-2.12 5.05,-13.75 14.01,-2.38 2.26,-10.49 3.68,-4.64 0.49,-10.6 12.22,3.93 15.35,-6.03 -0.88,-7.7 19.04,-0.89 7.57,6.68 24.13,1.51 8.57,3.11 0.55,13.38 9.03,1.38 3.96,8.75 10.64,6.68 21.75,2.88 2.88,4.33 -6.43,9.3 2.73,4.45 -4.22,4.29 8.33,9.1 -8.08,3.83 -3.09,10.1 6.25,0.45 1.44,13.16 -6.74,11.85 5.93,3.61 -3.53,6.81 -7.4,5.96 -15.95,6.79 -8.95,14.65 1.94,6.14 -8.74,3.26 -2.3,13.4 -7.96,2.75 -2.14,4.57 2.78,9.35 -3.06,11.74 3.02,5.59 -7.85,10.72 7.65,2.41 -1.26,6.9 -8.31,2.64 -4.98,-2.4 -9.7,3.21 -12.97,-3.95 -2.17,-5.9 -6.86,6.5 -10.71,0.2 -2.93,-9.93 -6.2,-3.98 1.93,-13.32 -8.63,-8.06 0.54,-10.04 -8.65,-6.42 5.78,-7.52 -2.7,-6.16 -6.06,-1.31 -4.43,-7.28 1.8,-20.91 -7.47,-8.06 -8.99,-3.22 -6.14,4.06 -5.67,-3.38 -1.66,-6.06 -7.62,-2.74 -3.42,-6.01 -11.36,-5.06 -0.54,-4.39 -8.23,-9.97 z m 170.54,102.53 3.59,8.34 -4.32,9.76 -4.6,-8.7 z"
       fill-rule="evenodd"
       id="M45204"
       style="fill:#ffff80;fill-opacity:1;stroke:#000000;stroke-width:1.9783;stroke-dasharray:none;stroke-opacity:1" />
    <path
       d="m 697.62,275.8 -8.36,1.14 -5.56,-2.31 -7.61,1.6 -8.49,5.09 -3.86,-5.39 -6.53,-1.97 -3.17,-7 -14.61,-9.31 -10.2,-0.29 -8.49,2.17 -1.13,-7.93 -6.49,-4.16 -8.11,4.98 -7.17,-11.2 0.49,-5.46 -10.98,0.73 -2.22,5.15 -9.71,2.64 -14.73,-3.74 -7.69,-4.74 -7.17,-8.72 -13.15,-6.3 -8.67,-1.55 -5.87,6.02 -5.15,1.65 -18.89,-2.05 7.79,-7.3 5.41,-14.97 0.76,-18.75 1.92,-2.33 -2.36,-10.5 -9.32,-5.67 3.74,-17.24 -4.16,-5.55 9.28,-8.13 -0.77,-4.85 4.49,-11.4 8.6,-7.89 6.51,-2.29 5.03,-10.56 0.95,-10.12 -2.1,-6.21 5.87,-8.08 -1.02,-7.05 -4.44,-2.78 6.55,-11.29 11.46,-0.18 2.45,3.68 16.48,8.76 22.16,3.8 7,-5.51 7.38,-10.63 18.94,0.82 5.04,-1.14 10.43,3.38 5.18,-1.14 19.04,2.73 13.57,-5.08 11.02,0.9 3.97,-14.01 6.56,-5.26 2.14,-15.02 2.43,-1.7 0.72,-10.57 12.47,-4.31 10.02,-0.41 12.55,2.66 0.36,4.62 12.83,4.68 12.13,-6.25 6.8,8.23 9.28,1.5 7.24,-2.9 0.87,12.43 -7.33,12.65 -3.38,10.93 3.72,16.95 -3.86,6.71 1.96,9.48 9.85,-3.45 10.69,0.71 -0.85,4.67 -9.73,-0.86 -2.73,4.21 4.52,8.8 -9.68,-2.73 -2.87,10.93 5.3,4.66 -7.25,9.8 -11.1,-13.01 -6.66,3.01 -0.93,12.85 -9.32,2.55 -7.31,9.24 -4.18,-1.77 -8.75,6.67 -0.31,5.32 -5.91,0.83 2.99,9.42 4.25,5.1 -0.23,5.24 -5.72,4.76 -0.2,9.68 -5.77,10.03 -5.73,2.01 -3.52,7.6 -14.99,1.98 -9.09,3.32 -11.98,20.47 -4.72,15.85 0.11,6.48 3.73,7.08 -2.38,11.62 10.95,1.14 1.92,-8.73 5.97,6.29 -1.49,6.52 7.57,0.87 z m 61.51,-142.88 2.55,4.04 9.67,1.83 -8.72,7.93 -7.81,-1.28 0.06,-9.26 z"
       fill-rule="evenodd"
       id="M45203"
       style="fill:#ffff80;fill-opacity:1;stroke:#000000;stroke-width:1.9783;stroke-dasharray:none;stroke-opacity:1" />
    <path
       d="m 144.09,766.69 15.7,-0.21 8.08,-3.6 24.11,7.59 10.51,-2.64 1.22,-6.78 19.46,-28.94 6.85,-0.81 4.25,6.35 6.79,4.54 6.42,-0.27 11.72,5.87 8.75,-0.66 5.11,-8.39 -11,-8 0.92,-5.93 6.59,0.44 1.81,5.32 21.2,-11.08 11.7,0.6 4.75,3.54 9.23,0.46 2.5,-4.43 17.08,3.83 10.5,7 4.07,9.24 -7.79,5.45 -6.16,-4.49 -6.11,6.71 -0.54,23.18 3.83,8.85 7.51,5.16 6.93,-13.73 15.13,3.01 5.21,-1.96 1.99,10.86 3.05,3.86 -8.03,7.9 -0.73,7.68 -8.9,4.63 -4.02,5.27 5.41,10.22 5.37,6.33 1.2,8.49 -4.13,0.27 -5.18,11.95 -4.3,-0.81 -8.49,10.39 -1.63,7.84 -9.81,0.92 -4.82,3.66 -8.6,15.21 -14.89,-3.62 -1.36,-8.16 -6.87,-4.61 -0.34,-4.07 -6.61,-6.69 -10.41,-1.58 -5.73,8.44 3.66,7.94 -3.74,4.38 -1.72,14.88 -3.2,13.39 13.47,9.36 6.34,10.4 1.21,6.76 5.34,0.53 7.37,6.84 10.25,-1.97 5.13,1.43 8.23,9.97 0.54,4.39 11.36,5.06 3.42,6.01 -8.91,11.77 -13.25,-9 -7.5,-2.9 -7.36,5.17 -13.77,3.34 -8.72,-3.38 -9.48,-11.18 -14.81,-12.39 -4.56,1.68 -12.44,19.67 -4.57,-6.85 -1,-8.3 -6.27,-7.47 -4.06,-0.87 -4.51,-8.94 1.59,-6.65 -1.98,-7.48 3.36,-4.56 -6.89,-6.18 -3.68,-6.33 3.11,-9.03 -1.66,-19.49 -11.77,2.31 -4.88,-4.19 -8.29,-0.33 -0.28,-5.83 9.24,-9.85 -3.2,-7.18 -4.58,1.29 -6.02,-4.84 -3.2,2.42 -25.26,-3.83 -7.89,-13.7 -11.55,1.94 -12.35,-4.8 -4,-6.94 0.92,-10.5 2.37,-3.74 -3.75,-8.54 5.56,-1.06 3.27,-4.98 -0.99,-7.31 4.63,-13.69 5.36,-5.19 z"
       id="M45202"
       style="fill:#ffff80;fill-opacity:1;stroke:#000000;stroke-width:1.9783;stroke-dasharray:none;stroke-opacity:1" />
    <path
       d="m 336.72,684.4 11.21,-5.9 6.93,14.32 0.55,4.37 8.32,-0.92 11.05,-5.78 11.09,-0.47 4.73,-1.49 12.07,3.3 12.09,10.3 9.86,0.72 3.59,-10.33 11.04,-2.41 8.28,3.58 7.56,7.04 2.15,-12.23 3.61,-7.06 -2.31,-3.93 6.38,-8.86 0.65,-8.2 -0.52,-11.99 11.09,-22.45 3.44,-3.58 9.33,5.81 2.86,4.89 5.28,-2.67 5.51,-1.06 8,3.92 9.88,1.45 13.08,7.2 14.13,-3.93 -2.52,4.41 -14.77,50.72 -6.57,25.07 -3.68,19.35 1.36,7.62 -3.03,13.19 -4.57,4.86 -0.5,12.73 -2.83,10.18 -0.81,21.48 2.29,14.24 10.03,15.17 9.04,9.73 3.68,0.16 -14.07,29.34 2.35,4.03 -5.52,7.81 3.15,10.38 -2.88,-4.33 -21.75,-2.88 -10.64,-6.68 -3.96,-8.75 -9.03,-1.38 -0.55,-13.38 -8.57,-3.11 -24.13,-1.51 -7.57,-6.68 -19.04,0.89 0.88,7.7 -15.35,6.03 -12.22,-3.93 -4.05,-9.66 -15.21,2.1 -2.35,-3.68 1.5,-12.11 -1.2,-8.49 -5.37,-6.33 -5.41,-10.22 4.02,-5.27 8.9,-4.63 0.73,-7.68 8.03,-7.9 -3.05,-3.86 -1.99,-10.86 -5.21,1.96 -15.13,-3.01 -6.93,13.73 -7.51,-5.16 -3.83,-8.85 0.54,-23.18 6.11,-6.71 6.16,4.49 7.79,-5.45 -4.07,-9.24 -10.5,-7 -4.12,-9.44 5.02,-9.79 3.23,-0.22 2.55,-11.58 -5.48,-2.1 z"
       id="M45201"
       style="fill:#ffff80;fill-opacity:1;stroke:#000000;stroke-width:1.9783;stroke-dasharray:none;stroke-opacity:1" />
    <path
       d="m 362.34,75.9 8.31,0.6 5.61,7.12 -0.91,10.47 -14.12,12.04 5.78,6.47 -0.11,4.06 -8.81,7.46 7.2,9.78 8.57,-3.29 8.73,4.89 2.91,15.97 -1.05,8.29 -7.91,-1.27 1.38,9.04 -3.02,16.3 -6.71,9.78 -8.95,6.04 -4.06,-2.71 -10.96,4.76 -7.77,-9.89 -13.67,1.16 -2.67,7.76 2.09,4.32 -3.81,10.81 -7.37,5.89 -16.45,0.47 -2.98,4.21 -7.22,-0.31 -6.08,-3.34 -4.35,-13.84 0.73,-7.7 5.04,-1.8 4.11,-6.03 -2.43,-17.84 2.67,-6.61 -2.48,-10.91 5.05,-1.59 2.42,-7.74 8.83,-8.43 2.06,-9.08 5.55,-3.37 7.99,6.76 7.92,-0.12 0.2,-17.42 3.62,-5.43 -0.72,-7.78 7.21,-9.9 11.01,-6.6 3.93,1.19 13.31,-12.4 z"
       id="M45443"
       style="fill:#ffff80;fill-opacity:1;stroke:#000000;stroke-width:1.9783;stroke-dasharray:none;stroke-opacity:1" />
    <path
       d="m 548.29,51.71 -11.46,0.18 -6.55,11.29 4.44,2.78 1.02,7.05 -5.87,8.08 2.1,6.21 -0.95,10.12 -5.03,10.56 -6.51,2.29 -8.6,7.89 -4.49,11.4 0.77,4.85 -9.28,8.13 4.16,5.55 -3.74,17.24 9.32,5.67 2.36,10.5 -1.92,2.33 -0.76,18.75 -5.41,14.97 -7.79,7.3 -5.12,-3.14 -8.43,2.32 -8.66,-6.36 -10.5,5.15 -4.58,-1.37 -6.59,-16.1 -5.43,-8.98 0.65,-10.75 -6.8,-3.14 -12.34,0.61 -8.75,-13.69 -4.16,-0.69 3.39,-11.89 2.09,-13.35 5.55,-9.05 1.25,-7.26 -6.98,-10.99 3.46,-9.68 7.87,7.01 10.92,-1.8 4.86,1.7 8.74,-14.14 6.47,-0.34 5.76,-10.61 8.07,-8.08 0.38,-11.66 3.57,-15.02 9.36,-21 0.8,-11.31 6.84,-5.22 3.87,-8.3 11.74,-0.32 15.04,-5.77 1.73,4.21 9.9,12.22 16.33,12.17 -4.56,8.65 z"
       id="M45442"
       style="fill:#ffff80;fill-opacity:1;stroke:#000000;stroke-width:1.9783;stroke-dasharray:none;stroke-opacity:1" />
    <path
       d="m 384.45,159.76 1.05,-8.29 -2.91,-15.97 -8.73,-4.89 -8.57,3.29 -7.2,-9.78 8.81,-7.46 0.11,-4.06 -5.78,-6.47 14.12,-12.04 0.91,-10.47 -5.61,-7.12 -8.31,-0.6 1.46,-11.42 6.34,-8.85 -6.3,-6.19 0.1,-6.01 5.45,-1.67 0.85,-10.07 5.87,-4.59 1.75,-10.87 5.17,-6.77 14.04,-3.99 3.72,2.92 6.79,-1.44 14.52,0.75 4.98,-3.79 6.84,-0.09 6.47,7.36 -0.79,11.06 10.39,5.92 9.77,-4.94 14.92,-3.25 14.27,1.27 -0.8,11.31 -9.36,21 -3.57,15.02 -0.38,11.66 -8.07,8.08 -5.76,10.61 -6.47,0.34 -8.74,14.14 -4.86,-1.7 -10.92,1.8 -7.87,-7.01 -3.46,9.68 6.98,10.99 -1.25,7.26 -5.55,9.05 -2.09,13.35 -3.39,11.89 -21.62,-7.43 z"
       id="M45441"
       style="fill:#ffff80;fill-opacity:1;stroke:#000000;stroke-width:1.9783;stroke-dasharray:none;stroke-opacity:1" />
    <path
       d="m 491.75,429.31 14.28,-6 8.75,3.27 8.31,-7.6 8.83,8.22 1.27,8.27 8.87,2.29 18.65,-14.98 15.06,-7.32 4.47,0.54 3.93,14.12 7.28,7.13 5.42,-10.26 8.22,2.36 -10.08,28.28 -1.14,17.86 -1.7,8.62 -15.71,1.34 -7.24,6.14 -4.16,-3.18 6.07,-6.66 -3.51,-2.44 -23.27,-2.38 -13.85,-2.92 -9.83,-10.77 -5.21,1.41 4.29,9.52 -19.2,6.25 -5.56,-5.43 3.22,-5.2 -1.24,-11.64 -3.02,-5.57 -3.21,-15.98 z"
       id="M45406"
       style="fill:#ffff80;fill-opacity:1;stroke:#000000;stroke-width:1.9783;stroke-dasharray:none;stroke-opacity:1" />
    <path
       d="m 500.55,480.42 19.2,-6.25 -4.29,-9.52 5.21,-1.41 9.83,10.77 13.85,2.92 23.27,2.38 3.51,2.44 -6.07,6.66 4.16,3.18 7.24,-6.14 15.71,-1.34 -6.82,16.51 -6.79,22.92 -0.25,7.83 -6.25,17.44 -4.08,0.76 -8.02,-9.61 -4.61,-2.55 -4.04,12.98 -13.78,-5.39 -8.2,-4.14 -11.57,-20.74 -10.11,-5.17 -3.52,-5.81 -1.07,-10.77 1.65,-8.44 z"
       id="M45405"
       style="fill:#ffff80;fill-opacity:1;stroke:#000000;stroke-width:1.9783;stroke-dasharray:none;stroke-opacity:1" />
    <path
       d="m 504.83,566.98 3.76,-4.98 -11.4,-3.85 -8.4,-11.9 -4.34,-2.31 -0.94,-11.11 -9.64,-10.24 -2.71,-13.25 -15.79,-20.37 -9.72,-9.1 -5.05,-15.93 3.93,-6.11 -5.74,-4.81 -7.3,-2.4 -6.05,3.28 -12.44,-13.8 -15.04,-13.14 10.08,-4.96 5.11,-5.31 8.83,-0.18 12.78,-6.01 5.18,-2.18 14.04,8.36 -0.39,4.83 8.09,-0.19 8.11,2.78 8.41,0.08 3.02,2.97 10.53,2.16 -1.01,7.29 3.21,15.98 3.02,5.57 1.24,11.64 -3.22,5.2 5.56,5.43 4.16,9.51 -1.65,8.44 1.07,10.77 3.52,5.81 10.11,5.17 11.57,20.74 8.2,4.14 -5.19,5.06 -4.81,0.25 -1.88,6.32 -12.01,12.37 z"
       id="M45404"
       style="fill:#ffff80;fill-opacity:1;stroke:#000000;stroke-width:1.9783;stroke-dasharray:none;stroke-opacity:1" />
    <path
       d="m 330.96,569.67 -6.86,2.82 -5.66,-1.18 -1.59,-4.91 -5.64,-2.33 -6.66,1.71 -10.67,-0.36 -3.04,-8.05 -5.73,1.75 -8.46,-12.48 -5.12,-10.4 1.96,-15.2 -2.58,-7.66 -11.06,-3.73 -7.15,-14.45 -1.93,-8.52 -9.44,-8.99 -6.82,1.4 -2.92,-3.18 1.23,-11.97 6.6,-3.18 -3.02,-13.13 6.16,-2.83 7.94,5.17 13.59,-10.91 7.26,-14.27 11.73,-4.27 6.82,8.03 12.44,-4.22 8.43,0.71 5.08,7.55 5.74,-6.38 10.93,1.12 8.26,8.9 -0.74,2.98 15.53,15.92 -2.58,11.57 10.88,15.66 1.98,8.38 8.8,13.25 9.3,1.9 6.82,-1.86 0.3,7.41 -6.47,2.5 9.73,15 -9.33,2.06 -1.3,4.9 -7.36,6.1 -6.74,-2.67 -4.61,2.49 -8.96,-4.19 -6.69,3.31 -3.4,13.84 -9.23,-0.88 -5.54,8.61 2.91,6.65 z"
       id="M45403"
       style="fill:#ffff80;fill-opacity:1;stroke:#000000;stroke-width:1.9783;stroke-dasharray:none;stroke-opacity:1" />
    <path
       d="m 497.05,630.46 -7.78,-4.93 -5.63,-7.41 5.87,-9.5 -3.53,-4.87 1.94,-10.44 7.16,-6.08 8.23,-10.24 0.5,-4.47 11.34,3.37 8.6,12.7 5.95,2.15 5.43,-3.96 10.17,3.38 0.92,7.24 9.89,7.68 -8.46,32.96 -14.13,3.93 -13.08,-7.2 -9.88,-1.45 -8,-3.92 z"
       id="M45402"
       style="fill:#ffff80;fill-opacity:1;stroke:#000000;stroke-width:1.9783;stroke-dasharray:none;stroke-opacity:1" />
    <path
       d="m 503.81,572.52 1.02,-5.54 8.81,2.02 12.01,-12.37 1.88,-6.32 4.81,-0.25 5.19,-5.06 13.78,5.39 4.04,-12.98 4.61,2.55 8.02,9.61 4.08,-0.76 -5.79,31.78 -10.16,24.49 -9.89,-7.68 -0.92,-7.24 -10.17,-3.38 -5.43,3.96 -5.95,-2.15 -8.6,-12.7 z"
       id="M45401"
       style="fill:#ffff80;fill-opacity:1;stroke:#000000;stroke-width:1.9783;stroke-dasharray:none;stroke-opacity:1" />
    <path
       d="m 397.96,426.96 -16.55,-5.66 -9.4,-10.36 -9.66,0.33 -7.67,3.76 -8.39,-4.88 -8.57,-8 3.41,-6.66 -4.62,-3.79 -2.02,-6.61 1.17,-10.24 13.93,2.38 4.22,-7.55 10.72,-2.02 7.51,-5.27 5.84,-7.88 0.71,-6.97 -3.8,-7.05 -3.38,-12.22 1.87,-10.91 8.62,-4.02 23.5,-7.69 -1.47,-11.61 -13.11,-20.78 1.87,-5.52 9.16,2.36 3.6,-3.25 5.47,7.74 9.7,-2.61 4.96,-7.5 10.5,6.97 9.06,-1.69 18.68,13.6 -6.26,8.86 1.2,6.84 19.65,-8.82 5.07,-7.29 -0.23,-6.79 -8.64,-8.32 -1.97,-15.24 -2.66,-4.6 -10.78,-7.93 -5.83,-0.04 v -16.04 l 3.44,-2.54 4.58,1.37 10.5,-5.15 8.66,6.36 8.43,-2.32 5.12,3.14 18.89,2.05 5.15,-1.65 5.87,-6.02 8.67,1.55 13.15,6.3 7.17,8.72 7.69,4.74 4.04,16.14 -6.23,12.04 1.63,11.77 -9.32,3.3 -2.1,15.4 1.98,6.64 -3.92,2.6 -18.05,2.97 -2.92,7.35 5.24,12.14 0.27,9.66 -8.06,11.7 -13.28,2.04 -3.75,5.17 -7.52,-0.03 -5.37,2.97 -14.7,-0.38 -5.99,15.11 -12.94,12.97 -13.7,-8.87 -5.01,-0.56 -4.39,6.29 -3.04,17.02 1.2,6.52 -12.78,6.01 -8.83,0.18 -5.11,5.31 z"
       id="M45431"
       style="fill:#ffff80;fill-opacity:1;stroke:#000000;stroke-width:1.9783;stroke-dasharray:none;stroke-opacity:1" />
    <path
       d="m 337.72,402.15 -5.9,-0.71 -4.6,9.29 -4.68,3.62 -0.95,11.86 -5.74,6.38 -5.08,-7.55 -8.43,-0.71 -12.44,4.22 -6.82,-8.03 -11.73,4.27 4.1,-17.44 -7.94,-14.01 -3.16,1.01 -8.74,-4.48 -2.75,-8.69 3.99,-6.74 -3.86,-6.92 -4.22,-19.91 -16.44,-0.43 -7.41,-10.12 -11.12,-21.74 -0.12,-20.61 -6.39,-13.54 1.66,-20.44 10.38,-3.9 0.14,-9.14 -4.68,-11.93 4.05,-5.62 10.21,-0.88 -0.84,-8.31 3.75,-14.21 6.08,-4.34 15.14,2.35 9.14,4.49 11.62,-0.3 4.35,13.84 6.08,3.34 7.22,0.31 2.98,-4.21 16.45,-0.47 7.37,-5.89 3.81,-10.81 -2.09,-4.32 2.67,-7.76 13.67,-1.16 7.77,9.89 1.94,9.32 5.34,12.13 -3.73,11.3 0.76,8.7 3.12,8.5 7.7,-1.05 9.38,5.36 8.1,0.35 3.67,-3.78 8.17,0.99 4.14,6.35 -0.12,7.87 -1.87,5.52 13.11,20.78 1.47,11.61 -23.5,7.69 -8.62,4.02 -1.87,10.91 3.38,12.22 3.8,7.05 -0.71,6.97 -5.84,7.88 -7.51,5.27 -10.72,2.02 -4.22,7.55 -13.93,-2.38 -1.17,10.24 2.02,6.61 4.62,3.79 z"
       id="M45430"
       style="fill:#ffff80;fill-opacity:1;stroke:#000000;stroke-width:1.9783;stroke-dasharray:none;stroke-opacity:1" />
    <path
       d="m 344.22,201.7 10.96,-4.76 4.06,2.71 8.95,-6.04 6.71,-9.78 3.02,-16.3 -1.38,-9.04 7.91,1.27 7.32,1.52 21.62,7.43 4.16,0.69 8.75,13.69 12.34,-0.61 6.8,3.14 -0.65,10.75 5.43,8.98 6.59,16.1 -3.44,2.54 v 16.04 l 5.83,0.04 10.78,7.93 2.66,4.6 1.97,15.24 8.64,8.32 0.23,6.79 -5.07,7.29 -19.65,8.82 -1.2,-6.84 6.26,-8.86 -18.68,-13.6 -9.06,1.69 -10.5,-6.97 -4.96,7.5 -9.7,2.61 -5.47,-7.74 -3.6,3.25 -9.16,-2.36 0.12,-7.87 -4.14,-6.35 -8.17,-0.99 -3.67,3.78 -8.1,-0.35 -9.38,-5.36 -7.7,1.05 -3.12,-8.5 -0.76,-8.7 3.73,-11.3 -5.34,-12.13 z"
       id="M45429"
       style="fill:#ffff80;fill-opacity:1;stroke:#000000;stroke-width:1.9783;stroke-dasharray:none;stroke-opacity:1" />
    <path
       d="m 645.05,307.27 -14.94,-1.74 -5.36,-4.05 -7.81,2.72 -4.42,-7.89 -9.12,-3.72 -2.86,7.06 -13.59,18.52 -4.91,-1.65 -10.07,3.33 -12.49,-1.51 -8.29,-3.59 -4.42,-6.32 3.92,-2.6 -1.98,-6.64 2.1,-15.4 9.32,-3.3 -1.63,-11.77 6.23,-12.04 -4.04,-16.14 14.73,3.74 9.71,-2.64 2.22,-5.15 10.98,-0.73 -0.49,5.46 7.17,11.2 8.11,-4.98 6.49,4.16 1.13,7.93 8.49,-2.17 10.2,0.29 14.61,9.31 3.17,7 6.53,1.97 3.86,5.39 8.49,-5.09 7.61,-1.6 5.56,2.31 8.36,-1.14 0.05,2.73 -8.42,9.45 -3.59,-0.33 -9.73,10.11 -5.77,0.47 -7.16,-5.14 2.11,-3.29 -13.88,-3.41 -1.4,11.52 -3.98,1.93 z"
       id="M45421"
       style="fill:#ffff80;fill-opacity:1;stroke:#000000;stroke-width:1.9783;stroke-dasharray:none;stroke-opacity:1" />
  </g>
</svg>
