<?xml version="1.0" encoding="UTF-8" standalone="no"?>
<svg
   version="1.2"
   width="370.97058"
   height="599.99994"
   viewBox="0 0 370.97058 599.99994"
   stroke-linecap="round"
   stroke-linejoin="round"
   id="svg6798"
   sodipodi:docname="nr.svg"
   inkscape:version="1.2 (dc2aedaf03, 2022-05-15)"
   xmlns:inkscape="http://www.inkscape.org/namespaces/inkscape"
   xmlns:sodipodi="http://sodipodi.sourceforge.net/DTD/sodipodi-0.dtd"
   xmlns="http://www.w3.org/2000/svg"
   xmlns:svg="http://www.w3.org/2000/svg">
  <defs
     id="defs6802" />
  <sodipodi:namedview
     id="namedview6800"
     pagecolor="#505050"
     bordercolor="#eeeeee"
     borderopacity="1"
     inkscape:showpageshadow="0"
     inkscape:pageopacity="0"
     inkscape:pagecheckerboard="0"
     inkscape:deskcolor="#505050"
     showgrid="false"
     inkscape:zoom="0.62287481"
     inkscape:cx="184.62779"
     inkscape:cy="300.22084"
     inkscape:window-width="1920"
     inkscape:window-height="1009"
     inkscape:window-x="-8"
     inkscape:window-y="-8"
     inkscape:window-maximized="1"
     inkscape:current-layer="svg6798" />
  <g
     id="nr"
     transform="matrix(0.46362229,0,0,0.46362229,0.03636906,0.03634322)"
     style="fill:#ffff80;fill-opacity:1;stroke:#000000;stroke-width:2.15693;stroke-dasharray:none;stroke-opacity:1">
    <path
       d="m 261.21,355.53 -0.1,11.82 -5.36,14.39 -2.3,18.57 3.81,19.77 -2.47,9.49 -5.86,0.14 -3.69,-6.98 -10.1,0.04 5.6,-14.08 -13.55,0.13 -4.97,-9.35 -0.69,-16.99 -13.43,0.1 -4.77,-12.71 6.68,-15.98 9.6,-0.75 2.12,3.71 22.92,-2.65 11.06,-2.61 z"
       id="M29202"
       style="fill:#ffff80;fill-opacity:1;stroke:#000000;stroke-width:2.15693;stroke-dasharray:none;stroke-opacity:1" />
    <path
       d="m 423.96,895.84 3.84,10.95 5.17,3.33 2.81,10.6 -0.16,3.63 -15.73,14.24 0.55,10.26 5.09,10.22 -6.54,7.06 -3.03,11.1 3.37,11 -6.09,4.54 -5.78,11.08 6.99,12.38 -5.48,8.74 5.33,13.79 16.51,17.19 -1.54,7.54 -9.23,6.25 5.74,15.99 -1.78,5.52 3.96,7.65 -6.14,6.53 -0.51,10.37 -4.91,5.65 10.85,9.36 8.99,4.93 0.37,6.61 -15.86,19.48 -9.77,5.35 -0.91,15.2 5.81,7.54 0.41,9.9 13.07,5.57 -0.75,5.89 -12.66,-4.36 -5.15,2.22 4.84,10.33 -4.54,9.01 -13.64,-2.34 -0.33,-9.54 -16.69,-8.21 1.7,8.49 -11.83,18.52 3.18,19.59 11.76,-2.1 12.81,13.65 -9.11,8.35 -2.24,6.95 2.25,8.79 -8.98,2.37 -5.66,-3.94 -0.07,-19.28 -5.29,4.49 -6.26,-12.13 3.64,-8.08 -10.38,-12.45 -10.96,1.87 -23.77,-14.25 -8.94,-1.19 -6.06,4.86 -1.78,9.99 -10.71,1.68 -17.28,8.98 -13.42,-3.64 -11.71,7.82 -17.56,-8.47 -12.21,-12.46 -7.08,-4.33 -44.84,-0.6 -7.71,7.75 -8.98,-3.13 -11.98,3.97 1.85,11.83 -7.29,10.48 -9.17,6.52 -14.4,-0.07 -7.53,5.37 -12.83,1.44 10.2,-17.68 -8.44,-20.49 -15.37,0.43 -5.89,-4.81 -1.3,-7.94 11.85,-6.43 4.43,-17.13 -5.32,-9.68 2.26,-6.81 6.29,0.1 2.04,-10.23 -3.73,-5.91 3.14,-8.6 8.43,6.14 13.39,-0.47 -1.48,-11.91 5.38,-11.65 -3.16,-12.7 1.92,-8.68 -2.91,-9.97 -6.77,-1.59 -2.15,-9.41 -6.34,-6.14 -2.07,-10.67 -11.52,-0.7 -3.97,-4.66 -14.64,2.83 -4.92,-10.87 3.88,-11.83 5.58,-5.84 -5.73,-10.77 -0.11,-5.96 -7.66,-3.89 -8.55,-13.16 -6.31,-3.71 -9.37,2.09 -4.09,-8.29 -13.22,-3.32 -0.92,-3.87 20.34,-9.6 6.46,-4.47 17.43,0.96 4.36,-1.6 34.81,19.06 14.94,-5.36 5.71,-9.37 21.48,-6.14 6.07,-5.75 13.71,2.09 8.64,-2.96 5.3,2.3 10.04,-5.7 5.74,1.99 10.55,-5.09 2.4,-13.46 12.42,-15.35 -0.84,-7.77 7.17,-6.27 9.57,-14.69 4.6,-2.23 3.76,-9.13 -1,-8.13 8.59,-2.67 -1.14,-7.51 6.62,-1.85 16.74,3.94 11.4,10.77 9.08,12.13 21.55,-6.31 18.75,-2.09 6.54,-3.66 21.23,5.33 9.08,-8.76 9.4,-5.61 14.49,-2.8 7.64,0.88 13.37,8.97 z"
       id="M29449"
       style="fill:#ffff80;fill-opacity:1;stroke:#000000;stroke-width:2.15693;stroke-dasharray:none;stroke-opacity:1" />
    <path
       d="m 597.36,111.5 -11.17,7.28 -3.03,-7.36 -9.23,3.21 0.53,9.5 -8.93,-4.02 -6.99,2.48 -4.13,13.54 -9.97,2.82 -14.84,-4.86 -7.67,0.48 -3.92,-17.76 -4.32,1.93 -3.52,9.43 -13.03,7.95 -9.02,-1.54 -8.84,8.09 1.72,10.1 6.56,4.25 0.81,18.64 -1.7,5.64 22.58,-3.55 5.57,-5.12 -3.01,-7.45 8.48,-5.64 6.17,2.01 -5.47,15.78 4.8,4.07 8.14,17.12 -7.39,8.02 -1.1,10.2 7.94,13.52 -23.9,22.77 1.21,9.7 -8.4,3.43 -3.46,5.92 9.62,11.54 -4.43,11.46 2.74,10.06 -5.25,9.6 -11.61,0.51 -18.41,-3.03 -2,-9.26 -19.06,-31.64 -3.55,-1.33 16.51,-12.59 -3.71,-4.33 5.39,-6.48 -2.55,-8.77 9.11,-11.33 5.27,-0.99 -3.75,-12.52 -9.26,-15.62 -10.33,0.19 -5,13.8 -12.91,4.29 -13.43,-5.2 -10.43,-0.52 0.8,13.75 -3.77,7.21 0.02,12.05 -15.14,-5 -6.72,4.8 -6.9,-15.76 -6.38,3.17 -7.96,-1.5 -2.28,-10.17 -8.69,-10.15 0.4,-6.05 -18.63,4.47 -6.87,-2.71 -8.09,0.24 -0.46,-14.8 -12.41,-2.03 -0.1,-5.52 h -9.75 l -3.11,-11.74 -27.14,-0.17 -7.23,5.46 -11.72,0.42 -14.14,-4.64 -10.13,-8.01 -7.42,1.46 -11.55,-35.12 -1.69,-10.44 4.24,-12.65 11.31,-4.76 7.9,-15.56 7.04,-6.56 13.54,-0.08 2.08,-2.7 30.31,6.26 11.88,-2.32 13.56,4.05 2.51,5.44 7.55,1.03 8.59,7.85 7.94,-2.77 14.3,2.62 11.6,8.21 16.54,-0.38 5.37,-5.95 9.48,-4.8 10.45,0.36 5.8,5.89 8.35,-30.2 6.52,-2.88 10.11,-15.41 5.1,-13.86 9.56,-5.62 5.22,6.97 -6.65,11.46 0.86,4.44 9.9,5.36 10,-1.98 15.99,-13.02 3.86,10.43 8.95,-3.24 7.86,1.57 9.46,6.96 5.95,15.23 0.08,15.52 15.73,3.28 6.35,-6.12 8.62,4.64 1.37,8.78 6.42,-1.08 8.57,3.47 2.9,-10.77 11.72,-8.98 2.81,-19.94 3.5,-4.2 11.68,-1.62 15.11,20.45 3.51,12.98 -5.47,6.88 -14.07,5.11 z"
       id="M29201"
       style="fill:#ffff80;fill-opacity:1;stroke:#000000;stroke-width:2.15693;stroke-dasharray:none;stroke-opacity:1" />
    <path
       d="m 146.05,979.58 -6.07,5.75 -21.48,6.14 -5.71,9.37 -14.94,5.36 -34.81,-19.06 -4.36,1.6 -17.43,-0.96 -6.46,4.47 -20.34,9.6 -5.63,-0.83 -7.82,-8.9 3.98,-8.98 7.71,-4.45 -0.09,-21.81 10.06,-3.92 -1.28,-6.52 9.88,-6.69 14.99,-4.95 6.76,-22.19 0.65,-11.79 6.56,-11.67 19.5,-8.81 10.53,-0.82 5.93,-3.55 -1.56,-10.73 9.26,-15.12 10.48,-3.33 5.02,-5.49 -0.73,-11.62 -8.34,-10.62 0.42,-7.72 7.73,-6.87 -0.29,-4.94 8.29,-8.35 8.35,3.8 7.73,-2.85 6.77,-8.24 11.44,1.06 18.73,8.92 4.55,7.34 13.68,4.25 5.52,3.61 -7.95,9.07 -4.65,-1.11 -6.48,6.4 0.16,7.21 -9.18,8.47 9.14,8.3 1.03,5.79 9.74,0.67 3.57,11.46 20.32,7.35 2.56,7.27 -4.75,10.16 4,13.28 -7.56,1.29 -6.87,7.13 -10.73,4.4 -8.8,13.18 -0.58,11.41 -5.53,4.1 0.9,6.97 -9.03,5.84 -5.05,6.8 -7.61,0.21 -10.52,6.73 z"
       id="M29447"
       style="fill:#ffff80;fill-opacity:1;stroke:#000000;stroke-width:2.15693;stroke-dasharray:none;stroke-opacity:1" />
    <path
       d="m 434.85,699.22 13.93,8.59 10.13,0.35 8.68,4.94 12.78,-3.76 10.14,8.05 3.25,17.09 8.52,2.78 -3.48,13.14 -7.81,17.45 v 10.91 l -8.31,3.19 -5.19,21.26 -6.95,7.94 -1.43,11.44 2.23,9.76 -2.39,10.84 -14.55,4.85 -19.48,-2.12 -12.76,13.7 -8.42,-6.39 -8.4,-14.29 -4.58,-0.67 -13.24,9.31 -17.59,3.26 -2.25,-9.73 5.59,-9.95 -6.46,-4.85 -5.11,5.92 -8.81,-1.39 -7.14,6.04 -11.45,2.04 -2,4.93 -13.21,-4.89 -10.98,4.23 -1.59,4.32 -9.15,4.35 -11.75,-10.86 -23.15,-2.32 -7.66,-9.77 -6.4,1.04 -8.52,-5.78 -2.25,-14.08 8.04,-17.25 1.06,-6.04 -4.08,-14.14 28.95,-12.75 14.72,3.79 6.61,9.48 13.16,-3.43 6.68,-8.06 8.66,-0.48 3.73,-4.93 -1.19,-8.54 10.42,-5.32 3.43,-4.98 16.65,-11 -2.12,-6.58 8.77,-6.13 6.6,-12.8 15.84,-0.66 4.51,-5.18 15.09,-3.34 6.39,1.88 10.6,-5.61 z"
       id="M29446"
       style="fill:#ffff80;fill-opacity:1;stroke:#000000;stroke-width:2.15693;stroke-dasharray:none;stroke-opacity:1" />
    <path
       d="m 434.85,699.22 -14.69,-11.2 -10.6,5.61 -6.39,-1.88 -15.09,3.34 -4.51,5.18 -15.84,0.66 -6.6,12.8 -8.77,6.13 -8.13,-6.44 -11.37,0.33 -4.81,-7.73 0.64,-12.44 -2.79,-4.46 1.1,-13.29 2.87,-4.37 -10.19,-10.52 6.23,-8.71 1.45,-6.78 7.9,-3.15 3.43,-6.21 9.98,-3.77 14.46,3.32 6.75,-8.9 2.19,-8.57 8.93,-4.7 8.77,5.42 3.05,12.76 11.85,-9.79 4.67,6.8 12.55,5.82 3.04,10.61 7.96,12.67 -2.03,5.05 2.2,16.28 4.35,12.64 z"
       id="M29444"
       style="fill:#ffff80;fill-opacity:1;stroke:#000000;stroke-width:2.15693;stroke-dasharray:none;stroke-opacity:1" />
    <path
       d="m 381,613.47 -8.93,4.7 -2.19,8.57 -6.75,8.9 -14.46,-3.32 -9.98,3.77 -3.43,6.21 -7.9,3.15 -1.45,6.78 -6.23,8.71 10.19,10.52 -2.87,4.37 -1.1,13.29 2.79,4.46 -0.64,12.44 -17.74,-7.51 -16.11,2.6 -12.95,-3.92 -9.03,-5.39 2.31,-17.51 4.37,-7.4 -5.1,-9.33 5.31,-1.92 -0.12,-13.02 -11.21,-1.94 -1.39,-11.31 3.35,-14.82 0.2,-11.31 -4.81,-10.56 6.09,-9.09 0.87,-10.54 -2.35,-7.47 8.63,-4.82 8.81,5.61 13.42,-8.65 14.72,0.14 7.86,-2.7 4.08,19.73 10.31,8.86 5.74,1.21 9.09,9.31 25.18,6.91 5.32,3.98 z"
       id="M29443"
       style="fill:#ffff80;fill-opacity:1;stroke:#000000;stroke-width:2.15693;stroke-dasharray:none;stroke-opacity:1" />
    <path
       d="m 323.18,555.16 -7.86,2.7 -14.72,-0.14 -13.42,8.65 -8.81,-5.61 -8.63,4.82 -14.61,3.96 -2.81,-11.53 -10.4,-5.66 -5.83,0.05 -3.76,-18.58 4.14,-8.06 6.25,2.62 15.47,-18.24 4.11,-1.28 8.71,3.6 10.36,-0.05 6.86,-4.83 8.45,3.7 7.9,-4.09 12.22,-1.12 -0.32,8.67 6.45,4.92 8.81,-8.44 -0.22,-5.63 6.07,-5.53 13.69,2.74 5.19,-6.04 4.74,10.56 8.72,8.39 -0.47,13.5 -5.78,9.63 -8.96,-2.19 -2.23,10.3 z"
       id="M29442"
       style="fill:#ffff80;fill-opacity:1;stroke:#000000;stroke-width:2.15693;stroke-dasharray:none;stroke-opacity:1" />
    <path
       d="m 404.67,621.86 -11.85,9.79 -3.05,-12.76 -8.77,-5.42 1.9,-8.31 -5.32,-3.98 -25.18,-6.91 -9.09,-9.31 -5.74,-1.21 -10.31,-8.86 -4.08,-19.73 29.31,-8.21 2.23,-10.3 8.96,2.19 5.78,-9.63 0.47,-13.5 -8.72,-8.39 -4.74,-10.56 8.56,-7.31 7.81,-11.5 7.33,-1.29 6.42,-0.99 7.67,-10.23 9.27,-3.01 11.4,14.79 10.84,-7.03 14.45,4.19 16.69,20.57 13.28,4.38 1.12,-9.95 3.86,-1.94 6.6,6.84 5.39,-7.73 10.04,-2.03 8.31,1.52 4.56,10.92 -12.93,12.86 -7.53,2.04 -5.02,7.04 1.7,11.24 -5.01,-0.15 -18.27,11.82 -1.52,10.83 5.08,4.27 -5.97,15.69 -4.6,7.87 -13.19,-9.09 2.16,10.17 -12.69,7.37 -2.77,7.59 -15.95,11.7 z"
       id="M29441"
       style="fill:#ffff80;fill-opacity:1;stroke:#000000;stroke-width:2.15693;stroke-dasharray:none;stroke-opacity:1" />
    <path
       d="m 380.17,476.66 -7.33,1.29 -7.81,11.5 -8.56,7.31 -23.62,-22.39 -6.63,-1.84 -8.49,5.92 -11.06,-3.49 -0.45,-9.63 -9.08,-11.8 -7.78,1.14 -9.53,-5.08 9.12,-6.61 22.94,-4.93 -0.9,-16.33 5.78,-4.36 -2.27,-5.94 16.85,0.46 1.72,4.34 1.13,7.17 14.88,13.88 18.3,14.52 10.82,3.99 -4.25,7.36 z"
       id="M29402"
       style="fill:#ffff80;fill-opacity:1;stroke:#000000;stroke-width:2.15693;stroke-dasharray:none;stroke-opacity:1" />
    <path
       d="m 356.47,496.76 -5.19,6.04 -13.69,-2.74 -6.07,5.53 0.22,5.63 -8.81,8.44 -6.45,-4.92 0.32,-8.67 -12.22,1.12 -7.9,4.09 -8.45,-3.7 -6.86,4.83 -10.36,0.05 -8.71,-3.6 -7.11,-12.49 7.25,-17.61 6.02,0.29 -1.5,-11.22 -6.85,-7.58 0.08,-14.62 8.04,-2.54 4.61,-5.6 16.11,5.49 -9.12,6.61 9.53,5.08 7.78,-1.14 9.08,11.8 0.45,9.63 11.06,3.49 8.49,-5.92 6.63,1.84 z"
       id="M29401"
       style="fill:#ffff80;fill-opacity:1;stroke:#000000;stroke-width:2.15693;stroke-dasharray:none;stroke-opacity:1" />
    <path
       d="m 234.66,265.97 11.68,1.73 1.78,16 -0.72,3.17 -10.83,-0.17 -5.51,2.76 -2.63,11.4 5.53,7.13 -3.07,7.29 -14.29,3.77 3.71,-14.78 -4.59,-5.81 2.16,-9.56 -11.43,-7.32 -5.87,-0.5 -3.05,-8.7 7.23,-8.79 5.99,-1.33 6.92,7.25 z"
       id="M29427"
       style="fill:#ffff80;fill-opacity:1;stroke:#000000;stroke-width:2.15693;stroke-dasharray:none;stroke-opacity:1" />
    <path
       d="m 261.21,355.53 -5.5,-3.94 -11.06,2.61 -22.92,2.65 -2.12,-3.71 -0.68,-18.19 -8.59,-3.8 -0.75,-6.66 7.01,-5.44 14.29,-3.77 3.07,-7.29 -5.53,-7.13 2.63,-11.4 5.51,-2.76 10.83,0.17 11.7,7.89 0.83,15.75 -1.03,12.3 8.54,24.53 z"
       id="M29426"
       style="fill:#ffff80;fill-opacity:1;stroke:#000000;stroke-width:2.15693;stroke-dasharray:none;stroke-opacity:1" />
    <path
       d="m 204.76,263.59 -7.23,8.79 3.05,8.7 -8.35,12.2 -12.71,2.51 -4.7,-4.25 -10.38,0.04 -9.03,5.97 -2.87,-7.69 13.68,-13.03 16.05,-9.91 -0.5,-8.83 4.14,-3.08 11.42,2.83 z"
       id="M29425"
       style="fill:#ffff80;fill-opacity:1;stroke:#000000;stroke-width:2.15693;stroke-dasharray:none;stroke-opacity:1" />
    <path
       d="m 200.58,281.08 5.87,0.5 11.43,7.32 -2.16,9.56 4.59,5.81 -3.71,14.78 -7.01,5.44 -15.86,4.67 -1.5,-35.88 z"
       id="M29424"
       style="fill:#ffff80;fill-opacity:1;stroke:#000000;stroke-width:2.15693;stroke-dasharray:none;stroke-opacity:1" />
    <path
       d="m 525.44,216.74 1.1,-10.2 7.39,-8.02 -8.14,-17.12 -4.8,-4.07 5.47,-15.78 -6.17,-2.01 -8.48,5.64 3.01,7.45 -5.57,5.12 -22.58,3.55 1.7,-5.64 -0.81,-18.64 -6.56,-4.25 -1.72,-10.1 8.84,-8.09 9.02,1.54 13.03,-7.95 3.52,-9.43 4.32,-1.93 3.92,17.76 7.67,-0.48 14.84,4.86 9.97,-2.82 4.13,-13.54 6.99,-2.48 8.93,4.02 -0.53,-9.5 9.23,-3.21 3.03,7.36 11.17,-7.28 5.89,4.46 17.53,2.89 8.13,26.33 5.04,5.15 -4.91,7.63 -0.29,6.7 -4.85,9.03 -8.33,1.42 -7.03,8.14 -23.76,-11.63 7.51,11.17 16.64,1.03 10.11,24.59 -4.81,7.78 -0.66,8.81 -7.4,3.3 -13.57,-1.53 -15.74,-8.24 -13.77,-11.74 -5.09,-0.41 -8.36,9.46 -9.92,4.41 z"
       id="M29322"
       style="fill:#ffff80;fill-opacity:1;stroke:#000000;stroke-width:2.15693;stroke-dasharray:none;stroke-opacity:1" />
    <path
       d="m 246.34,267.7 -11.68,-1.73 -0.27,-10.92 11.98,-9.08 6.12,-15.95 5.12,0.32 -0.02,11.71 7.12,12.4 0.01,5.97 -7.85,7.72 z"
       id="M29345"
       style="fill:#ffff80;fill-opacity:1;stroke:#000000;stroke-width:2.15693;stroke-dasharray:none;stroke-opacity:1" />
    <path
       d="m 234.66,265.97 -16.99,3.54 -6.92,-7.25 -5.99,1.33 -7.43,-5.75 2.66,-3.54 -1.96,-11.6 10.24,-15.36 0.09,-12.85 -3.06,-14.33 4.6,-9.2 1.66,-0.34 9.84,9.56 -4.65,6.51 9.02,3.92 4.59,5.34 13.1,6.71 3.15,11.48 5.88,-4.12 -6.12,15.95 -11.98,9.08 z"
       id="M29344"
       style="fill:#ffff80;fill-opacity:1;stroke:#000000;stroke-width:2.15693;stroke-dasharray:none;stroke-opacity:1" />
    <path
       d="m 197.33,257.84 -11.42,-2.83 -4.14,3.08 0.5,8.83 -16.05,9.91 -8.7,-22.86 -15.9,-0.28 -10.28,-2.86 -1.51,-8.45 9.01,-6.72 7.81,3.04 3.99,5.97 9.23,-6.11 8.49,-2.41 5.08,2.56 10.4,-4.74 6.22,6.76 7.97,1.97 1.96,11.6 z"
       id="M29343"
       style="fill:#ffff80;fill-opacity:1;stroke:#000000;stroke-width:2.15693;stroke-dasharray:none;stroke-opacity:1" />
    <path
       d="m 209.9,190.96 -4.6,9.2 3.06,14.33 -0.09,12.85 -10.24,15.36 -7.97,-1.97 -6.22,-6.76 -10.4,4.74 -5.08,-2.56 -8.49,2.41 -9.23,6.11 -3.99,-5.97 -7.81,-3.04 0.14,-11.82 4.99,-9 -0.64,-15.11 3.08,-5.04 -1.21,-8.64 7.92,-16.3 17.15,1.87 3.42,7.55 8.93,5.7 12,4.19 z"
       id="M29342"
       style="fill:#ffff80;fill-opacity:1;stroke:#000000;stroke-width:2.15693;stroke-dasharray:none;stroke-opacity:1" />
    <path
       d="m 267.44,347.34 -8.54,-24.53 1.03,-12.3 12.03,-5.24 -2.67,-6.56 11.78,-0.08 1.8,3.89 12.03,0.28 -3.79,-15.27 17.13,-8.71 4.97,14.02 3.58,0.25 -1.12,13.7 2.99,5.07 7.8,-0.07 0.43,8.53 5.72,8.42 -8.41,5.76 -0.49,13.29 -12.21,0.48 -4.33,-4.07 -9.95,0.99 0.15,8.48 -14.45,1.22 -0.44,-7.64 z"
       id="M29363"
       style="fill:#ffff80;fill-opacity:1;stroke:#000000;stroke-width:2.15693;stroke-dasharray:none;stroke-opacity:1" />
    <path
       d="m 247.4,286.87 0.72,-3.17 9.99,1.93 28.68,-1.18 4.32,3.08 3.79,15.27 -12.03,-0.28 -1.8,-3.89 -11.78,0.08 2.67,6.56 -12.03,5.24 -0.83,-15.75 z"
       id="M29362"
       style="fill:#ffff80;fill-opacity:1;stroke:#000000;stroke-width:2.15693;stroke-dasharray:none;stroke-opacity:1" />
    <path
       d="m 248.12,283.7 -1.78,-16 10.53,0.44 7.85,-7.72 8.24,2.25 8.84,-2.85 4.79,2.41 9.24,12.55 -9.04,9.67 -28.68,1.18 z"
       id="M29361"
       style="fill:#ffff80;fill-opacity:1;stroke:#000000;stroke-width:2.15693;stroke-dasharray:none;stroke-opacity:1" />
    <path
       d="m 644.88,487.97 -1.15,-8.82 -8.04,-14.11 -2.74,-14.2 -3.66,-6.49 -0.55,-9.87 9.51,-3.87 9.86,-0.29 5.82,-7.16 4.2,-11.7 11.17,-5.4 21.1,-0.23 14.14,-3.97 4.97,-4.41 -0.31,-6.6 7.05,-4.28 -0.04,-8.57 7.17,-3.19 4.27,-6.17 17.03,4.8 8.88,-10.13 4.43,0.68 18.91,-7.81 7.74,1.49 -0.76,6.59 4.4,10.4 -5.91,20.48 4.15,6.03 12.48,3.23 -0.6,7.95 -10.78,5.39 -4.22,5.72 -0.96,11.85 -6.26,7.95 -0.84,16.24 -3.75,10.04 -19.49,-3.17 -11.62,7.14 -23.44,-4.9 -7.87,10.05 -8.36,1.07 -14.93,-5.64 -15.39,3.36 -7.84,9.84 z"
       id="M29386"
       style="fill:#ffff80;fill-opacity:1;stroke:#000000;stroke-width:2.15693;stroke-dasharray:none;stroke-opacity:1" />
    <path
       d="m 727.65,368.64 -4.27,6.17 -7.17,3.19 0.04,8.57 -7.05,4.28 0.31,6.6 -4.97,4.41 -14.14,3.97 -21.1,0.23 -11.17,5.4 -4.2,11.7 -5.82,7.16 -9.86,0.29 -9.51,3.87 -10.73,-5.37 -5.16,-12.36 3.15,-8.37 10.51,-2.52 6.01,-14.07 0.92,-8.08 8.32,-10.15 -5.44,-6.16 1.55,-7.03 14.31,-3.48 0.19,-11.09 -5.36,-5.67 9.66,-15.97 1.05,-6.33 4.16,-0.2 3.52,14.07 5.79,-0.06 24.28,-17.96 8.11,4.89 10.29,-5.55 4.95,18.31 11.51,11.01 2.38,5.71 z"
       id="M29385"
       style="fill:#ffff80;fill-opacity:1;stroke:#000000;stroke-width:2.15693;stroke-dasharray:none;stroke-opacity:1" />
    <path
       d="m 471.49,312.22 18.41,3.03 11.61,-0.51 5.25,-9.6 -2.74,-10.06 4.43,-11.46 -9.62,-11.54 3.46,-5.92 8.4,-3.43 -1.21,-9.7 23.9,-22.77 -7.94,-13.52 14.28,3.51 9.92,-4.41 8.36,-9.46 5.09,0.41 13.77,11.74 15.74,8.24 13.57,1.53 -7.68,13.79 -10.72,13.51 6.45,10.55 -2.75,17.99 12.78,7.46 -0.57,7.8 12.78,2.38 12.71,7.81 1.19,4 18.14,4.87 9.22,-0.63 -1.05,6.33 -9.66,15.97 5.36,5.67 -0.19,11.09 -14.31,3.48 -1.55,7.03 5.44,6.16 -8.32,10.15 -0.92,8.08 -6.01,14.07 -10.51,2.52 -3.15,8.37 5.16,12.36 -21.79,-2.64 -17.79,1.59 13.28,10.82 -9.21,10 -5.75,1.79 -13.89,9.56 -14.01,2.03 -6.72,13.99 -12.02,-0.49 -14.05,3.88 -10.55,6.4 -8.31,-1.52 -10.04,2.03 -5.39,7.73 -6.6,-6.84 -3.86,1.94 -1.12,9.95 -13.28,-4.38 -16.69,-20.57 -14.45,-4.19 -10.84,7.03 -11.4,-14.79 6.37,-13 -3.15,-14.69 -3.86,-5.02 9.11,-13.72 4.56,-1.85 6.16,-10.32 0.16,-5.07 9.83,-13.27 -4.95,-3.28 4.24,-11.37 20.01,-9.37 -0.36,-7.4 16,-13.96 -2.99,-13.98 7.45,-5.64 z"
       id="M29212"
       style="fill:#ffff80;fill-opacity:1;stroke:#000000;stroke-width:2.15693;stroke-dasharray:none;stroke-opacity:1" />
    <path
       d="m 203.33,369.87 4.77,12.71 13.43,-0.1 0.69,16.99 4.97,9.35 13.55,-0.13 -5.6,14.08 10.1,-0.04 -1.24,11.41 -8.53,-1.35 -1.35,5.44 -16.35,-4.1 -3.51,6.87 -10.62,-2.1 -14.28,6.73 -14.56,-0.99 -8.87,1.7 3.05,-26.31 -6.75,-13.29 -0.78,-9.06 -6.12,-4.78 4.42,-5.28 0.11,-26.52 -10.91,-7.49 -1.64,-5.92 12.97,-5.46 1.49,7.67 19.7,-2.9 1.63,14.88 10.64,-0.31 0.46,8.39 z"
       id="M29211"
       style="fill:#ffff80;fill-opacity:1;stroke:#000000;stroke-width:2.15693;stroke-dasharray:none;stroke-opacity:1" />
    <path
       d="m 219.61,353.14 -9.6,0.75 -6.68,15.98 -9.13,0.09 -0.46,-8.39 -10.64,0.31 -1.63,-14.88 -19.7,2.9 -1.49,-7.67 -12.97,5.46 1.64,5.92 -5.4,1.73 -4.26,-19.97 -3.92,-7.54 2.33,-17.04 7.79,-8.86 9.92,-4.38 9.03,-5.97 10.38,-0.04 4.7,4.25 12.71,-2.51 1.5,35.88 15.86,-4.67 0.75,6.66 8.59,3.8 z"
       id="M29210"
       style="fill:#ffff80;fill-opacity:1;stroke:#000000;stroke-width:2.15693;stroke-dasharray:none;stroke-opacity:1" />
    <path
       d="m 460.6,572.6 5.97,-15.69 -5.08,-4.27 1.52,-10.83 18.27,-11.82 5.01,0.15 -1.7,-11.24 5.02,-7.04 7.53,-2.04 12.93,-12.86 -4.56,-10.92 10.55,-6.4 14.05,-3.88 12.02,0.49 6.72,-13.99 14.01,-2.03 13.89,-9.56 5.75,-1.79 9.21,-10 -13.28,-10.82 17.79,-1.59 21.79,2.64 10.73,5.37 0.55,9.87 3.66,6.49 2.74,14.2 8.04,14.11 1.15,8.82 -8.34,9.12 2.78,8.23 -0.97,9.57 -7.83,9.17 -8.06,5.12 -1.79,10.52 -6.77,5.77 0.19,6.9 10.25,4.12 9.18,9.51 6.77,15.53 -1.31,8.43 -25.54,-2.25 -4.07,6.11 3.83,6.46 -5.42,12.14 -20.35,3.86 -12.06,-3.94 -5.92,1.07 -4.28,-8.48 -10.93,-6.11 -9.03,4.29 -10.97,0.2 -2.51,4.53 -19.18,-6.52 -0.56,-12.62 -5.26,-8.44 -1.96,-10.35 -6.18,-6.2 -5.41,5.43 -6.71,-0.85 -4.45,5.14 -13.68,-2.83 z"
       id="M29453"
       style="fill:#ffff80;fill-opacity:1;stroke:#000000;stroke-width:2.15693;stroke-dasharray:none;stroke-opacity:1" />
    <path
       d="m 490.99,778.76 v -10.91 l 7.81,-17.45 3.48,-13.14 -8.52,-2.78 -3.25,-17.09 -10.14,-8.05 -12.78,3.76 -8.68,-4.94 -10.13,-0.35 -13.93,-8.59 2.56,-7.49 -4.35,-12.64 -2.2,-16.28 2.03,-5.05 -7.96,-12.67 -3.04,-10.61 -12.55,-5.82 -4.67,-6.8 8.89,-13.65 15.95,-11.7 2.77,-7.59 12.69,-7.37 -2.16,-10.17 13.19,9.09 4.6,-7.87 7.74,-2 13.68,2.83 4.45,-5.14 6.71,0.85 5.41,-5.43 6.18,6.2 1.96,10.35 5.26,8.44 0.56,12.62 19.18,6.52 2.51,-4.53 10.97,-0.2 9.03,-4.29 10.93,6.11 4.28,8.48 5.92,-1.07 12.06,3.94 20.35,-3.86 5.42,-12.14 -3.83,-6.46 4.07,-6.11 25.54,2.25 5.46,3.84 3.59,10.81 -2.2,3.6 6.19,10.35 0.34,8.57 7.95,9.73 15.03,5.17 8.44,12.97 -8.33,8.05 -8.53,2.27 -3.81,5.32 -13.07,-0.73 -6.32,5.73 3.39,17.7 18.05,14.1 6.87,18.35 -1.5,7.11 11.28,5.52 4.68,6.67 -1.78,12.64 -6.5,2.17 -16.24,16.76 -1.17,7.19 8.85,1.56 1.66,10.65 -3.78,6.54 -20.71,11.71 -4.78,9.48 -7.55,-4.5 -20.27,-0.32 -7.46,-1.52 -5.96,-9.57 -11.83,0.49 -4.34,-2.92 -10.32,0.89 -7.63,-10.75 -4.04,-12.13 2.72,-4.48 -2.57,-9.87 -24.8,1.86 -8.21,6.57 -14.78,1.1 -12.93,4.8 z"
       id="M29452"
       style="fill:#ffff80;fill-opacity:1;stroke:#000000;stroke-width:2.15693;stroke-dasharray:none;stroke-opacity:1" />
    <path
       d="m 435.78,920.72 -2.81,-10.6 -5.17,-3.33 -3.84,-10.95 6.61,-15.92 -6.66,-11.92 -1.75,-8.38 12.76,-13.7 19.48,2.12 14.55,-4.85 2.39,-10.84 -2.23,-9.76 1.43,-11.44 6.95,-7.94 5.19,-21.26 8.31,-3.19 11.08,4.68 12.93,-4.8 14.78,-1.1 8.21,-6.57 24.8,-1.86 2.57,9.87 -2.72,4.48 4.04,12.13 7.63,10.75 10.32,-0.89 4.34,2.92 11.83,-0.49 5.96,9.57 7.46,1.52 20.27,0.32 7.55,4.5 3.19,11.05 14.66,3.74 -3.79,18.92 7.47,5.68 3.06,9.44 -4.46,8.53 -5.96,3.08 0.61,12.12 -4.94,3.54 7.47,20.35 -10.1,8.9 5.07,7.43 0.28,12.87 4.13,3.93 -6.37,9.88 12.03,13.1 3.74,6.86 -23.02,-6.42 0.57,10.19 -3.1,17.4 3.67,12.86 -5.63,12.91 6.48,4.68 7.7,24.97 -9.37,6.28 -12.55,-8.84 -3.95,1.73 -10.96,-8.82 -11.9,2.21 -7.82,-4.08 -5.17,-6.58 -6.02,-14.34 -5.83,-3.67 -1.4,-7.26 -11.34,3.86 -16.3,-10.76 -7.01,-6.84 0.59,-7.31 -5.92,-3.95 -9.7,8.97 -16.7,9.05 -12.59,-0.02 -3.11,-5.31 0.39,-21.72 -2.76,-6.87 2.88,-9.15 -2.66,-11.28 -9.6,-5.66 -5.79,-7.29 -10.76,-0.49 -9.35,-14.83 -14.86,-7.93 z"
       id="M29451"
       style="fill:#ffff80;fill-opacity:1;stroke:#000000;stroke-width:2.15693;stroke-dasharray:none;stroke-opacity:1" />
    <path
       d="m 436.24,1135.74 -8.99,-4.93 -10.85,-9.36 4.91,-5.65 0.51,-10.37 6.14,-6.53 -3.96,-7.65 1.78,-5.52 -5.74,-15.99 9.23,-6.25 1.54,-7.54 -16.51,-17.19 -5.33,-13.79 5.48,-8.74 -6.99,-12.38 5.78,-11.08 6.09,-4.54 -3.37,-11 3.03,-11.1 6.54,-7.06 -5.09,-10.22 -0.55,-10.26 15.73,-14.24 0.16,-3.63 9.46,-1.82 14.86,7.93 9.35,14.83 10.76,0.49 5.79,7.29 9.6,5.66 2.66,11.28 -2.88,9.15 2.76,6.87 -0.39,21.72 3.11,5.31 12.59,0.02 16.7,-9.05 9.7,-8.97 5.92,3.95 -0.59,7.31 7.01,6.84 16.3,10.76 11.34,-3.86 1.4,7.26 5.83,3.67 6.02,14.34 5.17,6.58 -5.47,2.46 -13.78,-4.3 -8.41,6.5 -10.12,-6.5 -6.88,4.19 -2.41,12.47 -8.81,6.78 -5.63,17.82 -15.05,6.62 -5.64,14.82 -8.43,2.68 -3.16,5.24 -15.83,2.01 -8.04,5.87 -15.56,0.43 -16.18,-2 z"
       id="M29450"
       style="fill:#ffff80;fill-opacity:1;stroke:#000000;stroke-width:2.15693;stroke-dasharray:none;stroke-opacity:1" />
    <path
       d="m 250.84,76.83 -2.08,2.7 -13.54,0.08 -7.04,6.56 -7.9,15.56 -11.31,4.76 -4.24,12.65 1.69,10.44 11.55,35.12 2.84,9.22 -4.07,14.23 -5.18,2.47 -1.66,0.34 -15.28,-1.9 -12,-4.19 -8.93,-5.7 -3.42,-7.55 -17.15,-1.87 -0.06,-7.55 8.86,-15.26 -0.38,-7.62 -6.11,-9.83 0.35,-17.05 11.2,-12.73 7.33,-3.45 14.22,-11.19 1.21,-4.82 -6.73,-22.98 6.17,-13.11 5.27,2.92 3.92,-10.24 -1.87,-18.11 -2.27,-5.05 6.2,-12.68 9.56,9.46 10.34,-3.99 1.11,13.65 3.74,18.31 3.52,6.78 11.53,4.42 1.43,5.07 10.96,10.31 z"
       id="M29209"
       style="fill:#ffff80;fill-opacity:1;stroke:#000000;stroke-width:2.15693;stroke-dasharray:none;stroke-opacity:1" />
    <path
       d="m 245.24,422.73 3.69,6.98 0.26,12.4 7.4,6.66 3.6,-3.14 -0.08,14.62 6.85,7.58 1.5,11.22 -6.02,-0.29 -7.25,17.61 7.11,12.49 -4.11,1.28 -15.47,18.24 -6.25,-2.62 -4.14,8.06 3.76,18.58 -2.58,3.38 -11.26,0.91 -10.33,-5.47 -13.94,-12.71 -15.11,1.13 -12.23,-6.29 -7.22,-7.62 -5.15,-7.6 -7.1,0.09 -4.73,-14.83 15.37,-11.4 3.61,-15.43 6.08,-11.39 -5.29,-6.44 -0.28,-12.39 8.87,-1.7 14.56,0.99 14.28,-6.73 10.62,2.1 3.51,-6.87 16.35,4.1 1.35,-5.44 8.53,1.35 z"
       id="M29208"
       style="fill:#ffff80;fill-opacity:1;stroke:#000000;stroke-width:2.15693;stroke-dasharray:none;stroke-opacity:1" />
    <path
       d="m 423.96,895.84 -12.51,0.1 -13.37,-8.97 -7.64,-0.88 -14.49,2.8 -9.4,5.61 -9.08,8.76 -21.23,-5.33 -6.54,3.66 -18.75,2.09 -21.55,6.31 -9.08,-12.13 -11.4,-10.77 -16.74,-3.94 -6.62,1.85 1.14,7.51 -8.59,2.67 1,8.13 -3.76,9.13 -4.6,2.23 -9.57,14.69 -7.17,6.27 0.84,7.77 -12.42,15.35 -2.4,13.46 -10.55,5.09 -5.74,-1.99 -10.04,5.7 -5.3,-2.3 -8.64,2.96 -13.71,-2.09 3.31,-8.13 10.52,-6.73 7.61,-0.21 5.05,-6.8 9.03,-5.84 -0.9,-6.97 5.53,-4.1 0.58,-11.41 8.8,-13.18 10.73,-4.4 6.87,-7.13 7.56,-1.29 -4,-13.28 4.75,-10.16 -2.56,-7.27 -20.32,-7.35 -3.57,-11.46 -9.74,-0.67 -1.03,-5.79 -9.14,-8.3 9.18,-8.47 -0.16,-7.21 6.48,-6.4 4.65,1.11 7.95,-9.07 -5.52,-3.61 4.65,-7.93 4.65,-0.63 11.37,-8.15 2.94,-15.23 -7.6,-11.88 -3.82,-13.76 -1.97,-18.8 -16.91,-11.55 -3.46,-5.38 -9.71,-4.02 -3.56,9.18 -7.66,2.15 -6.54,-6.22 -5.05,-9.61 2.78,-9.27 -6.85,-12.4 -3.31,-16.46 3.12,-9.38 -1.11,-14.55 -9.03,-1.65 -1.53,-9.92 2.89,-5.6 2.35,-24.47 -8.9,-15.13 -5.45,-23.82 4.15,-0.88 5.98,-11.01 6.98,-7.55 11.16,-3.37 0.57,-8.59 4.58,-3.85 7.22,7.62 12.23,6.29 15.11,-1.13 13.94,12.71 10.33,5.47 11.26,-0.91 2.58,-3.38 5.83,-0.05 10.4,5.66 2.81,11.53 14.61,-3.96 2.35,7.47 -0.87,10.54 -6.09,9.09 4.81,10.56 -0.2,11.31 -3.35,14.82 1.39,11.31 11.21,1.94 0.12,13.02 -5.31,1.92 5.1,9.33 -4.37,7.4 -2.31,17.51 9.03,5.39 12.95,3.92 16.11,-2.6 17.74,7.51 4.81,7.73 11.37,-0.33 8.13,6.44 2.12,6.58 -16.65,11 -3.43,4.98 -10.42,5.32 1.19,8.54 -3.73,4.93 -8.66,0.48 -6.68,8.06 -13.16,3.43 -6.61,-9.48 -14.72,-3.79 -28.95,12.75 4.08,14.14 -1.06,6.04 -8.04,17.25 2.25,14.08 8.52,5.78 6.4,-1.04 7.66,9.77 23.15,2.32 11.75,10.86 9.15,-4.35 1.59,-4.32 10.98,-4.23 13.21,4.89 2,-4.93 11.45,-2.04 7.14,-6.04 8.81,1.39 5.11,-5.92 6.46,4.85 -5.59,9.95 2.25,9.73 17.59,-3.26 13.24,-9.31 4.58,0.67 8.4,14.29 8.42,6.39 1.75,8.38 6.66,11.92 z"
       id="M29207"
       style="fill:#ffff80;fill-opacity:1;stroke:#000000;stroke-width:2.15693;stroke-dasharray:none;stroke-opacity:1" />
    <path
       d="m 446.88,269.99 3.55,1.33 19.06,31.64 2,9.26 0.62,8.27 -7.45,5.64 2.99,13.98 -16,13.96 0.36,7.4 -20.01,9.37 -4.24,11.37 4.95,3.28 -9.83,13.27 -0.16,5.07 -6.16,10.32 -4.56,1.85 -9.11,13.72 3.86,5.02 3.15,14.69 -6.37,13 -9.27,3.01 -7.67,10.23 -6.42,0.99 -6.22,-13.52 4.25,-7.36 -10.82,-3.99 -18.3,-14.52 -14.88,-13.88 -1.13,-7.17 5.15,-3.46 -4.99,-12.42 -0.5,-19.19 -8.59,0.05 -0.08,-16.48 3.03,-4.42 -3.38,-12.51 0.49,-13.29 8.41,-5.76 6.41,-5.43 7.35,-0.08 6.95,4.95 8.87,-1.88 11.78,2.7 12.18,-6.91 2.79,-11.32 7.92,3.45 6.25,-4.93 -1.25,-5.83 11.7,-3.31 4.33,-8.63 9.73,-10.34 0.82,-12.81 5.49,2.83 7.49,-3.15 z"
       id="M29206"
       style="fill:#ffff80;fill-opacity:1;stroke:#000000;stroke-width:2.15693;stroke-dasharray:none;stroke-opacity:1" />
    <path
       d="m 248.93,429.71 5.86,-0.14 2.47,-9.49 -3.81,-19.77 2.3,-18.57 5.36,-14.39 0.1,-11.82 6.23,-8.19 15.04,-0.09 0.44,7.64 14.45,-1.22 -0.15,-8.48 9.95,-0.99 4.33,4.07 12.21,-0.48 3.38,12.51 -3.03,4.42 0.08,16.48 8.59,-0.05 0.5,19.19 4.99,12.42 -5.15,3.46 -1.72,-4.34 -16.85,-0.46 2.27,5.94 -5.78,4.36 0.9,16.33 -22.94,4.93 -16.11,-5.49 -4.61,5.6 -8.04,2.54 -3.6,3.14 -7.4,-6.66 z"
       id="M29205"
       style="fill:#ffff80;fill-opacity:1;stroke:#000000;stroke-width:2.15693;stroke-dasharray:none;stroke-opacity:1" />
    <path
       d="m 329.67,204.03 6.87,2.71 18.63,-4.47 -0.4,6.05 8.69,10.15 2.28,10.17 7.96,1.5 6.38,-3.17 6.9,15.76 6.72,-4.8 15.14,5 -0.02,-12.05 3.77,-7.21 -0.8,-13.75 10.43,0.52 13.43,5.2 12.91,-4.29 5,-13.8 10.33,-0.19 9.26,15.62 3.75,12.52 -5.27,0.99 -9.11,11.33 2.55,8.77 -5.39,6.48 3.71,4.33 -16.51,12.59 -5.46,-1.94 -7.49,3.15 -5.49,-2.83 -0.82,12.81 -9.73,10.34 -4.33,8.63 -11.7,3.31 1.25,5.83 -6.25,4.93 -7.92,-3.45 -2.79,11.32 -12.18,6.91 -11.78,-2.7 -8.87,1.88 -6.95,-4.95 -7.35,0.08 -6.41,5.43 -5.72,-8.42 -0.43,-8.53 -7.8,0.07 -2.99,-5.07 1.12,-13.7 -3.58,-0.25 -4.97,-14.02 -17.13,8.71 -4.32,-3.08 9.04,-9.67 -9.24,-12.55 5.63,-7.88 4.52,-0.19 -0.19,-15.09 20.41,2.7 4.77,-4.33 -4.02,-13.43 12.28,-3.1 z"
       id="M29204"
       style="fill:#ffff80;fill-opacity:1;stroke:#000000;stroke-width:2.15693;stroke-dasharray:none;stroke-opacity:1" />
    <path
       d="m 217.97,164.7 7.42,-1.46 10.13,8.01 14.14,4.64 11.72,-0.42 7.23,-5.46 27.14,0.17 3.11,11.74 h 9.75 l 0.1,5.52 12.41,2.03 0.46,14.8 8.09,-0.24 0.32,16.88 -12.28,3.1 4.02,13.43 -4.77,4.33 -20.41,-2.7 0.19,15.09 -4.52,0.19 -5.63,7.88 -4.79,-2.41 -8.84,2.85 -8.24,-2.25 -0.01,-5.97 -7.12,-12.4 0.02,-11.71 -5.12,-0.32 -5.88,4.12 -3.15,-11.48 -13.1,-6.71 -4.59,-5.34 -9.02,-3.92 4.65,-6.51 -9.84,-9.56 5.18,-2.47 4.07,-14.23 z"
       id="M29203"
       style="fill:#ffff80;fill-opacity:1;stroke:#000000;stroke-width:2.15693;stroke-dasharray:none;stroke-opacity:1" />
  </g>
</svg>
