<?xml version="1.0" encoding="UTF-8" standalone="no"?>
<svg
   version="1.2"
   width="690"
   height="600"
   viewBox="0 0 690 600"
   stroke-linecap="round"
   stroke-linejoin="round"
   id="svg954"
   sodipodi:docname="ns.svg"
   inkscape:version="1.2 (dc2aedaf03, 2022-05-15)"
   xmlns:inkscape="http://www.inkscape.org/namespaces/inkscape"
   xmlns:sodipodi="http://sodipodi.sourceforge.net/DTD/sodipodi-0.dtd"
   xmlns="http://www.w3.org/2000/svg"
   xmlns:svg="http://www.w3.org/2000/svg">
  <defs
     id="defs958" />
  <sodipodi:namedview
     id="namedview956"
     pagecolor="#505050"
     bordercolor="#eeeeee"
     borderopacity="1"
     inkscape:showpageshadow="0"
     inkscape:pageopacity="0"
     inkscape:pagecheckerboard="0"
     inkscape:deskcolor="#505050"
     showgrid="false"
     inkscape:zoom="0.89470654"
     inkscape:cx="230.24309"
     inkscape:cy="228.00772"
     inkscape:window-width="1920"
     inkscape:window-height="1009"
     inkscape:window-x="-8"
     inkscape:window-y="-8"
     inkscape:window-maximized="1"
     inkscape:current-layer="svg954" />
  <g
     id="ns"
     style="fill:#ffff80;fill-opacity:1;stroke:#000000;stroke-width:1.01775;stroke-dasharray:none;stroke-opacity:1"
     transform="matrix(0.98255922,0,0,0.98255922,-95.564815,-406.15548)">
    <path
       d="m 621.19,757.27 -2.78,-1.47 -3.36,-0.34 -8.42,2.9 -2.65,-0.4 -1.81,1.81 -8.81,-3.05 -3.34,1.94 -0.89,-4.11 0.26,-3.43 2.53,-7.31 -0.09,-4.29 2.24,-1.19 1.36,-4.53 3.34,-1.2 1.81,-3.19 5.25,1.76 0.8,2.48 2.77,-1.67 4.22,0.76 2.19,-1.9 2.44,0.99 4.02,-1.86 4.16,-0.64 1.11,2.55 2.91,12.12 2.91,2.54 0.16,4.87 -2.12,3.87 -4.14,-1.36 -3.09,0.84 z"
       id="M42323"
       style="fill:#ffff80;fill-opacity:1;stroke:#000000;stroke-width:1.01775;stroke-dasharray:none;stroke-opacity:1" />
    <path
       d="m 590.02,758.66 3.34,-1.94 8.81,3.05 1.81,-1.81 2.65,0.4 8.42,-2.9 3.36,0.34 2.78,1.47 0.6,1.81 -1.73,5.32 0.56,1.81 -1.77,4.12 -3.68,2.39 -6.97,-2.25 -5.15,1.54 0.71,1.44 -1.55,3.17 -3.04,1.37 -5.69,-0.45 -2.58,4.01 -3.36,-1.2 -2.49,7.14 -2.15,2.06 -2.02,0.09 -0.96,-2.93 0.43,-4.67 5.26,-1.6 -2.54,-2.99 -5.45,-0.6 -1.07,-2.06 -3.17,0.22 1.13,-1.28 4.03,-0.52 1.34,-2.52 4.09,1.27 3.36,-2 0.14,-2.51 3.03,-3.09 -1.66,-4.32 z"
       id="M42322"
       style="fill:#ffff80;fill-opacity:1;stroke:#000000;stroke-width:1.01775;stroke-dasharray:none;stroke-opacity:1" />
    <path
       d="m 602.21,776.62 1.55,-3.17 -0.71,-1.44 5.15,-1.54 6.97,2.25 3.68,-2.39 1.77,-4.12 -0.56,-1.81 4.2,1 2.26,6.64 6.24,3.83 3.64,0.76 5.49,3.25 2.06,0.29 1.69,2.55 2.56,1.57 0.15,5.08 2.04,2.51 0.55,2.84 2.78,2.74 2.65,1.1 4.87,-1.33 0.25,3.68 3.88,1.77 1.85,2.22 -5.81,1.99 -1.92,2.45 -5.14,-1.46 -6.51,1.32 -3.29,3.58 -4.12,0.27 -4.22,1.41 -2.17,-4.1 -3.46,0.71 -1.87,-3.75 0.52,-7.66 -6.62,-5.9 -1.9,-2.54 -2.51,0.33 -2.45,-2.58 -2.78,-0.65 -1.89,-5.19 -2.57,-2.95 z"
       id="M42321"
       style="fill:#ffff80;fill-opacity:1;stroke:#000000;stroke-width:1.01775;stroke-dasharray:none;stroke-opacity:1" />
    <path
       d="m 244.05,838.28 2.18,1.3 -1.63,5.3 -2.01,1.03 -1.01,-0.09 -0.1,0.82 -0.4,-0.64 -0.7,-0.03 0.04,2.93 -2.71,1.92 -3.44,-1.77 -3.3,-4.71 3.3,-2.53 3.41,0.04 0.39,2.58 1.61,0.28 0.68,1.22 0.87,0.04 0.29,-0.46 0.07,-1.1 0.41,-1.3 -0.42,-1.9 z m 10.54,-0.08 3.04,2.38 0.96,3.45 4.06,-2.67 5.03,6.4 -0.14,3.97 2.61,1.73 1.15,2.33 -4.19,2.79 1.87,1.72 0.79,7.24 -1.98,2.74 2.43,4.95 -1.03,3.13 -2.96,0.08 -3.26,-6.09 1.28,-3.19 -5.22,0.71 -6.25,-0.72 -4.66,-4.36 -5.05,-10.97 0.24,-2.05 3.87,0.1 0.93,3.57 6.54,0.68 -3.92,-5.91 2.7,-1.28 -3.75,-4.22 3.51,-0.67 z m -0.05,-15.28 2.62,1.74 -0.86,4.32 -5.62,0.12 -1.07,-3.03 2.44,-0.35 z m 16.3,-22.64 -2.53,2.74 -5.88,-0.95 2.11,-1.86 2.54,0.69 z m 32.1,-70.4 1.57,3.59 -2.45,3 1,3.71 -2.76,7.18 -1.48,0.99 3.38,4.51 1.78,-0.03 1.75,3.96 -1.45,10.04 -1.47,0.23 -1.86,7.86 -4.02,7.28 1.48,1.99 -1.63,3.15 -2.64,1.36 2.5,6.48 -3.2,3.25 2.58,8.65 -1.92,4.81 2.56,4.07 3.31,-2.28 6.61,-0.12 3.41,-2.47 1.97,-3.93 4.27,-1.78 4.17,1.28 1.7,-3.24 5.28,-0.13 0.89,3.57 -0.28,3.85 1.92,6.48 -0.07,2.88 -4.49,1.1 -0.18,1.43 -8.61,4.68 -2.13,4.31 -0.4,3.97 -5.32,-0.57 -3.99,0.5 -2.67,-1.28 -0.83,6.81 -2.39,-0.57 -4.55,2.74 1.7,1.93 -1.2,3.41 0.3,3.14 -3.54,-0.05 -0.71,4.55 2.05,0.19 1.67,2.31 -1.98,4 2.77,1.58 2.31,7.81 -2.28,2.47 -2.7,-0.31 -3.86,-2.81 -4.7,2.69 -1.75,5.11 2.62,3.44 0.46,2.72 -2.21,6.86 -5.57,-1.2 -1.03,-4.47 1.45,-4.77 -1.59,-0.43 0.43,-5.94 -1.2,-2.83 1.16,-4.37 -1.89,-3.38 3.9,-1.49 -2.35,-2.37 3.92,-1.42 0.13,-1.8 -3.4,-2.03 -3.05,-0.47 0.61,-4.55 4.22,2.19 1.8,-1.93 1.48,4.18 1.64,-1.01 -1.48,-4.7 -3.52,-0.88 -0.58,-5.07 -9.56,-0.46 5.59,-4.33 -0.96,-3.89 -4.89,2.66 -3.47,-2.4 -0.75,-3.96 -3.25,3.5 -1.35,-2.53 0.69,-2.38 -1.89,-3.46 -1.04,-3.89 4.94,-2.38 0.44,-1.99 4.86,1.18 -0.29,2.52 3.09,3.19 0.79,-2.82 2.85,-4.37 4.32,1.77 0.09,-5.32 -1.74,0.22 -1.62,-3.31 2.74,-2.24 -3.39,-3.66 0.43,-11.37 3.01,-4 3.22,-2.07 3.05,0.39 1.67,9.62 6.19,-1.53 -2.64,-5.43 1.17,-4.02 -0.68,-3.54 -1.74,-1.2 0.43,-2.96 2.05,0.14 1.24,-7.72 1.48,-1.5 4.8,-0.66 2.42,-3.89 -0.88,-2.37 1.73,-2.45 -0.76,-1.92 -3.45,-0.3 2.04,-4.01 -3.97,-4.43 1.89,-1.65 -1.33,-2.32 1.97,-1.52 0.52,-4.45 1.86,-3.04 0.15,-4.28 z m 29.77,67.64 2.71,2.43 -0.16,3.05 -2.18,0.69 -3.44,-3.54 z"
       fill-rule="evenodd"
       id="M42411"
       style="fill:#ffff80;fill-opacity:1;stroke:#000000;stroke-width:1.01775;stroke-dasharray:none;stroke-opacity:1" />
    <path
       d="m 796.74,929.29 -3.23,4.72 -7.41,8.99 1.18,3.07 3.44,2.98 -1.27,5.77 -2.32,3.92 -4.81,1.79 -3.29,3.17 -2.14,-0.75 -1.26,2.76 -7.28,3.73 -5.78,-0.26 -4.81,-1.02 -5.53,1.66 2.48,1.44 -2.47,2.44 0.03,3.67 -1.65,2.61 -2.98,1.42 -1.11,-1.63 -2.63,1.21 -4.69,7.51 -3.18,2.35 -2.67,-0.44 -6.19,1.01 -5.64,5.31 -4.48,0.86 -1.55,-3.33 3.24,-2.23 0.44,-2.06 -2.12,-5.62 -3.17,-3.61 -1.71,1.6 -3.27,-4.44 -4.15,-1.12 -3.44,-2.44 -0.83,-4.4 0.57,-2.44 11.84,-3.07 5.64,0.04 3.28,-4.15 3.91,-1.44 4.14,-4.35 7.5,-3.68 2.04,-2.11 6.23,-4.09 2.53,-3.21 -0.48,-4.1 1.48,-1.92 7.59,0.41 1.68,-3.54 4.8,-5.69 -0.69,-3.3 5.46,1.57 8.88,-0.09 13.76,0.32 z"
       id="M42214"
       style="fill:#ffff80;fill-opacity:1;stroke:#000000;stroke-width:1.01775;stroke-dasharray:none;stroke-opacity:1" />
    <path
       d="m 762.55,923.29 0.69,3.3 -4.8,5.69 -1.68,3.54 -7.59,-0.41 -1.48,1.92 0.48,4.1 -2.53,3.21 -6.23,4.09 -2.04,2.11 -7.5,3.68 -4.14,4.35 -3.91,1.44 -3.28,4.15 -5.64,-0.04 -11.84,3.07 -0.15,-3.81 1.58,-8.28 8.57,-0.66 1.45,-1.17 0.78,-4.04 1.89,0.04 2.95,-4.05 5.49,-2.36 2.03,-3.9 2.88,-0.76 3.63,-7.27 0.72,-4.66 -0.87,-4.4 -2.26,-1.9 -2.78,0.59 -3.47,-9.18 2.75,-3.59 -5.52,-5.41 -9.42,0.42 -4.29,-1.11 -3.31,-5.55 3.87,-0.73 2.87,-6.45 1.41,-1.04 0.77,-7.1 -3.99,-2.13 10.2,-11.53 3.86,5.77 4.37,4.46 4.02,-1.78 1.74,-1.76 5.78,-2.17 4.19,-5.01 3.31,-2.09 2.66,1.31 4.14,0.57 5.65,-1.49 2.57,-1.7 2.72,0.65 3.2,-2.06 2.81,0.88 2.63,2.51 0.11,1.68 3.17,1.75 -2.7,1.64 -1.87,3.52 -2.8,7.23 0.86,2.62 -1.36,7.79 -3.86,10.97 -1.77,1.55 -0.11,3.35 -3.77,0.83 -0.8,7.23 5.46,2.09 2.67,-1.48 1.54,2.18 3.47,-0.8 0.04,3.93 -7.46,0.38 z"
       id="M42213"
       style="fill:#ffff80;fill-opacity:1;stroke:#000000;stroke-width:1.01775;stroke-dasharray:none;stroke-opacity:1" />
    <path
       d="m 355.51,795.93 -0.5,2.88 2.59,4.32 0.58,3.66 -3.37,2.97 -5.23,-3.38 0.13,-4.8 z m 41.68,1.06 1.25,7.78 -2.32,0.58 -0.63,2.49 -3.41,-4.53 0.68,-4 z m 81.65,-4.47 4.73,1.29 3.6,0.02 2.68,2.68 -2.64,4.2 -4.75,1.6 -3.53,4.03 -2.99,-1.17 0.88,-2.56 4.08,-2.73 -2.94,-5.51 z m 14.38,39.94 2.41,2.88 3.04,-1.9 4.33,2.6 0.75,4.7 -3.63,4.68 -4.44,-0.45 -2.39,-2.12 -2.36,-5.27 0.66,-5.22 z m 4.05,-56.23 0.92,1.75 4.53,0.79 2.49,-1.95 2.87,0.8 -2.61,4.15 1.7,1.17 -3.78,8.32 -2.74,-0.37 -1.96,1.25 -2.4,3.56 -3.29,0.03 -1.79,-1.8 -2.47,-0.22 -0.14,-3.67 1.83,-5.11 5.03,-4.77 z m 16.34,26.04 0.1,5.89 0.65,2.93 -0.48,1.71 -1.73,-0.17 0.16,-5.87 z m -5.26,-16 0.33,3.95 -3.51,3.64 0.26,-4.97 z m 66.45,38.26 -5.93,-3.11 -2.43,2.81 -4.83,2.91 -3.86,0.7 -5.95,3.05 -2.92,0.62 0.21,4.75 -1.6,3.07 2.01,5.26 -1.88,2.74 -8.66,1.53 -2.55,-1.34 -1.24,3 -5.93,1.74 -3.09,-0.62 -5.63,3.94 -1.06,-4.75 -2.36,-2.19 0.56,-2.5 -2.43,-2.47 -1.12,-4.71 -3.53,-0.6 -0.79,5.32 -2.31,-2.6 -0.35,-4.58 1.75,-0.37 -0.37,-4.36 -4.39,-2.05 1.14,-4.78 -0.8,-3.19 0.05,-5.23 2.13,-3.91 4.9,-1.8 0.29,2.1 2.2,0.03 0.52,-2.1 0.12,-2.16 -0.63,-1.07 1.27,-1.9 -1.84,-7.06 -1.23,-1.75 0.63,-4.85 -0.75,-3.13 1.18,-1.69 3.61,0.77 0.21,-4.92 1.47,-1.99 -0.53,-2.92 2.94,-2.97 0.42,-4.68 2.07,-3.81 -1.18,-3.58 1.66,-2.85 1.84,0.02 8.6,6.04 2.74,-0.15 3.83,4.62 3.55,0.67 2.41,4.99 -2.27,3.13 -1.23,5.05 3.15,-0.28 0.4,-2.22 2.43,-2.13 6.97,2.43 0.62,2.74 -4.84,3.84 -3.41,4.79 -1.96,7.39 -1.61,1.66 3.59,2.06 -3.22,2.06 3.29,3.56 3.36,-1.38 1.51,-6.39 3.4,-3.58 3.36,1.28 3.48,-0.01 0.95,2.71 5.85,-0.75 5.73,4.47 -0.08,3.21 1.96,3.42 2.62,1.74 -1.69,6.13 -2.82,-0.46 z"
       fill-rule="evenodd"
       id="M42212"
       style="fill:#ffff80;fill-opacity:1;stroke:#000000;stroke-width:1.01775;stroke-dasharray:none;stroke-opacity:1" />
    <path
       d="m 104.03,927.94 1.36,0.88 -1.06,3.24 -2.71,1.19 1.22,4.94 -1.97,3.5 -3,-1.03 -0.1,-6.47 3.81,-4.55 z m 11.21,28.42 2.18,3.12 -0.65,3.07 -2.08,1.66 0.77,7.35 -5.17,4.27 -2.21,-4.12 -0.62,-4.02 1.03,-2.88 3.45,-3.98 0.72,-3.16 z m 68.18,-54.93 -0.46,2.98 0.68,7.86 3.89,3.45 2.05,4.65 -3.27,-0.75 -2.68,0.74 1.98,2.78 5.6,-1.61 -1.55,5.64 2.53,-0.72 -1.06,-2.5 1.69,-1.4 1.99,2.89 2.74,-2.54 2.66,0.42 1.16,2.82 -4.79,1.18 0.65,1.74 -1.81,6.17 0.96,4.93 -0.45,2.32 3.94,3.95 -1.42,1.92 4.07,4.87 2.22,1.06 7.67,6.65 1.49,6.41 2.01,-0.34 2.2,2.67 -1.59,3.02 -4.24,2.22 -4.23,0.2 -0.4,-2.11 -10.13,1.45 -2.37,1.48 -5.07,0.82 -3.01,-1.38 -0.99,-3.52 -2.24,-0.82 0.59,-2.6 -2,-0.91 -7.86,3.06 -1.87,1.98 -4.51,-0.05 -1.63,2.88 0.14,6 -1.85,0.79 0.53,2.67 2.49,-0.01 3.82,2.29 3.85,3.51 1.54,3.32 0.17,3.39 -4.3,1.82 -3.67,6.06 -7.83,-2.33 -0.53,-5.27 -3.69,-4.14 -2.11,-3.41 -3.34,-0.22 -4.84,1.58 -4.01,-0.55 -6.78,1.28 -3.91,-2.27 -5.01,-0.47 -2.81,1.68 -1.29,2.4 2.2,2.34 -1.53,1.73 -4.41,-1.83 -1.93,1.06 -3.3,-3.56 -0.83,-2.24 -4.64,-2.54 -7.89,-1.01 0.87,-3.13 3.44,-4.35 -0.91,-3.73 3.22,-4.11 1.6,2.78 -0.01,4.11 8.08,9.71 3.01,1.48 3.28,-2.83 -2.05,-3.41 2.67,-2.76 3.4,-0.53 -0.47,-2.7 -4.55,1.62 -3.89,3.11 -2.4,-1.29 -0.32,-4.17 1.9,-0.54 1.54,-3.16 0.09,-4.05 7.7,1.76 -0.75,-2.77 -3.68,-0.33 1.9,-2.57 1.66,0.85 0.93,-4.21 -2.49,-4.36 -3.79,-2.22 1.74,-1.8 -0.2,-3.03 -1.67,-2.54 0.94,-2.76 3.47,-0.48 -0.04,-3.31 -5.21,-4.23 -0.63,-2.13 1.11,-5.83 1.99,-1.17 -0.37,-3.29 -2.17,-2.29 0.52,-2.77 -0.32,-5.46 3.39,-4.87 4.02,-0.67 6.17,0.96 -0.32,2.87 1.59,1.63 4.86,1.31 -0.3,5.86 0.73,2.71 -2.5,3.5 2.31,1.42 3.48,-0.49 -0.63,-3.01 3.1,-1.03 2.32,-2.68 2.76,-1.27 3.64,3.58 2.15,-1.31 2.09,-3.05 2.22,-1.16 0.57,-2.98 2.16,-1.12 1.41,5.45 2.42,1.77 -0.23,5.43 0.82,3.01 3.11,-1.9 -1.12,-5.27 2.27,-2.79 -4.83,-0.29 -1.3,-1.6 3.05,-3.32 2.47,-4.83 2.6,1.41 2.56,-0.98 -0.05,-5.63 4.94,-1.58 z m 9.33,89.48 2.51,0.19 0.68,4.17 -4.82,-0.7 -0.87,-1.53 z m 18.67,-67.72 -1.69,5.47 -2.85,-0.94 0.44,-2.3 z m -6.12,-43.84 3.6,3.08 3.7,1.91 1,4.13 3.87,0.12 1.91,1.45 -0.12,3.3 1.09,2.45 0.46,6.09 -0.71,3.65 -3.46,1.57 -2.99,4.26 -1.18,5.23 -6.64,0.61 -2.36,-1.47 -4.03,-5.75 -3.16,-0.99 -2.18,0.82 0.76,-4.97 -1.27,-2.93 1.23,-3.73 0.53,-4.51 -0.87,-1.57 0.17,-5.97 4.4,-2.16 3.42,-0.86 2.81,2.86 0.16,3.45 -1.21,1.93 1.62,4.98 -1.38,2.96 5.76,-0.2 -1.61,-2.86 2.09,-1.17 -0.04,-3.25 -3.32,-0.94 -1.52,-3.09 0.67,-2.59 -1.26,-2.08 z m 16.64,128.97 -0.6,2.59 -3.66,0.64 -1.87,-2.97 2.53,-1.8 z m 7.43,-14.25 0.56,3.08 -2.81,0.14 -2.16,-1.84 z m -10.73,-52.67 2.73,2.96 -2.86,3.37 -1.91,-3.65 z m 16.84,-80.63 2.67,1.42 3.87,5.73 1.47,4.14 0.35,4.93 -2.68,-0.48 -0.94,1.98 1.52,1.87 -1.34,3.98 -3.61,0.58 -1.52,3.72 2.9,5.09 -1.32,5.26 -1.92,1.31 -0.72,-10.83 -2.41,2.43 -1.56,-2.1 0.59,-2.5 -4.36,-7.3 -1.97,0.39 -1.21,-2.42 -3.06,-1.49 0.17,-2.31 -5.77,-3.38 0.5,3.16 -3.24,1.45 -1.26,-4.27 0.46,-2.62 3.37,1.02 -0.27,-3.13 2.65,-2.89 2.1,3.59 4.47,-0.69 2.12,1 4.09,7.95 0.26,4.84 3.31,-3.65 -1.6,-4.7 -2.93,-2.54 0.56,-3.36 3.73,5.44 2.67,0.93 2.8,-6.1 z m -9.54,-5.57 -0.38,4.55 -2.65,0.3 0.98,-3.97 z m 29.82,49.35 2.13,1.85 3.34,7.7 -1.94,1.67 0.93,1.98 -0.2,5.48 -7.58,0.82 -4.75,2.36 -2.48,-0.82 -1.43,-2.53 6.42,-4.48 3.95,0.17 -1.39,-6.63 1.35,-6.75 z m -13.63,6.56 3.38,3.73 -0.83,3.24 -3.8,-1.2 -0.82,-3.94 z"
       fill-rule="evenodd"
       id="M42211"
       sodipodi:nodetypes="cccccccccccccccccccccccccccccccccccccccccccccccccccccccccccccccccccccccccccccccccccccccccccccccccccccccccccccccccccccccccccccccccccccccccccccccccccccccccccccccccccccccccccccccccccccccccccccccccccccccccccccccccccccccccccccccccccccccccccccccccccccccccccccccccccccccccccccccccccccccccccccccccccccccccccccccccccccccccc"
       style="fill:#ffff80;fill-opacity:1;stroke:#000000;stroke-width:1.01775;stroke-dasharray:none;stroke-opacity:1" />
    <path
       d="m 690.03075,566.66694 3.13,1.17 -2.37,2.49 z m 2.95,-6.94 1.67,2.87 -1.28,2.25 -2.8,0.65 -0.92,-4.17 z m 26.63,-55.75 2.71,3.91 3.82,-0.27 1.25,2.43 7.31,1.47 4.19,0.1 7.63,2.35 -3.21,3.84 0.63,2.41 -0.9,4.46 -3.37,6.23 3.25,1.53 2.54,3.28 3.09,0.65 2.07,2.77 3.68,0.76 2.32,-0.65 -1.08,4.39 -4.54,-3.1 -4.59,-0.11 -3.18,0.73 -2.33,2.73 -0.03,2.35 2.85,3.1 2.41,-2.55 3.01,0.09 2.87,1.61 1.32,2.9 3.33,0.96 -1.94,2.42 -2.39,0.38 -0.71,5.13 -2.9,1.75 -3.74,-0.13 -2.65,1.07 -2,-2.37 -1.67,1.52 -5.71,1.03 -2.35,2.45 -2.3,5.41 -3.13,2.26 -1.36,4.49 -7.29,-2.46 -4.85,-6.54 -2.99,-1.02 3.14,-4.74 -0.76,-2.85 -4.45,-4.77 -1.58,2.95 -5.32,0.73 -2.53,-3.01 1.44,-4.1 -2.46,-1.39 -0.64,-2.08 2.52,-2.21 4.73,1.49 0.79,2.24 3.94,-1.02 3.25,3.36 -0.67,-5.2 -2.83,-1.75 h -5.03 l -1.73,-2.47 1.39,-10.43 -2.51,-1.66 0.54,-2.9 5.11,1.96 2.28,4.11 1.62,-2.43 h 2.55 l -3.2,-6.7 -0.13,-2.73 -1.87,-0.71 1.1,-3.21 -0.72,-2.28 1.94,-3.46 z"
       fill-rule="evenodd"
       id="M42210"
       style="fill:#ffff80;fill-opacity:1;stroke:#000000;stroke-width:1.01775;stroke-dasharray:none;stroke-opacity:1" />
    <path
       d="m 141.15963,601.06997 2.26,1.97 4.11,-1.49 2.29,2.74 0.49,2.58 -2.42,4.42 0.09,6.48 3.28,1.7 1.9,-3.53 2.84,1.01 2.52,-3.74 3.72,2.36 5.86,-4.52 -0.09,-5.37 2.74,-0.72 -0.27,3.22 5.27,-0.32 -0.43,2.63 3.43,0.66 0.98,2.5 -1.3,3.74 0.54,2.4 -1.13,4.36 6.17,-0.99 -0.32,-3.22 4.27,-1.49 2.24,-1.85 6.15,1.93 0.03,3.51 1.75,2.51 -0.87,1.62 -3.25,0.33 -1.76,2.63 -2.12,-1.92 -2.37,3.86 -0.31,5.54 -2.07,0.73 -1.25,5.64 2.55,3.14 1.56,4.75 -5.02,2.2 -2.92,2.47 -1.11,-3.11 -2.74,3.37 1.9,3.64 0.07,2.89 -1.46,3.91 -2.02,1.55 2.04,8.44 -0.4,5.11 -3.86,-1.85 -2.26,4.76 1.54,5.07 -2.7,1.76 0.75,4.95 -6.13,2.12 -2.01,-1.22 -1.82,1.67 3.4,1.61 -0.67,3.56 -2.6,2.28 -1.73,-1.41 -1.64,3.29 -3.52,-0.36 -0.39,-3.01 -2.13,0.03 0.36,3.74 -0.74,4.78 -3.04,-1.29 -1.29,1.13 0.75,3.06 -3.05,1.76 2.02,-7.34 -3.12,-3.01 -2.39,1.3 -2.66,-0.86 -0.26,-3.46 -5.29,-2.32 -0.06,1.96 -4.55,1.12 0.34,-5.46 -1.63,-3.24 0.63,-7.77 2.08,-1.71 -0.75,-2.92 0.58,-5.62 1.75,-0.2 -0.87,-3.69 1.3,-4.2 -0.57,-1.79 0.58,-14.64 0.95,-3.77 2.96,-1.77 0.66,-1.93 -2.37,-5.04 4.03,-10.7 -0.45,-2.53 1.38,-4.02 -1.13,-1.83 1.49,-7.29 -1.04,-5.57 2.77,-4.77 z m 36.15,-2.88 2.02,2.92 2.57,0.01 1.36,2.05 5.28,-4.66 0.83,3.23 -0.07,5.97 2.92,0.42 -0.73,1.55 v 2.84 l -4.87,-1.05 -2.02,-3.99 -2.75,-1.75 -2.34,-0.06 -2.17,-3.59 z m 34.09,15.95 2.83,1.19 0.43,1.99 -4.32,5.05 -7.7,5.52 -1.23,1.83 -3.35,-6.02 0.06,-4.55 2.2,-2.47 2.83,0.13 2.21,-2.29 z m 25.57,-191.66 0.57,2.17 3.15,1.89 4.41,1.02 1.57,1.91 1.28,6.63 2.48,2.25 0.4,2.97 2.12,1.39 -3.61,3 -4.38,-0.36 2.77,4.17 -1.15,2.04 6.28,1.12 -3.25,6.86 -4.37,0.35 3.19,4.79 -8.64,0.86 -1.35,-4.85 -1.64,0.03 0.61,7.76 7.38,2.38 1.78,3.48 1.91,1.36 -3.12,3.44 1.8,1.23 -2.63,7.37 0.94,4.01 -0.04,3.74 -4.98,0.24 0.62,7.33 -1.79,2.49 -2.37,1.01 0.34,2.75 -4.84,4.1 -0.51,3.77 -8.09,7.66 -1.43,0.63 -9.14,11.04 -1.13,4.11 -3.71,2.56 -2.99,0.42 4.01,5.88 2.06,4.96 -3.92,-1.98 -3.63,0.38 0.65,6.14 2.95,-3.16 1.42,6.09 -3.72,3.29 -1.27,3.93 -3.27,1.47 -1.98,2.9 5.89,-1.3 3.4,-3.15 5.28,-1.22 1.54,4.12 -5.04,1.7 -1.89,3.37 3.34,4.66 0.49,3.01 3.07,2.69 -2.33,4.46 0.23,4.63 1.85,1.92 -3.06,2.92 -2.18,-2.39 -2.9,-0.89 2.32,6.26 0.63,5.37 -5.47,0.89 0.05,2.29 -3.4,2.55 -1.26,2.39 -2.78,-3.41 -4.14,-1.8 1.03,-2.57 -1.61,-0.25 0.72,-1.39 -1.34,-1.49 3.9,-2.44 3,-3.22 -0.91,-3.12 2.9,-0.84 -2.29,-4.29 -0.41,-2.48 -3.03,-2.46 3.16,-2.5 -2.58,-1.53 -4.08,-0.75 2.54,-3.95 -0.88,-1.37 -3.27,4.57 -1.8,1.33 0.86,7.78 -4.02,1.2 -0.64,3.8 -4.71,-0.43 -0.86,-3.95 2.75,-2.81 -1.39,-1.79 0.11,-3.56 -1.66,-1.62 5.5,-6.47 -1.64,-1.04 -5.64,5 -1.68,0.8 -2.24,6.47 2.98,0.68 1.19,2.68 -1.5,3.86 -4.89,-2.42 -1.18,-2.21 -5.38,-0.16 -2.82,1.29 -4.35,0.28 -4.12,-0.71 -2.41,-4.44 2.06,-1.74 4.51,0.62 1.85,4.18 2.01,-2.43 -0.96,-1.96 4.54,-1.46 5.18,-4.05 0.28,-3.05 -3.59,-1.04 1.62,-2.3 0.99,-6.72 -1.09,-4.27 0.95,-2.54 -1.41,-3.37 1.66,-1.66 -1.06,-3.15 2.38,-3.77 5.64,-0.47 1.98,-1.64 1.85,-3.45 2.33,0.13 0.24,-3.92 -5.79,5.77 -3.06,0.97 -4.85,-3.37 1.75,-3.25 -2.02,-1.26 2.6,-4.52 0.65,-2.63 2.84,-1.59 2.97,-6.79 0.12,-3.78 2.79,-6.44 3.19,0.17 2.64,-7.79 2.59,0.43 1.53,3.55 2.78,-1.67 0.74,-3.19 -4.15,0.12 -0.42,-4.48 -2.46,-0.29 -1.37,-3.02 -3.62,-2.99 -1.22,-3.43 -2.32,4.48 -3.85,0.98 -1.15,-3.12 0.42,-3.07 3.75,-2.56 0.93,-4.72 2.92,-2.2 0.41,-3.73 -0.87,-2.76 3.2,-5.48 0.07,-3.33 1.72,-2.22 0.75,-9.97 3.19,-1.76 2.34,0.37 0.69,5.53 2.62,-3.48 4.12,-2.18 2.28,0.3 2.68,5.19 3.53,-4.04 1.78,2.07 6.3,-7.32 0.93,-2.88 2.01,0.01 0.46,-3.58 1.85,-3.26 4.15,-4.62 -0.15,-3.64 5.07,2.16 3.87,-2.52 0.36,-2.35 z m -20.85,164.85 2.91,3.69 1.31,6.64 -4.39,0.68 -2.91,-1.64 1.09,-6.51 z"
       fill-rule="evenodd"
       id="M42209"
       style="fill:#ffff80;fill-opacity:1;stroke:#000000;stroke-width:1.01775;stroke-dasharray:none;stroke-opacity:1" />
    <path
       d="m 563.37,680.25 -1.13,1.48 -3.16,-1 -2.59,-3.74 -4.46,-0.06 -1.88,1.07 -3.53,-1.77 -8.31,-5.37 0.59,-5.81 -4.6,-3.76 -2.97,0.37 -6.56,-0.66 -1.17,1.51 -3.77,-1.61 0.26,-3.17 -1.24,-1.61 -3.3,-0.61 -7.16,-7.58 -2.48,-1.73 0.65,-9.18 1.09,-2.75 3.94,1.53 0.19,-3.06 2.9,0.35 1.7,-3.41 2.79,-1.6 1.06,-2.45 -0.94,-3.72 2.9,-2.3 2.08,4.3 -0.89,2.55 -0.6,10.81 1.37,4.05 3.57,-0.71 -0.03,-3.25 3.99,0.08 -0.12,3.48 3.53,3.48 6.48,-1.93 3.62,-4.91 5.49,-2.81 3.61,0.46 3.31,5.51 3.15,-0.07 1.92,-3.73 0.2,-4.46 4.76,0.16 1.16,1.96 -1.04,4.5 1.62,2.34 -0.9,5.84 -5.58,3.54 -2.93,6.48 -3.98,13.23 1.92,0.46 3.38,4.51 z m -35.25,-71.68 -0.64,2.4 1.53,2.16 -2.03,3.32 -2.14,-2.17 2.51,-2.77 -1.45,-2.89 z m 12.36,-19.09 2.36,1.3 0.31,3.08 -2.64,-0.12 -1.62,-2.29 z m 14.11,-3.31 6.21,4.74 0.97,2.63 -1.88,3.01 0.83,2.56 7.57,6.1 -0.06,1.87 -10.26,-1.49 -2.65,4.41 -4.15,-0.16 1.6,3.33 -2.18,2.54 -5.47,0.57 -1.91,-3.75 -2.8,0.11 -0.19,-2.14 2.01,-1.9 2.81,-0.36 0.92,-1.98 3.71,-0.3 0.52,-3.02 -1.96,-1.4 4.23,-2.86 -0.19,-3.09 2.03,-2.03 -1.64,-5.94 z m 16.45,26.23 1.39,1.61 3.28,0.59 4.1,-0.38 4.07,1.83 1.39,3.27 -1.9,3.97 2,3.58 6.77,-0.94 2.82,2.08 0.13,2.75 -3.1,2.58 -2.39,-0.58 -0.87,2.14 -2.74,1.97 -2.68,-0.61 -2.43,1.37 -0.99,2.48 -3.12,3.44 -2.12,-2.39 1.37,-1.32 -2.55,-2.82 2.89,-3.43 0.1,-3.51 -1.42,-7.71 2.35,-2.67 -6.89,-6.17 z m -7.76,6.38 2.78,2.15 -2.64,1.26 z"
       fill-rule="evenodd"
       id="M42208"
       style="fill:#ffff80;fill-opacity:1;stroke:#000000;stroke-width:1.01775;stroke-dasharray:none;stroke-opacity:1" />
    <path
       d="m 428.88,601.61 -0.25,4.03 -2.46,3.24 2.1,1.56 -1.94,4.46 2.73,2.57 0.56,3.5 -2.15,5.22 -0.2,4.97 2.56,4.17 -2.21,2.18 1.35,2.98 -5.91,1.67 -7.49,-3.52 2.98,-7.6 1.88,-7.68 -0.33,-3.17 3.6,-4.91 0.73,-5.85 -1.15,-5.13 3.04,-2.32 z m 47.02,13.28 1.57,3.67 -1.11,2.22 2.32,2.26 -1.33,1.91 1.75,2.78 -2.18,3.77 1.27,4.59 2.46,2.61 -5.6,3.77 -2.59,0.83 0.25,3.36 -3.91,4.04 -6.36,1.59 -1.85,2.55 2.6,1.74 1.33,3 2.32,1.78 -3.05,3.67 -2.32,-0.83 -5.37,1.92 0.65,3.29 2.5,1.59 -6.85,3.48 -2.45,-2.83 -1.22,1.91 2.01,2.96 2.65,-0.03 2.85,4.14 -1.33,4.71 -2.83,3.2 -2.43,0.58 -1.15,4.59 -3.26,4.32 -1.61,0.98 -3.51,7.63 -2.6,-0.48 -4.98,5.32 -0.26,2.19 -3.74,3.69 -4.35,1.47 -2.99,2.47 -4.02,0.8 -2.95,2.72 -8.77,2.96 -9.34,-6.61 3,-4.35 -2.89,-4.64 2.15,-2.43 6.24,10.58 5.55,0.09 3.46,1.36 2.68,-1.56 -0.19,-2.5 1.45,-3.49 -2.23,-0.82 -2.84,1.13 -4.97,-5.17 -0.06,-7.45 2.02,-2.73 1.9,-0.31 1.73,-3.51 5.37,-1.06 5.1,3.07 3.32,-0.34 0.79,-2.18 -3.46,-1.21 1.69,-1.83 -5.17,-0.98 -1.62,-2.36 0.78,-3.75 -3.19,-2.3 0.17,-2.85 1.98,-2.39 4.56,-0.84 0.84,-4.95 5.46,-1.6 2.37,1.53 1.5,-3.7 -5.64,-8.16 1.67,-1.58 0.02,-2.91 2.39,-0.5 0.22,-2.97 -1.47,-3.49 1.04,-1.67 -2.02,-2.26 2.5,-1.36 5.39,0.17 4.68,-2.12 3.36,1.29 2.39,-2.07 7.04,-0.64 1.78,-4.36 -0.62,-2.18 1.08,-3.79 4.17,0.12 0.05,6.75 -1.75,3.11 3.39,1.96 1.02,-4.11 2.6,-3.04 -0.7,-3.36 6.63,-0.16 1.94,-1.96 -0.74,-3.43 -2.04,-0.85 -3.08,0.95 -5.82,0.46 1.72,-2.57 -2.6,-4.12 3.72,-1.71 2.16,1.39 3.11,-3.28 z m -9.26,-20.88 -0.58,1.39 3.92,2.39 -0.95,4.12 -1.92,-0.58 -7.43,3.35 0.11,2.33 -3.46,-0.79 0.79,-3.5 5.71,-2.43 z m 10.02,-26.71 -1.09,5.27 -0.02,4.75 2.94,0.73 1.46,-3.26 2.12,-1.47 3.85,0.3 -0.66,3.95 -1.45,2.36 -4.99,4.98 -3.12,-0.8 -0.18,2.55 -7.47,-2.49 0.08,-1.46 -2.94,-3.26 -3.52,0.54 0.01,5.62 -4.35,-1.16 -1.51,-2.79 2.32,-1.31 6.82,-6.3 0.33,-1.5 z m 29.9,69.72 -0.65,9.18 -1.23,2.83 -3.26,1.59 1.2,1.84 -2.72,1.88 -3.65,0.79 0.66,4.08 -3.8,1.36 -2.73,3.64 -6.42,-2.09 -1.02,-2.59 -4.2,-4.99 0.59,-3.89 3.34,0.89 -0.16,-6.93 1.05,-1.53 1.19,-6.35 -3.3,-3.86 3.6,-4.21 4.02,0.92 2.67,3.78 1.46,-1.87 2.64,2.56 2.52,-2.45 6.04,4.99 z"
       fill-rule="evenodd"
       id="M42207"
       style="fill:#ffff80;fill-opacity:1;stroke:#000000;stroke-width:1.01775;stroke-dasharray:none;stroke-opacity:1" />
    <path
       d="m 612.86,839.88 4.15,4.63 1.1,-0.85 3.32,3.7 0.36,2.43 -3.31,1.98 -4.68,-5.8 0.3,-2.18 -2.55,-2.84 z m 17.72,-28.81 3.46,-0.71 2.17,4.1 4.22,-1.41 4.12,-0.27 3.29,-3.58 6.51,-1.32 5.14,1.46 1.92,-2.45 5.81,-1.99 1.75,1.11 2.73,4.61 2.82,2.73 5.81,-0.81 3.82,3.91 0.41,2.02 -0.91,2.24 -2.74,1.34 -0.02,3.76 -5.18,2.79 -2.35,-1.91 -3.79,1.01 -2.89,-0.54 -1.89,3.27 -3.41,2.8 -2.65,0.86 -2.71,16.34 -0.31,6.27 -1.85,5.47 1.84,1.97 0.48,6.56 -0.24,5.97 -4.05,2.98 -3.61,-2.18 -1.86,-5.02 -2.57,-1.08 -1.24,-2.65 -6.69,-4.03 0.78,-4.09 3.01,-0.56 -1.31,-2.53 -3.98,0.58 -2.19,-4.06 0.19,-2.97 -7.37,-7.18 -1.91,-2.78 -0.5,-8.57 1.15,-5.72 0.1,-4.22 -1.49,-1.22 2.93,-3.25 2.52,0.39 1.4,-3.69 1.68,-1.25 z"
       fill-rule="evenodd"
       id="M42205"
       style="fill:#ffff80;fill-opacity:1;stroke:#000000;stroke-width:1.01775;stroke-dasharray:none;stroke-opacity:1" />
    <path
       d="m 718.84,867.46 -10.2,11.53 3.99,2.13 -0.77,7.1 -1.41,1.04 -2.87,6.45 -3.87,0.73 3.31,5.55 -3.51,2.92 -4.24,0.93 -7.81,-2.58 -8.21,-0.54 -2.16,2.16 -4.16,1.1 -4.99,3.48 -5.45,5.92 -3.53,0.84 -3.03,3.34 -1.73,-0.75 -5.71,0.96 -2.43,-1.87 -3.12,3.84 -1.25,-2.52 1.23,-1.84 -1.48,-3.99 2.53,-4.83 -1.57,-2.58 -0.17,-5.54 1.57,-1.98 -5.01,-3.49 -0.91,-2.97 -3.4,2.29 -4.73,0.37 -2.72,-3.57 -6.2,1.52 -1.33,-1.81 -2.73,-0.4 -3.25,-5.86 -1.15,-0.08 -2.81,-4.11 -2.55,-0.93 -5.43,-11.29 1.92,-1.2 2.69,-3.27 2.61,0.09 0.63,2.69 2.71,2.76 2.22,-1.1 6.26,5.19 2.75,-2.08 2.6,-0.08 4.09,3.24 -0.1,3.98 3.18,-0.03 1.79,-1.36 4.08,4.3 8.88,-1.61 4.05,-2.98 0.24,-5.97 -0.48,-6.56 -1.84,-1.97 1.85,-5.47 0.31,-6.27 2.71,-16.34 2.65,-0.86 3.41,-2.8 1.89,-3.27 2.89,0.54 3.79,-1.01 2.35,1.91 5.18,-2.79 0.02,-3.76 2.74,-1.34 0.91,-2.24 6.35,0.07 10.94,3 3.18,-0.14 1.97,-1.43 2.2,4.16 4.7,0.73 4.47,-0.43 5.63,1.52 5.39,-0.08 1.07,1.8 -1.09,2.64 0.87,3.42 -1.41,1.83 0.84,4.31 -3.71,0.29 -2.12,1.8 0.65,2.83 -2.05,2.38 -3.95,-1.3 -3.48,4.35 -3.19,0.67 -1.32,2.97 0.92,2.61 z"
       id="M42204"
       style="fill:#ffff80;fill-opacity:1;stroke:#000000;stroke-width:1.01775;stroke-dasharray:none;stroke-opacity:1" />
    <path
       d="m 796.74,929.29 -6.09,-4.2 -13.76,-0.32 -8.88,0.09 -5.46,-1.57 0.76,-1.28 7.46,-0.38 -0.04,-3.93 -3.47,0.8 -1.54,-2.18 -2.67,1.48 -5.46,-2.09 0.8,-7.23 3.77,-0.83 0.11,-3.35 1.77,-1.55 3.86,-10.97 1.36,-7.79 -0.86,-2.62 2.8,-7.23 1.87,-3.52 2.7,-1.64 5.24,2.69 3.22,2.69 1.96,7.17 3.46,7.45 0.9,3.27 1.71,0.65 1.76,5.58 2.73,5.26 1.73,1.61 0.52,4.71 -1.75,2.55 -1.41,4.21 2.62,7.96 -0.29,3.35 z"
       id="M42203"
       style="fill:#ffff80;fill-opacity:1;stroke:#000000;stroke-width:1.01775;stroke-dasharray:none;stroke-opacity:1" />
    <path
       d="m 284.62,683.81 -1.8,1.57 1.76,2.37 2.26,-0.44 1.01,3.29 -5.27,0.43 -1.33,-4.72 z m 24.43,-18.52 3.69,2.07 -0.41,3.51 1.8,3.17 -0.87,2.18 3.82,4.14 -4.69,3.69 -3.04,0.38 -0.57,2.37 1.69,1.62 -3.83,3.03 -5.3,-0.3 -5.94,-2.32 -0.75,-3.43 -3.02,-2.27 -2.72,-0.08 -3.2,-3.21 5.37,-3.2 1.93,-3.24 7.61,-2.48 2.43,1.16 4.39,-3.3 -0.61,-3.04 z m 162.72,70.53 2.58,3.45 -0.33,3.67 -4,-0.64 -1.43,3.14 -2.69,-0.49 -1.67,-2 -2.65,0.29 -2.15,-1.28 4.22,-3.32 z m 18.28,-19.6 1.23,0.82 -0.84,5.4 0.73,2.28 -0.9,5.58 -3.21,1.25 0.32,-3.55 2.08,-2.16 -3.24,-2.66 -0.68,-1.84 0.77,-4.68 z m 69.72,23.45 4.56,0.72 2.98,1.75 2.35,0.2 0.78,2.52 -1.33,2.56 0.88,3.74 -0.42,3.69 -2.79,3.16 3.39,6.03 -0.7,4.03 -2.75,-0.29 -1.04,2.32 -4.22,0.25 -4.01,-2.65 -1.93,1.38 2.75,2.95 2.82,0.7 -0.32,3.24 2.87,-0.12 0.9,2.25 -4.68,0.3 -1.51,3.36 -3.83,-0.79 0.07,-3.55 -4.92,0.43 0.24,-5.43 -5.75,-12.51 0.92,-1.56 3.11,0.54 2.93,1.77 2.4,-1.64 -0.52,-3.11 -3.32,-2.99 1.62,-4.86 4.04,2.48 0.26,-6.89 z m 40.81,-10.26 -1.81,3.19 -3.34,1.2 -1.36,4.53 -2.24,1.19 0.09,4.29 -2.53,7.31 -0.26,3.43 0.89,4.11 -1.18,1.38 1.66,4.32 -3.03,3.09 -0.14,2.51 -3.36,2 -4.09,-1.27 -1.34,2.52 -4.03,0.52 -1.13,1.28 0.72,-3.51 -4.09,-3.99 0.6,-3.77 -3.27,-5.15 3.19,-3.87 0.21,-1.59 -1.21,-4.95 1.73,-3 -1.54,-3.21 -2.38,-0.27 -1.12,-2.02 -5.38,0.04 -6.96,-0.76 -2.04,0.5 -0.65,3.44 -2.68,1.97 -1.73,-1.94 -2.97,3.62 -0.5,-3.56 -2.06,-0.57 -0.16,-7.8 3.08,-0.58 -2,-4.17 -1.84,1.43 -2.17,-2.61 -4.67,1.64 1.37,3.44 0.48,6.82 1.2,1.4 0.92,9.67 -5.51,2.19 -3.07,-1.08 -6.18,1.81 -0.65,2.41 -2.32,2.37 -0.63,-4.33 -1.42,-0.92 -1.32,-4.27 1.29,-1.69 7.07,-2.43 3.61,-2.85 3.19,0.14 -7.48,-8.5 0.59,-2.19 -3.24,-3.79 -3.31,1.09 -0.28,-3.02 -4.31,-1.18 -4.35,1.93 1.37,-4.59 3.79,-0.87 -0.47,-6.72 -2.47,-0.08 -0.38,-3.26 2.16,-2.39 8.12,-3.29 1.86,-3.62 1.61,0.16 4.05,-2.63 0.73,-2.27 -2.59,-3.77 -1.61,-0.53 1.11,-4.78 1.97,-1.47 -2.31,-5.25 -2.39,0.72 -6.53,-5.01 -4.32,-1.6 -2.24,2.16 -0.78,2.5 -3.19,-1.56 -1.83,2.12 -2.51,5.81 0.79,4.51 2.47,1.44 1.16,4.33 2.3,1.27 -0.81,2.85 0.89,4.45 0.04,4.69 -1.98,4.34 -3.25,2.88 -2.98,-2.38 1.28,-4.59 -3.16,0.78 -3.43,-0.34 -2.01,-4 -6.72,-0.31 0.37,-1.46 -7.52,-0.89 -2.19,1.69 -2.52,-1.53 1.36,-3.18 4.17,-2.49 0.51,-6.15 -2.14,1.52 -2.54,-0.81 0.63,-2.8 3.16,-0.51 -0.26,-3.74 1.48,-1.55 0.24,-3.91 7.73,-1.75 -1.16,-4.04 1.27,-2.01 -2.43,-2.67 0.97,-1.68 3.76,-1.75 0.62,-2.38 4.52,-5.75 -0.66,-4.08 3.65,-0.79 2.72,-1.88 -1.2,-1.84 3.26,-1.59 1.23,-2.83 2.48,1.73 7.16,7.58 3.3,0.61 1.24,1.61 -0.26,3.17 3.77,1.61 1.17,-1.51 6.56,0.66 2.97,-0.37 4.6,3.76 -0.59,5.81 8.31,5.37 3.53,1.77 1.88,-1.07 4.46,0.06 2.59,3.74 3.16,1 1.13,-1.48 5.16,5.97 2.92,1.9 6.68,6.66 -2.17,4.1 1.24,4.29 -2.42,4.71 1.23,4.13 2.73,4.72 0.06,3.63 7.91,4.84 2.18,-1.24 4.16,0.24 1.68,2.53 4.55,0.87 z"
       fill-rule="evenodd"
       id="M42202"
       style="fill:#ffff80;fill-opacity:1;stroke:#000000;stroke-width:1.01775;stroke-dasharray:none;stroke-opacity:1" />
    <path
       d="m 495.04,858.18 0.73,2.25 -2.34,2.28 -2.73,-2.28 z m 57.99,103.95 3.23,1.47 -1.67,2.41 1.24,1.78 -1.56,2.19 -3.22,-5.41 z m 3.95,-22.45 4.32,3.37 0.21,2.87 -4.54,-3.49 z m 7.67,7.45 1.82,2.99 -2.32,1.18 -3.17,-4.8 z m 2.2,59.96 1.58,2.96 -0.45,3.8 -6.49,1.05 0.92,-5.5 z m -46.33,-151.51 5.63,-3.94 3.09,0.62 5.93,-1.74 1.24,-3 2.55,1.34 8.66,-1.53 1.88,-2.74 -2.01,-5.26 1.6,-3.07 -0.21,-4.75 2.92,-0.62 5.95,-3.05 3.86,-0.7 4.83,-2.91 2.43,-2.81 5.93,3.11 3.28,2.86 1.26,3.95 -2.18,12.5 -2.34,1.91 -3.34,-2.59 -0.01,-3.9 1.53,-2.31 -2.63,-1.8 0.07,-5.93 -4.19,2.29 -0.72,2.74 0.43,5.21 3.43,7.31 4.71,3.09 -0.53,3.02 1.12,6.69 -2.61,2.53 -3.83,-1.26 -0.88,5.11 3.57,1.07 -1.34,4.01 0.23,2.38 2.3,1.67 0.66,4.91 7.34,8.05 -1.41,4.06 1.69,1.1 2.62,-1.33 4.55,0.54 -0.36,3.04 3.07,-0.95 1.81,3.18 2.76,2.82 4.72,-3.02 4.13,-1.12 2.68,0.79 2.53,-2.46 3.81,1.09 5.41,-2.03 2.63,-3.35 2.73,0.4 1.33,1.81 6.2,-1.52 2.72,3.57 4.73,-0.37 3.4,-2.29 0.91,2.97 5.01,3.49 -1.57,1.98 0.17,5.54 1.57,2.58 -2.53,4.83 1.48,3.99 -1.23,1.84 -8.55,-2.81 -2.97,-0.02 -4.34,2.92 -0.13,1.69 2.47,3.01 1.3,3.41 -1.19,2.07 -3.04,0.51 -2.02,1.92 0.96,2.74 -4.45,2.12 -2.09,2.04 -0.32,4.15 -2.02,0.11 -2.89,-2.07 -0.62,4.47 1.68,1.78 -2.13,5.6 -3.31,3.33 -0.55,3.87 -1.99,2.14 0.26,1.94 -4.86,4.79 -2.1,-0.6 -2.47,1.46 -2.43,3.25 -7.65,2.64 -3.42,-0.98 -1.03,3.75 1.12,5.13 -1.99,1.14 -0.96,2.6 -7.55,6.95 -2.57,3.4 -7.83,3.76 -1.91,2.32 -4.47,-2.48 -4.98,1 -1.16,2.89 -5.99,0.03 -0.65,-2.83 2.58,-1.29 2.84,-3.98 6.94,-1.37 5.97,-5.78 -0.99,-1.84 4.19,-1.6 0.5,-7.41 3.79,-4.49 1.2,-4.27 2.04,-3.01 2.79,0.7 0.43,-6.29 -0.54,-2.16 1.19,-6.09 -5.3,2.08 -4.24,-1.62 -0.43,-4.05 4.21,1.17 2.35,-1.01 2.65,-6.21 4.45,-0.39 -1.24,5.34 0.99,3.59 2.46,-0.79 -0.54,-3.63 2.76,-0.15 1.01,-3.69 1.91,-0.15 1.58,-6.89 5.17,-5.37 1.37,-2.58 -1.25,-5.31 -2.53,3.44 -0.89,4.86 -3.58,2.38 -0.74,2.88 -4.8,-2.25 -2.3,3.38 -3.15,-2.53 4.71,-6.72 -2.13,-1.06 -1.03,-2.82 -2.76,2.18 -2.92,-0.51 -1.25,-2.55 0.65,-3.06 -1.71,-3.44 -2.54,-1.56 1.98,-3.17 -0.17,-2.53 -3.92,-0.9 -0.54,-3.79 -2.66,-0.3 -3.31,-4.87 -3.25,-0.9 3.62,-7.77 -5.12,-3.01 -1.97,2.1 -4.5,-1.48 -2.57,7.09 -2.23,-0.45 -0.75,-3.66 -3.47,-3.18 -1.3,0.05 -0.49,-5.13 -7.17,-0.06 0.38,-2.82 -3.19,-1.74 -2.98,-4.19 -0.46,-2.82 -2.7,-3.99 1.05,-5.94 -2.2,-2.3 z m 116.42,62.49 5.99,0.72 -1.08,3.44 -1.98,1.1 -2.18,-1.68 z"
       fill-rule="evenodd"
       id="M42201"
       style="fill:#ffff80;fill-opacity:1;stroke:#000000;stroke-width:1.01775;stroke-dasharray:none;stroke-opacity:1" />
    <path
       d="m 590.29,894.5 -3.07,0.95 0.36,-3.04 -4.55,-0.54 -2.62,1.33 -1.69,-1.1 1.41,-4.06 -7.34,-8.05 -0.66,-4.91 -2.3,-1.67 -0.23,-2.38 1.34,-4.01 1.06,3.38 4.66,-0.52 12.6,10.42 4.24,-1.06 -1.44,-2.89 0.6,-4.58 0.48,5.67 5.24,5.1 0.28,4.47 -3.92,2.11 -1.03,2.68 z m -16.16,-28.63 3.08,2.16 -2.06,1.5 z"
       fill-rule="evenodd"
       id="M42308"
       style="fill:#ffff80;fill-opacity:1;stroke:#000000;stroke-width:1.01775;stroke-dasharray:none;stroke-opacity:1" />
    <path
       d="m 607.5,866.93 -1.92,1.2 5.43,11.29 2.55,0.93 2.81,4.11 1.15,0.08 3.25,5.86 -2.63,3.35 -5.41,2.03 -3.81,-1.09 -2.53,2.46 -2.68,-0.79 -4.13,1.12 -4.72,3.02 -2.76,-2.82 -1.81,-3.18 3.42,-2.7 1.03,-2.68 3.92,-2.11 -0.28,-4.47 -5.24,-5.1 -0.48,-5.67 2.4,6.69 3.36,0.01 0.07,-2.01 2.22,-3.64 2.54,-2.29 1.5,-5.21 z"
       id="M42307"
       style="fill:#ffff80;fill-opacity:1;stroke:#000000;stroke-width:1.01775;stroke-dasharray:none;stroke-opacity:1" />
    <path
       d="m 267.79,707.05 0.91,0.79 -0.94,5.01 -4.49,-0.1 -0.21,-2.7 1.69,-2.7 z m 12.97,-3.13 -1.39,2.65 4.93,2.79 1.49,-1.73 3.99,0.82 3.06,-2.37 3.91,-0.17 -0.11,3.55 -2.49,-1.41 -4.43,1.18 1.13,5.94 2.88,1.15 -0.49,3.32 -3.76,-2.25 -2.36,1.41 -2,-2.81 -3.22,0.64 -2.1,3.67 -3.38,0.05 0.31,-5.27 -5.68,0.31 -1.57,-2.74 3.2,-3.36 2.31,-0.73 4.26,-4.63 z m 3.83,-3.84 2.08,3.07 -2.34,0.7 -1.75,-2.93 z m 22.17,6.69 4.16,6.25 0.33,1.62 3.38,2.01 -4.77,3.35 1.26,5.3 -0.72,7.14 -3.31,-1.89 -0.34,-4.72 -1.28,-1.94 0.3,-3.45 1.39,-1.59 -2.93,-6.08 -0.81,-3.4 z m 4.53,-6.67 2.29,2.21 -2.56,1.52 -1.72,-1.35 z"
       fill-rule="evenodd"
       id="M42383"
       style="fill:#ffff80;fill-opacity:1;stroke:#000000;stroke-width:1.01775;stroke-dasharray:none;stroke-opacity:1" />
    <path
       d="m 508.2,701.53 0.81,-2.85 -2.3,-1.27 -1.16,-4.33 -2.47,-1.44 -0.79,-4.51 2.51,-5.81 1.83,-2.12 3.19,1.56 0.78,-2.5 2.24,-2.16 4.32,1.6 6.53,5.01 2.39,-0.72 2.31,5.25 -1.97,1.47 -1.11,4.78 1.61,0.53 2.59,3.77 -0.73,2.27 -4.05,2.63 -1.61,-0.16 -1.86,3.62 -8.12,3.29 -2,-0.35 z"
       id="M42391"
       style="fill:#ffff80;fill-opacity:1;stroke:#000000;stroke-width:1.01775;stroke-dasharray:none;stroke-opacity:1" />
  </g>
  <path
     style="fill:none;stroke:#000000;stroke-width:1px;stroke-linecap:butt;stroke-linejoin:miter;stroke-opacity:1"
     d="M 2.7353696,325.73164 H 102.20933 L 241.91994,-3.9854152"
     id="path1130"
     sodipodi:nodetypes="ccc" />
  <path
     style="fill:none;stroke:#000000;stroke-width:1px;stroke-linecap:butt;stroke-linejoin:miter;stroke-opacity:1"
     d="M 540.34181,-3.9854153 V 234.08148 h 144.18135"
     id="path1132"
     sodipodi:nodetypes="ccc" />
</svg>
