<?xml version="1.0" encoding="UTF-8" standalone="no"?>
<svg
   version="1.2"
   width="414.49652"
   height="600"
   viewBox="0 0 414.49652 600"
   stroke-linecap="round"
   stroke-linejoin="round"
   id="svg6417"
   sodipodi:docname="os.svg"
   inkscape:version="1.2 (dc2aedaf03, 2022-05-15)"
   xmlns:inkscape="http://www.inkscape.org/namespaces/inkscape"
   xmlns:sodipodi="http://sodipodi.sourceforge.net/DTD/sodipodi-0.dtd"
   xmlns="http://www.w3.org/2000/svg"
   xmlns:svg="http://www.w3.org/2000/svg">
  <defs
     id="defs6421" />
  <sodipodi:namedview
     id="namedview6419"
     pagecolor="#505050"
     bordercolor="#eeeeee"
     borderopacity="1"
     inkscape:showpageshadow="0"
     inkscape:pageopacity="0"
     inkscape:pagecheckerboard="0"
     inkscape:deskcolor="#505050"
     showgrid="false"
     inkscape:zoom="0.69602763"
     inkscape:cx="206.88834"
     inkscape:cy="300.27543"
     inkscape:window-width="1920"
     inkscape:window-height="1009"
     inkscape:window-x="-8"
     inkscape:window-y="-8"
     inkscape:window-maximized="1"
     inkscape:current-layer="svg6417" />
  <g
     id="os"
     transform="matrix(0.51816609,0,0,0.51816609,-0.01818877,-0.01817059)"
     style="fill:#ffff80;fill-opacity:1;stroke:#000000;stroke-width:1.92988;stroke-dasharray:none;stroke-opacity:1">
    <path
       d="m 232.18,1089.7 -11.99,8.38 -13.52,-0.49 -4.57,-4.64 -4.51,-0.11 -9.33,3.65 -13.53,14.27 -12.84,4.1 -3.91,-4.42 -7.57,-1.85 -9.24,-4.59 -6.03,-1.12 -1.04,-4.68 -8.66,1.84 -4.33,-2.32 -1.06,-8.34 3.37,-4.49 -0.88,-11.53 -5.7,-4.38 6.1,-9.24 11.82,-6.57 16.12,-2.03 11.69,-8.18 11.47,-17.23 19.24,-23.44 -1.35,18.77 3.72,5.71 8.61,5.13 0.79,5.97 5.98,8.97 5.49,14.86 11.28,16.03 z"
       id="M27232"
       style="fill:#ffff80;fill-opacity:1;stroke:#000000;stroke-width:1.92988;stroke-dasharray:none;stroke-opacity:1" />
    <path
       d="m 569.15,780.3 6.15,4.16 0.08,9.84 3.69,5.72 -7.62,2.84 -0.88,21.17 3.83,6.52 -5.21,4.71 1.65,15.25 -6.98,3.92 -1.23,7.26 -4.48,1.37 -8.98,6.66 -4.22,-4.08 -4.08,-15.69 0.53,-9.2 -2.6,-2.46 1.71,-7.7 4.33,-3.46 1.45,-8.65 -6.94,-11.03 0.07,-9.65 8.09,5.78 4.03,-1.05 -0.47,-6.04 3.38,-3.09 8.24,-0.03 2.57,-13.25 z"
       id="M27231"
       style="fill:#ffff80;fill-opacity:1;stroke:#000000;stroke-width:1.92988;stroke-dasharray:none;stroke-opacity:1" />
    <path
       d="m 756.71,402.46 -6.54,13.37 2.4,5.33 0.45,14.39 1.52,4.71 -4.14,10.8 -5.55,-3.08 -5.41,1.84 -1.22,8.32 -9.05,-1.23 -5.7,3.83 -23.36,-6.21 -7.03,-5.46 -2.28,-11.53 4.97,-13.36 -3.1,-12.27 10.05,-2.32 4.93,-3.24 -3.59,-19.41 -5.57,-5.18 2.05,-3.17 8.78,-3.08 0.68,-3.37 6.99,-1 9.26,4.48 10.58,-1.81 16.16,4.58 6.93,5.64 2.56,7.16 -1.54,8.28 z"
       id="M27230"
       style="fill:#ffff80;fill-opacity:1;stroke:#000000;stroke-width:1.92988;stroke-dasharray:none;stroke-opacity:1" />
    <path
       d="m 693.08,449.07 7.03,5.46 23.36,6.21 5.7,-3.83 9.05,1.23 3.92,12.09 -0.43,4.73 3.72,11.08 -1.27,5.09 -15,11.8 -7.74,3.64 -12.21,14.14 1.87,-15.48 -3.15,-6.11 -13.69,-5.39 -4.85,-3.81 -0.04,-7.94 -12.24,-5.58 -18.15,-0.88 -8.2,-3.01 1.76,-16.34 4.7,-6.62 9.01,-0.32 17.53,1.45 3.14,3.4 z"
       id="M27229"
       style="fill:#ffff80;fill-opacity:1;stroke:#000000;stroke-width:1.92988;stroke-dasharray:none;stroke-opacity:1" />
    <path
       d="m 232.18,1089.7 -4.38,-11.97 -11.28,-16.03 -5.49,-14.86 -5.98,-8.97 -0.79,-5.97 -8.61,-5.13 -3.72,-5.71 1.35,-18.77 7.8,-6.97 8.18,0.88 19.56,-21.18 5.27,7.01 -3.42,1.57 4.8,8.55 5.33,0.6 0.02,6.6 13.21,-2.2 6.36,-2.44 4.92,3.04 11.3,14.43 5.63,13.29 -1.9,8.77 5.61,7.14 2.61,12.88 12.74,1.2 -0.3,8.97 0.3,8.18 -5.74,5.65 -7.83,2.34 0.08,8.01 -4.76,-0.77 -13.48,7.45 -11.23,0.56 0.64,5.6 -2.26,7.47 -6.22,6.05 -7.23,1.83 -5.68,-10.65 -0.46,-8.61 z M 180.62,934.31 165.16,948.25 154.7,935.3 168.55,924.04 Z m -13.99,-11.89 -3.65,2.7 -5.22,-6.5 -18.88,15.37 -6.12,-7.38 8.48,-5.5 12.15,-9.9 z"
       fill-rule="evenodd"
       id="M27228"
       style="fill:#ffff80;fill-opacity:1;stroke:#000000;stroke-width:1.92988;stroke-dasharray:none;stroke-opacity:1" />
    <path
       d="m 709.28,523.22 -0.05,14.76 6.45,10.36 0.4,8.04 -5.91,11.9 -3.44,4.19 0.13,8.7 -8.42,16.46 0.03,9.95 -47.4,-2.05 0.06,-8.39 -37.91,-0.47 1.73,13.22 -13.08,3.52 5.85,8.02 -1.37,2.24 -17.33,0.38 -7.46,-3.24 -0.2,-5.64 -3.88,-4.15 -4.82,0.17 -0.65,-13.9 -2.69,-8.35 3.99,-3.59 -0.82,-6.43 -5.03,-1.14 0.47,-7 5.84,0.22 3.06,-27.82 1.14,-1.64 13.19,-0.54 3.77,-2.31 6.49,-13.3 12.41,-7.25 2.17,4.34 10.54,-1.2 3.01,4.73 13.34,3.33 -1.16,-7.46 42.7,-2.38 8.69,1.8 4.23,3.71 8.12,-2.73 z"
       id="M27227"
       style="fill:#ffff80;fill-opacity:1;stroke:#000000;stroke-width:1.92988;stroke-dasharray:none;stroke-opacity:1" />
    <path
       d="m 630.25,688.55 7.36,1.13 -0.15,4.55 5.5,4.74 10.69,5.94 -6.92,12.34 -0.36,7.55 -8.3,1.51 -4.11,-3.78 -8.87,-0.21 2.58,7.49 -6.37,10.95 -6.65,-3.76 -1.13,-10.65 -3.75,-1.33 -5.86,-10.42 0.51,-7.72 -2.98,-7.68 -4.42,-0.78 1.31,-7.15 2.92,-2.31 3.24,3.62 4.55,-1.43 12.31,5.15 5.04,0.07 z"
       id="M27226"
       style="fill:#ffff80;fill-opacity:1;stroke:#000000;stroke-width:1.92988;stroke-dasharray:none;stroke-opacity:1" />
    <path
       d="m 442.4,797.65 -8.43,5.71 -17.55,-3.99 -2.01,-3.96 -6.01,5.8 -5.94,-7.92 -3.76,-2.07 15.96,-19.05 7.03,-12.94 10.25,6.2 2.61,10.96 -2.68,5.25 10.56,2.79 5.89,6.2 z m -65.4,-18.2 -3.32,1.94 -5.56,-7.88 4.51,-0.28 z m 30.7,-29.16 12.36,6.68 -6.96,12.72 -11.23,13.62 -4.59,0.85 -16.02,-8.74 3.4,-7.26 -10.04,-2.16 7.45,-15.93 8.47,5.49 -1.06,2.28 10.87,5.96 z"
       fill-rule="evenodd"
       id="M27225"
       style="fill:#ffff80;fill-opacity:1;stroke:#000000;stroke-width:1.92988;stroke-dasharray:none;stroke-opacity:1" />
    <path
       d="m 622.72,403.69 -18.65,19.3 -7.91,8.51 -9.13,6.25 -15.3,5.36 -2.78,-4.33 -9.15,-0.37 0.48,-14.11 -2.91,-2.69 2.41,-1.49 -17.02,-25.42 4.96,-1.8 13.51,-8.63 12.33,3.11 2.26,7.21 5.38,1.5 -0.57,11.67 3.31,1.69 8.74,-11.56 5.64,-3.22 9.02,-11.06 9.7,-6.92 1.27,1.48 -0.73,17.67 z"
       id="M27224"
       style="fill:#ffff80;fill-opacity:1;stroke:#000000;stroke-width:1.92988;stroke-dasharray:none;stroke-opacity:1" />
    <path
       d="m 645.31,480.09 3.73,11.14 -12.61,1.96 -5.03,-2.7 -3.63,6 -8.62,5.02 -11.61,1.48 -6.82,-12.89 -3.15,-9.5 -11.97,-13.12 8.65,-8.62 2.62,-6.54 9.96,0.99 12.12,2.99 6.83,-0.49 1.83,-7.07 7.17,8.84 7.93,-0.01 5.82,11.8 z"
       id="M27223"
       style="fill:#ffff80;fill-opacity:1;stroke:#000000;stroke-width:1.92988;stroke-dasharray:none;stroke-opacity:1" />
    <path
       d="m 597.02,698.42 4.42,0.78 2.98,7.68 -0.51,7.72 5.86,10.42 3.75,1.33 1.13,10.65 6.65,3.76 6.37,-10.95 -2.58,-7.49 8.87,0.21 4.11,3.78 8.3,-1.51 0.5,15.59 8.64,1.21 7.28,-6.6 1.72,9.89 11.29,4.61 9.11,0.93 -3.48,4.07 4.05,4.22 7.93,0.49 -12.38,11.84 -3.55,-2.31 -4.98,6.54 -4.25,-1.16 -5.78,5.69 -9.38,2.56 -18.24,-1.05 -2.07,-4.57 -9.47,-0.67 -5.61,1.59 -13.4,-4.71 -5.79,-4.5 -0.81,-4.68 -11.24,-15.49 -6.33,-0.4 1.76,-12.65 -2.01,-4.11 3.14,-7.34 -3.15,-17.4 11.37,-1.07 z"
       id="M27222"
       style="fill:#ffff80;fill-opacity:1;stroke:#000000;stroke-width:1.92988;stroke-dasharray:none;stroke-opacity:1" />
    <path
       d="m 646.37,724.8 0.36,-7.55 6.92,-12.34 -10.69,-5.94 -5.5,-4.74 0.15,-4.55 -7.36,-1.13 2.86,-6.28 10,0.04 7.58,-10.22 12.4,-1.57 6.92,1.91 11.68,-4 1.52,-6.73 0.6,4.25 10.85,3.02 10.22,-1.55 6.56,1.84 5.13,15.9 -1.67,4.21 4.91,5.02 -7.35,7.49 -5.13,-0.27 -1.15,5.5 3.36,6.78 -10.79,5.95 -8.23,9.35 -2.45,17.97 -3.16,3.27 -9.11,-0.93 -11.29,-4.61 -1.72,-9.89 -7.28,6.6 -8.64,-1.21 z"
       id="M27221"
       style="fill:#ffff80;fill-opacity:1;stroke:#000000;stroke-width:1.92988;stroke-dasharray:none;stroke-opacity:1" />
    <path
       d="m 497.21,259.35 4.56,11.14 4.83,-6.52 5.51,0.08 1.91,4.5 -1.81,5.16 4.88,5.57 -1.63,6.04 7.22,6.34 2.99,5.67 2.59,16.58 -7.37,2.46 2.04,5.24 6.89,7.28 -2.73,6.77 -10.38,-2.79 -3.75,2.14 -8.2,-6.14 -5.65,3.27 -4.18,5.54 -5.32,4.6 -0.58,6.4 -11.36,0.58 -9.47,-5.91 -22.46,16.28 -4.84,4.36 -6.5,-1.83 0.55,-2.03 0.8,-1.74 -1.68,-7.38 4.21,-2.24 -1.15,-10.96 4.12,-13.93 0.03,-12.82 6.38,-4.76 1.17,-7.47 -1.87,-6.48 1.16,-8.7 -3.74,-5.27 -8.58,-3.47 -4.35,-7.53 -10.02,-7.45 -0.07,-4.16 4.29,-15.69 3.67,-1.39 1.45,-6.03 9.43,0.89 6.15,-3.46 0.57,-4.95 6.78,-4.22 2.21,-9.23 9.44,-1.35 2.73,10.17 12.57,11.68 -7.35,4.54 -2.75,4.1 3.45,8.65 1.79,13.93 6.38,1.4 2.16,-4.93 5.89,-3.41 z"
       id="M27220"
       style="fill:#ffff80;fill-opacity:1;stroke:#000000;stroke-width:1.92988;stroke-dasharray:none;stroke-opacity:1" />
    <path
       d="m 416.42,799.37 17.55,3.99 8.43,-5.71 7.39,4.5 3.17,8.17 -2.59,11.32 6.53,4.34 -0.39,19.29 4.63,-0.4 1.65,8.35 8.37,9.98 -2.95,2.82 3.34,6.08 7.19,5.71 6.38,1.03 5.97,6.56 3.35,6.44 2.44,14.88 -1.3,5.58 3.16,6.04 6.77,-0.45 6.08,3.77 10.13,0.39 6.17,3.08 2.32,6.22 -1.43,24.37 -3.47,12.58 -2.75,1.78 -0.69,15.37 -9.67,9.96 -9.41,-0.36 -4.08,7.46 -12.17,5.78 -1.71,10.79 -4.9,4.12 -7.44,6.98 -1.89,6.75 -9.34,4.56 -15.28,4.64 -5.44,-3.74 4.17,-6.49 -2.65,-6.55 2,-10.44 3.81,-5.9 0.85,-7.38 4.76,-2.49 -1.55,-8.47 -7.65,-5.27 -2.78,-6.59 -4.78,-0.92 5.38,-14.3 1.31,-7.44 -2.46,-3.38 -2.4,-14.07 0.05,-9.54 -3.79,-5.76 0.45,-7.1 -5.05,-6.78 -2.93,-7.63 -0.04,-10.06 -2.55,-2.93 2.52,-7 -2.24,-9.98 -13.18,-11.91 -6.52,6.01 -11.21,-10.72 4.4,-6.52 -4.12,-5.33 7.19,-12.29 4.12,0.63 5.68,-7.33 -1.36,-5.1 -5.09,-4.27 12.17,-11.92 z"
       id="M27219"
       style="fill:#ffff80;fill-opacity:1;stroke:#000000;stroke-width:1.92988;stroke-dasharray:none;stroke-opacity:1" />
    <path
       d="m 658.96,475.52 18.15,0.88 12.24,5.58 0.04,7.94 4.85,3.81 13.69,5.39 3.15,6.11 -1.87,15.48 0.07,2.51 -3.81,-0.94 -8.12,2.73 -4.23,-3.71 -8.69,-1.8 -42.7,2.38 1.16,7.46 -13.34,-3.33 -3.01,-4.73 -10.54,1.2 -2.17,-4.34 5.32,-16.63 8.62,-5.02 3.63,-6 5.03,2.7 12.61,-1.96 -3.73,-11.14 15.68,1.33 z"
       id="M27218"
       style="fill:#ffff80;fill-opacity:1;stroke:#000000;stroke-width:1.92988;stroke-dasharray:none;stroke-opacity:1" />
    <path
       d="m 601.25,688.96 -2.92,2.31 -1.31,7.15 -5.78,6.9 -11.37,1.07 3.15,17.4 -3.14,7.34 -7.51,-0.03 -0.08,5.04 -4.72,4.19 -4.81,-0.14 -4.42,-9.75 -1.87,-8.06 -13.16,0.47 -2.07,-8.93 -4.79,-3.19 0.14,-4.27 -11.41,-0.02 0.27,-19.62 -0.8,-6.61 11.62,-5.89 14.61,-1.66 0.14,6.27 7.41,0.64 21.4,-1.14 11.82,3.65 10.89,4.53 z"
       id="M27217"
       style="fill:#ffff80;fill-opacity:1;stroke:#000000;stroke-width:1.92988;stroke-dasharray:none;stroke-opacity:1" />
    <path
       d="m 549.17,869.72 8.98,-6.66 4.48,-1.37 1.23,-7.26 6.98,-3.92 3.91,5 4.11,-1.05 12.79,2.82 7.03,9.82 -3.73,4.94 -2.02,14.99 4.29,2.21 3.31,6.98 4,0.34 8.64,9.65 9.86,3.95 2.72,6.59 7,6.51 6.28,-0.27 12.57,13.15 16.73,5.3 1.98,6.13 4.03,3.71 8.56,15.65 4.28,1.58 5.23,6.29 4.95,-1.48 -10.58,18.81 -19.22,0.54 -3.21,2.93 -5.38,-2.3 -14.71,-2.13 -8.11,11.69 -11.18,-1.2 -3.36,-3.98 -6.62,1.28 -1.17,5.68 -10.1,0.12 -4.01,-2.35 -7.72,1.24 -5.7,6.12 -11.05,3.82 -10.95,14.64 -8.02,4.06 -7.84,-1.39 -8.06,7.79 -9.51,1.75 -6.85,8.4 -11.51,10.61 -10.44,2.65 1.71,-6.92 -3.11,-6.23 -0.74,-7.06 -15.93,-9.12 -4.06,-9.57 4.9,-4.12 1.71,-10.79 12.17,-5.78 4.08,-7.46 9.41,0.36 9.67,-9.96 0.69,-15.37 2.75,-1.78 3.47,-12.58 1.43,-24.37 -2.32,-6.22 -6.17,-3.08 -1.46,-2.77 4.45,-10.52 5.11,-3.02 9.06,-9.52 3.26,-6.64 11.09,-13.67 z"
       id="M27216"
       style="fill:#ffff80;fill-opacity:1;stroke:#000000;stroke-width:1.92988;stroke-dasharray:none;stroke-opacity:1" />
    <path
       d="m 692.67,411.91 3.1,12.27 -4.97,13.36 2.28,11.53 -6.18,5.01 -3.14,-3.4 -17.53,-1.45 -9.01,0.32 -4.7,6.62 -1.76,16.34 8.2,3.01 2.03,5.9 -15.68,-1.33 3.22,-10.72 -5.82,-11.8 -7.93,0.01 -7.17,-8.84 -5.67,-7.4 -5.85,-3.1 0.42,-8.63 -3.15,-0.24 -9.29,-6.38 18.65,-19.3 9.9,-7.68 4.74,-8.68 10.52,2.33 8.65,-0.62 2.33,7.35 11.9,-0.74 8.63,3.74 5.33,15.33 z"
       id="M27215"
       style="fill:#ffff80;fill-opacity:1;stroke:#000000;stroke-width:1.92988;stroke-dasharray:none;stroke-opacity:1" />
    <path
       d="m 570.84,850.51 -1.65,-15.25 5.21,-4.71 -3.83,-6.52 0.88,-21.17 7.62,-2.84 7.29,3.09 11.76,1.17 0.1,-12.02 2.73,-5.37 3.35,-13.93 13.4,4.71 5.61,-1.59 9.47,0.67 2.07,4.57 18.24,1.05 -6.67,4 0.35,8.76 -1.91,3 -2.98,3.06 -0.36,8.44 5.21,10.27 7.05,3.24 0.16,11.51 -2.91,2.94 -4.76,-4.93 -10.4,1.63 -0.34,12.14 5.62,6.61 -0.63,5.1 -2.42,5.99 3.65,11.83 -1.67,2.5 -0.6,12.99 -6.36,9.37 -4.35,-0.22 -5.74,9.56 -9.86,-3.95 -8.64,-9.65 -4,-0.34 -3.31,-6.98 -4.29,-2.21 2.02,-14.99 3.73,-4.94 -7.03,-9.82 -12.79,-2.82 -4.11,1.05 z"
       id="M27214"
       style="fill:#ffff80;fill-opacity:1;stroke:#000000;stroke-width:1.92988;stroke-dasharray:none;stroke-opacity:1" />
    <path
       d="m 301,1064.43 0.3,-8.97 -12.74,-1.2 -2.61,-12.88 -5.61,-7.14 1.9,-8.77 -5.63,-13.29 -11.3,-14.43 -4.92,-3.04 -6.36,2.44 -13.21,2.2 -0.02,-6.6 6.72,-3.74 6.44,-6.03 -7.06,-13.54 -7.07,-6.6 5.06,-5.15 0.52,-10.29 10.65,-2.61 5.3,-5.42 3.79,3.56 12.32,-8.27 -7.16,-5.87 5.17,-6.38 5.94,4.53 2.58,-3.61 -4.83,-3.99 4.74,-5.83 5.07,3.87 10.26,3.15 3.01,4.72 9.56,5.8 2.37,5.17 9.15,4.93 -3.82,8.87 -1.04,8.36 -7.97,-5.26 -1.71,3.66 -7.72,3.41 -4.27,9.45 4.34,9.43 5.19,4.3 -0.36,4.46 8.24,9.82 6.68,2.33 0.52,8.61 9.19,6.82 4.12,0.27 4.64,5.1 11.06,0.6 2.75,2.98 -0.3,8.84 8.5,0.96 4.83,12.06 18.66,0.24 2.05,7.65 -4.64,11.96 -13.41,4.5 -7.58,-2.37 -1.79,4.86 -7.86,1.01 -7.58,-3.72 -7.23,-0.3 -7.96,2.69 -3.33,-5.47 -15.61,3.76 -4.88,-6.82 z M 194.86,924 l -12.7,-11.02 12.4,-10.11 9.57,0.99 6.77,8.38 -10.52,5.98 z m -27.7,-23.98 14.97,-13.59 4.74,5.86 8.5,6.43 -15.27,12.47 z"
       fill-rule="evenodd"
       id="M27213"
       style="fill:#ffff80;fill-opacity:1;stroke:#000000;stroke-width:1.92988;stroke-dasharray:none;stroke-opacity:1" />
    <path
       d="m 589.02,624.05 17.33,-0.38 1.37,-2.24 -5.85,-8.02 13.08,-3.52 -1.73,-13.22 37.91,0.47 -0.06,8.39 47.4,2.05 -2,4.47 0.67,15.95 -5.27,9.48 0.74,3.25 -3.29,13.66 -7.1,2.65 0.99,4.66 -1.52,6.73 -11.68,4 -6.92,-1.91 -12.4,1.57 -7.58,10.22 -10,-0.04 -2.86,6.28 -3.86,7.82 -5.04,-0.07 -12.31,-5.15 -4.55,1.43 -3.24,-3.62 1.29,-2.35 -10.89,-4.53 3.76,-1.51 0.07,-10.07 8.97,-5.72 -0.47,-6.54 -5.27,-4.2 -7.81,-2.67 -8.54,-0.07 -8.89,-4.71 4.83,-6.44 11.33,4.6 1.77,-12.3 z"
       id="M27212"
       style="fill:#ffff80;fill-opacity:1;stroke:#000000;stroke-width:1.92988;stroke-dasharray:none;stroke-opacity:1" />
    <path
       d="m 617.04,376.69 -9.7,6.92 -9.02,11.06 -5.64,3.22 -8.74,11.56 -3.31,-1.69 0.57,-11.67 -5.38,-1.5 -2.26,-7.21 -12.33,-3.11 3.73,-9.27 0.11,-8.08 -2.31,-5.41 -5.9,-1.44 -11.31,-5.53 -3.07,-3.34 -8.05,-0.81 -0.88,-4.91 -6.46,-9.82 2.73,-6.77 -6.89,-7.28 -2.04,-5.24 7.37,-2.46 -2.59,-16.58 -2.99,-5.67 -7.22,-6.34 1.63,-6.04 -4.88,-5.57 1.81,-5.16 -1.91,-4.5 -5.51,-0.08 -4.83,6.52 -4.56,-11.14 -4.42,-5.41 5.77,-10.09 2.71,-11.96 10.27,-6.08 6.15,-10.54 0.84,-6.33 9.69,-13.23 0.57,-12.73 14.19,4.88 -1.21,6.86 6.18,8.35 3.97,-3.19 11.01,2.84 11.5,-3.34 5.7,2.24 6.97,-0.81 4.02,5.71 -3.46,11.95 -8.85,6.36 4.87,13.94 -5.09,5.23 5.89,10.42 -7.04,6.02 -3.12,7.33 7.25,4.65 0.84,13.69 -3.14,4.14 6.58,12.1 12.46,2.85 4.09,7.77 -3.22,8.63 3.77,5.76 0.57,12.15 15.09,7.26 9,3.08 -9.62,6.48 0.28,15.93 z"
       id="M27211"
       style="fill:#ffff80;fill-opacity:1;stroke:#000000;stroke-width:1.92988;stroke-dasharray:none;stroke-opacity:1" />
    <path
       d="m 756.71,402.46 4.23,-2.99 1.54,-8.28 -2.56,-7.16 -6.93,-5.64 -16.16,-4.58 -10.58,1.81 -9.26,-4.48 -6.99,1 -0.68,3.37 -8.78,3.08 -2.05,3.17 5.57,5.18 3.59,19.41 -4.93,3.24 -10.05,2.32 -7.95,2.81 -5.33,-15.33 -8.63,-3.74 -11.9,0.74 -2.33,-7.35 -8.65,0.62 -10.52,-2.33 1.32,-11.54 5.74,-9.68 10.72,-8.55 8.01,-1.8 6.05,-5.05 3.4,-14.77 3.93,-5.6 -0.33,-10.05 1.61,-7.86 5.39,-11.03 13.34,-6.08 3.08,-3.11 7.85,-15.56 1.34,-6.16 5.83,-8.92 2.93,-7.91 4.39,5.52 -1.18,8.16 10.39,5.46 0.71,22.61 4.9,7.62 8.07,-5.3 3.72,1.1 5.95,6.49 2.43,9.79 4.3,3.26 10.49,21.79 9.29,0.82 3.92,4.13 2.11,7.71 11.94,20.03 -4.31,11.29 -4.37,3.68 1.46,4.18 -10.24,8.35 -5.55,9.18 -9.18,2.91 -5.63,-7.9 z"
       id="M27210"
       style="fill:#ffff80;fill-opacity:1;stroke:#000000;stroke-width:1.92988;stroke-dasharray:none;stroke-opacity:1" />
    <path
       d="m 571.73,443.11 15.3,-5.36 9.13,-6.25 7.91,-8.51 9.29,6.38 3.15,0.24 -0.42,8.63 5.85,3.1 5.67,7.4 -1.83,7.07 -6.83,0.49 -12.12,-2.99 -9.96,-0.99 -2.62,6.54 -8.65,8.62 11.97,13.12 3.15,9.5 -1.7,7.41 -9.55,-0.03 -0.93,12.6 -5.36,0.04 -1.5,-9.47 -3.84,-11.02 -6.85,-5.17 -5.87,2.02 -2.1,-12.31 8.41,-5.56 0.87,-5.02 -5.38,-8.37 -0.27,-4.67 z"
       id="M27209"
       style="fill:#ffff80;fill-opacity:1;stroke:#000000;stroke-width:1.92988;stroke-dasharray:none;stroke-opacity:1" />
    <path
       d="m 323.33,941.15 -9.15,-4.93 -2.37,-5.17 -9.56,-5.8 -3.01,-4.72 -10.26,-3.15 4.2,-0.94 5.7,-16 7.77,-6.41 3.64,3.05 4.54,-5.7 3.97,0.78 7.27,-12.51 12.49,12.64 3.77,-0.54 10.36,9.23 0.25,4.09 -4.42,6.67 3.42,5.08 -1.27,4.47 6.72,15.63 4.42,5.07 4.34,-3.27 9.15,11.1 12.64,0.64 -0.92,5.58 -5.01,4.98 0.81,5.75 4.2,5.34 -0.94,5.03 2.91,8.91 6.29,7.08 0.67,5.69 11.16,4.99 3.71,9.56 2.54,12.88 0.09,10.49 4.08,8.07 -6.84,3.94 -4.77,8.27 -11.17,0.1 -7.84,-3.01 -2.05,-7.65 -18.66,-0.24 -4.83,-12.06 -0.86,-9.13 -5.13,-10.52 4.5,-2.02 -2.28,-8.18 2.34,-13.36 -4.33,-1.19 0.25,-5.38 -4.58,-4.41 -1.72,-11.84 -2.33,-4.94 -12.32,-12.19 -3.27,-7.54 z m -18.94,-70.55 6.77,10.7 -1.52,5.93 -4.69,5.69 -11.14,9.06 -6.03,-7.51 15.53,-25.38 z"
       fill-rule="evenodd"
       id="M27208"
       style="fill:#ffff80;fill-opacity:1;stroke:#000000;stroke-width:1.92988;stroke-dasharray:none;stroke-opacity:1" />
    <path
       d="m 622.72,403.69 -5.14,-7.85 0.73,-17.67 -1.27,-1.48 1.23,-4.43 -0.28,-15.93 9.62,-6.48 -9,-3.08 -15.09,-7.26 -0.57,-12.15 -3.77,-5.76 3.22,-8.63 -4.09,-7.77 -12.46,-2.85 -6.58,-12.1 3.14,-4.14 -0.84,-13.69 -7.25,-4.65 3.12,-7.33 7.04,-6.02 -5.89,-10.42 5.09,-5.23 -4.87,-13.94 8.85,-6.36 3.46,-11.95 -4.02,-5.71 9.95,-8.38 -0.25,-21.72 -11.16,-3.05 -8.84,9.03 -3.47,-7.07 -5.68,-1.38 6.25,-7.38 -1.3,-4.49 2.31,-10.44 18.86,-3.31 -0.26,-6.82 -5.53,-0.59 -3.18,-4.55 -0.37,-8.76 7.46,-6.16 9.32,-1.81 5.59,11.8 3.49,1.65 4.75,-4.11 8.96,-3.39 5.28,2.71 6.86,-2.78 2.94,12.5 3.82,5.95 -8.88,22.22 -0.88,6.2 -8.99,5.84 -2.85,9.09 17.21,3.12 10.44,-10.85 5.33,1.75 0.21,10.92 5,7.05 -3.23,2.64 0.59,19.49 7.7,-4.92 -0.38,8.98 -3.04,2.75 1.16,14.79 8.26,3.11 3.43,4.44 1.01,7.39 6.36,2.05 2.64,6.4 5.75,6.48 4.49,-4.37 14.58,7.66 -1.34,6.16 -7.85,15.56 -3.08,3.11 -13.34,6.08 -5.39,11.03 -1.61,7.86 0.33,10.05 -3.93,5.6 -3.4,14.77 -6.05,5.05 -8.01,1.8 -10.72,8.55 -5.74,9.68 -1.32,11.54 -4.74,8.68 z"
       id="M27207"
       style="fill:#ffff80;fill-opacity:1;stroke:#000000;stroke-width:1.92988;stroke-dasharray:none;stroke-opacity:1" />
    <path
       d="m 398.7,791.22 3.76,2.07 5.94,7.92 6.01,-5.8 2.01,3.96 0.63,7.8 -12.17,11.92 5.09,4.27 1.36,5.1 -5.68,7.33 -4.12,-0.63 -7.19,12.29 -4.86,-0.93 -7.14,-9.6 0.11,-5.04 -3.87,-4.65 -6.7,-1.16 -8.76,-4.39 -14.56,-13.21 -2.88,-4.48 -10.15,-9.16 13.65,-22.01 2.99,2.59 4.53,16.79 3.7,6.6 11.6,7.91 0.36,-7.27 4.54,-4.19 6.65,-0.33 4.75,-8.79 z m -30.58,-17.71 5.56,7.88 3.32,-1.94 1.93,2.75 -2.76,9.25 -6.58,2.97 -8.17,-9.91 z"
       fill-rule="evenodd"
       id="M27206"
       style="fill:#ffff80;fill-opacity:1;stroke:#000000;stroke-width:1.92988;stroke-dasharray:none;stroke-opacity:1" />
    <path
       d="m 561.23,384.27 -13.51,8.63 -4.96,1.8 17.02,25.42 -2.41,1.49 -5.68,-0.01 -6.14,10.91 -8.22,2.53 -4.12,7.21 3.19,3.32 -7.95,6.67 -7.38,-3.54 -3.99,0.82 -7.64,6.48 -4.63,0.45 -7.71,-4.35 -5.19,-5.09 -8.88,2.31 -1.24,-1.85 1.94,-23.76 3.81,-5.71 5.83,-0.66 4.35,-7.79 -9.65,-7.26 0.81,-11.25 3.46,-9.94 11.43,-6.79 -1.38,-9.58 5.53,-5.84 -5.26,-10.04 -7.73,-11.17 4.18,-5.54 5.65,-3.27 8.2,6.14 3.75,-2.14 10.38,2.79 6.46,9.82 0.88,4.91 8.05,0.81 3.07,3.34 11.31,5.53 5.9,1.44 2.31,5.41 -0.11,8.08 z"
       id="M27205"
       style="fill:#ffff80;fill-opacity:1;stroke:#000000;stroke-width:1.92988;stroke-dasharray:none;stroke-opacity:1" />
    <path
       d="m 421.43,259.93 10.02,7.45 4.35,7.53 8.58,3.47 3.74,5.27 -1.16,8.7 1.87,6.48 -1.17,7.47 -6.38,4.76 -0.03,12.82 -4.12,13.93 1.15,10.96 -4.21,2.24 1.68,7.38 -0.8,1.74 -0.55,2.03 -1.93,12.77 -3.24,0.61 -3.33,11.22 -3.26,-0.16 -11.44,-14.17 -6.56,-0.79 -4.89,-10.08 -4.58,-13.18 0.24,-4.11 7.57,-9.6 1.73,-4.52 0.53,-12.31 -6.83,-16.74 15.54,-10.34 -1.59,-6.91 5.79,-13.43 -0.96,-3.17 z"
       id="M27204"
       style="fill:#ffff80;fill-opacity:1;stroke:#000000;stroke-width:1.92988;stroke-dasharray:none;stroke-opacity:1" />
    <path
       d="m 434.4,362.16 6.5,1.83 4.84,-4.36 22.46,-16.28 9.47,5.91 11.36,-0.58 0.58,-6.4 5.32,-4.6 7.73,11.17 5.26,10.04 -5.53,5.84 1.38,9.58 -11.43,6.79 -3.46,9.94 -0.81,11.25 9.65,7.26 -4.35,7.79 -5.83,0.66 -3.81,5.71 -1.94,23.76 1.24,1.85 -8.39,17.35 -6.81,3 -10.4,8.06 -8.14,-3.62 -1.71,-3.07 1.56,-18.85 -1,-6.17 -11.34,-11.89 0.42,-9.35 -6.98,-3.28 1.81,-10.05 -1.28,-8.11 -3.23,-5.35 -1.64,-11.23 3.33,-11.22 3.24,-0.61 z"
       id="M27203"
       style="fill:#ffff80;fill-opacity:1;stroke:#000000;stroke-width:1.92988;stroke-dasharray:none;stroke-opacity:1" />
    <path
       d="m 394.06,859.3 11.21,10.72 6.52,-6.01 13.18,11.91 2.24,9.98 -2.52,7 2.55,2.93 0.04,10.06 2.93,7.63 5.05,6.78 -0.45,7.1 3.79,5.76 -0.05,9.54 2.4,14.07 2.46,3.38 -1.31,7.44 -5.38,14.3 4.78,0.92 2.78,6.59 7.65,5.27 1.55,8.47 -4.76,2.49 -0.85,7.38 -3.81,5.9 -2,10.44 2.65,6.55 -4.17,6.49 -14.23,3.69 -8.78,-1.27 -4.08,-8.07 -0.09,-10.49 -2.54,-12.88 -3.71,-9.56 -11.16,-4.99 -0.67,-5.69 -6.29,-7.08 -2.91,-8.91 0.94,-5.03 -4.2,-5.34 -0.81,-5.75 5.01,-4.98 0.92,-5.58 -12.64,-0.64 -9.15,-11.1 -4.34,3.27 -4.42,-5.07 -6.72,-15.63 1.27,-4.47 -3.42,-5.08 4.42,-6.67 -0.25,-4.09 -10.36,-9.23 -3.77,0.54 -12.49,-12.64 -6.62,-4.58 9.92,-8.16 9.83,0.96 -7.77,-14.61 2.86,-4.57 9.98,7.14 3.13,-4.07 -1.3,-5.51 1.9,-6.17 -8.66,-5.45 2.64,-6.19 -1.92,-8.94 29.14,17.12 z m -73.64,-19.96 0.05,6.37 -2.31,3.77 8.1,9.58 -5.75,9.3 -7.04,-0.96 3.21,-9.23 -1.43,-2.26 3.04,-5.05 -1.07,-0.14 3.14,-5.01 z"
       fill-rule="evenodd"
       id="M27202"
       style="fill:#ffff80;fill-opacity:1;stroke:#000000;stroke-width:1.92988;stroke-dasharray:none;stroke-opacity:1" />
    <path
       d="m 420.06,756.97 -12.36,-6.68 5.4,-9.98 5.21,1.66 2.27,-4.2 5.09,1.89 -0.17,7.41 z m -29.52,-1.41 -8.47,-5.49 5.11,-10.67 7.85,6.59 z m 188.53,44.46 -3.69,-5.72 -0.08,-9.84 -6.15,-4.16 -3.89,-0.18 -2.57,13.25 -8.24,0.03 -3.38,3.09 0.47,6.04 -4.03,1.05 -8.09,-5.78 -0.07,9.65 6.94,11.03 -1.45,8.65 -4.33,3.46 -1.71,7.7 2.6,2.46 -0.53,9.2 4.08,15.69 4.22,4.08 4.06,6.19 -11.09,13.67 -3.26,6.64 -9.06,9.52 -5.11,3.02 -4.45,10.52 1.46,2.77 -10.13,-0.39 -6.08,-3.77 -6.77,0.45 -3.16,-6.04 1.3,-5.58 -2.44,-14.88 -3.35,-6.44 -5.97,-6.56 -6.38,-1.03 -7.19,-5.71 -3.34,-6.08 2.95,-2.82 -8.37,-9.98 -1.65,-8.35 -4.63,0.4 0.39,-19.29 -6.53,-4.34 2.59,-11.32 -3.17,-8.17 -7.39,-4.5 5.92,-7.02 -5.89,-6.2 -10.56,-2.79 2.68,-5.25 -2.61,-10.96 -10.25,-6.2 5.44,-10.08 3.22,-13.89 -17.47,-5.26 -24.37,0.03 -10.34,-57.74 16.73,8.82 6.17,35.68 10.52,-1.52 -3.96,-28.07 9.25,4.36 0.77,5.97 8.7,-0.43 4.62,23.05 5.04,-0.94 2.84,-13.51 -2.88,-14.56 2.91,-7.32 -9.59,3.66 -8.69,0.61 -13.75,-6.41 -2.45,-17.17 12.74,3.96 -0.79,2.16 12.83,4.65 3.34,-6.24 -11.72,-4.22 0.71,-5.14 10.98,-0.23 27.88,9.61 15.72,7.3 14.3,3.24 4.22,3.1 5.9,9.62 4.46,-0.63 19.68,-11.48 0.8,6.61 -0.27,19.62 11.41,0.02 -0.14,4.27 4.79,3.19 2.07,8.93 13.16,-0.47 1.87,8.06 4.42,9.75 4.81,0.14 4.72,-4.19 0.08,-5.04 7.51,0.03 2.01,4.11 -1.76,12.65 6.33,0.4 11.24,15.49 0.81,4.68 5.79,4.5 -3.35,13.93 -2.73,5.37 -0.1,12.02 -11.76,-1.17 z"
       fill-rule="evenodd"
       id="M27140"
       style="fill:#ffff80;fill-opacity:1;stroke:#000000;stroke-width:1.92988;stroke-dasharray:none;stroke-opacity:1" />
    <path
       d="m 697.36,973.32 -4.95,1.48 -5.23,-6.29 -4.28,-1.58 -8.56,-15.65 -4.03,-3.71 -1.98,-6.13 -16.73,-5.3 -12.57,-13.15 -6.28,0.27 -7,-6.51 -2.72,-6.59 5.74,-9.56 4.35,0.22 6.36,-9.37 0.6,-12.99 1.67,-2.5 -3.65,-11.83 2.42,-5.99 4.91,-2.72 7.57,-0.15 1.09,12.99 h 9.26 l 6.28,6.42 2.62,5.48 6.82,5.76 7.42,-0.54 4.2,-11.6 0.01,-4.36 10.61,-3.46 10.5,-0.54 8.5,6.17 0.29,13.62 5.59,6.79 -0.3,4.01 -6.11,8.01 -0.26,8.06 -3.55,8.22 -5.63,5.33 -10.6,6.68 2.11,10.86 2.89,4.79 7.49,-0.09 5.65,7.15 -5.05,4.92 -0.6,9.06 z"
       id="M27383"
       style="fill:#ffff80;fill-opacity:1;stroke:#000000;stroke-width:1.92988;stroke-dasharray:none;stroke-opacity:1" />
    <path
       d="m 640.52,858.14 0.63,-5.1 -5.62,-6.61 0.34,-12.14 10.4,-1.63 4.76,4.93 2.91,-2.94 -0.16,-11.51 -7.05,-3.24 -5.21,-10.27 0.36,-8.44 2.98,-3.06 11.03,0.18 15.11,16.01 16.67,9.81 5.19,-1.72 2.89,-5.72 8.02,-4.47 8.17,-0.63 -2.81,4.2 6.46,5.04 0.82,9.55 7.12,14.02 -4.39,4.98 2.61,6.09 -1.44,16.12 -8.5,-6.17 -10.5,0.54 -10.61,3.46 -0.01,4.36 -4.2,11.6 -7.42,0.54 -6.82,-5.76 -2.62,-5.48 -6.28,-6.42 h -9.26 l -1.09,-12.99 -7.57,0.15 z"
       id="M27382"
       style="fill:#ffff80;fill-opacity:1;stroke:#000000;stroke-width:1.92988;stroke-dasharray:none;stroke-opacity:1" />
    <path
       d="m 653.09,782.37 9.38,-2.56 5.78,-5.69 4.25,1.16 4.98,-6.54 3.55,2.31 12.38,-11.84 3.28,16.96 6.25,-2.1 5.63,2.33 5.34,5.85 -1.37,4.76 1.89,6.12 0.18,12.67 -2.67,5.79 -8.17,0.63 -8.02,4.47 -2.89,5.72 -5.19,1.72 -16.67,-9.81 -15.11,-16.01 -11.03,-0.18 1.91,-3 -0.35,-8.76 z"
       id="M27381"
       style="fill:#ffff80;fill-opacity:1;stroke:#000000;stroke-width:1.92988;stroke-dasharray:none;stroke-opacity:1" />
    <path
       d="m 613.83,518.14 -12.41,7.25 -6.49,13.3 -3.77,2.31 -13.19,0.54 -1.14,1.64 -3.06,27.82 -5.84,-0.22 -0.47,7 5.03,1.14 0.82,6.43 -3.99,3.59 2.69,8.35 0.65,13.9 4.82,-0.17 3.88,4.15 0.2,5.64 7.46,3.24 2.38,8.4 -1.77,12.3 -11.33,-4.6 -4.83,6.44 8.89,4.71 8.54,0.07 7.81,2.67 5.27,4.2 0.47,6.54 -8.97,5.72 -0.07,10.07 -3.76,1.51 -11.82,-3.65 -21.4,1.14 -7.41,-0.64 -0.14,-6.27 -14.61,1.66 -11.62,5.89 -19.68,11.48 -4.46,0.63 -5.9,-9.62 -4.22,-3.1 -14.3,-3.24 -15.72,-7.3 -27.88,-9.61 -10.98,0.23 -0.06,-3.85 -17.22,-0.01 0.03,-12.19 3.28,1.5 0.62,7.32 7.74,0.03 -2.04,-13.03 12.23,-6.49 1.97,11.96 5.68,0.35 0.71,-19.04 6.63,2.21 -1.11,-8.48 -5.4,0.09 -1.4,-9.48 5.06,-1.88 -1.61,-6.16 -7.08,3.29 -19.53,-9.93 -0.16,-5.55 -5.46,-3.34 -5.29,5.6 -5.92,1.94 3.71,-17.37 -0.89,-14.04 -10.28,2.06 0.76,-5.46 16.35,-6.14 -5.55,-12.52 -7.36,-4.17 -5.37,-9.24 6.81,-7.28 14.29,-5.8 6.12,-8.1 19.83,-10.01 2.8,-5.35 -3.01,-12.4 4.09,-6.04 13.81,1.43 8.14,3.62 10.4,-8.06 6.81,-3 8.39,-17.35 8.88,-2.31 5.19,5.09 7.71,4.35 4.63,-0.45 7.64,-6.48 3.99,-0.82 7.38,3.54 7.95,-6.67 -3.19,-3.32 4.12,-7.21 8.22,-2.53 6.14,-10.91 5.68,0.01 2.91,2.69 -0.48,14.11 9.15,0.37 2.78,4.33 -5.08,7.44 0.27,4.67 5.38,8.37 -0.87,5.02 -8.41,5.56 2.1,12.31 5.87,-2.02 6.85,5.17 3.84,11.02 1.5,9.47 5.36,-0.04 0.93,-12.6 9.55,0.03 1.7,-7.41 6.82,12.89 11.61,-1.48 z m -247.07,115.19 8.27,7.73 7.9,1.48 15.22,0.26 2.44,9.84 -4.15,1.23 -17.54,-0.04 -3.94,-12.68 z m -60.05,7.04 0.5,-2.29 11.38,-14.37 6.53,7.15 -15.84,15.3 z m 90.75,-34.5 7.75,2.63 9.94,-2.03 8.5,4.17 2.92,17.82 -12.1,7.11 -11.83,3.66 -1.87,-5.79 -12.39,-0.02 -3.6,-5.39 8.94,-7.9 -3.07,-3.53 -9.51,8.39 -7.33,0.31 0.01,-10.14 21.93,-9.87 z m -38.86,-22.95 16.71,4.37 5.86,4.79 -14.33,17.63 -16.92,-2 -7.38,-13.2 8.21,-13.12 z m 20.44,-19.58 8.07,6.36 1.91,4.66 -1.43,9.8 -26.7,-5.49 0.15,-7.56 z"
       fill-rule="evenodd"
       id="M27100"
       style="fill:#ffff80;fill-opacity:1;stroke:#000000;stroke-width:1.92988;stroke-dasharray:none;stroke-opacity:1" />
    <path
       d="m 394.34,847.45 4.12,5.33 -4.4,6.52 -24.86,-22.68 -29.14,-17.12 3.51,-10.19 4.99,-0.84 14.56,13.21 8.76,4.39 6.7,1.16 3.87,4.65 -0.11,5.04 7.14,9.6 z"
       id="M27341"
       style="fill:#ffff80;fill-opacity:1;stroke:#000000;stroke-width:1.92988;stroke-dasharray:none;stroke-opacity:1" />
    <path
       d="m 122.94,1059.74 -6.1,9.24 5.7,4.38 0.88,11.53 -3.37,4.49 1.06,8.34 4.33,2.32 8.66,-1.84 1.04,4.68 6.03,1.12 0.51,7.96 -3.8,3.38 -1.22,14.76 -2.08,4.33 -8.37,2.36 -5.12,-0.65 -2.48,5.45 -10.89,4.27 -11.16,-1.04 -17.25,5.19 -3.15,-5.62 -10.19,-4.09 -8.65,6.31 -3.4,8.68 -5.53,1.71 -7.47,-7.45 -6.09,5.14 -13.06,0.19 -3.59,-6.91 2.09,-6.21 -12.67,-9.42 1.32,-5.39 -3.47,-6.54 11.57,-12.86 -4.49,-7.59 -6.9,4.42 -4.63,-5.7 7.26,-5.08 2.72,-5.99 10.58,-3.82 13.34,-2.73 11.62,-3.63 3.1,4.36 -3.61,4.06 13.65,3.34 8.33,-7.55 5.87,-11.57 13.28,-0.54 6.02,-5.78 9.7,-3.6 7.27,2.36 z"
       id="M27366"
       style="fill:#ffff80;fill-opacity:1;stroke:#000000;stroke-width:1.92988;stroke-dasharray:none;stroke-opacity:1" />
    <path
       d="m 240.8,992.75 -5.33,-0.6 -4.8,-8.55 3.42,-1.57 -5.27,-7.01 7.69,-6.94 3.32,-5.24 7.07,6.6 7.06,13.54 -6.44,6.03 z m -60.18,-58.44 -12.07,-10.27 -1.92,-1.62 -13.24,-11.21 13.77,-11.19 12.94,11.17 -9.53,7.75 1.15,2.48 10.44,-8.44 12.7,11.02 z"
       fill-rule="evenodd"
       id="M27362"
       style="fill:#ffff80;fill-opacity:1;stroke:#000000;stroke-width:1.92988;stroke-dasharray:none;stroke-opacity:1" />
    <path
       d="m 361.37,1034.16 -8.5,-0.96 0.3,-8.84 -2.75,-2.98 -11.06,-0.6 -4.64,-5.1 -4.12,-0.27 -9.19,-6.82 -0.52,-8.61 -6.68,-2.33 -8.24,-9.82 0.36,-4.46 -5.19,-4.3 -4.34,-9.43 4.27,-9.45 7.72,-3.41 1.71,-3.66 7.97,5.26 1.04,-8.36 3.82,-8.87 8.31,2.31 3.27,7.54 12.32,12.19 2.33,4.94 1.72,11.84 4.58,4.41 -0.25,5.38 4.33,1.19 -2.34,13.36 2.28,8.18 -4.5,2.02 5.13,10.52 z"
       id="M27361"
       style="fill:#ffff80;fill-opacity:1;stroke:#000000;stroke-width:1.92988;stroke-dasharray:none;stroke-opacity:1" />
    <path
       d="m 717.57,253.66 -2.93,7.91 -5.83,8.92 -14.58,-7.66 -4.49,4.37 -5.75,-6.48 -2.64,-6.4 -6.36,-2.05 -1.01,-7.39 -3.43,-4.44 -8.26,-3.11 -1.16,-14.79 3.04,-2.75 0.38,-8.98 -7.7,4.92 -0.59,-19.49 3.23,-2.64 -5,-7.05 -0.21,-10.92 5.94,-1.33 4.4,5.34 7.56,0.56 7.05,6.97 4.62,13.27 -3.4,0.47 -1.26,10.74 6.82,0.31 9.7,8.41 8.28,-0.19 7.12,5.43 5.59,14.67 4.25,3.7 z"
       id="M27301"
       style="fill:#ffff80;fill-opacity:1;stroke:#000000;stroke-width:1.92988;stroke-dasharray:none;stroke-opacity:1" />
    <path
       d="m 479.01,155.25 -5.85,3.69 -3.6,9.04 -2.09,12.22 -9.87,2.83 -7.43,3.71 -4.76,-4.27 -5.25,-0.86 -13.71,-14.39 -3.72,3.63 -16.13,0.77 -8.38,3.77 -3.33,-10.28 -6.53,1.3 -3.81,-5.58 -13.85,-1.15 -4.4,4.58 -6.33,-7.81 0.45,-6.52 -6.91,-7.82 -8.01,1.63 -13.93,-1.64 -3.9,2.7 -7.91,-12.21 -11.22,-6.3 4.5,-7.64 -0.28,-5.67 4.55,-5.59 8.9,-4.46 -8.51,-11.73 1.2,-15.53 -2.49,-5.18 3.89,-3.46 -1.2,-9.85 2.51,-4.94 -1.28,-12.07 -9.97,-3.07 -8.25,1.18 -2.18,-6.86 -5.42,-6.98 0.2,-6.7 5.07,-4.48 13.67,-5.29 0.49,-6.97 12.2,1.13 9.96,9.13 4.13,-1.92 6.07,1.71 4.97,7.5 2.27,10.73 -0.27,8.53 -4.88,8.28 4.72,15.31 9.17,-1.54 6.22,3.96 4.06,-2.82 7.05,5.89 7.96,-7.21 4.49,3.65 5.7,8.73 5.75,1.66 13.04,-8.66 3.3,-0.73 12.95,4.41 6.32,5.52 9.66,0.24 13.86,10.11 13.02,-0.5 6.8,4.31 6.85,6.83 -7.79,3.54 -4.3,5.11 4.35,12.02 2.12,10.78 -7.96,2 2.95,7.1 0.51,8.8 -4.78,6.36 z"
       id="M27322"
       style="fill:#ffff80;fill-opacity:1;stroke:#000000;stroke-width:1.92988;stroke-dasharray:none;stroke-opacity:1" />
    <path
       d="m 497.21,259.35 -6.99,-2.88 -5.89,3.41 -2.16,4.93 -6.38,-1.4 -1.79,-13.93 -3.45,-8.65 2.75,-4.1 7.35,-4.54 -12.57,-11.68 -2.73,-10.17 -9.44,1.35 -2.21,9.23 -6.78,4.22 -0.57,4.95 -6.15,3.46 -9.43,-0.89 -6.92,-0.85 -10.95,3.72 0.71,-5.55 -6.6,-14.15 -6.98,0.4 -1.06,-4.88 13.68,-9.82 5.16,-0.63 5.84,-5.56 14.84,0.9 6.42,2.97 10.63,-2.51 2.06,-13.67 9.87,-2.83 2.09,-12.22 3.6,-9.04 5.85,-3.69 4.54,1.53 2.54,6.84 11.3,0.67 5.32,-7.36 13.04,3.81 0.39,10.14 2.75,5.13 4.85,0.28 5.05,6.69 -0.57,12.73 -9.69,13.23 -0.84,6.33 -6.15,10.54 -10.27,6.08 -2.71,11.96 -5.77,10.09 z"
       id="M27321"
       style="fill:#ffff80;fill-opacity:1;stroke:#000000;stroke-width:1.92988;stroke-dasharray:none;stroke-opacity:1" />
  </g>
</svg>
