<?xml version="1.0" encoding="UTF-8" standalone="no"?>
<svg
   version="1.2"
   width="604.53784"
   height="599.99994"
   viewBox="0 0 604.53784 599.99994"
   stroke-linecap="round"
   stroke-linejoin="round"
   id="svg280"
   sodipodi:docname="sg.svg"
   inkscape:version="1.2 (dc2aedaf03, 2022-05-15)"
   xmlns:inkscape="http://www.inkscape.org/namespaces/inkscape"
   xmlns:sodipodi="http://sodipodi.sourceforge.net/DTD/sodipodi-0.dtd"
   xmlns="http://www.w3.org/2000/svg"
   xmlns:svg="http://www.w3.org/2000/svg">
  <defs
     id="defs284" />
  <sodipodi:namedview
     id="namedview282"
     pagecolor="#505050"
     bordercolor="#eeeeee"
     borderopacity="1"
     inkscape:showpageshadow="0"
     inkscape:pageopacity="0"
     inkscape:pagecheckerboard="0"
     inkscape:deskcolor="#505050"
     showgrid="false"
     inkscape:zoom="1.0151134"
     inkscape:cx="302.42928"
     inkscape:cy="300.45906"
     inkscape:window-width="1920"
     inkscape:window-height="1009"
     inkscape:window-x="-8"
     inkscape:window-y="-8"
     inkscape:window-maximized="1"
     inkscape:current-layer="svg280" />
  <g
     id="sg"
     style="fill:#ffff80;fill-opacity:1;stroke:#000000;stroke-width:1.3222;stroke-dasharray:none;stroke-opacity:1"
     transform="matrix(0.75631313,0,0,0.75631313,-0.25633697,-0.25635899)">
    <path
       d="m 668.63,266.58 0.81,4.34 5.11,2.66 2.75,6.63 -0.1,9.73 -5.49,14.17 -3,4.22 2.14,5.72 5.58,23.04 -4.28,4.48 0.8,4.22 -1.97,15.9 -2.26,7 -5.26,7.88 0.37,7.29 -0.75,7.5 -3.85,5.03 -4.56,3.86 -9.65,-41.61 -3.66,0.32 2,-21.44 -3.1,-16.3 -5,-15.36 1.81,-3.32 -3.88,-6.96 1.79,-8.46 -4.83,-0.48 -7.19,-13.21 5.03,-6.66 7.46,-0.51 6.04,-11.13 -0.14,-5.49 -5.54,-5.1 -1.38,-6.68 1.6,-6.96 9.13,-3.76 1.34,2.13 9.17,-0.31 6.78,12.34 10.28,8.29 -7.38,12.74 z"
       id="M41327"
       style="fill:#ffff80;fill-opacity:1;stroke:#000000;stroke-width:1.3222;stroke-dasharray:none;stroke-opacity:1" />
    <path
       d="m 659.23,396.39 3.85,-5.03 0.75,-7.5 10.1,-0.03 -0.34,-6.3 6.9,-0.76 2.19,5.6 7.31,-1.67 0.91,-8.31 5.63,-3.14 -0.84,-8.93 -5.36,-1.36 -4.5,-3.91 -3,-15.36 0.65,-4.17 6.26,-1.95 -2.01,-10.93 -3.24,-3.71 1.7,-6.43 -6,-50 6.14,1.89 9.48,-4.47 3.4,3.74 -1.86,5.99 3.26,10.48 4.34,3.77 -0.24,3.93 5.82,5.43 3.87,11.5 -1.1,8.01 3.07,9.54 5.01,-3.14 5.13,4.48 -0.09,4.87 3.86,6.06 5.59,0.86 1.41,7.61 -2.94,5.8 6,6.42 4.47,1.08 1.87,4.5 -4.47,11.57 -6.61,2.23 -11.5,-0.49 -8.65,1.76 -2.39,2.94 0.62,8.36 9.94,4.12 -1.35,6.52 -11.86,2.27 -4.21,5.4 1.86,9.95 -0.84,5.9 -7.25,1.27 -6.2,-6.86 -1.14,-7.25 3.39,-16.07 -4.69,-3.66 -6.88,2.75 2.99,4.67 1.07,6.78 -1.22,7.06 -3.38,4.74 -5.46,-1.47 -3.36,4.17 -7.75,-0.7 -2.54,-5.49 -0.95,-13.67 z"
       id="M41346"
       style="fill:#ffff80;fill-opacity:1;stroke:#000000;stroke-width:1.3222;stroke-dasharray:none;stroke-opacity:1" />
    <path
       d="m 663.83,383.86 -0.37,-7.29 5.26,-7.88 2.26,-7 1.97,-15.9 -0.8,-4.22 4.28,-4.48 -5.58,-23.04 -2.14,-5.72 3,-4.22 5.49,-14.17 0.1,-9.73 -2.75,-6.63 -5.11,-2.66 -0.81,-4.34 7.99,-7.25 3.57,3.17 6,50 -1.7,6.43 3.24,3.71 2.01,10.93 -6.26,1.95 -0.65,4.17 3,15.36 4.5,3.91 5.36,1.36 0.84,8.93 -5.63,3.14 -0.91,8.31 -7.31,1.67 -2.19,-5.6 -6.9,0.76 0.34,6.3 z"
       id="M41345"
       style="fill:#ffff80;fill-opacity:1;stroke:#000000;stroke-width:1.3222;stroke-dasharray:none;stroke-opacity:1" />
    <path
       d="m 798.86,267.52 -3.08,-10.77 -9.07,0.52 -2.66,-9.86 -6.9,-0.47 -12.32,3.38 -5.77,3.58 -9.19,-4.79 -4.3,-4.46 -4.31,-7.99 -5.88,-4.37 -10.21,-4.18 -5.38,-0.74 11.94,-9 5.67,-0.79 11,-4.27 4.77,-6.03 7.59,-2.58 6.06,3.73 1.5,-6.34 10.63,3.66 11.81,5.47 3.31,3.81 -1.85,4.63 2.21,9.64 3.68,6.06 z"
       id="M41341"
       style="fill:#ffff80;fill-opacity:1;stroke:#000000;stroke-width:1.3222;stroke-dasharray:none;stroke-opacity:1" />
    <path
       d="m 117.11,127.75 12.23,3.2 7.73,8.84 4.73,-0.18 7.28,11.13 7.82,2.73 4.81,9.78 2.89,13.25 -8.2,3.76 1.61,7.18 -3.6,3.6 -6.8,14.6 -1.11,6.12 -5.82,0.1 -1.45,9.84 -7.14,2.08 -1.87,-5.15 -9.06,0.65 -2.38,-4.9 4.24,-8.5 -4.31,-2.72 -6.92,1.16 -0.89,-6.64 6.04,-6.92 0.53,-7.38 -9.03,-12.79 -5.15,5.32 -7.8,-1.19 -0.64,-4.75 9.95,-5.85 -7.72,-7.5 3.62,-8.92 -10.68,-12.55 3.69,-2.64 -0.23,-5.3 -4.48,-6.72 2.12,-2.75 12.34,2.78 7.27,6.05 1.66,5.97 z"
       id="M41387"
       style="fill:#ffff80;fill-opacity:1;stroke:#000000;stroke-width:1.3222;stroke-dasharray:none;stroke-opacity:1" />
    <path
       d="m 341.56,581.17 -0.41,7.02 -3.44,9.01 3.61,5.2 -1.38,7.16 -5.09,4.39 -0.25,6.11 -10.85,-1.97 -1.86,5.98 -8.15,8.75 -4.08,0.54 -10.87,9.05 2.99,7.12 -1.17,3.01 6.8,9.08 -3,23.22 -4.59,7.66 -2.58,8.79 2.09,4.87 4.82,2.22 -2.06,10.98 4.67,7.97 -2.9,4.28 -6.54,-5.42 -9.86,-4.48 -0.63,-9.34 -12.37,3.37 -6.72,-2.78 -2.11,-5.73 -4.95,-1.25 -1.4,-7.2 -5.18,-6.37 -0.72,-5.29 2.61,-3.47 -2.26,-4.13 -6.51,-3.98 -4.27,-6.49 -5.23,-0.73 -13.94,-8.24 -9.24,-1.92 -15.84,-9.73 0.83,-4.28 -4.5,-4.01 -2.06,-8.56 -10.67,-2.55 4.39,-13.5 -1.49,-4.81 7.54,-6.16 7.84,-2.11 10.51,3.44 7.47,0.63 1.1,-4.1 8.97,-2.86 7.09,5.9 5.87,-3.01 4.52,-5.15 7.29,-0.21 1.09,-11.26 -6.68,-8.33 4.44,-3.35 7.78,-0.02 4.02,-2.48 -0.58,-7.27 8.81,-3.35 6.93,-4.55 8.77,3.71 5.08,-6.44 -0.24,-4.69 8.62,-1.87 6.43,0.68 7.95,-3.55 3.13,-6.65 5.54,-0.94 6.72,1.65 4.72,-6.29 2.79,2.44 -0.2,7.57 4.94,10.85 3.92,2.95 -4.35,12.39 -5.96,1.33 -4.32,3.37 -1.07,7.79 5.39,2.3 z"
       id="M41209"
       style="fill:#ffff80;fill-opacity:1;stroke:#000000;stroke-width:1.3222;stroke-dasharray:none;stroke-opacity:1" />
    <path
       d="m 488.32,507.32 -5.94,-3.55 -7.43,-1.33 -9.65,3.13 -6.22,-1.05 -9.74,-12.83 2.63,-2.47 6.7,1.94 1.55,-4.7 -2.14,-4.35 -6.02,-0.32 -4.9,-8.77 -3.87,2.16 -5.59,-9.38 -7.36,0.06 -4.44,-2.3 -5.22,0.73 -2.6,-4.37 0.56,-5.62 4.64,-3.36 1.23,-4.11 6.61,-0.54 10.4,-7.48 -1.68,-6.92 -10.45,-14.66 -5.08,-11.18 6.3,-6.22 -3.04,-5.64 -11.32,-5.86 -1.79,-8.06 2.57,-2.88 -10.35,-9.71 -4.75,1.83 -5.41,-3.2 0.91,-7.97 -1.83,-2.41 2.86,-6.64 -1.38,-9.32 4.64,-6.46 18.57,-1.69 6.76,2.91 10.51,-1.22 3.24,-2.38 12.64,-1.17 15.29,1.48 11.49,6.77 3.85,7.37 -1.7,9.9 2.78,8.03 5.79,5.74 2.28,15.03 2.84,2.11 5.23,17.15 1.84,8.79 -1.03,6.37 0.81,17.11 -8.81,0.67 -0.85,-5.27 -5.03,0.46 -10.08,5.42 -1.01,6.5 4.8,7.41 -1.98,13.03 3.66,5.06 4.72,11.89 -1.58,4.82 1.09,8.31 5.23,-0.25 0.36,7.24 -3.83,0.26 z"
       id="M41208"
       style="fill:#ffff80;fill-opacity:1;stroke:#000000;stroke-width:1.3222;stroke-dasharray:none;stroke-opacity:1" />
    <path
       d="m 303.86,731.61 2.9,-4.28 -4.67,-7.97 2.06,-10.98 -4.82,-2.22 -2.09,-4.87 2.58,-8.79 4.59,-7.66 3,-23.22 -6.8,-9.08 1.17,-3.01 -2.99,-7.12 10.87,-9.05 4.08,-0.54 8.15,-8.75 1.86,-5.98 10.85,1.97 0.25,-6.11 5.09,-4.39 1.38,-7.16 -3.61,-5.2 3.44,-9.01 0.41,-7.02 9.41,1.94 4.18,-2.54 4.97,0.99 10.09,-0.76 10.11,7.8 7.49,1.66 0.67,6.28 -1.84,16.94 4.32,-0.83 3.71,10.54 4.75,1.13 5.13,9.82 -2.71,7.92 3.23,3.15 -1.11,4.97 4.04,1.56 0.75,4.91 9.05,7.91 2.56,6.73 8.15,4.61 -5.3,5.51 -10.76,7.43 -10.6,3.59 -7.9,6.26 -6.81,3.14 -6.98,5.95 -13.14,4.31 -10.87,7.32 -1.5,15.41 -7.37,8.93 -7.94,1.1 -4.06,6.4 -14.76,2.02 -7.16,-6.91 z"
       id="M41207"
       style="fill:#ffff80;fill-opacity:1;stroke:#000000;stroke-width:1.3222;stroke-dasharray:none;stroke-opacity:1" />
    <path
       d="m 335.93,532.09 -4.72,6.29 -6.72,-1.65 -5.54,0.94 -3.13,6.65 -7.95,3.55 -6.43,-0.68 -8.62,1.87 0.24,4.69 -5.08,6.44 -8.77,-3.71 -6.93,4.55 -8.81,3.35 0.58,7.27 -4.02,2.48 -7.78,0.02 -4.44,3.35 6.68,8.33 -1.09,11.26 -7.29,0.21 -4.52,5.15 -5.87,3.01 -7.09,-5.9 -8.97,2.86 -1.1,4.1 -7.47,-0.63 5.39,-9.82 -0.41,-12.36 -2.84,-4.48 -4.56,-1.99 -1.43,-10.9 -2.52,-3.59 -3.42,-16.27 1.88,-5.14 -4.7,-1.31 -11.99,-10.42 -9.37,3.08 1.06,-13.1 -6.19,-4.41 0.33,-13.4 -5.15,-1.39 -2.27,-4.85 -0.39,-7.06 -4.14,-13.83 -2.92,-3.95 7.16,-4.93 16.99,1.16 3.22,-3.5 6.28,-0.19 5.08,-10.18 8.47,-9.4 2.17,-5.25 5.89,-7.57 8.19,2.81 4.13,-6.69 5.36,-1.19 1.71,-8.39 8.99,-7.7 7.97,-1.51 2.51,-2.7 10.14,-2.83 6.26,1.57 4.64,-3 9.13,1.27 3.14,-2.45 2.2,2.6 -4,15.02 -0.65,12.03 5.37,5.46 -0.9,4.41 12.55,-1.68 7.99,4.98 1.72,4.97 5.65,5.02 7.7,-6.06 6.16,4.99 5.1,-0.78 4.51,3.72 16.58,-1.98 7.73,4.38 -3.22,7.82 -0.25,5.56 -3.85,3.17 -2.79,7.76 6.41,8.89 -1.54,2.66 -9.62,6.7 -4.51,18.08 -10.91,-0.04 -2.78,2.98 4.66,5.43 z"
       id="M41206"
       style="fill:#ffff80;fill-opacity:1;stroke:#000000;stroke-width:1.3222;stroke-dasharray:none;stroke-opacity:1" />
    <path
       d="m 284.88,400.03 -3.14,2.45 -9.13,-1.27 -4.64,3 -6.26,-1.57 -10.14,2.83 -2.51,2.7 -7.97,1.51 -8.99,7.7 -1.71,8.39 -5.36,1.19 -4.13,6.69 -8.19,-2.81 -5.89,7.57 -2.17,5.25 -8.47,9.4 -5.08,10.18 -6.28,0.19 -3.22,3.5 -16.99,-1.16 -7.16,4.93 -6.12,-1.84 -11.89,-0.4 -2.21,-5.13 -4.37,-1.53 -2.6,-7.74 -8.69,-4.46 -6.73,3.21 -11.19,3.12 -11.47,1.27 -5.9,-2.11 -11.74,0.48 -0.48,-7.91 -3.54,0.44 -11.6,-12.69 -7.41,-4.82 -10.8,-11.67 -7.59,-15.6 -8.57,-11.44 -4.87,-1.16 2.58,-6.87 7.51,-26.72 6.69,-12.79 0.75,-3.65 5.5,-5.06 7.22,-4.02 4.81,3.84 9.91,-1.32 3.02,3.08 -4.35,4.5 10.56,20.45 4.39,-0.15 13.38,21.86 0.09,3.5 6.42,6.57 4.58,1.58 1.63,-7.57 6.85,4.04 2.66,-4.67 -6.97,-8.55 -7.65,-4.2 -7.81,0.22 -2.83,-9.78 7.82,0.81 0.03,-8.46 4.9,2.38 0.76,-7.79 5,-5.27 -5.83,-5.4 -7.59,4.11 -2.85,-8.28 2.33,-4.24 4.12,1.14 10.81,-6.08 -3.83,-6.03 6.86,-3.66 -5.4,-2.74 5.57,-6.35 -1.75,-6.79 4.58,-0.84 5.23,-4.8 3.65,-7.36 4.07,-0.02 -2.12,-10.98 4.2,-7.89 -3.95,-1.68 3.16,-0.03 8.08,7.17 7.34,-4.1 -3.36,-7.05 1.55,-12.92 8.98,1.34 13.29,-6.64 1.29,5.83 7.58,5.02 7.28,11.54 -5.52,17.68 8.02,19.42 2.9,5.22 4.2,0.34 5.74,11.68 8.3,3.14 2.79,8.1 3.18,3.31 4.17,13.97 5.33,-6 -4.49,-15.55 0.83,-5.47 6.68,-0.1 4.98,12.06 7.45,5.68 3.8,0.86 2.97,5.07 6.91,1.11 4.25,-1.85 6.14,7.31 9.55,6.66 -0.83,8.1 1.3,6.82 5.62,10.48 5.4,3.34 z"
       id="M41205"
       style="fill:#ffff80;fill-opacity:1;stroke:#000000;stroke-width:1.3222;stroke-dasharray:none;stroke-opacity:1" />
    <path
       d="m 401.72,333.51 -4.64,6.46 1.38,9.32 -2.86,6.64 1.83,2.41 -0.91,7.97 5.41,3.2 4.75,-1.83 10.35,9.71 -2.57,2.88 1.79,8.06 11.32,5.86 3.04,5.64 -6.3,6.22 5.08,11.18 10.45,14.66 1.68,6.92 -10.4,7.48 -6.61,0.54 -5.43,-10.2 -15.7,6.86 -5.37,-0.25 -7.61,8.69 -4.42,1.13 -1.43,5.03 -11.55,-3.57 -1.97,-2.34 -8.44,4.93 -7.73,-4.38 -16.58,1.98 -4.51,-3.72 -5.1,0.78 -6.16,-4.99 -7.7,6.06 -5.65,-5.02 -1.72,-4.97 -7.99,-4.98 -12.55,1.68 0.9,-4.41 -5.37,-5.46 0.65,-12.03 4,-15.02 6.85,3.88 10.4,-10.15 9.23,-2.73 5.1,-4.07 3.94,-6.42 10.63,-3.04 8.31,-8.22 3.75,-6.62 11.61,-2.64 14.38,-12.83 4.53,-2.01 3,-7.56 7.64,-7.76 z"
       id="M41204"
       style="fill:#ffff80;fill-opacity:1;stroke:#000000;stroke-width:1.3222;stroke-dasharray:none;stroke-opacity:1" />
    <path
       d="m 737.28,343.05 -1.41,-7.61 -5.59,-0.86 -3.86,-6.06 0.09,-4.87 -5.13,-4.48 -5.01,3.14 -3.07,-9.54 1.1,-8.01 -3.87,-11.5 -5.82,-5.43 0.24,-3.93 -4.34,-3.77 -3.26,-10.48 1.86,-5.99 -3.4,-3.74 -1.24,-5.04 4.17,-6.38 0.98,-6.48 4.45,-3.5 11.52,-1.67 -0.25,-6.01 4.35,-3.47 5.38,0.74 10.21,4.18 5.88,4.37 4.31,7.99 4.3,4.46 9.19,4.79 5.77,-3.58 12.32,-3.38 6.9,0.47 2.66,9.86 9.07,-0.52 3.08,10.77 0.14,33.27 -1.69,1.34 -4.26,26.52 -4.05,-1.96 -5.09,5.23 -7.21,-0.33 -7.42,-4.25 -5.33,3.46 -1.09,12.02 -6.16,6.54 -9.06,-4.88 -3.29,-3.62 z"
       id="M41203"
       style="fill:#ffff80;fill-opacity:1;stroke:#000000;stroke-width:1.3222;stroke-dasharray:none;stroke-opacity:1" />
    <path
       d="m 22.08,42.76 7.26,0.62 4.82,7.96 -0.48,4.06 -7.02,3.64 -3.04,6.28 L 16.09,65.09 11.11,59.04 1,54.37 8.26,42.74 l 6.44,5.71 2.45,-4.37 z m 84.36,-11.08 -1.98,8.35 -8.95,-1.05 1.69,-4.62 z M 123.85,1 l 1.26,3.26 -2.56,10.22 -2.83,3.45 2.74,7.77 4.5,-0.32 -1.93,10.94 -6.84,-1.3 0.67,-3.31 -6.79,-3.85 -3.64,-5.14 4.24,-9.15 z m 18.26,59.48 7.53,9.28 0.91,9.27 -9.35,9.19 -7.54,0.23 2.33,-7.67 -1.94,-10.4 z m 16.48,-43.36 4.55,2.24 0.12,7.63 -7.99,1.7 -0.99,-8.25 z m -46.8,187.2 6.92,-1.16 4.31,2.72 -4.24,8.5 2.38,4.9 9.06,-0.65 1.87,5.15 7.14,-2.08 1.45,-9.84 5.82,-0.1 1.11,-6.12 6.8,-14.6 3.6,-3.6 -1.61,-7.18 8.2,-3.76 -2.89,-13.25 -4.81,-9.78 -7.82,-2.73 -7.28,-11.13 -4.73,0.18 -7.73,-8.84 -12.23,-3.2 -7.99,-5.02 -0.76,-7.95 3.07,-1.36 5.28,-11.68 -8.34,-5.6 -0.79,-11.41 4.1,-7.2 6.59,2.44 0.4,9.1 6.48,2.32 0.82,3.05 7.45,3.74 8.63,2.21 4.16,-8.78 4.94,0.06 -0.14,-5.34 6.7,-3.75 3.38,4.53 8.17,-4.67 0.86,4.75 4,3.58 5.19,0.31 9.07,-4.65 2.16,0.91 -1.12,10.05 16.35,10.11 6.79,-1.57 3.1,5.49 1.19,9.04 3.41,3.52 8.76,3.7 -4.55,6.82 -6.37,-0.11 -4.83,2.65 -2.08,4.34 -7.39,8.31 1.66,9.87 -8.17,3.72 5.05,8.45 5.2,2.53 8.88,-4.47 3.01,-8.29 5.53,-0.05 5.9,9.19 -4.19,6.42 -6.93,1.65 6.12,9.09 -3.05,1.97 7.63,5.57 14.75,3.06 7.5,4.79 5.8,1.68 17.17,0.82 10.44,-1.8 11.57,-6.61 2.42,-5.48 -4.26,-4.86 -0.88,-4.71 3.79,-4.18 5.55,2.18 5.67,-2.28 9.93,-1.21 7.44,-2.56 5.46,4 15.29,0.57 9.46,-1.39 4.69,-7.21 14.79,0.98 11.69,-0.59 9.02,6.11 3.73,-4.62 5.92,-3.56 8.23,0.68 7.13,5.22 4.84,5.61 1.2,5.1 -4.17,5.32 -0.59,6.26 4.1,2.58 -1.19,7.56 -0.19,16.19 -4.18,9.69 -5.92,1.65 1.72,7.43 10.63,1.03 -5.35,6.46 -8.34,0.28 -1.06,4.19 2.32,6.18 -4.13,6.73 0.66,2.85 -5.57,4.43 -7.23,9.35 -1.93,10.55 5.15,9.23 1.13,14.8 -4.83,6.62 1.91,9.05 -15.27,-1.05 -7.64,7.76 -3,7.56 -4.53,2.01 -14.38,12.83 -11.61,2.64 -3.75,6.62 -8.31,8.22 -10.63,3.04 -3.94,6.42 -5.1,4.07 -9.23,2.73 -10.4,10.15 -6.85,-3.88 -2.2,-2.6 -4.79,-9.7 -5.4,-3.34 -5.62,-10.48 -1.3,-6.82 0.83,-8.1 -9.55,-6.66 -6.14,-7.31 -4.25,1.85 -6.91,-1.11 -2.97,-5.07 -3.8,-0.86 -7.45,-5.68 -4.98,-12.06 -6.68,0.1 -0.83,5.47 4.49,15.55 -5.33,6 -4.17,-13.97 -3.18,-3.31 -2.79,-8.1 -8.3,-3.14 -5.74,-11.68 -4.2,-0.34 -2.9,-5.22 -8.02,-19.42 5.52,-17.68 -7.28,-11.54 -7.58,-5.02 -1.29,-5.83 -13.29,6.64 -8.98,-1.34 -1.55,12.92 3.36,7.05 -7.34,4.1 -8.08,-7.17 -3.16,0.03 6.78,-0.53 -6.02,-5.96 2.87,-2.76 -4.56,-11.58 -4.09,4.86 -12.65,0.95 -14.05,-9.77 -9.3,2.49 -1.67,-3.04 2.85,-11.42 -6.05,-0.55 -3.49,-3.07 -3.75,-9.64 -8.84,-1.18 -0.98,-5.13 -6.05,-3.95 -4.24,1.63 -2.92,-5.35 -5.19,-4.57 1.2,-6.39 5.96,-3.63 12.98,4.87 4.87,-4.55 -2.19,-3.71 -7.66,-2.04 -4.72,-10.33 6.14,-2.74 3.86,-5.36 2.6,-7.86 6.38,7.37 2.62,-4.68 11.08,4.89 -2.94,6.87 2.37,6.13 11.28,4.95 1.54,7.03 -3.96,8.99 6.66,1.73 1.64,5.36 z m 139.63,-39.37 2.43,8.82 -7.74,-0.62 -1.24,-5.52 z m -17.79,-75.61 4.06,6.15 -0.39,5.9 -3.6,5.75 -7.09,1.74 -2.22,-2.33 z"
       fill-rule="evenodd"
       id="M41202"
       style="fill:#ffff80;fill-opacity:1;stroke:#000000;stroke-width:1.3222;stroke-dasharray:none;stroke-opacity:1" />
    <path
       d="m 488.32,507.32 1.28,-5.96 3.83,-0.26 -0.36,-7.24 -5.23,0.25 -1.09,-8.31 1.58,-4.82 -4.72,-11.89 -3.66,-5.06 1.98,-13.03 -4.8,-7.41 1.01,-6.5 10.08,-5.42 5.03,-0.46 0.85,5.27 8.81,-0.67 -0.81,-17.11 1.03,-6.37 -1.84,-8.79 -5.23,-17.15 -2.84,-2.11 -2.28,-15.03 -5.79,-5.74 -2.78,-8.03 1.7,-9.9 -3.85,-7.37 -11.49,-6.77 -15.29,-1.48 -12.64,1.17 -3.24,2.38 -10.51,1.22 -6.76,-2.91 -18.57,1.69 -1.91,-9.05 4.83,-6.62 -1.13,-14.8 -5.15,-9.23 1.93,-10.55 7.23,-9.35 5.57,-4.43 -0.66,-2.85 4.13,-6.73 -2.32,-6.18 1.06,-4.19 8.34,-0.28 5.35,-6.46 -10.63,-1.03 -1.72,-7.43 5.92,-1.65 4.18,-9.69 0.19,-16.19 1.19,-7.56 -4.1,-2.58 0.59,-6.26 4.17,-5.32 -1.2,-5.1 7.11,2.06 6.83,-0.87 5.81,-4.98 0.04,-4.63 5.83,-1.68 3.41,-3.86 7.59,-2.46 17.68,3.73 3.44,1.89 6.59,-2.59 4.79,5.78 5.94,-0.46 2.19,3.52 5.94,0.59 5.11,-6.1 13.55,-4.59 5.56,1.24 11.49,11.06 2.92,0.23 4.68,7 7.34,2.69 7.82,-0.8 2.65,4.62 5.85,-0.75 15.27,9.97 1.37,6.13 3.36,0.74 -0.01,4.28 -5.71,0.84 -3.26,6.74 -3.33,14.55 -7.15,2.25 -7.49,10.52 -5.14,-1.47 -9.12,4.42 -3.87,6.87 -15.81,1.03 -3.07,5.51 1.02,7.01 -2.73,6.27 2.19,5.33 5.86,3.33 5.56,-3.42 6.12,4.01 -0.46,8.62 -4.27,3.46 3.47,5.1 7.82,6.15 -2.36,2.27 6.83,6.99 4.81,-8.09 14.43,-1.95 7.1,4.45 6.45,27.53 -1,4.97 1.23,9.33 2.06,3.97 2.63,13.21 -0.23,9.58 -6.65,1.53 2.72,8.36 2.19,14.47 0.04,11.26 2.89,10.88 -1.29,8.27 1.39,3.58 6.27,-0.22 0.18,-7.06 11.44,-1.34 12.03,-0.13 0.25,15.34 -3.8,5.47 0.52,4.38 8.36,8.22 -0.21,8.36 -2.65,2.66 -14.05,5.61 -6.99,7.1 -12.29,1.13 -2.97,3.89 0.85,19.71 6.47,7.72 6.04,1.77 -1,13.03 3.79,18.66 -0.14,16 -14.94,-1.31 -33.41,-5.4 -18.6,-0.82 -4.53,-11.09 1.75,-6.76 -6.92,-2.49 -0.19,-6.05 -18.51,-13.21 -8.61,-12.12 4.22,-8.2 -1.61,-6.47 -7.49,-0.46 0.29,13.28 -13.22,-2.93 -2.23,2.45 z"
       id="M41201"
       style="fill:#ffff80;fill-opacity:1;stroke:#000000;stroke-width:1.3222;stroke-dasharray:none;stroke-opacity:1" />
    <path
       d="m 482.44,786.5 -1.17,4.64 -7.91,1.86 1.97,-7.97 z m -147.16,-35.25 4.06,-6.4 7.94,-1.1 7.37,-8.93 1.5,-15.41 10.87,-7.32 13.14,-4.31 6.98,-5.95 6.81,-3.14 7.9,-6.26 10.6,-3.59 10.76,-7.43 5.3,-5.51 1.76,18.49 7.44,6.91 3.89,19.83 5.08,2.33 -0.52,6.72 5.91,13.2 -2.33,3.28 4.59,3.39 5.09,-3.61 9.3,6.57 -0.77,7.76 5.86,-0.46 7.41,7.3 2.31,8.23 -0.63,5.55 -10.45,3.37 -3.54,3.32 -9.11,-3.02 -13.68,0.19 -14.29,-3.85 -11.35,1.09 -6.55,-2.53 -5.39,0.68 -5.58,-10.56 -4.98,3.64 -8.09,0.36 -16.34,-4.85 -5.29,0.77 -6.14,-3.54 -7.94,-0.76 -6.15,1.57 -3.05,-6.12 -8.32,-6.57 z"
       fill-rule="evenodd"
       id="M41441"
       style="fill:#ffff80;fill-opacity:1;stroke:#000000;stroke-width:1.3222;stroke-dasharray:none;stroke-opacity:1" />
    <path
       d="m 636.03,230.9 -1.6,6.96 1.38,6.68 5.54,5.1 0.14,5.49 -6.04,11.13 -7.46,0.51 -5.03,6.66 7.19,13.21 4.83,0.48 -1.79,8.46 3.88,6.96 -1.81,3.32 5,15.36 3.1,16.3 -2,21.44 3.66,-0.32 9.65,41.61 4.56,-3.86 4.62,1.26 0.95,13.67 2.54,5.49 7.75,0.7 2.03,8.03 -4.59,10.66 -3.53,2.97 -9.21,1.79 -2.07,-12.44 -8,-1.34 -3,3.7 2.1,9.23 -0.76,4.83 -4.89,5.67 -6.68,-1.1 -4.72,-3.45 -0.25,-15.34 -12.03,0.13 -11.44,1.34 -0.18,7.06 -6.27,0.22 -1.39,-3.58 1.29,-8.27 -2.89,-10.88 -0.04,-11.26 -2.19,-14.47 -2.72,-8.36 6.65,-1.53 0.23,-9.58 -2.63,-13.21 -2.06,-3.97 -1.23,-9.33 1,-4.97 -6.45,-27.53 -7.1,-4.45 -14.43,1.95 -4.81,8.09 -6.83,-6.99 2.36,-2.27 -7.82,-6.15 -3.47,-5.1 4.27,-3.46 0.46,-8.62 -6.12,-4.01 -5.56,3.42 -5.86,-3.33 -2.19,-5.33 2.73,-6.27 -1.02,-7.01 3.07,-5.51 15.81,-1.03 3.87,-6.87 9.12,-4.42 5.14,1.47 7.49,-10.52 7.15,-2.25 3.33,-14.55 3.26,-6.74 5.71,-0.84 0.01,-4.28 5.65,-0.49 10.31,14.06 7.67,-1.98 7.05,2.02 4.7,3.58 z"
       id="M41210"
       style="fill:#ffff80;fill-opacity:1;stroke:#000000;stroke-width:1.3222;stroke-dasharray:none;stroke-opacity:1" />
    <path
       d="m 157.45,470.7 2.92,3.95 4.14,13.83 0.39,7.06 2.27,4.85 5.15,1.39 -0.33,13.4 6.19,4.41 -1.06,13.1 9.37,-3.08 11.99,10.42 -4.94,2.5 -5.61,-0.9 -10.22,4.74 -6.18,-2.53 -5.57,4.84 -7.17,0.19 -3.55,-2.13 -7.01,4.23 -2.04,-6.29 -7.06,-0.69 -9.57,-8.37 -11.54,-2.2 -4.27,-6.43 -10.57,-0.61 -5.51,3.16 -7.15,-3.44 -2.34,-3.13 -10.6,-5.73 -0.15,-9.2 -2.87,-7.52 -4.06,-4.47 -3.12,-10.49 2.69,-8.87 3.46,-3.07 -3.15,-10.9 4.16,-7.15 11.74,-0.48 5.9,2.11 11.47,-1.27 11.19,-3.12 6.73,-3.21 8.69,4.46 2.6,7.74 4.37,1.53 2.21,5.13 11.89,0.4 z"
       id="M41401"
       style="fill:#ffff80;fill-opacity:1;stroke:#000000;stroke-width:1.3222;stroke-dasharray:none;stroke-opacity:1" />
    <path
       d="m 341.56,581.17 -4.49,1.91 -5.39,-2.3 1.07,-7.79 4.32,-3.37 5.96,-1.33 4.35,-12.39 -3.92,-2.95 -4.94,-10.85 0.2,-7.57 -2.79,-2.44 -1.74,-5.97 -4.66,-5.43 2.78,-2.98 10.91,0.04 4.51,-18.08 9.62,-6.7 6.94,2.62 0.71,-6.15 5.22,-1.56 -0.23,7.61 15.32,7.86 3.65,-2.62 -2.11,-8.9 7.04,-3.28 5.86,3.08 0.84,3.57 -5.83,3.4 2.76,5.47 5.71,-0.06 10.01,3.43 5.57,4.98 7.43,-4.27 -1.14,-9.36 3.52,-3.38 8.74,3.44 5.76,-1.68 6.22,-5.48 9.74,12.83 6.22,1.05 9.65,-3.13 7.43,1.33 5.94,3.55 1.38,0.87 1,10.57 -9.94,21.68 -31.95,22.54 2.13,5.31 -23.33,14.1 -18.88,20.37 -20.25,-6.22 -0.67,-6.28 -7.49,-1.66 -10.11,-7.8 -10.09,0.76 -4.97,-0.99 -4.18,2.54 z"
       id="M41425"
       style="fill:#ffff80;fill-opacity:1;stroke:#000000;stroke-width:1.3222;stroke-dasharray:none;stroke-opacity:1" />
    <path
       d="m 424.51,446.83 -1.23,4.11 -4.64,3.36 -0.56,5.62 2.6,4.37 5.22,-0.73 4.44,2.3 7.36,-0.06 5.59,9.38 3.87,-2.16 4.9,8.77 6.02,0.32 2.14,4.35 -1.55,4.7 -6.7,-1.94 -2.63,2.47 -6.22,5.48 -5.76,1.68 -8.74,-3.44 -3.52,3.38 1.14,9.36 -7.43,4.27 -5.57,-4.98 -10.01,-3.43 -5.71,0.06 -2.76,-5.47 5.83,-3.4 -0.84,-3.57 -5.86,-3.08 -0.8,-6.04 3.6,-2.49 -7.62,-7.08 -4.52,-14.85 1.43,-5.03 4.42,-1.13 7.61,-8.69 5.37,0.25 15.7,-6.86 z"
       id="M41424"
       style="fill:#ffff80;fill-opacity:1;stroke:#000000;stroke-width:1.3222;stroke-dasharray:none;stroke-opacity:1" />
    <path
       d="m 357.35,492.97 1.54,-2.66 -6.41,-8.89 2.79,-7.76 3.85,-3.17 0.25,-5.56 3.22,-7.82 8.44,-4.93 1.97,2.34 11.55,3.57 4.52,14.85 7.62,7.08 -3.6,2.49 0.8,6.04 -7.04,3.28 2.11,8.9 -3.65,2.62 -15.32,-7.86 0.23,-7.61 -5.22,1.56 -0.71,6.15 z"
       id="M41423"
       style="fill:#ffff80;fill-opacity:1;stroke:#000000;stroke-width:1.3222;stroke-dasharray:none;stroke-opacity:1" />
  </g>
</svg>
