<?xml version="1.0" encoding="UTF-8" standalone="no"?>
<svg
   version="1.2"
   width="628.17102"
   height="599.99994"
   viewBox="0 0 628.17102 599.99994"
   stroke-linecap="round"
   stroke-linejoin="round"
   id="svg7073"
   sodipodi:docname="sm.svg"
   inkscape:version="1.2 (dc2aedaf03, 2022-05-15)"
   xmlns:inkscape="http://www.inkscape.org/namespaces/inkscape"
   xmlns:sodipodi="http://sodipodi.sourceforge.net/DTD/sodipodi-0.dtd"
   xmlns="http://www.w3.org/2000/svg"
   xmlns:svg="http://www.w3.org/2000/svg">
  <defs
     id="defs7077" />
  <sodipodi:namedview
     id="namedview7075"
     pagecolor="#505050"
     bordercolor="#eeeeee"
     borderopacity="1"
     inkscape:showpageshadow="0"
     inkscape:pageopacity="0"
     inkscape:pagecheckerboard="0"
     inkscape:deskcolor="#505050"
     showgrid="false"
     inkscape:zoom="0.97674047"
     inkscape:cx="115.69092"
     inkscape:cy="181.21497"
     inkscape:window-width="1920"
     inkscape:window-height="1009"
     inkscape:window-x="-8"
     inkscape:window-y="-8"
     inkscape:window-maximized="1"
     inkscape:current-layer="svg7073" />
  <g
     id="sm"
     transform="matrix(0.81489946,0,0,0.81489946,-0.31492285,-350.67279)"
     style="fill:#ffff80;fill-opacity:1;stroke:#000000;stroke-width:1.22715;stroke-dasharray:none;stroke-opacity:1">
    <path
       d="m 690.49,649.27 0.55,7.03 8.8,-2.8 4.18,3.45 1.79,4.15 -1.18,4.17 3.03,1.65 2.91,8.66 -1.42,4.07 -3.57,3.32 -6.16,1.9 -2.22,2.47 -4.04,0.17 -4.2,5.19 -1.44,4.57 0.62,4.57 -2.95,3.64 2.46,6.78 -2.68,3.03 -1.46,6.43 2.14,3.32 -0.22,4.09 -6.62,-0.71 -2.04,-4.03 -5.05,-0.9 -2.1,1.82 -4.92,-1.72 -5.02,4.09 -6.47,-2.3 -5.34,0.65 -3.54,6.17 -4.16,1.49 -4.79,-0.36 -4.27,-5.4 -3.49,-0.37 -0.83,-5.25 -6.74,-5.42 -8.23,-0.21 -3.46,8.17 -12.72,4.21 -6.51,-4.63 -3.24,1.59 -7.96,-2.9 -3.09,-5.88 -4.69,-4.83 2.14,-10.34 5.29,-2.35 0.85,-3.27 -5,-3.52 -0.74,-4.13 6.01,-4.04 2.12,2.24 4.91,0.66 9.1,-4.48 1.2,-3.16 -2.01,-7.29 1.72,-3.5 -2.09,-4.34 -0.1,-6.94 3.82,-2.86 -0.12,-4.27 2.16,-2.57 4.6,-0.18 -1.72,-4.03 0.53,-7.32 -1.87,-4.42 11.47,-2.08 20.41,2.23 1.76,-1.8 7.17,2.47 12.3,-3.02 8.65,-0.11 3.89,5.6 3.92,2.32 -2.69,7.54 2.06,4.82 7.35,2.86 9.59,-1.19 z"
       id="M32343"
       style="fill:#ffff80;fill-opacity:1;stroke:#000000;stroke-width:1.22715;stroke-dasharray:none;stroke-opacity:1" />
    <path
       d="m 208.32286,472.48295 3.21,6.54 4.22,4.82 9.01,2.6 5.93,8.46 2.72,-1.91 2.21,4.63 7.63,7.78 3.39,1.27 2.96,4.26 4.31,2.71 2.85,5.16 -5.81,9.54 0.19,4.63 2.15,7.13 -2.68,4.61 -0.87,9.14 -7.16,2.33 -1.18,2.98 -4.84,-1.7 3.58,-3.7 -2.04,-4.84 -4.69,7.2 -9.97,-0.9 0.7,2.87 9.62,1.24 1.66,15.87 -6.44,1.32 -11.56,-5.37 -5.56,1.32 -5.53,-4.04 0.62,6.78 -20.01,0.4 1.68,-8.28 2.92,-3.95 -9.66,1.01 -7.2,-5.57 -0.44,-6.83 -7.18,-2.71 -3.17,-0.03 -0.81,-5.24 3.29,-3.97 0.91,-8.51 -2.03,-2.27 -4.91,-0.22 -0.52,-3.55 4.55,-6.7 0.72,-8.29 3.87,-9.14 6.66,-1.8 -0.22,-5.71 6.76,-1.49 3.32,-3.4 -2.74,-2.26 3.55,-3.19 6.46,-3.24 4.17,4.03 3.24,-0.29 7.73,-7.27 z"
       id="M32528"
       style="fill:#ffff80;fill-opacity:1;stroke:#000000;stroke-width:1.22715;stroke-dasharray:none;stroke-opacity:1" />
    <path
       d="m 80.232858,654.01295 13.92,2.28 4.32,5.64 8.150002,4.84 1.69,8.28 -11.010002,-7.11 -10.18,1.32 -5.04,2.37 -0.81,-9.74 -3.06,-4.7 z"
       id="M32527"
       style="fill:#ffff80;fill-opacity:1;stroke:#000000;stroke-width:1.22715;stroke-dasharray:none;stroke-opacity:1" />
    <path
       d="m 110.34286,590.80295 3.73,-0.08 5.93,4.85 -4.67,7.72 -7.26,3.53 -10.640002,2.19 -1.31,2.73 2.48,6.36 2.420002,-0.57 3.2,7.43 -3.05,2.47 0.32,7.38 -6.210002,2.11 -7.26,-0.9 -4.9,-6.54 -2.84,-8.7 -6.52,-1 -0.96,4.03 -5.87,1.01 7.85,15.33 -0.33,2.66 3.52,4.68 -4.85,0.52 -1.82,-3.41 -5.28,-2.08 -0.7,-2.71 -8.98,-1.92 -3.66,-2.43 2.07,-4.54 -1.49,-3.99 6.02,-7.09 5.6,-9.17 6.39,-4.75 9.46,2.46 2.96,-2.03 -0.13,-11.66 3.45,0.74 4.99,-1.78 5.75,1.94 1.81,2.81 3.900002,-0.22 z"
       id="M32526"
       style="fill:#ffff80;fill-opacity:1;stroke:#000000;stroke-width:1.22715;stroke-dasharray:none;stroke-opacity:1" />
    <path
       d="m 130.30286,603.71295 4.06,2.75 6.58,7.6 -4.41,2.43 0.57,4.2 -4,5.24 8.47,-1.65 -2.71,6.28 -7.32,-3.29 0.06,7.35 -3.59,0.94 -5.17,8.84 -4.26,1.78 -4.59,5.3 -4.51,-2.86 1.96,-5.55 -0.98,-4.36 4.01,-7.74 -6.81,-14.64 8.12,-3.08 -0.19,-3.84 4.24,-0.42 1.66,-3.56 4.83,0.18 z"
       id="M32525"
       style="fill:#ffff80;fill-opacity:1;stroke:#000000;stroke-width:1.22715;stroke-dasharray:none;stroke-opacity:1" />
    <path
       d="m 654.06,630.1 -12.3,3.02 -7.17,-2.47 -1.76,1.8 -20.41,-2.23 -11.47,2.08 1.87,4.42 -0.53,7.32 1.72,4.03 -4.6,0.18 -2.16,2.57 0.12,4.27 -3.82,2.86 0.1,6.94 2.09,4.34 -1.72,3.5 2.01,7.29 -1.2,3.16 -9.1,4.48 -4.91,-0.66 -2.12,-2.24 -6.01,4.04 0.74,4.13 5,3.52 -0.85,3.27 -5.29,2.35 -2.14,10.34 -4.29,0.1 -10.32,5.19 -0.72,1.93 -8.33,-10.25 -4.06,3.35 -9.05,-0.19 -1.73,-14.64 -9.18,0.04 -7.67,5.11 -1.97,5.17 -5.46,-0.61 -1.93,-2.31 -3.9,2.59 -2.85,-4.86 -6.12,-2.49 -5.33,0.83 0.69,-4.08 -2.26,-1.94 0.11,-4.66 -3.83,-3.01 -1.01,-7.42 4.24,-0.01 3.53,-5.56 7.78,1.66 3.43,-7.95 3.72,-0.13 3.35,-7.95 3.03,-1 1.47,-7.49 -1.78,-2.95 0.53,-4.91 5.83,-2.75 3.8,-7.6 3.6,-1.58 0.55,-4.25 -3.09,-4.84 2.61,-3.59 1.17,-5.76 4.8,-5.25 4.33,-0.61 -0.93,-4.78 5.38,-1.18 8.54,0.69 -2.55,-8.8 1.58,-2.85 10.59,-1.7 3.9,-5.53 -3.95,-4.82 2.65,-4.26 -1.65,-3.96 8.41,-11.54 9.25,1.82 2.38,-3 7.98,5.52 1.11,-4.25 6.48,-1.48 4.68,2.42 9.83,1.69 1.52,-1.07 9.86,1.22 3.95,1.45 2.41,-6.41 4.85,-0.26 6.12,2.22 6.14,0.24 0.73,4.19 -2.15,3.62 0.02,4.32 3.85,7.68 5.39,5.72 -1.06,21.26 1.78,0.97 -0.57,6.84 3.63,8.45 -1.22,4.76 z"
       id="M32209"
       style="fill:#ffff80;fill-opacity:1;stroke:#000000;stroke-width:1.22715;stroke-dasharray:none;stroke-opacity:1" />
    <path
       d="m 333.59,772.94 2.08,2.9 2.46,8.45 9.29,3.25 5.66,-2.22 1.31,4.21 4.27,2.47 7.24,0.27 3.94,4.29 1.58,4.62 -2.85,-0.79 -8.52,2.61 -2.54,2.52 -3.02,7.72 -7.72,-0.39 -6.45,-5.19 -6.58,0.81 -2.49,-3.12 -4.91,0.43 -1.38,4.13 -6.24,4.41 -2.38,3.02 -10.63,1.88 -6.25,4.63 -0.9,7.1 -3.42,-0.79 -5.97,-6.08 -5.17,0.07 -1.32,4.42 -4.69,0.22 -2.67,-2.07 2.28,-4.27 -2.22,-4.33 -3.49,-0.37 -1.09,-6.32 -3.22,-3.43 -5.77,5.76 -0.62,4.35 -5.98,0.19 -11.35,-6.07 1.67,-10.72 -3.23,-3.77 -3.88,3.79 -6.91,0.76 -3.2,-2.76 -3.73,2.71 -2.66,-6.46 0.39,-3.31 4.85,-7.06 6.61,-3.37 9.43,-6.77 2.9,-4.22 14.06,-13.22 4.93,-5.41 7.53,-1.93 7.76,-0.75 16.05,-7.73 4.85,-6.36 4.43,7.04 3.21,-1.42 3.93,2.99 2.36,-1.05 5.7,3.92 0.68,4.7 2.74,1.37 -1.33,6.38 3.49,8.44 4.86,1.19 z m -32.39,-37.38 0.03,0.02 0.01,0.01 0.02,0.03 z"
       fill-rule="evenodd"
       id="M32207"
       style="fill:#ffff80;fill-opacity:1;stroke:#000000;stroke-width:1.22715;stroke-dasharray:none;stroke-opacity:1" />
    <path
       d="m 690.49,649.27 -3.66,2.67 -9.59,1.19 -7.35,-2.86 -2.06,-4.82 2.69,-7.54 -3.92,-2.32 -3.89,-5.6 -8.65,0.11 -1.29,-3.17 1.22,-4.76 -3.63,-8.45 0.57,-6.84 -1.78,-0.97 1.06,-21.26 8.29,-5.69 3.64,-5.65 8.19,-5.65 5.55,-0.49 7.97,-6.69 0.63,-3.06 5.61,-3.58 3.82,-0.59 4.39,-2.93 4.53,-5.19 1.73,-11.83 4.34,-7.35 3.23,-1.4 2.88,-5.87 10.9,-2.85 5.46,3.21 6.59,0.63 0.68,5.23 3.63,-1 3.2,2.3 4.26,-0.28 6.16,2.71 2.69,-0.51 5.37,3.51 5.48,8.51 -0.24,7.01 -3.48,4.65 4.71,5.66 0.21,2.26 -3.8,4.54 -3.4,-0.57 -5.86,9.75 -0.22,11.68 -1.37,4.63 6.63,9.83 -3.43,6.38 3.6,5.9 0.91,6.68 -3.11,4.02 -4.99,1.33 -4.44,-0.93 -3.26,2.62 -10.82,-0.85 -3.96,5.02 -7.08,2.09 -1.2,-1.57 -6.31,4.48 -2.65,-0.21 -11.47,4.33 z"
       id="M32206"
       style="fill:#ffff80;fill-opacity:1;stroke:#000000;stroke-width:1.22715;stroke-dasharray:none;stroke-opacity:1" />
    <path
       d="m 333.59,772.94 -2.24,-3.73 -4.86,-1.19 -3.49,-8.44 1.33,-6.38 -2.74,-1.37 -0.68,-4.7 -5.7,-3.92 -2.36,1.05 -3.93,-2.99 -3.21,1.42 -4.43,-7.04 2.51,-5.38 3.19,-0.85 -0.44,-8.31 5.28,-6.63 7.72,-2.85 9.1,-10.96 5.65,-1.01 1.95,-2.4 0.34,-8.13 1.42,-5 5.22,-2.95 -0.58,-5.45 6.39,-4.38 -0.27,-3.58 2.35,-3.07 5.19,-0.97 8.51,-4.76 6.69,-5.75 1.13,-4.63 7.16,-1.89 4.16,-5.49 2.89,1.54 4.54,-5.07 9.03,-3.15 0.02,-3.92 5.95,-5.03 16.13,-8.25 0.04,0.03 0.14,0.1 h 0.02 l 0.03,0.02 1.72,4.41 0.83,8.02 1.64,2.33 -2.2,6.76 4.76,3.59 4.82,6.09 3.76,-0.13 5.38,4.95 2.71,-0.12 2.25,3.83 3.66,-0.2 3.64,-4.53 6.15,6.22 0.7,4.63 2.41,3.21 -0.03,8.71 -5.88,5.53 -2.21,6.55 -5.17,1.48 -2.77,2.87 0.68,3.76 8.57,6.46 2.02,3.34 7.41,0.21 -3.93,5.86 2.24,2.56 -4.49,7.04 -7.95,-1.74 -5.12,-2.85 -3.79,4.26 -5.77,-1.31 2.5,-7.48 -4.53,-5.6 -4.84,1.55 -3.04,-3.75 -5.07,1.33 -8.79,-0.32 -5.21,-2.52 -10.76,9.17 -0.03,1.86 -11.29,4.78 -3.85,-2.42 -8.19,13.68 5.12,6.45 -0.75,2.99 -4.07,5.28 -0.99,7.64 -6.92,5.54 -0.31,5.13 -5.29,-3.79 -4.24,3.11 -6.63,-1.07 -6.2,0.71 -3.3,3.98 -6.29,1.58 z"
       id="M32205"
       style="fill:#ffff80;fill-opacity:1;stroke:#000000;stroke-width:1.22715;stroke-dasharray:none;stroke-opacity:1" />
    <path
       d="m 106.06,906.62 1.6,3.17 7.31,1.55 7.31,3.07 2.59,7.18 4.83,-0.47 1.3,7.31 4.65,2.09 4.3,-0.02 3.32,2.87 6.69,-0.21 9.6,1.01 2.72,5.3 2.66,2.04 4.17,-2.88 3.91,-0.21 -1.37,-5.78 4.89,-0.74 11.12,6.38 6.55,0.74 4.09,-4.2 6.71,-3.57 3.5,3.93 3.1,-1.67 4.45,3.88 0.6,3.22 5.81,4.73 6.02,0.7 1.66,2.6 -2.63,6.29 -9.75,18 -3.57,3.32 1.91,3.17 -6.41,12.49 1.66,6.14 4.2,2.92 -1.93,6.96 -3.56,2.74 0.54,3.19 -2.46,5.66 -6.3,4.24 -7.54,9.91 -3.66,0.34 -10.86,3.76 -2.27,4.95 -0.33,5.08 -4.96,6.32 7.32,1.33 3.51,3.74 -1.07,3.19 4.52,8.24 -5.57,2.37 -2.54,-3.69 -4.3,-0.51 -11.26,4.49 -4.07,4.28 -0.54,3.32 -4.96,1.93 -2.18,-4.76 1.85,-2.84 0.11,-5.12 -5.16,-1.08 -4.85,1.96 -3.01,-3.64 1.61,-3.24 -2.32,-4.3 0.28,-7.95 -4.23,-6.24 h -2.78 l -3.9,4.49 -9.97,-2.22 -0.75,-2.34 -6.8,-4.67 1.42,-6.02 -1.62,-3.26 3.61,-7.54 3.14,-0.61 3.12,-4.45 -5.45,-6.47 3.47,-2.56 -4.54,-3.48 -4.05,0.96 -0.47,-8.73 -3.67,-0.87 -4.23,2.97 -2.82,-1.44 -3.92,2.54 -2.3,5.15 -1.22,7.08 -4.58,-1.54 -4.34,0.64 -5.78,-2.52 -2.58,-2.99 -5.03,2.29 -3.77,-3.85 -8.54,0.29 -10.04,4.67 -3.93,5.09 -4.51,-0.26 -5.11,4.43 -6.2,-6.15 1.36,-2.35 -3.02,-3.31 -1.82,-13.53 0.69,-4.19 -5.46,0.29 -5.5,-4.4 1.6,-6.27 0.28,-9.65 -4.18,-8.03 -2.52,-2.3 3.03,-5.63 6.51,2.53 16.12,-1.11 10.61,-2.49 9.78,-3.87 12.66,-3.53 8.33,-4.17 9.49,-6.67 3.31,-4.96 3.84,-2.7 3.13,-5.2 -0.91,-6.47 -2.16,-5.55 5.2,-2.54 4.77,1.75 z"
       id="M32204"
       style="fill:#ffff80;fill-opacity:1;stroke:#000000;stroke-width:1.22715;stroke-dasharray:none;stroke-opacity:1" />
    <path
       d="m 565.81,559.01 -8.41,11.54 1.65,3.96 -2.65,4.26 3.95,4.82 -3.9,5.53 -10.59,1.7 -1.58,2.85 2.55,8.8 -8.54,-0.69 -5.38,1.18 0.93,4.78 -4.33,0.61 -4.8,5.25 -1.17,5.76 -2.61,3.59 3.09,4.84 -0.55,4.25 -3.6,1.58 -3.8,7.6 -5.83,2.75 -0.53,4.91 1.78,2.95 -1.47,7.49 -3.03,1 -3.35,7.95 -3.72,0.13 -3.43,7.95 -7.78,-1.66 -3.53,5.56 -4.24,0.01 -4.92,-0.22 -1,-4.83 -6.25,-2.32 -3.83,2.36 0.03,-8.71 -2.41,-3.21 -0.7,-4.63 -6.15,-6.22 -3.64,4.53 -3.66,0.2 -2.25,-3.83 -2.71,0.12 -5.38,-4.95 -3.76,0.13 -4.82,-6.09 -4.76,-3.59 2.2,-6.76 -1.64,-2.33 -0.83,-8.02 -1.72,-4.41 10.45,-2.36 8.2,-2.74 6,-3.93 6.81,-7.99 5.92,-9.67 3.05,-6.85 4.12,-13.7 1.54,-9.81 0.05,-8.66 -1.43,-7.56 -12.58,-8.87 -10.17,-1.33 2.22,-8.25 6.23,0.97 0.7,-4.25 7.46,-3.37 4.51,0.07 7.75,-4.08 7.65,1.76 2.2,3.69 7.49,-2.68 14.5,-0.4 1.71,-4.85 -11.89,-7.59 7.39,-1.59 12.92,-4.8 11.67,-1.67 2.82,-5.46 4.94,-3.1 4.13,0.56 2.37,-4.31 5.07,1.05 2.39,-1.87 6.06,-0.44 4.3,-2.08 9.44,0.19 6.26,-0.79 1.75,7.18 -0.7,5.83 3.47,13.99 -4.33,3.02 -7.88,-1.26 -6.87,2.08 -2.49,3.98 2.26,4.09 4.48,2.61 -1.47,5.27 2.78,2.64 1.86,5.1 3.98,2.26 -3.96,5.44 -5.22,1.79 -0.05,7.2 3.9,3.92 z"
       id="M32203"
       style="fill:#ffff80;fill-opacity:1;stroke:#000000;stroke-width:1.22715;stroke-dasharray:none;stroke-opacity:1" />
    <path
       d="m 222.31,792.47 -0.39,3.31 2.66,6.46 3.73,-2.71 3.2,2.76 6.91,-0.76 3.88,-3.79 3.23,3.77 -1.67,10.72 11.35,6.07 5.98,-0.19 0.62,-4.35 5.77,-5.76 3.22,3.43 1.09,6.32 3.49,0.37 2.22,4.33 -2.28,4.27 2.67,2.07 4.69,-0.22 1.32,-4.42 5.17,-0.07 5.97,6.08 3.42,0.79 0.85,5.32 7.43,5.03 6.06,9.3 5.52,2 6.82,-2.48 7.02,2.66 1.52,5.22 4.23,7.08 -1.29,1.96 0.01,7.4 -3.25,4.84 -0.18,9.04 -4.64,-3.64 -9.63,1.79 -2.58,2.61 -6.04,1.93 -4.14,-1.43 -4.21,-5.01 -4.62,4.57 -3.36,9.24 -4.23,-0.78 -4.65,-3.39 -0.45,-7.43 -8.8,-5.27 -7.83,0.08 0.03,12.99 -4.68,6.01 -3.53,1.77 0.74,3.05 -1.99,8.41 -5.86,2.74 -3.03,-2.24 -3.57,2.48 0.39,3.32 -5.51,2.7 -3.17,-1.6 -3.07,3.91 -13.08,7.73 -0.74,3.39 -4.99,1.14 -4.45,-3.88 -3.1,1.67 -3.5,-3.93 -6.71,3.57 -4.09,4.2 -6.55,-0.74 -11.12,-6.38 -4.89,0.74 1.37,5.78 -3.91,0.21 -4.17,2.88 -2.66,-2.04 -2.72,-5.3 -9.6,-1.01 -6.69,0.21 -3.32,-2.87 -4.3,0.02 -4.65,-2.09 -1.3,-7.31 -4.83,0.47 -2.59,-7.18 -7.31,-3.07 -7.31,-1.55 -1.6,-3.17 1.49,-7.49 8.01,0.91 1.05,-5.32 4.01,0.6 4.46,-4.19 5.49,-1.87 4.9,-13.68 7.11,-3.34 1.57,1.13 6.61,-4.28 2.4,-7.77 5.89,-2.71 3.37,-6.69 -3.43,-3.6 4.76,-3.77 3.73,0.07 4.52,-5.71 3.9,5.59 5.81,-0.47 -1.2,-5.66 1.53,-3.37 3.67,-1.91 -0.9,-6.73 9.5,-13.75 5.02,-3.51 2.21,1.05 4.2,-4.05 -1.59,-3.11 2.62,-2.89 7.88,-2.75 z"
       id="M32202"
       style="fill:#ffff80;fill-opacity:1;stroke:#000000;stroke-width:1.22715;stroke-dasharray:none;stroke-opacity:1" />
    <path
       d="m 298.56,830.95 0.9,-7.1 6.25,-4.63 10.63,-1.88 2.38,-3.02 6.24,-4.41 1.38,-4.13 4.91,-0.43 2.49,3.12 6.58,-0.81 6.45,5.19 7.72,0.39 3.02,-7.72 2.54,-2.52 8.52,-2.61 2.85,0.79 7.07,1.64 6.71,-2.42 4,4.03 5.85,0.37 2.47,-3.34 -0.6,-4.58 3.65,-2.47 6.02,-0.76 5.13,2.39 0.53,5.39 4.48,-2.22 -0.57,-5.05 4.82,-3.87 5.47,14.89 4.13,1.81 0.06,6.42 6.16,-2.99 4.78,0.93 3.97,5.86 3.84,1.6 0.54,7.22 1.56,3.53 6.44,-1.21 5.94,6.21 4.89,-2.65 3.24,5.71 8.51,1.2 1.05,1.34 3.95,16.99 -7.73,3.58 -2.02,-3.82 -6.72,1.52 -3.58,8.68 -3.57,-0.04 -5.7,-4.38 -2.08,1.37 -5.51,-3.1 -5.36,-0.21 -15.7,11.6 -2.64,4.04 -5.45,2.91 -0.21,2.37 -6.46,-0.98 -7.55,7.51 -8.06,-4.89 -7.13,4.32 -4.71,-3.07 -5.33,2.43 -5.37,-2.89 -2.88,0.34 -9.58,-6.6 -3.98,-4.32 -3.11,3.81 -4.07,1.38 1.65,7.18 -4.75,1.09 -7.38,7.82 -5.19,0.34 -2.81,-1.75 0.77,-5.07 0.18,-9.04 3.25,-4.84 -0.01,-7.4 1.29,-1.96 -4.23,-7.08 -1.52,-5.22 -7.02,-2.66 -6.82,2.48 -5.52,-2 -6.06,-9.3 -7.43,-5.03 z"
       id="M32449"
       style="fill:#ffff80;fill-opacity:1;stroke:#000000;stroke-width:1.22715;stroke-dasharray:none;stroke-opacity:1" />
    <path
       d="m 650.21,584.65 -5.39,-5.72 -3.85,-7.68 -0.02,-4.32 2.15,-3.62 -0.73,-4.19 -6.14,-0.24 -6.12,-2.22 -4.85,0.26 -2.41,6.41 -3.95,-1.45 -9.86,-1.22 -1.52,1.07 -9.83,-1.69 -4.68,-2.42 -6.48,1.48 -1.11,4.25 -7.98,-5.52 -2.38,3 -9.25,-1.82 0.69,-3.15 -3.9,-3.92 0.05,-7.2 5.22,-1.79 3.96,-5.44 3.1,3.17 5.71,-3.82 2.26,0.89 10.18,-6.13 5.46,0.64 9.08,-1.12 4.39,-4.29 7.49,0.8 4.59,-4.71 4.45,1.81 7.95,-1.19 3.49,-3.36 4.56,-10.41 -0.61,-3.93 -6.34,1.84 -6.97,-4.66 -7.14,-1.39 -5.67,1.02 -11.01,-4 -13.79,3.43 -13.5,5.62 -3.47,-13.99 0.7,-5.83 -1.75,-7.18 6.8,-2.97 11,1.15 6.19,-1.77 4.68,2 4.69,-3.33 -2.96,-4.78 1.43,-8.93 8.37,-0.26 11.49,3 6.56,-0.24 0.16,-5.72 2.29,-3.2 4.83,1.35 7.68,-7.82 -0.13,-2.51 -4.5,-1.65 4.01,-4.43 4.31,-0.95 11.09,3 -0.43,-5.62 2.37,-6.1 8.26,2.93 -1.05,2.89 4.68,6.06 4.87,1.52 3.96,8.43 6.97,0.19 2.43,-6.48 3.23,4.91 7.05,-2.29 1.57,-5.94 2.59,-1.37 2.72,5.93 5.82,1.52 2.21,-1.66 0.9,-5.8 3.71,2.68 8.8,2.92 3.47,-2.94 4.9,0.4 2.33,-2.22 9.12,2.41 2.89,-1.29 4.63,2 1.81,-1.66 3.96,3.68 1.48,4.06 -8.86,3.02 -0.98,-0.9 -10.8,1.96 -4.51,-0.11 -9.76,3.14 -6.65,-0.3 -6.43,1.69 -7.88,6.62 -3.36,5.25 -3.06,-0.81 -3.59,-4.11 -5.96,2.61 7.61,4.04 1.68,3.46 5.28,-1.98 2.9,6.01 -5.31,2.25 -2,12.12 -11.06,-2.91 -2.25,-2.22 1.71,-7.42 6.85,2.41 4.75,-0.62 1.9,-5.15 -2.82,-2.12 -2.15,-3.99 -6.86,-3.48 -3.26,-4 -4.39,7.6 -4.5,2.42 -4.05,5.62 0.17,3.42 3.23,6.76 -2.11,3.53 5.3,4.35 -2.36,5.01 -5.42,2.11 -1.24,4.09 1.44,4.16 4.96,0.14 11.74,2.29 5.62,6.52 4.47,2.45 2.68,-0.8 -4.34,7.35 -1.73,11.83 -4.53,5.19 -4.39,2.93 -3.82,0.59 -5.61,3.58 -0.63,3.06 -7.97,6.69 -5.55,0.49 -8.19,5.65 -3.64,5.65 z"
       id="M32201"
       style="fill:#ffff80;fill-opacity:1;stroke:#000000;stroke-width:1.22715;stroke-dasharray:none;stroke-opacity:1" />
    <path
       d="m 380.05,738.99 0.75,-2.99 -5.12,-6.45 8.19,-13.68 3.85,2.42 11.29,-4.78 0.03,-1.86 10.76,-9.17 5.21,2.52 8.79,0.32 5.07,-1.33 3.04,3.75 4.84,-1.55 4.53,5.6 -2.5,7.48 5.77,1.31 3.79,-4.26 5.12,2.85 7.95,1.74 5.29,6.39 8.34,3.2 5.01,4.48 2.72,4.68 5.91,0.12 0.51,3.98 -2.76,6.58 2.1,2.78 -1.52,6.18 -6.04,-1.28 -2.58,-2.51 -8.26,7.39 -1.34,2.97 -4.79,1.27 -0.47,7.71 2.11,1.68 -5.05,6.11 -0.06,7.12 6.07,2.53 6.21,-1.54 -0.7,4.17 1.55,5.18 -4.26,10.08 -4.13,1.12 -2.9,4.27 -4.48,1.93 -4.61,9.11 -3.35,-0.58 -0.54,-7.22 -3.84,-1.6 -3.97,-5.86 -4.78,-0.93 -6.16,2.99 -0.06,-6.42 -4.13,-1.81 -5.47,-14.89 -0.89,-7.08 -2.62,-2.93 0.05,-4.59 -5.88,-1.58 -9.98,4.73 -3.03,-4.44 0.02,-7.57 -2.43,-0.14 -7.92,-8.55 1.95,-2.38 -5.39,-2.91 3.02,-3.73 0.2,-6.78 z"
       id="M32448"
       style="fill:#ffff80;fill-opacity:1;stroke:#000000;stroke-width:1.22715;stroke-dasharray:none;stroke-opacity:1" />
    <path
       d="m 371.42,801.18 -1.58,-4.62 -3.94,-4.29 -7.24,-0.27 -4.27,-2.47 -1.31,-4.21 -5.66,2.22 -9.29,-3.25 -2.46,-8.45 -2.08,-2.9 2.22,-5.84 6.29,-1.58 3.3,-3.98 6.2,-0.71 6.63,1.07 4.24,-3.11 5.29,3.79 0.31,-5.13 6.92,-5.54 0.99,-7.64 4.07,-5.28 8.03,3.35 -0.2,6.78 -3.02,3.73 5.39,2.91 -1.95,2.38 7.92,8.55 2.43,0.14 -0.02,7.57 3.03,4.44 9.98,-4.73 5.88,1.58 -0.05,4.59 2.62,2.93 0.89,7.08 -4.82,3.87 0.57,5.05 -4.48,2.22 -0.53,-5.39 -5.13,-2.39 -6.02,0.76 -3.65,2.47 0.6,4.58 -2.47,3.34 -5.85,-0.37 -4,-4.03 -6.71,2.42 z"
       id="M32441"
       style="fill:#ffff80;fill-opacity:1;stroke:#000000;stroke-width:1.22715;stroke-dasharray:none;stroke-opacity:1" />
    <path
       d="m 140.03,1067.33 3.01,3.64 4.85,-1.96 5.16,1.08 -0.11,5.12 -1.85,2.84 2.18,4.76 4.96,-1.93 0.54,-3.32 4.07,-4.28 11.26,-4.49 4.3,0.51 2.54,3.69 -7.5,-0.61 -1.97,3.09 -5.36,1.26 -3.65,5.14 0.38,8.21 -8.72,5.45 -3.53,7.8 3.55,3.86 1.28,5.53 6.16,8.59 -0.66,8.23 -5.16,0.66 -3,2.61 -2.3,5.19 -2.77,0.79 -3.79,7.62 -2.35,7.72 -4.49,1.64 1.28,4.05 -2.25,4.08 -7.67,-10.68 -6.75,-5.24 -5.85,-0.46 -0.82,2.91 -6.25,6.31 -4.33,-2.96 -3.02,1.71 0.58,5.98 -11.58,3.4 -12.22,-3.67 -1.22,4.8 -6.92,-4.29 -4.75,-1.2 -4.58,-3.66 -0.15,-4.32 -3.75,-1.24 -6.26,-4.93 2.28,-3.96 -0.72,-4.98 -3.12,-1.34 -2.36,-5.11 0.49,-5.63 -1.75,-3.42 4.29,-3.57 0.94,-4.23 4.68,-2.85 1,-7.06 2.92,-5.61 0.28,-7.81 2.59,-6.33 9.17,-4.72 5.05,-0.12 3.25,-5.3 1.36,-5.73 3.76,0.5 0.68,-5.22 3.82,-0.33 5.42,2.72 17.61,6.06 4.61,-4.27 3.73,4.42 6.97,3.35 4.22,-4.68 z"
       id="M32505"
       style="fill:#ffff80;fill-opacity:1;stroke:#000000;stroke-width:1.22715;stroke-dasharray:none;stroke-opacity:1" />
    <path
       d="m 27.23,1014.23 6.2,6.15 5.11,-4.43 4.51,0.26 3.93,-5.09 10.04,-4.67 8.54,-0.29 3.77,3.85 5.03,-2.29 2.58,2.99 5.78,2.52 4.34,-0.64 4.58,1.54 1.22,-7.08 2.3,-5.15 3.92,-2.54 2.82,1.44 4.23,-2.97 3.67,0.87 0.47,8.73 4.05,-0.96 4.54,3.48 -3.47,2.56 5.45,6.47 -3.12,4.45 -3.14,0.61 -3.61,7.54 1.62,3.26 -1.42,6.02 6.8,4.67 0.75,2.34 9.97,2.22 3.9,-4.49 h 2.78 l 4.23,6.24 -0.28,7.95 2.32,4.3 -1.61,3.24 -8.31,3.81 -4.22,4.68 -6.97,-3.35 -3.73,-4.42 -4.61,4.27 -17.61,-6.06 -5.42,-2.72 -3.82,0.33 -0.68,5.22 -3.76,-0.5 -1.36,5.73 -3.25,5.3 -5.05,0.12 -9.17,4.72 -2.59,6.33 -3.36,0.99 -11.71,0.44 -4.39,-3.01 -6.55,5.87 -3.83,-2.31 -7.78,2.37 -8.81,-8.49 2.42,-4.45 -2.42,-8.04 2.84,-5.07 -1.82,-3.46 -5.87,1.33 -0.51,-5.4 -3.19,-7.27 -3.5,-1.76 4.88,-7.19 7.82,-3.92 5.32,-5.24 -2.71,-10.12 2.37,-6.98 3.34,0.33 3.16,-5.41 z"
       id="M32501"
       style="fill:#ffff80;fill-opacity:1;stroke:#000000;stroke-width:1.22715;stroke-dasharray:none;stroke-opacity:1" />
    <path
       d="m 480.94,680.26 1.01,7.42 3.83,3.01 -0.11,4.66 2.26,1.94 -0.69,4.08 5.33,-0.83 6.12,2.49 2.85,4.86 3.9,-2.59 1.93,2.31 5.46,0.61 1.97,-5.17 7.67,-5.11 9.18,-0.04 1.73,14.64 9.05,0.19 4.06,-3.35 8.33,10.25 -6.43,6.58 -3.09,5.81 -5.3,5.3 4.69,5.84 -11.26,5.89 -2.27,6.8 -7.3,5.01 -2.83,3.65 0.38,4.77 -11.35,6.82 2.45,5.06 -5.93,3.79 -2.13,4.23 -0.76,5.42 -4.27,-0.44 -5.97,2.6 -3.39,4.79 -2.78,-3.05 -3.69,-0.85 -9.93,2.45 -1.55,-5.18 0.7,-4.17 -6.21,1.54 -6.07,-2.53 0.06,-7.12 5.05,-6.11 -2.11,-1.68 0.47,-7.71 4.79,-1.27 1.34,-2.97 8.26,-7.39 2.58,2.51 6.04,1.28 1.52,-6.18 -2.1,-2.78 2.76,-6.58 -0.51,-3.98 -5.91,-0.12 -2.72,-4.68 -5.01,-4.48 -8.34,-3.2 -5.29,-6.39 4.49,-7.04 -2.24,-2.56 3.93,-5.86 -7.41,-0.21 -2.02,-3.34 -8.57,-6.46 -0.68,-3.76 2.77,-2.87 5.17,-1.48 2.21,-6.55 5.88,-5.53 3.83,-2.36 6.25,2.32 1,4.83 z"
       id="M32386"
       style="fill:#ffff80;fill-opacity:1;stroke:#000000;stroke-width:1.22715;stroke-dasharray:none;stroke-opacity:1" />
  </g>
  <path
     style="fill:none;fill-opacity:1;stroke:#000000;stroke-width:0.814899px;stroke-linecap:butt;stroke-linejoin:miter;stroke-opacity:1"
     d="M 285.80564,13.348022 221.66202,216.04644 H 9.0162973"
     id="path7265"
     sodipodi:nodetypes="ccc" />
</svg>
