<?xml version="1.0" encoding="UTF-8" standalone="no"?>
<svg
   version="1.2"
   width="690"
   height="600"
   viewBox="0 0 690 600"
   stroke-linecap="round"
   stroke-linejoin="round"
   id="svg1465"
   sodipodi:docname="st.svg"
   inkscape:version="1.2 (dc2aedaf03, 2022-05-15)"
   xmlns:inkscape="http://www.inkscape.org/namespaces/inkscape"
   xmlns:sodipodi="http://sodipodi.sourceforge.net/DTD/sodipodi-0.dtd"
   xmlns="http://www.w3.org/2000/svg"
   xmlns:svg="http://www.w3.org/2000/svg">
  <defs
     id="defs1469" />
  <sodipodi:namedview
     id="namedview1467"
     pagecolor="#505050"
     bordercolor="#eeeeee"
     borderopacity="1"
     inkscape:showpageshadow="0"
     inkscape:pageopacity="0"
     inkscape:pagecheckerboard="0"
     inkscape:deskcolor="#505050"
     showgrid="false"
     inkscape:zoom="1.585"
     inkscape:cx="345.11041"
     inkscape:cy="190.53628"
     inkscape:window-width="1920"
     inkscape:window-height="1009"
     inkscape:window-x="-8"
     inkscape:window-y="-8"
     inkscape:window-maximized="1"
     inkscape:current-layer="svg1465" />
  <g
     id="st"
     transform="matrix(0.86340852,0,0,0.86340852,-0.36340897,109.18672)"
     style="fill:#ffff80;fill-opacity:1;stroke:#000000;stroke-width:1.1582;stroke-dasharray:none;stroke-opacity:1">
    <path
       d="m 492.84,73.06 -1.54,2.06 -12.65,-2.76 -2.8,6.82 1.74,14.95 1.63,1.52 7.46,-0.62 0.98,8.53 -2.98,1.25 1.03,9.5 -7.52,-0.34 0.2,7.39 5.68,5.92 -1.41,15.36 1.84,2.03 0.78,15.02 1.35,3.88 4.33,4.06 3.5,-0.43 -0.8,2.53 -16,9.05 -1.55,-3.61 -7.27,-1.77 -1.29,-4.23 4.21,-7.5 -12.05,-9.14 -5.17,-0.44 -3.77,4.99 -3.8,-2.9 -11.76,-1.03 -6.25,-2.71 -3.46,0.11 -1.11,11.33 -4.65,1.09 -3.42,-2.83 -1.8,-5.64 -4.44,6.9 -5.49,-6.86 -2.35,-5.33 -5.37,-4.26 3.25,-1.03 3.53,-4.46 0.53,-17.8 -2.4,-2.93 4.21,-3.88 -4.05,-5.13 -5.95,-2.78 -4.46,-4.72 1.87,-4.23 6.97,-4.17 -2.43,-2.77 6.5,-2.25 3.59,3.05 5.52,-1.9 -1.48,-3.8 5.58,-3.54 -1.79,-3.01 0.09,-5.91 2.63,-4.14 -0.39,-7.37 2.32,-6.46 -1.93,-6.26 1.3,-6.32 -5.12,-5.94 12.07,-7.58 8.3,-3.62 6.43,5.43 5.95,1.92 11.25,14.05 9.57,4.14 7.64,5.17 0.19,4.28 6.65,2.49 z"
       id="M11202"
       style="fill:#ffff80;fill-opacity:1;stroke:#000000;stroke-width:1.1582;stroke-dasharray:none;stroke-opacity:1" />
    <path
       d="m 609.96,378.32 2.55,4.2 0.59,11.75 -6,3.32 -0.13,7.42 -6.56,3.38 -4.24,8.07 -0.64,3.86 -2.05,-0.27 -4.55,-6.05 -5.81,-1.26 1.01,-4.02 -2.76,-4.77 -1.19,-13.21 2.43,-7.31 2.19,-5.29 3.58,-1.76 5.82,3.67 8.18,-6.42 6.24,0.73 z"
       id="M11227"
       style="fill:#ffff80;fill-opacity:1;stroke:#000000;stroke-width:1.1582;stroke-dasharray:none;stroke-opacity:1" />
    <path
       d="m 764.74,287.77 -6.46,4.18 -1.7,5.2 2.45,7.5 4.15,5.76 -6.51,4.07 -9.43,-2.08 -2.25,-4.87 -8.32,-1.76 -1.61,-5.8 6.6,-3.59 2.24,-3.15 -4.82,-6.35 -5.79,-1.67 4.68,-9.52 7.56,-10.83 2.68,1.56 5.81,-4.05 2.99,12.49 z"
       id="M11465"
       style="fill:#ffff80;fill-opacity:1;stroke:#000000;stroke-width:1.1582;stroke-dasharray:none;stroke-opacity:1" />
    <path
       d="m 724.61,185.27 11.71,15.5 -5.5,5.27 -13.88,8.95 3.64,11.09 -4.26,5.07 -11.51,1.45 -1.66,4.35 -9.23,-0.79 1.84,-4.19 3.77,-2.7 -0.22,-3.95 -5.2,-5.1 -3.87,-1.25 -4.09,-4.22 -3.44,0.08 -3.79,-3.41 -9.29,-4.55 0.54,-3.34 -7.52,-7.33 1.4,-5.76 2.45,-5.61 9.17,8.76 5.29,-1.46 0.62,4.42 9.69,6.4 8.89,-12 4.37,3.16 4.8,6.63 9.05,-1.38 0.53,-9.65 5.12,-0.97 z"
       id="M11464"
       style="fill:#ffff80;fill-opacity:1;stroke:#000000;stroke-width:1.1582;stroke-dasharray:none;stroke-opacity:1" />
    <path
       d="m 436.91,353.23 2.13,14.21 4.82,0.5 0.75,-6.11 11.6,-3.01 2.94,9.08 5.33,2.41 3.68,-1.27 3.84,10.42 4.23,8.19 -3.84,3.22 -8.54,3.93 -10.04,2.97 2.14,4.83 -2.27,9.52 1.81,4.12 4.51,0.82 -1.08,5.9 -8.19,0.75 -0.9,-3.7 -6.86,-2.31 -0.8,-7.25 -12.39,-2.58 -2.38,-2.48 -9.35,3.74 -4.74,-2.75 -2.33,-3.64 -3.69,-10.83 -0.43,-5.03 6.86,-6.35 12.85,-1.02 -0.51,-18.5 4.73,-2.15 -1.07,-5.3 5.26,-2.47 z"
       id="M11225"
       style="fill:#ffff80;fill-opacity:1;stroke:#000000;stroke-width:1.1582;stroke-dasharray:none;stroke-opacity:1" />
    <path
       d="m 613.1,394.27 -0.59,-11.75 -2.55,-4.2 3.79,-4.6 4.35,4.42 5.97,-2.12 6.9,-0.77 8.92,3.14 1.43,3.6 7.65,2.58 7.64,6.05 7.6,-0.89 -0.43,5.8 -2.44,5.69 1.63,2.48 -6.61,-1.98 -6.34,1.67 -5.78,-1.17 -11.01,0.01 -4.74,1.95 -3.89,-4.13 -7.88,-2.74 z"
       id="M11224"
       style="fill:#ffff80;fill-opacity:1;stroke:#000000;stroke-width:1.1582;stroke-dasharray:none;stroke-opacity:1" />
    <path
       d="m 625.76,261.76 -5.58,-0.81 -8.86,-5.4 -5.66,-10.17 -4.86,-4.31 -0.03,-6.61 -9.53,-5.04 3.23,-15.42 10.76,5.02 7.14,9.89 8.58,2.55 1.26,6.4 5.28,4 -0.42,11.02 z"
       id="M11301"
       style="fill:#ffff80;fill-opacity:1;stroke:#000000;stroke-width:1.1582;stroke-dasharray:none;stroke-opacity:1" />
    <path
       d="m 561.91,335.24 1.86,2.85 -0.14,6.81 -11.24,1.28 -9.61,3.48 0.29,5.05 8.8,-4.93 0.75,3.86 -3.88,3.22 0.21,4.68 -4.19,5.01 -8,-5.53 -3.82,1.18 -8.83,-0.5 -2.48,5.9 -1.41,-6.22 -5.3,-1.23 -1.66,-3.43 9.62,-3.95 4.44,-3.69 10.32,-12.75 2.9,-1.61 -0.57,-5.26 6.55,-3.47 -0.58,4.54 3.18,4.6 9.28,2.62 z"
       id="M11245"
       style="fill:#ffff80;fill-opacity:1;stroke:#000000;stroke-width:1.1582;stroke-dasharray:none;stroke-opacity:1" />
    <path
       d="m 327.38,179.57 3.54,2.58 15.1,5.38 2.96,4.87 6.11,1.66 -12.3,4.67 -14.27,13.37 -7.45,1.18 -1.72,2.64 3.38,9.37 -0.38,6.26 -3.05,5.79 -6.35,1.16 -6.11,-6.67 -2.55,-6.14 -6.71,-8.42 -0.37,-2.98 2.76,-4.1 0.48,-11.47 -1.1,-6.33 2.32,-4.66 -2.42,-19.83 -2.87,-4.69 4,-3.49 10.9,6.01 10.96,13.38 z"
       id="M11369"
       style="fill:#ffff80;fill-opacity:1;stroke:#000000;stroke-width:1.1582;stroke-dasharray:none;stroke-opacity:1" />
    <path
       d="m 609.96,378.32 -1.34,-3.96 -6.24,-0.73 -1.49,-7.73 -3.39,-0.79 -5.68,-5.97 -4.39,-6.84 -4.4,-3.3 -1.41,-5.78 -8.41,-0.37 -3.38,-1.82 0.44,-5.34 -5.45,-2.32 -1.33,-3.22 5.75,-1.09 -4.7,-6.18 2.61,-6.37 -4.28,-7.42 1.16,-4.13 -2.74,-3.56 3.05,-5.58 -2,-4.61 5.99,-0.98 2.84,2.87 2.68,-5.73 6.74,-4.39 3.48,0.8 4.21,-2.17 6.34,7.1 2.09,-5.73 -7.21,-13.42 2.78,-1.34 5.18,2.02 9.09,-5.43 3.9,2.13 4.21,9.16 7.58,-2.3 5.57,3.17 2.41,-9.01 3.12,-4.84 8.42,-6.26 4.02,1.13 8.24,-1.13 7.56,-12.84 -2.44,-6.6 10.66,3.09 11.17,7.95 1.38,3.3 -1.28,7.49 -2.1,3.13 -5.46,2.8 4.83,5.97 -0.81,5.12 6.92,-2.49 10.8,2.45 4.15,9.73 1.56,4.21 -4.05,6.96 -2.09,7.93 2.89,5.3 3.41,0.52 -0.7,12.18 -5.53,1.71 4.74,11.13 -7.12,-2.34 -2.06,10.94 -3.63,-4.54 -13.2,-1.09 4.48,5.3 -1.58,6.65 -9.23,-0.02 -3.35,1.79 -2.29,9.59 -5.14,0.91 -8.61,-2.5 2.48,8.35 -1.22,6.4 -5.6,-2.45 -3.67,5.5 -8.92,-3.14 -6.9,0.77 -5.97,2.12 -4.35,-4.42 z"
       id="M11100"
       style="fill:#ffff80;fill-opacity:1;stroke:#000000;stroke-width:1.1582;stroke-dasharray:none;stroke-opacity:1" />
    <path
       d="m 756.67,314.48 6.51,-4.07 -4.15,-5.76 -2.45,-7.5 1.7,-5.2 6.46,-4.18 7.8,4.85 4.37,5.77 2.98,8.02 12.12,19.32 3.31,13.27 2.92,8.04 -5.1,1.15 -4.02,-1.25 -4.94,1.05 -3.12,-1.95 -6.65,2.85 -16.06,4.3 0.1,-8.76 0.17,-5.87 -1.47,-7.47 0.43,-6.46 -6.72,-3.45 0.04,-2.26 z"
       id="M11243"
       style="fill:#ffff80;fill-opacity:1;stroke:#000000;stroke-width:1.1582;stroke-dasharray:none;stroke-opacity:1" />
    <path
       d="m 449.39,303.05 2.53,3.37 0.8,6.09 5.47,0.22 1.22,5.7 4.8,4.73 -1.37,3.09 -7.68,7.89 0.93,5.57 -9.9,6.08 -6.83,-3.84 3.72,-4.49 -4.95,-1.64 -5.75,2.58 -5.34,-2.74 -7.69,1.83 -4.78,-3.45 -6.32,3.86 -1.57,4.21 -5.63,-0.25 -7.64,3.82 -4.77,-2.81 -4.44,1.62 -4.64,-3.96 2.51,-6.51 0.22,-11.84 -1.56,-3.08 12.35,-2.85 8.6,-3.88 0.82,-5.62 8.95,-5.74 3.07,-0.59 3.86,2.82 5.48,-0.61 7.35,-6.43 0.1,2.88 5.36,0.64 3.99,-3.18 z"
       id="M11242"
       style="fill:#ffff80;fill-opacity:1;stroke:#000000;stroke-width:1.1582;stroke-dasharray:none;stroke-opacity:1" />
    <path
       d="m 449.39,303.05 -8.73,-6.51 -3.99,3.18 -5.36,-0.64 -0.1,-2.88 9.11,-8.64 4.16,-5.28 3.59,2.17 2.95,-5.72 6.73,-3.38 3.95,3.13 7.93,0.28 0.45,-3.71 4.76,-4.18 2.73,2.45 4.94,12.88 -8.46,8.27 2.86,4.64 -5.74,0.56 -6.37,4.03 -8.89,4.07 z"
       id="M11241"
       style="fill:#ffff80;fill-opacity:1;stroke:#000000;stroke-width:1.1582;stroke-dasharray:none;stroke-opacity:1" />
    <path
       d="m 388.12,243.87 8.77,4.96 5.31,7.54 8.19,8.81 -3.98,2.36 -3.51,10.48 -6.68,4.3 -7.32,-1.93 -3.88,-2.58 -5.3,-0.78 -0.46,3.63 -6.58,5.62 -2.58,5.18 2.77,3.74 -1.48,4.3 -6.65,1.74 -6.8,-5.14 -4.27,-1.61 -5.87,-12.78 -6.64,-2.85 -3.56,-6.1 4.27,-2.07 0.8,-5.96 6.79,-6.98 9.08,-3.59 1.8,-2.47 8.76,-3.82 7.96,1.26 7.21,-5.78 z"
       id="M11327"
       style="fill:#ffff80;fill-opacity:1;stroke:#000000;stroke-width:1.1582;stroke-dasharray:none;stroke-opacity:1" />
    <path
       d="m 724.61,185.27 -0.58,3.47 -5.12,0.97 -0.53,9.65 -9.05,1.38 -4.8,-6.63 -4.37,-3.16 -8.89,12 -9.69,-6.4 -0.62,-4.42 -5.29,1.46 -9.17,-8.76 4.36,-5.67 -0.73,-4.42 -4.31,-3.27 -3.52,1.23 -3.69,-6.07 1.27,-5.37 4.74,-6 3.76,0.5 3.81,-3.19 5.87,0.13 0.28,-5.86 4.35,0.45 0.84,14.46 2.32,3.01 10.06,-0.47 6.52,3.76 6.24,1.77 9.47,-1.93 2.33,11.01 z"
       id="M11240"
       style="fill:#ffff80;fill-opacity:1;stroke:#000000;stroke-width:1.1582;stroke-dasharray:none;stroke-opacity:1" />
    <path
       d="m 414.52,300.42 -3.07,0.59 -8.95,5.74 -0.82,5.62 -8.6,3.88 -12.35,2.85 -4.4,-1.04 1.66,-9.19 -4.08,-4.12 -2.52,-5.25 1.48,-4.3 -2.77,-3.74 2.58,-5.18 6.58,-5.62 0.46,-3.63 5.3,0.78 3.88,2.58 7.32,1.93 6.68,-4.3 3.51,-10.48 3.98,-2.36 8.85,3.03 3.24,-0.33 3.14,-4.45 3.24,-0.95 2.54,3.21 3.8,10.36 -2.39,4.87 -4.89,4.61 4.27,3.44 -7.07,4.67 -6.24,-3.88 -4.59,0.82 -2.16,5.05 z"
       id="M11326"
       style="fill:#ffff80;fill-opacity:1;stroke:#000000;stroke-width:1.1582;stroke-dasharray:none;stroke-opacity:1" />
    <path
       d="m 561.91,335.24 -3.51,2.51 -9.28,-2.62 -3.18,-4.6 0.58,-4.54 -6.55,3.47 0.57,5.26 -2.9,1.61 -10.32,12.75 -4.44,3.69 -9.62,3.95 1.66,3.43 5.3,1.23 1.41,6.22 -6.18,3.69 -1.24,-1.94 -11.59,-15.84 4.7,-6.66 -2.54,-8.93 -5.38,1.41 4.56,-8.41 -2.16,-0.66 -6.86,6.43 -4.05,-4.59 -5.6,0.74 -3.41,-6.17 -6.07,-2.9 -4.79,-4.96 -6.81,4.35 -4.8,-4.73 -1.22,-5.7 -5.47,-0.22 -0.8,-6.09 -2.53,-3.37 6.52,4.72 8.89,-4.07 6.37,-4.03 5.74,-0.56 -2.86,-4.64 8.46,-8.27 -4.94,-12.88 6.5,-2.59 8.37,0.32 -1.01,3.81 -6.02,1.74 1.08,5.55 10.69,-2.67 11.43,-9.73 4.88,-0.5 3.02,3.56 7.88,1.31 7.79,-0.6 12.41,4.59 10.25,1.54 6.32,4.4 -1.65,4.2 2.83,2.96 2,4.61 -3.05,5.58 2.74,3.56 -1.16,4.13 4.28,7.42 -2.61,6.37 4.7,6.18 -5.75,1.09 z"
       id="M11201"
       style="fill:#ffff80;fill-opacity:1;stroke:#000000;stroke-width:1.1582;stroke-dasharray:none;stroke-opacity:1" />
    <path
       d="m 521.63,367.6 2.48,-5.9 8.83,0.5 3.82,-1.18 8,5.53 4.19,-5.01 0.99,3.32 7.52,8.15 5.66,2.33 4.28,3.69 0.01,2.16 -1.91,4.69 -9.11,-0.9 -2.92,1.55 -1.52,-4.83 -11.25,6.04 -8.29,2.83 -13.9,-20.23 -3.06,0.95 z"
       id="M11324"
       style="fill:#ffff80;fill-opacity:1;stroke:#000000;stroke-width:1.1582;stroke-dasharray:none;stroke-opacity:1" />
    <path
       d="m 312.95,238.5 6.35,-1.16 3.05,-5.79 8.07,-1.22 7.48,1.23 1.51,-4.54 5.48,0.57 3.92,-6.78 3.97,-3.33 5.02,0.11 0.43,-3.99 4.96,-3.7 4.89,-1.19 8.1,3.58 11.69,0.03 5.65,-2.66 13.24,14.5 0.43,4.9 -5.03,1.58 -4.68,4.06 -0.12,6.23 -7.64,-2.96 -1.6,5.9 -3.85,-0.52 -7.21,5.78 -7.96,-1.26 -8.76,3.82 -1.8,2.47 -9.08,3.59 -6.79,6.98 -0.8,5.96 -4.27,2.07 -7.43,-5.1 -0.22,-2.64 -7.49,-0.9 -7.89,-2.39 -5.66,-13.59 2.97,-2.43 z"
       id="M11349"
       style="fill:#ffff80;fill-opacity:1;stroke:#000000;stroke-width:1.1582;stroke-dasharray:none;stroke-opacity:1" />
    <path
       d="m 410.39,265.18 -8.19,-8.81 -5.31,-7.54 -8.77,-4.96 1.6,-5.9 7.64,2.96 0.12,-6.23 4.68,-4.06 5.03,-1.58 5.69,-0.78 7.02,2.84 4.82,-1.98 3.03,3.17 6.72,2.03 7.92,5.39 5.95,7.86 0.97,4.29 -8.52,4 -5.43,0.16 -6.5,6.44 -3.24,0.95 -3.14,4.45 -3.24,0.33 z"
       id="M11348"
       style="fill:#ffff80;fill-opacity:1;stroke:#000000;stroke-width:1.1582;stroke-dasharray:none;stroke-opacity:1" />
    <path
       d="m 664.21,389.73 -7.6,0.89 -7.64,-6.05 -7.65,-2.58 -1.43,-3.6 3.67,-5.5 5.6,2.45 8.91,2.9 13.07,2.39 -1.71,5.84 z"
       id="M11223"
       style="fill:#ffff80;fill-opacity:1;stroke:#000000;stroke-width:1.1582;stroke-dasharray:none;stroke-opacity:1" />
    <path
       d="m 477.66,178.78 16,-9.05 0.8,-2.53 6.33,3.11 2.15,4.45 4.93,3.93 4.17,7.79 6.86,1.09 -0.52,3.61 4.46,4.11 0.24,6.06 3.38,6.15 6.62,9.41 -3.57,4.03 0.54,4.42 -7.34,-3.81 -6.41,-1.34 -5.93,1.41 -8.89,5.13 -4.99,-1.75 -6.67,0.51 -2.85,-6.83 -8.48,-10.47 -3.26,-1.14 1.27,-10.65 -2.47,-5.21 0.81,-7.24 z"
       id="M11347"
       style="fill:#ffff80;fill-opacity:1;stroke:#000000;stroke-width:1.1582;stroke-dasharray:none;stroke-opacity:1" />
    <path
       d="m 733.29,285.21 5.79,1.67 4.82,6.35 -2.24,3.15 -6.6,3.59 1.61,5.8 8.32,1.76 2.25,4.87 9.43,2.08 -5.77,4.44 -0.04,2.26 6.72,3.45 -0.43,6.46 1.47,7.47 -0.17,5.87 -3.98,-1.23 -10.45,2 2.45,3.69 -7.21,3.02 -2.81,4.21 -13.44,-4.25 -5.08,1.9 -3.75,-1.61 -2.76,-4.67 -5.78,-3.71 -6.01,-7.88 -4.74,-11.13 5.53,-1.71 0.7,-12.18 -3.41,-0.52 -2.89,-5.3 2.09,-7.93 4.05,-6.96 -1.56,-4.21 5.25,-0.25 3.9,4.4 2.8,-1.9 6.35,-0.24 -2.09,-8 2.02,-4.96 5.26,-1.11 6.17,4.79 z"
       id="M11222"
       style="fill:#ffff80;fill-opacity:1;stroke:#000000;stroke-width:1.1582;stroke-dasharray:none;stroke-opacity:1" />
    <path
       d="m 554.84,279.65 -10.25,-1.54 -12.41,-4.59 -7.79,0.6 -7.88,-1.31 -3.02,-3.56 -4.88,0.5 -6.87,-10.45 -2.18,-6.13 -2.62,0.69 -6.82,-4.17 -6.69,-11.42 -4.89,-2.93 2.35,-3.72 5.46,1.98 6.19,-1.31 7.3,0.18 1.64,-5.72 8.89,-5.13 5.93,-1.41 6.41,1.34 7.34,3.81 3.27,1.26 -0.45,5.55 -2.32,2.88 1.42,4.99 3.54,-0.12 4.47,7.19 -1.37,2.81 3.99,6.68 3.34,-1.02 -0.25,7.61 7.98,6.03 7.05,7.97 z"
       id="M11346"
       style="fill:#ffff80;fill-opacity:1;stroke:#000000;stroke-width:1.1582;stroke-dasharray:none;stroke-opacity:1" />
    <path
       d="m 758.45,344.43 -0.1,8.76 0.73,2.97 -1.68,-1.85 -6.45,0.71 1.74,9.69 -0.51,8.27 -2.81,5.3 -7.05,-1.5 2.43,5.09 -4.4,7.64 5.43,0.42 -5.2,5.6 -7.38,-0.2 -6.63,2.7 -8.86,-2.44 -5.02,-7.15 -2.78,-0.67 13.88,-5.79 -6.18,-6.95 -0.28,-7.53 -4.92,-5.24 2.21,-2.66 -5.37,-3.67 -2.03,-6.01 4.2,-2.43 2.76,4.67 3.75,1.61 5.08,-1.9 13.44,4.25 2.81,-4.21 7.21,-3.02 -2.45,-3.69 10.45,-2 z"
       id="M11221"
       style="fill:#ffff80;fill-opacity:1;stroke:#000000;stroke-width:1.1582;stroke-dasharray:none;stroke-opacity:1" />
    <path
       d="m 431.21,296.2 -7.35,6.43 -5.48,0.61 -3.86,-2.82 -2.39,-4.79 2.16,-5.05 4.59,-0.82 6.24,3.88 7.07,-4.67 -4.27,-3.44 4.89,-4.61 2.39,-4.87 -3.8,-10.36 -2.54,-3.21 6.5,-6.44 5.43,-0.16 8.52,-4 16.81,-3.12 1.79,-2.34 15.52,-8.15 6.69,11.42 6.82,4.17 2.62,-0.69 2.18,6.13 6.87,10.45 -11.43,9.73 -10.69,2.67 -1.08,-5.55 6.02,-1.74 1.01,-3.81 -8.37,-0.32 -6.5,2.59 -2.73,-2.45 -4.76,4.18 -0.45,3.71 -7.93,-0.28 -3.95,-3.13 -6.73,3.38 -2.95,5.72 -3.59,-2.17 -4.16,5.28 z"
       id="M11239"
       style="fill:#ffff80;fill-opacity:1;stroke:#000000;stroke-width:1.1582;stroke-dasharray:none;stroke-opacity:1" />
    <path
       d="m 625.76,261.76 1.31,-8.88 0.42,-11.02 -5.28,-4 -1.26,-6.4 -8.58,-2.55 -7.14,-9.89 -10.76,-5.02 -4.99,-1.37 4.29,-4.15 6.49,-2.41 14.82,7.58 3.73,-2.93 5.54,-1.02 5.71,0.9 1.22,17.38 7.77,-1.33 1.66,3.92 7.56,6.82 7.56,-4.19 3.31,4.22 2.44,6.6 -7.56,12.84 -8.24,1.13 -4.02,-1.13 -8.42,6.26 -3.12,4.84 z"
       id="M11238"
       style="fill:#ffff80;fill-opacity:1;stroke:#000000;stroke-width:1.1582;stroke-dasharray:none;stroke-opacity:1" />
    <path
       d="m 758.35,353.19 16.06,-4.3 6.65,-2.85 3.12,1.95 4.94,-1.05 4.02,1.25 5.1,-1.15 0.76,2.22 -2.82,9.31 -4.1,7.4 -1.37,16.3 2.38,4.13 -1.81,9.82 1.34,5.73 -1.55,3.4 3.53,11.35 -4.39,-1.05 -6.71,2.36 -3.96,-3.65 3.53,-6.83 -3.92,-2.89 -8.03,2.38 -2.02,-8.23 7.56,-5.88 1.5,-4.78 -2.97,-4.91 -5.23,-0.15 -6.47,-4.11 -3.89,-16.68 -0.52,-6.12 z"
       id="M11237"
       style="fill:#ffff80;fill-opacity:1;stroke:#000000;stroke-width:1.1582;stroke-dasharray:none;stroke-opacity:1" />
    <path
       d="m 548.95,361.54 -0.21,-4.68 3.88,-3.22 -0.75,-3.86 -8.8,4.93 -0.29,-5.05 9.61,-3.48 11.24,-1.28 0.14,-6.81 -1.86,-2.85 1.58,-5.09 1.33,3.22 5.45,2.32 -0.44,5.34 3.38,1.82 8.41,0.37 1.41,5.78 4.4,3.3 -2.97,3.19 -1.62,7.59 -4.97,10.12 -10.47,5.83 -4.28,-3.69 -5.66,-2.33 -7.52,-8.15 z"
       id="M11235"
       style="fill:#ffff80;fill-opacity:1;stroke:#000000;stroke-width:1.1582;stroke-dasharray:none;stroke-opacity:1" />
    <path
       d="m 591.24,229.42 9.53,5.04 0.03,6.61 4.86,4.31 5.66,10.17 8.86,5.4 5.58,0.81 4.46,6.2 -2.41,9.01 -5.57,-3.17 -7.58,2.3 -4.21,-9.16 -3.9,-2.13 -9.09,5.43 -5.18,-2.02 -2.78,1.34 7.21,13.42 -2.09,5.73 -6.34,-7.1 -4.21,2.17 -3.48,-0.8 -6.74,4.39 -2.68,5.73 -2.84,-2.87 -5.99,0.98 -2.83,-2.96 1.65,-4.2 -6.32,-4.4 5.88,-2.46 -7.05,-7.97 0.06,-6.84 4.55,-6.64 -0.45,-5.02 -2.42,-2.96 1.08,-4.93 13.37,1.38 3.4,2.48 8.55,-0.25 -4,-4.15 2.06,-3.85 -2.73,-5.45 2.56,-3.53 7.16,-0.88 z"
       id="M11219"
       style="fill:#ffff80;fill-opacity:1;stroke:#000000;stroke-width:1.1582;stroke-dasharray:none;stroke-opacity:1" />
    <path
       d="m 414.76,37.2 5.12,5.94 -1.3,6.32 1.93,6.26 -2.32,6.46 0.39,7.37 -2.63,4.14 -0.09,5.91 1.79,3.01 -5.58,3.54 1.48,3.8 -5.52,1.9 -3.59,-3.05 -6.5,2.25 2.43,2.77 -6.97,4.17 -1.87,4.23 4.46,4.72 5.95,2.78 4.05,5.13 -4.21,3.88 2.4,2.93 -0.53,17.8 -3.53,4.46 -3.25,1.03 -8.76,3.05 -8.38,0.39 -1.78,-10.83 -12.42,2.91 -0.73,-2.85 -15.8,0.86 -3.9,1.13 -4.9,-1.94 -0.18,-7.12 -2.83,-3.74 -7.65,-3.91 -3.55,0.06 -6,3.01 -3.99,-2.77 16.57,-4.64 10.58,-7.31 4.11,0.16 3.61,-5.26 -4.3,-3.51 -3.91,1.84 -12.78,-10.09 -7.51,-4.58 2.08,-3.23 7.09,-3.04 3.18,-9.07 -1.61,-3.59 -6.27,1.64 -1.88,-8.99 1.77,-6.47 4.89,-4.01 6.13,-2.02 3.86,-4.16 6.44,-0.41 3.26,2.55 5.56,1.24 4.01,-6.92 -2.76,-5.71 0.17,-4.28 6.81,-1.11 8.8,2.69 -0.13,-6.5 18.9,5.69 4.34,3.17 9.2,2.64 8.61,-0.62 z"
       id="M11218"
       style="fill:#ffff80;fill-opacity:1;stroke:#000000;stroke-width:1.1582;stroke-dasharray:none;stroke-opacity:1" />
    <path
       d="m 494.46,167.2 -3.5,0.43 -4.33,-4.06 -1.35,-3.88 -0.78,-15.02 6.33,-5.59 4.11,-0.16 7.51,4.98 5,-0.98 2.4,4 6.47,3.73 5.71,9.95 3.89,-0.33 6.05,-9.89 -3.32,-2.56 -0.52,-3.98 6.26,-2.98 2.9,-7.81 11.05,5.62 2.72,0.2 0.11,5.1 4.5,4.8 8.96,4.23 -1.8,5.61 -4.87,5.58 -0.82,4.43 4.85,2.64 3.9,-0.42 4.38,6.17 2.64,4.55 1.14,7.48 -2.62,3.17 0.6,4.61 5.48,6.15 -4.06,4.17 -7.27,-7.39 -4.77,0.2 -9,-6.17 -4.72,0.58 -3.59,2.75 7.31,10.56 -5.87,-0.97 -3.87,4.19 -3.88,-2.89 -11.33,-0.5 -3.38,-6.15 -0.24,-6.06 -4.46,-4.11 0.52,-3.61 -6.86,-1.09 -4.17,-7.79 -4.93,-3.93 -2.15,-4.45 z"
       id="M11217"
       style="fill:#ffff80;fill-opacity:1;stroke:#000000;stroke-width:1.1582;stroke-dasharray:none;stroke-opacity:1" />
    <path
       d="m 148.42,163.43 1.56,7.72 6.6,6.01 1.57,4.37 6.23,5.47 11.85,5.47 -2.14,8.21 6.98,4.13 2.91,3.29 8.57,2.87 4.02,2.73 4.38,-0.22 9.93,9.86 9.35,-3.76 2.64,-3.06 5.52,4.08 -1.31,3.38 1.83,4.9 -6.86,6.31 6.52,8.07 -4.66,10.59 -9.85,8.45 -10.91,2.02 0.1,-4.45 -2.93,-6.39 -3.07,-0.36 -7.28,3.26 -7.64,-5.58 -5.15,3.16 -2.56,-1.48 -4.73,2.21 -3.3,-1.19 -4.61,5.06 -0.32,3.05 -7.44,2.55 -1.97,-1.97 -6.55,-0.79 -5.84,1.68 -13.18,-6.07 -1.59,1.93 -11.76,-1.62 -2.67,-3.16 -12.05,-6.57 -4.77,-6.92 -5.83,-4.52 -0.3,-8.93 -1.62,-5.99 2.4,-9.92 -2.02,-2.68 -6.97,-2.99 2.55,-8.66 3.4,-1.68 3.73,-5.03 2.16,-8.98 10.39,-3.97 1.89,-4.72 10.81,-5.18 4.21,-0.71 7.48,-5.39 12.39,-2.57 z"
       id="M11365"
       style="fill:#ffff80;fill-opacity:1;stroke:#000000;stroke-width:1.1582;stroke-dasharray:none;stroke-opacity:1" />
    <path
       d="m 546.68,121.79 -5.44,0.08 -3.02,-13.38 -9.14,-1.2 -0.37,-5.51 -6.45,-8.87 0.37,-2.91 6.27,-0.24 2.51,-5.01 -3.48,-3.93 -0.65,-4.25 4.05,-0.78 13.17,1.91 9.43,-1.43 13.1,-6.57 12.57,-2.82 9.6,-5.12 4.42,1.24 6.33,4.55 4.09,5.5 -3.51,3.27 -1.08,5.58 2.63,3.07 4.12,9.16 -4.03,10.15 -11.73,-4.03 -2.22,11.36 -9.19,0.24 0.59,10.9 -23.32,-0.19 -7.43,-4.53 z"
       id="M11216"
       style="fill:#ffff80;fill-opacity:1;stroke:#000000;stroke-width:1.1582;stroke-dasharray:none;stroke-opacity:1" />
    <path
       d="m 476.23,387.65 -4.23,-8.19 -3.84,-10.42 -3.68,1.27 -5.33,-2.41 -2.94,-9.08 -11.6,3.01 -0.75,6.11 -4.82,-0.5 -2.13,-14.21 2.73,0.17 6.55,-7.61 9.9,-6.08 -0.93,-5.57 7.68,-7.89 1.37,-3.09 6.81,-4.35 4.79,4.96 6.07,2.9 3.41,6.17 5.6,-0.74 4.05,4.59 6.86,-6.43 2.16,0.66 -4.56,8.41 5.38,-1.41 2.54,8.93 -4.7,6.66 11.59,15.84 -6.54,1.74 -1.97,-4.78 -9.54,9.24 0.43,1.55 -11.51,7.49 -0.94,2.95 z"
       id="M11215"
       style="fill:#ffff80;fill-opacity:1;stroke:#000000;stroke-width:1.1582;stroke-dasharray:none;stroke-opacity:1" />
    <path
       d="m 286.41,115.6 1.98,1.76 9.46,1.6 4.64,5.52 -8.35,1.52 -1.56,9.14 -5.48,3.67 1.33,3.58 -0.26,18.84 -11.1,0.33 -5.74,5.51 -2.86,-2.98 -5.17,-0.33 -6.13,-2.74 -3.66,-3.85 -1.26,-5.63 0.58,-10.02 -2.74,-5.94 3.54,-1.85 0.14,-6.34 5.35,-5.38 3.54,1.21 3.15,-6 6.23,0.49 2.97,-3.19 4.6,-1.16 z"
       id="M11363"
       style="fill:#ffff80;fill-opacity:1;stroke:#000000;stroke-width:1.1582;stroke-dasharray:none;stroke-opacity:1" />
    <path
       d="m 754.02,262.37 -5.81,4.05 -2.68,-1.56 -7.56,10.83 -4.68,9.52 -4.23,-6.52 -6.17,-4.79 -5.26,1.11 -2.02,4.96 2.09,8 -6.35,0.24 -2.8,1.9 -3.9,-4.4 -5.25,0.25 -4.15,-9.73 -10.8,-2.45 -6.92,2.49 0.81,-5.12 -4.83,-5.97 5.46,-2.8 2.1,-3.13 1.28,-7.49 -1.38,-3.3 -11.17,-7.95 3.98,-7.92 7.27,5.62 12.06,-0.48 0.81,-1.57 9.23,0.79 1.66,-4.35 11.51,-1.45 4.26,-5.07 -3.64,-11.09 13.88,-8.95 5.5,-5.27 5.65,5.27 1.27,5.89 -2.59,5.48 2.35,17.22 -1.78,4.42 8.38,11.55 -1.01,6.32 1.34,3.46 z"
       id="M11214"
       style="fill:#ffff80;fill-opacity:1;stroke:#000000;stroke-width:1.1582;stroke-dasharray:none;stroke-opacity:1" />
    <path
       d="m 296.38,163.21 2.87,4.69 2.42,19.83 -2.32,4.66 1.1,6.33 -0.48,11.47 -2.76,4.1 -18.98,-7.03 -0.26,-3.79 -3.74,-2.31 0.29,-3.48 -2.45,-7.34 -5,-3.44 -8.18,1.78 -3.09,-4.93 -4.46,-2 -8.47,3.14 -9.47,2.02 -1.64,-10.69 -7.46,-1.41 -5.99,3.66 -10.27,-6.64 -3.78,-5.89 -6.96,-2.36 2.59,-7.91 6.7,-0.64 3.13,-1.8 8.01,-0.12 6.01,-5.75 1.1,-7.26 8,-8.32 1.33,2.29 8.33,3.77 7.59,-2.26 2.74,5.94 -0.58,10.02 1.26,5.63 3.66,3.85 6.13,2.74 5.17,0.33 2.86,2.98 5.74,-5.51 11.1,-0.33 z"
       id="M11362"
       style="fill:#ffff80;fill-opacity:1;stroke:#000000;stroke-width:1.1582;stroke-dasharray:none;stroke-opacity:1" />
    <path
       d="m 311.88,245.71 -2.97,2.43 5.66,13.59 -1.25,6.66 -2.97,1.75 -2.87,8.27 -3.69,3.1 -12.58,3.17 -1.09,2.26 -10.48,2.57 -6.6,4.51 -9.38,2.97 -4.89,-7.21 1.41,-4.54 -0.35,-9.24 -5.72,-10.88 -0.96,-8.18 4.09,-12.77 0.89,-5.56 7.95,-9.39 2.48,1.07 3.34,7.1 2.9,1.24 4.47,-2.96 21.94,5.25 3.41,-0.7 z"
       id="M11361"
       style="fill:#ffff80;fill-opacity:1;stroke:#000000;stroke-width:1.1582;stroke-dasharray:none;stroke-opacity:1" />
    <path
       d="m 308.43,8.16 -0.4,5.76 -4.6,3.06 2.56,3.7 -6.88,8.08 3.23,3.04 -0.69,3.43 5.79,2.55 -1.76,3.86 -3.79,-0.1 -6.95,6.47 -9.01,4.69 -4.06,-1.64 -7.19,3.58 -3.92,-7.19 -1.96,-6.71 -6.09,3.36 -3.25,-5.54 9.86,-16.86 -2.28,-2.68 6.7,-5.87 6.18,-8.14 1.64,-4.01 4.48,4.1 15.38,0.5 3.27,-0.91 z"
       id="M11385"
       style="fill:#ffff80;fill-opacity:1;stroke:#000000;stroke-width:1.1582;stroke-dasharray:none;stroke-opacity:1" />
    <path
       d="m 327.38,179.57 -5.14,-0.46 -10.96,-13.38 -10.9,-6.01 -4,3.49 -8.21,-1.98 0.26,-18.84 -1.33,-3.58 5.48,-3.67 1.56,-9.14 8.35,-1.52 2.9,2.46 7.92,-2.32 10.82,-7.99 3.28,-12.17 -0.84,-4.74 -4.57,-7.15 0.37,-2.76 7.51,4.58 12.78,10.09 3.91,-1.84 4.3,3.51 -3.61,5.26 -4.11,-0.16 -10.58,7.31 -16.57,4.64 3.99,2.77 6,-3.01 3.55,-0.06 7.65,3.91 2.83,3.74 0.18,7.12 4.9,1.94 3.9,-1.13 15.8,-0.86 0.73,2.85 12.42,-2.91 1.78,10.83 8.38,-0.39 v 6.43 l -1.44,5.37 -4.04,-0.46 -6.1,-4.66 -4.54,3.18 -3.72,6.45 -4.41,2.92 -5.78,-0.08 -0.67,-2.38 -10.05,-1.26 -2.6,-2.07 -3.33,3.04 -5.85,-0.56 -0.91,3.06 z"
       id="M11408"
       style="fill:#ffff80;fill-opacity:1;stroke:#000000;stroke-width:1.1582;stroke-dasharray:none;stroke-opacity:1" />
    <path
       d="m 232.84,131.78 -8,8.32 -1.1,7.26 -6.01,5.75 -8.01,0.12 -3.13,1.8 -6.7,0.64 -9.74,1.8 -6.86,-10.6 -4.04,-1.42 -0.35,-6.2 6.18,1.36 4.93,-7.39 5.98,-0.72 9.18,-7.26 3.67,2.27 3.69,-1.21 3.09,4.21 3.78,1.28 3.74,-1.89 -0.93,-5.89 1.15,-10.38 4.22,-3.66 7.75,0.14 2.15,-5.48 -3.39,-4.52 -1.56,-13.51 4.47,-4.4 0.18,-8.24 12.36,-15.96 4.87,-11.27 5.05,-8.17 3.25,5.54 6.09,-3.36 1.96,6.71 3.92,7.19 7.19,-3.58 4.06,1.64 -2.85,3.99 -2.57,8 1.21,3.99 -3.55,3.05 -2.25,-4.32 -7.94,-3.03 0.79,6.66 -5.28,4.95 -4.03,-0.25 -9.27,7.6 -4.89,6.31 0.61,12.67 -5.86,-0.37 1.82,10.27 3.57,1.35 -2.45,4.83 -3.41,-0.68 -5.85,7.98 z"
       id="M11383"
       style="fill:#ffff80;fill-opacity:1;stroke:#000000;stroke-width:1.1582;stroke-dasharray:none;stroke-opacity:1" />
    <path
       d="m 322.35,231.55 0.38,-6.26 -3.38,-9.37 1.72,-2.64 7.45,-1.18 14.27,-13.37 12.3,-4.67 -6.11,-1.66 -2.96,-4.87 -15.1,-5.38 -3.54,-2.58 7.29,-12.59 0.91,-3.06 5.85,0.56 3.33,-3.04 2.6,2.07 10.05,1.26 0.67,2.38 5.78,0.08 4.41,-2.92 3.72,-6.45 4.54,-3.18 6.1,4.66 4.04,0.46 1.44,-5.37 5.61,0.26 3.13,2.69 -0.69,3.47 -6.57,2.25 0.27,6.14 11.59,15.08 -5.18,3.09 -1.9,6.23 1.53,4.07 -1.46,3.9 -4.61,3.88 3.69,4.17 -5.65,2.66 -11.69,-0.03 -8.1,-3.58 -4.89,1.19 -4.96,3.7 -0.43,3.99 -5.02,-0.11 -3.97,3.33 -3.92,6.78 -5.48,-0.57 -1.51,4.54 -7.48,-1.23 z"
       id="M11343"
       style="fill:#ffff80;fill-opacity:1;stroke:#000000;stroke-width:1.1582;stroke-dasharray:none;stroke-opacity:1" />
    <path
       d="m 324.96,63.53 1.88,8.99 6.27,-1.64 1.61,3.59 -3.18,9.07 -7.09,3.04 -2.08,3.23 -0.37,2.76 4.57,7.15 0.84,4.74 -3.28,12.17 -10.82,7.99 -7.92,2.32 -2.9,-2.46 -4.64,-5.52 -9.46,-1.6 -1.98,-1.76 6.61,-6.1 -2.43,-9.29 3.91,-3.45 3.87,-6.63 -1.38,-5.06 2.75,-7.87 2.77,-2.73 1.58,-8.42 5.97,-4.43 z"
       id="M11381"
       style="fill:#ffff80;fill-opacity:1;stroke:#000000;stroke-width:1.1582;stroke-dasharray:none;stroke-opacity:1" />
    <path
       d="m 396.87,144.95 5.37,4.26 2.35,5.33 5.49,6.86 1.52,3.43 5.54,3.87 -3.67,12.39 7.23,3.88 -2.08,7.05 4.94,4.55 -7.48,3.12 0.87,2.66 0.49,8.49 4.73,4.2 -1.33,2.38 0.54,7.33 3.34,4.39 -4.82,1.98 -7.02,-2.84 -5.69,0.78 -0.43,-4.9 -13.24,-14.5 -3.69,-4.17 4.61,-3.88 1.46,-3.9 -1.53,-4.07 1.9,-6.23 5.18,-3.09 -11.59,-15.08 -0.27,-6.14 6.57,-2.25 0.69,-3.47 -3.13,-2.69 -5.61,-0.26 V 148 Z"
       id="M11342"
       style="fill:#ffff80;fill-opacity:1;stroke:#000000;stroke-width:1.1582;stroke-dasharray:none;stroke-opacity:1" />
    <path
       d="m 410.08,161.4 4.44,-6.9 1.8,5.64 3.42,2.83 4.65,-1.09 1.11,-11.33 3.46,-0.11 6.25,2.71 11.76,1.03 3.8,2.9 3.77,-4.99 -4.51,12.02 -2.6,2.64 1.65,6.21 -1.34,3.42 1.09,7.08 4.11,9.54 -1.81,2.35 2.45,6.95 -7.7,-0.58 -4.23,4.51 -7.24,-3.66 -1.37,2.89 -5.9,-1.87 -10.19,-1.24 -0.87,-2.66 7.48,-3.12 -4.94,-4.55 2.08,-7.05 -7.23,-3.88 3.67,-12.39 -5.54,-3.87 z"
       id="M11341"
       style="fill:#ffff80;fill-opacity:1;stroke:#000000;stroke-width:1.1582;stroke-dasharray:none;stroke-opacity:1" />
    <path
       d="m 454.54,152.09 5.17,0.44 12.05,9.14 -4.21,7.5 1.29,4.23 7.27,1.77 1.55,3.61 -2.82,5.19 -0.81,7.24 2.47,5.21 -1.27,10.65 3.26,1.14 8.48,10.47 2.85,6.83 6.67,-0.51 4.99,1.75 -1.64,5.72 -7.3,-0.18 -6.19,1.31 -5.46,-1.98 -2.35,3.72 4.89,2.93 -15.52,8.15 -1.79,2.34 -16.81,3.12 -0.97,-4.29 -5.95,-7.86 -7.92,-5.39 -6.72,-2.03 -3.03,-3.17 -3.34,-4.39 -0.54,-7.33 1.33,-2.38 -4.73,-4.2 -0.49,-8.49 10.19,1.24 5.9,1.87 1.37,-2.89 7.24,3.66 4.23,-4.51 7.7,0.58 -2.45,-6.95 1.81,-2.35 -4.11,-9.54 -1.09,-7.08 1.34,-3.42 -1.65,-6.21 2.6,-2.64 z"
       id="M11212"
       style="fill:#ffff80;fill-opacity:1;stroke:#000000;stroke-width:1.1582;stroke-dasharray:none;stroke-opacity:1" />
    <path
       d="m 358.29,33.34 -0.17,4.28 2.76,5.71 -4.01,6.92 -5.56,-1.24 -3.26,-2.55 -6.44,0.41 -3.86,4.16 -6.13,2.02 -4.89,4.01 -1.77,6.47 -14.9,-1.91 -5.97,4.43 -1.58,8.42 -2.77,2.73 -2.75,7.87 1.38,5.06 -3.87,6.63 -3.91,3.45 2.43,9.29 -6.61,6.1 -6.8,-2.24 -4.6,1.16 -2.97,3.19 -6.23,-0.49 -3.15,6 -3.54,-1.21 -5.35,5.38 -0.14,6.34 -3.54,1.85 -7.59,2.26 -8.33,-3.77 -1.33,-2.29 0.89,-6.08 5.85,-7.98 3.41,0.68 2.45,-4.83 -3.57,-1.35 -1.82,-10.27 5.86,0.37 -0.61,-12.67 4.89,-6.31 9.27,-7.6 4.03,0.25 5.28,-4.95 -0.79,-6.66 7.94,3.03 2.25,4.32 3.55,-3.05 -1.21,-3.99 2.57,-8 2.85,-3.99 9.01,-4.69 6.95,-6.47 3.79,0.1 1.76,-3.86 -5.79,-2.55 0.69,-3.43 -3.23,-3.04 6.88,-8.08 -2.56,-3.7 4.6,-3.06 0.4,-5.76 7.44,4.7 11.71,5.71 6.88,-0.18 2.62,5.11 7.96,-1.64 9.04,10.07 z"
       id="M11211"
       style="fill:#ffff80;fill-opacity:1;stroke:#000000;stroke-width:1.1582;stroke-dasharray:none;stroke-opacity:1" />
    <path
       d="m 570.27,177.01 -4.38,-6.17 -3.9,0.42 -4.85,-2.64 0.82,-4.43 4.87,-5.58 1.8,-5.61 -8.96,-4.23 -4.5,-4.8 -0.11,-5.1 3.08,-7.44 -7.46,-9.64 2.19,-3.76 7.43,4.53 23.32,0.19 -0.59,-10.9 9.19,-0.24 2.22,-11.36 11.73,4.03 4.03,-10.15 -4.12,-9.16 -2.63,-3.07 1.08,-5.58 3.51,-3.27 5.87,5.83 4.31,2.32 0.91,-5.19 7.28,-3.29 7.76,0.89 1.81,-1.86 -1.41,-10.67 7.09,-3.09 1.78,6.48 8.25,-0.97 1.63,5.66 6.2,-1.52 0.86,5.79 3.89,3.89 -1.86,13.66 3.51,15.69 4.64,9.39 -12.35,6.87 0.53,8.52 -6.15,3.95 -5.64,1.43 -2.41,2.9 2.74,7.99 -5.76,0.31 -2.88,2.58 -6.6,-0.15 0.08,5.05 -4.1,8.76 -3.86,0.27 -3.9,5.79 -9.44,-2.86 -6.97,-3.22 -1.53,4.75 -5.44,7.16 -4.69,-4.07 -6.78,5.27 z"
       id="M11210"
       style="fill:#ffff80;fill-opacity:1;stroke:#000000;stroke-width:1.1582;stroke-dasharray:none;stroke-opacity:1" />
    <path
       d="m 745.78,389.93 -5.43,-0.42 4.4,-7.64 -2.43,-5.09 7.05,1.5 2.81,-5.3 0.51,-8.27 -1.74,-9.69 6.45,-0.71 1.68,1.85 0.52,6.12 3.89,16.68 6.47,4.11 5.23,0.15 2.97,4.91 -1.5,4.78 -7.56,5.88 2.02,8.23 -4.13,1.89 -6.22,-6.33 -3.61,-0.83 -3.52,4.24 -4.5,1.92 -3.74,-3.46 0.18,-6.62 2.8,-5.27 z"
       id="M11234"
       style="fill:#ffff80;fill-opacity:1;stroke:#000000;stroke-width:1.1582;stroke-dasharray:none;stroke-opacity:1" />
    <path
       d="m 530.05,225.36 -0.54,-4.42 3.57,-4.03 -6.62,-9.41 11.33,0.5 3.88,2.89 3.87,-4.19 5.87,0.97 -7.31,-10.56 3.59,-2.75 4.72,-0.58 9,6.17 4.77,-0.2 7.27,7.39 -5.28,5.24 1.84,8.94 -4.25,3.19 2.13,3.71 -2.93,4.09 -3.8,-4.86 -4.87,-1.71 -10.46,1.08 -3.3,5.41 -7.02,7.69 -3.54,0.12 -1.42,-4.99 2.32,-2.88 0.45,-5.55 z"
       id="M11233"
       style="fill:#ffff80;fill-opacity:1;stroke:#000000;stroke-width:1.1582;stroke-dasharray:none;stroke-opacity:1" />
    <path
       d="m 666.5,184.83 -2.45,5.61 -9.87,-1.67 2.96,10.31 -3.54,2.59 -3.62,-2.36 -4.44,0.58 -8.31,-3.83 -2.35,2.47 3.26,4.64 -6.19,1.78 -21.01,-5.49 -4.03,-3.98 -5.19,3.48 -1.46,7.11 -6.49,2.41 -4.29,4.15 -6.36,-2.17 -5.33,-3.42 -0.28,-4.07 -5.48,-6.15 -0.6,-4.61 2.62,-3.17 -1.14,-7.48 -2.64,-4.55 11.14,0.35 6.78,-5.27 4.69,4.07 5.44,-7.16 1.53,-4.75 6.97,3.22 9.44,2.86 3.9,-5.79 3.86,-0.27 4.1,-8.76 -0.08,-5.05 6.6,0.15 2.88,-2.58 5.76,-0.31 -2.74,-7.99 2.41,-2.9 5.64,-1.43 6.15,-3.95 -0.53,-8.52 12.35,-6.87 4.77,7.62 2.32,8.06 8.59,11.41 0.45,4.14 -4.35,-0.45 -0.28,5.86 -5.87,-0.13 -3.81,3.19 -3.76,-0.5 -4.74,6 -1.27,5.37 3.69,6.07 3.52,-1.23 4.31,3.27 0.73,4.42 z"
       id="M11232"
       style="fill:#ffff80;fill-opacity:1;stroke:#000000;stroke-width:1.1582;stroke-dasharray:none;stroke-opacity:1" />
    <path
       d="m 594.47,214 -3.23,15.42 -4.38,-0.84 -7.16,0.88 -2.56,3.53 2.73,5.45 -2.06,3.85 4,4.15 -8.55,0.25 -3.4,-2.48 -13.37,-1.38 -1.08,4.93 2.42,2.96 0.45,5.02 -4.55,6.64 -0.06,6.84 -7.98,-6.03 0.25,-7.61 -3.34,1.02 -3.99,-6.68 1.37,-2.81 -4.47,-7.19 7.02,-7.69 3.3,-5.41 10.46,-1.08 4.87,1.71 3.8,4.86 2.93,-4.09 -2.13,-3.71 4.25,-3.19 -1.84,-8.94 5.28,-5.24 4.06,-4.17 0.28,4.07 5.33,3.42 6.36,2.17 z"
       id="M11231"
       style="fill:#ffff80;fill-opacity:1;stroke:#000000;stroke-width:1.1582;stroke-dasharray:none;stroke-opacity:1" />
    <path
       d="m 582.61,383.43 -2.43,7.31 1.19,13.21 2.76,4.77 -1.01,4.02 5.81,1.26 4.55,6.05 -3.62,0.14 -4.37,6.06 -8.22,4.83 -5.48,4.77 -2.72,0.02 -7.13,5.13 0.46,-17.05 -11.77,4.67 1.29,-4.2 7.22,-5.29 0.54,-6.94 -4.17,-2.12 4.37,-4.75 2.09,-5.11 -3.7,-3.84 2.59,-4.36 -7.39,-5.48 2.92,-1.55 9.11,0.9 1.91,-4.69 4.59,5.91 7.27,-3.47 z"
       id="M11230"
       style="fill:#ffff80;fill-opacity:1;stroke:#000000;stroke-width:1.1582;stroke-dasharray:none;stroke-opacity:1" />
    <path
       d="m 436.91,353.23 -1.93,-2.14 -5.26,2.47 1.07,5.3 -4.73,2.15 0.51,18.5 -12.85,1.02 -6.86,6.35 -3.11,-5.4 -5.97,1.02 -0.95,-9.04 -12.97,-3.77 -6.68,-0.14 -7.65,3.05 -5.53,-1.86 -6.53,1.21 -3.57,-2.84 -3.14,2.96 -13.35,-8.26 -3.47,0.16 -2.91,4.33 -7.18,0.76 -12.14,-6.66 -7.46,-2.2 -2.58,-5.05 -7.96,-4.68 -8.17,-2.21 -15.86,0.58 -7.69,-2.08 5.26,-4.59 1.65,-7.74 5.24,-6.26 1.63,-4.76 -1.5,-5.73 -4.44,-4.61 1.29,-6.63 -0.93,-3.27 -5.35,-3.09 -1.18,-3.09 9.38,-2.97 6.6,-4.51 10.48,-2.57 1.09,-2.26 12.58,-3.17 3.69,-3.1 2.87,-8.27 2.97,-1.75 1.25,-6.66 7.89,2.39 7.49,0.9 0.22,2.64 7.43,5.1 3.56,6.1 6.64,2.85 5.87,12.78 4.27,1.61 6.8,5.14 6.65,-1.74 2.52,5.25 4.08,4.12 -1.66,9.19 4.4,1.04 1.56,3.08 -0.22,11.84 -2.51,6.51 4.64,3.96 4.44,-1.62 4.77,2.81 7.64,-3.82 5.63,0.25 1.57,-4.21 6.32,-3.86 4.78,3.45 7.69,-1.83 5.34,2.74 5.75,-2.58 4.95,1.64 -3.72,4.49 6.83,3.84 -6.55,7.61 z"
       id="M11209"
       style="fill:#ffff80;fill-opacity:1;stroke:#000000;stroke-width:1.1582;stroke-dasharray:none;stroke-opacity:1" />
    <path
       d="m 450.73,423.71 8.19,-0.75 1.08,-5.9 -4.51,-0.82 -1.81,-4.12 2.27,-9.52 -2.14,-4.83 10.04,-2.97 8.54,-3.93 3.84,-3.22 7.91,-0.11 0.94,-2.95 11.51,-7.49 -0.43,-1.55 9.54,-9.24 1.97,4.78 6.54,-1.74 1.24,1.94 3.06,-0.95 13.9,20.23 8.29,-2.83 11.25,-6.04 1.52,4.83 7.39,5.48 -2.59,4.36 -3.24,2.78 -5.1,8.13 -6.03,4.76 -4.19,-0.1 -4.92,4.74 -8.87,0.88 -2.63,2.12 -6.76,-0.66 -5.6,5.41 -6.65,0.02 -1.81,3.07 -9.12,2.49 -4.5,-1.07 -4.5,1.33 -6.27,-1.2 -1.78,1.57 -9.86,-2.7 -4.31,3.94 -4.23,0.93 -1.71,-3.19 -6.3,0.63 z"
       id="M11208"
       style="fill:#ffff80;fill-opacity:1;stroke:#000000;stroke-width:1.1582;stroke-dasharray:none;stroke-opacity:1" />
    <path
       d="m 669.8,240.51 -10.66,-3.09 -3.31,-4.22 -7.56,4.19 -7.56,-6.82 -1.66,-3.92 -7.77,1.33 -1.22,-17.38 -5.71,-0.9 -5.54,1.02 -3.73,2.93 -14.82,-7.58 1.46,-7.11 5.19,-3.48 4.03,3.98 21.01,5.49 6.19,-1.78 -3.26,-4.64 2.35,-2.47 8.31,3.83 4.44,-0.58 3.62,2.36 4.16,11.36 9.78,2.13 3.51,5.31 -2.9,6.22 5.63,5.9 z"
       id="M11246"
       style="fill:#ffff80;fill-opacity:1;stroke:#000000;stroke-width:1.1582;stroke-dasharray:none;stroke-opacity:1" />
    <path
       d="m 297.21,214.29 0.37,2.98 6.71,8.42 2.55,6.14 6.11,6.67 -1.07,7.21 -7.26,-5.49 -3.41,0.7 -21.94,-5.25 -4.47,2.96 -2.9,-1.24 -3.34,-7.1 -2.48,-1.07 -7.95,9.39 -0.89,5.56 -4.09,12.77 0.96,8.18 5.72,10.88 0.35,9.24 -1.41,4.54 4.89,7.21 1.18,3.09 5.35,3.09 0.93,3.27 -1.29,6.63 4.44,4.61 1.5,5.73 -1.63,4.76 -5.24,6.26 -1.65,7.74 -5.26,4.59 -5.79,-1.53 -6.12,-4.84 -6.7,2.61 -7.46,-1.64 -2.43,-3.14 -5.35,-1.11 -8.21,-8.5 -9.44,-6.85 -8.73,0.21 -2.61,6.2 -3.96,4.66 -3.27,-0.37 -7.13,2.7 -4.25,-3.17 -7.32,2.32 -1.89,3.67 -7.26,2.99 -7.74,11.61 0.72,4.43 -11.79,4.89 -10.35,-3.16 -7.91,4.98 -4.78,5.7 -4.29,-6.04 -3.99,0.17 -6.9,-8.55 -7.13,-0.27 -1.46,-5.84 -7.51,-2.3 -8.74,4.26 -2.63,-2.89 -5.92,0.42 -4.08,2.38 -3.49,-6.34 -7.68,-1.75 -3.46,-3.19 0.66,-4.94 -2.47,-9.37 -8.03,-5.95 -7.71,1.09 -4.95,-2.74 -6.16,0.66 -6.66,-3.51 -2.89,1.53 -4.02,-4.75 0.14,-6.22 6.31,-9.77 0.5,-8.37 -5.44,-5.01 -0.45,-4.28 -3.27,-6.06 -7.66,-6.56 -1.84,-4.78 0.31,-6.55 3.29,-11.4 6.21,-1.3 4.1,-3.2 7.79,-9.77 6.57,-15.1 0.57,-5.18 3.61,-0.27 6.28,-3.29 7.71,1.63 6.94,6.19 7.53,-3.33 7.97,-0.22 9.62,-3.02 6.97,2.99 2.02,2.68 -2.4,9.92 1.62,5.99 0.3,8.93 5.83,4.52 4.77,6.92 12.05,6.57 2.67,3.16 11.76,1.62 1.59,-1.93 13.18,6.07 5.84,-1.68 6.55,0.79 1.97,1.97 7.44,-2.55 0.32,-3.05 4.61,-5.06 3.3,1.19 4.73,-2.21 2.56,1.48 5.15,-3.16 7.64,5.58 7.28,-3.26 3.07,0.36 2.93,6.39 -0.1,4.45 10.91,-2.02 9.85,-8.45 4.66,-10.59 -6.52,-8.07 6.86,-6.31 -1.83,-4.9 1.31,-3.38 -5.52,-4.08 -2.64,3.06 -9.35,3.76 -9.93,-9.86 -4.38,0.22 -4.02,-2.73 -8.57,-2.87 -2.91,-3.29 -6.98,-4.13 2.14,-8.21 -11.85,-5.47 -6.23,-5.47 -1.57,-4.37 -6.6,-6.01 -1.56,-7.72 4.72,-3.97 4.49,-1.32 7.89,-9.32 1.27,-15.29 3.89,-1.51 3.87,1.39 4.35,5.84 0.35,6.2 4.04,1.42 6.86,10.6 9.74,-1.8 -2.59,7.91 6.96,2.36 3.78,5.89 10.27,6.64 5.99,-3.66 7.46,1.41 1.64,10.69 9.47,-2.02 8.47,-3.14 4.46,2 3.09,4.93 8.18,-1.78 5,3.44 2.45,7.34 -0.29,3.48 3.74,2.31 0.26,3.79 z"
       id="M11207"
       style="fill:#ffff80;fill-opacity:1;stroke:#000000;stroke-width:1.1582;stroke-dasharray:none;stroke-opacity:1" />
    <path
       d="m 484.5,144.67 -1.84,-2.03 1.41,-15.36 -5.68,-5.92 -0.2,-7.39 7.52,0.34 -1.03,-9.5 2.98,-1.25 -0.98,-8.53 -7.46,0.62 -1.63,-1.52 -1.74,-14.95 2.8,-6.82 12.65,2.76 1.54,-2.06 6.81,4.48 5.39,1.58 8.08,0.05 14.16,-2.6 0.65,4.25 3.48,3.93 -2.51,5.01 -6.27,0.24 -0.37,2.91 6.45,8.87 0.37,5.51 9.14,1.2 3.02,13.38 5.44,-0.08 7.46,9.64 -3.08,7.44 -2.72,-0.2 -11.05,-5.62 -2.9,7.81 -6.26,2.98 0.52,3.98 3.32,2.56 -6.05,9.89 -3.89,0.33 -5.71,-9.95 -6.47,-3.73 -2.4,-4 -5,0.98 -7.51,-4.98 -4.11,0.16 z"
       id="M11206"
       style="fill:#ffff80;fill-opacity:1;stroke:#000000;stroke-width:1.1582;stroke-dasharray:none;stroke-opacity:1" />
    <path
       d="m 595.53,420.32 0.64,-3.86 4.24,-8.07 6.56,-3.38 0.13,-7.42 6,-3.32 3.62,3.04 7.88,2.74 3.89,4.13 -3.85,0.15 -0.78,4.01 -9.99,9.96 -1.03,11.54 -3.86,-2.88 -9.45,-0.42 0.82,-3.44 z"
       id="M11229"
       style="fill:#ffff80;fill-opacity:1;stroke:#000000;stroke-width:1.1582;stroke-dasharray:none;stroke-opacity:1" />
    <path
       d="m 664.05,190.44 -1.4,5.76 7.52,7.33 -0.54,3.34 9.29,4.55 3.79,3.41 3.44,-0.08 4.09,4.22 3.87,1.25 5.2,5.1 0.22,3.95 -3.77,2.7 -1.84,4.19 -0.81,1.57 -12.06,0.48 -7.27,-5.62 -5.63,-5.9 2.9,-6.22 -3.51,-5.31 -9.78,-2.13 -4.16,-11.36 3.54,-2.59 -2.96,-10.31 z"
       id="M11442"
       style="fill:#ffff80;fill-opacity:1;stroke:#000000;stroke-width:1.1582;stroke-dasharray:none;stroke-opacity:1" />
    <path
       d="m 662.97,403.7 -1.63,-2.48 2.44,-5.69 0.43,-5.8 5.22,-3.26 1.71,-5.84 -13.07,-2.39 -8.91,-2.9 1.22,-6.4 -2.48,-8.35 8.61,2.5 5.14,-0.91 2.29,-9.59 3.35,-1.79 9.23,0.02 1.58,-6.65 -4.48,-5.3 13.2,1.09 3.63,4.54 2.06,-10.94 7.12,2.34 6.01,7.88 5.78,3.71 -4.2,2.43 2.03,6.01 5.37,3.67 -2.21,2.66 4.92,5.24 0.28,7.53 6.18,6.95 -13.88,5.79 -4.25,3.97 -7.05,2.25 -0.08,2.9 6.79,7.67 -3.87,8.7 -4.13,0.75 -7.4,4.53 0.48,-5.7 -3.13,-2.18 -6.32,2.29 -1.49,-2.86 -8.76,-1.07 z"
       id="M11203"
       style="fill:#ffff80;fill-opacity:1;stroke:#000000;stroke-width:1.1582;stroke-dasharray:none;stroke-opacity:1" />
    <path
       d="m 602.38,373.63 -8.18,6.42 -5.82,-3.67 -3.58,1.76 -2.19,5.29 -3.34,0.2 -7.27,3.47 -4.59,-5.91 -0.01,-2.16 10.47,-5.83 4.97,-10.12 1.62,-7.59 2.97,-3.19 4.39,6.84 5.68,5.97 3.39,0.79 z"
       id="M11228"
       style="fill:#ffff80;fill-opacity:1;stroke:#000000;stroke-width:1.1582;stroke-dasharray:none;stroke-opacity:1" />
  </g>
</svg>
