<?xml version="1.0" encoding="UTF-8" standalone="no"?>
<svg
   version="1.2"
   width="690"
   height="600"
   viewBox="0 0 690 600"
   stroke-linecap="round"
   stroke-linejoin="round"
   id="svg7629"
   sodipodi:docname="ts.svg"
   inkscape:version="1.2 (dc2aedaf03, 2022-05-15)"
   xmlns:inkscape="http://www.inkscape.org/namespaces/inkscape"
   xmlns:sodipodi="http://sodipodi.sourceforge.net/DTD/sodipodi-0.dtd"
   xmlns="http://www.w3.org/2000/svg"
   xmlns:svg="http://www.w3.org/2000/svg">
  <defs
     id="defs7633" />
  <sodipodi:namedview
     id="namedview7631"
     pagecolor="#505050"
     bordercolor="#eeeeee"
     borderopacity="1"
     inkscape:showpageshadow="0"
     inkscape:pageopacity="0"
     inkscape:pagecheckerboard="0"
     inkscape:deskcolor="#505050"
     showgrid="false"
     inkscape:zoom="1.3730835"
     inkscape:cx="344.48015"
     inkscape:cy="252.71588"
     inkscape:window-width="1920"
     inkscape:window-height="1009"
     inkscape:window-x="-8"
     inkscape:window-y="-8"
     inkscape:window-maximized="1"
     inkscape:current-layer="svg7629" />
  <g
     id="ts"
     transform="matrix(0.86340852,0,0,0.86340852,-0.36340948,46.589602)"
     style="fill:#ffff80;fill-opacity:1;stroke:#000000;stroke-width:1.1582;stroke-dasharray:none;stroke-opacity:1">
    <path
       d="m 506.21,438.29 -1.28,4.97 0.67,4.18 -5.46,1.02 -14.13,6.44 -0.2,4.46 -3.03,2.4 3.57,11.09 -2.34,3.66 7.43,4.85 0.89,5.55 3.8,6.44 6.84,5.93 -3.48,7.57 -9.85,5.6 -4.09,8.57 16.18,-0.1 0.19,4.02 -3.75,4.37 -7.87,3.86 -4.94,6.26 -1.82,4.9 1.79,4.28 -6.91,6.13 0.67,4.13 -11.26,0.28 -6.52,-3.3 -7.94,0.25 -1.27,4.43 -4.94,3.8 -0.11,6.72 5.7,4.95 -1.99,10 -4.5,-0.92 -2.62,-5.93 -11.33,-4.86 -9.29,-0.68 -2.57,4.76 -4.89,-1.29 -3.24,2.6 -6.21,0.31 -4.02,-2.49 -3.33,2.47 -4.32,-2.26 -2.42,-4.42 -6.89,-5.39 -4.82,0.48 -6.5,3.7 -6.26,0.7 1.5,-5.86 -5.22,-5.82 0.53,-4.37 -2.63,-6.29 -4.09,-4.51 -5.65,-2.34 1.34,-10.43 -11.4,-1.8 -2.63,-5.29 1.89,-3.96 -3.21,-6.26 9.47,-4.04 4.52,-5.38 9.38,-5.84 -8.84,-7.16 2.77,-3.23 -4.4,-7.58 4.48,-4.27 -0.47,-6.66 -7.53,-3.42 -0.77,-7.04 5.46,-2.22 2.16,-3.38 11.34,-6.12 5.06,-1.5 7.76,-4.64 1.49,-2.87 13.16,0.21 2.29,1.77 9.35,-3.88 4.18,4.16 7.2,-1.43 5.24,-5.7 7.6,-2.84 4.21,2.92 4.29,-2.5 7.43,-1.43 3.34,1.2 6.94,-1.42 6.34,3.98 4.82,-2.26 3.32,2.39 9.83,-0.71 4.65,-2.09 4.15,3.75 z"
       id="M36388"
       style="fill:#ffff80;fill-opacity:1;stroke:#000000;stroke-width:1.1582;stroke-dasharray:none;stroke-opacity:1" />
    <path
       d="m 504.93,443.26 1.28,-4.97 3.65,-3.9 1.42,-8.89 7.64,-1.48 6.48,-9.21 -1.03,-3.63 4.35,-3.97 7.34,-0.39 8.12,-3.21 -2.3,-5.05 9.24,-2.39 4,-3.45 6.56,1.31 3.74,-3.51 -0.19,-3.72 7.2,-6.28 5.87,1.51 18.83,-7.08 1.04,-2.62 2.26,0.88 11.91,-2.51 9.11,10.35 6.05,0.33 4.56,5.67 7.44,0.35 5.67,-3.08 9.46,0.29 3.39,-4.88 5.47,-3.83 2.61,0.47 19.26,-7.56 5.12,-0.96 1.63,-3.4 6.99,-2.32 2.87,9.87 -6.36,2.05 -14.87,10.69 -8.52,2.06 -10.67,-0.05 -2.56,4.43 -5.2,1.36 -2.5,5.61 -6.49,6.72 -1.49,-4.54 -9.18,0.14 0.76,5.59 -7.96,1.33 3.39,6.93 -2.62,8.05 -3.17,3.98 -0.51,5.28 -5.48,-4.06 -7.56,-0.51 -3.47,2.99 0.99,11.75 -8.43,7.26 -11.51,7.38 -2.81,3.31 -3.73,-0.69 -2.49,4.26 -4.11,0.3 -5.86,4.97 -9.77,4.91 2.09,-2.97 -0.68,-7.39 -6.66,0.13 -5.77,-8.87 0.75,-4.4 -1.6,-7.1 -4.49,-3.84 -9.62,3.37 -5.15,3.35 -4.16,-2.72 -6.08,-0.91 -6.93,1.42 z"
       id="M36387"
       style="fill:#ffff80;fill-opacity:1;stroke:#000000;stroke-width:1.1582;stroke-dasharray:none;stroke-opacity:1" />
    <path
       d="m 502.97,499.28 -6.84,-5.93 -3.8,-6.44 -0.89,-5.55 -7.43,-4.85 2.34,-3.66 -3.57,-11.09 3.03,-2.4 0.2,-4.46 14.13,-6.44 5.46,-1.02 -0.67,-4.18 6.56,0.31 6.93,-1.42 6.08,0.91 4.16,2.72 5.15,-3.35 9.62,-3.37 4.49,3.84 1.6,7.1 -0.75,4.4 5.77,8.87 6.66,-0.13 0.68,7.39 -2.09,2.97 -18.71,10.42 -0.76,2.23 -10.1,2.23 -7.36,-1.29 -0.97,7.5 -3.85,1.82 -5.06,-4.77 -5.89,3.11 0.55,4.57 z m 66.47,4.64 10.27,7.01 -2.83,4.22 -4.81,-0.59 -4.36,-6.57 z"
       fill-rule="evenodd"
       id="M36383"
       style="fill:#ffff80;fill-opacity:1;stroke:#000000;stroke-width:1.1582;stroke-dasharray:none;stroke-opacity:1" />
    <path
       d="m 528.09,165.92 -2.62,4.05 4.63,6.94 -1.71,10.25 5.67,5.58 4.73,2.57 5.77,-2.66 2.09,5.27 -2.57,5 -5.04,-1.22 -3.51,2.31 0.21,7.44 -4.96,3.16 -2.23,-1.78 -10.8,9.48 -0.09,7.06 -3.43,2.52 -0.91,9.82 -2.99,1.42 0.2,7.21 0.14,4.85 -8.19,3.85 -3.9,-1.28 -12.36,7.39 -8.84,0.84 -8.27,6.17 -9.78,-7.86 -8.51,6.92 -7.22,0.12 -3.38,12.93 -5.74,2.97 -2.82,-6.94 -16.64,-2.07 -9.06,1.92 -12.06,6.14 -7.01,-1.15 -0.43,-7.26 2.84,-7.71 4.01,-4.98 -2.5,-13.55 4.95,-4.49 7.2,-2.25 1.66,-7.81 6.48,-6.51 -3.45,-4.48 3.4,-4.7 8.79,-2.4 3.91,-3.13 5.42,1.29 4.1,-7.47 7.09,-5.13 12.61,0.06 8.78,-5.81 2.9,-5.91 0.48,-7.91 5.52,-1.12 7.98,-6.72 8.45,8.64 3.79,-4.67 0.14,-3.68 8.69,-4.6 6.35,-6.81 6.67,0.45 4.67,-3.77 7.69,0.49 z"
       id="M36342"
       style="fill:#ffff80;fill-opacity:1;stroke:#000000;stroke-width:1.1582;stroke-dasharray:none;stroke-opacity:1" />
    <path
       d="m 528.09,165.92 -3.01,-2.72 -7.69,-0.49 -4.67,3.77 -0.89,-11.3 -3.69,-17.67 18.32,-12.48 15.56,-2.77 2.1,1.2 6.06,-6.88 0.16,1.22 0.39,7.94 -3.41,1.87 0.26,8.7 5.36,1.62 0.66,7.24 2.69,5.47 1.25,7.76 -17.19,7.3 -4.39,-0.86 z"
       id="M36341"
       style="fill:#ffff80;fill-opacity:1;stroke:#000000;stroke-width:1.1582;stroke-dasharray:none;stroke-opacity:1" />
    <path
       d="m 506.21,438.29 -18.01,-1.67 -4.15,-3.75 -4.65,2.09 -9.83,0.71 -3.32,-2.39 -4.82,2.26 -6.34,-3.98 -6.94,1.42 -3.34,-1.2 -7.43,1.43 -4.29,2.5 -4.21,-2.92 -7.6,2.84 -5.24,5.7 -7.2,1.43 -4.18,-4.16 -9.35,3.88 -2.29,-1.77 -13.16,-0.21 -1.49,2.87 -7.76,4.64 -5.06,1.5 -11.34,6.12 -2.16,3.38 -5.46,2.22 0.77,7.04 -10.53,2 -15.35,-8.42 -18.15,1.05 -12.73,3.43 -10.37,1.52 -6.71,-4.37 4.77,-5.15 2,-7.75 2.53,-1.39 -3.49,-6.83 2.33,-7.36 -8.48,-19.52 1.97,-7.49 -0.12,-12.97 -2.39,-6.64 -6.5,-4.39 0.49,-7.51 -4.03,-2.33 -5.11,-6.12 2.46,-9.16 -2.79,-6.68 4.78,-5.49 6.69,0.62 8.08,-3.1 2.63,-2.44 9.25,-4.15 4.74,1.67 7.3,-9.13 10.02,1.86 1.02,-2.27 9.07,-1.65 6.9,-6.69 8.87,-3.19 4.79,2.98 6.67,0.11 5.52,-3.6 3.09,-6.32 9.1,-6.42 5.06,0.32 5.79,3.45 3.57,-3.65 7.13,-3.16 6.68,0.29 5.21,-2.47 -1.56,-8.37 -3.66,-5.1 12.06,-6.14 9.06,-1.92 16.64,2.07 2.82,6.94 5.74,-2.97 6.4,3.3 3.11,5.76 8.76,10.53 -2.2,7.42 2.84,2.7 0.56,8.88 6.03,-0.73 4.17,4.27 7.21,2.32 -0.98,4.13 6.7,2.64 8.87,-5.57 9.34,3.39 10.1,-4.01 3.44,0.69 5.49,-3.98 4.35,1.97 5.58,-0.99 14.81,-2.9 8.24,-3.19 3.63,-3.05 7.41,-0.91 7.03,1.86 5.69,-2.23 0.12,4.75 16.4,-7.07 13.41,0.81 5.7,3.94 3.87,-0.72 1.41,4.57 -0.18,7.78 -11.52,1.7 -9.98,8.37 -0.98,6.75 -5.96,4.31 -3.37,4.95 -1.55,8.24 2.73,5.4 7.2,-1.22 4.07,3.2 -1.04,2.62 -18.83,7.08 -5.87,-1.51 -7.2,6.28 0.19,3.72 -3.74,3.51 -6.56,-1.31 -4,3.45 -9.24,2.39 2.3,5.05 -8.12,3.21 -7.34,0.39 -4.35,3.97 1.03,3.63 -6.48,9.21 -7.64,1.48 -1.42,8.89 z"
       id="M36368"
       style="fill:#ffff80;fill-opacity:1;stroke:#000000;stroke-width:1.1582;stroke-dasharray:none;stroke-opacity:1" />
    <path
       d="m 550.18,116.58 -6.06,6.88 -2.1,-1.2 -15.56,2.77 -18.32,12.48 -1.06,-4.34 -1.17,-9.73 5.14,-3.99 -1.85,-6.08 -8.67,2.07 -4.69,-8.18 -1.13,-5.24 3.62,-7.14 -10.52,-14.2 1.82,-7.35 3.55,-6.09 5.13,-0.29 1.64,5.85 5.62,1.29 4.41,-3.51 7.84,5.21 1.02,3.84 5.16,8.35 4.44,2.77 2.01,13.79 7.38,5.95 0.8,4.52 11.12,-1.82 z"
       id="M36405"
       style="fill:#ffff80;fill-opacity:1;stroke:#000000;stroke-width:1.1582;stroke-dasharray:none;stroke-opacity:1" />
    <path
       d="m 549.75,113.19 -11.12,1.82 -0.8,-4.52 -7.38,-5.95 -2.01,-13.79 -4.44,-2.77 -5.16,-8.35 4.59,-0.88 3.85,-6.46 5.98,-3.16 -0.16,-7.71 -3.01,-3.8 6.62,-6.22 10.88,-1.4 0.07,4.42 5.31,8.17 11.03,-1.03 1.4,7.28 2.58,5.22 -0.12,6.4 1.8,6.59 -6.34,6.7 -0.34,7.69 -4.64,1.01 0.48,8.78 z"
       id="M36404"
       style="fill:#ffff80;fill-opacity:1;stroke:#000000;stroke-width:1.1582;stroke-dasharray:none;stroke-opacity:1" />
    <path
       d="m 550.34,117.8 -0.16,-1.22 -0.43,-3.39 9.07,-1.96 -0.48,-8.78 4.64,-1.01 0.34,-7.69 6.34,-6.7 3.32,-0.08 5.15,4.2 7.79,0.05 7.53,6.67 5.99,3.29 -0.42,5.22 -7.63,1.16 -8.19,4.06 -0.94,7.81 -11.75,1.96 -12.46,-5.69 z"
       id="M36403"
       style="fill:#ffff80;fill-opacity:1;stroke:#000000;stroke-width:1.1582;stroke-dasharray:none;stroke-opacity:1" />
    <path
       d="m 687.67,319.47 2.32,3.93 -4.86,7.85 -6,-4.23 5.07,-7.32 z m 14.3,52.53 -2.87,-9.87 -6.99,2.32 -1.63,3.4 -5.12,0.96 -19.26,7.56 -2.61,-0.47 -5.47,3.83 -3.39,4.88 -9.46,-0.29 -5.67,3.08 -7.44,-0.35 -4.56,-5.67 -6.05,-0.33 -9.11,-10.35 -11.91,2.51 -2.26,-0.88 -4.07,-3.2 -7.2,1.22 -2.73,-5.4 1.55,-8.24 3.37,-4.95 5.96,-4.31 0.98,-6.75 9.98,-8.37 11.52,-1.7 0.18,-7.78 -1.41,-4.57 -3.87,0.72 -5.7,-3.94 -13.41,-0.81 -16.4,7.07 -0.12,-4.75 -5.69,2.23 -7.03,-1.86 -7.41,0.91 3.89,-9.71 -3.12,-3.51 -0.29,-5.49 16.51,-15.28 7.88,2.43 7.38,-5 11.09,-3.33 0.6,-4.93 7.99,-5.98 10.02,-1.92 1.88,-5.14 3.61,0.86 6.37,-4.65 15.94,-4.34 9.38,-0.96 -0.37,-5.15 2.83,-5.53 6.79,-4.25 6.84,4.1 6.4,-15.39 5.19,-2.98 8.86,17.21 3.98,3.32 10.62,3.14 6.76,4.62 6.65,21.38 -4.17,6.51 0.75,4.02 -3.29,8.03 -5.1,2.08 -3.01,7.37 -5.86,5.14 -4.35,0.56 -1.31,4.98 -7.69,5.68 -14.09,3.03 -4.14,6.58 6.07,1.35 5.25,7.47 -2.28,5.91 7.45,-1.33 2.83,-3.4 3.59,1.18 18.82,-3.59 1.48,2.85 10.55,-1.96 7.41,2.5 -7.04,4.31 -7.36,0.28 -12.57,6.34 0.24,3.2 12.67,-2.35 1.84,-2.37 14,3.26 6.27,-5.21 8.06,-2.96 4.3,8.14 -7.57,2.39 -5.72,4.81 -4.97,-0.21 -1.75,2.99 -16.38,6.41 -4.4,5.78 z m 97.03,-43.8 -0.88,10.98 -4.66,3.1 -3.91,-2.18 1.69,-3.83 z"
       fill-rule="evenodd"
       id="M36204"
       style="fill:#ffff80;fill-opacity:1;stroke:#000000;stroke-width:1.1582;stroke-dasharray:none;stroke-opacity:1" />
    <path
       d="m 683.48,221.7 -5.19,2.98 -6.4,15.39 -6.84,-4.1 -6.79,4.25 -2.83,5.53 0.37,5.15 -9.38,0.96 -15.94,4.34 -6.37,4.65 -3.61,-0.86 6.31,-4.37 0.19,-6.52 -2.13,-7.83 2.25,-1.58 1.46,-12.36 -5.9,-10.62 -11.56,3.61 2.06,-12.42 4.99,-5.97 -0.95,-8.91 14.12,-0.76 8.36,-1.28 4.89,4.42 3.4,-1 -6,2.24 -0.04,6.7 5.19,3.53 0.44,3.94 8.25,6.02 10.75,0.25 2.61,-6.91 -4.44,-3.58 0.85,-4.13 4.51,-1.39 5.67,3.6 6.8,12.95 z"
       id="M36203"
       style="fill:#ffff80;fill-opacity:1;stroke:#000000;stroke-width:1.1582;stroke-dasharray:none;stroke-opacity:1" />
    <path
       d="m 569.66,87.05 -1.8,-6.59 0.12,-6.4 -2.58,-5.22 -1.4,-7.28 -11.03,1.03 -5.31,-8.17 -0.07,-4.42 -10.88,1.4 0.93,-13.68 8.93,1.44 12.79,-2.68 4.74,-2.97 3.54,-5.37 8.76,-4.66 14.59,-1.55 16.31,-0.09 3.87,2.23 8.51,1.74 3.15,-2.57 5.71,1.71 -4.31,-8.38 3.27,-3.88 10.56,-2.07 0.08,6.22 2.94,6.88 -5.6,11.44 2.82,7.51 6.2,5.01 10.79,3.73 9.12,8.37 9.23,-0.67 2.84,1.29 -2.86,7.61 -5.5,9.22 -9.31,12.75 2.22,2.94 -12.83,-6.36 -6.77,1.79 -9.74,-7.48 -8.67,3.51 -3.14,6.14 -12.96,3.23 -2.09,3.82 -5.39,3.61 -5.99,-3.29 -7.53,-6.67 -7.79,-0.05 -5.15,-4.2 z m 108.11,-76.16 -4.44,8.47 0.36,3.83 -4.66,6.17 -2.57,7.88 -1.06,17.09 -7.35,-5.87 -3.25,-0.19 -13.31,-5.67 -1.48,-7.87 8.18,-0.06 4.99,-3.61 9.77,3.14 -0.66,-5.04 -4.59,-1.68 -0.61,-4.22 2.71,-4.57 8.19,-0.9 4.72,-2.01 z M 653.05,1 l 4.01,0.74 2.91,5.44 -2.03,2.4 1.67,5.72 -4.38,3.9 -3.94,-0.23 -4.9,7.05 -7.14,-7.82 3.77,-9.54 z"
       fill-rule="evenodd"
       id="M36202"
       style="fill:#ffff80;fill-opacity:1;stroke:#000000;stroke-width:1.1582;stroke-dasharray:none;stroke-opacity:1" />
    <path
       d="m 544.08,202.92 2.57,-5 -2.09,-5.27 -5.77,2.66 -4.73,-2.57 -5.67,-5.58 1.71,-10.25 -4.63,-6.94 2.62,-4.05 7.87,-1.08 4.39,0.86 17.19,-7.3 -1.25,-7.76 -2.69,-5.47 -0.66,-7.24 -5.36,-1.62 -0.26,-8.7 3.41,-1.87 -0.39,-7.94 7.71,-2.1 12.46,5.69 11.75,-1.96 0.94,-7.81 8.19,-4.06 7.63,-1.16 2.9,-0.48 4.21,10.34 8.73,2.11 3.68,-9.72 11.66,-6.98 7.59,2.67 7.23,10.21 3.65,10.15 4.07,1.44 -3.05,14.3 -3.87,9.11 -0.32,3.93 -7.77,13.03 3.69,6.44 -2.81,7.77 1.32,5.99 6.52,4.07 1.54,3.62 -3.4,1 -4.89,-4.42 -8.36,1.28 -14.12,0.76 0.95,8.91 -4.99,5.97 -2.06,12.42 11.56,-3.61 5.9,10.62 -1.46,12.36 -2.25,1.58 -8,2.18 -1.69,-1.47 -10.32,5.03 -3.63,-3.65 -5.94,-0.37 -3.66,-2.49 -5.75,0.9 -6.92,-6.2 -9.42,1.32 -3.26,-12.36 3.46,-5.24 7.09,-4.98 -1.64,-15.41 -3.65,-5.45 -4.99,-1.72 -10.15,5.56 -0.77,4.84 -3.56,2.91 z m 103.55,-47.91 4.54,3.43 -2.31,5.19 -3.88,1.96 -4.46,-1.88 4.12,-9.29 z"
       fill-rule="evenodd"
       id="M36201"
       style="fill:#ffff80;fill-opacity:1;stroke:#000000;stroke-width:1.1582;stroke-dasharray:none;stroke-opacity:1" />
    <path
       d="m 599.02,106.4 0.42,-5.22 5.39,-3.61 2.09,-3.82 12.96,-3.23 6.22,3.02 -2.67,5.27 6.77,2.86 -11.66,6.98 -3.68,9.72 -8.73,-2.11 -4.21,-10.34 z"
       id="M36402"
       style="fill:#ffff80;fill-opacity:1;stroke:#000000;stroke-width:1.1582;stroke-dasharray:none;stroke-opacity:1" />
    <path
       d="m 619.88,90.52 3.14,-6.14 8.67,-3.51 9.74,7.48 6.77,-1.79 12.83,6.36 4.18,3.62 -1.47,6.96 -4.93,-0.47 -8.2,7.83 -1.99,9.98 4.12,5.3 -4.07,-1.44 -3.65,-10.15 -7.23,-10.21 -7.59,-2.67 -6.77,-2.86 2.67,-5.27 z"
       id="M36401"
       style="fill:#ffff80;fill-opacity:1;stroke:#000000;stroke-width:1.1582;stroke-dasharray:none;stroke-opacity:1" />
    <path
       d="m 296.47,314.23 -9.05,2.48 -7.88,-0.56 -1.88,1.68 -9.9,-4.48 -4.58,-9.78 4.05,-6.61 -9.15,-4.65 -5.02,1.9 -7.5,-1.97 -3.91,-3.87 -5.16,-0.88 -0.9,-6.47 1.6,-2.7 -7.65,-4.72 -12.22,-1.62 -3.75,-5.08 -2.12,-6.37 7.31,-5.73 -3.32,-11.88 8.28,-10.69 7.84,-4.55 2.07,-7.71 2.09,-2.14 0.17,-9 -2.64,-2.74 3.99,-17.83 -3.1,-9.18 0.46,-0.12 10.66,-1.58 3.98,-4.13 15.03,1.03 19.15,-3.57 2.29,-3.94 9.52,-5.01 4.94,5.76 -1.52,5.01 4.04,6.12 9,5.95 1.65,9.91 3.07,1.41 -1.72,10.99 -4.89,5.24 1.83,8.56 -2.75,6.1 0.25,11.04 -7.06,8.3 0.57,5.76 4.24,5.78 -0.15,4.93 -3.2,10.49 5.15,2.38 12.34,0.22 1.02,6.06 -2.07,1.91 1.08,8.82 -2.7,9.07 -7.94,2.32 -7.65,6.9 -6.96,0.1 z"
       id="M36468"
       style="fill:#ffff80;fill-opacity:1;stroke:#000000;stroke-width:1.1582;stroke-dasharray:none;stroke-opacity:1" />
    <path
       d="m 234.14,179.08 3.1,9.18 -3.99,17.83 2.64,2.74 -0.17,9 -2.09,2.14 -2.07,7.71 -7.84,4.55 -8.28,10.69 -9.07,-0.61 -3.17,-2.42 0.55,-5.83 -3.43,-2.66 -11.2,-0.83 -3.52,1.17 -7.45,-2.66 -0.44,-13.41 -7.72,-9.93 -0.09,-4.25 -6.74,-10.27 -3.11,-10.68 -7.11,3.27 -5.29,-2.31 -11.35,-1.73 -2.32,-7.35 -6.07,-3.32 -1.17,-5.56 -7.31,-4.54 -4.62,-8.43 -4.07,-2.09 -1.11,-4.72 3.06,-4.24 -0.83,-5.73 8.51,-5.01 5.52,2.3 8.73,-7.64 5.63,-0.97 2.8,4.31 4.71,-0.82 13.03,-5.87 7.05,6.75 -2.89,2.84 3.08,8.33 6.09,5.88 6.27,9.33 1.82,4.48 -0.24,10.69 7.87,1.09 9.23,4.68 7.61,1.64 6.62,3.13 7.11,-3.17 z"
       id="M36489"
       style="fill:#ffff80;fill-opacity:1;stroke:#000000;stroke-width:1.1582;stroke-dasharray:none;stroke-opacity:1" />
    <path
       d="m 300.63,330.17 -7.3,9.13 -4.74,-1.67 -9.25,4.15 -2.63,2.44 -8.08,3.1 -6.69,-0.62 -4.78,5.49 -14.11,5.48 -11.29,-0.12 -4.12,-5.51 -1.93,-6.7 -5.54,-0.68 -13.3,2.35 -5.97,4.95 1.12,10.92 -3.62,9.73 -4.28,3.79 -11.28,-1.2 -8.33,7.62 -3.29,-3.16 -4.78,0.7 -3.5,-6.62 -16.26,-3.16 0.1,-3.28 -4.22,-7.5 -6.54,-7.2 -2.3,-5.54 -6.62,-2.93 -3.59,-5.83 -7.03,0.35 -7.38,6.15 -6.02,-0.58 -14.07,1.48 -1.29,-3.81 -7.53,-1.21 -13.46,4.86 -5.5,-0.28 -5.11,-5.05 -0.43,-4.07 -7.74,-2.73 -6.52,1.49 -8.18,-1.99 -4.03,1.56 -4.74,-5.37 -11.81,-1.87 -4.08,-5.35 -6.1,-4.43 -1.49,-9.5 0.81,-3.3 11.03,-6.05 -2.36,-8.37 2.11,-5.28 3.14,-0.73 4,-4.82 -1.6,-7.85 -6.85,-0.55 0.55,-5.44 3.64,-4.26 7.44,-4.9 0.04,-3.19 -3.78,-6.22 3.6,-5.91 -8.29,-6.44 2.62,-5.12 -2.41,-6.45 -3.82,0.41 0.96,-7.31 6.37,-9.27 -4.26,-7.35 6.17,0.11 8.1,-4.5 5.85,2.04 8.64,-5.77 1.21,-11.76 4.07,-6.39 14.12,-8.39 9.56,-10.42 0.01,-2.51 8.02,-3.68 2,-3.88 5.06,-0.72 7.26,7.84 2.89,0.68 13.84,-3.72 4.07,2.09 4.62,8.43 7.31,4.54 1.17,5.56 6.07,3.32 2.32,7.35 11.35,1.73 5.29,2.31 7.11,-3.27 3.11,10.68 6.74,10.27 0.09,4.25 7.72,9.93 0.44,13.41 7.45,2.66 3.52,-1.17 11.2,0.83 3.43,2.66 -0.55,5.83 3.17,2.42 9.07,0.61 3.32,11.88 -7.31,5.73 2.12,6.37 3.75,5.08 12.22,1.62 7.65,4.72 -1.6,2.7 0.9,6.47 5.16,0.88 3.91,3.87 7.5,1.97 5.02,-1.9 9.15,4.65 -4.05,6.61 4.58,9.78 9.9,4.48 1.88,-1.68 7.88,0.56 9.05,-2.48 0.54,7.24 z m -66.03,-151.21 -0.46,0.12 -13.73,-3.32 -7.11,3.17 -6.62,-3.13 -7.61,-1.64 -9.23,-4.68 -7.87,-1.09 0.24,-10.69 -1.82,-4.48 -6.27,-9.33 -6.09,-5.88 -3.08,-8.33 2.89,-2.84 5.83,-3.6 7.39,-8.31 6.66,-1.33 5.37,0.93 -1.47,5.58 4.68,5.34 -0.37,6.03 8.67,5.31 1.82,4.66 6.83,1.03 2.75,6.83 2.68,-2.27 8.13,0.74 3.57,1.87 3.93,-1.8 -0.75,5.25 1.71,8.57 -1.45,10.91 z"
       fill-rule="evenodd"
       id="M36208"
       style="fill:#ffff80;fill-opacity:1;stroke:#000000;stroke-width:1.1582;stroke-dasharray:none;stroke-opacity:1" />
    <path
       d="m 407.65,226.1 3.45,4.48 -6.48,6.51 -1.66,7.81 -7.2,2.25 -4.95,4.49 2.5,13.55 -4.01,4.98 -2.84,7.71 0.43,7.26 7.01,1.15 3.66,5.1 1.56,8.37 -5.21,2.47 -6.68,-0.29 -7.13,3.16 -3.57,3.65 -5.79,-3.45 -5.06,-0.32 -9.1,6.42 -3.09,6.32 -5.52,3.6 -6.67,-0.11 -4.79,-2.98 -8.87,3.19 -6.9,6.69 -9.07,1.65 -1.02,2.27 -10.02,-1.86 -3.62,-8.7 -0.54,-7.24 -0.67,-3.34 6.96,-0.1 7.65,-6.9 7.94,-2.32 2.7,-9.07 -1.08,-8.82 2.07,-1.91 -1.02,-6.06 -12.34,-0.22 -5.15,-2.38 3.2,-10.49 0.15,-4.93 -4.24,-5.78 -0.57,-5.76 7.06,-8.3 -0.25,-11.04 2.75,-6.1 -1.83,-8.56 4.89,-5.24 1.72,-10.99 -3.07,-1.41 -1.65,-9.91 -9,-5.95 -4.04,-6.12 1.52,-5.01 -4.94,-5.76 -9.52,5.01 -2.29,3.94 -19.15,3.57 -15.03,-1.03 -3.98,4.13 -10.66,1.58 -0.78,-6.38 1.45,-10.91 -1.71,-8.57 0.75,-5.25 1.76,-5.05 5.67,-4.9 7.81,1.9 4.14,-2.45 -1.5,-3.71 3.88,-4.57 6.05,-2.89 3.13,-10.71 6.07,-3.53 5.48,5.8 6.58,-1.4 7.33,-7.12 8.9,5.56 7.91,-2.11 11.26,-1.38 6.08,-5.47 1.04,-3.48 4.57,-3.76 -2.74,-14.84 5.83,-5.58 1.34,-4.89 8.53,-2.52 10.3,-6.84 15.12,3.25 2.22,-2.89 4.14,2.21 3.05,-1.69 8.3,8.96 0.42,7.54 -2.9,2.7 0.19,9.36 -4.36,5.86 -1.33,14.89 -7.66,7.77 -1.22,5.54 -3.47,4.67 -5.71,3.04 -2.87,6.59 2.16,8.64 3.02,6.83 3.43,4.26 -0.97,5.17 5.87,10.13 -0.4,8.52 -10.37,11.26 4.51,2.87 -1.76,5.03 7.59,6.07 1.07,9.01 3.31,4.82 14.27,3.19 z"
       id="M36207"
       style="fill:#ffff80;fill-opacity:1;stroke:#000000;stroke-width:1.1582;stroke-dasharray:none;stroke-opacity:1" />
    <path
       d="m 493.18,67.24 -3.55,6.09 -1.82,7.35 10.52,14.2 -3.62,7.14 1.13,5.24 4.69,8.18 8.67,-2.07 1.85,6.08 -5.14,3.99 1.17,9.73 -13.49,4.42 -29.25,2.46 0.22,8.26 -7.8,4.02 -6.72,0.89 -1.63,-2.15 -10.62,1.89 -5.24,-0.98 -34.56,0.4 -8.24,2.55 -21.7,1.16 -5.22,1.09 -3.02,-6.83 -2.16,-8.64 2.87,-6.59 5.71,-3.04 3.47,-4.67 1.22,-5.54 7.66,-7.77 1.33,-14.89 4.36,-5.86 -0.19,-9.36 2.9,-2.7 -0.42,-7.54 -8.3,-8.96 8.2,-4.27 11.28,-0.49 7.16,1.43 8.84,-4.01 9.07,2.01 2.55,3.87 6.89,-2.98 3.5,0.77 5.51,7.37 5.39,-0.4 4.39,-5.37 9.55,3.37 3.96,-1.97 6.97,2.62 2.66,-9.56 6.84,-0.64 7.37,5.32 z"
       id="M36206"
       style="fill:#ffff80;fill-opacity:1;stroke:#000000;stroke-width:1.1582;stroke-dasharray:none;stroke-opacity:1" />
    <path
       d="m 512.72,166.48 -6.67,-0.45 -6.35,6.81 -8.69,4.6 -0.14,3.68 -3.79,4.67 -8.45,-8.64 -7.98,6.72 -5.52,1.12 -0.48,7.91 -2.9,5.91 -8.78,5.81 -12.61,-0.06 -7.09,5.13 -4.1,7.47 -5.42,-1.29 -3.91,3.13 -8.79,2.4 -3.4,4.7 -18.27,1.41 -14.27,-3.19 -3.31,-4.82 -1.07,-9.01 -7.59,-6.07 1.76,-5.03 -4.51,-2.87 10.37,-11.26 0.4,-8.52 -5.87,-10.13 0.97,-5.17 -3.43,-4.26 5.22,-1.09 21.7,-1.16 8.24,-2.55 34.56,-0.4 5.24,0.98 10.62,-1.89 1.63,2.15 6.72,-0.89 7.8,-4.02 -0.22,-8.26 29.25,-2.46 13.49,-4.42 1.06,4.34 3.69,17.67 z"
       id="M36205"
       style="fill:#ffff80;fill-opacity:1;stroke:#000000;stroke-width:1.1582;stroke-dasharray:none;stroke-opacity:1" />
    <path
       d="m 440.22,284.27 3.38,-12.93 7.22,-0.12 8.51,-6.92 9.78,7.86 8.27,-6.17 8.84,-0.84 12.36,-7.39 3.9,1.28 8.19,-3.85 -0.14,-4.85 21.16,-4.95 -1.02,9.08 1.43,4.53 -1.86,5.02 4.94,5.38 12.81,1.99 -2.15,4.91 0.87,9.05 -0.69,8.46 -5.77,7.54 3,7.07 -3.96,4.73 -4.81,2.53 -0.43,6.49 -4.06,4.82 -5.58,0.99 -4.35,-1.97 -5.49,3.98 -3.44,-0.69 -10.1,4.01 -9.34,-3.39 -8.87,5.57 -6.7,-2.64 0.98,-4.13 -7.21,-2.32 -4.17,-4.27 -6.03,0.73 -0.56,-8.88 -2.84,-2.7 2.2,-7.42 -8.76,-10.53 -3.11,-5.76 z"
       id="M36302"
       style="fill:#ffff80;fill-opacity:1;stroke:#000000;stroke-width:1.1582;stroke-dasharray:none;stroke-opacity:1" />
    <path
       d="m 556.67,317.85 -3.63,3.05 -8.24,3.19 -14.81,2.9 4.06,-4.82 0.43,-6.49 4.81,-2.53 3.96,-4.73 -3,-7.07 5.77,-7.54 0.69,-8.46 -0.87,-9.05 2.15,-4.91 -12.81,-1.99 -4.94,-5.38 1.86,-5.02 -1.43,-4.53 1.02,-9.08 4.19,2.86 6,-1.48 4.03,2.07 10.9,0.82 6.17,-11.44 6.56,-1.7 9.42,-1.32 6.92,6.2 5.75,-0.9 3.66,2.49 5.94,0.37 3.63,3.65 10.32,-5.03 1.69,1.47 8,-2.18 2.13,7.83 -0.19,6.52 -6.31,4.37 -1.88,5.14 -10.02,1.92 -7.99,5.98 -0.6,4.93 -11.09,3.33 -7.38,5 -7.88,-2.43 -16.51,15.28 0.29,5.49 3.12,3.51 z"
       id="M36301"
       style="fill:#ffff80;fill-opacity:1;stroke:#000000;stroke-width:1.1582;stroke-dasharray:none;stroke-opacity:1" />
    <path
       d="m 510.53,250.34 -0.2,-7.21 2.99,-1.42 0.91,-9.82 3.43,-2.52 0.09,-7.06 10.8,-9.48 2.23,1.78 4.96,-3.16 -0.21,-7.44 3.51,-2.31 5.04,1.22 7.99,1.75 3.56,-2.91 0.77,-4.84 10.15,-5.56 4.99,1.72 3.65,5.45 1.64,15.41 -7.09,4.98 -3.46,5.24 3.26,12.36 -6.56,1.7 -6.17,11.44 -10.9,-0.82 -4.03,-2.07 -6,1.48 -4.19,-2.86 z"
       id="M36321"
       style="fill:#ffff80;fill-opacity:1;stroke:#000000;stroke-width:1.1582;stroke-dasharray:none;stroke-opacity:1" />
  </g>
</svg>
