<?xml version="1.0" encoding="UTF-8" standalone="no"?>
<svg
   version="1.2"
   width="690"
   height="600"
   viewBox="0 0 690 600"
   stroke-linecap="round"
   stroke-linejoin="round"
   id="svg7011"
   sodipodi:docname="tt.svg"
   inkscape:version="1.2 (dc2aedaf03, 2022-05-15)"
   xmlns:inkscape="http://www.inkscape.org/namespaces/inkscape"
   xmlns:sodipodi="http://sodipodi.sourceforge.net/DTD/sodipodi-0.dtd"
   xmlns="http://www.w3.org/2000/svg"
   xmlns:svg="http://www.w3.org/2000/svg">
  <defs
     id="defs7015" />
  <sodipodi:namedview
     id="namedview7013"
     pagecolor="#505050"
     bordercolor="#eeeeee"
     borderopacity="1"
     inkscape:showpageshadow="0"
     inkscape:pageopacity="0"
     inkscape:pagecheckerboard="0"
     inkscape:deskcolor="#505050"
     showgrid="false"
     inkscape:zoom="1.585"
     inkscape:cx="344.4795"
     inkscape:cy="370.347"
     inkscape:window-width="1920"
     inkscape:window-height="1009"
     inkscape:window-x="-8"
     inkscape:window-y="-8"
     inkscape:window-maximized="1"
     inkscape:current-layer="svg7011" />
  <g
     id="tt"
     transform="matrix(0.86340852,0,0,0.86340852,-0.36342137,130.34023)"
     style="fill:#ffff80;fill-opacity:1;stroke:#000000;stroke-width:1.1582;stroke-dasharray:none;stroke-opacity:1">
    <path
       d="m 74.23,77.39 -3.9,2.61 -6.76,2.41 -4.69,5.65 -2.36,-2.24 -4.47,-0.64 3.28,-3.71 -4.04,-3.55 -2.81,-4.98 -6.77,-4.76 -4.46,-8.75 4.41,-6.78 10.11,-7.95 4.1,-0.85 8.35,0.15 2.48,1.02 5.03,-2.69 3.88,0.93 -3.86,5.19 -4.73,3.15 -2.36,6.78 5.49,-0.42 2.78,6.08 -4.34,1.98 0.19,2.85 z m -30.91,-7.29 5.24,3.32 4.08,6.99 -2.68,3.17 -2.61,-2.16 -4.63,-10.6 z"
       fill-rule="evenodd"
       id="M31204"
       style="fill:#ffff80;fill-opacity:1;stroke:#000000;stroke-width:1.1582;stroke-dasharray:none;stroke-opacity:1" />
    <path
       d="m 412.08,93.44 4.6,1.39 2.52,-1.04 3.97,4.41 0.45,6.04 -2.16,2.93 0.19,4.86 -1.63,6.21 4.24,2.04 1.75,3.86 6.05,1.9 3.64,3.82 0.01,2.67 -9.26,2.86 -2.6,-1.68 -4.19,8.35 -5.34,1.65 -2.77,4.6 -2.32,6.67 -3.71,4.95 -2.22,9.61 -0.75,10.19 -5.89,6.05 -7.04,0.79 -6.12,7.17 -6.15,2.17 -2.04,4.65 -4.43,0.85 -2.09,4.31 -4.21,2.49 -1.28,4.16 -3.12,2.05 -3.62,-2.27 -1.16,-4.02 -12.48,0.03 -1.39,-1.87 -4.35,-0.19 -4.74,-3.65 -2.35,0.54 -5.15,-1.87 -2.49,4.32 -4.74,1.49 -3.59,-0.39 -1.96,-2.9 -4.76,-0.45 -9.59,-8.75 -4.91,-0.23 -5.25,-2.02 -5.46,1.98 -2.42,-2.05 -7.05,-1.04 -5.44,-2.72 -1.59,-3.94 -4.81,-1.08 -2.88,-4.98 -2.21,-0.68 -0.19,-4.22 6.93,-1.02 3.28,-2.3 4.16,-0.06 8.21,-4.84 6.31,-1.22 7.32,-5.47 3.11,-6.18 0.15,-3.84 3.22,-4.27 5.13,-3.95 4.03,-4.4 2.75,-1.07 6.51,-0.41 9.86,-4.16 6.17,-4.4 4.55,-0.67 5.13,-4.68 2.73,-0.34 3.56,-4.27 3.46,-1.66 3.73,-4.12 -1.52,-3.87 2.74,-3.92 5.51,-3.7 2.55,1.89 6.34,-0.66 4.58,4.36 6.91,-4.72 4.64,3.76 -0.34,2.73 8.48,2.05 4.01,-4.28 1.24,-12.44 6.46,2.93 z"
       id="M31203"
       style="fill:#ffff80;fill-opacity:1;stroke:#000000;stroke-width:1.1582;stroke-dasharray:none;stroke-opacity:1" />
    <path
       d="m 58.88,88.06 4.69,-5.65 6.76,-2.41 3.9,-2.61 9.86,10.32 7.86,6.16 7.77,4.11 9.44,4.1 14.57,3.97 3.46,0.08 11.41,3.05 -3.76,15.6 9.84,1.28 1.17,-6.35 2.29,-3.23 0.62,-5.54 6.28,0.39 5.39,-1.02 6.28,-2.6 2.93,-3.25 0.94,-4.95 3.05,0.81 -0.27,6.49 4.46,-0.05 6.38,-1.68 3.64,7.36 -0.41,3.19 3.78,1.29 3.61,3.88 5.23,1.96 -0.33,5.21 -5.43,4.92 -2.68,4.98 -8.5,-0.43 -5.29,1.42 2.23,11.94 -0.18,3.82 -2.86,1.43 -6.07,-0.93 -8.74,1.47 -6.81,-5.9 -1.88,-4.27 -2.76,5.72 -3.32,-0.71 -1.51,7.43 -7.94,5.44 -7.52,-1.6 -2.45,-3.76 -3.37,-0.52 -6.18,1.22 -6.03,7.57 -2.55,0.28 -3.13,-6.55 -3.16,-2.74 0.92,-3.14 3.42,-2.66 0.29,-8.74 -2.27,-6.52 2.37,-4.6 -2.92,-5.67 -13.24,-5.21 -0.1,-2.63 -10.89,-5.95 -5.1,-5.69 0.07,-1.64 L 69,97.32 65.35,95.13 60.09,88.06 Z M 74,107.8 l 2.46,0.25 4.57,5.14 10.2,5.94 -0.36,2.11 -11.35,-4.88 -6,-4.66 z"
       fill-rule="evenodd"
       id="M31202"
       style="fill:#ffff80;fill-opacity:1;stroke:#000000;stroke-width:1.1582;stroke-dasharray:none;stroke-opacity:1" />
    <path
       d="m 661.59,26.32 2.85,4.02 2.27,-0.56 4.68,4.19 2.67,9.49 3.9,1.07 1.85,6.38 10.16,3.14 1.15,4.01 -3.34,10.77 2.06,1.85 -1.82,5.67 0.5,3.42 -3.13,4.13 0.3,3.42 5.3,1.49 4.24,4.81 1.58,-0.83 6.81,1.03 1.31,-2.94 4.87,-1.32 10.29,-11.96 4.96,1.82 3.31,-1.78 4.2,7.5 4.87,2.27 2.73,-2.08 7.83,2.67 0.03,3.09 4.22,7.75 0.08,5.12 2.09,1.71 1.11,13.11 0.38,2.09 -7.39,3.52 -2.83,-0.86 -4.32,1.59 -6.31,-4 -14.48,1.38 -1.4,4.25 -8.09,3.76 -8.64,0.68 -4.43,-3.54 -6,1.58 -2.8,-1.15 -8.78,-6.37 -3.94,-1.08 -3.87,-3.47 -4.64,2.29 -5.09,-1.84 -8.62,3.06 -1.72,6.19 -7.99,1.79 -2.02,-0.6 -3.95,3.49 0.04,2.68 -6.44,4.87 -6.63,1.75 0.23,6.03 5.49,7.17 3.72,1.36 2.34,3.62 -2.96,10.35 2.04,7.64 4.04,3.58 -1.69,5.75 0.5,4.82 3.35,9.13 5.27,0.49 1.88,8.54 6.74,2.07 0.88,2.45 -2.8,2.8 -4.86,1.56 -2.86,4.84 -4.6,-1.56 -5.03,1.42 -6.93,-0.78 -2.3,-2.89 -6.92,8.32 -5.02,1.79 -0.71,4.54 -6.45,1.41 -15.43,4.86 -2.05,0.16 -4.93,-4.4 -5.09,-0.8 -9.8,-1.44 -4.91,-3.46 0.16,-1.78 -6.54,-5.63 -2.83,-4.9 -6.72,-2.86 -2.67,3.6 -3.38,-0.35 -3,2.47 -4.89,-2.68 -4.37,3.44 -3.78,-0.2 -2.31,-3.04 -5.93,-0.85 -2.44,-2.41 -4.61,1.27 -8.02,-2.01 -4.85,-4.44 2.72,-7.55 6.48,-6.1 -2.63,-4.63 2.67,-3.48 -0.36,-3.62 2.92,-4.05 -1.21,-3.55 7.99,-3.77 5.75,-7.17 -5.72,-1.93 -8.65,-5.49 -8.01,-2.76 -1.9,1.13 -4.77,-3.16 2.12,-6.65 3.4,-2.39 -3.25,-5.39 -0.88,-6.78 -2.86,2 -3.3,-3.15 -7.06,2.14 -3.52,-3.2 -7.75,-1.09 -0.31,-6.17 -1.99,-3.06 3.63,-6.88 -4.43,-7.84 5.65,-17.16 -0.9,-1.72 1.74,-7.72 4.1,-2.8 3.8,-6.42 -0.17,-4.33 -3.13,-3.27 8.62,0.47 5.38,-0.52 6.57,-2.25 0.96,-4.01 3.51,-4.25 3.91,5.49 1.85,5.66 1.96,1.65 7,0.86 13.35,-0.31 11.4,-1.43 3.45,-3.13 9.15,0.66 31.11,-4.63 10.01,-1.91 9.72,-3.49 0.46,-3.13 5.82,1.45 6.16,-0.57 13.53,-3.43 15.27,-5.77 8.66,-4.34 z m -82.48,47.53 -2.27,3.12 4.58,4.23 2.86,-1.88 5.24,1.2 10.9,-4.7 1.32,-5.41 -4.7,1.97 -1.87,-3.61 2.29,-4.8 -5.12,-0.86 -8.83,2.56 -7.9,7.81 z"
       fill-rule="evenodd"
       id="M31201"
       style="fill:#ffff80;fill-opacity:1;stroke:#000000;stroke-width:1.1582;stroke-dasharray:none;stroke-opacity:1" />
    <path
       d="m 752.24,98.84 -4.22,-7.75 -0.03,-3.09 -7.83,-2.67 -2.73,2.08 -4.87,-2.27 -4.2,-7.5 -3.31,1.78 -4.96,-1.82 -10.29,11.96 -4.87,1.32 -1.31,2.94 -6.81,-1.03 -1.58,0.83 -4.24,-4.81 -5.3,-1.49 -0.3,-3.42 3.13,-4.13 -0.5,-3.42 1.82,-5.67 -2.06,-1.85 3.34,-10.77 -1.15,-4.01 -10.16,-3.14 -1.85,-6.38 -3.9,-1.07 -2.67,-9.49 -4.68,-4.19 -2.27,0.56 -2.85,-4.02 5.56,-0.6 3.41,-6.48 -1.16,-2.49 3.22,-2.79 3.07,0.5 7.93,-3.25 4.68,2.42 7.58,-2.03 2.08,-3.73 0.16,-4.08 3.94,2.15 6.86,0.6 3.97,-1.15 4.86,-4.39 3.93,3.5 3.27,-0.27 3.37,3.88 4.94,2.31 3.83,5.5 -1.84,11.83 2.82,5.56 6.68,-0.01 2.06,7.75 -2.34,5.09 1.74,2.05 -1.94,9.56 -4.38,7.81 10.29,10.77 -1.99,4.2 1.61,3.05 4.45,12.81 z"
       id="M31302"
       style="fill:#ffff80;fill-opacity:1;stroke:#000000;stroke-width:1.1582;stroke-dasharray:none;stroke-opacity:1" />
    <path
       d="m 412.08,93.44 -4.58,0.82 -6.46,-2.93 -1.24,12.44 -4.01,4.28 -8.48,-2.05 0.34,-2.73 -4.64,-3.76 -6.91,4.72 -4.58,-4.36 -6.34,0.66 -2.55,-1.89 -5.51,3.7 -2.74,3.92 1.52,3.87 -3.73,4.12 -3.46,1.66 -3.56,4.27 -2.73,0.34 -5.13,4.68 -4.55,0.67 -6.17,4.4 -9.86,4.16 -6.51,0.41 12.34,-11.09 4.93,-6.76 6.02,-3.37 2.02,-3.75 5.5,-4.67 0.79,-2.98 -4.07,-8.08 1.38,-3.42 0.84,-9.35 -2.64,-6.14 4.13,0.82 17.72,1.45 25.86,-0.05 26.72,-1.79 5.52,-0.78 -0.06,4.04 z"
       id="M31372"
       style="fill:#ffff80;fill-opacity:1;stroke:#000000;stroke-width:1.1582;stroke-dasharray:none;stroke-opacity:1" />
    <path
       d="m 310.2,134.84 -2.75,1.07 -4.03,4.4 -5.13,3.95 -3.22,4.27 -0.15,3.84 -3.11,6.18 -7.32,5.47 -6.31,1.22 -8.21,4.84 -4.16,0.06 -3.28,2.3 -6.93,1.02 0.19,4.22 -2.67,3.43 -3.53,-4.64 -4,-1.43 1.1,-12.37 10.22,1.5 -1.12,-2.36 3.6,-4.79 -1.12,-5.1 1.68,-4.09 -0.05,-4.74 -1.74,-7 -2.05,-2.71 -0.86,-4.81 5.9,-1.07 2.04,-6.76 4.33,-4.06 1.75,-9.33 -1.15,-4.24 -0.16,-6.88 1.98,-10.41 0.44,-11.96 -1.15,-4.41 4.85,-7.14 8.81,1.81 5.67,0.14 12.83,4.79 0.4,1.96 9.15,2.54 10.04,-0.79 6.92,0.57 9.41,1.9 2.64,6.14 -0.84,9.35 -1.38,3.42 4.07,8.08 -0.79,2.98 -5.5,4.67 -2.02,3.75 -6.02,3.37 -4.93,6.76 z"
       id="M31371"
       style="fill:#ffff80;fill-opacity:1;stroke:#000000;stroke-width:1.1582;stroke-dasharray:none;stroke-opacity:1" />
    <path
       d="m 435.71,132.53 -0.01,-2.67 -3.64,-3.82 -6.05,-1.9 -1.75,-3.86 -4.24,-2.04 1.63,-6.21 -0.19,-4.86 2.16,-2.93 -0.45,-6.04 -3.97,-4.41 -2.52,1.04 -4.6,-1.39 5.12,-14.52 0.06,-4.04 10.81,-1.08 1.7,-0.88 11.44,-0.18 3.02,-1.9 4.74,0.87 8.72,-0.76 4.55,-1.45 7.31,-5.19 3.91,1.58 7.23,-4.06 3.13,3.27 0.17,4.33 -3.8,6.42 -4.1,2.8 -1.74,7.72 0.9,1.72 -5.65,17.16 4.43,7.84 -3.63,6.88 1.99,3.06 0.31,6.17 -3.85,-2.46 -7.24,1.07 -6.27,2.42 -7.17,-1.23 -7.43,4.55 z m 7.05,-49.25 -6.18,1.76 -4.2,6.5 -2.76,6.59 7.1,5.57 2.25,-3.97 5.86,-1.39 -1.02,-5.31 -4.4,-3.5 z"
       fill-rule="evenodd"
       id="M31370"
       style="fill:#ffff80;fill-opacity:1;stroke:#000000;stroke-width:1.1582;stroke-dasharray:none;stroke-opacity:1" />
    <path
       d="m 363.3,212.37 1.28,-4.16 4.21,-2.49 2.09,-4.31 4.43,-0.85 2.04,-4.65 6.15,-2.17 6.12,-7.17 7.04,-0.79 5.89,-6.05 0.75,-10.19 2.22,-9.61 3.71,-4.95 2.32,-6.67 2.77,-4.6 5.34,-1.65 4.19,-8.35 2.6,1.68 9.26,-2.86 5.03,1.02 7.43,-4.55 7.17,1.23 6.27,-2.42 7.24,-1.07 3.85,2.46 7.75,1.09 3.52,3.2 7.06,-2.14 3.3,3.15 2.86,-2 0.88,6.78 3.25,5.39 -3.4,2.39 -2.12,6.65 4.77,3.16 1.9,-1.13 8.01,2.76 8.65,5.49 5.72,1.93 -5.75,7.17 -7.99,3.77 1.21,3.55 -2.92,4.05 -2.98,0.61 -6.94,-2.4 -10.35,6.74 -5.87,-3.14 -2.82,0.82 -6.19,4.25 -0.1,1.71 -4.96,4.03 -4.74,-2.09 -3.24,1.67 -2.15,7.89 2.43,2.97 -3.93,7.82 -10.64,0.18 -14.74,9.02 -11.2,1.12 1.8,4.61 -0.96,6.23 1.43,3.43 -6.01,2.94 -1.92,4.07 -4.92,6.31 -6.75,3.3 -8.06,-2.7 0.01,-4.68 -1.7,-4.01 -4.41,-3.83 0.97,-4.71 -4.57,-5.61 -0.87,-5.59 -3.7,-0.11 -10.29,-4.76 z"
       id="M31364"
       style="fill:#ffff80;fill-opacity:1;stroke:#000000;stroke-width:1.1582;stroke-dasharray:none;stroke-opacity:1" />
    <path
       d="m 137.98,164.3 7.94,-5.44 1.51,-7.43 3.32,0.71 2.76,-5.72 1.88,4.27 6.81,5.9 8.74,-1.47 6.07,0.93 2.86,-1.43 0.18,-3.82 2.35,1 12.33,-1.92 3.08,1.08 8.54,-1.85 13,2.06 1.33,3.08 4.47,4.32 -1.45,11.98 3.69,7.32 -4.65,5.39 -0.26,3.58 -6.01,8.84 -2.02,5.22 -3.26,1.54 -6.46,0.9 -5,2.69 -2.24,4.49 -6.87,3.02 -2.77,4.71 -5.07,1.31 -3.06,3.3 -0.71,3.77 2.99,4.2 0.2,3.83 -2.77,6.44 -8.45,3.75 -3.5,5.31 -6.71,2.22 -0.79,2.22 -6.48,5.37 -0.13,2.94 -4.41,2.51 -6.84,0.95 -2.56,-3.55 -0.6,-3.97 -3.05,-1.85 0.32,-3.07 -4.56,-1.24 -2.32,-4.79 0.91,-1.68 5.36,-1.63 4.05,-2.96 4.8,-1.15 1.07,-6.62 -2.44,-6.67 1.82,-3 -3.15,-8.44 2.59,-5.87 -0.13,-5.67 12.74,0.76 3.63,-1.79 -2.27,-5.68 5.01,-2.07 0.88,-2.83 5.09,-3.98 0.27,-3.09 -3.18,-3.44 -4.22,1.29 -2.56,-3.13 -3.6,-0.56 -1.48,-6.62 -4.94,-2.76 -0.92,-2.87 -5.35,1.5 -4.5,-1.73 z"
       id="M31390"
       style="fill:#ffff80;fill-opacity:1;stroke:#000000;stroke-width:1.1582;stroke-dasharray:none;stroke-opacity:1" />
    <path
       d="m 109.88,167.49 2.55,-0.28 6.03,-7.57 6.18,-1.22 3.37,0.52 2.45,3.76 7.52,1.6 0.85,2.91 4.5,1.73 5.35,-1.5 0.92,2.87 4.94,2.76 1.48,6.62 3.6,0.56 2.56,3.13 4.22,-1.29 3.18,3.44 -0.27,3.09 -5.09,3.98 -0.88,2.83 -5.01,2.07 2.27,5.68 -3.63,1.79 -12.74,-0.76 0.13,5.67 -2.59,5.87 3.15,8.44 -1.82,3 2.44,6.67 -1.07,6.62 -4.8,1.15 -4.05,2.96 -5.36,1.63 -0.91,1.68 -2.34,3.14 3.61,6.67 -2.48,1.33 0.74,3.7 -3.07,2.7 -3.39,-1.13 -1.63,3.89 -3.87,-1.41 -3.7,-7.33 1.9,-3.04 -0.71,-6 -2.88,-3.8 -5.55,-1.27 -4.18,-2.67 -1.86,-9.6 -4.48,-7.35 4.28,-7.96 -3.28,-3.9 -4.98,-8.36 3.43,-3.09 -1.73,-2.68 0.76,-7.24 -0.49,-7.32 3.74,-5.23 3.56,-6.93 4.24,0.71 1.3,-4.91 z"
       id="M31389"
       style="fill:#ffff80;fill-opacity:1;stroke:#000000;stroke-width:1.1582;stroke-dasharray:none;stroke-opacity:1" />
    <path
       d="m 180.05,150.8 -2.23,-11.94 5.29,-1.42 8.5,0.43 2.68,-4.98 5.43,-4.92 0.33,-5.21 -5.23,-1.96 -3.61,-3.88 -3.78,-1.29 0.41,-3.19 -3.64,-7.36 -6.38,1.68 -4.46,0.05 0.27,-6.49 -3.05,-0.81 2.99,-6.58 -0.77,-2.09 5.56,-3.77 2.1,-4.85 8.06,-3.24 7.2,-0.19 7.02,-4.3 5.83,-5.01 4.13,-2.34 7.33,-1.5 2.53,-2.3 6.92,0.85 2.16,-2.89 6.28,1.51 6.71,-2.08 2.05,-2.63 4.17,-1.65 6.41,0.18 6.38,-1.33 3.08,3.99 2.11,-0.16 5.25,3.18 -4.85,7.14 1.15,4.41 -0.44,11.96 -1.98,10.41 0.16,6.88 1.15,4.24 -1.75,9.33 -4.33,4.06 -2.04,6.76 -5.9,1.07 0.86,4.81 2.05,2.71 1.74,7 0.05,4.74 -1.68,4.09 1.12,5.1 -3.6,4.79 1.12,2.36 -10.22,-1.5 -1.1,12.37 -1.47,4.65 -3.29,3.69 -0.17,3.68 -4.53,-2.01 -3.28,-4.11 -5.46,-3.07 -3.69,-7.32 1.45,-11.98 -4.47,-4.32 -1.33,-3.08 -13,-2.06 -8.54,1.85 -3.08,-1.08 -12.33,1.92 z"
       id="M31386"
       style="fill:#ffff80;fill-opacity:1;stroke:#000000;stroke-width:1.1582;stroke-dasharray:none;stroke-opacity:1" />
    <path
       d="m 148.76,110.94 -0.62,5.54 -2.29,3.23 -1.17,6.35 -9.84,-1.28 3.76,-15.6 z"
       id="M31384"
       style="fill:#ffff80;fill-opacity:1;stroke:#000000;stroke-width:1.1582;stroke-dasharray:none;stroke-opacity:1" />
    <path
       d="m 657.39,213.84 -0.88,-2.45 -6.74,-2.07 -1.88,-8.54 -5.27,-0.49 -3.35,-9.13 -0.5,-4.82 1.69,-5.75 -4.04,-3.58 -2.04,-7.64 2.96,-10.35 -2.34,-3.62 -3.72,-1.36 -5.49,-7.17 -0.23,-6.03 6.63,-1.75 6.44,-4.87 -0.04,-2.68 3.95,-3.49 2.02,0.6 7.99,-1.79 1.72,-6.19 8.62,-3.06 5.09,1.84 4.64,-2.29 3.87,3.47 3.94,1.08 8.78,6.37 2.8,1.15 6,-1.58 4.43,3.54 8.64,-0.68 8.09,-3.76 1.4,-4.25 14.48,-1.38 6.31,4 4.32,-1.59 2.83,0.86 7.39,-3.52 3.74,5.56 -1.45,6.4 -0.57,7.68 -3.08,2.77 -2.56,8.58 -5.39,3.75 -9.88,2.34 -0.64,2.06 -4.98,3.44 -5.56,1.99 2.11,3.34 -2.68,6.5 -0.51,6.27 -4.6,-4.05 -2.68,2.27 0.92,10.24 -6.26,3.53 -1.9,4.16 -1.08,8.44 -2.86,4.32 -0.22,4.62 -8.14,0.1 -5.28,-1.15 -6.36,-3.8 -1.53,1.61 -6.13,-1.25 -9.68,3.63 -0.84,3.35 -2.92,1.22 -4.99,-0.82 z"
       id="M31329"
       style="fill:#ffff80;fill-opacity:1;stroke:#000000;stroke-width:1.1582;stroke-dasharray:none;stroke-opacity:1" />
    <path
       d="m 581.41,235.11 5.09,0.8 4.93,4.4 2.05,-0.16 15.43,-4.86 6.45,-1.41 0.71,-4.54 5.02,-1.79 6.92,-8.32 2.3,2.89 6.93,0.78 5.03,-1.42 4.6,1.56 2.86,-4.84 4.86,-1.56 2.8,-2.8 2.51,4.13 4.99,0.82 2.92,-1.22 0.84,-3.35 9.68,-3.63 6.13,1.25 1.53,-1.61 6.36,3.8 5.28,1.15 8.14,-0.1 2.96,1.33 1.77,3.72 3.97,3.7 3.71,-0.86 4.62,3.03 -0.79,3.23 3.06,5.91 -0.24,16.52 -3.29,4.87 -4.76,2.11 0.87,6.13 -3.34,3.92 -8.24,3.67 -2.46,2.64 -8.02,2.37 -1.08,4.67 -6.93,7.19 -5.16,1.53 -8.56,-0.9 -11.88,3.54 -5.75,-5 -0.32,-3.19 -4.1,-1.44 -3.93,1.53 -2.51,5.4 -3.2,1.58 -5.53,-0.57 -4.08,1.52 -3.48,4.74 -5.19,-0.21 -5.48,1.37 -2.76,-1.24 -3.22,1.4 0.48,2.99 -2.16,6.01 -7.14,4.74 -5.95,-2.18 0.91,-5.61 -2.28,-5.54 -6.35,-4.72 0.21,-7.74 4.53,-7.72 1.16,-8.18 -3.43,-4.67 -7.98,2.32 -4.04,-5.64 4.6,-2.55 -1.54,-4.67 4.52,-6.05 -4.82,-4.25 -2.69,-3.99 2.14,-3.81 z"
       id="M31328"
       style="fill:#ffff80;fill-opacity:1;stroke:#000000;stroke-width:1.1582;stroke-dasharray:none;stroke-opacity:1" />
    <path
       d="m 755.9,120.87 -0.38,-2.09 3.4,0.55 3.63,3.96 6.07,-0.24 5.04,4.6 3.44,0.93 1.43,2.88 -1.83,7.4 2.74,2.89 -4.06,13.12 -0.01,4.15 -1.75,4.38 1.95,3.78 4.68,1.15 2.15,2.77 9.5,2.4 0.94,4.53 5.15,3.8 -1.86,2.3 -0.51,6.19 -2.81,3.46 -1.52,7.61 1.81,7.27 5.65,6.13 -1.84,1.69 -1.36,8.18 2.21,5.14 1.24,6.6 -11.66,7.36 -3,3.88 -3.66,0.79 -0.72,3.99 -3.37,3.95 -2.95,0.55 -5.58,3.7 1.18,4.04 -9.14,-0.38 -7.35,6.21 -11.58,-7.04 -7.98,-2.33 0.1,-2.44 -4.65,-4.2 -7.1,2.05 3.29,-4.87 0.24,-16.52 -3.06,-5.91 0.79,-3.23 -4.62,-3.03 -3.71,0.86 -3.97,-3.7 -1.77,-3.72 -2.96,-1.33 0.22,-4.62 2.86,-4.32 1.08,-8.44 1.9,-4.16 6.26,-3.53 -0.92,-10.24 2.68,-2.27 4.6,4.05 0.51,-6.27 2.68,-6.5 -2.11,-3.34 5.56,-1.99 4.98,-3.44 0.64,-2.06 9.88,-2.34 5.39,-3.75 2.56,-8.58 3.08,-2.77 0.57,-7.68 1.45,-6.4 z"
       id="M31325"
       style="fill:#ffff80;fill-opacity:1;stroke:#000000;stroke-width:1.1582;stroke-dasharray:none;stroke-opacity:1" />
    <path
       d="m 255.79,177.68 2.21,0.68 2.88,4.98 4.81,1.08 1.59,3.94 -4.1,5 1.8,5 -2.61,4.21 -6.45,7.44 -0.59,9.65 1.03,2.52 -4.05,7.22 1.02,3.86 -2,2.95 1.77,3.5 -2.98,4.79 0.82,6.22 -3.45,2.08 -0.24,3.72 -3.99,5.01 -5.19,-1.33 -6.43,4.94 -10.19,-2.85 -1.58,3.72 -3.71,1.75 -7.42,-4.77 -4.27,3.77 -6.41,1.42 -3.84,1.89 -2.59,-9.36 2.19,-1.66 -5.02,-8.69 -3.23,2.18 -5.97,-8.5 -0.17,-2.94 2.77,-6.44 -0.2,-3.83 -2.99,-4.2 0.71,-3.77 3.06,-3.3 5.07,-1.31 2.77,-4.71 6.87,-3.02 2.24,-4.49 5,-2.69 6.46,-0.9 3.26,-1.54 2.02,-5.22 6.01,-8.84 0.26,-3.58 4.65,-5.39 5.46,3.07 3.28,4.11 4.53,2.01 0.17,-3.68 3.29,-3.69 1.47,-4.65 4,1.43 3.53,4.64 z"
       id="M31403"
       style="fill:#ffff80;fill-opacity:1;stroke:#000000;stroke-width:1.1582;stroke-dasharray:none;stroke-opacity:1" />
    <path
       d="m 129.35,247.9 2.32,4.79 4.56,1.24 -0.32,3.07 3.05,1.85 0.6,3.97 2.56,3.55 6.84,-0.95 4.41,-2.51 0.13,-2.94 6.48,-5.37 0.79,-2.22 6.71,-2.22 3.5,-5.31 8.45,-3.75 0.17,2.94 5.97,8.5 3.23,-2.18 5.02,8.69 -2.19,1.66 2.59,9.36 3.84,-1.89 6.41,-1.42 4.27,-3.77 7.42,4.77 -1.47,3.44 3.34,4.73 2.37,0.69 3.53,7.06 -0.48,3.24 4.86,13.52 -1.64,2.76 -4.09,0.1 -1.64,-5.4 -4.8,-1.82 -4.42,0.51 -1.13,2.94 -7.53,1.29 -1.67,2.83 -4.46,0.28 -4.56,4.86 -4.14,-1.86 -1.91,3.31 -5.19,1.29 -5.5,-1.26 -5.74,-3.07 -3.44,0.91 -0.77,-3.45 -3.06,-2.65 -4.7,-0.82 -2.7,2.63 -3.86,1.12 -0.85,2.31 -4.72,2.12 -4.82,-1.97 -1.91,1.07 -2.96,10.55 -6.08,-0.94 -3.38,-3.75 -5.62,3.28 -5.14,-2.18 -3.34,-7.72 -9.71,-4.94 -5.01,-4.49 -2.09,0.23 -3.57,-5.25 v -4.25 l 2.91,-4.78 4.47,-1.41 0.89,6.46 5.43,-2.71 2.06,0.62 5.68,-2.3 2.17,-4.34 6.25,1.01 4.81,-3.65 -1.29,-5.49 0.27,-6.98 3.07,-2.7 -0.74,-3.7 2.48,-1.33 -3.61,-6.67 z"
       id="M31402"
       style="fill:#ffff80;fill-opacity:1;stroke:#000000;stroke-width:1.1582;stroke-dasharray:none;stroke-opacity:1" />
    <path
       d="m 101.8,242.68 4.18,2.67 5.55,1.27 2.88,3.8 0.71,6 -1.9,3.04 3.7,7.33 3.87,1.41 1.63,-3.89 3.39,1.13 -0.27,6.98 1.29,5.49 -4.81,3.65 -6.25,-1.01 -2.17,4.34 -5.68,2.3 -2.06,-0.62 -5.43,2.71 -0.89,-6.46 -4.47,1.41 -2.91,4.78 v 4.25 l 3.57,5.25 2.09,-0.23 5.01,4.49 9.71,4.94 3.34,7.72 5.14,2.18 5.62,-3.28 3.38,3.75 6.08,0.94 2.96,-10.55 1.91,-1.07 4.82,1.97 4.72,-2.12 1.34,3.45 -2.08,2.35 2.98,3.95 1.07,7.3 2.4,3.26 0.37,4.07 3.52,2.96 0.8,3.73 -0.45,8.74 -4.9,4.84 -9.47,0.85 -4.75,-1.1 -7.01,3.2 -4.79,5.68 -2.04,0.96 -4.4,-3.41 -5.24,-0.69 -5.83,8.19 -5.04,0.81 -6.42,-3.96 -3.19,-0.1 -2.2,-2.99 -4.68,2.44 -1.55,3.15 1.39,8.14 -1.04,7.06 1.13,2.48 -4.28,3.53 -3.77,-0.11 -4.5,5.97 -4.81,-4.08 -4.07,-8.34 -2.9,-2.45 -5.12,-0.25 -3.9,2.77 -0.92,4.02 -2.53,0.89 -7.13,-4.02 -8.98,0.94 -11.49,3.71 -3.52,-1.34 -2.89,1.24 -4.17,-4.74 -1.73,1.76 L 4.31,387 1,383.58 l 2.62,-4.29 0.28,-5.1 -2.67,-4.15 1.82,-8.01 3.33,-3.77 -3.05,-8.46 3.67,-4.54 -0.77,-5.69 1.78,-5.7 3.91,-3.21 1.33,-3.26 5.02,-0.22 2.77,-3.07 7.67,-2.38 4.45,-4.13 1.76,-5.07 -0.72,-5.4 -2.89,-5.41 -3.78,-2.06 1.46,-5.2 -2.22,-5.17 -4.08,-1.92 -1.12,-2.37 -8.21,3.41 -2.76,0.08 -0.82,-6.23 0.59,-4.41 6.26,-2.68 8.09,-5.53 2.52,-2.88 6.89,-2.02 7.4,-3.38 3.3,0.25 7.86,-5.58 1.49,1.96 8.82,-2.61 4.93,-6.25 3.89,-1.49 3.13,2.11 6.45,0.43 4.07,-3.26 5.52,1.16 3.99,-2.7 2.23,1.03 z"
       id="M31401"
       style="fill:#ffff80;fill-opacity:1;stroke:#000000;stroke-width:1.1582;stroke-dasharray:none;stroke-opacity:1" />
  </g>
</svg>
