<?xml version="1.0" encoding="UTF-8" standalone="no"?>
<svg
   version="1.2"
   width="679.97998"
   height="599.99988"
   viewBox="0 0 679.97998 599.99988"
   stroke-linecap="round"
   stroke-linejoin="round"
   id="svg891"
   sodipodi:docname="ty.svg"
   inkscape:version="1.2 (dc2aedaf03, 2022-05-15)"
   xmlns:inkscape="http://www.inkscape.org/namespaces/inkscape"
   xmlns:sodipodi="http://sodipodi.sourceforge.net/DTD/sodipodi-0.dtd"
   xmlns="http://www.w3.org/2000/svg"
   xmlns:svg="http://www.w3.org/2000/svg">
  <defs
     id="defs895" />
  <sodipodi:namedview
     id="namedview893"
     pagecolor="#505050"
     bordercolor="#eeeeee"
     borderopacity="1"
     inkscape:showpageshadow="0"
     inkscape:pageopacity="0"
     inkscape:pagecheckerboard="0"
     inkscape:deskcolor="#505050"
     showgrid="false"
     inkscape:zoom="1.1416431"
     inkscape:cx="339.86104"
     inkscape:cy="299.56824"
     inkscape:window-width="1920"
     inkscape:window-height="1009"
     inkscape:window-x="-8"
     inkscape:window-y="-8"
     inkscape:window-maximized="1"
     inkscape:current-layer="svg891" />
  <g
     id="ty"
     transform="matrix(0.85085213,0,0,0.85085213,-0.35085271,-0.35085724)"
     style="fill:#ffff80;fill-opacity:1;stroke:#000000;stroke-width:1.17529;stroke-dasharray:none;stroke-opacity:1">
    <path
       d="m 791.58,227.5 -5.78,-13.24 -80.1,-69.3 1.42,-5.32 -3.55,-9.45 -10.15,0.5 -10.53,-13.68 -6.28,-2.24 -2.95,-8.03 -3.96,-2.06 -8.52,-11.03 -6.82,6.25 -12.76,-2.07 -7.51,-4.81 -2.03,-4.91 2.86,-7.81 -0.07,-9.78 -14.78,0.01 -6.87,1.7 -3.89,-16.99 3.5,-15.43 4.65,-0.35 2.65,-4.58 1.96,-15.06 25.49,-3.08 12.02,-11.1 17.65,-1.22 18.78,-3.42 2.15,3.27 11.12,7.56 4.98,9.23 6.79,6.16 10.94,5.36 6.11,5.18 8.97,0.94 10.03,-1.98 1.78,9.22 5.68,8.4 -2.02,4.07 -0.07,14.89 -4.23,3.74 0.33,10.36 9.57,15.91 5.74,4.23 2.48,18.55 -1.84,10.19 1.26,13.67 -1.96,7.78 10.33,8.45 3.51,5.54 1.38,9.15 2.67,3.98 -2.76,5.29 -0.95,11.63 6.55,5.22 4.45,6.28 z"
       id="M16343"
       style="fill:#ffff80;fill-opacity:1;stroke:#000000;stroke-width:1.17529;stroke-dasharray:none;stroke-opacity:1" />
    <path
       d="m 622.07,19.82 -1.96,15.06 -2.65,4.58 -4.65,0.35 -3.5,15.43 3.89,16.99 6.87,-1.7 14.78,-0.01 0.07,9.78 -2.86,7.81 2.03,4.91 7.51,4.81 12.76,2.07 6.82,-6.25 8.52,11.03 3.96,2.06 2.95,8.03 -12.59,13.91 -4.84,0.72 -2.38,-11.79 -3.19,-3.77 -7.15,-1.11 -10.1,-8.01 -7.56,0.91 -3.71,-14.21 -6.78,-3.81 4.98,13.49 -2.23,11.73 -5.99,-5.51 -7.7,-1.17 -9.26,-6.07 -10.5,-9.8 -12.93,-5.9 -24.89,-6.93 -11.26,-8.15 -10.04,-10.46 1.8,-4.3 6.1,-4.53 19.27,-7.49 7.23,-5.79 6.05,-1.91 11.29,-8.09 15.8,-4.42 z"
       id="M16342"
       style="fill:#ffff80;fill-opacity:1;stroke:#000000;stroke-width:1.17529;stroke-dasharray:none;stroke-opacity:1" />
    <path
       d="m 689.89,341.99 13.74,0.34 1.95,4.11 12.39,-1.06 9.84,0.69 5.89,-3.9 2.49,-5.47 5.59,1.47 7.59,5.62 12.1,11.3 8.88,3.74 12,-2.6 3.33,0.86 -2.28,11.81 7.35,19.02 -4.2,6.86 -13.79,-1.11 -4.47,1.27 -9.54,9.61 -11.78,7.47 -3.72,0.55 -4.93,6.98 1.41,8.49 -3.93,15.75 15.65,1.04 4.82,2.19 -5.18,7.88 -3.37,-0.01 -4.93,7.09 -16.86,-6.97 -8.2,2.92 -5.17,4 -6.84,-5.2 -38.03,-22.88 -7.18,-6.39 -5.89,-1.6 -10.05,0.04 -9.38,5.05 -12.86,4.67 -4.54,-2.92 -6.3,0.66 -6.06,3.6 -8.9,-2.48 -1.28,-5.79 -6.24,-6.02 -2.67,1.36 -8.32,-7.66 -10.84,-0.58 -5.71,-4.51 -8.28,-2.29 -6.3,-6.68 -9.5,-5.74 -9.61,2.35 -5.1,-1.26 -10.82,4.58 -14.18,2.71 -11.56,4.46 -10.75,0.93 -11.56,-2.98 -9.41,-5.04 -11.89,-12.79 -1.01,-6.74 -6.43,-11.68 -4.96,-5.72 -12.11,-18.48 -2.9,-6.71 -1.73,-10.18 0.53,-21.28 -4.62,-22.12 10.82,-3.28 1.74,-5.66 4.75,-0.39 0.71,7.39 -2.32,8.6 7.13,1.25 2.41,-7.67 6.8,-5.01 -0.77,-4.44 9.42,-0.87 3.72,7.31 -0.12,6.74 5.37,0.5 2.73,7.39 7.68,0.87 2.92,5.69 -0.63,7.34 3.81,0.16 7.54,12.19 6.59,0.19 2.09,4.86 5.05,2 1.98,6.66 13.62,10.33 -0.3,5.9 6.29,-0.75 11.55,2.28 7.98,9.35 3.14,11.24 5.71,2.69 7.66,-0.32 13.12,-6.28 5.82,1.34 4.31,-3.12 10.93,3.11 0.85,7 13.8,-0.6 9.47,-6.62 7.57,0.57 4.47,5.98 7.31,4.99 7,0.38 6.91,-3.51 7.57,1.67 1.92,4.85 8.86,0.71 5.67,-2.05 6.02,-5.3 -1.55,-7.15 4.67,-5.53 0.72,-8.92 6.76,-8.66 -2.64,-4.37 z"
       id="M16323"
       style="fill:#ffff80;fill-opacity:1;stroke:#000000;stroke-width:1.17529;stroke-dasharray:none;stroke-opacity:1" />
    <path
       d="m 689.89,341.99 -5.98,5.66 2.64,4.37 -6.76,8.66 -0.72,8.92 -4.67,5.53 1.55,7.15 -6.02,5.3 -5.67,2.05 -8.86,-0.71 -1.92,-4.85 -7.57,-1.67 -6.91,3.51 -7,-0.38 -7.31,-4.99 -4.47,-5.98 -7.57,-0.57 -9.47,6.62 -13.8,0.6 -0.85,-7 -10.93,-3.11 -4.31,3.12 -5.82,-1.34 -13.12,6.28 -7.66,0.32 -5.71,-2.69 -3.14,-11.24 -7.98,-9.35 -11.55,-2.28 -6.29,0.75 0.3,-5.9 -13.62,-10.33 -1.98,-6.66 -5.05,-2 -2.09,-4.86 -6.59,-0.19 -7.54,-12.19 -3.81,-0.16 0.63,-7.34 -2.92,-5.69 -7.68,-0.87 -2.73,-7.39 -5.37,-0.5 0.12,-6.74 -3.72,-7.31 -9.42,0.87 0.21,-7.99 4.41,-8.28 -0.75,-6.45 12.62,2.91 5.04,-2.11 -6.61,-8.13 2.93,-4.42 21.75,13.47 3.43,-0.99 10.49,2.02 6.05,6.46 4.81,-0.56 6.84,-5.87 11.16,3.02 5.56,-6.66 4.7,7.72 4.09,1.25 -3.64,11.3 6.71,2.04 3.57,4.47 3.75,-7.91 -1.6,-4.65 6.84,11.8 10.91,-1.91 4.92,-12.75 -0.97,-6.41 5.72,-1.27 13.74,3.46 9.47,14.61 -2.61,7.01 1.07,13.2 6.54,7.1 6.99,-1.91 6.6,4 5.75,-1.49 9.02,4.36 7.72,-2.01 5.51,2.84 8.55,-0.27 7.54,-3.44 0.88,-4.54 9.23,11.16 9.95,14.81 4.16,0.65 2.31,8.4 z"
       id="M16322"
       style="fill:#ffff80;fill-opacity:1;stroke:#000000;stroke-width:1.17529;stroke-dasharray:none;stroke-opacity:1" />
    <path
       d="m 440.55,277.41 0.77,4.44 -6.8,5.01 -2.41,7.67 -7.13,-1.25 2.32,-8.6 -0.71,-7.39 -4.75,0.39 9.98,-9.27 3.68,4.05 5.26,-3.04 z"
       id="M16321"
       style="fill:#ffff80;fill-opacity:1;stroke:#000000;stroke-width:1.17529;stroke-dasharray:none;stroke-opacity:1" />
    <path
       d="m 331.16,223.56 -0.91,9.76 -9.85,5 -12.45,2.61 -4.26,16.16 -11.07,-0.68 -0.96,5.2 -5.09,2.26 -0.4,5.8 -3.98,0.76 4.79,15.97 -2.73,9.18 -5.96,0.23 -5.2,5.06 -6.35,-2.83 -9.99,24.49 -5.75,-4.56 -5.68,14.47 -5.25,-2.69 -2.15,-4.94 -9.81,10.78 1.1,-5.86 -4.75,-7.85 -3.25,-7.22 -0.15,-5.87 -6.21,-6.55 2.92,-10.38 -22.25,-9.47 22.91,-31.78 -0.6,-4.92 4.75,-3.94 4.97,-15.07 -1.84,-9.3 4.07,-8.16 5.15,4.08 6.69,0.94 8.8,4.97 4.37,-2.32 6.01,1.83 9.21,-6.94 16.61,11.32 1.14,-3.72 -6.18,-4.38 -0.56,-8.84 3.44,-4.15 12.11,4.06 -0.79,4.72 9.87,3.7 6.03,3.84 z m -68.95,-17.1 -0.49,2.3 -0.88,0.77 -4.52,-3.83 -7.32,2.09 -2.78,-7.36 -12.32,-4.19 -0.28,-2.96 7.71,-5.74 14.55,10.47 8.18,2.42 3.17,-3.99 6.06,5.95 1.11,6.21 z"
       fill-rule="evenodd"
       id="M16211"
       style="fill:#ffff80;fill-opacity:1;stroke:#000000;stroke-width:1.17529;stroke-dasharray:none;stroke-opacity:1" />
    <path
       d="m 112.23,354.9 -0.9,4.09 2.19,1.3 11.57,3.41 0.43,5.81 14.02,6.78 3.27,0.2 9.64,7.2 2.03,5.05 8.45,7.86 6.18,16 9.35,14.26 11.24,5.12 -0.7,5.62 15.11,2.84 11.54,0.18 -2.82,7.87 1.59,19.13 -5.06,7.88 2.52,6.06 5.4,-5.24 4.96,-1.02 4.71,3.18 3.83,24.69 3.98,7.66 -0.83,7.16 4.3,11.34 -7.68,14.78 2.08,6.71 3.88,3.6 -4.82,15.06 1.78,14.19 -3.05,4.72 -4.78,13.55 -1.25,7.15 2.92,2.41 6.24,-2.23 2.85,6.21 -5.98,13.37 -4.46,6.62 7.82,3.18 -4.97,3.94 -0.21,9 -11.79,12.03 -15.37,1.55 2.28,6.68 -8.38,11.1 -2.38,8.32 -4.24,2.76 -9.95,-0.22 -3.16,4.77 -8.05,6.42 -14.39,-1.79 5.82,-14.44 2.67,-12.69 2.71,-5.71 -0.87,-4.87 -5.87,-3.68 -1.9,-8.28 -5.24,-11.75 -3.07,0.1 -3.45,-6.53 -5.71,-3.4 -5.85,0.73 -7.66,-6.46 -12.3,-5.86 -13.94,15.23 -5.87,3.51 -5,-4.8 -0.4,-13.83 -5.78,-3.14 -3.7,8.39 0.7,5.78 -10.78,2.09 -6.17,-3.51 -5.31,3.77 1.5,8.88 2.62,5.12 -3.36,10.06 -4.63,7.71 -4.77,12.78 -13.98,-0.12 -3.99,-3.47 -7.03,3.51 -5.65,-9.63 1.82,-3.59 -1.21,-8.89 -4.31,-4.36 2.49,-4.02 -1.76,-10.47 2.03,-4.46 15.06,-7.12 0.55,-7.85 -4.86,-6.09 L 26.63,600.63 24.8,597.1 22.35,580.07 9.29,567 3.18,567.34 1,558.07 l 0.75,-7.37 6.99,-0.17 6.53,-7.51 7.13,-4.98 -4.98,-6 0.12,-5.09 7.33,-7.29 -2.19,-13.04 5.68,-9.83 -6.18,-11.58 1.73,-5.65 -1.59,-8.8 7.1,-11.68 7.14,-15.58 3.41,-14.68 -4.28,-7.8 -7.48,-8.16 -9.24,-1.04 3.5,-13.57 -0.91,-6.5 -4.69,-3.13 0.95,-12.39 4.25,1.13 3.86,-4.94 -2.29,-3.95 3.55,-3.8 8.56,0.92 -1.55,11.64 3.38,3.32 7.56,0.89 7.39,5.22 9.34,9.35 5.2,-1.34 1.06,-9.68 11.17,-7.93 27.38,2.46 1.75,-7.16 5.33,-5.43 -0.81,-5.96 -3.25,-3.12 z"
       id="M16210"
       style="fill:#ffff80;fill-opacity:1;stroke:#000000;stroke-width:1.17529;stroke-dasharray:none;stroke-opacity:1" />
    <path
       d="m 112.23,354.9 -2.53,2.95 3.25,3.12 0.81,5.96 -5.33,5.43 -1.75,7.16 -27.38,-2.46 -11.17,7.93 -1.06,9.68 -5.2,1.34 -9.34,-9.35 -7.39,-5.22 -7.56,-0.89 -3.38,-3.32 1.55,-11.64 -8.56,-0.92 -3.55,3.8 2.29,3.95 -3.86,4.94 -4.25,-1.13 -4.84,-9.72 0.61,-11.92 7.74,-4 4.84,-5.35 -0.12,-8.17 6.25,-3.44 -0.26,-5.11 5.47,-6.13 3.68,-8.36 4.13,-2.11 -2.59,-5.26 1.6,-5.65 -3.98,-4.83 -5.21,0.47 1.67,-18.05 -11.47,-6.8 -7.23,-7.67 3.14,-9.53 4.63,-3.08 16.3,-0.61 1.49,-9.34 9.41,-3.1 6.58,7.07 7.12,0.07 5.61,3.15 1.65,6.65 6.62,1.24 7.36,7.89 6.86,0.86 0.79,9.93 3.34,7.35 10.54,-3.79 2.42,7.44 5.59,8.27 5.32,-3.63 2.66,5.55 7.92,12.6 -10.62,-1.71 -5.26,9.14 3,9.37 -3.63,4.3 5.31,12.67 z"
       id="M16209"
       style="fill:#ffff80;fill-opacity:1;stroke:#000000;stroke-width:1.17529;stroke-dasharray:none;stroke-opacity:1" />
    <path
       d="m 224.46,321.88 4.75,7.85 -1.1,5.86 5.61,1.18 5.36,6.55 -7.1,8.23 -2.2,8.6 0.02,21.19 -7.49,10.66 0.95,5.16 -4.83,4.5 0.95,9.55 -2.82,5.18 0.8,8.86 -1.71,15.37 -11.54,-0.18 -15.11,-2.84 0.7,-5.62 -11.24,-5.12 -9.35,-14.26 -6.18,-16 -8.45,-7.86 -2.03,-5.05 -9.64,-7.2 -3.27,-0.2 -14.02,-6.78 -0.43,-5.81 -11.57,-3.41 -2.19,-1.3 0.9,-4.09 10.03,-12.01 -5.31,-12.67 3.63,-4.3 -3,-9.37 5.26,-9.14 10.62,1.71 -7.92,-12.6 7.77,-0.61 9.16,6.29 4.16,-0.48 2.8,8.71 2.52,1.14 -0.4,9.47 7.4,0.88 0.52,-5.16 6.59,-0.3 2.97,-5.58 9.36,1.42 -2.42,12.28 9.09,-2.92 7.63,0.77 0.35,-6.81 2.94,-6.19 9.49,1.47 -0.98,4.39 15.54,8.12 z"
       id="M16208"
       style="fill:#ffff80;fill-opacity:1;stroke:#000000;stroke-width:1.17529;stroke-dasharray:none;stroke-opacity:1" />
    <path
       d="m 676.61,114.77 6.28,2.24 10.53,13.68 10.15,-0.5 3.55,9.45 -1.42,5.32 80.1,69.3 5.78,13.24 -1.9,2.92 6.03,10.52 -6.67,13.74 1.39,7.57 -2.12,14.37 5.25,10.85 -1.91,6.68 4.42,1.53 -1.02,9.79 2.63,9.19 -1.93,5.63 -4.68,3.52 2.21,10.94 -3.95,20.15 -3.65,2.19 -3.33,-0.86 -12,2.6 -8.88,-3.74 -12.1,-11.3 -7.59,-5.62 -5.59,-1.47 -2.49,5.47 -5.89,3.9 -9.84,-0.69 -12.39,1.06 -1.95,-4.11 -13.74,-0.34 -3.98,-6.54 -2.31,-8.4 -4.16,-0.65 -9.95,-14.81 -9.23,-11.16 -3.58,-8.34 0.8,-9.43 6.23,-3.77 12.59,-16.17 0.6,-7.02 -2.72,-4.14 -6.77,-1.09 -7.26,-8.03 -5.78,-14.21 -10.94,-7.18 -4.95,-5.38 -15.43,-4.56 -8.78,-11.27 -9.52,3.88 -12.2,-9.09 0.55,-8.8 -5.75,-7.82 5.32,-11.53 0.18,-9.13 -15.92,-7.14 -4.48,-3.35 -5.85,0.61 -12.23,-2.98 -5.09,-4.12 -17.73,-7.7 -5.69,-6.67 -10.61,-5.72 5.67,-6.84 1.82,-12.87 -2.6,-8.59 -4.75,-9.65 7.09,-12.45 1.51,-6 4.5,-5.04 10.04,10.46 11.26,8.15 24.89,6.93 12.93,5.9 10.5,9.8 9.26,6.07 7.7,1.17 5.99,5.51 2.23,-11.73 -4.98,-13.49 6.78,3.81 3.71,14.21 7.56,-0.91 10.1,8.01 7.15,1.11 3.19,3.77 2.38,11.79 4.84,-0.72 z"
       id="M16207"
       style="fill:#ffff80;fill-opacity:1;stroke:#000000;stroke-width:1.17529;stroke-dasharray:none;stroke-opacity:1" />
    <path
       d="m 546.07,268.05 1.6,4.65 -3.75,7.91 -3.57,-4.47 -6.71,-2.04 3.64,-11.3 -4.09,-1.25 -4.7,-7.72 -5.56,6.66 -11.16,-3.02 -6.84,5.87 -4.81,0.56 -6.05,-6.46 -10.49,-2.02 -3.43,0.99 -21.75,-13.47 -6.42,-5.9 -2.17,-6.58 -3.8,0.39 -5.86,-7.93 14.13,-4.12 7.58,-9.44 5.34,-10.29 15.29,-11.81 10.8,-6.19 10.83,14.29 4.9,11.67 10.55,17.18 9.12,9.86 6.6,15.96 5.19,5.72 z"
       id="M16206"
       style="fill:#ffff80;fill-opacity:1;stroke:#000000;stroke-width:1.17529;stroke-dasharray:none;stroke-opacity:1" />
    <path
       d="m 200.12,151.97 -4.13,5.81 0.73,8.01 -9.83,5.5 4.25,7.43 6.18,0.38 3.76,5.17 -3.89,6.72 -13.32,-5.34 -8.72,1.53 -2.83,5.41 -4.91,-1.64 -13.91,8.18 -1.54,-7.07 -7.45,1.83 0.95,5.71 -17.51,11.89 -14.11,-5.45 -2.8,-4.88 -5.53,6.32 -9.18,-3.58 -2.59,-7.53 -8.81,3.05 -17.91,-4.88 2.54,-8.27 -2.87,-6.65 -1.34,-11.1 9.04,-16.24 -2.87,-10.74 5.49,-3.06 -1.74,-12.01 1.02,-5.53 7.1,-2.36 9.46,-14.19 2.06,-8.4 -3.4,-3.15 -2.8,-11.2 0.88,-6.8 6.81,-10.45 3.29,-1.35 3.22,-6.72 8.23,-1.76 7.34,-4.02 5.97,-7.04 4.16,-10.17 16.96,-7.94 4.19,-0.44 7.49,7.27 8.36,4.43 6.21,-7.15 4.14,-15.84 8.3,0.65 5.83,5.13 13.81,-2.43 4.62,1.44 8.37,-4.71 6.24,3.49 1.74,7.55 -16.54,17.07 4.5,15.34 -5.91,9.97 -5.9,3.17 -5.15,11.2 -6.83,10.06 -6.24,4.56 -1.96,6.06 -6.14,1.72 0.11,8.15 3.9,8.22 0.73,7.03 3.75,6.42 8.81,10.67 z"
       id="M16205"
       style="fill:#ffff80;fill-opacity:1;stroke:#000000;stroke-width:1.17529;stroke-dasharray:none;stroke-opacity:1" />
    <path
       d="m 660.26,300.43 -0.88,4.54 -7.54,3.44 -8.55,0.27 -5.51,-2.84 -7.72,2.01 -9.02,-4.36 -5.75,1.49 -6.6,-4 -6.99,1.91 -6.54,-7.1 -1.07,-13.2 2.61,-7.01 -9.47,-14.61 -13.74,-3.46 -5.72,1.27 0.97,6.41 -4.92,12.75 -10.91,1.91 -6.84,-11.8 -5.59,-12.3 -5.19,-5.72 -6.6,-15.96 -9.12,-9.86 -10.55,-17.18 -4.9,-11.67 -10.83,-14.29 8.46,-6.78 -0.01,-12.12 6.15,-17.94 8.79,-11.16 -1.43,-12.79 10.61,5.72 5.69,6.67 17.73,7.7 5.09,4.12 12.23,2.98 5.85,-0.61 4.48,3.35 15.92,7.14 -0.18,9.13 -5.32,11.53 5.75,7.82 -0.55,8.8 12.2,9.09 9.52,-3.88 8.78,11.27 15.43,4.56 4.95,5.38 10.94,7.18 5.78,14.21 7.26,8.03 6.77,1.09 2.72,4.14 -0.6,7.02 -12.59,16.17 -6.23,3.77 -0.8,9.43 z"
       id="M16204"
       style="fill:#ffff80;fill-opacity:1;stroke:#000000;stroke-width:1.17529;stroke-dasharray:none;stroke-opacity:1" />
    <path
       d="m 270.01,211.78 -9.21,6.94 -6.01,-1.83 -4.37,2.32 -8.8,-4.97 -6.69,-0.94 -5.15,-4.08 -4.07,8.16 1.84,9.3 -4.97,15.07 -4.75,3.94 0.6,4.92 -22.91,31.78 22.25,9.47 -2.92,10.38 6.21,6.55 0.15,5.87 3.25,7.22 -4.43,1.53 -15.54,-8.12 0.98,-4.39 -9.49,-1.47 -2.94,6.19 -0.35,6.81 -7.63,-0.77 -9.09,2.92 2.42,-12.28 -9.36,-1.42 -2.97,5.58 -6.59,0.3 -0.52,5.16 -7.4,-0.88 0.4,-9.47 -2.52,-1.14 -2.8,-8.71 -4.16,0.48 -9.16,-6.29 -7.77,0.61 -2.66,-5.55 -5.32,3.63 -5.59,-8.27 -2.42,-7.44 -10.54,3.79 -3.34,-7.35 -0.79,-9.93 -6.86,-0.86 -7.36,-7.89 -6.62,-1.24 -1.65,-6.65 -5.61,-3.15 -7.12,-0.07 -6.58,-7.07 4.52,-2.02 4.76,-10.45 3.21,-3.49 1.63,-9.49 -1.86,-7.8 -4.4,-5.06 6.08,-5.62 17.91,4.88 8.81,-3.05 2.59,7.53 9.18,3.58 5.53,-6.32 2.8,4.88 14.11,5.45 17.51,-11.89 -0.95,-5.71 7.45,-1.83 1.54,7.07 13.91,-8.18 4.91,1.64 2.83,-5.41 8.72,-1.53 13.32,5.34 3.89,-6.72 -3.76,-5.17 -6.18,-0.38 -4.25,-7.43 9.83,-5.5 -0.73,-8.01 4.13,-5.81 14.08,10.72 8.08,4.64 9.97,12.5 4.95,-3.41 4.09,4.25 0.04,6.87 -7.71,5.74 0.28,2.96 12.32,4.19 2.78,7.36 7.32,-2.09 4.52,3.83 z"
       id="M16202"
       style="fill:#ffff80;fill-opacity:1;stroke:#000000;stroke-width:1.17529;stroke-dasharray:none;stroke-opacity:1" />
    <path
       d="m 421.84,277.68 -1.74,5.66 -10.82,3.28 4.62,22.12 -0.53,21.28 1.73,10.18 2.9,6.71 12.11,18.48 4.96,5.72 6.43,11.68 1.01,6.74 11.89,12.79 9.41,5.04 11.56,2.98 10.75,-0.93 11.56,-4.46 14.18,-2.71 10.82,-4.58 5.1,1.26 9.61,-2.35 9.5,5.74 6.3,6.68 8.28,2.29 5.71,4.51 10.84,0.58 8.32,7.66 2.67,-1.36 6.24,6.02 1.28,5.79 8.9,2.48 6.06,-3.6 6.3,-0.66 4.54,2.92 12.86,-4.67 9.38,-5.05 10.05,-0.04 5.89,1.6 7.18,6.39 38.03,22.88 6.84,5.2 5.17,-4 8.2,-2.92 16.86,6.97 4.93,-7.09 3.37,0.01 1.45,8.79 -6.87,3.38 -11.09,1.8 -4.67,-1.65 -6.82,4.88 -2.02,16.22 -6.88,0.11 -4.54,4.9 -0.97,8.07 4.69,9.69 -1.26,11.66 -7.84,4.19 -4.31,8.68 -1.71,14.43 -3.59,6.33 -8.57,1.45 -4.19,4.95 -6.58,0.7 -4.32,9.17 1.24,6.15 -3.72,3.05 -6.67,9.78 -5.32,-0.1 -6.51,-3.17 -14.56,5.48 -14.92,-3.97 -8.74,-11.81 -7.81,-2.78 -6.05,-10.29 -0.81,-7.04 -11.84,-2.64 -4.42,2.52 -14.01,-1.78 -4.55,8.45 -6,4.63 -6.61,-3.78 -8.33,1.77 -4.97,-6.13 -12.27,-2.36 -2.82,-2.87 -5.64,1.01 -5.13,-2.62 -6.85,-9.12 -0.28,-19.13 -4.66,-1.68 -22.11,7.19 -3.03,6.82 0.22,6.89 -6.33,3.33 -9.22,-0.92 -4.42,4.12 -6.85,1.31 -4.04,3.98 -5.32,-0.88 -6.22,-10.85 7.01,-5.44 -0.46,-7.25 3.59,-2.24 -0.8,-9.79 -8.16,-2.88 -6.65,5.61 -9.89,-2.97 -6.59,-3.58 -11.1,6.4 -6.06,7.25 -7.04,-10.8 -13.03,17.66 -7.37,0.63 -3.17,5.01 -4.04,0.64 -0.51,7.72 -6.25,-2.36 0.09,-4.17 -8.12,-9.84 -3.09,-8.37 -12,3.99 -5.85,-4.44 -7.17,-0.96 -3.88,7.3 -10.11,5.97 -14.47,21 -1.78,4.93 -8.42,1.76 -7.68,16.15 -4.62,-0.21 -1.03,15.39 -3.95,1.23 -9.01,-1.58 -10.57,9.12 -5.7,3.18 -6.24,2.23 -2.92,-2.41 1.25,-7.15 4.78,-13.55 3.05,-4.72 -1.78,-14.19 4.82,-15.06 -3.88,-3.6 -2.08,-6.71 7.68,-14.78 -4.3,-11.34 0.83,-7.16 -3.98,-7.66 -3.83,-24.69 -4.71,-3.18 -4.96,1.02 -5.4,5.24 -2.52,-6.06 5.06,-7.88 -1.59,-19.13 2.82,-7.87 1.71,-15.37 -0.8,-8.86 2.82,-5.18 -0.95,-9.55 4.83,-4.5 -0.95,-5.16 7.49,-10.66 -0.02,-21.19 2.2,-8.6 7.1,-8.23 -5.36,-6.55 -5.61,-1.18 9.81,-10.78 2.15,4.94 5.25,2.69 5.68,-14.47 5.75,4.56 9.99,-24.49 6.35,2.83 5.2,-5.06 5.96,-0.23 2.73,-9.18 -4.79,-15.97 3.98,-0.76 0.4,-5.8 5.09,-2.26 0.96,-5.2 11.07,0.68 4.26,-16.16 12.45,-2.61 9.85,-5 0.91,-9.76 7.65,0.41 4.23,-3.53 7.78,1.71 18.98,-2.2 0.67,-3.14 10.98,-0.95 13.89,3.72 6.93,0.25 21.1,4.66 5.04,-2.21 11.74,0.64 5.86,7.93 3.8,-0.39 2.17,6.58 6.42,5.9 -2.93,4.42 6.61,8.13 -5.04,2.11 -12.62,-2.91 0.75,6.45 -4.41,8.28 -5.26,3.04 -3.68,-4.05 z"
       id="M16201"
       style="fill:#ffff80;fill-opacity:1;stroke:#000000;stroke-width:1.17529;stroke-dasharray:none;stroke-opacity:1" />
  </g>
</svg>
