<?xml version="1.0" encoding="UTF-8" standalone="no"?>
<svg
   version="1.2"
   width="529.17902"
   height="600"
   viewBox="0 0 529.17902 600"
   stroke-linecap="round"
   stroke-linejoin="round"
   id="svg6891"
   sodipodi:docname="wa.svg"
   inkscape:version="1.2 (dc2aedaf03, 2022-05-15)"
   xmlns:inkscape="http://www.inkscape.org/namespaces/inkscape"
   xmlns:sodipodi="http://sodipodi.sourceforge.net/DTD/sodipodi-0.dtd"
   xmlns="http://www.w3.org/2000/svg"
   xmlns:svg="http://www.w3.org/2000/svg">
  <defs
     id="defs6895" />
  <sodipodi:namedview
     id="namedview6893"
     pagecolor="#505050"
     bordercolor="#eeeeee"
     borderopacity="1"
     inkscape:showpageshadow="0"
     inkscape:pageopacity="0"
     inkscape:pagecheckerboard="0"
     inkscape:deskcolor="#505050"
     showgrid="false"
     inkscape:zoom="0.88864388"
     inkscape:cx="264.44789"
     inkscape:cy="300.45782"
     inkscape:window-width="1920"
     inkscape:window-height="1009"
     inkscape:window-x="-8"
     inkscape:window-y="-8"
     inkscape:window-maximized="1"
     inkscape:current-layer="svg6891" />
  <g
     id="wa"
     transform="matrix(0.66187845,0,0,0.66187845,-0.16188015,-0.16188238)"
     style="fill:#ffff80;fill-opacity:1;stroke:#000000;stroke-width:1.51085;stroke-dasharray:none;stroke-opacity:1">
    <path
       d="m 396.85,328.71 2.54,5.42 0.06,11.8 16.01,1.58 7.4,9.79 -0.48,4.16 -6.11,8.33 5.83,4.71 8.29,19.32 -4.94,11.22 -15.24,9.84 -4.64,-1.09 -11.51,6.51 -4.13,0.3 -8.68,5.2 -7.2,-1.86 -2.98,4.44 -7.36,0.15 -4.16,-7.32 -11.37,-1.04 -8.86,5.99 -6.04,-5.92 -9.2,15.39 -8.54,-0.59 -6.25,7.72 -0.9,5.43 -14.54,1.24 -5.3,-0.91 -14.25,3.51 -11.71,0.47 -7.81,7.77 -8.25,-0.63 -10.87,8.2 -1.75,3.98 -7.86,-0.25 -11.34,9.31 -7.41,9.79 -10.44,-1.69 -3.98,1.39 -8.51,-5.08 -15.91,-0.18 -13.34,-3.72 -0.45,-10.01 -6.23,-10.59 -14.46,-9.75 -1.11,-14.21 4.96,-5.97 -2.98,-16.9 3.25,-3.21 5.18,-1.52 10.31,3.81 9.13,1.28 10.3,-0.43 1.01,3.96 7.57,1 2.34,-10.47 14.82,-5.91 3.66,-8.12 -2,-2.99 1.83,-12.68 11.28,-7.71 4.71,-6.17 6.88,0.56 5.1,-3.32 6.1,3.42 17.97,-4.94 3.57,2.17 12.93,1.81 9.22,-0.36 11.19,-8.36 15.98,3.39 7.37,-4.59 1,-3.85 11.6,-5.59 16.04,-5.72 11.5,-9.63 5.68,2.4 6.75,6.46 11.22,-0.96 11.12,-4.11 2.47,-5.95 z"
       id="M30392"
       style="fill:#ffff80;fill-opacity:1;stroke:#000000;stroke-width:1.51085;stroke-dasharray:none;stroke-opacity:1" />
    <path
       d="m 263.32,611.36 -4.56,1.27 -4.48,-9.22 -0.13,-5.56 -6,-7.55 -4.07,-1.79 -8.63,2.7 -15.46,-10.79 -12.21,-4.64 -5.15,-15.38 8.66,-15.04 6.12,-3.16 14.47,-1.23 2.91,-10.27 7.11,-5.24 -0.84,-9.64 4.57,-7.03 -3.29,-3.79 9.48,-10.96 0.01,-4.93 10.64,-5.5 8.47,1.13 3.98,-1.77 4.17,-7.11 10.32,2.04 19.56,1.05 5.48,-3.18 4.81,6.17 7.06,1.96 10.34,-0.58 -1.52,8.89 1.22,6.09 5.21,-2.25 7.37,3.77 -0.36,4.73 5.41,2.97 11.19,1.39 -3.6,9.96 -4.51,4.21 -9.23,-2.67 -9.6,3.18 -4.94,-0.77 -8.46,4.25 -5.47,0.06 -4.19,-3.75 -8.72,0.3 -7.64,4.82 -9.46,9.98 -3.48,7.33 -6.75,5.1 -7.43,-0.18 2.58,13.7 -1.58,6.22 0.84,10.39 -3.12,2.49 -0.08,10.41 z"
       id="M30391"
       style="fill:#ffff80;fill-opacity:1;stroke:#000000;stroke-width:1.51085;stroke-dasharray:none;stroke-opacity:1" />
    <path
       d="m 155.12,481.39 13.34,3.72 15.91,0.18 8.51,5.08 3.98,-1.39 10.44,1.69 7.41,-9.79 11.34,-9.31 7.86,0.25 1.75,-3.98 10.87,-8.2 8.25,0.63 7.81,-7.77 11.71,-0.47 14.25,-3.51 5.3,0.91 14.54,-1.24 2.18,2.05 0.65,10.11 -3.82,1.94 0.91,6.06 6.67,1.09 -0.53,6.33 -5.48,3.18 -19.56,-1.05 -10.32,-2.04 -4.17,7.11 -3.98,1.77 -8.47,-1.13 -10.64,5.5 -0.01,4.93 -9.48,10.96 3.29,3.79 -4.57,7.03 0.84,9.64 -7.11,5.24 -2.91,10.27 -14.47,1.23 -6.12,3.16 -8.66,15.04 5.15,15.38 -22.07,2.31 -3.86,-3.46 2.97,-6.65 -0.93,-6.43 -12,-6.49 -3.51,-4.76 -5.03,0.6 -8.41,-3.9 2.92,-10.11 -0.94,-5.92 5.16,-7.73 -4.66,-3.81 -1.56,-11.13 -13,-4.49 1.72,-6.81 8.56,-2.81 10.2,4.17 4.79,-2.78 -0.81,-4.93 -10.93,-0.98 z"
       id="M30390"
       style="fill:#ffff80;fill-opacity:1;stroke:#000000;stroke-width:1.51085;stroke-dasharray:none;stroke-opacity:1" />
    <path
       d="m 218.24,364.8 -4.71,6.17 -11.28,7.71 -1.83,12.68 2,2.99 -3.66,8.12 -14.82,5.91 -2.34,10.47 -7.57,-1 -1.01,-3.96 -10.3,0.43 -9.13,-1.28 -10.31,-3.81 -5.18,1.52 -2.65,-8.56 -0.46,-9.33 3.06,-4.28 -2.01,-4.46 -0.41,-10.17 -8.46,-1.26 -16.25,6.18 -7.18,-10.06 13.48,-6.89 -6.82,-7.93 7.21,-4.04 -1.02,-4.64 11.79,-3.7 4.42,-3.19 7.82,2.45 1.02,2.98 14.97,2.97 7.76,12.4 9.28,2.84 12.61,-2.09 0.87,-7.12 2.85,2.4 13.9,0.59 6.02,-1.69 1.09,5.18 z"
       id="M30362"
       style="fill:#ffff80;fill-opacity:1;stroke:#000000;stroke-width:1.51085;stroke-dasharray:none;stroke-opacity:1" />
    <path
       d="m 187.13,352.85 -0.87,7.12 -12.61,2.09 -9.28,-2.84 -7.76,-12.4 -14.97,-2.97 -1.02,-2.98 -7.82,-2.45 -6.95,-11.36 -3.78,-3.36 -4.65,2.4 -3.42,-4.06 -0.91,-6.78 -5.85,-0.81 7.77,-1.47 7.57,-3.97 6.12,-0.42 5.58,7.38 10.44,-5.89 6.47,15.48 -1.16,4.6 4.72,5.74 8.83,-2.39 5.08,5.95 6.06,-2.25 5.89,2.11 z"
       id="M30361"
       style="fill:#ffff80;fill-opacity:1;stroke:#000000;stroke-width:1.51085;stroke-dasharray:none;stroke-opacity:1" />
    <path
       d="m 475.63,221.41 -2.7,-4.16 -15.37,0.82 -4.02,-3.51 0.78,-5.1 -6.02,-7.03 1.66,-4.54 -8.8,-12.91 0.91,16.77 -6.27,11.76 -12.22,5.66 -12.47,-4.51 -6.64,-9.23 0.6,-7.36 -2.27,-6.08 6.15,-5.69 0.58,-7 5.92,-5.09 -7.86,-5.39 2.38,-27.3 9.01,-1.34 14.49,-0.94 1.65,-6.33 6.49,-2.13 5.94,2.44 4.03,-3.61 -2.5,-6.67 1.37,-13.11 6.74,-0.2 2.68,16.95 3.66,7.71 8.61,1.47 2.72,5.99 8.59,3.7 4.5,-3.4 3.84,-7.73 5.78,-3.4 9.16,-0.11 8.25,7.39 5.62,-3.32 10.29,-12.73 -2.81,-4.65 8.12,-8.39 6.49,-0.06 2.44,-6.27 20.55,14.32 1.35,12.85 2.61,9.4 5.19,8.11 -2.01,10.41 -10.94,6 -4.63,5.95 -7.9,-3.43 -3.11,-5.02 -12.8,-6.09 -7.81,-0.73 -4.63,5.63 -5.29,1.95 -5.7,-2.59 -10.76,13.77 -0.28,5.28 5.7,7.25 0.5,7.95 -3.44,3.75 -7.15,2.27 -6.33,10.33 1.06,7.34 -4.05,2.43 z"
       id="M30344"
       style="fill:#ffff80;fill-opacity:1;stroke:#000000;stroke-width:1.51085;stroke-dasharray:none;stroke-opacity:1" />
    <path
       d="m 497.57,130.92 -5.78,3.4 -3.84,7.73 -4.5,3.4 -8.59,-3.7 -2.72,-5.99 -8.61,-1.47 -3.66,-7.71 -2.68,-16.95 -6.74,0.2 -1.37,13.11 2.5,6.67 -4.03,3.61 -5.94,-2.44 -6.49,2.13 -1.65,6.33 -14.49,0.94 -2.12,-9.93 -3.44,-5.56 3.5,-6.96 1.37,-14.62 7.72,-10.06 -5.02,-7.99 5.21,-7.08 6.02,5.57 9.06,4.3 7.64,-5.94 0.06,9.99 2.4,5.01 9.73,-0.6 3.84,6.6 12.49,-4.55 8.13,1.42 6.92,-2.84 7.4,12.27 6.69,3.4 -5.87,4.71 0.97,4.99 -5.39,3.76 z"
       id="M30343"
       style="fill:#ffff80;fill-opacity:1;stroke:#000000;stroke-width:1.51085;stroke-dasharray:none;stroke-opacity:1" />
    <path
       d="m 103.74,368.81 7.18,10.06 16.25,-6.18 8.46,1.26 0.41,10.17 -11.54,6.52 -5.1,1.41 -10.48,11.42 -1.89,5.93 -12.85,10.93 -11.29,1.37 -4.3,-9.33 9.22,-2.28 -2.87,-5.83 -7.07,-1.39 -2.4,4.49 -8.92,3.31 -5.98,0.31 4.79,-11 -5.18,-2.16 -3.7,-8.9 10.49,-0.24 4.3,-13.37 9.02,0.18 12.09,-5.92 4.68,1.6 z"
       id="M30383"
       style="fill:#ffff80;fill-opacity:1;stroke:#000000;stroke-width:1.51085;stroke-dasharray:none;stroke-opacity:1" />
    <path
       d="m 138.1,410.75 -3.25,3.21 -9.87,2.78 -3.59,7.32 1.88,8.25 0.25,10.28 -14.33,8.43 -6.3,-1.8 -0.05,8.04 -7.83,4.53 -11.36,-1.13 -4.63,2.29 -12.65,-1.22 -12.05,5.56 -0.4,7.37 -4.67,0.7 -6.35,8.06 -0.51,-8.45 5.78,-2.87 -4.22,-12.53 6.31,-1.26 7.29,3.03 4.44,-3.4 0.95,-10.41 -5.43,-2.1 2.51,-5.6 -4.08,-2.09 1.24,-6.74 6.49,-0.03 -0.39,-6.43 4.4,-7.17 5.58,1.17 5.33,-6.17 4.3,9.33 11.29,-1.37 12.85,-10.93 1.89,-5.93 10.48,-11.42 5.1,-1.41 11.54,-6.52 2.01,4.46 -3.06,4.28 0.46,9.33 z"
       id="M30382"
       style="fill:#ffff80;fill-opacity:1;stroke:#000000;stroke-width:1.51085;stroke-dasharray:none;stroke-opacity:1" />
    <path
       d="m 42.9,483.42 6.35,-8.06 4.67,-0.7 0.4,-7.37 12.05,-5.56 12.65,1.22 4.63,-2.29 11.36,1.13 7.83,-4.53 0.05,-8.04 6.3,1.8 4.72,17.44 5.42,14.55 -1.41,4.54 -8.35,-8.84 -8.15,-3.93 -15.59,-4.24 -9.06,4.19 -12.89,1.74 -3.24,-3.62 -7.99,7.11 z"
       id="M30381"
       style="fill:#ffff80;fill-opacity:1;stroke:#000000;stroke-width:1.51085;stroke-dasharray:none;stroke-opacity:1" />
    <path
       d="m 396.85,328.71 -4.92,-1.08 -2.47,5.95 -11.12,4.11 -11.22,0.96 -6.75,-6.46 -5.68,-2.4 -11.5,9.63 -16.04,5.72 -11.6,5.59 -1,3.85 -7.37,4.59 -15.98,-3.39 -11.19,8.36 -9.22,0.36 -12.93,-1.81 -3.57,-2.17 -17.97,4.94 -6.1,-3.42 -5.1,3.32 -6.88,-0.56 -7.25,-5.47 -1.09,-5.18 -6.02,1.69 -13.9,-0.59 -2.85,-2.4 -6.52,-13.53 -5.89,-2.11 -6.06,2.25 -5.08,-5.95 -8.83,2.39 -4.72,-5.74 1.16,-4.6 -6.47,-15.48 3.3,-4.38 1.97,-10.58 -4.95,-16.23 0.61,-3.71 13.84,-1.95 13.34,-9.62 7.43,2.75 3.21,-4.57 3.04,-9.64 7.83,-0.4 10.87,6.65 17.15,-4.58 6,-5.37 3.98,-9.56 9.16,13.86 2.7,11 4.26,5.32 14.02,-0.85 2.3,-7.82 6.42,-2.74 7.85,2.82 14.64,0.26 -0.23,-7.23 23.22,-0.91 19.45,5.91 8.11,-5.93 8.37,-3.71 7.12,-6.66 0.84,-3.75 20.32,-16.12 3.22,-1.51 7.1,3.05 6.74,7.85 12.62,23.06 8.28,4.44 0.44,12.89 10.16,3.11 1.96,1.14 0.84,11.3 -5.27,3.04 -2.71,6.14 6.74,6.91 -7.7,9.91 -2.29,6.45 -5.84,3.11 -7.15,-0.35 -10.57,3.46 z"
       id="M30366"
       style="fill:#ffff80;fill-opacity:1;stroke:#000000;stroke-width:1.51085;stroke-dasharray:none;stroke-opacity:1" />
    <path
       d="m 708.69,800.98 -13.56,9.84 -6.22,1.83 -12.17,7.11 -1.77,3.23 -11.56,5.39 0.34,4.18 -13.58,-1.7 -11.2,12.19 -4.1,-1.09 -7,5.74 -1.27,7.41 -10.41,17.98 8.28,16.65 0.46,4.45 -7.82,7.67 -3.89,-5.95 -7.08,-0.86 -3.9,10.95 -8.63,-1 1.68,-7.45 -4.63,-4.8 9.27,-6.52 10.83,-4.2 -0.91,-10 -5.41,-9.45 -6.43,-3.04 -5.59,3.75 -3.92,-1.86 -7.14,5.3 -3.84,-5.84 -5.01,5.25 -8.73,-4.37 -4.93,-5.75 -8.58,-2.18 -6.49,2.35 -6.75,-2.11 -5.51,2.22 -4.19,-3.73 -5.38,0.94 -7.29,-9.35 -8.32,-1.15 -6.26,-4.56 2.41,-14.74 -6.14,-4.55 -3.47,-5.48 8.11,-9.19 3.43,-10.56 -9.33,-0.42 -1.2,-13.53 3.38,-4.2 8.23,5.56 7.29,0.92 2.69,6.4 5.79,3.18 -0.07,6.76 3.61,13.79 7.02,6.89 4.19,-0.2 3.77,5.82 5.51,-1.04 6.42,2.32 3.12,-7.72 8.78,2.98 4.02,-6.28 8.05,1.38 4.63,8.47 6.79,3.77 6.01,-5 13.26,0.94 8.32,-0.97 3,-2.9 9.75,-2.14 10.78,-8.18 9.64,12.69 3.58,-6.03 -0.82,-6.31 7.04,-0.15 0.88,-6.25 -5.33,-16.04 4.79,-4.25 0.55,-6.5 3.24,-3.5 -0.31,-6.77 10.82,-5.93 6.02,3.75 1.35,4.65 6.08,-2.63 8.02,2.59 3.3,14.48 -3.54,2.68 5.73,7.93 5.73,0.14 z m -69.1,61.37 1.8,4.89 11.33,-1.19 13.58,2.7 8.28,3.74 -1.64,8.56 -11.31,1.84 -0.78,3.92 -7.58,-0.52 -6.55,-5.77 -10.03,-2.8 -4.44,1.32 -2.18,-5.45 z"
       fill-rule="evenodd"
       id="M30428"
       style="fill:#ffff80;fill-opacity:1;stroke:#000000;stroke-width:1.51085;stroke-dasharray:none;stroke-opacity:1" />
    <path
       d="m 793.81,362.16 -7.63,8.81 5.45,5.72 0.08,5.78 7.29,10.96 -0.03,4.77 -12.79,11.78 -4.51,-7.79 -4.75,-3.35 -6.21,1.51 -1.94,6.05 2.22,8.76 -1.91,9.53 -4.57,10.91 -4.13,1.59 -5.51,-5.83 -10.59,-4.85 -11.59,-1.79 -1.26,6.33 -7.08,2.9 -1.36,6.39 5.06,5 7.11,-2.72 -0.14,5.54 -8.1,2.61 -5.12,-5.49 -8.63,-5.38 -5.09,-1.11 -0.28,-6.77 -3.97,-5.15 0.62,-10.39 6.68,-3.66 10.83,-13.31 -0.25,-4.52 8.62,-8.45 11.06,1.37 10.63,-0.3 5.5,-4.01 10.81,-1.37 7.93,-5.42 3.85,-10.12 3.44,-2.72 z"
       id="M30427"
       style="fill:#ffff80;fill-opacity:1;stroke:#000000;stroke-width:1.51085;stroke-dasharray:none;stroke-opacity:1" />
    <path
       d="m 661.49,767.42 0.31,6.77 -3.24,3.5 -0.55,6.5 -4.79,4.25 5.33,16.04 -0.88,6.25 -7.04,0.15 0.82,6.31 -3.58,6.03 -9.64,-12.69 -10.78,8.18 -9.75,2.14 -3,2.9 -8.32,0.97 -13.26,-0.94 -6.01,5 -6.79,-3.77 -4.63,-8.47 -8.05,-1.38 -4.02,6.28 -8.78,-2.98 -3.12,7.72 -6.42,-2.32 -5.51,1.04 -3.77,-5.82 -4.19,0.2 -7.02,-6.89 -3.61,-13.79 0.07,-6.76 -5.79,-3.18 -2.69,-6.4 -7.29,-0.92 -8.23,-5.56 -0.2,-6.7 4.46,-0.56 7.12,3.76 11.35,0.26 1.2,-13.2 3.5,-4.75 -5,-2.77 -10.33,-22.06 -2.85,-1.93 -2.9,-7.35 1.48,-4.34 11.39,-3.34 8.27,-13.69 -7.19,-3.19 -5.93,-6.45 1.02,-13.04 2.9,-11.2 13.96,-1.13 3.85,-1.86 9.05,-10.76 1.71,-7.39 9.92,-4.51 5.54,4.25 4.77,-7.95 -2.31,-6.77 6.76,-0.82 12.63,4.88 3.01,6.81 3.97,-0.37 3.09,6.92 -1.53,8.07 7.27,-2.23 5.86,2.14 9.97,-2.29 3,7.55 -2.32,11.17 13.82,7.93 0.48,15.17 5.76,15.76 0.27,6.19 12.31,14.16 2.63,8.6 -4.75,2.33 5.51,13.92 -1.98,6.92 z"
       id="M30424"
       style="fill:#ffff80;fill-opacity:1;stroke:#000000;stroke-width:1.51085;stroke-dasharray:none;stroke-opacity:1" />
    <path
       d="m 740.8,770.51 -0.52,-5.7 -12.71,-7.58 -0.9,-6.17 5.79,-1.08 1.22,4.16 10.41,-7.93 5.08,13.38 8.16,-3.66 -5.25,14.7 z m -9.45,-29.64 v -0.03 -0.01 l 2.27,-8.84 4.61,1.38 z"
       fill-rule="evenodd"
       id="M30422"
       style="fill:#ffff80;fill-opacity:1;stroke:#000000;stroke-width:1.51085;stroke-dasharray:none;stroke-opacity:1" />
    <path
       d="m 708.69,800.98 -3.69,-5.9 -5.73,-0.14 -5.73,-7.93 3.54,-2.68 -3.3,-14.48 -8.02,-2.59 -6.08,2.63 -1.35,-4.65 -6.02,-3.75 -10.82,5.93 -13.68,-5.5 1.98,-6.92 -5.51,-13.92 4.75,-2.33 -2.63,-8.6 -12.31,-14.16 -0.27,-6.19 -5.76,-15.76 -0.48,-15.17 -13.82,-7.93 2.32,-11.17 -3,-7.55 7.75,2.38 4.73,-5.56 5.23,4.3 4.51,-6.17 3.08,7.49 10.15,8.04 12.98,-4.73 -5.04,-8.04 9.21,-5.39 4.02,-7.42 9.33,-3.63 2.3,8.12 13.69,4.08 1.98,7.81 12.91,5.41 4.59,7.78 -0.54,5.31 8.7,2.12 10.69,-10.59 4.29,5.84 7.94,0.01 5.41,4.89 2.57,6.62 13.61,2.29 2.59,10.01 6.65,-0.97 1.07,5.07 -4.97,3.75 -3.87,-5.19 -3.95,3.87 -7.11,-1.72 -3.31,4.87 -6.43,-0.17 -7.65,3.93 -1.98,4.88 3.56,5.95 8.39,0.52 1.16,6.8 -6.48,-1.57 -6.61,10.16 -4.61,-1.38 -2.27,8.84 -1.4,4.05 2.51,5.1 -5.79,1.08 0.9,6.17 12.71,7.58 0.52,5.7 -4.28,4.5 -5.38,-3.64 -5.12,6.53 -7.55,1.03 -2.26,7.03 5.65,8.6 z"
       id="M30421"
       style="fill:#ffff80;fill-opacity:1;stroke:#000000;stroke-width:1.51085;stroke-dasharray:none;stroke-opacity:1" />
    <path
       d="m 258.69,65.97 -2.54,2.97 7.39,9.41 -2.74,21.39 4.06,11.36 -3.47,20.65 -9.95,0.62 2.77,5.29 -7.94,2.82 -5.59,-12.82 -7.9,-2.86 -19.68,1.65 -0.51,-3.41 3.79,-13.47 -4.43,-19.9 1.5,-4.71 -2.85,-7.89 1.12,-7.04 9.31,-5.22 6.99,17.59 8.7,-5.1 1.05,-8.47 7.27,-0.36 8.74,-4.83 z"
       id="M30209"
       style="fill:#ffff80;fill-opacity:1;stroke:#000000;stroke-width:1.51085;stroke-dasharray:none;stroke-opacity:1" />
    <path
       d="m 246.27,140.48 7.94,-2.82 -2.77,-5.29 9.95,-0.62 3.47,-20.65 -4.06,-11.36 2.74,-21.39 -7.39,-9.41 2.54,-2.97 -1.88,-7.02 8.78,-5.18 15.7,-3.46 2.16,3.54 9.84,-1.55 4.91,2.42 19.84,-5.19 3,-7.74 12.32,1.88 3.09,-5.36 5.95,-2.9 6.28,0.84 2.29,11.92 6.19,0.4 4.74,12.56 6.54,8.26 -12.4,17.05 -4.64,9.76 0.45,5.64 5.31,6.78 8.43,5.02 -0.69,5.58 2.13,7.81 13.48,10.79 2.8,8.9 -4.91,12.99 -1.14,16.1 -11.35,5.34 0.51,4.02 -12.25,11.32 -14.93,3.76 -8.58,-5.81 -11.19,-2.84 -6.14,-3.5 -4.26,3.96 -13.93,-1.35 -10.74,3.08 -5.52,-1.16 -8.53,-11.39 -8.03,2.22 -6.03,5.39 -7.29,-4.95 -3.65,-7.53 -4.3,4.4 -6.05,-0.42 -7.55,-5.24 -5.03,-0.23 -3.64,-4.41 0.81,-5.52 -5.08,-3.35 -0.05,-4.85 8.08,-5.77 9.07,-2.96 8.66,-6.47 z"
       id="M30208"
       style="fill:#ffff80;fill-opacity:1;stroke:#000000;stroke-width:1.51085;stroke-dasharray:none;stroke-opacity:1" />
    <path
       d="m 613.08,652.22 -9.97,2.29 -5.86,-2.14 -7.27,2.23 1.53,-8.07 -3.09,-6.92 -3.97,0.37 -3.01,-6.81 -12.63,-4.88 4.8,-7.34 4.46,-2.19 7.15,2.41 3.11,-2.04 -0.53,-7.17 6.94,-4.29 -1.01,-7.31 2.98,-4.8 7.68,-2.54 4.65,-7.04 6.85,4.9 13.07,-2.54 0.38,-6.63 8.22,-3.08 9.97,-12.24 1.3,-7.45 4.9,-4.44 0.31,-6.13 -4.86,-5.78 -8.21,-6.02 -2.9,-6.75 -6.26,-3.54 -6.74,-9.98 -1.75,-8.08 5.14,-18.38 4.25,-4.26 2.8,-7.23 -4.41,-6.29 0.54,-3.85 1.22,-6.82 4.15,-3.32 6.1,0.81 16.25,9.74 7.49,-1.28 7.09,8.51 -2.49,5.52 5.34,12.91 -4.46,5.89 0.15,4.25 5.65,8.46 -3.84,11.69 2.53,6.19 -2.43,9.39 6.76,9.4 6.15,1.39 6.51,5.76 8.32,1.22 5.78,11.02 5.89,20.59 8.06,1.38 3.67,7.87 6.23,4.51 8.32,-2.13 0.83,16.82 4.74,6.24 13.92,7.34 10.72,-0.44 -4.25,-6.61 0.99,-3.54 8.17,-0.88 19.62,8.89 3.01,3.54 -10.89,13.83 -4.71,8.49 -3,14.59 -7.45,4.34 -4.61,9.41 -13.61,-2.29 -2.57,-6.62 -5.41,-4.89 -7.94,-0.01 -4.29,-5.84 -10.69,10.59 -8.7,-2.12 0.54,-5.31 -4.59,-7.78 -12.91,-5.41 -1.98,-7.81 -13.69,-4.08 -2.3,-8.12 -9.33,3.63 -4.02,7.42 -9.21,5.39 5.04,8.04 -12.98,4.73 -10.15,-8.04 -3.08,-7.49 -4.51,6.17 -5.23,-4.3 -4.73,5.56 z m 77.98,-204.79 3.93,2.82 -2.32,6.01 1.5,5.76 5.59,5.74 -2.93,9.31 5.4,5.3 1.63,-11.93 6.49,7.7 -2.91,14.93 -5.34,1.29 -3.54,-3.46 -6.82,0.65 3.88,-7.18 -8.76,-9.32 -8.03,1.43 -2.18,-13.38 8.09,-12.66 z"
       fill-rule="evenodd"
       id="M30207"
       style="fill:#ffff80;fill-opacity:1;stroke:#000000;stroke-width:1.51085;stroke-dasharray:none;stroke-opacity:1" />
    <path
       d="m 308.39,448.19 0.9,-5.43 6.25,-7.72 8.54,0.59 9.2,-15.39 6.04,5.92 8.86,-5.99 11.37,1.04 4.16,7.32 7.36,-0.15 2.98,-4.44 7.2,1.86 8.68,-5.2 4.13,-0.3 11.51,-6.51 4.64,1.09 15.24,-9.84 4.94,-11.22 -8.29,-19.32 -5.83,-4.71 6.11,-8.33 0.48,-4.16 -7.4,-9.79 -16.01,-1.58 -0.06,-11.8 -2.54,-5.42 0.61,-2.37 10.57,-3.46 7.15,0.35 5.84,-3.11 2.29,-6.45 7.7,-9.91 12.11,4.65 2.8,5.67 6.4,-1.43 4.31,2.53 5.85,9 5.23,2.66 3.99,11.43 -3.81,3.99 -2.65,8.08 3.36,7.43 10,-1.94 2.72,3.19 7.87,0.48 1.41,7.29 4.34,4.19 1.46,6.43 4.63,1.09 1.99,6.82 -1.31,5.93 2.16,8.68 -3.67,7.96 1,8.14 -9.15,0.32 -5.76,-4.2 -2.14,5.88 2.55,4.04 -1.4,6.99 -5.84,4.58 3.63,6.62 -3.02,11.7 -8.1,4.4 0.88,5.43 4.03,3.28 10.5,-0.29 5.78,14 -6.97,12.08 8.76,-0.98 5.15,-3.68 9.84,0.05 6.27,-4.45 4.98,-7.16 -1.27,-8.09 8.19,-2.71 6.13,2.14 5.28,-5.29 30.64,0.41 13.18,11.47 12,5.78 8.01,-5.34 9.17,2.49 11.81,-6.14 7.31,-1.15 -0.54,3.85 4.41,6.29 -2.8,7.23 -4.25,4.26 -5.14,18.38 1.75,8.08 6.74,9.98 6.26,3.54 2.9,6.75 8.21,6.02 4.86,5.78 -0.31,6.13 -4.9,4.44 -1.3,7.45 -9.97,12.24 -8.22,3.08 -0.38,6.63 -13.07,2.54 -6.85,-4.9 -4.65,7.04 -7.68,2.54 -2.98,4.8 1.01,7.31 -6.94,4.29 0.53,7.17 -3.11,2.04 -7.15,-2.41 -4.46,2.19 -4.8,7.34 -6.76,0.82 2.31,6.77 -4.77,7.95 -5.54,-4.25 -9.92,4.51 -1.71,7.39 -9.05,10.76 -3.85,1.86 -13.96,1.13 -2.9,11.2 -1.02,13.04 5.93,6.45 -5.37,7.35 -5.78,-0.35 -4.9,3.95 -4.96,0.23 -4.1,-6.36 -10.63,1.89 -5.74,4.87 -5.56,-1.19 -7.69,-5.45 -2.05,-5.31 -7.51,-3.03 -9.9,3.7 -8.4,-0.38 1.93,-5.18 0.55,-15.33 -8.23,-12.3 -17.17,0.58 -2.53,-13.45 -7.22,3.79 -3.67,-3.61 -9.08,2.96 -6.25,-4.12 -4.48,-7.11 0.23,-10.43 -4.43,-4.67 3.74,-6.36 4.33,-14.77 -5.73,-6.29 -3.85,-7.64 -4.56,-1.9 -3.66,11.32 0.54,7.63 -9.45,1.24 -10.24,5.44 -4.99,15.85 -6.76,3.85 -3.49,6.67 -3.85,-1 -10.35,10.64 -5.06,15.39 -7.68,0.69 -3.66,-4.59 -4.31,-3.67 12.61,-10.04 0.33,-9.19 -10.8,-5.34 -5.28,-8.3 -8.58,-1.88 -8.09,3.72 -0.09,-6.88 4.32,-4.9 -4.98,-6.38 -11.72,1.08 7.02,-17.42 0.08,-10.41 3.12,-2.49 -0.84,-10.39 1.58,-6.22 -2.58,-13.7 7.43,0.18 6.75,-5.1 3.48,-7.33 9.46,-9.98 7.64,-4.82 8.72,-0.3 4.19,3.75 5.47,-0.06 8.46,-4.25 4.94,0.77 9.6,-3.18 9.23,2.67 4.51,-4.21 3.6,-9.96 -11.19,-1.39 -5.41,-2.97 0.36,-4.73 -7.37,-3.77 -5.21,2.25 -1.22,-6.09 1.52,-8.89 -10.34,0.58 -7.06,-1.96 -4.81,-6.17 0.53,-6.33 -6.67,-1.09 -0.91,-6.06 3.82,-1.94 -0.65,-10.11 z"
       id="M30206"
       style="fill:#ffff80;fill-opacity:1;stroke:#000000;stroke-width:1.51085;stroke-dasharray:none;stroke-opacity:1" />
    <path
       d="m 134.85,413.96 2.98,16.9 -4.96,5.97 1.11,14.21 14.46,9.75 6.23,10.59 0.45,10.01 1.27,8.28 10.93,0.98 0.81,4.93 -4.79,2.78 -10.2,-4.17 -8.56,2.81 -1.72,6.81 13,4.49 1.56,11.13 4.66,3.81 -5.16,7.73 0.94,5.92 -2.92,10.11 -10.42,-6.06 -1.01,-7.23 -8.19,-5.26 0.21,-6.79 -4.98,-3.29 -2.34,-8.9 -4.83,-5.53 -0.33,-8.54 -5.13,-7.85 1.41,-4.54 -5.42,-14.55 -4.72,-17.44 14.33,-8.43 -0.25,-10.28 -1.88,-8.25 3.59,-7.32 z"
       id="M30205"
       style="fill:#ffff80;fill-opacity:1;stroke:#000000;stroke-width:1.51085;stroke-dasharray:none;stroke-opacity:1" />
    <path
       d="m 144.72,310.08 -10.44,5.89 -5.58,-7.38 -6.12,0.42 -7.57,3.97 -7.77,1.47 -2.47,-7.28 -8.05,-0.05 -2.71,-2.58 -14.12,-3.75 -10.54,2.42 -1.07,-6.58 4.72,-3.66 0.81,-11.23 8.83,-6.76 4.24,-10.71 -0.95,-3.32 4.92,-0.73 10.89,6.52 5.1,5.67 1.16,6.33 7.11,-1.04 13.94,1.35 9.51,-6.72 7.09,2.85 -0.61,3.71 4.95,16.23 -1.97,10.58 z"
       id="M30204"
       style="fill:#ffff80;fill-opacity:1;stroke:#000000;stroke-width:1.51085;stroke-dasharray:none;stroke-opacity:1" />
    <path
       d="m 536.2,109.11 -8.12,8.39 2.81,4.65 -10.29,12.73 -5.62,3.32 -8.25,-7.39 -9.16,0.11 -1.28,-4.85 5.39,-3.76 -0.97,-4.99 5.87,-4.71 -6.69,-3.4 -7.4,-12.27 -6.92,2.84 -8.13,-1.42 -12.49,4.55 -3.84,-6.6 -9.73,0.6 -2.4,-5.01 -0.06,-9.99 -7.64,5.94 -9.06,-4.3 -6.02,-5.57 0.4,-6.58 -3.89,-9.58 -8.55,-7.82 1.76,-21.31 4.52,-0.9 5.22,-5.05 10.27,-1.73 7.09,-9.48 7.16,-2.48 3.69,-3.96 14.14,0.64 0.76,-3.68 13.7,2.53 5.26,-7.58 9.52,1.38 15.17,-0.16 3.73,16.29 6.08,10.33 -2.53,27.33 6.17,1.13 0.76,9.94 -2.13,6.41 2.26,11.24 4.68,8.48 -1.9,6.34 z"
       id="M30203"
       style="fill:#ffff80;fill-opacity:1;stroke:#000000;stroke-width:1.51085;stroke-dasharray:none;stroke-opacity:1" />
    <path
       d="m 232.34,238.89 -3.98,9.56 -6,5.37 -17.15,4.58 -10.87,-6.65 -7.83,0.4 -3.04,9.64 -3.21,4.57 -7.43,-2.75 -13.34,9.62 -13.84,1.95 -7.09,-2.85 -9.51,6.72 -13.94,-1.35 -7.11,1.04 -1.16,-6.33 -5.1,-5.67 -10.89,-6.52 -4.92,0.73 1.75,-5.91 6.82,4.04 17.29,3.17 -0.56,-4.13 -8.32,-2.84 0.76,-6.87 -9.99,-4.24 3.35,-5.99 4.92,-1.44 18.37,-0.67 8.92,4.44 12.93,-7.91 13.33,-0.97 -2.32,-4.87 -10.21,0.37 1.99,-7.11 4.68,-3.49 -0.15,-3.15 9.07,-4.4 -0.4,-5.88 10.74,-1.75 7.91,0.76 0.93,-4.15 9.83,-3.09 10.22,1.35 1.25,2.79 17.08,1.94 6.61,-6.72 -5.61,-4.09 5.08,-9.64 0.22,-5.62 5.03,0.23 7.55,5.24 6.05,0.42 4.3,-4.4 3.65,7.53 -2.95,5.03 -1.43,9.47 -10.18,2.77 -3.9,13.28 5.26,4.2 1.07,6.79 z"
       id="M30202"
       style="fill:#ffff80;fill-opacity:1;stroke:#000000;stroke-width:1.51085;stroke-dasharray:none;stroke-opacity:1" />
    <path
       d="m 14.16,88.76 -0.74,6.05 -6.93,9.65 -5.49,-0.68 0.27,-7.19 5.74,0.97 z m 27.44,-5.98 -5.77,6.02 -7.94,-0.53 -2.4,-3.25 z m 170.12,-12.75 -1.12,7.04 2.85,7.89 -1.5,4.71 4.43,19.9 -3.79,13.47 0.51,3.41 19.68,-1.65 7.9,2.86 5.59,12.82 -6,1.07 -8.66,6.47 -9.07,2.96 -8.08,5.77 0.05,4.85 5.08,3.35 -0.81,5.52 3.64,4.41 -0.22,5.62 -5.08,9.64 5.61,4.09 -6.61,6.72 -17.08,-1.94 -1.25,-2.79 -10.22,-1.35 -9.83,3.09 -0.93,4.15 -7.91,-0.76 -10.74,1.75 0.4,5.88 -9.07,4.4 0.15,3.15 -6.44,2.21 -1.93,-14.18 -3.36,-6.82 1.77,-7.52 -5.01,-1.28 -2.82,5.5 -5.71,-5.21 -4.77,3.12 -12.74,-7.48 -2.75,-8.17 4.95,-1.67 -2.85,-8.87 3.91,-2.61 -4.21,-10.16 -14.25,0.49 -11.41,-3.42 -2.63,-8.23 11.57,2.23 7.79,7.09 3.55,-2.44 -7.63,-11.21 -5.38,-4.62 -4.11,1.24 -12.07,-7.46 -5.12,-7.62 -13.47,0.3 -7.62,-1.73 1.99,-10.33 5.43,-2.08 1.74,-5.4 -4.89,-9.38 4.88,-14 7.19,-1.02 7.56,-4.61 7.77,0.3 2.91,4.92 -7.5,8.33 1.39,7.73 8.21,6.1 0.97,8.51 8.46,-0.13 3.94,-3.33 4.84,4.83 11.39,-10.82 6.6,2.65 2.04,3.64 11.17,-3.36 7.23,0.67 7.05,-2.76 1.61,-3.54 8.74,-1.1 2.13,-12.37 4.82,-5.67 10.73,5.35 8.32,-2.65 8.76,-9.25 6.05,-2.36 z"
       fill-rule="evenodd"
       id="M30201"
       style="fill:#ffff80;fill-opacity:1;stroke:#000000;stroke-width:1.51085;stroke-dasharray:none;stroke-opacity:1" />
    <path
       d="m 497.27,775.78 -3.38,4.2 1.2,13.53 9.33,0.42 -3.43,10.56 -8.11,9.19 3.47,5.48 6.14,4.55 -2.41,14.74 -5.77,-1.52 -1.68,4.85 -5.25,-0.13 -10.3,-6.14 -3.84,5.11 -3.75,-2.6 -14.21,-0.05 -3.09,-8.14 -4.35,-1.61 -7.77,3.03 -9.92,-1.83 -1.84,-3.96 -11.17,0.8 -5.1,-3.65 -4.91,1.34 -4.57,-3.49 1.31,-6.05 -3.97,-3.27 -6.12,0.12 -1.42,-5.46 -9.07,-8.21 -7.14,3.45 -3.44,-4.73 -5.39,4.47 -5.22,-1.61 6.04,-3.43 10.07,-18.82 2.45,-7.96 5.08,-6.59 -3.77,-9.83 5.56,-7.61 8.68,-7.21 10.13,3.36 8.68,0.53 2.71,-6.84 -1.17,-8.34 7.39,-1.87 4.09,-8.99 6.37,2.34 5.25,-2.44 6.75,0.35 8.11,5.35 5.88,-1 9.16,3.72 7.24,-5.66 6.3,2.83 -0.43,4.04 6.59,5.79 6.25,-2.92 5,2.17 6.01,-2.31 2.85,1.93 10.33,22.06 5,2.77 -3.5,4.75 -1.2,13.2 -11.35,-0.26 -7.12,-3.76 -4.46,0.56 z"
       id="M30406"
       style="fill:#ffff80;fill-opacity:1;stroke:#000000;stroke-width:1.51085;stroke-dasharray:none;stroke-opacity:1" />
    <path
       d="m 311.25,667.04 5.06,-15.39 10.35,-10.64 3.85,1 3.49,-6.67 6.76,-3.85 4.99,-15.85 10.24,-5.44 9.45,-1.24 -0.54,-7.63 3.66,-11.32 4.56,1.9 3.85,7.64 5.73,6.29 -4.33,14.77 -3.74,6.36 4.43,4.67 -0.23,10.43 4.48,7.11 6.25,4.12 9.08,-2.96 3.67,3.61 -3.77,10.45 -8.63,6.48 2.13,6.18 -0.08,8.74 -19.4,0.54 -5.14,-1.17 -6.51,-7.03 -10.81,2.27 -13.1,-6.14 -10.52,-6.88 -7.66,8.86 z"
       id="M30404"
       style="fill:#ffff80;fill-opacity:1;stroke:#000000;stroke-width:1.51085;stroke-dasharray:none;stroke-opacity:1" />
    <path
       d="m 517.57,695.92 7.19,3.19 -8.27,13.69 -11.39,3.34 -1.48,4.34 2.9,7.35 -6.01,2.31 -5,-2.17 -6.25,2.92 -6.59,-5.79 0.43,-4.04 -6.3,-2.83 -7.24,5.66 -9.16,-3.72 -5.88,1 -8.11,-5.35 -6.75,-0.35 -5.25,2.44 -6.37,-2.34 -4.09,8.99 -7.39,1.87 1.17,8.34 -2.71,6.84 -8.68,-0.53 -10.13,-3.36 -8.68,7.21 -5.56,7.61 3.77,9.83 -5.08,6.59 -2.45,7.96 -10.07,18.82 -6.04,3.43 -0.05,0.02 -0.05,0.03 -0.01,0.01 -0.3,0.18 -0.12,0.14 -0.39,0.42 -0.13,0.14 -0.77,0.92 -9.84,-2.77 2.18,-7.16 -4.17,-6.41 -15.58,-7.79 -3.86,1.69 -2.07,-10.42 -5.26,4.75 -5.61,-6.91 -8.18,-5.39 -1.09,-8.72 -4.09,-2.12 5.77,-13.57 -2.47,-2.88 3.67,-7.76 -2.75,-16.69 -7.51,-7.73 -22.84,-3.51 -8.22,-3.76 -8.43,-7.06 0.36,-7.28 8.21,-3.88 1.32,-10.36 3.86,-5.32 5.06,2.2 -0.47,5.99 7.7,2.62 6.32,-5.84 7.62,-1.81 3.66,4.59 7.68,-0.69 7.57,9.21 7.66,-8.86 10.52,6.88 13.1,6.14 10.81,-2.27 6.51,7.03 5.14,1.17 19.4,-0.54 0.08,-8.74 -2.13,-6.18 8.63,-6.48 3.77,-10.45 7.22,-3.79 2.53,13.45 17.17,-0.58 8.23,12.3 -0.55,15.33 -1.93,5.18 8.4,0.38 9.9,-3.7 7.51,3.03 2.05,5.31 7.69,5.45 5.56,1.19 5.74,-4.87 10.63,-1.89 4.1,6.36 4.96,-0.23 4.9,-3.95 5.78,0.35 z"
       id="M30401"
       style="fill:#ffff80;fill-opacity:1;stroke:#000000;stroke-width:1.51085;stroke-dasharray:none;stroke-opacity:1" />
    <path
       d="m 384.11,220.83 -3.22,1.51 -20.32,16.12 -0.84,3.75 -7.12,6.66 -8.37,3.71 -8.11,5.93 -19.45,-5.91 -23.22,0.91 0.23,7.23 -14.64,-0.26 -7.85,-2.82 -6.42,2.74 -2.3,7.82 -14.02,0.85 -4.26,-5.32 -2.7,-11 -9.16,-13.86 4.53,-13.45 -1.07,-6.79 -5.26,-4.2 3.9,-13.28 10.18,-2.77 1.43,-9.47 2.95,-5.03 7.29,4.95 6.03,-5.39 8.03,-2.22 8.53,11.39 5.52,1.16 10.74,-3.08 13.93,1.35 4.26,-3.96 6.14,3.5 11.19,2.84 8.58,5.81 14.93,-3.76 12.25,-11.32 -0.51,-4.02 11.35,-5.34 3.9,9.89 7.59,5.39 10.68,12.08 -7.07,6.25 -5.94,2.04 z"
       id="M30304"
       style="fill:#ffff80;fill-opacity:1;stroke:#000000;stroke-width:1.51085;stroke-dasharray:none;stroke-opacity:1" />
    <path
       d="m 418.98,140.18 -9.01,1.34 -2.38,27.3 7.86,5.39 -5.92,5.09 -0.58,7 -6.15,5.69 2.27,6.08 -0.6,7.36 6.64,9.23 12.47,4.51 12.22,-5.66 6.27,-11.76 -0.91,-16.77 8.8,12.91 -1.66,4.54 6.02,7.03 -0.78,5.1 4.02,3.51 15.37,-0.82 2.7,4.16 -10.89,5.07 -4.48,7.98 -0.45,8.05 -4.62,15.17 -10.24,3.38 -6.76,4.57 0.88,4.46 -9.62,5.14 -10.16,-3.11 -0.44,-12.89 -8.28,-4.44 -12.62,-23.06 -6.74,-7.85 -7.1,-3.05 2.31,-9.37 5.94,-2.04 7.07,-6.25 -10.68,-12.08 -7.59,-5.39 -3.9,-9.89 1.14,-16.1 4.91,-12.99 -2.8,-8.9 -13.48,-10.79 -2.13,-7.81 0.69,-5.58 -8.43,-5.02 -5.31,-6.78 -0.45,-5.64 4.64,-9.76 12.4,-17.05 -6.54,-8.26 -4.74,-12.56 -6.19,-0.4 -2.29,-11.92 7.33,-2.06 3.29,2.42 15.95,-5.96 6.04,-8.89 2.63,6.2 10.32,5.9 2.49,8.62 5.66,2.76 13.53,-12.55 -1.76,21.31 8.55,7.82 3.89,9.58 -0.4,6.58 -5.21,7.08 5.02,7.99 -7.72,10.06 -1.37,14.62 -3.5,6.96 3.44,5.56 z"
       id="M30341"
       style="fill:#ffff80;fill-opacity:1;stroke:#000000;stroke-width:1.51085;stroke-dasharray:none;stroke-opacity:1" />
  </g>
</svg>
