<?xml version="1.0" encoding="UTF-8" standalone="no"?>
<svg
   version="1.2"
   width="689.99994"
   height="600"
   viewBox="0 0 689.99994 600"
   stroke-linecap="round"
   stroke-linejoin="round"
   id="svg7562"
   sodipodi:docname="yc.svg"
   inkscape:version="1.2 (dc2aedaf03, 2022-05-15)"
   xmlns:inkscape="http://www.inkscape.org/namespaces/inkscape"
   xmlns:sodipodi="http://sodipodi.sourceforge.net/DTD/sodipodi-0.dtd"
   xmlns="http://www.w3.org/2000/svg"
   xmlns:svg="http://www.w3.org/2000/svg">
  <defs
     id="defs7566" />
  <sodipodi:namedview
     id="namedview7564"
     pagecolor="#505050"
     bordercolor="#eeeeee"
     borderopacity="1"
     inkscape:showpageshadow="0"
     inkscape:pageopacity="0"
     inkscape:pagecheckerboard="0"
     inkscape:deskcolor="#505050"
     showgrid="false"
     inkscape:zoom="1.2896"
     inkscape:cx="345.06824"
     inkscape:cy="269.07568"
     inkscape:window-width="1920"
     inkscape:window-height="1009"
     inkscape:window-x="-8"
     inkscape:window-y="-8"
     inkscape:window-maximized="1"
     inkscape:current-layer="svg7562" />
  <g
     id="yc"
     transform="matrix(0.86340852,0,0,0.86340852,-0.36341802,30.184796)"
     style="fill:#ffff80;fill-opacity:1;stroke:#000000;stroke-width:1.1582;stroke-dasharray:none;stroke-opacity:1">
    <path
       d="m 673.55,341.42 3.79,-0.43 6.17,2.41 3.77,-2.77 11.07,-1.31 0.57,3.33 -4.34,4.97 -0.33,-3.41 -3.45,-0.81 -3.5,2.48 1.76,4.85 -3.5,5.27 -10.6,0.67 -4.23,-4.86 -1.84,-4.81 4.31,-3.09 z"
       id="M35321"
       style="fill:#ffff80;fill-opacity:1;stroke:#000000;stroke-width:1.1582;stroke-dasharray:none;stroke-opacity:1" />
    <path
       d="m 645.09,538.95 -8.36,1.56 2.36,-6.6 -0.34,-2.7 -4.73,-2.99 -3.87,-0.63 -6.73,-4.94 -4.83,-1.51 -1.65,-7.05 -9.76,-2.46 1.28,-6.32 3.27,-5.2 -1.44,-14.22 7.95,-0.4 8.17,-1.88 5.9,4.29 0.58,16.35 -1.97,3.39 -4.19,2.22 4.1,4.06 3.11,8.06 11.18,9.78 z"
       id="M35344"
       style="fill:#ffff80;fill-opacity:1;stroke:#000000;stroke-width:1.1582;stroke-dasharray:none;stroke-opacity:1" />
    <path
       d="m 610.29,485.89 1.44,14.22 -3.27,5.2 -1.52,2.84 -10.78,5.1 -2.42,2.96 1,-6.34 -5.33,-1.02 -1.97,-4.11 -4.2,-4.25 -9,-6.61 -1.89,-5.99 1.77,-3.91 4.91,-0.88 1.33,-4.88 3.64,-1.69 3.78,-6.75 4.47,-2.79 6.51,2.48 7.03,-0.98 2.36,-2.59 3.61,-0.11 -1.08,1.68 1.55,12.47 -3.16,2.23 z m 1.97,-24.04 -5.16,-2.91 0.19,-5.81 3.07,-3.79 3.36,-1.5 1.73,4.32 z"
       fill-rule="evenodd"
       id="M35343"
       style="fill:#ffff80;fill-opacity:1;stroke:#000000;stroke-width:1.1582;stroke-dasharray:none;stroke-opacity:1" />
    <path
       d="m 568.52,575.39 9.22,6.87 1.01,3.62 -9.06,3.2 -4.9,3.19 -6.5,-2.32 -1.57,-4.64 5.59,-0.03 1.81,-2.22 -0.03,-5.83 z m 47.41,-34.32 5.55,7.68 8.93,0.61 0.86,4.04 3.39,2.84 -3.4,3.96 -7.43,-0.63 -1.35,4.87 -4.83,2 -1.36,6.1 -5.75,0.37 -2.24,3.89 0.9,3.82 -3.99,2.53 -4.7,-6.69 7,-1.15 2.58,-4.81 -0.53,-4.4 9.45,-7.4 1.29,-5.02 -5.25,-3.98 -1.14,-3.07 z m 20.8,-0.56 8.36,-1.56 2.11,4.85 7.03,5.87 -6.01,6.49 -7.26,-1.9 -4.36,0.84 1.33,-7.57 z m 17.1,54.45 -2.59,5.36 1.39,2.27 -1.5,5.84 3.29,7.28 -1.77,3.75 -7.47,4.54 -3.28,-3.7 2.97,-4.08 5.75,-2.42 -2.19,-4.48 -0.17,-4.87 z"
       fill-rule="evenodd"
       id="M35341"
       style="fill:#ffff80;fill-opacity:1;stroke:#000000;stroke-width:1.1582;stroke-dasharray:none;stroke-opacity:1" />
    <path
       d="m 752.57,541.01 6.1,5.84 -3.37,0.71 -3.92,-3.9 z m -59.05,-62.02 4.36,2.34 2.02,4.93 9.03,3.45 8.52,-4.19 0.71,7.73 6.8,6.8 -0.19,5.67 2.84,2.71 7.72,-1.05 -3.23,6.38 8.72,2.58 5.23,-1.56 5.55,-3.83 1.13,-3.94 4.54,-6.04 4.18,2.09 7.82,-0.63 5.08,-4.09 -1.87,-4.5 3.39,-1.79 3.59,-5.1 3.5,-0.65 9.75,6.82 6.29,-0.87 -1.8,4.98 -5.1,2.15 -4.22,-0.37 -0.74,2.9 -4.68,0.57 -2.16,4.38 -6.27,1.42 -5.34,-1.23 -8.56,2.12 -1.89,5.73 -4.34,3.41 1.94,3.47 -1.72,4.15 2.92,4.56 -0.41,5.39 -3.47,3.81 -2.81,-3.64 -5.16,0.89 -8.03,4.51 -1.16,-3.86 2.15,-4.78 3.9,-3.07 -2.15,-4.63 -6.4,-4.07 -11.22,-1.89 -3.54,-3.17 -9.3,6.81 -0.4,11.43 -4.52,-4.23 -7.77,1.89 -2.14,-1.8 -7.12,2 -6.33,8.31 -4.64,-6.71 2.19,-4.29 -6.65,-4.05 -1.48,-4.3 -3.4,-1.74 -2.21,-3.65 0.72,-9.72 -1.71,-2.4 7.04,-6.17 0.11,-4.01 -2.31,-5.04 3.87,-2.7 5.35,3.55 4.33,-1.83 -0.4,-4.65 8.67,0.46 z m 53.77,4.06 2.64,4.55 -2.73,3.19 -5.29,-0.28 0.06,-4.68 z"
       fill-rule="evenodd"
       id="M35305"
       style="fill:#ffff80;fill-opacity:1;stroke:#000000;stroke-width:1.1582;stroke-dasharray:none;stroke-opacity:1" />
    <path
       d="m 326.49,181.22 2.55,-6.75 -4.18,-2.87 -3.19,-7.81 6.1,-9.23 6.24,-1 7.11,1.46 5.37,-1.48 1.43,-4.35 6.31,-7.21 8.85,-5.18 1.11,-3.56 3.81,-2.28 2.57,-3.87 0.57,-4.85 -2.39,-2.71 3.24,-5.9 3.02,-1.95 8.29,2.23 1.51,6.03 6.05,2.72 1.47,2.68 -2.3,9.12 -2.14,2.27 4.4,7.19 5.98,3.57 5.99,9.02 3.82,-1.75 6.64,10.45 -12.05,6.37 -3.89,3.63 -2.72,-2.2 -4.85,3.52 -1.6,4.53 -5.1,2.43 -8.33,0.48 -2.28,-4.93 -7.67,-9.81 0.55,-4.28 -3.87,-1.11 -4.26,6.39 -3.18,-0.24 -5.72,5.03 -3.97,7.8 -9.45,-2.93 -2.34,-2.37 z"
       id="M35502"
       style="fill:#ffff80;fill-opacity:1;stroke:#000000;stroke-width:1.1582;stroke-dasharray:none;stroke-opacity:1" />
    <path
       d="m 269.61,277.44 -2.79,5.22 5.68,4.28 4,-0.38 2.33,-2.43 5.1,-1.47 4.43,9.43 -0.11,7.19 2.26,1.31 1.53,5.24 2.34,1.83 3.5,-1.57 1.75,5.87 -2.48,3.69 1.68,6.36 -1.81,3.14 0.42,5.89 -1.66,4.31 5.91,3.77 -2.15,1.25 0.19,6.73 -3.43,4.7 -0.38,3.8 -8.89,9.06 0.05,5.28 -2.31,8.01 -2.07,3.21 -3.26,-1.62 -7.22,1.89 -3.44,-4.05 -8.63,-4.39 1.5,-5.03 -3.33,-3.11 -3.53,2.87 -3.43,-2.54 -4.66,-0.64 -4.17,3.16 -5.33,11.42 -5.13,0.71 -3.26,-2.76 -6.92,2.09 -2.16,6.16 -2.97,4.09 -7.5,1.87 -2.16,3.88 -0.91,-1.44 -12.98,-1.4 -3.54,3.94 -2.86,9.11 -5.27,3.43 -4.18,-1.09 -8.06,3.32 -1.6,2.03 -4.15,-3.51 -2.63,-4.61 0.24,-6.58 -13.84,-13.33 -0.58,-6.89 3.42,-6.03 -0.08,-7.12 3.14,-0.4 3.13,4.59 3.67,0.82 3.07,-2.02 -4.51,-9.89 -4.16,-4.47 0.12,-2.47 4.55,-4.54 -0.94,-4.26 6.9,-4.33 2.26,-3.7 8.7,-3.41 3.91,-4.45 3.34,1.18 0.34,-6.16 5.41,-8.24 0.15,-4.55 1.76,-1.39 2.95,-8.28 10.35,-2.58 2.99,2.62 7.62,-2.56 2.71,-5.17 5.36,-3.6 0.46,-4.19 3.21,-4.87 2.58,0.47 3.06,-5 9.61,-7.18 4.55,4.52 4.63,9.62 4.11,-0.75 1.87,-5.53 z"
       id="M35213"
       style="fill:#ffff80;fill-opacity:1;stroke:#000000;stroke-width:1.1582;stroke-dasharray:none;stroke-opacity:1" />
    <path
       d="m 645.09,538.95 0.03,-7.19 -11.18,-9.78 -3.11,-8.06 -4.1,-4.06 4.19,-2.22 1.97,-3.39 -0.58,-16.35 -5.9,-4.29 -8.17,1.88 -7.95,0.4 -1.22,-3.72 3.16,-2.23 -1.55,-12.47 1.08,-1.68 0.5,-3.94 3.19,-9.69 -1.73,-4.32 4.69,-2.29 5.87,-10.31 6.92,-5.3 4.37,1.57 3.52,-1.14 4.79,5.21 3.92,0.18 1.78,6 4.6,1.76 4.35,6.04 2.99,0.75 9.13,-1.37 4.49,4.87 -1.01,2.23 -0.03,13.86 2.17,1.08 -5.48,10.07 -4.03,0.03 -12.48,3.99 -11.66,-0.59 -1.69,5.85 0.23,12.02 3.12,12.23 -2.3,2.91 2.27,2.76 -1.46,3.72 3.9,5.2 5.48,2.54 -0.93,4.27 5.67,4.23 0.56,5.18 -3.24,4.28 -7.03,-5.87 z m 36.35,26.11 6.4,1.67 3,3.06 2.82,5.63 5.6,0.88 3.74,4.28 1.97,5.36 3.09,3.33 -4.47,1.58 -7.15,-6.07 -4,-1.15 -8.29,1 -1.26,-3.06 -5.28,-3.38 -0.1,-3.83 -5.46,-2.38 -6.42,4.3 -2.1,-4.17 6.36,-3.98 1.07,1.8 8.48,-5.28 z"
       fill-rule="evenodd"
       id="M35212"
       style="fill:#ffff80;fill-opacity:1;stroke:#000000;stroke-width:1.1582;stroke-dasharray:none;stroke-opacity:1" />
    <path
       d="m 269.61,277.44 -12.63,-2.62 -1.87,5.53 -4.11,0.75 -4.63,-9.62 -4.55,-4.52 -9.61,7.18 -3.06,5 -2.58,-0.47 -3.21,4.87 -0.46,4.19 -5.36,3.6 -2.71,5.17 -7.62,2.56 -2.99,-2.62 -10.35,2.58 -2.95,8.28 -1.76,1.39 -5.2,0.62 -3.16,-4.68 -9.68,0.59 -5.71,2.76 -11.72,1.29 -5.02,-2.48 -1.68,-9.64 -4.37,-5.23 -3.32,0.79 -4.26,-4.83 -7.32,-6.09 -3.53,-0.37 -1.37,-5.86 -5.84,-2.1 -0.23,-3.35 -3.01,-5.09 -5.08,-3.1 -5.77,-7.33 -4.85,-3 9.7,-6.07 2.22,2.05 7.39,-2.48 6.03,2.53 1.29,-4.87 -3.57,-6.05 -3.8,-0.98 -0.61,-3.38 -4.28,-2.79 -4.21,1.84 -10.37,-0.49 -3.66,-3.37 -6.51,-1.49 -3.87,4.35 2.93,2.02 -0.64,4.48 -3.78,0.99 -5.15,-4.16 1.51,-5.62 3.11,0.63 3.76,-2.42 2.56,-3.79 -1.1,-3.44 1.9,-4.37 4.29,-0.39 4.85,-4.1 2.9,0.38 7.95,4.01 0.81,7.38 7.12,2.29 11.08,0.4 6.84,-2.96 7.89,-5.25 1.7,1.45 7.09,0.77 7.54,4.05 1.44,2.41 8.1,-1.81 3.22,3.24 1.87,4.43 -1.13,3.77 7.81,11.28 7.29,0.12 8.99,-4.43 5.57,-9.73 2.01,7.02 0.53,6 4.85,2.33 3.97,-4.66 0.5,-7.59 4.29,0.71 6.07,3.92 7.32,-0.04 4.71,-3.42 9.11,3.26 0.95,2.37 1.78,8.72 4.18,0.14 5.16,-2.89 5.49,5.66 6.21,0.27 2.88,3.21 -1.72,7.36 1.02,6.57 z m -45.29,-68.62 3.68,0.77 3.33,5.81 -2.96,2.74 -3.8,-2.2 -2.1,1.95 -4.51,-0.67 -2.92,3.38 -2.21,-3.83 -7.12,7.62 2.73,4.08 -7.9,3.25 -11.21,-5.93 -0.93,-10.07 4.7,-1.12 2.51,2.54 6.69,-1.26 8.18,-0.03 1.63,-1.78 6.79,-1.97 z"
       fill-rule="evenodd"
       id="M35211"
       style="fill:#ffff80;fill-opacity:1;stroke:#000000;stroke-width:1.1582;stroke-dasharray:none;stroke-opacity:1" />
    <path
       d="m 611.76,465.79 -3.61,0.11 -2.36,2.59 -7.03,0.98 -6.51,-2.48 -4.47,2.79 -3.78,6.75 -3.64,1.69 -1.33,4.88 -4.91,0.88 -1.77,3.91 1.89,5.99 9,6.61 4.2,4.25 1.97,4.11 5.33,1.02 -1,6.34 -2.7,-2.79 -5.55,-2.2 -13.07,-11.08 -5.07,4.62 -3.07,-3.66 2.84,-2.63 -3.05,-7.06 -2.65,-2.54 -4.25,-0.25 -5.54,1.59 -3.53,-2.47 -0.72,-3.26 -4.19,-5.48 -9.79,-5.92 -3.02,-0.73 3.71,-3.79 4.21,-6.45 6.82,-1.36 5.59,-5.72 7.65,-1.5 4.92,-2.43 2,-3.86 -0.5,-5.37 3.6,-0.17 5.24,4.28 12.19,-2.14 6.58,1.58 2.28,6.33 4.99,2.03 1.98,-1.55 5.65,0.9 -0.19,5.81 5.16,2.91 z m -21.73,67.89 2.48,9.51 -7.58,0.99 4.97,-6.21 z"
       fill-rule="evenodd"
       id="M35210"
       style="fill:#ffff80;fill-opacity:1;stroke:#000000;stroke-width:1.1582;stroke-dasharray:none;stroke-opacity:1" />
    <path
       d="m 673.55,341.42 -0.35,2.49 -4.31,3.09 1.84,4.81 4.23,4.86 10.6,-0.67 3.5,-5.27 -1.76,-4.85 3.5,-2.48 3.45,0.81 0.33,3.41 -2.69,5.1 7.61,8.78 2.07,7.97 -2.25,14.14 -5.4,0.94 -2.23,2.73 -13.44,1 -1.38,5.47 1.54,9.42 3.6,9.32 -0.75,13.56 3.48,6.59 1.06,5.06 -0.24,10.33 -2.74,10.83 -5.88,7.86 -0.67,4.26 -2.17,-1.08 0.03,-13.86 1.01,-2.23 -4.49,-4.87 -9.13,1.37 -2.99,-0.75 -4.35,-6.04 -4.6,-1.76 -1.78,-6 -3.92,-0.18 -4.79,-5.21 -3.52,1.14 -4.37,-1.57 -6.92,5.3 -5.87,10.31 -4.69,2.29 -3.36,1.5 -3.07,3.79 -5.65,-0.9 -1.98,1.55 -4.99,-2.03 -2.28,-6.33 1.93,-3.66 2.03,-8.8 -3.29,-12.81 -5.24,2.03 -3.14,-0.86 -4.08,1.81 -0.84,-7.99 -6.42,-5.56 -7.16,-0.69 -1.14,-10.05 -2.35,-5.13 -1.14,-14.8 -2.2,-3.51 3.45,-6.51 -1.32,-5.8 4.12,-4.08 -3.57,-2.86 -1.06,-9.71 -5.34,-1.36 -2.27,-3.99 -0.52,-5.1 1.51,-4.85 -3.78,-3.58 -3.34,3.39 -3.88,1.33 -2.25,-3.46 -10.74,-3.48 -1.69,-3.63 2.94,-5.77 -6.16,-10.45 0.56,-5.55 -0.52,-16.83 2.44,-2.85 -1.15,-4.43 3.1,-1.75 4.41,3.02 6.38,-6.44 0.84,-2.97 5.98,0.47 3.42,3.85 3.47,1.5 7.83,10.9 2.29,-4.16 -1.3,-4.13 4.58,-1.68 2.4,-7.88 3.87,-7.78 2.83,-0.81 2.35,-5.3 3.06,-2.66 5.28,-0.67 0.67,-8.41 -6.3,-8.76 -1.3,-5.64 -3.62,-3.95 3.59,-7.96 8.91,-5.57 -0.38,-8.38 3.72,-5.24 5.48,-1.29 2.01,-3.16 5.12,1.44 8.78,-0.83 1.48,5.5 4.52,8.47 -1.9,3.37 -1.64,10.44 -2.2,1.88 2.69,8.22 -2.18,5.73 3.52,1.59 -3.3,10.5 0.43,8.94 6.61,-1.42 0.32,2.2 7.28,5.02 -0.02,5.22 2.03,3.8 6.55,-0.55 2.72,-1.86 2.1,3.91 -2.66,4.73 -0.54,4.09 2.7,9.17 4.62,4.47 0.73,3.42 -2.91,5.5 6.54,12.6 -1.24,8.02 2.48,-0.47 3.11,4.53 2.52,-2.59 3.92,0.06 0.5,4.83 4.35,-2.6 10.38,3.92 z m 105.3,101.29 5.96,8.37 -3.49,2.61 -7.57,-3.04 -0.78,-6.26 z"
       fill-rule="evenodd"
       id="M35208"
       style="fill:#ffff80;fill-opacity:1;stroke:#000000;stroke-width:1.1582;stroke-dasharray:none;stroke-opacity:1" />
    <path
       d="m 514.72,465.81 0.55,3.91 4.3,1.22 2.2,3.73 -1.99,2.86 -5.24,3.27 1.2,2.3 -2.67,6.4 -4.16,1.57 -4.99,6.83 -7.39,0.97 -7.08,-5.68 1.11,-5.7 2.01,-1.57 5.81,5.52 7.21,-6.62 5.31,0.76 -0.72,-6.98 2.95,-5.01 z m 35.99,-10.78 -5.59,5.72 -6.82,1.36 -4.21,6.45 -3.71,3.79 -4.24,-1.52 -6.88,-6.43 0.24,-3.4 -4.4,-4.79 -3.86,-1.4 -6.42,-0.19 2.11,-6.43 -1,-4.18 3.38,-0.95 2.04,-3.84 5.55,-2.16 -0.38,-2.69 4.67,-5.22 -0.39,-8.18 -2.26,-2.91 -1.26,-6.32 -6.35,-2.68 2.39,-4.81 10.65,-5.95 1.96,-3.1 5.1,4.43 -2.45,4.5 1.09,4.27 6.28,-0.11 7.67,2.15 -2.88,2.71 10.58,10.53 -0.53,3.67 -3.01,1.63 2.19,4.42 -2.48,9.53 3.37,5.81 z"
       fill-rule="evenodd"
       id="M35207"
       style="fill:#ffff80;fill-opacity:1;stroke:#000000;stroke-width:1.1582;stroke-dasharray:none;stroke-opacity:1" />
    <path
       d="m 386.12,447.34 6.55,4.39 -2.69,1.87 -1.95,6.78 -12.06,7.09 -0.54,-3.66 -4.45,-1.02 5.94,-4.84 0.34,-5.61 z m 31.32,-65.66 -3.83,1.46 -1.41,7.27 1.84,4.44 -3.59,4.82 1.69,9.15 -3.67,1.34 0.53,5.59 4.05,1.78 5.16,-0.53 3.56,1.6 -0.3,6.27 5.47,9.96 -2.22,-0.62 -8,3.43 -4.04,-4.39 -4.15,-0.02 -5.45,4.07 -2.51,6.62 -3.15,2.64 -4.37,-2.39 -1.3,-6.25 -5.49,3.75 -1.15,3.79 -4.78,4.39 -6,2.92 -0.45,3.22 -10.23,5.4 -6.38,-1.01 -4.7,-2.19 -3.43,-3.75 2.82,-2.53 -3.24,-5.01 -11.65,-3.01 -4.03,-5.37 -2.68,-3.75 -4.34,-0.2 -1.77,-3.28 -0.91,-6.74 5.29,-4.85 6.78,-2.59 4.78,-10.81 4.43,-2.97 3.82,0.08 5.09,7.25 6.6,-4.01 8.8,-2.19 3.38,-5.65 -0.53,-4.17 3.22,-4.66 4.29,-1.75 0.02,-5.59 2.76,-0.5 2.45,-3.92 -1.62,-4.25 4.86,-0.04 3.73,2.18 4.08,-0.52 2.57,2.35 6.63,0.39 1.94,-7.14 2.3,-2.66 9.53,1.15 2.12,3.32 z"
       fill-rule="evenodd"
       id="M35206"
       style="fill:#ffff80;fill-opacity:1;stroke:#000000;stroke-width:1.1582;stroke-dasharray:none;stroke-opacity:1" />
    <path
       d="m 239.11,162.87 2.37,3.22 5.32,0.47 -1.04,3.62 -5.38,1.69 -4.18,-1.62 z M 169.51,1 l 1.65,3.11 5.49,2.76 0.32,4.93 7.41,4.49 -0.7,4.79 -3.33,0.14 -2.58,2.95 -5.14,0.1 -3.21,-6.35 -1.3,-9.94 z m 133.59,164.7 3.01,10.75 -5.39,2.8 -2.83,-3.47 0.76,-6.42 z m 23.39,15.52 7.5,-3.7 2.34,2.37 9.45,2.93 3.97,-7.8 5.72,-5.03 3.18,0.24 4.26,-6.39 3.87,1.11 -0.55,4.28 7.67,9.81 2.28,4.93 8.33,-0.48 5.1,-2.43 1.6,-4.53 4.85,-3.52 2.72,2.2 3.89,-3.63 12.05,-6.37 -6.64,-10.45 -3.82,1.75 -5.99,-9.02 -5.98,-3.57 -4.4,-7.19 2.14,-2.27 2.3,-9.12 -1.47,-2.68 -6.05,-2.72 -1.51,-6.03 -8.29,-2.23 -3.02,1.95 -1.4,-2.46 3.17,-6.31 8.52,-4.13 5.47,2.35 3.42,-0.04 1.42,-5.52 -4.77,1.17 2.85,-13.62 2.3,-4.33 4.87,-3.35 4,1.54 3.93,-1.13 5.06,2.2 1.76,3.07 -2.41,5.42 4.45,2.5 0.48,-6.29 7.72,-1.82 3.15,-4.36 -1.61,-4.29 5.36,-2.02 4.45,0.99 -2.09,3.57 2.58,2.34 4.26,8.21 -0.28,9.84 -1.64,6.4 5.62,4.49 5.58,-0.29 -0.71,4.27 1.86,13.82 3.09,3.38 -3.49,2.16 -3.23,5.52 -3.4,-0.33 -2.42,7.13 2.76,10.32 -5.43,5.35 -7.98,4 -4.99,7.34 -4.96,-0.24 -5.33,3.17 2.07,4.85 -2.23,2.09 3.29,4.28 -1.38,5.55 -5.13,2.67 0.64,3.14 -2.89,2.59 -0.37,6.28 -2.9,0.52 -3.22,6.65 -1.64,-0.12 -5.38,9.19 -1.85,4.85 -4.76,-1.49 -2.35,1.73 -5.06,-0.32 -3.35,-3.2 -8.52,2.81 -6.65,-0.64 0.46,5.3 3.87,3.58 0.13,3.87 -6.39,5.59 0.35,4.99 2.35,2.04 6.87,2.09 3.27,8.9 -1.06,6.16 3.98,5.52 -3.04,4.84 -1.05,5.47 -2.63,1.14 -1.38,4.07 -4.12,-3.24 -3.39,5.27 -5.74,4.38 2.33,3.47 -5.96,2.27 1.14,2.43 -5.83,8.67 1.43,4.27 -3.09,1.79 -0.62,4.32 -5.12,0.13 -3.26,-2.67 -8.4,3.95 -8.24,8.99 -6.43,-0.01 -5.61,2.7 -2.6,4.09 -2.83,-0.33 -5.91,-3.77 1.66,-4.31 -0.42,-5.89 1.81,-3.14 -1.68,-6.36 2.48,-3.69 -1.75,-5.87 -3.5,1.57 -2.34,-1.83 -1.53,-5.24 -2.26,-1.31 0.11,-7.19 -4.43,-9.43 -5.1,1.47 -2.33,2.43 -4,0.38 -5.68,-4.28 2.79,-5.22 1.81,-6.48 -1.02,-6.57 1.72,-7.36 -2.88,-3.21 -6.21,-0.27 -5.49,-5.66 -5.16,2.89 -4.18,-0.14 -1.78,-8.72 5.48,-1.21 5.9,-5.03 3.85,-0.85 1.89,-4.66 -0.66,-2.99 4.26,-5.94 5.5,-0.48 2,3.41 4.28,0.05 6.82,-2.47 1.48,-3.83 5.8,2.75 5.77,-6.6 8.58,-6.06 -3.48,-4.01 -4.98,0.76 -4.45,-4.93 3.18,-3.48 2.86,3.99 3.76,2.22 4.37,-2.95 6.23,-9.59 z"
       fill-rule="evenodd"
       id="M35204"
       style="fill:#ffff80;fill-opacity:1;stroke:#000000;stroke-width:1.1582;stroke-dasharray:none;stroke-opacity:1" />
    <path
       d="m 282.7,381.16 2.07,-3.21 2.31,-8.01 -0.05,-5.28 8.89,-9.06 0.38,-3.8 3.43,-4.7 -0.19,-6.73 2.15,-1.25 2.83,0.33 2.6,-4.09 5.61,-2.7 6.43,0.01 8.24,-8.99 8.4,-3.95 3.26,2.67 5.12,-0.13 0.62,-4.32 3.09,-1.79 -1.43,-4.27 5.83,-8.67 -1.14,-2.43 5.96,-2.27 -2.33,-3.47 5.74,-4.38 3.39,-5.27 4.12,3.24 1.38,-4.07 2.63,-1.14 1.05,-5.47 3.04,-4.84 -3.98,-5.52 1.06,-6.16 -3.27,-8.9 -6.87,-2.09 -2.35,-2.04 -0.35,-4.99 6.39,-5.59 -0.13,-3.87 -3.87,-3.58 -0.46,-5.3 6.65,0.64 8.52,-2.81 3.35,3.2 5.06,0.32 2.35,-1.73 4.76,1.49 1.85,-4.85 5.38,-9.19 1.64,0.12 3.22,-6.65 2.9,-0.52 0.37,-6.28 2.89,-2.59 -0.64,-3.14 5.13,-2.67 1.38,-5.55 -3.29,-4.28 2.23,-2.09 -2.07,-4.85 5.33,-3.17 4.96,0.24 3.58,1.8 3.25,7.42 0.52,5.52 6,-1.37 1.86,3.54 -2.9,5.18 2.47,8.2 -2.47,4.54 9,8.67 3.92,-0.11 4.02,-2.31 3.9,2.36 6.7,-5.99 4.48,3.07 5.45,-0.78 10.47,1.23 -0.82,6.06 -2.98,5.73 -1.02,7.2 -4.78,2.92 -0.96,4.31 -4.38,3.65 1.79,3.49 -0.5,5.74 2.27,4.99 -7.11,5.74 -0.8,5.72 1.13,2.76 -5.25,1.93 -0.84,8.08 2.96,7.41 -2.76,2.39 -0.27,4.43 4.35,4.23 2.27,4.06 -2.02,6.78 -3.7,1.34 -3.03,7.38 5.65,13.35 0.07,6.42 4.07,5.44 1.98,5.24 -4.94,3.43 -7.24,-1.48 -2.95,5.6 3.49,5.27 -1.34,3.21 -4.2,1.54 -2.4,3.29 1.52,4.81 -0.25,5.03 -5.7,4.73 -7.06,-5.18 -2.83,-0.11 -3.06,5.47 -5.56,-1.43 -3.69,0.5 -6.19,-1.48 3.22,-8.68 -2.12,-3.32 -9.53,-1.15 -2.3,2.66 -1.94,7.14 -6.63,-0.39 -2.57,-2.35 -4.08,0.52 -3.73,-2.18 -4.86,0.04 1.62,4.25 -2.45,3.92 -2.76,0.5 -0.02,5.59 -4.29,1.75 -3.22,4.66 0.53,4.17 -3.38,5.65 -8.8,2.19 -6.6,4.01 -5.09,-7.25 -3.82,-0.08 -4.43,2.97 -4.78,10.81 -6.78,2.59 -5.29,4.85 0.91,6.74 1.77,3.28 4.34,0.2 2.68,3.75 -4.18,2.54 1.41,8.28 4.57,3.05 -8.19,5.52 -3.64,0.77 4.29,5.14 -4.05,2.87 -2.64,-4.05 -6.4,4.29 -5.81,-1.94 3.81,-8.8 -2.15,-4.38 -8.55,5.23 -1.18,-4.95 2.67,-3.71 -4.78,-3.22 -3.77,-0.13 0.1,-5.23 1.97,-4.32 -2.06,-4.6 -3.85,2.38 -1.05,5.78 1.16,2.65 -6.98,2.02 5.5,3.78 -2.47,7.76 -3.55,4.65 -3.61,1.82 -7.2,-2.49 -6.78,2.12 -4.1,-1.3 -5.46,3.16 -7.99,-0.95 -2.19,-2.86 1.26,-5.17 4.84,-2.78 -1.19,-5.2 2.36,-0.8 4.52,-8.23 0.81,-3.97 5.2,-0.82 3.05,-3.61 1.55,-7.42 3.67,-1.63 1.33,-3.89 -1.83,-3.33 3.54,-2.65 -0.71,-6.38 -3.2,-4.94 3.39,-1.25 3.89,2.49 3.71,-3.98 3.59,-1.6 1.64,-3.6 -1.43,-6.16 z"
       id="M35203"
       style="fill:#ffff80;fill-opacity:1;stroke:#000000;stroke-width:1.1582;stroke-dasharray:none;stroke-opacity:1" />
    <path
       d="m 207.1,395.16 2.16,-3.88 7.5,-1.87 2.97,-4.09 2.16,-6.16 6.92,-2.09 3.26,2.76 5.13,-0.71 5.33,-11.42 4.17,-3.16 4.66,0.64 3.43,2.54 3.53,-2.87 3.33,3.11 -1.5,5.03 8.63,4.39 3.44,4.05 7.22,-1.89 3.26,1.62 3.18,3.32 1.43,6.16 -1.64,3.6 -3.59,1.6 -3.71,3.98 -3.89,-2.49 -3.39,1.25 3.2,4.94 0.71,6.38 -3.54,2.65 1.83,3.33 -1.33,3.89 -3.67,1.63 -1.55,7.42 -3.05,3.61 -5.2,0.82 -0.81,3.97 -4.52,8.23 -2.36,0.8 1.19,5.2 -4.84,2.78 -1.26,5.17 2.19,2.86 7.99,0.95 5.46,-3.16 4.1,1.3 6.78,-2.12 7.2,2.49 -2.05,5.31 -5.08,3.47 1.44,2.51 -1.14,6.32 -7.25,7.35 -7.71,-0.78 -6.13,4.02 -5.51,7.65 -12.38,6.55 -2.08,-1.6 -5.47,1.2 -1.89,-4.46 -6.69,2.46 0.7,-5.35 4.34,-1.24 0.52,-3.29 -4.76,-1.8 -1.44,5.54 -4.12,2.3 -2.78,-3.5 5,-2.77 -4.51,-2.89 0.65,-4.43 -3.48,-0.42 -0.59,7.87 -5.3,0.96 -3.01,-8.6 -2.74,-2.08 0.89,-9.57 -1.43,-6.06 2.82,-4.5 4.2,-2.91 1.47,-3.34 6.28,-3.19 2.37,-3.38 0.82,-6.38 -8.12,-4.99 -3.63,0.91 -7.41,-8.51 3.83,-5.19 6.73,-5.48 4.47,-1.71 -2.05,-4.96 2.72,-6.46 -0.81,-3.16 1.44,-5.34 z"
       id="M35202"
       style="fill:#ffff80;fill-opacity:1;stroke:#000000;stroke-width:1.1582;stroke-dasharray:none;stroke-opacity:1" />
    <path
       d="m 2.53,393.91 1.83,4.85 5.42,0.73 2.71,3.26 L 9.83,406.4 7.46,402.34 1,400.1 Z m 42.5,-147.79 5.6,5.39 -1.37,5.84 -9.55,0.53 -4.68,6.43 -3.36,-2.25 -1.12,-3.32 8.85,-2.05 4.24,-2.75 2.19,-3.82 z m 21.63,240.5 1.21,3 -1.02,5.66 4.3,1.61 2.18,5.24 -2.32,6.88 -4.75,1.64 -5.17,-1.86 -1.46,-7.67 -5.31,-5.7 -5.15,-3.65 3.11,-4.72 5.37,4.88 3.07,-3.21 z m 122.5,-177.93 -0.15,4.55 -5.41,8.24 -0.34,6.16 -3.34,-1.18 -3.91,4.45 -8.7,3.41 -2.26,3.7 -6.9,4.33 0.94,4.26 -4.55,4.54 -0.12,2.47 4.16,4.47 4.51,9.89 -3.07,2.02 -3.67,-0.82 -3.13,-4.59 -3.14,0.4 0.08,7.12 -3.42,6.03 0.58,6.89 13.84,13.33 -0.24,6.58 -2.82,2.09 0.25,5.21 2.04,4.71 -4.76,2.32 -5.51,-2.25 -7.72,2.74 4.74,3.78 -5.74,4.06 -1.91,10.13 -9.57,-1.88 0.12,-4.62 -5.23,-3.89 -4,6.54 0.92,3.75 -4.27,2.52 -3.16,4.61 3.12,3.74 -4.53,6.01 -3.47,-2.77 -1.86,3.21 2.75,3.3 -3.56,1.91 -1.78,6.12 -6.41,4.38 -1.92,2.57 -9.08,5.9 -2.18,2.84 -9.29,7.96 -4.53,0.17 -6.77,-6.7 3.09,-11.08 -3.87,-8.01 0.5,-4.81 3.02,-5.69 0.1,-5.08 -2.31,-2.71 -3.71,-0.4 5.32,-11.89 -1.88,-9.05 -7.27,-5.15 -6.41,-2.17 -0.3,-5.86 -4.2,-3.36 0.12,-4.61 -5.19,-3.1 1.6,-5.94 0.87,-12.9 6.42,-2.76 5.26,4.14 5.2,-3.46 -1.15,-4.42 4.23,-6.1 3.08,-0.36 4.74,-5.82 3.26,-11.78 -0.89,-11.16 -0.89,-1.78 -5.94,-1.32 2.74,-5.48 -0.18,-8.48 -10.06,-8.65 -2.11,-6.75 -3.06,-3.61 -4.01,-1.9 -6.75,-6.85 3.3,-4.53 5.17,-1.79 -0.54,-4.03 3.71,-3.81 0.46,-9.96 -1.28,-8.32 4.52,-3.8 0.29,-5.63 2.86,-0.97 2.74,4.65 3.45,0.46 5.81,6.23 1.75,-5.27 6.87,-0.43 14.77,-6.26 4.85,3 5.77,7.33 5.08,3.1 3.01,5.09 0.23,3.35 5.84,2.1 1.37,5.86 3.53,0.37 7.32,6.09 4.26,4.83 3.32,-0.79 4.37,5.23 1.68,9.64 5.02,2.48 11.72,-1.29 5.71,-2.76 9.68,-0.59 3.16,4.68 z"
       fill-rule="evenodd"
       id="M35201"
       style="fill:#ffff80;fill-opacity:1;stroke:#000000;stroke-width:1.1582;stroke-dasharray:none;stroke-opacity:1" />
    <path
       d="m 160.92,404.94 2.63,4.61 4.15,3.51 1.6,-2.03 8.06,-3.32 4.18,1.09 5.27,-3.43 2.86,-9.11 3.54,-3.94 12.98,1.4 0.91,1.44 3.64,2.64 -1.44,5.34 0.81,3.16 -2.72,6.46 2.05,4.96 -4.47,1.71 -6.73,5.48 -3.83,5.19 7.41,8.51 3.63,-0.91 8.12,4.99 -0.82,6.38 -2.37,3.38 -6.28,3.19 -1.47,3.34 -4.2,2.91 -2.82,4.5 1.43,6.06 -0.89,9.57 2.74,2.08 3.01,8.6 -6.9,2.22 0.35,4.21 -3.35,0.12 -3.4,-6.11 -6.46,-7.58 2.5,-8.69 -1.09,-9 -6.84,-5.25 2.09,-4.6 -7.69,0.08 -1.03,3.91 -5.15,-4.01 -2.9,-6.18 -2.33,-2.07 -3.56,-7.36 -3.25,-2.71 -6.06,1.02 -7.34,-2.97 1.91,-10.13 5.74,-4.06 -4.74,-3.78 7.72,-2.74 5.51,2.25 4.76,-2.32 -2.04,-4.71 -0.25,-5.21 z"
       id="M35216"
       style="fill:#ffff80;fill-opacity:1;stroke:#000000;stroke-width:1.1582;stroke-dasharray:none;stroke-opacity:1" />
    <path
       d="m 443.88,440.05 2.9,2.16 -2.84,3.27 1.86,2.89 -1.17,11.44 4.29,5.69 4.37,1.68 -0.56,3.87 -4.71,-0.8 0.79,-4.09 -3.73,-1.29 -6.99,-10.26 3.76,0.81 -0.29,-11.03 z m 30.5,-8.65 3.16,0.84 -8.19,5.96 -1.37,2.44 -6.88,6.18 -3.47,1.5 -4.53,-1.26 -0.51,-6.33 2.63,-2.2 7.53,0.54 1.79,2.22 4.7,-8.79 z m 118.01,14.02 -6.58,-1.58 -12.19,2.14 -5.24,-4.28 -3.6,0.17 0.5,5.37 -2,3.86 -4.92,2.43 -7.65,1.5 0.15,-6.29 -3.37,-5.81 2.48,-9.53 -2.19,-4.42 3.01,-1.63 0.53,-3.67 -10.58,-10.53 2.88,-2.71 -7.67,-2.15 -6.28,0.11 -1.09,-4.27 2.45,-4.5 -5.1,-4.43 -1.96,3.1 -10.65,5.95 -2.39,4.81 6.35,2.68 1.26,6.32 2.26,2.91 0.39,8.18 -4.67,5.22 0.38,2.69 -5.55,2.16 -2.04,3.84 -3.38,0.95 1,4.18 -2.11,6.43 -5.45,4.24 -3.69,5.11 -6.93,2.67 5.81,3.53 0.29,7.25 -3.08,1.04 -4.16,-4.64 -5.73,1.28 -8.23,-2.36 2.23,-4.23 5.05,-1.44 -2.2,-4.33 8.01,-8.25 2.28,-3.71 3.55,0.15 1.35,-3.92 3.18,-2.86 -1.42,-4.38 -6.66,-4.34 -7.85,8.31 -0.83,-3.43 3.7,-7.02 -1.05,-4.12 -12.58,0.15 -7.21,3.76 -5.28,-4.69 6.02,-5.88 -4.89,-0.1 -1.19,2.42 -4.52,-0.39 -4.3,2.76 -4.97,-1.79 -4.47,2.81 -1.08,5.06 -4.58,-0.49 -4.61,-3.94 -2.39,5.98 -5.47,-9.96 0.3,-6.27 -3.56,-1.6 -5.16,0.53 -4.05,-1.78 -0.53,-5.59 3.67,-1.34 -1.69,-9.15 3.59,-4.82 -1.84,-4.44 1.41,-7.27 3.83,-1.46 6.19,1.48 3.69,-0.5 5.56,1.43 3.06,-5.47 2.83,0.11 7.06,5.18 5.7,-4.73 0.25,-5.03 -1.52,-4.81 2.4,-3.29 4.2,-1.54 1.34,-3.21 -3.49,-5.27 2.95,-5.6 7.24,1.48 4.94,-3.43 -1.98,-5.24 -4.07,-5.44 -0.07,-6.42 -5.65,-13.35 3.03,-7.38 3.7,-1.34 2.02,-6.78 -2.27,-4.06 -4.35,-4.23 0.27,-4.43 2.76,-2.39 -2.96,-7.41 0.84,-8.08 5.25,-1.93 -1.13,-2.76 0.8,-5.72 7.11,-5.74 3.33,1.6 0.72,5.08 -2.32,4.05 6.39,5.03 3.83,1.26 0.16,4.42 4.67,3.73 4.85,1.23 7.07,4.38 1.24,-4.91 12.47,3.75 4.38,-0.2 5.56,-2.09 0.52,16.83 -0.56,5.55 6.16,10.45 -2.94,5.77 1.69,3.63 10.74,3.48 2.25,3.46 3.88,-1.33 3.34,-3.39 3.78,3.58 -1.51,4.85 0.52,5.1 2.27,3.99 5.34,1.36 1.06,9.71 3.57,2.86 -4.12,4.08 1.32,5.8 -3.45,6.51 2.2,3.51 1.14,14.8 2.35,5.13 1.14,10.05 7.16,0.69 6.42,5.56 0.84,7.99 4.08,-1.81 3.14,0.86 5.24,-2.03 3.29,12.81 -2.03,8.8 z"
       fill-rule="evenodd"
       id="M35215"
       style="fill:#ffff80;fill-opacity:1;stroke:#000000;stroke-width:1.1582;stroke-dasharray:none;stroke-opacity:1" />
  </g>
</svg>
