<?xml version="1.0" encoding="UTF-8" standalone="no"?>
<svg
   version="1.2"
   width="578.99512"
   height="600"
   viewBox="0 0 578.99512 600"
   stroke-linecap="round"
   stroke-linejoin="round"
   id="svg1219"
   sodipodi:docname="yn.svg"
   inkscape:version="1.2 (dc2aedaf03, 2022-05-15)"
   xmlns:inkscape="http://www.inkscape.org/namespaces/inkscape"
   xmlns:sodipodi="http://sodipodi.sourceforge.net/DTD/sodipodi-0.dtd"
   xmlns="http://www.w3.org/2000/svg"
   xmlns:svg="http://www.w3.org/2000/svg">
  <defs
     id="defs1223" />
  <sodipodi:namedview
     id="namedview1221"
     pagecolor="#505050"
     bordercolor="#eeeeee"
     borderopacity="1"
     inkscape:showpageshadow="0"
     inkscape:pageopacity="0"
     inkscape:pagecheckerboard="0"
     inkscape:deskcolor="#505050"
     showgrid="false"
     inkscape:zoom="0.97225573"
     inkscape:cx="290.04715"
     inkscape:cy="300.33251"
     inkscape:window-width="1920"
     inkscape:window-height="1009"
     inkscape:window-x="-8"
     inkscape:window-y="-8"
     inkscape:window-maximized="1"
     inkscape:current-layer="svg1219" />
  <g
     id="yn"
     transform="matrix(0.72430472,0,0,0.72430472,-0.22430691,-0.22430531)"
     style="fill:#ffff80;fill-opacity:1;stroke:#000000;stroke-width:1.38063;stroke-dasharray:none;stroke-opacity:1">
    <path
       d="m 277.29,360.3 -0.99,-10.25 16.04,4.3 -0.82,-8.87 9.22,-9.3 3.78,-4.56 8.28,7.47 -4.93,5.32 3.11,8.64 -2.52,8.61 4.77,5.34 -8.44,-1.89 -8.55,1.9 -0.95,7.5 -10.06,-0.6 -3.5,-13.49 z"
       id="M19384"
       style="fill:#ffff80;fill-opacity:1;stroke:#000000;stroke-width:1.38063;stroke-dasharray:none;stroke-opacity:1" />
    <path
       d="m 338.66,434.39 8.07,2.05 2.46,4.07 -5.45,8.76 -1.05,8.86 4.88,9.99 -4.04,1.33 -18.22,0.3 -9.51,2.75 -17.62,-4.55 -8.08,4.26 -2.05,6.07 -15.76,-1.02 -7.98,6.22 3.05,5.08 -2.99,4.31 -7.79,4.05 -6.72,6.41 -11.57,0.39 -1.64,6.63 -12.16,9.75 -0.29,-10.21 6.18,-8.12 -0.45,-6.36 -5.82,-7.18 13.57,-7.86 3.86,-5.47 -1.85,-8.45 -5.03,0.58 -6.93,-4.69 0.97,-12.21 10.02,0.04 0.95,-6.45 7.34,-10.82 3.71,-11.1 2.38,-3.3 11.72,-6.33 16.63,-1.79 7.42,-2.12 8.21,-5.67 7.05,5.5 3.93,0.19 -7.05,11.68 2,5.15 -3.26,5.77 18.15,8.68 11.83,0.72 0.26,-4.5 z"
       id="M19346"
       style="fill:#ffff80;fill-opacity:1;stroke:#000000;stroke-width:1.38063;stroke-dasharray:none;stroke-opacity:1" />
    <path
       d="m 528.12,435.77 -6.48,4.7 3.19,13.35 -3.42,8.17 -7.16,4.86 -5.86,7.77 0.05,4.51 -5.18,5.01 1.31,7.88 -2.25,3.48 -7.21,-1.04 -1.06,12.02 -5.12,11.02 -1.37,12.3 -2.88,8.2 -6.92,9.12 -4.48,-16.04 -10.94,-5.77 -7,-0.81 2.18,-12.3 4.47,-12.85 -7.03,-2.47 -5.06,-4.76 -8.65,1.19 -10.36,6.7 -6.21,0.28 -11.51,3.52 -6.9,6.28 -8.38,29.04 3.75,7.1 -0.22,11.23 4.61,11.74 -10.82,3.68 -1.03,5.69 -5.62,11.03 -3.91,2.47 -24.97,5.25 -9.57,-39.7 -7.71,-5.13 -5.54,-9.19 1.02,-10.56 9.84,1.08 5.65,-6.51 -5.65,-5.93 0.79,-5.79 -3.67,-3.93 -7.35,1.29 7.67,-7.2 2.3,-13.7 6.58,-9.61 15.57,2.68 13.07,-11.34 6.96,0.15 4.59,-3.13 21.89,-3.58 6.5,-8.43 8.22,-5.96 6.47,-1.47 20.81,-8.18 4.71,-3.86 18.37,-7.17 3.99,0.1 5.23,-5.65 14.57,0.56 7.52,-2.24 1.36,-9.4 5.23,-2.39 1.57,14.46 7.44,7.74 z m -120.64,52.13 6.35,0.84 6.13,4.02 13.05,-2.39 -0.22,-8.58 -16.17,4.88 z m 76.81,-24.39 -9.3,-0.26 -5.66,9.67 -14.7,5.93 2.22,7.03 6.53,-2.47 2.2,-4.44 12.68,-3.88 10.19,2.31 5.43,6.4 3.53,-5.01 -5.32,-14.78 z"
       fill-rule="evenodd"
       id="M19430"
       style="fill:#ffff80;fill-opacity:1;stroke:#000000;stroke-width:1.38063;stroke-dasharray:none;stroke-opacity:1" />
    <path
       d="m 384.65,592.07 3.91,-2.47 5.62,-11.03 1.03,-5.69 10.82,-3.68 -4.61,-11.74 0.22,-11.23 -3.75,-7.1 8.38,-29.04 6.9,-6.28 11.51,-3.52 6.21,-0.28 10.36,-6.7 8.65,-1.19 5.06,4.76 7.03,2.47 -4.47,12.85 -2.18,12.3 7,0.81 10.94,5.77 4.48,16.04 -18.88,20.19 4.91,29.59 -2.66,24.86 0.42,6.77 -5,-2.51 -20.41,2.64 -1.5,3.1 -15.17,2.03 -7.83,-36.11 -6.53,-5.61 z"
       id="M19429"
       style="fill:#ffff80;fill-opacity:1;stroke:#000000;stroke-width:1.38063;stroke-dasharray:none;stroke-opacity:1" />
    <path
       d="m 634.52,540.13 -8.3,11.48 -0.57,7.36 3.28,4.28 -0.39,5.61 -3.78,5.71 -6.36,4.08 -1.39,11.03 -11.34,4.4 -3.8,4.62 -8.7,5.63 -7.24,0.41 -4.89,4.36 -9.26,-8.6 0.96,-3.5 -12.19,-7.21 -17.15,-11.88 4.55,-12.94 -0.3,-4.76 -25.88,-9.14 5.58,-1.09 0.91,-11.66 -3.4,-5.95 23.16,16.31 11.13,-5.41 2.13,-11.14 12.34,6.86 -5.4,6.73 5.26,6.85 6.82,-3.27 5.61,0.95 11.64,-3.7 6.8,-8.14 5.58,0.15 13.33,-7.83 1.25,3.01 z m -65.81,33.21 6.83,7.61 14.03,0.02 9.24,-5.78 5.23,-6.85 -1.82,-6.82 -8.59,7.13 -4.25,-0.06 -7.72,-5.26 -15.56,-3.06 -4.91,4.84 z"
       fill-rule="evenodd"
       id="M19425"
       style="fill:#ffff80;fill-opacity:1;stroke:#000000;stroke-width:1.38063;stroke-dasharray:none;stroke-opacity:1" />
    <path
       d="m 604.35,538.41 -6.8,8.14 -11.64,3.7 -5.61,-0.95 -6.82,3.27 -5.26,-6.85 5.4,-6.73 -12.34,-6.86 -2.13,11.14 -11.13,5.41 -23.16,-16.31 5.25,-5.47 1.37,-10.8 2.23,-4.37 11.85,7.7 8.66,-3.4 3.97,1.07 8.68,-7.42 7,-2.18 1.11,-4.94 8.72,-0.39 4.87,6.4 1.52,8.34 8.5,17.59 z"
       id="M19424"
       style="fill:#ffff80;fill-opacity:1;stroke:#000000;stroke-width:1.38063;stroke-dasharray:none;stroke-opacity:1" />
    <path
       d="m 524.83,453.82 -3.19,-13.35 6.48,-4.7 -0.01,-0.44 6.16,-0.25 12.49,2.61 4.66,-1.4 7.83,4.47 4.89,7.08 10.22,7.18 -9.02,4.56 -1.1,4.59 2.06,18.09 -13.12,3.76 -5.61,-9.79 2.93,-9.45 -2.85,-5.95 -9.3,-1.8 -2.78,-4.72 z"
       id="M19423"
       style="fill:#ffff80;fill-opacity:1;stroke:#000000;stroke-width:1.38063;stroke-dasharray:none;stroke-opacity:1" />
    <path
       d="m 634.52,540.13 -10.01,-6.39 -1.25,-3.01 2.78,-1.5 -0.47,-9.39 2.19,-5.65 0.11,-10.69 8.87,-9.69 6.41,-0.92 16.53,-10.34 3.32,-4.26 2.62,-12.72 4.64,0.89 15.08,-3.9 5.29,-4.42 1.07,-10.79 5.65,-4.34 10.09,-1.18 1.32,1.41 26.1,-4.24 6.43,2.09 11.18,-3.76 6.42,0.9 2.72,4.22 10.38,-2.36 8.79,-3.87 1.64,11.64 -6.1,6.5 -2.11,5.44 -8.22,5.17 -7.13,10.07 -9.48,2.21 -4.95,-0.98 -7.1,3.49 -7.26,-3.17 -4.51,0.94 -1.75,10.52 -5.86,8.74 -5.29,2.31 -2.57,7.96 -10.63,1.08 -5.63,5.51 -16.18,0.94 -8.41,10.19 -16.35,1.55 -15.63,13.02 z"
       id="M19422"
       style="fill:#ffff80;fill-opacity:1;stroke:#000000;stroke-width:1.38063;stroke-dasharray:none;stroke-opacity:1" />
    <path
       d="m 277.29,360.3 4.44,0.12 3.5,13.49 10.06,0.6 0.95,-7.5 8.55,-1.9 8.44,1.89 0.39,8.51 4.41,3.94 2.7,14.18 -2.25,8.61 7.42,3.99 6.13,7.13 -0.45,4.36 7.23,10.21 -0.15,6.46 -8.67,1.39 -0.26,4.5 -11.83,-0.72 -18.15,-8.68 3.26,-5.77 -2,-5.15 7.05,-11.68 -3.93,-0.19 -7.05,-5.5 -8.21,5.67 -7.42,2.12 -16.63,1.79 3.63,-10.39 4.04,-2.93 4.43,-13.75 -3.01,-12.64 0.08,-11.21 z"
       id="M19214"
       style="fill:#ffff80;fill-opacity:1;stroke:#000000;stroke-width:1.38063;stroke-dasharray:none;stroke-opacity:1" />
    <path
       d="m 572,117.49 -0.14,12.05 2.4,6.08 -3.54,9.44 -7.61,4.07 -0.67,4.56 7.33,7.85 -2.64,9.85 5.09,2.49 4.22,21.97 -4.28,3.6 -8.43,0.8 -6.29,2.86 -3.41,-1.82 -20.08,1.05 1.92,11.89 7.16,10.37 14.56,6.36 5.81,8.27 1.44,7.71 4.9,3.22 -4.08,16.15 0.11,13.04 3.94,13.69 -6.16,6.95 -4.67,9.58 2.93,12.18 -1.9,5.99 1.91,6.13 -13.28,13.86 -4.01,6.75 -8.3,-0.44 -4.33,7.68 -9.42,-1.21 -8.38,6.06 -10.08,1.8 -1.87,6.15 -10.28,4.49 -0.33,-14.21 -1.43,-3.88 -7.07,2.79 -14.09,-10.91 -1.31,-5.68 -12.14,-2.93 -4.79,-8.81 -3.9,2.43 0.18,-18.01 -4.75,-0.27 -0.68,-7.68 -5.7,-4.46 13.02,-11.14 -4.69,-9.61 2.82,-13.93 -9.39,-4 4.57,-11.46 3.26,-4.24 -0.83,-6.51 8.5,-8.39 2.29,-11.59 15.47,-11.3 2.94,-13.69 -5.19,-6.8 1.38,-5.39 15.63,0.7 12.02,-0.62 2.24,2.8 8.53,-0.43 -2.01,-7.11 1.45,-14.86 -1.24,-17.83 4.24,-10.36 11,-5.87 1.12,-10.95 7.92,-11.05 5.09,-2.96 7.39,-0.52 3.29,3.6 10.9,-5.31 9.37,2.87 z"
       id="M19213"
       style="fill:#ffff80;fill-opacity:1;stroke:#000000;stroke-width:1.38063;stroke-dasharray:none;stroke-opacity:1" />
    <path
       d="m 780.78,436.22 -8.79,3.87 -10.38,2.36 -2.72,-4.22 -6.42,-0.9 -11.18,3.76 -6.43,-2.09 -26.1,4.24 -1.32,-1.41 2.6,-5.38 -7.66,-4.84 -0.55,-7.57 -8.76,-10.25 -1.83,-7.64 5.38,-0.28 6.84,-4.84 5.04,3.45 11.97,-3.93 21.73,-2.09 -1.8,-30.06 -3.45,-1.05 -12.84,4.99 -15.97,-4.87 -2.56,-6.09 -0.73,-10.4 -6.32,-4.95 9.72,-16.93 -4.44,-13.68 -6.57,-0.04 -10.02,-3.19 -6.46,-5.5 1.79,-6.93 -9.59,-7.23 -4.43,-11.36 -7.93,-4.56 2.76,-7.89 4.66,-1.9 11.9,0.5 0.34,-3.22 8.9,-13.29 7.81,-9.49 7.55,11.96 1.36,5.45 13.56,11.05 6.66,1.86 4.48,4.72 16.83,9.8 8,-0.11 8.86,5.1 11.21,-0.46 5.85,6.24 11.92,8.36 3.76,5.02 -11.79,17.63 8.13,13.39 -2.8,8.06 -0.13,10.33 8.58,8.5 -4.97,3.26 4.38,6.36 -3.08,12.24 -6.61,7.91 5.3,6.1 0.54,18.9 z"
       id="M19212"
       style="fill:#ffff80;fill-opacity:1;stroke:#000000;stroke-width:1.38063;stroke-dasharray:none;stroke-opacity:1" />
    <path
       d="m 513.87,415.52 -1.36,9.4 -7.52,2.24 -14.57,-0.56 -5.23,5.65 -3.99,-0.1 -18.37,7.17 -4.71,3.86 -20.81,8.18 -6.47,1.47 -8.22,5.96 -6.5,8.43 -21.89,3.58 -0.14,-4.67 -6.89,-5.76 -1.65,-7.4 -6.92,-1.4 -5.13,-9.71 -7.31,-4.13 6.17,-8.45 -5.75,-19.12 -4.23,-2.95 -6.15,0.38 -8.8,-5.92 -4.49,-5.61 0.08,-5.76 16.22,-9.41 -2.13,-7.39 1.46,-6.72 -7.75,-0.74 -0.15,-16.69 10,-7.09 18.21,-9.76 -3.72,-8.43 -1.07,-10.27 -3.29,-1.81 -4.86,-12.32 -5.19,-8.56 7.69,-1.87 3.96,-6.58 -6.24,-13.14 4.18,1.83 4.73,6.7 16.83,16.01 -4.36,3.2 11.48,6.36 13.4,4.17 -5.15,12.3 10.97,1.89 14.07,-2.44 9.93,-0.01 4.75,0.27 -0.18,18.01 3.9,-2.43 4.79,8.81 12.14,2.93 1.31,5.68 14.09,10.91 7.07,-2.79 1.43,3.88 0.33,14.21 5.91,12.43 -1.07,6.88 10.15,1.1 3.2,5.35 -1.64,5.63 z"
       id="M19211"
       style="fill:#ffff80;fill-opacity:1;stroke:#000000;stroke-width:1.38063;stroke-dasharray:none;stroke-opacity:1" />
    <path
       d="m 300.74,336.18 -9.22,9.3 0.82,8.87 -16.04,-4.3 -3.42,0.08 -2.17,-20.15 -4.18,-18.55 -2.37,-3.91 -7.03,-2.18 -4.94,-2.71 -8.97,-9.13 1.83,-1.86 -5.72,-13.22 2.82,-9.13 4.71,-7.18 11.83,4.4 6.29,-7.17 4.72,-0.68 8.29,-10.17 -0.52,-7.01 6.22,-15.62 0.94,-14.04 -4.53,-3.45 -11.51,1.14 8.69,-15.09 2.56,-14.45 3.99,-4.6 8.59,-4.13 7.84,5.05 8.36,1.44 1.87,8.83 -3.11,3.67 -5.41,15.73 2.04,13.18 10.23,1.31 -0.94,10.45 6.38,2.04 3.43,6.99 -3.98,7.47 -9.93,7.16 -5.22,13.22 -6.11,-0.85 -8.56,6.84 -1.3,10.5 2.45,1.76 8.22,15.98 0.3,6.31 -4.89,9.87 4.82,9.48 -3.45,3.5 z"
       id="M19210"
       style="fill:#ffff80;fill-opacity:1;stroke:#000000;stroke-width:1.38063;stroke-dasharray:none;stroke-opacity:1" />
    <path
       d="m 308.62,177.73 -8.36,-1.44 -7.84,-5.05 -8.59,4.13 -3.99,4.6 -2.56,14.45 -8.69,15.09 -9.44,2.51 -1.06,4.94 -9.42,9.64 -15.41,6.76 -7.62,10.83 -11.42,-17.41 -0.81,-4.49 -6.3,-11.24 -7.09,-5.94 -6.76,7.12 -6.04,1.08 -2.48,-7.17 -21.65,3.95 -6.7,4.09 7.35,11.23 -9.04,4.75 -6.01,-0.23 -4.75,4.1 -6.97,-0.42 0.93,7.11 -8.03,12.17 -1.26,6.68 -11.75,10.76 -5.85,1.04 -10.45,-3.28 -2.38,2.67 -7.67,0.62 -8.52,-4.49 -10.45,-8.42 -1.54,-5.08 -6.98,-3.09 -10.75,-1.76 -6.51,-6.29 0.01,-7.93 -3.98,-7.63 5.98,-4.83 -3.8,-6.02 -6.27,-2.21 -16.21,-17.44 -4.77,1.62 -6.81,-3.38 -5.29,-7.02 2.18,-9.16 15,-16.3 -1.84,-7.13 2.75,-9.2 4.92,-5.66 11.84,-21.07 4.86,-19.36 4.72,-6.46 8.69,-3.66 13.26,10.35 7.04,11.35 9.04,5.81 7.89,-8.01 8.53,-12.78 3.71,-8.3 13.94,-15.39 6.03,-12.46 8.8,-11.68 3.1,-9.91 -0.57,-6.29 5.96,-6.87 6.63,-3.15 1.52,-11.99 6.32,-4.79 0.85,-4.3 9.47,0.14 7.47,5.08 14.85,3.99 7.04,3.62 6.17,0.01 15.89,8.11 6.19,5.93 3.16,7.35 -5.72,9.37 -2.58,11.91 8.21,15.03 5.25,-0.33 9.35,7.58 8.78,-2.67 6.4,2.4 4.13,-5.82 -0.05,-9.38 6.79,-1.08 2.44,-6.9 13.14,0.18 6.71,4.29 13.38,-0.24 7.11,-4.36 8.85,1.71 10.26,6.1 3.62,-5.8 9.58,-1.27 6.78,4.63 1.69,4.09 8.19,1.22 -4.26,9.29 -0.99,8.1 0.6,13.85 3.34,4.93 9.08,3.35 -0.89,8.89 -9.5,2.07 -4.5,11.78 -7.83,0.59 -3.51,4.12 -4.63,13.4 -3.81,3.24 -19.98,-0.22 -0.29,16.48 -5.51,5.17 z"
       id="M19209"
       style="fill:#ffff80;fill-opacity:1;stroke:#000000;stroke-width:1.38063;stroke-dasharray:none;stroke-opacity:1" />
    <path
       d="m 276.3,350.05 0.99,10.25 -3.3,0.95 -0.08,11.21 3.01,12.64 -4.43,13.75 -4.04,2.93 -3.63,10.39 -11.72,6.33 -2.38,3.3 -3.51,-8.99 -7.57,-5.77 -12.52,-2.99 -10.62,3.05 -13.82,-3.83 -0.5,-6.05 -10.59,-6.73 -5.67,4.37 -15.51,-1.25 -4.41,-3.98 -6.83,4.44 -0.43,4.43 -10.62,-1.08 -6.62,-2.82 -8.2,-1.09 -3.47,-7.4 0.9,-5.91 -6.37,-5.75 -11.86,8 -4.49,-5.46 3.59,-6.88 1.65,-11.74 -2.84,-6.76 3.57,-4.67 -3.95,-7.37 -8.91,-0.21 -12.83,-2.58 -6.31,2.8 -15.23,-2.95 -3.92,0.92 -11.09,-4.88 -9.87,1.8 -1.08,2.68 -7.53,1.66 -9.46,-11.79 -2.17,-8.74 -10.21,-8.25 0.57,-23.96 -2.36,-6.61 -8.63,-9.63 0.83,-7.33 13.09,-8.97 2.57,-6.28 5.54,-2.56 10.12,-10.23 2.38,-5.13 6.26,-2.64 3.98,7.63 -0.01,7.93 6.51,6.29 10.75,1.76 6.98,3.09 1.54,5.08 10.45,8.42 8.52,4.49 7.67,-0.62 9.74,12.16 5.42,11.25 0.95,7.08 4.93,4.64 12.56,4.46 14.52,-3.84 2.07,-8.25 12.56,0.11 6.38,3.84 6.59,0.19 1.93,4.56 7.4,3.82 8.97,-2.6 10.92,9.1 7.63,2.78 13.54,-3.3 17.83,-7.05 9.01,-0.3 6,-4.07 7.03,2.18 2.37,3.91 4.18,18.55 2.17,20.15 z"
       id="M19208"
       style="fill:#ffff80;fill-opacity:1;stroke:#000000;stroke-width:1.38063;stroke-dasharray:none;stroke-opacity:1" />
    <path
       d="m 268.59,209.51 11.51,-1.14 4.53,3.45 -0.94,14.04 -6.22,15.62 0.52,7.01 -8.29,10.17 -4.72,0.68 -6.29,7.17 -11.83,-4.4 -4.71,7.18 -2.82,9.13 5.72,13.22 -1.83,1.86 8.97,9.13 4.94,2.71 -6,4.07 -9.01,0.3 -17.83,7.05 -13.54,3.3 -7.63,-2.78 -10.92,-9.1 -8.97,2.6 -7.4,-3.82 -1.93,-4.56 -6.59,-0.19 -6.38,-3.84 -12.56,-0.11 -2.07,8.25 -14.52,3.84 -12.56,-4.46 -4.93,-4.64 -0.95,-7.08 -5.42,-11.25 -9.74,-12.16 2.38,-2.67 10.45,3.28 5.85,-1.04 11.75,-10.76 1.26,-6.68 8.03,-12.17 -0.93,-7.11 6.97,0.42 4.75,-4.1 6.01,0.23 9.04,-4.75 -7.35,-11.23 6.7,-4.09 21.65,-3.95 2.48,7.17 6.04,-1.08 6.76,-7.12 7.09,5.94 6.3,11.24 0.81,4.49 11.42,17.41 7.62,-10.83 15.41,-6.76 9.42,-9.64 1.06,-4.94 z"
       id="M19207"
       style="fill:#ffff80;fill-opacity:1;stroke:#000000;stroke-width:1.38063;stroke-dasharray:none;stroke-opacity:1" />
    <path
       d="m 519.1,413.13 -5.23,2.39 -5.45,-5.12 1.64,-5.63 -3.2,-5.35 -10.15,-1.1 1.07,-6.88 -5.91,-12.43 10.28,-4.49 1.87,-6.15 10.08,-1.8 8.38,-6.06 9.42,1.21 4.33,-7.68 8.3,0.44 4.01,-6.75 13.28,-13.86 -1.91,-6.13 1.9,-5.99 -2.93,-12.18 4.67,-9.58 6.16,-6.95 -3.94,-13.69 -0.11,-13.04 4.08,-16.15 6.54,-3.93 11.91,-2.31 3.95,-3.31 16.62,-2.64 7.95,2.78 6.44,-1.25 5.46,3.45 10.66,3.3 2.35,4.83 7.28,4.72 9.95,3.95 4.51,8.97 -2.76,7.89 7.93,4.56 4.43,11.36 9.59,7.23 -1.79,6.93 6.46,5.5 10.02,3.19 6.57,0.04 4.44,13.68 -9.72,16.93 6.32,4.95 0.73,10.4 2.56,6.09 15.97,4.87 12.84,-4.99 3.45,1.05 1.8,30.06 -21.73,2.09 -11.97,3.93 -5.04,-3.45 -6.84,4.84 -5.38,0.28 -7.13,-2.06 -4.47,3.22 -14.05,2.72 -5.13,4.34 -9.58,1.79 -5.25,-5.3 -1.44,-9.86 1.09,-7.78 -5.67,-4.92 -2.84,-8.51 -8.48,3.49 -13.65,11.8 -8.29,1.45 -4.99,6.79 -10.22,2.23 -4.58,5.32 -3.48,-1.99 -10.66,2.38 -21.27,-9.81 -6.83,-0.34 -9.35,2.74 -5.98,5.82 z"
       id="M19206"
       style="fill:#ffff80;fill-opacity:1;stroke:#000000;stroke-width:1.38063;stroke-dasharray:none;stroke-opacity:1" />
    <path
       d="m 530.91,113.76 -7.92,11.05 -1.12,10.95 -11,5.87 -4.24,10.36 1.24,17.83 -1.45,14.86 2.01,7.11 -8.53,0.43 -2.24,-2.8 -12.02,0.62 -15.63,-0.7 -1.38,5.39 5.19,6.8 -2.94,13.69 -15.47,11.3 -2.29,11.59 -8.5,8.39 0.83,6.51 -3.26,4.24 -4.57,11.46 9.39,4 -2.82,13.93 4.69,9.61 -13.02,11.14 5.7,4.46 0.68,7.68 -9.93,0.01 -14.07,2.44 -10.97,-1.89 5.15,-12.3 -13.4,-4.17 -11.48,-6.36 4.36,-3.2 -16.83,-16.01 -4.73,-6.7 -4.18,-1.83 3.67,-5.85 -7.46,-0.62 -15.68,-10.27 3.72,-7.54 -2.73,-2.5 -0.18,-13.48 9.23,-9.27 9.28,-21.8 -3.07,-9.18 7.95,-9.94 6.25,-5.12 4.28,0.45 1.46,-9.41 -4.81,-2.46 0.07,-10.31 2.8,-3.03 3.73,-18.09 -2.63,-7.14 5.08,-3.1 5.19,-7.8 10.76,-11.21 12.59,4.19 5.61,-12.02 2.65,-12.82 5.1,-2.06 13.43,-14.25 13.51,1.7 4.11,-1.27 4.92,5.39 3.6,-1.9 8.31,4.38 7.69,-0.83 6.18,3.41 9.62,-1.35 10.01,7.42 3.08,11.69 -0.82,6.16 4.32,3.98 9.58,2.18 z"
       id="M19205"
       style="fill:#ffff80;fill-opacity:1;stroke:#000000;stroke-width:1.38063;stroke-dasharray:none;stroke-opacity:1" />
    <path
       d="m 528.11,435.33 -7.44,-7.74 -1.57,-14.46 9.89,-3.46 5.98,-5.82 9.35,-2.74 6.83,0.34 21.27,9.81 10.66,-2.38 3.48,1.99 4.58,-5.32 10.22,-2.23 4.99,-6.79 8.29,-1.45 13.65,-11.8 8.48,-3.49 2.84,8.51 5.67,4.92 -1.09,7.78 1.44,9.86 5.25,5.3 9.58,-1.79 5.13,-4.34 14.05,-2.72 4.47,-3.22 7.13,2.06 1.83,7.64 8.76,10.25 0.55,7.57 7.66,4.84 -2.6,5.38 -10.09,1.18 -5.65,4.34 -1.07,10.79 -5.29,4.42 -15.08,3.9 -4.64,-0.89 -2.62,12.72 -3.32,4.26 -16.53,10.34 -6.41,0.92 -8.87,9.69 -0.11,10.69 -2.19,5.65 0.47,9.39 -2.78,1.5 -13.33,7.83 -5.58,-0.15 -5.76,-3.91 -8.5,-17.59 -1.52,-8.34 -4.87,-6.4 -8.72,0.39 -1.46,-7.97 -6.08,-5.77 -1.14,-6.56 -2.06,-18.09 1.1,-4.59 9.02,-4.56 -10.22,-7.18 -4.89,-7.08 -7.83,-4.47 -4.66,1.4 -12.49,-2.61 z"
       id="M19204"
       style="fill:#ffff80;fill-opacity:1;stroke:#000000;stroke-width:1.38063;stroke-dasharray:none;stroke-opacity:1" />
    <path
       d="m 477.76,547.12 6.92,-9.12 2.88,-8.2 1.37,-12.3 5.12,-11.02 1.06,-12.02 7.21,1.04 2.25,-3.48 -1.31,-7.88 5.18,-5.01 -0.05,-4.51 5.86,-7.77 7.16,-4.86 3.42,-8.17 10.74,0.49 2.78,4.72 9.3,1.8 2.85,5.95 -2.93,9.45 5.61,9.79 13.12,-3.76 1.14,6.56 6.08,5.77 1.46,7.97 -1.11,4.94 -7,2.18 -8.68,7.42 -3.97,-1.07 -8.66,3.4 -11.85,-7.7 -2.23,4.37 -1.37,10.8 -5.25,5.47 3.4,5.95 -0.91,11.66 -5.58,1.09 25.88,9.14 0.3,4.76 -4.55,12.94 17.15,11.88 12.19,7.21 -0.96,3.5 -5.07,2.14 -4.62,-2.53 -14.11,6.79 -4.23,6.05 -5.85,3.89 -5.34,-2.32 -13.5,-0.24 -57.51,14.25 -0.42,-6.77 2.66,-24.86 -4.91,-29.59 z"
       id="M19202"
       style="fill:#ffff80;fill-opacity:1;stroke:#000000;stroke-width:1.38063;stroke-dasharray:none;stroke-opacity:1" />
    <path
       d="m 313.23,367 -4.77,-5.34 2.52,-8.61 -3.11,-8.64 4.93,-5.32 -8.28,-7.47 -3.78,4.56 -5.28,-5.01 3.45,-3.5 -4.82,-9.48 4.89,-9.87 -0.3,-6.31 -8.22,-15.98 -2.45,-1.76 1.3,-10.5 8.56,-6.84 6.11,0.85 5.22,-13.22 9.93,-7.16 3.98,-7.47 -3.43,-6.99 -6.38,-2.04 0.94,-10.45 -10.23,-1.31 -2.04,-13.18 5.41,-15.73 3.11,-3.67 -1.87,-8.83 1.04,-6.8 5.51,-5.17 0.29,-16.48 19.98,0.22 3.81,-3.24 4.63,-13.4 3.51,-4.12 7.83,-0.59 4.5,-11.78 9.5,-2.07 0.89,-8.89 5.65,-2.98 4.94,3.39 6.94,-4.88 15.43,0.91 -10.76,11.21 -5.19,7.8 -5.08,3.1 2.63,7.14 -3.73,18.09 -2.8,3.03 -0.07,10.31 4.81,2.46 -1.46,9.41 -4.28,-0.45 -6.25,5.12 -7.95,9.94 3.07,9.18 -9.28,21.8 -9.23,9.27 0.18,13.48 2.73,2.5 -3.72,7.54 15.68,10.27 7.46,0.62 -3.67,5.85 6.24,13.14 -3.96,6.58 -7.69,1.87 5.19,8.56 4.86,12.32 3.29,1.81 1.07,10.27 3.72,8.43 -18.21,9.76 -10,7.09 0.15,16.69 7.75,0.74 -1.46,6.72 2.13,7.39 -16.22,9.41 -0.08,5.76 4.49,5.61 8.8,5.92 6.15,-0.38 4.23,2.95 5.75,19.12 -6.17,8.45 7.31,4.13 5.13,9.71 6.92,1.4 1.65,7.4 6.89,5.76 0.14,4.67 -4.59,3.13 -6.96,-0.15 -13.07,11.34 -15.57,-2.68 -5.52,-7.52 -0.95,-6.8 -4.88,-9.99 1.05,-8.86 5.45,-8.76 -2.46,-4.07 -8.07,-2.05 0.15,-6.46 -7.23,-10.21 0.45,-4.36 -6.13,-7.13 -7.42,-3.99 2.25,-8.61 -2.7,-14.18 -4.41,-3.94 z"
       id="M19201"
       style="fill:#ffff80;fill-opacity:1;stroke:#000000;stroke-width:1.38063;stroke-dasharray:none;stroke-opacity:1" />
    <path
       d="m 563.4,239.23 -5.81,-8.27 -14.56,-6.36 -7.16,-10.37 -1.92,-11.89 20.08,-1.05 3.41,1.82 6.29,-2.86 8.43,-0.8 4.28,-3.6 -4.22,-21.97 -5.09,-2.49 2.64,-9.85 -7.33,-7.85 0.67,-4.56 7.61,-4.07 3.54,-9.44 -2.4,-6.08 0.14,-12.05 5.67,1.56 8.6,10.67 4.98,-0.21 5.35,7.53 5.97,-7.11 9.87,-6.21 12.92,3.94 15.75,-5.72 2.82,5.07 -1.02,6.46 12.45,14.15 5.94,-1.84 0.4,16.05 1.92,2.22 -1.46,9.42 5.49,16.06 8,7 -2.22,13.19 -9.39,-0.97 -6.74,1.87 -7.51,-3.39 -4.74,1.49 -14.38,-10.11 -10.3,11 -8.24,1.08 -11.87,4.36 -4.57,-2.9 -8.63,2.34 -3.83,3.31 -1.23,6.92 -12.89,13.18 z"
       id="M19443"
       style="fill:#ffff80;fill-opacity:1;stroke:#000000;stroke-width:1.38063;stroke-dasharray:none;stroke-opacity:1" />
    <path
       d="m 569.74,250.16 -4.9,-3.22 -1.44,-7.71 5.71,-1.33 12.89,-13.18 1.23,-6.92 3.83,-3.31 8.63,-2.34 4.57,2.9 11.87,-4.36 8.24,-1.08 10.3,-11 14.38,10.11 4.74,-1.49 7.51,3.39 6.74,-1.87 9.39,0.97 4.68,6.18 2.57,8.23 5.36,4.52 5.29,0.71 5.64,11.96 -7.81,9.49 -8.9,13.29 -0.34,3.22 -11.9,-0.5 -4.66,1.9 -4.51,-8.97 -9.95,-3.95 -7.28,-4.72 -2.35,-4.83 -10.66,-3.3 -5.46,-3.45 -6.44,1.25 -7.95,-2.78 -16.62,2.64 -3.95,3.31 -11.91,2.31 z"
       id="M19442"
       style="fill:#ffff80;fill-opacity:1;stroke:#000000;stroke-width:1.38063;stroke-dasharray:none;stroke-opacity:1" />
    <path
       d="m 250.72,421.8 -3.71,11.1 -7.34,10.82 -0.95,6.45 -10.02,-0.04 -0.97,12.21 6.93,4.69 5.03,-0.58 1.85,8.45 -3.86,5.47 -13.57,7.86 -3.81,5.02 -5.19,-0.79 -7.36,-4.79 -9.84,2.5 -10.29,8.66 -5.61,0.66 -3.27,6.5 -7.3,3.78 -6.35,-8.27 -5.86,-1.95 -1.2,-11.26 -6.17,-5.27 -2.51,-13.45 -3.63,-4.37 -0.18,-9.55 2.03,-10.37 -0.38,-7.41 -19.25,-3.94 -5.13,3.32 -1.2,-12.8 6.7,-18.55 4.29,-4.88 7.34,-2.81 1.56,-3.61 6.62,2.82 10.62,1.08 0.43,-4.43 6.83,-4.44 4.41,3.98 15.51,1.25 5.67,-4.37 10.59,6.73 0.5,6.05 13.82,3.83 10.62,-3.05 12.52,2.99 7.57,5.77 z"
       id="M19368"
       style="fill:#ffff80;fill-opacity:1;stroke:#000000;stroke-width:1.38063;stroke-dasharray:none;stroke-opacity:1" />
    <path
       d="m 291.87,611.84 2.12,3 -0.7,16.95 0.64,14.43 3.53,4.64 0.2,10.78 -6.96,4.76 -1.15,4.17 -11.15,8.53 3.36,17.93 4.65,12.94 -1.11,12.93 -5.1,8.87 5.38,6.98 5.23,23.45 4.5,9.41 -4.1,6.76 3.21,5.83 1.65,10.51 -3.94,3.41 -9.34,-1.1 -4.2,9.88 -5.1,2.98 -4.26,9.78 -8.08,8.34 -6.06,-5.95 -19.37,-5.43 -3.59,1.31 -21.69,-2.23 -9.97,-17.68 -9.6,-5.43 -6.69,2.77 -4.43,-7.78 -3.03,-12.39 0.94,-5.05 -4.26,-15.07 -0.47,-6.9 -6.65,-7.89 -3.9,-9.63 -5.46,-7.04 1.87,-6.66 -2.15,-3.93 0.05,-10.07 4.79,-9.33 9.24,3.96 17.85,-4.87 0.65,-4.07 6.95,-5.77 5.01,1.75 7.35,-6.09 17.49,-2.15 2.57,8.5 18.79,-1.18 4.49,-3.78 1.56,-10.19 -3.97,-4.73 3.66,-3.95 -2.06,-7.15 2.06,-7.11 9.49,-5.7 2.28,-8.14 9.8,-3.64 -0.04,-5.66 4.42,-5.84 0.51,-7.22 5.69,2.38 z"
       id="M19366"
       style="fill:#ffff80;fill-opacity:1;stroke:#000000;stroke-width:1.38063;stroke-dasharray:none;stroke-opacity:1" />
    <path
       d="m 224.11,488.23 5.82,7.18 0.45,6.36 -6.18,8.12 0.29,10.21 12.16,-9.75 1.64,-6.63 11.57,-0.39 6.72,-6.41 7.79,-4.05 2.99,-4.31 -3.05,-5.08 7.98,-6.22 15.76,1.02 2.05,-6.07 8.08,-4.26 17.62,4.55 9.51,-2.75 18.22,-0.3 4.04,-1.33 0.95,6.8 5.52,7.52 -6.58,9.61 -2.3,13.7 -7.67,7.2 -6.03,2.7 -4.7,19.73 4.35,1.08 6.77,-3.72 -1.02,10.56 -3.74,4.97 -15.38,6.87 -2.89,8.31 -8.26,9.61 -11.66,7.58 -0.48,7.49 3.85,12.58 -6.43,11.13 -6.6,1.13 -5.69,-2.38 -0.51,7.22 -4.42,5.84 0.04,5.66 -9.8,3.64 -2.28,8.14 -9.49,5.7 -2.06,7.11 2.06,7.15 -3.66,3.95 3.97,4.73 -1.56,10.19 -4.49,3.78 -18.79,1.18 -2.57,-8.5 -17.49,2.15 -7.35,6.09 -5.01,-1.75 -6.95,5.77 -0.65,4.07 -17.85,4.87 -9.24,-3.96 -1.58,-5.5 -10.87,-13.33 -6.38,2.57 -5.55,-2.82 -6.47,-8.72 6.22,-14.95 -0.38,-9.11 6.69,-9.06 17.52,10.12 3.34,-3.07 9.98,-3.73 5.09,-10.07 1.31,-9.9 -1.33,-13.78 4.06,-1.3 5.16,-6.54 10.74,-1.69 4.06,-19.11 -10.42,-5.55 -1.83,-5.5 -8.86,-7.69 -1.84,-5.18 -7.98,-3.93 -4.45,-5.44 -1.53,-9.14 0.87,-9.5 4.39,-11.93 7.3,-3.78 3.27,-6.5 5.61,-0.66 10.29,-8.66 9.84,-2.5 7.36,4.79 5.19,0.79 z"
       id="M19365"
       style="fill:#ffff80;fill-opacity:1;stroke:#000000;stroke-width:1.38063;stroke-dasharray:none;stroke-opacity:1" />
    <path
       d="m 40.79,337.15 1.08,-2.68 9.87,-1.8 11.09,4.88 3.92,-0.92 15.23,2.95 6.31,-2.8 12.83,2.58 8.91,0.21 3.95,7.37 -3.57,4.67 2.84,6.76 -1.65,11.74 -3.59,6.88 4.49,5.46 11.86,-8 6.37,5.75 -0.9,5.91 3.47,7.4 8.2,1.09 -1.56,3.61 -7.34,2.81 -4.29,4.88 -6.7,18.55 1.2,12.8 5.13,-3.32 19.25,3.94 0.38,7.41 -2.03,10.37 0.18,9.55 3.63,4.37 2.51,13.45 6.17,5.27 1.2,11.26 5.86,1.95 6.35,8.27 -4.39,11.93 -0.87,9.5 1.53,9.14 4.45,5.44 7.98,3.93 1.84,5.18 8.86,7.69 1.83,5.5 10.42,5.55 -4.06,19.11 -10.74,1.69 -5.16,6.54 -4.06,1.3 1.33,13.78 -1.31,9.9 -5.09,10.07 -9.98,3.73 -3.34,3.07 -17.52,-10.12 -6.69,9.06 0.38,9.11 -6.22,14.95 -9.36,-0.74 -18.03,10.86 -5.43,0.13 -1.99,4.66 -7.38,7.9 -7.42,-3.23 -5.54,-7.16 -9.94,-2.13 -2.43,-7.92 -5.26,-7.62 6.9,-7.17 -1.54,-10.15 -3.46,-10.15 0.21,-5.32 -7.14,-2.38 -8.97,-5.52 0.7,-5.58 6.08,-11.8 4.87,-3.01 0.43,-8.97 9.76,-7.81 -0.41,-7.6 1.54,-16.75 -3.45,-13.88 -5.88,-2.68 -3.32,-7.13 1.63,-9.62 6.02,-2.56 3.69,-10.34 1.6,-13.53 0.38,-17.22 7.31,-8.46 -5.35,-13.39 -4.39,-3.82 2.28,-12.41 -0.49,-10.38 -6.23,-2.79 -6.36,-8 0.59,-6.03 -3.93,-7.21 -0.86,-10.6 3.47,-5.07 -2.47,-13.99 -4.15,-1.11 -1.33,-9.05 1.67,-7.53 -6.5,-5.09 3.35,-13.28 z"
       id="M19364"
       style="fill:#ffff80;fill-opacity:1;stroke:#000000;stroke-width:1.38063;stroke-dasharray:none;stroke-opacity:1" />
  </g>
</svg>
